<?xml version="1.0" encoding="utf-8" standalone="no"?>
<!DOCTYPE svg PUBLIC "-//W3C//DTD SVG 1.1//EN"
  "http://www.w3.org/Graphics/SVG/1.1/DTD/svg11.dtd">
<svg xmlns:xlink="http://www.w3.org/1999/xlink" width="720pt" height="576pt" viewBox="0 0 720 576" xmlns="http://www.w3.org/2000/svg" version="1.1">
 <metadata>
  <rdf:RDF xmlns:dc="http://purl.org/dc/elements/1.1/" xmlns:cc="http://creativecommons.org/ns#" xmlns:rdf="http://www.w3.org/1999/02/22-rdf-syntax-ns#">
   <cc:Work>
    <dc:type rdf:resource="http://purl.org/dc/dcmitype/StillImage"/>
    <dc:date>2022-06-03T10:32:46.525864</dc:date>
    <dc:format>image/svg+xml</dc:format>
    <dc:creator>
     <cc:Agent>
      <dc:title>Matplotlib v3.5.0, https://matplotlib.org/</dc:title>
     </cc:Agent>
    </dc:creator>
   </cc:Work>
  </rdf:RDF>
 </metadata>
 <defs>
  <style type="text/css">*{stroke-linejoin: round; stroke-linecap: butt}</style>
 </defs>
 <g id="figure_1">
  <g id="patch_1">
   <path d="M 0 576 
L 720 576 
L 720 0 
L 0 0 
z
" style="fill: #ffffff"/>
  </g>
  <g id="axes_1">
   <g id="patch_2">
    <path d="M 50.645234 277.25 
L 709.2 277.25 
L 709.2 50.6 
L 50.645234 50.6 
z
" style="fill: #ffffff"/>
   </g>
   <g id="matplotlib.axis_1">
    <g id="xtick_1">
     <g id="line2d_1">
      <path d="M 95.444878 277.25 
L 95.444878 50.6 
" clip-path="url(#pf4b0c00bbe)" style="fill: none; stroke: #b0b0b0; stroke-width: 0.8; stroke-linecap: square"/>
     </g>
     <g id="line2d_2">
      <defs>
       <path id="m720a574ce9" d="M 0 0 
L 0 3.5 
" style="stroke: #000000; stroke-width: 0.8"/>
      </defs>
      <g>
       <use xlink:href="#m720a574ce9" x="95.444878" y="277.25" style="stroke: #000000; stroke-width: 0.8"/>
      </g>
     </g>
    </g>
    <g id="xtick_2">
     <g id="line2d_3">
      <path d="M 202.964024 277.25 
L 202.964024 50.6 
" clip-path="url(#pf4b0c00bbe)" style="fill: none; stroke: #b0b0b0; stroke-width: 0.8; stroke-linecap: square"/>
     </g>
     <g id="line2d_4">
      <g>
       <use xlink:href="#m720a574ce9" x="202.964024" y="277.25" style="stroke: #000000; stroke-width: 0.8"/>
      </g>
     </g>
    </g>
    <g id="xtick_3">
     <g id="line2d_5">
      <path d="M 310.483169 277.25 
L 310.483169 50.6 
" clip-path="url(#pf4b0c00bbe)" style="fill: none; stroke: #b0b0b0; stroke-width: 0.8; stroke-linecap: square"/>
     </g>
     <g id="line2d_6">
      <g>
       <use xlink:href="#m720a574ce9" x="310.483169" y="277.25" style="stroke: #000000; stroke-width: 0.8"/>
      </g>
     </g>
    </g>
    <g id="xtick_4">
     <g id="line2d_7">
      <path d="M 418.002315 277.25 
L 418.002315 50.6 
" clip-path="url(#pf4b0c00bbe)" style="fill: none; stroke: #b0b0b0; stroke-width: 0.8; stroke-linecap: square"/>
     </g>
     <g id="line2d_8">
      <g>
       <use xlink:href="#m720a574ce9" x="418.002315" y="277.25" style="stroke: #000000; stroke-width: 0.8"/>
      </g>
     </g>
    </g>
    <g id="xtick_5">
     <g id="line2d_9">
      <path d="M 525.52146 277.25 
L 525.52146 50.6 
" clip-path="url(#pf4b0c00bbe)" style="fill: none; stroke: #b0b0b0; stroke-width: 0.8; stroke-linecap: square"/>
     </g>
     <g id="line2d_10">
      <g>
       <use xlink:href="#m720a574ce9" x="525.52146" y="277.25" style="stroke: #000000; stroke-width: 0.8"/>
      </g>
     </g>
    </g>
    <g id="xtick_6">
     <g id="line2d_11">
      <path d="M 633.040605 277.25 
L 633.040605 50.6 
" clip-path="url(#pf4b0c00bbe)" style="fill: none; stroke: #b0b0b0; stroke-width: 0.8; stroke-linecap: square"/>
     </g>
     <g id="line2d_12">
      <g>
       <use xlink:href="#m720a574ce9" x="633.040605" y="277.25" style="stroke: #000000; stroke-width: 0.8"/>
      </g>
     </g>
    </g>
    <g id="xtick_7">
     <g id="line2d_13">
      <defs>
       <path id="m47f744d961" d="M 0 0 
L 0 2 
" style="stroke: #000000; stroke-width: 0.6"/>
      </defs>
      <g>
       <use xlink:href="#m47f744d961" x="149.204451" y="277.25" style="stroke: #000000; stroke-width: 0.6"/>
      </g>
     </g>
    </g>
    <g id="xtick_8">
     <g id="line2d_14">
      <g>
       <use xlink:href="#m47f744d961" x="256.723596" y="277.25" style="stroke: #000000; stroke-width: 0.6"/>
      </g>
     </g>
    </g>
    <g id="xtick_9">
     <g id="line2d_15">
      <g>
       <use xlink:href="#m47f744d961" x="364.242742" y="277.25" style="stroke: #000000; stroke-width: 0.6"/>
      </g>
     </g>
    </g>
    <g id="xtick_10">
     <g id="line2d_16">
      <g>
       <use xlink:href="#m47f744d961" x="471.761887" y="277.25" style="stroke: #000000; stroke-width: 0.6"/>
      </g>
     </g>
    </g>
    <g id="xtick_11">
     <g id="line2d_17">
      <g>
       <use xlink:href="#m47f744d961" x="579.281033" y="277.25" style="stroke: #000000; stroke-width: 0.6"/>
      </g>
     </g>
    </g>
    <g id="xtick_12">
     <g id="line2d_18">
      <g>
       <use xlink:href="#m47f744d961" x="686.800178" y="277.25" style="stroke: #000000; stroke-width: 0.6"/>
      </g>
     </g>
    </g>
   </g>
   <g id="matplotlib.axis_2">
    <g id="ytick_1">
     <g id="line2d_19">
      <path d="M 50.645234 244.870904 
L 709.2 244.870904 
" clip-path="url(#pf4b0c00bbe)" style="fill: none; stroke: #b0b0b0; stroke-width: 0.8; stroke-linecap: square"/>
     </g>
     <g id="line2d_20">
      <defs>
       <path id="m2114fcd9ae" d="M 0 0 
L -3.5 0 
" style="stroke: #000000; stroke-width: 0.8"/>
      </defs>
      <g>
       <use xlink:href="#m2114fcd9ae" x="50.645234" y="244.870904" style="stroke: #000000; stroke-width: 0.8"/>
      </g>
     </g>
     <g id="text_1">
      <!-- $\mathdefault{10^{2}}$ -->
      <g transform="translate(26.045234 248.670123)scale(0.1 -0.1)">
       <defs>
        <path id="DejaVuSans-31" d="M 794 531 
L 1825 531 
L 1825 4091 
L 703 3866 
L 703 4441 
L 1819 4666 
L 2450 4666 
L 2450 531 
L 3481 531 
L 3481 0 
L 794 0 
L 794 531 
z
" transform="scale(0.015625)"/>
        <path id="DejaVuSans-30" d="M 2034 4250 
Q 1547 4250 1301 3770 
Q 1056 3291 1056 2328 
Q 1056 1369 1301 889 
Q 1547 409 2034 409 
Q 2525 409 2770 889 
Q 3016 1369 3016 2328 
Q 3016 3291 2770 3770 
Q 2525 4250 2034 4250 
z
M 2034 4750 
Q 2819 4750 3233 4129 
Q 3647 3509 3647 2328 
Q 3647 1150 3233 529 
Q 2819 -91 2034 -91 
Q 1250 -91 836 529 
Q 422 1150 422 2328 
Q 422 3509 836 4129 
Q 1250 4750 2034 4750 
z
" transform="scale(0.015625)"/>
        <path id="DejaVuSans-32" d="M 1228 531 
L 3431 531 
L 3431 0 
L 469 0 
L 469 531 
Q 828 903 1448 1529 
Q 2069 2156 2228 2338 
Q 2531 2678 2651 2914 
Q 2772 3150 2772 3378 
Q 2772 3750 2511 3984 
Q 2250 4219 1831 4219 
Q 1534 4219 1204 4116 
Q 875 4013 500 3803 
L 500 4441 
Q 881 4594 1212 4672 
Q 1544 4750 1819 4750 
Q 2544 4750 2975 4387 
Q 3406 4025 3406 3419 
Q 3406 3131 3298 2873 
Q 3191 2616 2906 2266 
Q 2828 2175 2409 1742 
Q 1991 1309 1228 531 
z
" transform="scale(0.015625)"/>
       </defs>
       <use xlink:href="#DejaVuSans-31" transform="translate(0 0.765625)"/>
       <use xlink:href="#DejaVuSans-30" transform="translate(63.623047 0.765625)"/>
       <use xlink:href="#DejaVuSans-32" transform="translate(128.203125 39.046875)scale(0.7)"/>
      </g>
     </g>
    </g>
    <g id="ytick_2">
     <g id="line2d_21">
      <path d="M 50.645234 207.134464 
L 709.2 207.134464 
" clip-path="url(#pf4b0c00bbe)" style="fill: none; stroke: #b0b0b0; stroke-width: 0.8; stroke-linecap: square"/>
     </g>
     <g id="line2d_22">
      <g>
       <use xlink:href="#m2114fcd9ae" x="50.645234" y="207.134464" style="stroke: #000000; stroke-width: 0.8"/>
      </g>
     </g>
     <g id="text_2">
      <!-- $\mathdefault{10^{3}}$ -->
      <g transform="translate(26.045234 210.933683)scale(0.1 -0.1)">
       <defs>
        <path id="DejaVuSans-33" d="M 2597 2516 
Q 3050 2419 3304 2112 
Q 3559 1806 3559 1356 
Q 3559 666 3084 287 
Q 2609 -91 1734 -91 
Q 1441 -91 1130 -33 
Q 819 25 488 141 
L 488 750 
Q 750 597 1062 519 
Q 1375 441 1716 441 
Q 2309 441 2620 675 
Q 2931 909 2931 1356 
Q 2931 1769 2642 2001 
Q 2353 2234 1838 2234 
L 1294 2234 
L 1294 2753 
L 1863 2753 
Q 2328 2753 2575 2939 
Q 2822 3125 2822 3475 
Q 2822 3834 2567 4026 
Q 2313 4219 1838 4219 
Q 1578 4219 1281 4162 
Q 984 4106 628 3988 
L 628 4550 
Q 988 4650 1302 4700 
Q 1616 4750 1894 4750 
Q 2613 4750 3031 4423 
Q 3450 4097 3450 3541 
Q 3450 3153 3228 2886 
Q 3006 2619 2597 2516 
z
" transform="scale(0.015625)"/>
       </defs>
       <use xlink:href="#DejaVuSans-31" transform="translate(0 0.765625)"/>
       <use xlink:href="#DejaVuSans-30" transform="translate(63.623047 0.765625)"/>
       <use xlink:href="#DejaVuSans-33" transform="translate(128.203125 39.046875)scale(0.7)"/>
      </g>
     </g>
    </g>
    <g id="ytick_3">
     <g id="line2d_23">
      <path d="M 50.645234 169.398025 
L 709.2 169.398025 
" clip-path="url(#pf4b0c00bbe)" style="fill: none; stroke: #b0b0b0; stroke-width: 0.8; stroke-linecap: square"/>
     </g>
     <g id="line2d_24">
      <g>
       <use xlink:href="#m2114fcd9ae" x="50.645234" y="169.398025" style="stroke: #000000; stroke-width: 0.8"/>
      </g>
     </g>
     <g id="text_3">
      <!-- $\mathdefault{10^{4}}$ -->
      <g transform="translate(26.045234 173.197243)scale(0.1 -0.1)">
       <defs>
        <path id="DejaVuSans-34" d="M 2419 4116 
L 825 1625 
L 2419 1625 
L 2419 4116 
z
M 2253 4666 
L 3047 4666 
L 3047 1625 
L 3713 1625 
L 3713 1100 
L 3047 1100 
L 3047 0 
L 2419 0 
L 2419 1100 
L 313 1100 
L 313 1709 
L 2253 4666 
z
" transform="scale(0.015625)"/>
       </defs>
       <use xlink:href="#DejaVuSans-31" transform="translate(0 0.684375)"/>
       <use xlink:href="#DejaVuSans-30" transform="translate(63.623047 0.684375)"/>
       <use xlink:href="#DejaVuSans-34" transform="translate(128.203125 38.965625)scale(0.7)"/>
      </g>
     </g>
    </g>
    <g id="ytick_4">
     <g id="line2d_25">
      <path d="M 50.645234 131.661585 
L 709.2 131.661585 
" clip-path="url(#pf4b0c00bbe)" style="fill: none; stroke: #b0b0b0; stroke-width: 0.8; stroke-linecap: square"/>
     </g>
     <g id="line2d_26">
      <g>
       <use xlink:href="#m2114fcd9ae" x="50.645234" y="131.661585" style="stroke: #000000; stroke-width: 0.8"/>
      </g>
     </g>
     <g id="text_4">
      <!-- $\mathdefault{10^{5}}$ -->
      <g transform="translate(26.045234 135.460804)scale(0.1 -0.1)">
       <defs>
        <path id="DejaVuSans-35" d="M 691 4666 
L 3169 4666 
L 3169 4134 
L 1269 4134 
L 1269 2991 
Q 1406 3038 1543 3061 
Q 1681 3084 1819 3084 
Q 2600 3084 3056 2656 
Q 3513 2228 3513 1497 
Q 3513 744 3044 326 
Q 2575 -91 1722 -91 
Q 1428 -91 1123 -41 
Q 819 9 494 109 
L 494 744 
Q 775 591 1075 516 
Q 1375 441 1709 441 
Q 2250 441 2565 725 
Q 2881 1009 2881 1497 
Q 2881 1984 2565 2268 
Q 2250 2553 1709 2553 
Q 1456 2553 1204 2497 
Q 953 2441 691 2322 
L 691 4666 
z
" transform="scale(0.015625)"/>
       </defs>
       <use xlink:href="#DejaVuSans-31" transform="translate(0 0.684375)"/>
       <use xlink:href="#DejaVuSans-30" transform="translate(63.623047 0.684375)"/>
       <use xlink:href="#DejaVuSans-35" transform="translate(128.203125 38.965625)scale(0.7)"/>
      </g>
     </g>
    </g>
    <g id="ytick_5">
     <g id="line2d_27">
      <path d="M 50.645234 93.925145 
L 709.2 93.925145 
" clip-path="url(#pf4b0c00bbe)" style="fill: none; stroke: #b0b0b0; stroke-width: 0.8; stroke-linecap: square"/>
     </g>
     <g id="line2d_28">
      <g>
       <use xlink:href="#m2114fcd9ae" x="50.645234" y="93.925145" style="stroke: #000000; stroke-width: 0.8"/>
      </g>
     </g>
     <g id="text_5">
      <!-- $\mathdefault{10^{6}}$ -->
      <g transform="translate(26.045234 97.724364)scale(0.1 -0.1)">
       <defs>
        <path id="DejaVuSans-36" d="M 2113 2584 
Q 1688 2584 1439 2293 
Q 1191 2003 1191 1497 
Q 1191 994 1439 701 
Q 1688 409 2113 409 
Q 2538 409 2786 701 
Q 3034 994 3034 1497 
Q 3034 2003 2786 2293 
Q 2538 2584 2113 2584 
z
M 3366 4563 
L 3366 3988 
Q 3128 4100 2886 4159 
Q 2644 4219 2406 4219 
Q 1781 4219 1451 3797 
Q 1122 3375 1075 2522 
Q 1259 2794 1537 2939 
Q 1816 3084 2150 3084 
Q 2853 3084 3261 2657 
Q 3669 2231 3669 1497 
Q 3669 778 3244 343 
Q 2819 -91 2113 -91 
Q 1303 -91 875 529 
Q 447 1150 447 2328 
Q 447 3434 972 4092 
Q 1497 4750 2381 4750 
Q 2619 4750 2861 4703 
Q 3103 4656 3366 4563 
z
" transform="scale(0.015625)"/>
       </defs>
       <use xlink:href="#DejaVuSans-31" transform="translate(0 0.765625)"/>
       <use xlink:href="#DejaVuSans-30" transform="translate(63.623047 0.765625)"/>
       <use xlink:href="#DejaVuSans-36" transform="translate(128.203125 39.046875)scale(0.7)"/>
      </g>
     </g>
    </g>
    <g id="ytick_6">
     <g id="line2d_29">
      <path d="M 50.645234 56.188705 
L 709.2 56.188705 
" clip-path="url(#pf4b0c00bbe)" style="fill: none; stroke: #b0b0b0; stroke-width: 0.8; stroke-linecap: square"/>
     </g>
     <g id="line2d_30">
      <g>
       <use xlink:href="#m2114fcd9ae" x="50.645234" y="56.188705" style="stroke: #000000; stroke-width: 0.8"/>
      </g>
     </g>
     <g id="text_6">
      <!-- $\mathdefault{10^{7}}$ -->
      <g transform="translate(26.045234 59.987924)scale(0.1 -0.1)">
       <defs>
        <path id="DejaVuSans-37" d="M 525 4666 
L 3525 4666 
L 3525 4397 
L 1831 0 
L 1172 0 
L 2766 4134 
L 525 4134 
L 525 4666 
z
" transform="scale(0.015625)"/>
       </defs>
       <use xlink:href="#DejaVuSans-31" transform="translate(0 0.684375)"/>
       <use xlink:href="#DejaVuSans-30" transform="translate(63.623047 0.684375)"/>
       <use xlink:href="#DejaVuSans-37" transform="translate(128.203125 38.965625)scale(0.7)"/>
      </g>
     </g>
    </g>
    <g id="ytick_7">
     <g id="line2d_31">
      <defs>
       <path id="me84dd832b3" d="M 0 0 
L -2 0 
" style="stroke: #000000; stroke-width: 0.6"/>
      </defs>
      <g>
       <use xlink:href="#me84dd832b3" x="50.645234" y="271.247544" style="stroke: #000000; stroke-width: 0.6"/>
      </g>
     </g>
    </g>
    <g id="ytick_8">
     <g id="line2d_32">
      <g>
       <use xlink:href="#me84dd832b3" x="50.645234" y="264.602487" style="stroke: #000000; stroke-width: 0.6"/>
      </g>
     </g>
    </g>
    <g id="ytick_9">
     <g id="line2d_33">
      <g>
       <use xlink:href="#me84dd832b3" x="50.645234" y="259.887743" style="stroke: #000000; stroke-width: 0.6"/>
      </g>
     </g>
    </g>
    <g id="ytick_10">
     <g id="line2d_34">
      <g>
       <use xlink:href="#me84dd832b3" x="50.645234" y="256.230705" style="stroke: #000000; stroke-width: 0.6"/>
      </g>
     </g>
    </g>
    <g id="ytick_11">
     <g id="line2d_35">
      <g>
       <use xlink:href="#me84dd832b3" x="50.645234" y="253.242686" style="stroke: #000000; stroke-width: 0.6"/>
      </g>
     </g>
    </g>
    <g id="ytick_12">
     <g id="line2d_36">
      <g>
       <use xlink:href="#me84dd832b3" x="50.645234" y="250.716353" style="stroke: #000000; stroke-width: 0.6"/>
      </g>
     </g>
    </g>
    <g id="ytick_13">
     <g id="line2d_37">
      <g>
       <use xlink:href="#me84dd832b3" x="50.645234" y="248.527943" style="stroke: #000000; stroke-width: 0.6"/>
      </g>
     </g>
    </g>
    <g id="ytick_14">
     <g id="line2d_38">
      <g>
       <use xlink:href="#me84dd832b3" x="50.645234" y="246.597629" style="stroke: #000000; stroke-width: 0.6"/>
      </g>
     </g>
    </g>
    <g id="ytick_15">
     <g id="line2d_39">
      <g>
       <use xlink:href="#me84dd832b3" x="50.645234" y="233.511104" style="stroke: #000000; stroke-width: 0.6"/>
      </g>
     </g>
    </g>
    <g id="ytick_16">
     <g id="line2d_40">
      <g>
       <use xlink:href="#me84dd832b3" x="50.645234" y="226.866047" style="stroke: #000000; stroke-width: 0.6"/>
      </g>
     </g>
    </g>
    <g id="ytick_17">
     <g id="line2d_41">
      <g>
       <use xlink:href="#me84dd832b3" x="50.645234" y="222.151304" style="stroke: #000000; stroke-width: 0.6"/>
      </g>
     </g>
    </g>
    <g id="ytick_18">
     <g id="line2d_42">
      <g>
       <use xlink:href="#me84dd832b3" x="50.645234" y="218.494265" style="stroke: #000000; stroke-width: 0.6"/>
      </g>
     </g>
    </g>
    <g id="ytick_19">
     <g id="line2d_43">
      <g>
       <use xlink:href="#me84dd832b3" x="50.645234" y="215.506246" style="stroke: #000000; stroke-width: 0.6"/>
      </g>
     </g>
    </g>
    <g id="ytick_20">
     <g id="line2d_44">
      <g>
       <use xlink:href="#me84dd832b3" x="50.645234" y="212.979913" style="stroke: #000000; stroke-width: 0.6"/>
      </g>
     </g>
    </g>
    <g id="ytick_21">
     <g id="line2d_45">
      <g>
       <use xlink:href="#me84dd832b3" x="50.645234" y="210.791503" style="stroke: #000000; stroke-width: 0.6"/>
      </g>
     </g>
    </g>
    <g id="ytick_22">
     <g id="line2d_46">
      <g>
       <use xlink:href="#me84dd832b3" x="50.645234" y="208.861189" style="stroke: #000000; stroke-width: 0.6"/>
      </g>
     </g>
    </g>
    <g id="ytick_23">
     <g id="line2d_47">
      <g>
       <use xlink:href="#me84dd832b3" x="50.645234" y="195.774664" style="stroke: #000000; stroke-width: 0.6"/>
      </g>
     </g>
    </g>
    <g id="ytick_24">
     <g id="line2d_48">
      <g>
       <use xlink:href="#me84dd832b3" x="50.645234" y="189.129607" style="stroke: #000000; stroke-width: 0.6"/>
      </g>
     </g>
    </g>
    <g id="ytick_25">
     <g id="line2d_49">
      <g>
       <use xlink:href="#me84dd832b3" x="50.645234" y="184.414864" style="stroke: #000000; stroke-width: 0.6"/>
      </g>
     </g>
    </g>
    <g id="ytick_26">
     <g id="line2d_50">
      <g>
       <use xlink:href="#me84dd832b3" x="50.645234" y="180.757825" style="stroke: #000000; stroke-width: 0.6"/>
      </g>
     </g>
    </g>
    <g id="ytick_27">
     <g id="line2d_51">
      <g>
       <use xlink:href="#me84dd832b3" x="50.645234" y="177.769807" style="stroke: #000000; stroke-width: 0.6"/>
      </g>
     </g>
    </g>
    <g id="ytick_28">
     <g id="line2d_52">
      <g>
       <use xlink:href="#me84dd832b3" x="50.645234" y="175.243473" style="stroke: #000000; stroke-width: 0.6"/>
      </g>
     </g>
    </g>
    <g id="ytick_29">
     <g id="line2d_53">
      <g>
       <use xlink:href="#me84dd832b3" x="50.645234" y="173.055063" style="stroke: #000000; stroke-width: 0.6"/>
      </g>
     </g>
    </g>
    <g id="ytick_30">
     <g id="line2d_54">
      <g>
       <use xlink:href="#me84dd832b3" x="50.645234" y="171.124749" style="stroke: #000000; stroke-width: 0.6"/>
      </g>
     </g>
    </g>
    <g id="ytick_31">
     <g id="line2d_55">
      <g>
       <use xlink:href="#me84dd832b3" x="50.645234" y="158.038224" style="stroke: #000000; stroke-width: 0.6"/>
      </g>
     </g>
    </g>
    <g id="ytick_32">
     <g id="line2d_56">
      <g>
       <use xlink:href="#me84dd832b3" x="50.645234" y="151.393167" style="stroke: #000000; stroke-width: 0.6"/>
      </g>
     </g>
    </g>
    <g id="ytick_33">
     <g id="line2d_57">
      <g>
       <use xlink:href="#me84dd832b3" x="50.645234" y="146.678424" style="stroke: #000000; stroke-width: 0.6"/>
      </g>
     </g>
    </g>
    <g id="ytick_34">
     <g id="line2d_58">
      <g>
       <use xlink:href="#me84dd832b3" x="50.645234" y="143.021385" style="stroke: #000000; stroke-width: 0.6"/>
      </g>
     </g>
    </g>
    <g id="ytick_35">
     <g id="line2d_59">
      <g>
       <use xlink:href="#me84dd832b3" x="50.645234" y="140.033367" style="stroke: #000000; stroke-width: 0.6"/>
      </g>
     </g>
    </g>
    <g id="ytick_36">
     <g id="line2d_60">
      <g>
       <use xlink:href="#me84dd832b3" x="50.645234" y="137.507033" style="stroke: #000000; stroke-width: 0.6"/>
      </g>
     </g>
    </g>
    <g id="ytick_37">
     <g id="line2d_61">
      <g>
       <use xlink:href="#me84dd832b3" x="50.645234" y="135.318624" style="stroke: #000000; stroke-width: 0.6"/>
      </g>
     </g>
    </g>
    <g id="ytick_38">
     <g id="line2d_62">
      <g>
       <use xlink:href="#me84dd832b3" x="50.645234" y="133.38831" style="stroke: #000000; stroke-width: 0.6"/>
      </g>
     </g>
    </g>
    <g id="ytick_39">
     <g id="line2d_63">
      <g>
       <use xlink:href="#me84dd832b3" x="50.645234" y="120.301784" style="stroke: #000000; stroke-width: 0.6"/>
      </g>
     </g>
    </g>
    <g id="ytick_40">
     <g id="line2d_64">
      <g>
       <use xlink:href="#me84dd832b3" x="50.645234" y="113.656727" style="stroke: #000000; stroke-width: 0.6"/>
      </g>
     </g>
    </g>
    <g id="ytick_41">
     <g id="line2d_65">
      <g>
       <use xlink:href="#me84dd832b3" x="50.645234" y="108.941984" style="stroke: #000000; stroke-width: 0.6"/>
      </g>
     </g>
    </g>
    <g id="ytick_42">
     <g id="line2d_66">
      <g>
       <use xlink:href="#me84dd832b3" x="50.645234" y="105.284945" style="stroke: #000000; stroke-width: 0.6"/>
      </g>
     </g>
    </g>
    <g id="ytick_43">
     <g id="line2d_67">
      <g>
       <use xlink:href="#me84dd832b3" x="50.645234" y="102.296927" style="stroke: #000000; stroke-width: 0.6"/>
      </g>
     </g>
    </g>
    <g id="ytick_44">
     <g id="line2d_68">
      <g>
       <use xlink:href="#me84dd832b3" x="50.645234" y="99.770593" style="stroke: #000000; stroke-width: 0.6"/>
      </g>
     </g>
    </g>
    <g id="ytick_45">
     <g id="line2d_69">
      <g>
       <use xlink:href="#me84dd832b3" x="50.645234" y="97.582184" style="stroke: #000000; stroke-width: 0.6"/>
      </g>
     </g>
    </g>
    <g id="ytick_46">
     <g id="line2d_70">
      <g>
       <use xlink:href="#me84dd832b3" x="50.645234" y="95.65187" style="stroke: #000000; stroke-width: 0.6"/>
      </g>
     </g>
    </g>
    <g id="ytick_47">
     <g id="line2d_71">
      <g>
       <use xlink:href="#me84dd832b3" x="50.645234" y="82.565345" style="stroke: #000000; stroke-width: 0.6"/>
      </g>
     </g>
    </g>
    <g id="ytick_48">
     <g id="line2d_72">
      <g>
       <use xlink:href="#me84dd832b3" x="50.645234" y="75.920287" style="stroke: #000000; stroke-width: 0.6"/>
      </g>
     </g>
    </g>
    <g id="ytick_49">
     <g id="line2d_73">
      <g>
       <use xlink:href="#me84dd832b3" x="50.645234" y="71.205544" style="stroke: #000000; stroke-width: 0.6"/>
      </g>
     </g>
    </g>
    <g id="ytick_50">
     <g id="line2d_74">
      <g>
       <use xlink:href="#me84dd832b3" x="50.645234" y="67.548506" style="stroke: #000000; stroke-width: 0.6"/>
      </g>
     </g>
    </g>
    <g id="ytick_51">
     <g id="line2d_75">
      <g>
       <use xlink:href="#me84dd832b3" x="50.645234" y="64.560487" style="stroke: #000000; stroke-width: 0.6"/>
      </g>
     </g>
    </g>
    <g id="ytick_52">
     <g id="line2d_76">
      <g>
       <use xlink:href="#me84dd832b3" x="50.645234" y="62.034154" style="stroke: #000000; stroke-width: 0.6"/>
      </g>
     </g>
    </g>
    <g id="ytick_53">
     <g id="line2d_77">
      <g>
       <use xlink:href="#me84dd832b3" x="50.645234" y="59.845744" style="stroke: #000000; stroke-width: 0.6"/>
      </g>
     </g>
    </g>
    <g id="ytick_54">
     <g id="line2d_78">
      <g>
       <use xlink:href="#me84dd832b3" x="50.645234" y="57.91543" style="stroke: #000000; stroke-width: 0.6"/>
      </g>
     </g>
    </g>
    <g id="text_7">
     <!-- lines of code -->
     <g transform="translate(19.965547 195.610156)rotate(-90)scale(0.1 -0.1)">
      <defs>
       <path id="DejaVuSans-6c" d="M 603 4863 
L 1178 4863 
L 1178 0 
L 603 0 
L 603 4863 
z
" transform="scale(0.015625)"/>
       <path id="DejaVuSans-69" d="M 603 3500 
L 1178 3500 
L 1178 0 
L 603 0 
L 603 3500 
z
M 603 4863 
L 1178 4863 
L 1178 4134 
L 603 4134 
L 603 4863 
z
" transform="scale(0.015625)"/>
       <path id="DejaVuSans-6e" d="M 3513 2113 
L 3513 0 
L 2938 0 
L 2938 2094 
Q 2938 2591 2744 2837 
Q 2550 3084 2163 3084 
Q 1697 3084 1428 2787 
Q 1159 2491 1159 1978 
L 1159 0 
L 581 0 
L 581 3500 
L 1159 3500 
L 1159 2956 
Q 1366 3272 1645 3428 
Q 1925 3584 2291 3584 
Q 2894 3584 3203 3211 
Q 3513 2838 3513 2113 
z
" transform="scale(0.015625)"/>
       <path id="DejaVuSans-65" d="M 3597 1894 
L 3597 1613 
L 953 1613 
Q 991 1019 1311 708 
Q 1631 397 2203 397 
Q 2534 397 2845 478 
Q 3156 559 3463 722 
L 3463 178 
Q 3153 47 2828 -22 
Q 2503 -91 2169 -91 
Q 1331 -91 842 396 
Q 353 884 353 1716 
Q 353 2575 817 3079 
Q 1281 3584 2069 3584 
Q 2775 3584 3186 3129 
Q 3597 2675 3597 1894 
z
M 3022 2063 
Q 3016 2534 2758 2815 
Q 2500 3097 2075 3097 
Q 1594 3097 1305 2825 
Q 1016 2553 972 2059 
L 3022 2063 
z
" transform="scale(0.015625)"/>
       <path id="DejaVuSans-73" d="M 2834 3397 
L 2834 2853 
Q 2591 2978 2328 3040 
Q 2066 3103 1784 3103 
Q 1356 3103 1142 2972 
Q 928 2841 928 2578 
Q 928 2378 1081 2264 
Q 1234 2150 1697 2047 
L 1894 2003 
Q 2506 1872 2764 1633 
Q 3022 1394 3022 966 
Q 3022 478 2636 193 
Q 2250 -91 1575 -91 
Q 1294 -91 989 -36 
Q 684 19 347 128 
L 347 722 
Q 666 556 975 473 
Q 1284 391 1588 391 
Q 1994 391 2212 530 
Q 2431 669 2431 922 
Q 2431 1156 2273 1281 
Q 2116 1406 1581 1522 
L 1381 1569 
Q 847 1681 609 1914 
Q 372 2147 372 2553 
Q 372 3047 722 3315 
Q 1072 3584 1716 3584 
Q 2034 3584 2315 3537 
Q 2597 3491 2834 3397 
z
" transform="scale(0.015625)"/>
       <path id="DejaVuSans-20" transform="scale(0.015625)"/>
       <path id="DejaVuSans-6f" d="M 1959 3097 
Q 1497 3097 1228 2736 
Q 959 2375 959 1747 
Q 959 1119 1226 758 
Q 1494 397 1959 397 
Q 2419 397 2687 759 
Q 2956 1122 2956 1747 
Q 2956 2369 2687 2733 
Q 2419 3097 1959 3097 
z
M 1959 3584 
Q 2709 3584 3137 3096 
Q 3566 2609 3566 1747 
Q 3566 888 3137 398 
Q 2709 -91 1959 -91 
Q 1206 -91 779 398 
Q 353 888 353 1747 
Q 353 2609 779 3096 
Q 1206 3584 1959 3584 
z
" transform="scale(0.015625)"/>
       <path id="DejaVuSans-66" d="M 2375 4863 
L 2375 4384 
L 1825 4384 
Q 1516 4384 1395 4259 
Q 1275 4134 1275 3809 
L 1275 3500 
L 2222 3500 
L 2222 3053 
L 1275 3053 
L 1275 0 
L 697 0 
L 697 3053 
L 147 3053 
L 147 3500 
L 697 3500 
L 697 3744 
Q 697 4328 969 4595 
Q 1241 4863 1831 4863 
L 2375 4863 
z
" transform="scale(0.015625)"/>
       <path id="DejaVuSans-63" d="M 3122 3366 
L 3122 2828 
Q 2878 2963 2633 3030 
Q 2388 3097 2138 3097 
Q 1578 3097 1268 2742 
Q 959 2388 959 1747 
Q 959 1106 1268 751 
Q 1578 397 2138 397 
Q 2388 397 2633 464 
Q 2878 531 3122 666 
L 3122 134 
Q 2881 22 2623 -34 
Q 2366 -91 2075 -91 
Q 1284 -91 818 406 
Q 353 903 353 1747 
Q 353 2603 823 3093 
Q 1294 3584 2113 3584 
Q 2378 3584 2631 3529 
Q 2884 3475 3122 3366 
z
" transform="scale(0.015625)"/>
       <path id="DejaVuSans-64" d="M 2906 2969 
L 2906 4863 
L 3481 4863 
L 3481 0 
L 2906 0 
L 2906 525 
Q 2725 213 2448 61 
Q 2172 -91 1784 -91 
Q 1150 -91 751 415 
Q 353 922 353 1747 
Q 353 2572 751 3078 
Q 1150 3584 1784 3584 
Q 2172 3584 2448 3432 
Q 2725 3281 2906 2969 
z
M 947 1747 
Q 947 1113 1208 752 
Q 1469 391 1925 391 
Q 2381 391 2643 752 
Q 2906 1113 2906 1747 
Q 2906 2381 2643 2742 
Q 2381 3103 1925 3103 
Q 1469 3103 1208 2742 
Q 947 2381 947 1747 
z
" transform="scale(0.015625)"/>
      </defs>
      <use xlink:href="#DejaVuSans-6c"/>
      <use xlink:href="#DejaVuSans-69" x="27.783203"/>
      <use xlink:href="#DejaVuSans-6e" x="55.566406"/>
      <use xlink:href="#DejaVuSans-65" x="118.945312"/>
      <use xlink:href="#DejaVuSans-73" x="180.46875"/>
      <use xlink:href="#DejaVuSans-20" x="232.568359"/>
      <use xlink:href="#DejaVuSans-6f" x="264.355469"/>
      <use xlink:href="#DejaVuSans-66" x="325.537109"/>
      <use xlink:href="#DejaVuSans-20" x="360.742188"/>
      <use xlink:href="#DejaVuSans-63" x="392.529297"/>
      <use xlink:href="#DejaVuSans-6f" x="447.509766"/>
      <use xlink:href="#DejaVuSans-64" x="508.691406"/>
      <use xlink:href="#DejaVuSans-65" x="572.167969"/>
     </g>
    </g>
   </g>
   <g id="line2d_79">
    <path d="M 90.964914 112.798484 
L 95.444878 142.10482 
L 99.924843 123.96538 
L 104.404807 118.922855 
L 108.884771 124.479779 
L 113.364736 160.520504 
L 117.8447 139.077125 
L 122.324665 130.07233 
L 126.804629 129.598659 
L 131.284593 124.185005 
L 135.764558 132.198832 
L 140.244522 134.696148 
L 144.724487 120.624271 
L 149.204451 117.588519 
L 153.684415 138.251342 
L 158.16438 143.589652 
L 162.644344 111.222852 
L 167.124309 115.039643 
L 171.604273 120.144716 
L 176.084237 110.650919 
L 180.564202 124.535491 
L 185.044166 143.837538 
L 189.524131 150.875885 
L 194.004095 148.496451 
L 198.484059 187.375045 
L 202.964024 146.129678 
L 211.923952 193.166591 
L 216.403917 118.168205 
L 220.883881 164.935135 
L 225.363846 177.987025 
L 229.84381 213.31101 
L 234.323774 186.872373 
L 238.803739 178.348031 
L 243.283703 148.036483 
L 247.763668 174.299567 
L 252.243632 141.190139 
L 256.723596 159.016581 
L 261.203561 166.076096 
L 265.683525 137.52179 
L 270.16349 150.612299 
L 274.643454 144.590807 
L 279.123418 135.787217 
L 283.603383 116.130682 
L 288.083347 153.57159 
L 292.563312 134.609009 
L 297.043276 142.516282 
L 301.52324 143.265418 
L 306.003205 143.310727 
L 310.483169 144.220598 
L 314.963134 147.012447 
L 319.443098 138.13635 
L 323.923062 147.288653 
L 328.403027 143.098923 
L 332.882991 148.809807 
L 337.362955 125.107574 
L 341.84292 139.427137 
L 346.322884 132.595292 
L 350.802849 143.626002 
L 355.282813 156.153863 
L 359.762777 151.865906 
L 364.242742 142.262721 
L 368.722706 132.047793 
L 373.202671 148.507442 
L 377.682635 138.995136 
L 382.162599 142.714207 
L 386.642564 155.782656 
L 391.122528 146.260158 
L 395.602493 139.348621 
L 400.082457 146.333411 
L 404.562421 138.874061 
L 409.042386 141.400182 
L 413.52235 144.772164 
L 418.002315 146.475644 
L 422.482279 144.014188 
L 426.962243 133.32742 
L 431.442208 141.327306 
L 435.922172 134.953564 
L 440.402136 148.38604 
L 444.882101 144.848571 
L 449.362065 144.076992 
L 453.84203 155.08986 
L 458.321994 141.332036 
L 462.801958 144.328158 
L 467.281923 146.784061 
L 471.761887 140.24422 
L 476.241852 140.536216 
L 480.721816 150.525025 
L 485.20178 163.836915 
L 489.681745 152.766219 
L 494.161709 149.945779 
L 498.641674 139.287695 
L 503.121638 147.860718 
L 507.601602 156.023634 
L 512.081567 142.46139 
L 516.561531 145.049874 
L 521.041496 161.795953 
L 525.52146 155.538134 
L 530.001424 132.107301 
L 534.481389 122.922034 
L 538.961353 123.488619 
L 543.441317 124.2441 
L 547.921282 127.547633 
L 552.401246 126.075747 
L 556.881211 143.4464 
L 561.361175 146.294542 
L 565.841139 146.109879 
L 570.321104 130.218298 
L 574.801068 140.762818 
L 579.281033 142.527092 
L 583.760997 140.394872 
L 588.240961 138.826794 
L 592.720926 127.662662 
L 597.20089 127.481337 
L 601.680855 140.078224 
L 606.160819 148.00491 
L 610.640783 140.814303 
L 615.120748 138.604493 
L 619.600712 129.376053 
L 624.080677 134.613522 
L 628.560641 87.225288 
L 633.040605 137.163912 
L 637.52057 117.480479 
L 642.000534 122.044451 
L 646.480499 135.8176 
L 650.960463 140.775674 
L 655.440427 145.409545 
L 659.920392 128.704735 
L 664.400356 134.168482 
L 668.88032 148.666251 
L 673.360285 146.921127 
L 677.840249 137.552517 
L 682.320214 142.663459 
L 686.800178 132.618384 
L 691.280142 137.780893 
L 695.760107 145.211668 
L 700.240071 133.91286 
L 704.720036 160.557731 
L 709.2 266.947727 
L 709.2 266.947727 
" clip-path="url(#pf4b0c00bbe)" style="fill: none; stroke: #1f77b4; stroke-width: 1.5; stroke-linecap: square"/>
   </g>
   <g id="line2d_80">
    <path d="M 50.645234 110.90379 
L 55.125199 192.395295 
L 59.605163 249.15434 
L 64.085128 176.612537 
L 68.565092 223.07842 
L 73.045056 232.24981 
L 77.525021 210.070123 
L 82.004985 178.266179 
L 86.48495 171.805155 
L 90.964914 167.946636 
L 95.444878 195.989115 
L 99.924843 130.804793 
L 104.404807 131.249391 
L 108.884771 119.268169 
L 113.364736 198.409247 
L 117.8447 162.038907 
L 122.324665 185.639488 
L 126.804629 187.379954 
L 131.284593 257.597223 
L 135.764558 205.498126 
L 140.244522 214.758748 
L 144.724487 60.902273 
L 149.204451 219.789682 
L 153.684415 192.972064 
L 158.16438 229.465381 
L 162.644344 220.039897 
L 167.124309 203.56946 
L 171.604273 164.957618 
L 176.084237 157.948333 
L 180.564202 156.010596 
L 185.044166 149.663165 
L 189.524131 132.540732 
L 194.004095 168.387506 
L 198.484059 157.021543 
L 202.964024 131.468682 
L 207.443988 131.8417 
L 211.923952 156.736767 
L 216.403917 147.213554 
L 220.883881 152.854372 
L 225.363846 143.705436 
L 229.84381 126.383996 
L 234.323774 136.849405 
L 238.803739 124.736072 
L 243.283703 133.107567 
L 247.763668 137.130472 
L 252.243632 126.756369 
L 256.723596 123.82915 
L 261.203561 176.43785 
L 265.683525 115.472801 
L 270.16349 148.451649 
L 274.643454 157.415945 
L 279.123418 157.948333 
L 283.603383 148.329752 
L 288.083347 146.595462 
L 292.563312 157.679176 
L 297.043276 137.588006 
L 301.52324 145.061378 
L 306.003205 160.775134 
L 310.483169 153.857341 
L 314.963134 140.067272 
L 319.443098 154.812257 
L 323.923062 140.645014 
L 328.403027 127.555157 
L 332.882991 148.881824 
L 337.362955 136.368682 
L 341.84292 138.360485 
L 346.322884 154.160448 
L 350.802849 149.735091 
L 355.282813 141.428412 
L 359.762777 148.57722 
L 364.242742 144.347694 
L 368.722706 148.992335 
L 373.202671 139.395843 
L 377.682635 126.156601 
L 382.162599 143.900014 
L 386.642564 150.856841 
L 391.122528 156.666528 
L 395.602493 154.056003 
L 400.082457 156.814912 
L 404.562421 151.810335 
L 409.042386 150.20894 
L 413.52235 160.379053 
L 418.002315 154.571743 
L 422.482279 151.17879 
L 426.962243 150.830427 
L 431.442208 163.457307 
L 435.922172 161.347643 
L 440.402136 157.885702 
L 444.882101 158.807419 
L 449.362065 159.33719 
L 453.84203 158.019388 
L 458.321994 161.832064 
L 462.801958 157.848399 
L 467.281923 140.80657 
L 471.761887 153.677379 
L 476.241852 171.201409 
L 480.721816 161.345637 
L 485.20178 158.857306 
L 489.681745 160.666072 
L 494.161709 158.771389 
L 498.641674 153.473301 
L 503.121638 153.242353 
L 507.601602 164.01059 
L 512.081567 157.128945 
L 516.561531 148.474949 
L 521.041496 165.00017 
L 525.52146 157.688799 
L 530.001424 167.030729 
L 534.481389 154.617569 
L 538.961353 165.242559 
L 543.441317 132.405036 
L 547.921282 148.950865 
L 552.401246 143.480411 
L 556.881211 148.936752 
L 561.361175 151.296758 
L 565.841139 146.320979 
L 570.321104 149.795932 
L 574.801068 154.326865 
L 579.281033 139.813869 
L 583.760997 157.625551 
L 588.240961 155.296513 
L 592.720926 149.363608 
L 597.20089 153.152094 
L 601.680855 164.415477 
L 606.160819 152.382255 
L 610.640783 124.731346 
L 615.120748 146.956927 
L 619.600712 157.591228 
L 624.080677 148.041825 
L 628.560641 152.590147 
L 633.040605 133.115266 
L 637.52057 162.010689 
L 642.000534 140.226798 
L 646.480499 124.073638 
L 650.960463 142.070143 
L 655.440427 126.368683 
L 659.920392 148.245231 
L 664.400356 146.335417 
L 668.88032 160.817798 
L 673.360285 157.035412 
L 677.840249 147.353421 
L 682.320214 148.626519 
L 686.800178 156.150942 
L 691.280142 156.745095 
L 695.760107 150.981027 
L 700.240071 168.029343 
L 700.240071 168.029343 
" clip-path="url(#pf4b0c00bbe)" style="fill: none; stroke: #ff7f0e; stroke-width: 1.5; stroke-linecap: square"/>
   </g>
   <g id="line2d_81">
    <path d="M 283.603383 215.61587 
L 283.646167 577 
M 301.483507 577 
L 301.52324 241.611992 
L 306.003205 132.995359 
L 310.483169 173.562701 
L 314.963134 159.460059 
L 319.443098 158.453991 
L 323.923062 153.991221 
L 328.403027 156.336758 
L 332.882991 158.413697 
L 337.362955 151.165855 
L 341.84292 162.385637 
L 346.322884 169.749201 
L 350.802849 169.734139 
L 355.282813 173.186701 
L 359.762777 165.023997 
L 364.242742 156.576339 
L 368.722706 107.896217 
L 373.202671 125.962963 
L 377.682635 133.732232 
L 382.162599 143.081149 
L 386.642564 89.837225 
L 391.122528 140.832361 
L 395.602493 125.762894 
L 400.082457 91.647584 
L 404.562421 86.319508 
L 409.042386 123.4427 
L 413.52235 128.300762 
L 418.002315 122.805722 
L 422.482279 134.711736 
L 426.962243 111.341808 
L 431.442208 121.070808 
L 435.922172 119.376001 
L 440.402136 132.493248 
L 444.882101 142.141435 
L 449.362065 140.495988 
L 453.84203 138.18386 
L 458.321994 132.825746 
L 462.801958 132.346319 
L 467.281923 129.765103 
L 471.761887 118.179935 
L 476.241852 118.153032 
L 480.721816 124.924029 
L 485.20178 111.527033 
L 489.681745 104.463219 
L 494.161709 110.173364 
L 498.641674 140.330773 
L 503.121638 143.668228 
L 507.601602 138.900804 
L 512.081567 110.32325 
L 516.561531 129.090875 
L 521.041496 138.067643 
L 525.52146 140.476052 
L 530.001424 140.319095 
L 534.481389 142.55351 
L 538.961353 142.189655 
L 543.441317 127.583245 
L 547.921282 140.890971 
L 552.401246 122.691177 
L 556.881211 132.154522 
L 561.361175 147.526821 
L 565.841139 134.511603 
L 570.321104 129.500259 
L 574.801068 135.516063 
L 579.281033 125.054375 
L 583.760997 121.503554 
L 588.240961 140.959616 
L 592.720926 137.318713 
L 597.20089 105.138399 
L 601.680855 123.891461 
L 606.160819 120.062139 
L 610.640783 136.742469 
L 615.120748 132.740455 
L 619.600712 131.353924 
L 624.080677 122.853335 
L 628.560641 137.662998 
L 633.040605 94.479607 
L 637.52057 133.955973 
L 642.000534 114.87829 
L 646.480499 143.246466 
L 650.960463 156.482172 
L 655.440427 150.869006 
L 659.920392 150.307319 
L 664.400356 147.980494 
L 668.88032 152.499308 
L 673.360285 135.156159 
L 677.840249 117.656434 
L 682.320214 141.535533 
L 686.800178 137.777323 
L 691.280142 135.632588 
L 695.760107 122.412369 
L 700.240071 135.187426 
" clip-path="url(#pf4b0c00bbe)" style="fill: none; stroke: #2ca02c; stroke-width: 1.5; stroke-linecap: square"/>
   </g>
   <g id="line2d_82">
    <path d="M 126.804629 136.229706 
L 131.284593 159.238142 
L 135.764558 174.580447 
L 140.244522 198.179896 
L 144.724487 234.966934 
L 149.204451 184.094341 
L 153.684415 185.621837 
L 158.16438 188.677029 
L 162.644344 188.885601 
L 167.124309 190.807844 
L 171.604273 181.365503 
L 176.084237 176.299929 
L 180.564202 172.562679 
L 185.044166 178.530129 
L 189.524131 158.541636 
L 194.004095 143.32608 
L 198.484059 178.717168 
L 202.964024 168.940665 
L 207.443988 200.500337 
L 211.923952 180.975597 
L 216.403917 193.027408 
L 220.883881 208.752294 
L 225.363846 210.227708 
L 229.84381 184.022179 
L 234.323774 206.491687 
L 238.803739 192.978972 
L 243.283703 201.353057 
L 247.763668 189.78725 
L 252.243632 202.948503 
L 256.723596 164.386481 
L 261.203561 152.740102 
L 265.683525 169.113703 
L 270.16349 189.611908 
L 274.643454 187.006198 
L 279.123418 191.293062 
L 283.603383 185.272756 
L 288.083347 194.38489 
L 292.563312 209.53021 
L 297.043276 189.895653 
L 301.52324 199.815143 
L 306.003205 193.285833 
L 310.483169 177.359797 
L 314.963134 181.643372 
L 319.443098 176.717225 
L 323.923062 178.89466 
L 328.403027 190.108833 
L 332.882991 183.81153 
L 337.362955 173.878453 
L 341.84292 154.604937 
L 346.322884 157.529149 
L 350.802849 147.58301 
L 355.282813 158.779103 
L 359.762777 169.13143 
L 364.242742 166.584378 
L 368.722706 163.203792 
L 373.202671 164.641952 
L 377.682635 159.276982 
L 382.162599 175.292713 
L 386.642564 174.985634 
L 391.122528 171.759662 
L 395.602493 168.038391 
L 400.082457 157.385207 
L 404.562421 173.346491 
L 409.042386 177.389127 
L 413.52235 158.631452 
L 418.002315 145.678309 
L 422.482279 157.571305 
L 426.962243 159.324776 
L 431.442208 153.519884 
L 435.922172 141.457287 
L 440.402136 157.03387 
L 444.882101 155.472138 
L 449.362065 155.36598 
L 453.84203 148.460326 
L 458.321994 161.712685 
L 462.801958 162.626715 
L 467.281923 160.761583 
L 471.761887 153.360808 
L 476.241852 163.697435 
L 480.721816 168.09127 
L 485.20178 154.06436 
L 489.681745 151.67695 
L 494.161709 158.512088 
L 498.641674 178.048032 
L 503.121638 159.978477 
L 507.601602 166.082789 
L 512.081567 160.141633 
L 516.561531 175.034104 
L 521.041496 176.689072 
L 525.52146 153.515531 
L 530.001424 167.053439 
L 534.481389 162.864791 
L 538.961353 160.702667 
L 543.441317 148.713499 
L 547.921282 165.185426 
L 552.401246 165.570126 
L 556.881211 164.860414 
L 561.361175 155.263273 
L 565.841139 144.556935 
L 570.321104 167.833033 
L 574.801068 167.276536 
L 579.281033 156.919432 
L 583.760997 154.341246 
L 588.240961 154.761858 
L 592.720926 155.717804 
L 597.20089 152.868712 
L 601.680855 159.594666 
L 606.160819 162.031587 
L 610.640783 161.312582 
L 615.120748 149.795436 
L 619.600712 155.451131 
L 624.080677 162.529427 
L 628.560641 157.306653 
L 633.040605 151.360968 
L 637.52057 144.556575 
L 642.000534 154.77864 
L 646.480499 156.135612 
L 650.960463 160.512878 
L 655.440427 158.00548 
L 659.920392 146.01478 
L 664.400356 170.128618 
L 668.88032 169.278821 
L 673.360285 166.948664 
L 677.840249 169.417703 
L 682.320214 168.964589 
L 686.800178 165.052887 
L 691.280142 164.251841 
L 695.760107 158.387727 
L 700.240071 194.889434 
L 700.240071 194.889434 
" clip-path="url(#pf4b0c00bbe)" style="fill: none; stroke: #d62728; stroke-width: 1.5; stroke-linecap: square"/>
   </g>
   <g id="patch_3">
    <path d="M 50.645234 277.25 
L 50.645234 50.6 
" style="fill: none; stroke: #000000; stroke-width: 0.8; stroke-linejoin: miter; stroke-linecap: square"/>
   </g>
   <g id="patch_4">
    <path d="M 709.2 277.25 
L 709.2 50.6 
" style="fill: none; stroke: #000000; stroke-width: 0.8; stroke-linejoin: miter; stroke-linecap: square"/>
   </g>
   <g id="patch_5">
    <path d="M 50.645234 277.25 
L 709.2 277.25 
" style="fill: none; stroke: #000000; stroke-width: 0.8; stroke-linejoin: miter; stroke-linecap: square"/>
   </g>
   <g id="patch_6">
    <path d="M 50.645234 50.6 
L 709.2 50.6 
" style="fill: none; stroke: #000000; stroke-width: 0.8; stroke-linejoin: miter; stroke-linecap: square"/>
   </g>
   <g id="text_8">
    <!-- additions -->
    <g transform="translate(352.342305 44.6)scale(0.12 -0.12)">
     <defs>
      <path id="DejaVuSans-61" d="M 2194 1759 
Q 1497 1759 1228 1600 
Q 959 1441 959 1056 
Q 959 750 1161 570 
Q 1363 391 1709 391 
Q 2188 391 2477 730 
Q 2766 1069 2766 1631 
L 2766 1759 
L 2194 1759 
z
M 3341 1997 
L 3341 0 
L 2766 0 
L 2766 531 
Q 2569 213 2275 61 
Q 1981 -91 1556 -91 
Q 1019 -91 701 211 
Q 384 513 384 1019 
Q 384 1609 779 1909 
Q 1175 2209 1959 2209 
L 2766 2209 
L 2766 2266 
Q 2766 2663 2505 2880 
Q 2244 3097 1772 3097 
Q 1472 3097 1187 3025 
Q 903 2953 641 2809 
L 641 3341 
Q 956 3463 1253 3523 
Q 1550 3584 1831 3584 
Q 2591 3584 2966 3190 
Q 3341 2797 3341 1997 
z
" transform="scale(0.015625)"/>
      <path id="DejaVuSans-74" d="M 1172 4494 
L 1172 3500 
L 2356 3500 
L 2356 3053 
L 1172 3053 
L 1172 1153 
Q 1172 725 1289 603 
Q 1406 481 1766 481 
L 2356 481 
L 2356 0 
L 1766 0 
Q 1100 0 847 248 
Q 594 497 594 1153 
L 594 3053 
L 172 3053 
L 172 3500 
L 594 3500 
L 594 4494 
L 1172 4494 
z
" transform="scale(0.015625)"/>
     </defs>
     <use xlink:href="#DejaVuSans-61"/>
     <use xlink:href="#DejaVuSans-64" x="61.279297"/>
     <use xlink:href="#DejaVuSans-64" x="124.755859"/>
     <use xlink:href="#DejaVuSans-69" x="188.232422"/>
     <use xlink:href="#DejaVuSans-74" x="216.015625"/>
     <use xlink:href="#DejaVuSans-69" x="255.224609"/>
     <use xlink:href="#DejaVuSans-6f" x="283.007812"/>
     <use xlink:href="#DejaVuSans-6e" x="344.189453"/>
     <use xlink:href="#DejaVuSans-73" x="407.568359"/>
    </g>
   </g>
   <g id="legend_1">
    <g id="patch_7">
     <path d="M 641.829688 272.25 
L 702.2 272.25 
Q 704.2 272.25 704.2 270.25 
L 704.2 212.5375 
Q 704.2 210.5375 702.2 210.5375 
L 641.829688 210.5375 
Q 639.829688 210.5375 639.829688 212.5375 
L 639.829688 270.25 
Q 639.829688 272.25 641.829688 272.25 
z
" style="fill: #ffffff; opacity: 0.8; stroke: #cccccc; stroke-linejoin: miter"/>
    </g>
    <g id="line2d_83">
     <path d="M 643.829688 218.635937 
L 653.829688 218.635937 
L 663.829688 218.635937 
" style="fill: none; stroke: #1f77b4; stroke-width: 1.5; stroke-linecap: square"/>
    </g>
    <g id="text_9">
     <!-- flink -->
     <g transform="translate(671.829688 222.135937)scale(0.1 -0.1)">
      <defs>
       <path id="DejaVuSans-6b" d="M 581 4863 
L 1159 4863 
L 1159 1991 
L 2875 3500 
L 3609 3500 
L 1753 1863 
L 3688 0 
L 2938 0 
L 1159 1709 
L 1159 0 
L 581 0 
L 581 4863 
z
" transform="scale(0.015625)"/>
      </defs>
      <use xlink:href="#DejaVuSans-66"/>
      <use xlink:href="#DejaVuSans-6c" x="35.205078"/>
      <use xlink:href="#DejaVuSans-69" x="62.988281"/>
      <use xlink:href="#DejaVuSans-6e" x="90.771484"/>
      <use xlink:href="#DejaVuSans-6b" x="154.150391"/>
     </g>
    </g>
    <g id="line2d_84">
     <path d="M 643.829688 233.314062 
L 653.829688 233.314062 
L 663.829688 233.314062 
" style="fill: none; stroke: #ff7f0e; stroke-width: 1.5; stroke-linecap: square"/>
    </g>
    <g id="text_10">
     <!-- spark -->
     <g transform="translate(671.829688 236.814062)scale(0.1 -0.1)">
      <defs>
       <path id="DejaVuSans-70" d="M 1159 525 
L 1159 -1331 
L 581 -1331 
L 581 3500 
L 1159 3500 
L 1159 2969 
Q 1341 3281 1617 3432 
Q 1894 3584 2278 3584 
Q 2916 3584 3314 3078 
Q 3713 2572 3713 1747 
Q 3713 922 3314 415 
Q 2916 -91 2278 -91 
Q 1894 -91 1617 61 
Q 1341 213 1159 525 
z
M 3116 1747 
Q 3116 2381 2855 2742 
Q 2594 3103 2138 3103 
Q 1681 3103 1420 2742 
Q 1159 2381 1159 1747 
Q 1159 1113 1420 752 
Q 1681 391 2138 391 
Q 2594 391 2855 752 
Q 3116 1113 3116 1747 
z
" transform="scale(0.015625)"/>
       <path id="DejaVuSans-72" d="M 2631 2963 
Q 2534 3019 2420 3045 
Q 2306 3072 2169 3072 
Q 1681 3072 1420 2755 
Q 1159 2438 1159 1844 
L 1159 0 
L 581 0 
L 581 3500 
L 1159 3500 
L 1159 2956 
Q 1341 3275 1631 3429 
Q 1922 3584 2338 3584 
Q 2397 3584 2469 3576 
Q 2541 3569 2628 3553 
L 2631 2963 
z
" transform="scale(0.015625)"/>
      </defs>
      <use xlink:href="#DejaVuSans-73"/>
      <use xlink:href="#DejaVuSans-70" x="52.099609"/>
      <use xlink:href="#DejaVuSans-61" x="115.576172"/>
      <use xlink:href="#DejaVuSans-72" x="176.855469"/>
      <use xlink:href="#DejaVuSans-6b" x="217.96875"/>
     </g>
    </g>
    <g id="line2d_85">
     <path d="M 643.829688 247.992187 
L 653.829688 247.992187 
L 663.829688 247.992187 
" style="fill: none; stroke: #2ca02c; stroke-width: 1.5; stroke-linecap: square"/>
    </g>
    <g id="text_11">
     <!-- beam -->
     <g transform="translate(671.829688 251.492187)scale(0.1 -0.1)">
      <defs>
       <path id="DejaVuSans-62" d="M 3116 1747 
Q 3116 2381 2855 2742 
Q 2594 3103 2138 3103 
Q 1681 3103 1420 2742 
Q 1159 2381 1159 1747 
Q 1159 1113 1420 752 
Q 1681 391 2138 391 
Q 2594 391 2855 752 
Q 3116 1113 3116 1747 
z
M 1159 2969 
Q 1341 3281 1617 3432 
Q 1894 3584 2278 3584 
Q 2916 3584 3314 3078 
Q 3713 2572 3713 1747 
Q 3713 922 3314 415 
Q 2916 -91 2278 -91 
Q 1894 -91 1617 61 
Q 1341 213 1159 525 
L 1159 0 
L 581 0 
L 581 4863 
L 1159 4863 
L 1159 2969 
z
" transform="scale(0.015625)"/>
       <path id="DejaVuSans-6d" d="M 3328 2828 
Q 3544 3216 3844 3400 
Q 4144 3584 4550 3584 
Q 5097 3584 5394 3201 
Q 5691 2819 5691 2113 
L 5691 0 
L 5113 0 
L 5113 2094 
Q 5113 2597 4934 2840 
Q 4756 3084 4391 3084 
Q 3944 3084 3684 2787 
Q 3425 2491 3425 1978 
L 3425 0 
L 2847 0 
L 2847 2094 
Q 2847 2600 2669 2842 
Q 2491 3084 2119 3084 
Q 1678 3084 1418 2786 
Q 1159 2488 1159 1978 
L 1159 0 
L 581 0 
L 581 3500 
L 1159 3500 
L 1159 2956 
Q 1356 3278 1631 3431 
Q 1906 3584 2284 3584 
Q 2666 3584 2933 3390 
Q 3200 3197 3328 2828 
z
" transform="scale(0.015625)"/>
      </defs>
      <use xlink:href="#DejaVuSans-62"/>
      <use xlink:href="#DejaVuSans-65" x="63.476562"/>
      <use xlink:href="#DejaVuSans-61" x="125"/>
      <use xlink:href="#DejaVuSans-6d" x="186.279297"/>
     </g>
    </g>
    <g id="line2d_86">
     <path d="M 643.829688 262.670312 
L 653.829688 262.670312 
L 663.829688 262.670312 
" style="fill: none; stroke: #d62728; stroke-width: 1.5; stroke-linecap: square"/>
    </g>
    <g id="text_12">
     <!-- kafka -->
     <g transform="translate(671.829688 266.170312)scale(0.1 -0.1)">
      <use xlink:href="#DejaVuSans-6b"/>
      <use xlink:href="#DejaVuSans-61" x="56.160156"/>
      <use xlink:href="#DejaVuSans-66" x="117.439453"/>
      <use xlink:href="#DejaVuSans-6b" x="152.644531"/>
      <use xlink:href="#DejaVuSans-61" x="208.804688"/>
     </g>
    </g>
   </g>
  </g>
  <g id="axes_2">
   <g id="patch_8">
    <path d="M 50.645234 534.2 
L 709.2 534.2 
L 709.2 307.55 
L 50.645234 307.55 
z
" style="fill: #ffffff"/>
   </g>
   <g id="matplotlib.axis_3">
    <g id="xtick_13">
     <g id="line2d_87">
      <path d="M 95.444878 534.2 
L 95.444878 307.55 
" clip-path="url(#p2aed325ddc)" style="fill: none; stroke: #b0b0b0; stroke-width: 0.8; stroke-linecap: square"/>
     </g>
     <g id="line2d_88">
      <g>
       <use xlink:href="#m720a574ce9" x="95.444878" y="534.2" style="stroke: #000000; stroke-width: 0.8"/>
      </g>
     </g>
     <g id="text_13">
      <!-- 2011 -->
      <g transform="translate(82.719878 548.798437)scale(0.1 -0.1)">
       <use xlink:href="#DejaVuSans-32"/>
       <use xlink:href="#DejaVuSans-30" x="63.623047"/>
       <use xlink:href="#DejaVuSans-31" x="127.246094"/>
       <use xlink:href="#DejaVuSans-31" x="190.869141"/>
      </g>
     </g>
    </g>
    <g id="xtick_14">
     <g id="line2d_89">
      <path d="M 202.964024 534.2 
L 202.964024 307.55 
" clip-path="url(#p2aed325ddc)" style="fill: none; stroke: #b0b0b0; stroke-width: 0.8; stroke-linecap: square"/>
     </g>
     <g id="line2d_90">
      <g>
       <use xlink:href="#m720a574ce9" x="202.964024" y="534.2" style="stroke: #000000; stroke-width: 0.8"/>
      </g>
     </g>
     <g id="text_14">
      <!-- 2013 -->
      <g transform="translate(190.239024 548.798437)scale(0.1 -0.1)">
       <use xlink:href="#DejaVuSans-32"/>
       <use xlink:href="#DejaVuSans-30" x="63.623047"/>
       <use xlink:href="#DejaVuSans-31" x="127.246094"/>
       <use xlink:href="#DejaVuSans-33" x="190.869141"/>
      </g>
     </g>
    </g>
    <g id="xtick_15">
     <g id="line2d_91">
      <path d="M 310.483169 534.2 
L 310.483169 307.55 
" clip-path="url(#p2aed325ddc)" style="fill: none; stroke: #b0b0b0; stroke-width: 0.8; stroke-linecap: square"/>
     </g>
     <g id="line2d_92">
      <g>
       <use xlink:href="#m720a574ce9" x="310.483169" y="534.2" style="stroke: #000000; stroke-width: 0.8"/>
      </g>
     </g>
     <g id="text_15">
      <!-- 2015 -->
      <g transform="translate(297.758169 548.798437)scale(0.1 -0.1)">
       <use xlink:href="#DejaVuSans-32"/>
       <use xlink:href="#DejaVuSans-30" x="63.623047"/>
       <use xlink:href="#DejaVuSans-31" x="127.246094"/>
       <use xlink:href="#DejaVuSans-35" x="190.869141"/>
      </g>
     </g>
    </g>
    <g id="xtick_16">
     <g id="line2d_93">
      <path d="M 418.002315 534.2 
L 418.002315 307.55 
" clip-path="url(#p2aed325ddc)" style="fill: none; stroke: #b0b0b0; stroke-width: 0.8; stroke-linecap: square"/>
     </g>
     <g id="line2d_94">
      <g>
       <use xlink:href="#m720a574ce9" x="418.002315" y="534.2" style="stroke: #000000; stroke-width: 0.8"/>
      </g>
     </g>
     <g id="text_16">
      <!-- 2017 -->
      <g transform="translate(405.277315 548.798437)scale(0.1 -0.1)">
       <use xlink:href="#DejaVuSans-32"/>
       <use xlink:href="#DejaVuSans-30" x="63.623047"/>
       <use xlink:href="#DejaVuSans-31" x="127.246094"/>
       <use xlink:href="#DejaVuSans-37" x="190.869141"/>
      </g>
     </g>
    </g>
    <g id="xtick_17">
     <g id="line2d_95">
      <path d="M 525.52146 534.2 
L 525.52146 307.55 
" clip-path="url(#p2aed325ddc)" style="fill: none; stroke: #b0b0b0; stroke-width: 0.8; stroke-linecap: square"/>
     </g>
     <g id="line2d_96">
      <g>
       <use xlink:href="#m720a574ce9" x="525.52146" y="534.2" style="stroke: #000000; stroke-width: 0.8"/>
      </g>
     </g>
     <g id="text_17">
      <!-- 2019 -->
      <g transform="translate(512.79646 548.798437)scale(0.1 -0.1)">
       <defs>
        <path id="DejaVuSans-39" d="M 703 97 
L 703 672 
Q 941 559 1184 500 
Q 1428 441 1663 441 
Q 2288 441 2617 861 
Q 2947 1281 2994 2138 
Q 2813 1869 2534 1725 
Q 2256 1581 1919 1581 
Q 1219 1581 811 2004 
Q 403 2428 403 3163 
Q 403 3881 828 4315 
Q 1253 4750 1959 4750 
Q 2769 4750 3195 4129 
Q 3622 3509 3622 2328 
Q 3622 1225 3098 567 
Q 2575 -91 1691 -91 
Q 1453 -91 1209 -44 
Q 966 3 703 97 
z
M 1959 2075 
Q 2384 2075 2632 2365 
Q 2881 2656 2881 3163 
Q 2881 3666 2632 3958 
Q 2384 4250 1959 4250 
Q 1534 4250 1286 3958 
Q 1038 3666 1038 3163 
Q 1038 2656 1286 2365 
Q 1534 2075 1959 2075 
z
" transform="scale(0.015625)"/>
       </defs>
       <use xlink:href="#DejaVuSans-32"/>
       <use xlink:href="#DejaVuSans-30" x="63.623047"/>
       <use xlink:href="#DejaVuSans-31" x="127.246094"/>
       <use xlink:href="#DejaVuSans-39" x="190.869141"/>
      </g>
     </g>
    </g>
    <g id="xtick_18">
     <g id="line2d_97">
      <path d="M 633.040605 534.2 
L 633.040605 307.55 
" clip-path="url(#p2aed325ddc)" style="fill: none; stroke: #b0b0b0; stroke-width: 0.8; stroke-linecap: square"/>
     </g>
     <g id="line2d_98">
      <g>
       <use xlink:href="#m720a574ce9" x="633.040605" y="534.2" style="stroke: #000000; stroke-width: 0.8"/>
      </g>
     </g>
     <g id="text_18">
      <!-- 2021 -->
      <g transform="translate(620.315605 548.798437)scale(0.1 -0.1)">
       <use xlink:href="#DejaVuSans-32"/>
       <use xlink:href="#DejaVuSans-30" x="63.623047"/>
       <use xlink:href="#DejaVuSans-32" x="127.246094"/>
       <use xlink:href="#DejaVuSans-31" x="190.869141"/>
      </g>
     </g>
    </g>
    <g id="xtick_19">
     <g id="line2d_99">
      <g>
       <use xlink:href="#m47f744d961" x="149.204451" y="534.2" style="stroke: #000000; stroke-width: 0.6"/>
      </g>
     </g>
    </g>
    <g id="xtick_20">
     <g id="line2d_100">
      <g>
       <use xlink:href="#m47f744d961" x="256.723596" y="534.2" style="stroke: #000000; stroke-width: 0.6"/>
      </g>
     </g>
    </g>
    <g id="xtick_21">
     <g id="line2d_101">
      <g>
       <use xlink:href="#m47f744d961" x="364.242742" y="534.2" style="stroke: #000000; stroke-width: 0.6"/>
      </g>
     </g>
    </g>
    <g id="xtick_22">
     <g id="line2d_102">
      <g>
       <use xlink:href="#m47f744d961" x="471.761887" y="534.2" style="stroke: #000000; stroke-width: 0.6"/>
      </g>
     </g>
    </g>
    <g id="xtick_23">
     <g id="line2d_103">
      <g>
       <use xlink:href="#m47f744d961" x="579.281033" y="534.2" style="stroke: #000000; stroke-width: 0.6"/>
      </g>
     </g>
    </g>
    <g id="xtick_24">
     <g id="line2d_104">
      <g>
       <use xlink:href="#m47f744d961" x="686.800178" y="534.2" style="stroke: #000000; stroke-width: 0.6"/>
      </g>
     </g>
    </g>
    <g id="text_19">
     <!-- month -->
     <g transform="translate(363.695273 562.476562)scale(0.1 -0.1)">
      <defs>
       <path id="DejaVuSans-68" d="M 3513 2113 
L 3513 0 
L 2938 0 
L 2938 2094 
Q 2938 2591 2744 2837 
Q 2550 3084 2163 3084 
Q 1697 3084 1428 2787 
Q 1159 2491 1159 1978 
L 1159 0 
L 581 0 
L 581 4863 
L 1159 4863 
L 1159 2956 
Q 1366 3272 1645 3428 
Q 1925 3584 2291 3584 
Q 2894 3584 3203 3211 
Q 3513 2838 3513 2113 
z
" transform="scale(0.015625)"/>
      </defs>
      <use xlink:href="#DejaVuSans-6d"/>
      <use xlink:href="#DejaVuSans-6f" x="97.412109"/>
      <use xlink:href="#DejaVuSans-6e" x="158.59375"/>
      <use xlink:href="#DejaVuSans-74" x="221.972656"/>
      <use xlink:href="#DejaVuSans-68" x="261.181641"/>
     </g>
    </g>
   </g>
   <g id="matplotlib.axis_4">
    <g id="ytick_55">
     <g id="line2d_105">
      <path d="M 50.645234 503.938898 
L 709.2 503.938898 
" clip-path="url(#p2aed325ddc)" style="fill: none; stroke: #b0b0b0; stroke-width: 0.8; stroke-linecap: square"/>
     </g>
     <g id="line2d_106">
      <g>
       <use xlink:href="#m2114fcd9ae" x="50.645234" y="503.938898" style="stroke: #000000; stroke-width: 0.8"/>
      </g>
     </g>
     <g id="text_20">
      <!-- $\mathdefault{10^{2}}$ -->
      <g transform="translate(26.045234 507.738117)scale(0.1 -0.1)">
       <use xlink:href="#DejaVuSans-31" transform="translate(0 0.765625)"/>
       <use xlink:href="#DejaVuSans-30" transform="translate(63.623047 0.765625)"/>
       <use xlink:href="#DejaVuSans-32" transform="translate(128.203125 39.046875)scale(0.7)"/>
      </g>
     </g>
    </g>
    <g id="ytick_56">
     <g id="line2d_107">
      <path d="M 50.645234 465.767852 
L 709.2 465.767852 
" clip-path="url(#p2aed325ddc)" style="fill: none; stroke: #b0b0b0; stroke-width: 0.8; stroke-linecap: square"/>
     </g>
     <g id="line2d_108">
      <g>
       <use xlink:href="#m2114fcd9ae" x="50.645234" y="465.767852" style="stroke: #000000; stroke-width: 0.8"/>
      </g>
     </g>
     <g id="text_21">
      <!-- $\mathdefault{10^{3}}$ -->
      <g transform="translate(26.045234 469.567071)scale(0.1 -0.1)">
       <use xlink:href="#DejaVuSans-31" transform="translate(0 0.765625)"/>
       <use xlink:href="#DejaVuSans-30" transform="translate(63.623047 0.765625)"/>
       <use xlink:href="#DejaVuSans-33" transform="translate(128.203125 39.046875)scale(0.7)"/>
      </g>
     </g>
    </g>
    <g id="ytick_57">
     <g id="line2d_109">
      <path d="M 50.645234 427.596805 
L 709.2 427.596805 
" clip-path="url(#p2aed325ddc)" style="fill: none; stroke: #b0b0b0; stroke-width: 0.8; stroke-linecap: square"/>
     </g>
     <g id="line2d_110">
      <g>
       <use xlink:href="#m2114fcd9ae" x="50.645234" y="427.596805" style="stroke: #000000; stroke-width: 0.8"/>
      </g>
     </g>
     <g id="text_22">
      <!-- $\mathdefault{10^{4}}$ -->
      <g transform="translate(26.045234 431.396024)scale(0.1 -0.1)">
       <use xlink:href="#DejaVuSans-31" transform="translate(0 0.684375)"/>
       <use xlink:href="#DejaVuSans-30" transform="translate(63.623047 0.684375)"/>
       <use xlink:href="#DejaVuSans-34" transform="translate(128.203125 38.965625)scale(0.7)"/>
      </g>
     </g>
    </g>
    <g id="ytick_58">
     <g id="line2d_111">
      <path d="M 50.645234 389.425759 
L 709.2 389.425759 
" clip-path="url(#p2aed325ddc)" style="fill: none; stroke: #b0b0b0; stroke-width: 0.8; stroke-linecap: square"/>
     </g>
     <g id="line2d_112">
      <g>
       <use xlink:href="#m2114fcd9ae" x="50.645234" y="389.425759" style="stroke: #000000; stroke-width: 0.8"/>
      </g>
     </g>
     <g id="text_23">
      <!-- $\mathdefault{10^{5}}$ -->
      <g transform="translate(26.045234 393.224978)scale(0.1 -0.1)">
       <use xlink:href="#DejaVuSans-31" transform="translate(0 0.684375)"/>
       <use xlink:href="#DejaVuSans-30" transform="translate(63.623047 0.684375)"/>
       <use xlink:href="#DejaVuSans-35" transform="translate(128.203125 38.965625)scale(0.7)"/>
      </g>
     </g>
    </g>
    <g id="ytick_59">
     <g id="line2d_113">
      <path d="M 50.645234 351.254712 
L 709.2 351.254712 
" clip-path="url(#p2aed325ddc)" style="fill: none; stroke: #b0b0b0; stroke-width: 0.8; stroke-linecap: square"/>
     </g>
     <g id="line2d_114">
      <g>
       <use xlink:href="#m2114fcd9ae" x="50.645234" y="351.254712" style="stroke: #000000; stroke-width: 0.8"/>
      </g>
     </g>
     <g id="text_24">
      <!-- $\mathdefault{10^{6}}$ -->
      <g transform="translate(26.045234 355.053931)scale(0.1 -0.1)">
       <use xlink:href="#DejaVuSans-31" transform="translate(0 0.765625)"/>
       <use xlink:href="#DejaVuSans-30" transform="translate(63.623047 0.765625)"/>
       <use xlink:href="#DejaVuSans-36" transform="translate(128.203125 39.046875)scale(0.7)"/>
      </g>
     </g>
    </g>
    <g id="ytick_60">
     <g id="line2d_115">
      <path d="M 50.645234 313.083666 
L 709.2 313.083666 
" clip-path="url(#p2aed325ddc)" style="fill: none; stroke: #b0b0b0; stroke-width: 0.8; stroke-linecap: square"/>
     </g>
     <g id="line2d_116">
      <g>
       <use xlink:href="#m2114fcd9ae" x="50.645234" y="313.083666" style="stroke: #000000; stroke-width: 0.8"/>
      </g>
     </g>
     <g id="text_25">
      <!-- $\mathdefault{10^{7}}$ -->
      <g transform="translate(26.045234 316.882885)scale(0.1 -0.1)">
       <use xlink:href="#DejaVuSans-31" transform="translate(0 0.684375)"/>
       <use xlink:href="#DejaVuSans-30" transform="translate(63.623047 0.684375)"/>
       <use xlink:href="#DejaVuSans-37" transform="translate(128.203125 38.965625)scale(0.7)"/>
      </g>
     </g>
    </g>
    <g id="ytick_61">
     <g id="line2d_117">
      <g>
       <use xlink:href="#me84dd832b3" x="50.645234" y="530.619315" style="stroke: #000000; stroke-width: 0.6"/>
      </g>
     </g>
    </g>
    <g id="ytick_62">
     <g id="line2d_118">
      <g>
       <use xlink:href="#me84dd832b3" x="50.645234" y="523.897727" style="stroke: #000000; stroke-width: 0.6"/>
      </g>
     </g>
    </g>
    <g id="ytick_63">
     <g id="line2d_119">
      <g>
       <use xlink:href="#me84dd832b3" x="50.645234" y="519.128685" style="stroke: #000000; stroke-width: 0.6"/>
      </g>
     </g>
    </g>
    <g id="ytick_64">
     <g id="line2d_120">
      <g>
       <use xlink:href="#me84dd832b3" x="50.645234" y="515.429528" style="stroke: #000000; stroke-width: 0.6"/>
      </g>
     </g>
    </g>
    <g id="ytick_65">
     <g id="line2d_121">
      <g>
       <use xlink:href="#me84dd832b3" x="50.645234" y="512.407097" style="stroke: #000000; stroke-width: 0.6"/>
      </g>
     </g>
    </g>
    <g id="ytick_66">
     <g id="line2d_122">
      <g>
       <use xlink:href="#me84dd832b3" x="50.645234" y="509.851668" style="stroke: #000000; stroke-width: 0.6"/>
      </g>
     </g>
    </g>
    <g id="ytick_67">
     <g id="line2d_123">
      <g>
       <use xlink:href="#me84dd832b3" x="50.645234" y="507.638055" style="stroke: #000000; stroke-width: 0.6"/>
      </g>
     </g>
    </g>
    <g id="ytick_68">
     <g id="line2d_124">
      <g>
       <use xlink:href="#me84dd832b3" x="50.645234" y="505.68551" style="stroke: #000000; stroke-width: 0.6"/>
      </g>
     </g>
    </g>
    <g id="ytick_69">
     <g id="line2d_125">
      <g>
       <use xlink:href="#me84dd832b3" x="50.645234" y="492.448268" style="stroke: #000000; stroke-width: 0.6"/>
      </g>
     </g>
    </g>
    <g id="ytick_70">
     <g id="line2d_126">
      <g>
       <use xlink:href="#me84dd832b3" x="50.645234" y="485.726681" style="stroke: #000000; stroke-width: 0.6"/>
      </g>
     </g>
    </g>
    <g id="ytick_71">
     <g id="line2d_127">
      <g>
       <use xlink:href="#me84dd832b3" x="50.645234" y="480.957638" style="stroke: #000000; stroke-width: 0.6"/>
      </g>
     </g>
    </g>
    <g id="ytick_72">
     <g id="line2d_128">
      <g>
       <use xlink:href="#me84dd832b3" x="50.645234" y="477.258482" style="stroke: #000000; stroke-width: 0.6"/>
      </g>
     </g>
    </g>
    <g id="ytick_73">
     <g id="line2d_129">
      <g>
       <use xlink:href="#me84dd832b3" x="50.645234" y="474.236051" style="stroke: #000000; stroke-width: 0.6"/>
      </g>
     </g>
    </g>
    <g id="ytick_74">
     <g id="line2d_130">
      <g>
       <use xlink:href="#me84dd832b3" x="50.645234" y="471.680622" style="stroke: #000000; stroke-width: 0.6"/>
      </g>
     </g>
    </g>
    <g id="ytick_75">
     <g id="line2d_131">
      <g>
       <use xlink:href="#me84dd832b3" x="50.645234" y="469.467008" style="stroke: #000000; stroke-width: 0.6"/>
      </g>
     </g>
    </g>
    <g id="ytick_76">
     <g id="line2d_132">
      <g>
       <use xlink:href="#me84dd832b3" x="50.645234" y="467.514463" style="stroke: #000000; stroke-width: 0.6"/>
      </g>
     </g>
    </g>
    <g id="ytick_77">
     <g id="line2d_133">
      <g>
       <use xlink:href="#me84dd832b3" x="50.645234" y="454.277222" style="stroke: #000000; stroke-width: 0.6"/>
      </g>
     </g>
    </g>
    <g id="ytick_78">
     <g id="line2d_134">
      <g>
       <use xlink:href="#me84dd832b3" x="50.645234" y="447.555634" style="stroke: #000000; stroke-width: 0.6"/>
      </g>
     </g>
    </g>
    <g id="ytick_79">
     <g id="line2d_135">
      <g>
       <use xlink:href="#me84dd832b3" x="50.645234" y="442.786592" style="stroke: #000000; stroke-width: 0.6"/>
      </g>
     </g>
    </g>
    <g id="ytick_80">
     <g id="line2d_136">
      <g>
       <use xlink:href="#me84dd832b3" x="50.645234" y="439.087435" style="stroke: #000000; stroke-width: 0.6"/>
      </g>
     </g>
    </g>
    <g id="ytick_81">
     <g id="line2d_137">
      <g>
       <use xlink:href="#me84dd832b3" x="50.645234" y="436.065004" style="stroke: #000000; stroke-width: 0.6"/>
      </g>
     </g>
    </g>
    <g id="ytick_82">
     <g id="line2d_138">
      <g>
       <use xlink:href="#me84dd832b3" x="50.645234" y="433.509575" style="stroke: #000000; stroke-width: 0.6"/>
      </g>
     </g>
    </g>
    <g id="ytick_83">
     <g id="line2d_139">
      <g>
       <use xlink:href="#me84dd832b3" x="50.645234" y="431.295962" style="stroke: #000000; stroke-width: 0.6"/>
      </g>
     </g>
    </g>
    <g id="ytick_84">
     <g id="line2d_140">
      <g>
       <use xlink:href="#me84dd832b3" x="50.645234" y="429.343417" style="stroke: #000000; stroke-width: 0.6"/>
      </g>
     </g>
    </g>
    <g id="ytick_85">
     <g id="line2d_141">
      <g>
       <use xlink:href="#me84dd832b3" x="50.645234" y="416.106175" style="stroke: #000000; stroke-width: 0.6"/>
      </g>
     </g>
    </g>
    <g id="ytick_86">
     <g id="line2d_142">
      <g>
       <use xlink:href="#me84dd832b3" x="50.645234" y="409.384588" style="stroke: #000000; stroke-width: 0.6"/>
      </g>
     </g>
    </g>
    <g id="ytick_87">
     <g id="line2d_143">
      <g>
       <use xlink:href="#me84dd832b3" x="50.645234" y="404.615545" style="stroke: #000000; stroke-width: 0.6"/>
      </g>
     </g>
    </g>
    <g id="ytick_88">
     <g id="line2d_144">
      <g>
       <use xlink:href="#me84dd832b3" x="50.645234" y="400.916389" style="stroke: #000000; stroke-width: 0.6"/>
      </g>
     </g>
    </g>
    <g id="ytick_89">
     <g id="line2d_145">
      <g>
       <use xlink:href="#me84dd832b3" x="50.645234" y="397.893958" style="stroke: #000000; stroke-width: 0.6"/>
      </g>
     </g>
    </g>
    <g id="ytick_90">
     <g id="line2d_146">
      <g>
       <use xlink:href="#me84dd832b3" x="50.645234" y="395.338529" style="stroke: #000000; stroke-width: 0.6"/>
      </g>
     </g>
    </g>
    <g id="ytick_91">
     <g id="line2d_147">
      <g>
       <use xlink:href="#me84dd832b3" x="50.645234" y="393.124915" style="stroke: #000000; stroke-width: 0.6"/>
      </g>
     </g>
    </g>
    <g id="ytick_92">
     <g id="line2d_148">
      <g>
       <use xlink:href="#me84dd832b3" x="50.645234" y="391.17237" style="stroke: #000000; stroke-width: 0.6"/>
      </g>
     </g>
    </g>
    <g id="ytick_93">
     <g id="line2d_149">
      <g>
       <use xlink:href="#me84dd832b3" x="50.645234" y="377.935129" style="stroke: #000000; stroke-width: 0.6"/>
      </g>
     </g>
    </g>
    <g id="ytick_94">
     <g id="line2d_150">
      <g>
       <use xlink:href="#me84dd832b3" x="50.645234" y="371.213541" style="stroke: #000000; stroke-width: 0.6"/>
      </g>
     </g>
    </g>
    <g id="ytick_95">
     <g id="line2d_151">
      <g>
       <use xlink:href="#me84dd832b3" x="50.645234" y="366.444499" style="stroke: #000000; stroke-width: 0.6"/>
      </g>
     </g>
    </g>
    <g id="ytick_96">
     <g id="line2d_152">
      <g>
       <use xlink:href="#me84dd832b3" x="50.645234" y="362.745342" style="stroke: #000000; stroke-width: 0.6"/>
      </g>
     </g>
    </g>
    <g id="ytick_97">
     <g id="line2d_153">
      <g>
       <use xlink:href="#me84dd832b3" x="50.645234" y="359.722911" style="stroke: #000000; stroke-width: 0.6"/>
      </g>
     </g>
    </g>
    <g id="ytick_98">
     <g id="line2d_154">
      <g>
       <use xlink:href="#me84dd832b3" x="50.645234" y="357.167482" style="stroke: #000000; stroke-width: 0.6"/>
      </g>
     </g>
    </g>
    <g id="ytick_99">
     <g id="line2d_155">
      <g>
       <use xlink:href="#me84dd832b3" x="50.645234" y="354.953869" style="stroke: #000000; stroke-width: 0.6"/>
      </g>
     </g>
    </g>
    <g id="ytick_100">
     <g id="line2d_156">
      <g>
       <use xlink:href="#me84dd832b3" x="50.645234" y="353.001324" style="stroke: #000000; stroke-width: 0.6"/>
      </g>
     </g>
    </g>
    <g id="ytick_101">
     <g id="line2d_157">
      <g>
       <use xlink:href="#me84dd832b3" x="50.645234" y="339.764082" style="stroke: #000000; stroke-width: 0.6"/>
      </g>
     </g>
    </g>
    <g id="ytick_102">
     <g id="line2d_158">
      <g>
       <use xlink:href="#me84dd832b3" x="50.645234" y="333.042495" style="stroke: #000000; stroke-width: 0.6"/>
      </g>
     </g>
    </g>
    <g id="ytick_103">
     <g id="line2d_159">
      <g>
       <use xlink:href="#me84dd832b3" x="50.645234" y="328.273452" style="stroke: #000000; stroke-width: 0.6"/>
      </g>
     </g>
    </g>
    <g id="ytick_104">
     <g id="line2d_160">
      <g>
       <use xlink:href="#me84dd832b3" x="50.645234" y="324.574296" style="stroke: #000000; stroke-width: 0.6"/>
      </g>
     </g>
    </g>
    <g id="ytick_105">
     <g id="line2d_161">
      <g>
       <use xlink:href="#me84dd832b3" x="50.645234" y="321.551865" style="stroke: #000000; stroke-width: 0.6"/>
      </g>
     </g>
    </g>
    <g id="ytick_106">
     <g id="line2d_162">
      <g>
       <use xlink:href="#me84dd832b3" x="50.645234" y="318.996436" style="stroke: #000000; stroke-width: 0.6"/>
      </g>
     </g>
    </g>
    <g id="ytick_107">
     <g id="line2d_163">
      <g>
       <use xlink:href="#me84dd832b3" x="50.645234" y="316.782822" style="stroke: #000000; stroke-width: 0.6"/>
      </g>
     </g>
    </g>
    <g id="ytick_108">
     <g id="line2d_164">
      <g>
       <use xlink:href="#me84dd832b3" x="50.645234" y="314.830277" style="stroke: #000000; stroke-width: 0.6"/>
      </g>
     </g>
    </g>
    <g id="text_26">
     <!-- lines of code -->
     <g transform="translate(19.965547 452.560156)rotate(-90)scale(0.1 -0.1)">
      <use xlink:href="#DejaVuSans-6c"/>
      <use xlink:href="#DejaVuSans-69" x="27.783203"/>
      <use xlink:href="#DejaVuSans-6e" x="55.566406"/>
      <use xlink:href="#DejaVuSans-65" x="118.945312"/>
      <use xlink:href="#DejaVuSans-73" x="180.46875"/>
      <use xlink:href="#DejaVuSans-20" x="232.568359"/>
      <use xlink:href="#DejaVuSans-6f" x="264.355469"/>
      <use xlink:href="#DejaVuSans-66" x="325.537109"/>
      <use xlink:href="#DejaVuSans-20" x="360.742188"/>
      <use xlink:href="#DejaVuSans-63" x="392.529297"/>
      <use xlink:href="#DejaVuSans-6f" x="447.509766"/>
      <use xlink:href="#DejaVuSans-64" x="508.691406"/>
      <use xlink:href="#DejaVuSans-65" x="572.167969"/>
     </g>
    </g>
   </g>
   <g id="line2d_165">
    <path d="M 90.964914 444.76506 
L 95.444878 408.396756 
L 99.924843 396.479804 
L 104.404807 376.980598 
L 108.884771 370.330633 
L 113.364736 428.684383 
L 117.8447 413.321673 
L 122.324665 400.020649 
L 126.804629 394.374365 
L 131.284593 389.921811 
L 135.764558 399.67468 
L 140.244522 399.438274 
L 144.724487 385.56848 
L 149.204451 386.496562 
L 153.684415 402.116219 
L 158.16438 415.162133 
L 162.644344 405.182979 
L 167.124309 401.389227 
L 171.604273 385.97836 
L 176.084237 376.316065 
L 180.564202 397.719161 
L 185.044166 412.764273 
L 189.524131 408.973629 
L 194.004095 407.035525 
L 198.484059 452.727388 
L 202.964024 411.6412 
L 207.443988 460.249303 
L 211.923952 463.697839 
L 216.403917 394.452305 
L 220.883881 415.990537 
L 225.363846 462.215223 
L 229.84381 466.289888 
L 234.323774 451.554497 
L 238.803739 454.186296 
L 243.283703 429.586484 
L 247.763668 438.354574 
L 252.243632 401.444585 
L 256.723596 417.127505 
L 261.203561 420.075876 
L 265.683525 419.595305 
L 270.16349 427.847351 
L 274.643454 407.753425 
L 279.123418 409.416115 
L 283.603383 375.942478 
L 288.083347 419.250066 
L 292.563312 397.917459 
L 297.043276 409.388456 
L 301.52324 415.543096 
L 306.003205 411.303391 
L 310.483169 410.511746 
L 314.963134 416.886835 
L 319.443098 415.515078 
L 323.923062 408.316256 
L 328.403027 412.042376 
L 332.882991 419.66091 
L 337.362955 418.97482 
L 341.84292 400.518373 
L 346.322884 399.909826 
L 350.802849 390.727666 
L 355.282813 410.172779 
L 359.762777 421.102219 
L 364.242742 404.031648 
L 368.722706 390.16442 
L 373.202671 420.744222 
L 377.682635 421.231568 
L 382.162599 423.598 
L 386.642564 430.08358 
L 391.122528 423.595395 
L 395.602493 409.364155 
L 400.082457 419.347542 
L 404.562421 411.873289 
L 409.042386 417.179598 
L 413.52235 414.809647 
L 418.002315 385.649861 
L 422.482279 423.441149 
L 426.962243 410.903752 
L 431.442208 415.435286 
L 435.922172 401.015486 
L 440.402136 418.02777 
L 444.882101 407.985409 
L 449.362065 406.357092 
L 453.84203 425.2511 
L 458.321994 413.967537 
L 462.801958 410.289668 
L 467.281923 426.206262 
L 471.761887 413.012752 
L 476.241852 412.547526 
L 480.721816 427.786874 
L 485.20178 436.43378 
L 489.681745 429.271736 
L 494.161709 420.60664 
L 498.641674 414.470506 
L 503.121638 420.249497 
L 507.601602 410.712875 
L 512.081567 403.777545 
L 516.561531 421.206745 
L 521.041496 431.527585 
L 525.52146 409.39122 
L 530.001424 407.878596 
L 534.481389 408.211415 
L 538.961353 406.764868 
L 543.441317 409.779941 
L 547.921282 394.615867 
L 552.401246 394.547087 
L 556.881211 414.679088 
L 561.361175 411.88485 
L 565.841139 404.038051 
L 570.321104 404.858099 
L 574.801068 407.583526 
L 579.281033 412.548195 
L 583.760997 409.982642 
L 588.240961 406.290476 
L 592.720926 397.663755 
L 597.20089 401.332014 
L 601.680855 414.588077 
L 606.160819 417.688747 
L 610.640783 413.333589 
L 615.120748 403.738585 
L 619.600712 406.11761 
L 624.080677 407.164552 
L 628.560641 345.621564 
L 633.040605 407.519211 
L 637.52057 376.861229 
L 642.000534 396.395032 
L 646.480499 413.703726 
L 650.960463 404.371588 
L 655.440427 378.713704 
L 659.920392 389.660997 
L 664.400356 405.802104 
L 668.88032 418.297069 
L 673.360285 415.718682 
L 677.840249 406.970908 
L 682.320214 419.328404 
L 686.800178 395.562889 
L 691.280142 404.544002 
L 695.760107 406.642181 
L 700.240071 394.707031 
L 704.720036 422.07588 
L 704.738143 577 
L 704.738143 577 
" clip-path="url(#p2aed325ddc)" style="fill: none; stroke: #1f77b4; stroke-width: 1.5; stroke-linecap: square"/>
   </g>
   <g id="line2d_166">
    <path d="M 55.111866 577 
L 55.125199 463.052162 
L 59.605163 514.153709 
L 64.085128 444.886919 
L 68.565092 486.0053 
L 73.045056 420.562116 
L 77.525021 480.874958 
L 82.004985 416.948638 
L 86.48495 438.523555 
L 90.964914 446.000769 
L 95.444878 478.461521 
L 99.924843 436.601303 
L 104.404807 438.427694 
L 108.884771 420.848715 
L 113.364736 346.979873 
L 117.8447 427.748351 
L 122.324665 451.717057 
L 126.804629 447.412582 
L 131.284593 519.54839 
L 135.764558 473.559325 
L 140.244522 507.432121 
L 144.724487 496.889033 
L 149.204451 317.852273 
L 153.684415 458.028264 
L 158.16438 492.953205 
L 162.644344 498.009559 
L 167.124309 480.629361 
L 171.604273 427.946946 
L 176.084237 433.873509 
L 180.564202 421.641982 
L 185.044166 435.446734 
L 189.524131 417.21944 
L 194.004095 432.07445 
L 198.484059 429.071214 
L 202.964024 418.618008 
L 207.443988 405.814129 
L 211.923952 426.384038 
L 216.403917 427.159993 
L 220.883881 428.619017 
L 225.363846 417.254936 
L 229.84381 411.730081 
L 234.323774 408.707332 
L 238.803739 397.390541 
L 243.283703 402.088797 
L 247.763668 407.058561 
L 252.243632 396.119685 
L 256.723596 392.965299 
L 261.203561 445.205133 
L 265.683525 433.587911 
L 270.16349 423.201625 
L 274.643454 432.494545 
L 279.123418 433.91714 
L 283.603383 425.122092 
L 288.083347 418.846224 
L 292.563312 425.366623 
L 297.043276 398.385797 
L 301.52324 425.694437 
L 306.003205 434.840429 
L 310.483169 420.291053 
L 314.963134 416.261904 
L 319.443098 430.445752 
L 323.923062 419.530978 
L 328.403027 402.683274 
L 332.882991 417.780189 
L 337.362955 408.077076 
L 341.84292 412.452171 
L 346.322884 421.545037 
L 350.802849 419.959387 
L 355.282813 411.605781 
L 359.762777 413.784951 
L 364.242742 411.813042 
L 368.722706 421.696473 
L 373.202671 401.068938 
L 377.682635 403.310204 
L 382.162599 414.921938 
L 386.642564 424.144829 
L 391.122528 424.82492 
L 395.602493 422.587482 
L 400.082457 428.220086 
L 404.562421 426.469 
L 409.042386 421.494482 
L 413.52235 433.66901 
L 422.482279 419.748445 
L 426.962243 427.156764 
L 431.442208 438.700752 
L 435.922172 435.135584 
L 440.402136 427.999517 
L 444.882101 425.45234 
L 449.362065 433.047179 
L 453.84203 437.784009 
L 458.321994 440.272658 
L 462.801958 423.279379 
L 467.281923 427.649938 
L 471.761887 427.158378 
L 476.241852 441.5415 
L 480.721816 426.215411 
L 485.20178 432.703013 
L 489.681745 437.981326 
L 494.161709 441.855866 
L 498.641674 430.306568 
L 503.121638 429.291922 
L 507.601602 431.075708 
L 512.081567 413.411607 
L 516.561531 412.342823 
L 521.041496 430.079729 
L 525.52146 426.294912 
L 530.001424 439.698671 
L 534.481389 426.302576 
L 538.961353 436.145323 
L 543.441317 439.011354 
L 547.921282 425.282789 
L 552.401246 435.927431 
L 556.881211 426.674701 
L 561.361175 420.96609 
L 565.841139 422.580131 
L 570.321104 422.449584 
L 574.801068 422.561768 
L 579.281033 404.064488 
L 583.760997 424.394384 
L 588.240961 424.788495 
L 592.720926 420.562116 
L 597.20089 418.242293 
L 601.680855 435.742145 
L 606.160819 421.454378 
L 610.640783 418.613186 
L 615.120748 418.423366 
L 619.600712 383.572759 
L 624.080677 418.67501 
L 628.560641 427.101967 
L 633.040605 393.78007 
L 637.52057 435.810024 
L 642.000534 410.126485 
L 646.480499 397.752823 
L 650.960463 404.506082 
L 655.440427 389.672266 
L 659.920392 420.94388 
L 664.400356 412.158897 
L 668.88032 436.07606 
L 673.360285 427.586862 
L 677.840249 418.58236 
L 682.320214 414.472008 
L 686.800178 422.235866 
L 691.280142 423.354932 
L 695.760107 419.717497 
L 700.240071 438.338721 
L 700.240071 438.338721 
" clip-path="url(#p2aed325ddc)" style="fill: none; stroke: #ff7f0e; stroke-width: 1.5; stroke-linecap: square"/>
   </g>
   <g id="line2d_167">
    <path d="M 283.603383 518.719344 
L 283.610212 577 
M 301.517017 577 
L 301.52324 523.897727 
L 306.003205 431.036902 
L 310.483169 454.410375 
L 314.963134 442.409629 
L 319.443098 431.178266 
L 323.923062 429.027785 
L 328.403027 434.063413 
L 332.882991 433.084069 
L 337.362955 420.126503 
L 341.84292 441.093945 
L 346.322884 439.753803 
L 350.802849 444.681217 
L 355.282813 447.184073 
L 359.762777 446.43919 
L 364.242742 425.089283 
L 368.722706 396.898579 
L 373.202671 403.933914 
L 377.682635 404.254389 
L 382.162599 414.27342 
L 386.642564 399.349654 
L 391.122528 403.564968 
L 395.602493 388.231029 
L 400.082457 404.883351 
L 404.562421 384.669942 
L 409.042386 329.889292 
L 413.52235 396.151989 
L 418.002315 405.434478 
L 422.482279 404.596078 
L 426.962243 393.29299 
L 431.442208 385.601748 
L 435.922172 379.464076 
L 440.402136 403.032906 
L 444.882101 415.868345 
L 449.362065 415.267387 
L 453.84203 416.322256 
L 458.321994 416.540339 
L 462.801958 405.60385 
L 467.281923 413.377825 
L 471.761887 387.445093 
L 476.241852 395.53315 
L 480.721816 412.849864 
L 485.20178 389.609457 
L 489.681745 379.231298 
L 494.161709 380.09559 
L 498.641674 398.133007 
L 503.121638 419.804296 
L 507.601602 406.961357 
L 512.081567 394.799158 
L 516.561531 405.348488 
L 521.041496 407.410935 
L 525.52146 409.511058 
L 530.001424 412.530816 
L 534.481389 416.54885 
L 538.961353 420.325229 
L 543.441317 394.98334 
L 547.921282 418.448168 
L 552.401246 397.042567 
L 556.881211 409.589755 
L 561.361175 415.687941 
L 565.841139 405.599452 
L 570.321104 408.264528 
L 574.801068 406.695657 
L 579.281033 396.510276 
L 583.760997 388.667698 
L 588.240961 412.371912 
L 592.720926 403.979717 
L 597.20089 413.705877 
L 601.680855 405.928125 
L 606.160819 388.277368 
L 610.640783 412.669687 
L 615.120748 401.511808 
L 619.600712 406.154858 
L 624.080677 401.071281 
L 628.560641 418.889305 
L 633.040605 379.390795 
L 637.52057 409.645235 
L 642.000534 389.414656 
L 646.480499 407.631678 
L 650.960463 424.690825 
L 655.440427 430.516773 
L 659.920392 430.548436 
L 664.400356 419.788763 
L 668.88032 428.682613 
L 673.360285 413.326578 
L 677.840249 395.569131 
L 682.320214 414.010578 
L 686.800178 414.257101 
L 691.280142 414.567669 
L 695.760107 405.883774 
L 700.240071 415.762465 
" clip-path="url(#p2aed325ddc)" style="fill: none; stroke: #2ca02c; stroke-width: 1.5; stroke-linecap: square"/>
   </g>
   <g id="line2d_168">
    <path d="M 126.804629 458.174414 
L 131.284593 451.724161 
L 135.764558 402.412193 
L 140.244522 458.2059 
L 144.724487 492.953205 
L 149.204451 466.882003 
L 153.684415 443.016114 
L 158.16438 447.823019 
L 162.644344 460.013321 
L 167.124309 461.065252 
L 171.604273 462.690254 
L 176.084237 437.486348 
L 180.564202 437.510448 
L 185.044166 398.873613 
L 189.524131 431.972688 
L 194.004095 423.756349 
L 198.484059 445.573644 
L 202.964024 439.840316 
L 207.443988 464.430748 
L 211.923952 448.278472 
L 220.883881 475.320679 
L 225.363846 493.651307 
L 229.84381 453.738998 
L 234.323774 471.329143 
L 238.803739 465.951214 
L 243.283703 465.277842 
L 247.763668 462.322608 
L 252.243632 467.830588 
L 256.723596 466.600724 
L 261.203561 433.892887 
L 265.683525 447.845497 
L 270.16349 449.21651 
L 274.643454 457.842231 
L 279.123418 456.405798 
L 283.603383 466.170563 
L 288.083347 464.70833 
L 292.563312 450.204343 
L 297.043276 456.748596 
L 301.52324 474.291401 
L 306.003205 474.970437 
L 310.483169 449.876956 
L 314.963134 441.695997 
L 319.443098 449.750313 
L 323.923062 444.570083 
L 328.403027 463.250358 
L 332.882991 449.431686 
L 337.362955 455.232567 
L 341.84292 432.723327 
L 346.322884 446.091577 
L 350.802849 405.529236 
L 355.282813 425.768503 
L 359.762777 439.534367 
L 364.242742 437.294803 
L 368.722706 440.545545 
L 373.202671 436.335197 
L 377.682635 433.288445 
L 382.162599 453.867881 
L 386.642564 450.973984 
L 391.122528 448.646163 
L 395.602493 440.272658 
L 400.082457 435.946623 
L 404.562421 442.807327 
L 409.042386 442.770023 
L 413.52235 424.375264 
L 418.002315 421.553095 
L 422.482279 419.480102 
L 426.962243 433.139558 
L 431.442208 430.481225 
L 435.922172 417.988725 
L 440.402136 433.054089 
L 444.882101 429.536094 
L 449.362065 427.010507 
L 453.84203 423.025799 
L 458.321994 431.012439 
L 462.801958 433.056394 
L 467.281923 430.725673 
L 471.761887 436.329581 
L 480.721816 441.68436 
L 485.20178 428.571479 
L 489.681745 412.83829 
L 494.161709 411.700825 
L 498.641674 443.411594 
L 503.121638 429.523055 
L 507.601602 438.112103 
L 512.081567 432.150638 
L 516.561531 443.785898 
L 521.041496 444.519394 
L 525.52146 434.029167 
L 530.001424 434.899556 
L 534.481389 433.54751 
L 538.961353 438.23447 
L 543.441317 421.481868 
L 547.921282 432.203085 
L 552.401246 436.584189 
L 556.881211 435.177434 
L 561.361175 432.251307 
L 565.841139 423.938812 
L 570.321104 440.20868 
L 574.801068 443.48924 
L 579.281033 425.991203 
L 583.760997 418.649866 
L 588.240961 427.701574 
L 592.720926 422.005925 
L 597.20089 430.400536 
L 601.680855 429.970331 
L 606.160819 444.232035 
L 610.640783 440.123758 
L 615.120748 436.309941 
L 619.600712 431.065487 
L 624.080677 430.721669 
L 628.560641 428.235584 
L 633.040605 417.273602 
L 637.52057 427.770114 
L 642.000534 421.842274 
L 646.480499 422.594836 
L 650.960463 429.193061 
L 655.440427 424.208218 
L 659.920392 421.144849 
L 664.400356 447.622077 
L 668.88032 440.782552 
L 673.360285 458.492 
L 677.840249 441.634025 
L 682.320214 446.259361 
L 686.800178 446.193061 
L 691.280142 428.766011 
L 695.760107 436.994029 
L 700.240071 465.668684 
L 700.240071 465.668684 
" clip-path="url(#p2aed325ddc)" style="fill: none; stroke: #d62728; stroke-width: 1.5; stroke-linecap: square"/>
   </g>
   <g id="patch_9">
    <path d="M 50.645234 534.2 
L 50.645234 307.55 
" style="fill: none; stroke: #000000; stroke-width: 0.8; stroke-linejoin: miter; stroke-linecap: square"/>
   </g>
   <g id="patch_10">
    <path d="M 709.2 534.2 
L 709.2 307.55 
" style="fill: none; stroke: #000000; stroke-width: 0.8; stroke-linejoin: miter; stroke-linecap: square"/>
   </g>
   <g id="patch_11">
    <path d="M 50.645234 534.2 
L 709.2 534.2 
" style="fill: none; stroke: #000000; stroke-width: 0.8; stroke-linejoin: miter; stroke-linecap: square"/>
   </g>
   <g id="patch_12">
    <path d="M 50.645234 307.55 
L 709.2 307.55 
" style="fill: none; stroke: #000000; stroke-width: 0.8; stroke-linejoin: miter; stroke-linecap: square"/>
   </g>
   <g id="text_27">
    <!-- deletions -->
    <g transform="translate(352.444492 301.55)scale(0.12 -0.12)">
     <use xlink:href="#DejaVuSans-64"/>
     <use xlink:href="#DejaVuSans-65" x="63.476562"/>
     <use xlink:href="#DejaVuSans-6c" x="125"/>
     <use xlink:href="#DejaVuSans-65" x="152.783203"/>
     <use xlink:href="#DejaVuSans-74" x="214.306641"/>
     <use xlink:href="#DejaVuSans-69" x="253.515625"/>
     <use xlink:href="#DejaVuSans-6f" x="281.298828"/>
     <use xlink:href="#DejaVuSans-6e" x="342.480469"/>
     <use xlink:href="#DejaVuSans-73" x="405.859375"/>
    </g>
   </g>
   <g id="legend_2">
    <g id="patch_13">
     <path d="M 641.829688 374.2625 
L 702.2 374.2625 
Q 704.2 374.2625 704.2 372.2625 
L 704.2 314.55 
Q 704.2 312.55 702.2 312.55 
L 641.829688 312.55 
Q 639.829688 312.55 639.829688 314.55 
L 639.829688 372.2625 
Q 639.829688 374.2625 641.829688 374.2625 
z
" style="fill: #ffffff; opacity: 0.8; stroke: #cccccc; stroke-linejoin: miter"/>
    </g>
    <g id="line2d_169">
     <path d="M 643.829688 320.648437 
L 653.829688 320.648437 
L 663.829688 320.648437 
" style="fill: none; stroke: #1f77b4; stroke-width: 1.5; stroke-linecap: square"/>
    </g>
    <g id="text_28">
     <!-- flink -->
     <g transform="translate(671.829688 324.148437)scale(0.1 -0.1)">
      <use xlink:href="#DejaVuSans-66"/>
      <use xlink:href="#DejaVuSans-6c" x="35.205078"/>
      <use xlink:href="#DejaVuSans-69" x="62.988281"/>
      <use xlink:href="#DejaVuSans-6e" x="90.771484"/>
      <use xlink:href="#DejaVuSans-6b" x="154.150391"/>
     </g>
    </g>
    <g id="line2d_170">
     <path d="M 643.829688 335.326562 
L 653.829688 335.326562 
L 663.829688 335.326562 
" style="fill: none; stroke: #ff7f0e; stroke-width: 1.5; stroke-linecap: square"/>
    </g>
    <g id="text_29">
     <!-- spark -->
     <g transform="translate(671.829688 338.826562)scale(0.1 -0.1)">
      <use xlink:href="#DejaVuSans-73"/>
      <use xlink:href="#DejaVuSans-70" x="52.099609"/>
      <use xlink:href="#DejaVuSans-61" x="115.576172"/>
      <use xlink:href="#DejaVuSans-72" x="176.855469"/>
      <use xlink:href="#DejaVuSans-6b" x="217.96875"/>
     </g>
    </g>
    <g id="line2d_171">
     <path d="M 643.829688 350.004687 
L 653.829688 350.004687 
L 663.829688 350.004687 
" style="fill: none; stroke: #2ca02c; stroke-width: 1.5; stroke-linecap: square"/>
    </g>
    <g id="text_30">
     <!-- beam -->
     <g transform="translate(671.829688 353.504687)scale(0.1 -0.1)">
      <use xlink:href="#DejaVuSans-62"/>
      <use xlink:href="#DejaVuSans-65" x="63.476562"/>
      <use xlink:href="#DejaVuSans-61" x="125"/>
      <use xlink:href="#DejaVuSans-6d" x="186.279297"/>
     </g>
    </g>
    <g id="line2d_172">
     <path d="M 643.829688 364.682812 
L 653.829688 364.682812 
L 663.829688 364.682812 
" style="fill: none; stroke: #d62728; stroke-width: 1.5; stroke-linecap: square"/>
    </g>
    <g id="text_31">
     <!-- kafka -->
     <g transform="translate(671.829688 368.182812)scale(0.1 -0.1)">
      <use xlink:href="#DejaVuSans-6b"/>
      <use xlink:href="#DejaVuSans-61" x="56.160156"/>
      <use xlink:href="#DejaVuSans-66" x="117.439453"/>
      <use xlink:href="#DejaVuSans-6b" x="152.644531"/>
      <use xlink:href="#DejaVuSans-61" x="208.804688"/>
     </g>
    </g>
   </g>
  </g>
  <g id="text_32">
   <!-- monthly added/deleted LOC -->
   <g transform="translate(275.926875 20.638125)scale(0.12 -0.12)">
    <defs>
     <path id="DejaVuSans-79" d="M 2059 -325 
Q 1816 -950 1584 -1140 
Q 1353 -1331 966 -1331 
L 506 -1331 
L 506 -850 
L 844 -850 
Q 1081 -850 1212 -737 
Q 1344 -625 1503 -206 
L 1606 56 
L 191 3500 
L 800 3500 
L 1894 763 
L 2988 3500 
L 3597 3500 
L 2059 -325 
z
" transform="scale(0.015625)"/>
     <path id="DejaVuSans-2f" d="M 1625 4666 
L 2156 4666 
L 531 -594 
L 0 -594 
L 1625 4666 
z
" transform="scale(0.015625)"/>
     <path id="DejaVuSans-4c" d="M 628 4666 
L 1259 4666 
L 1259 531 
L 3531 531 
L 3531 0 
L 628 0 
L 628 4666 
z
" transform="scale(0.015625)"/>
     <path id="DejaVuSans-4f" d="M 2522 4238 
Q 1834 4238 1429 3725 
Q 1025 3213 1025 2328 
Q 1025 1447 1429 934 
Q 1834 422 2522 422 
Q 3209 422 3611 934 
Q 4013 1447 4013 2328 
Q 4013 3213 3611 3725 
Q 3209 4238 2522 4238 
z
M 2522 4750 
Q 3503 4750 4090 4092 
Q 4678 3434 4678 2328 
Q 4678 1225 4090 567 
Q 3503 -91 2522 -91 
Q 1538 -91 948 565 
Q 359 1222 359 2328 
Q 359 3434 948 4092 
Q 1538 4750 2522 4750 
z
" transform="scale(0.015625)"/>
     <path id="DejaVuSans-43" d="M 4122 4306 
L 4122 3641 
Q 3803 3938 3442 4084 
Q 3081 4231 2675 4231 
Q 1875 4231 1450 3742 
Q 1025 3253 1025 2328 
Q 1025 1406 1450 917 
Q 1875 428 2675 428 
Q 3081 428 3442 575 
Q 3803 722 4122 1019 
L 4122 359 
Q 3791 134 3420 21 
Q 3050 -91 2638 -91 
Q 1578 -91 968 557 
Q 359 1206 359 2328 
Q 359 3453 968 4101 
Q 1578 4750 2638 4750 
Q 3056 4750 3426 4639 
Q 3797 4528 4122 4306 
z
" transform="scale(0.015625)"/>
    </defs>
    <use xlink:href="#DejaVuSans-6d"/>
    <use xlink:href="#DejaVuSans-6f" x="97.412109"/>
    <use xlink:href="#DejaVuSans-6e" x="158.59375"/>
    <use xlink:href="#DejaVuSans-74" x="221.972656"/>
    <use xlink:href="#DejaVuSans-68" x="261.181641"/>
    <use xlink:href="#DejaVuSans-6c" x="324.560547"/>
    <use xlink:href="#DejaVuSans-79" x="352.34375"/>
    <use xlink:href="#DejaVuSans-20" x="411.523438"/>
    <use xlink:href="#DejaVuSans-61" x="443.310547"/>
    <use xlink:href="#DejaVuSans-64" x="504.589844"/>
    <use xlink:href="#DejaVuSans-64" x="568.066406"/>
    <use xlink:href="#DejaVuSans-65" x="631.542969"/>
    <use xlink:href="#DejaVuSans-64" x="693.066406"/>
    <use xlink:href="#DejaVuSans-2f" x="756.542969"/>
    <use xlink:href="#DejaVuSans-64" x="790.234375"/>
    <use xlink:href="#DejaVuSans-65" x="853.710938"/>
    <use xlink:href="#DejaVuSans-6c" x="915.234375"/>
    <use xlink:href="#DejaVuSans-65" x="943.017578"/>
    <use xlink:href="#DejaVuSans-74" x="1004.541016"/>
    <use xlink:href="#DejaVuSans-65" x="1043.75"/>
    <use xlink:href="#DejaVuSans-64" x="1105.273438"/>
    <use xlink:href="#DejaVuSans-20" x="1168.75"/>
    <use xlink:href="#DejaVuSans-4c" x="1200.537109"/>
    <use xlink:href="#DejaVuSans-4f" x="1252.625"/>
    <use xlink:href="#DejaVuSans-43" x="1331.335938"/>
   </g>
  </g>
 </g>
 <defs>
  <clipPath id="pf4b0c00bbe">
   <rect x="50.645234" y="50.6" width="658.554766" height="226.65"/>
  </clipPath>
  <clipPath id="p2aed325ddc">
   <rect x="50.645234" y="307.55" width="658.554766" height="226.65"/>
  </clipPath>
 </defs>
</svg>
