<?xml version="1.0" encoding="utf-8" standalone="no"?>
<!DOCTYPE svg PUBLIC "-//W3C//DTD SVG 1.1//EN"
  "http://www.w3.org/Graphics/SVG/1.1/DTD/svg11.dtd">
<svg xmlns:xlink="http://www.w3.org/1999/xlink" width="432pt" height="288pt" viewBox="0 0 432 288" xmlns="http://www.w3.org/2000/svg" version="1.1">
 <metadata>
  <rdf:RDF xmlns:dc="http://purl.org/dc/elements/1.1/" xmlns:cc="http://creativecommons.org/ns#" xmlns:rdf="http://www.w3.org/1999/02/22-rdf-syntax-ns#">
   <cc:Work>
    <dc:type rdf:resource="http://purl.org/dc/dcmitype/StillImage"/>
    <dc:date>2022-06-02T17:34:47.354698</dc:date>
    <dc:format>image/svg+xml</dc:format>
    <dc:creator>
     <cc:Agent>
      <dc:title>Matplotlib v3.5.0, https://matplotlib.org/</dc:title>
     </cc:Agent>
    </dc:creator>
   </cc:Work>
  </rdf:RDF>
 </metadata>
 <defs>
  <style type="text/css">*{stroke-linejoin: round; stroke-linecap: butt}</style>
 </defs>
 <g id="figure_1">
  <g id="patch_1">
   <path d="M 0 288 
L 432 288 
L 432 0 
L 0 0 
z
" style="fill: #ffffff"/>
  </g>
  <g id="axes_1">
   <g id="patch_2">
    <path d="M 57.3 246.2 
L 387.45 246.2 
L 387.45 38.495226 
L 57.3 38.495226 
z
" style="fill: #ffffff"/>
   </g>
   <g id="matplotlib.axis_1">
    <g id="xtick_1">
     <g id="line2d_1">
      <path d="M 59.709854 246.2 
L 59.709854 38.495226 
" clip-path="url(#pcae902464d)" style="fill: none; stroke: #b0b0b0; stroke-width: 0.8; stroke-linecap: square"/>
     </g>
     <g id="line2d_2">
      <defs>
       <path id="m50205c8cb6" d="M 0 0 
L 0 3.5 
" style="stroke: #000000; stroke-width: 0.8"/>
      </defs>
      <g>
       <use xlink:href="#m50205c8cb6" x="59.709854" y="246.2" style="stroke: #000000; stroke-width: 0.8"/>
      </g>
     </g>
     <g id="text_1">
      <!-- 2011 -->
      <g transform="translate(46.984854 260.798437)scale(0.1 -0.1)">
       <defs>
        <path id="DejaVuSans-32" d="M 1228 531 
L 3431 531 
L 3431 0 
L 469 0 
L 469 531 
Q 828 903 1448 1529 
Q 2069 2156 2228 2338 
Q 2531 2678 2651 2914 
Q 2772 3150 2772 3378 
Q 2772 3750 2511 3984 
Q 2250 4219 1831 4219 
Q 1534 4219 1204 4116 
Q 875 4013 500 3803 
L 500 4441 
Q 881 4594 1212 4672 
Q 1544 4750 1819 4750 
Q 2544 4750 2975 4387 
Q 3406 4025 3406 3419 
Q 3406 3131 3298 2873 
Q 3191 2616 2906 2266 
Q 2828 2175 2409 1742 
Q 1991 1309 1228 531 
z
" transform="scale(0.015625)"/>
        <path id="DejaVuSans-30" d="M 2034 4250 
Q 1547 4250 1301 3770 
Q 1056 3291 1056 2328 
Q 1056 1369 1301 889 
Q 1547 409 2034 409 
Q 2525 409 2770 889 
Q 3016 1369 3016 2328 
Q 3016 3291 2770 3770 
Q 2525 4250 2034 4250 
z
M 2034 4750 
Q 2819 4750 3233 4129 
Q 3647 3509 3647 2328 
Q 3647 1150 3233 529 
Q 2819 -91 2034 -91 
Q 1250 -91 836 529 
Q 422 1150 422 2328 
Q 422 3509 836 4129 
Q 1250 4750 2034 4750 
z
" transform="scale(0.015625)"/>
        <path id="DejaVuSans-31" d="M 794 531 
L 1825 531 
L 1825 4091 
L 703 3866 
L 703 4441 
L 1819 4666 
L 2450 4666 
L 2450 531 
L 3481 531 
L 3481 0 
L 794 0 
L 794 531 
z
" transform="scale(0.015625)"/>
       </defs>
       <use xlink:href="#DejaVuSans-32"/>
       <use xlink:href="#DejaVuSans-30" x="63.623047"/>
       <use xlink:href="#DejaVuSans-31" x="127.246094"/>
       <use xlink:href="#DejaVuSans-31" x="190.869141"/>
      </g>
     </g>
    </g>
    <g id="xtick_2">
     <g id="line2d_3">
      <path d="M 117.54635 246.2 
L 117.54635 38.495226 
" clip-path="url(#pcae902464d)" style="fill: none; stroke: #b0b0b0; stroke-width: 0.8; stroke-linecap: square"/>
     </g>
     <g id="line2d_4">
      <g>
       <use xlink:href="#m50205c8cb6" x="117.54635" y="246.2" style="stroke: #000000; stroke-width: 0.8"/>
      </g>
     </g>
     <g id="text_2">
      <!-- 2013 -->
      <g transform="translate(104.82135 260.798437)scale(0.1 -0.1)">
       <defs>
        <path id="DejaVuSans-33" d="M 2597 2516 
Q 3050 2419 3304 2112 
Q 3559 1806 3559 1356 
Q 3559 666 3084 287 
Q 2609 -91 1734 -91 
Q 1441 -91 1130 -33 
Q 819 25 488 141 
L 488 750 
Q 750 597 1062 519 
Q 1375 441 1716 441 
Q 2309 441 2620 675 
Q 2931 909 2931 1356 
Q 2931 1769 2642 2001 
Q 2353 2234 1838 2234 
L 1294 2234 
L 1294 2753 
L 1863 2753 
Q 2328 2753 2575 2939 
Q 2822 3125 2822 3475 
Q 2822 3834 2567 4026 
Q 2313 4219 1838 4219 
Q 1578 4219 1281 4162 
Q 984 4106 628 3988 
L 628 4550 
Q 988 4650 1302 4700 
Q 1616 4750 1894 4750 
Q 2613 4750 3031 4423 
Q 3450 4097 3450 3541 
Q 3450 3153 3228 2886 
Q 3006 2619 2597 2516 
z
" transform="scale(0.015625)"/>
       </defs>
       <use xlink:href="#DejaVuSans-32"/>
       <use xlink:href="#DejaVuSans-30" x="63.623047"/>
       <use xlink:href="#DejaVuSans-31" x="127.246094"/>
       <use xlink:href="#DejaVuSans-33" x="190.869141"/>
      </g>
     </g>
    </g>
    <g id="xtick_3">
     <g id="line2d_5">
      <path d="M 175.382847 246.2 
L 175.382847 38.495226 
" clip-path="url(#pcae902464d)" style="fill: none; stroke: #b0b0b0; stroke-width: 0.8; stroke-linecap: square"/>
     </g>
     <g id="line2d_6">
      <g>
       <use xlink:href="#m50205c8cb6" x="175.382847" y="246.2" style="stroke: #000000; stroke-width: 0.8"/>
      </g>
     </g>
     <g id="text_3">
      <!-- 2015 -->
      <g transform="translate(162.657847 260.798437)scale(0.1 -0.1)">
       <defs>
        <path id="DejaVuSans-35" d="M 691 4666 
L 3169 4666 
L 3169 4134 
L 1269 4134 
L 1269 2991 
Q 1406 3038 1543 3061 
Q 1681 3084 1819 3084 
Q 2600 3084 3056 2656 
Q 3513 2228 3513 1497 
Q 3513 744 3044 326 
Q 2575 -91 1722 -91 
Q 1428 -91 1123 -41 
Q 819 9 494 109 
L 494 744 
Q 775 591 1075 516 
Q 1375 441 1709 441 
Q 2250 441 2565 725 
Q 2881 1009 2881 1497 
Q 2881 1984 2565 2268 
Q 2250 2553 1709 2553 
Q 1456 2553 1204 2497 
Q 953 2441 691 2322 
L 691 4666 
z
" transform="scale(0.015625)"/>
       </defs>
       <use xlink:href="#DejaVuSans-32"/>
       <use xlink:href="#DejaVuSans-30" x="63.623047"/>
       <use xlink:href="#DejaVuSans-31" x="127.246094"/>
       <use xlink:href="#DejaVuSans-35" x="190.869141"/>
      </g>
     </g>
    </g>
    <g id="xtick_4">
     <g id="line2d_7">
      <path d="M 233.219343 246.2 
L 233.219343 38.495226 
" clip-path="url(#pcae902464d)" style="fill: none; stroke: #b0b0b0; stroke-width: 0.8; stroke-linecap: square"/>
     </g>
     <g id="line2d_8">
      <g>
       <use xlink:href="#m50205c8cb6" x="233.219343" y="246.2" style="stroke: #000000; stroke-width: 0.8"/>
      </g>
     </g>
     <g id="text_4">
      <!-- 2017 -->
      <g transform="translate(220.494343 260.798437)scale(0.1 -0.1)">
       <defs>
        <path id="DejaVuSans-37" d="M 525 4666 
L 3525 4666 
L 3525 4397 
L 1831 0 
L 1172 0 
L 2766 4134 
L 525 4134 
L 525 4666 
z
" transform="scale(0.015625)"/>
       </defs>
       <use xlink:href="#DejaVuSans-32"/>
       <use xlink:href="#DejaVuSans-30" x="63.623047"/>
       <use xlink:href="#DejaVuSans-31" x="127.246094"/>
       <use xlink:href="#DejaVuSans-37" x="190.869141"/>
      </g>
     </g>
    </g>
    <g id="xtick_5">
     <g id="line2d_9">
      <path d="M 291.055839 246.2 
L 291.055839 38.495226 
" clip-path="url(#pcae902464d)" style="fill: none; stroke: #b0b0b0; stroke-width: 0.8; stroke-linecap: square"/>
     </g>
     <g id="line2d_10">
      <g>
       <use xlink:href="#m50205c8cb6" x="291.055839" y="246.2" style="stroke: #000000; stroke-width: 0.8"/>
      </g>
     </g>
     <g id="text_5">
      <!-- 2019 -->
      <g transform="translate(278.330839 260.798437)scale(0.1 -0.1)">
       <defs>
        <path id="DejaVuSans-39" d="M 703 97 
L 703 672 
Q 941 559 1184 500 
Q 1428 441 1663 441 
Q 2288 441 2617 861 
Q 2947 1281 2994 2138 
Q 2813 1869 2534 1725 
Q 2256 1581 1919 1581 
Q 1219 1581 811 2004 
Q 403 2428 403 3163 
Q 403 3881 828 4315 
Q 1253 4750 1959 4750 
Q 2769 4750 3195 4129 
Q 3622 3509 3622 2328 
Q 3622 1225 3098 567 
Q 2575 -91 1691 -91 
Q 1453 -91 1209 -44 
Q 966 3 703 97 
z
M 1959 2075 
Q 2384 2075 2632 2365 
Q 2881 2656 2881 3163 
Q 2881 3666 2632 3958 
Q 2384 4250 1959 4250 
Q 1534 4250 1286 3958 
Q 1038 3666 1038 3163 
Q 1038 2656 1286 2365 
Q 1534 2075 1959 2075 
z
" transform="scale(0.015625)"/>
       </defs>
       <use xlink:href="#DejaVuSans-32"/>
       <use xlink:href="#DejaVuSans-30" x="63.623047"/>
       <use xlink:href="#DejaVuSans-31" x="127.246094"/>
       <use xlink:href="#DejaVuSans-39" x="190.869141"/>
      </g>
     </g>
    </g>
    <g id="xtick_6">
     <g id="line2d_11">
      <path d="M 348.892336 246.2 
L 348.892336 38.495226 
" clip-path="url(#pcae902464d)" style="fill: none; stroke: #b0b0b0; stroke-width: 0.8; stroke-linecap: square"/>
     </g>
     <g id="line2d_12">
      <g>
       <use xlink:href="#m50205c8cb6" x="348.892336" y="246.2" style="stroke: #000000; stroke-width: 0.8"/>
      </g>
     </g>
     <g id="text_6">
      <!-- 2021 -->
      <g transform="translate(336.167336 260.798437)scale(0.1 -0.1)">
       <use xlink:href="#DejaVuSans-32"/>
       <use xlink:href="#DejaVuSans-30" x="63.623047"/>
       <use xlink:href="#DejaVuSans-32" x="127.246094"/>
       <use xlink:href="#DejaVuSans-31" x="190.869141"/>
      </g>
     </g>
    </g>
    <g id="xtick_7">
     <g id="line2d_13">
      <defs>
       <path id="mc3cff555c6" d="M 0 0 
L 0 2 
" style="stroke: #000000; stroke-width: 0.6"/>
      </defs>
      <g>
       <use xlink:href="#mc3cff555c6" x="88.628102" y="246.2" style="stroke: #000000; stroke-width: 0.6"/>
      </g>
     </g>
    </g>
    <g id="xtick_8">
     <g id="line2d_14">
      <g>
       <use xlink:href="#mc3cff555c6" x="146.464599" y="246.2" style="stroke: #000000; stroke-width: 0.6"/>
      </g>
     </g>
    </g>
    <g id="xtick_9">
     <g id="line2d_15">
      <g>
       <use xlink:href="#mc3cff555c6" x="204.301095" y="246.2" style="stroke: #000000; stroke-width: 0.6"/>
      </g>
     </g>
    </g>
    <g id="xtick_10">
     <g id="line2d_16">
      <g>
       <use xlink:href="#mc3cff555c6" x="262.137591" y="246.2" style="stroke: #000000; stroke-width: 0.6"/>
      </g>
     </g>
    </g>
    <g id="xtick_11">
     <g id="line2d_17">
      <g>
       <use xlink:href="#mc3cff555c6" x="319.974088" y="246.2" style="stroke: #000000; stroke-width: 0.6"/>
      </g>
     </g>
    </g>
    <g id="xtick_12">
     <g id="line2d_18">
      <g>
       <use xlink:href="#mc3cff555c6" x="377.810584" y="246.2" style="stroke: #000000; stroke-width: 0.6"/>
      </g>
     </g>
    </g>
    <g id="text_7">
     <!-- committed date -->
     <g transform="translate(182.401563 274.476562)scale(0.1 -0.1)">
      <defs>
       <path id="DejaVuSans-63" d="M 3122 3366 
L 3122 2828 
Q 2878 2963 2633 3030 
Q 2388 3097 2138 3097 
Q 1578 3097 1268 2742 
Q 959 2388 959 1747 
Q 959 1106 1268 751 
Q 1578 397 2138 397 
Q 2388 397 2633 464 
Q 2878 531 3122 666 
L 3122 134 
Q 2881 22 2623 -34 
Q 2366 -91 2075 -91 
Q 1284 -91 818 406 
Q 353 903 353 1747 
Q 353 2603 823 3093 
Q 1294 3584 2113 3584 
Q 2378 3584 2631 3529 
Q 2884 3475 3122 3366 
z
" transform="scale(0.015625)"/>
       <path id="DejaVuSans-6f" d="M 1959 3097 
Q 1497 3097 1228 2736 
Q 959 2375 959 1747 
Q 959 1119 1226 758 
Q 1494 397 1959 397 
Q 2419 397 2687 759 
Q 2956 1122 2956 1747 
Q 2956 2369 2687 2733 
Q 2419 3097 1959 3097 
z
M 1959 3584 
Q 2709 3584 3137 3096 
Q 3566 2609 3566 1747 
Q 3566 888 3137 398 
Q 2709 -91 1959 -91 
Q 1206 -91 779 398 
Q 353 888 353 1747 
Q 353 2609 779 3096 
Q 1206 3584 1959 3584 
z
" transform="scale(0.015625)"/>
       <path id="DejaVuSans-6d" d="M 3328 2828 
Q 3544 3216 3844 3400 
Q 4144 3584 4550 3584 
Q 5097 3584 5394 3201 
Q 5691 2819 5691 2113 
L 5691 0 
L 5113 0 
L 5113 2094 
Q 5113 2597 4934 2840 
Q 4756 3084 4391 3084 
Q 3944 3084 3684 2787 
Q 3425 2491 3425 1978 
L 3425 0 
L 2847 0 
L 2847 2094 
Q 2847 2600 2669 2842 
Q 2491 3084 2119 3084 
Q 1678 3084 1418 2786 
Q 1159 2488 1159 1978 
L 1159 0 
L 581 0 
L 581 3500 
L 1159 3500 
L 1159 2956 
Q 1356 3278 1631 3431 
Q 1906 3584 2284 3584 
Q 2666 3584 2933 3390 
Q 3200 3197 3328 2828 
z
" transform="scale(0.015625)"/>
       <path id="DejaVuSans-69" d="M 603 3500 
L 1178 3500 
L 1178 0 
L 603 0 
L 603 3500 
z
M 603 4863 
L 1178 4863 
L 1178 4134 
L 603 4134 
L 603 4863 
z
" transform="scale(0.015625)"/>
       <path id="DejaVuSans-74" d="M 1172 4494 
L 1172 3500 
L 2356 3500 
L 2356 3053 
L 1172 3053 
L 1172 1153 
Q 1172 725 1289 603 
Q 1406 481 1766 481 
L 2356 481 
L 2356 0 
L 1766 0 
Q 1100 0 847 248 
Q 594 497 594 1153 
L 594 3053 
L 172 3053 
L 172 3500 
L 594 3500 
L 594 4494 
L 1172 4494 
z
" transform="scale(0.015625)"/>
       <path id="DejaVuSans-65" d="M 3597 1894 
L 3597 1613 
L 953 1613 
Q 991 1019 1311 708 
Q 1631 397 2203 397 
Q 2534 397 2845 478 
Q 3156 559 3463 722 
L 3463 178 
Q 3153 47 2828 -22 
Q 2503 -91 2169 -91 
Q 1331 -91 842 396 
Q 353 884 353 1716 
Q 353 2575 817 3079 
Q 1281 3584 2069 3584 
Q 2775 3584 3186 3129 
Q 3597 2675 3597 1894 
z
M 3022 2063 
Q 3016 2534 2758 2815 
Q 2500 3097 2075 3097 
Q 1594 3097 1305 2825 
Q 1016 2553 972 2059 
L 3022 2063 
z
" transform="scale(0.015625)"/>
       <path id="DejaVuSans-64" d="M 2906 2969 
L 2906 4863 
L 3481 4863 
L 3481 0 
L 2906 0 
L 2906 525 
Q 2725 213 2448 61 
Q 2172 -91 1784 -91 
Q 1150 -91 751 415 
Q 353 922 353 1747 
Q 353 2572 751 3078 
Q 1150 3584 1784 3584 
Q 2172 3584 2448 3432 
Q 2725 3281 2906 2969 
z
M 947 1747 
Q 947 1113 1208 752 
Q 1469 391 1925 391 
Q 2381 391 2643 752 
Q 2906 1113 2906 1747 
Q 2906 2381 2643 2742 
Q 2381 3103 1925 3103 
Q 1469 3103 1208 2742 
Q 947 2381 947 1747 
z
" transform="scale(0.015625)"/>
       <path id="DejaVuSans-20" transform="scale(0.015625)"/>
       <path id="DejaVuSans-61" d="M 2194 1759 
Q 1497 1759 1228 1600 
Q 959 1441 959 1056 
Q 959 750 1161 570 
Q 1363 391 1709 391 
Q 2188 391 2477 730 
Q 2766 1069 2766 1631 
L 2766 1759 
L 2194 1759 
z
M 3341 1997 
L 3341 0 
L 2766 0 
L 2766 531 
Q 2569 213 2275 61 
Q 1981 -91 1556 -91 
Q 1019 -91 701 211 
Q 384 513 384 1019 
Q 384 1609 779 1909 
Q 1175 2209 1959 2209 
L 2766 2209 
L 2766 2266 
Q 2766 2663 2505 2880 
Q 2244 3097 1772 3097 
Q 1472 3097 1187 3025 
Q 903 2953 641 2809 
L 641 3341 
Q 956 3463 1253 3523 
Q 1550 3584 1831 3584 
Q 2591 3584 2966 3190 
Q 3341 2797 3341 1997 
z
" transform="scale(0.015625)"/>
      </defs>
      <use xlink:href="#DejaVuSans-63"/>
      <use xlink:href="#DejaVuSans-6f" x="54.980469"/>
      <use xlink:href="#DejaVuSans-6d" x="116.162109"/>
      <use xlink:href="#DejaVuSans-6d" x="213.574219"/>
      <use xlink:href="#DejaVuSans-69" x="310.986328"/>
      <use xlink:href="#DejaVuSans-74" x="338.769531"/>
      <use xlink:href="#DejaVuSans-74" x="377.978516"/>
      <use xlink:href="#DejaVuSans-65" x="417.1875"/>
      <use xlink:href="#DejaVuSans-64" x="478.710938"/>
      <use xlink:href="#DejaVuSans-20" x="542.1875"/>
      <use xlink:href="#DejaVuSans-64" x="573.974609"/>
      <use xlink:href="#DejaVuSans-61" x="637.451172"/>
      <use xlink:href="#DejaVuSans-74" x="698.730469"/>
      <use xlink:href="#DejaVuSans-65" x="737.939453"/>
     </g>
    </g>
   </g>
   <g id="matplotlib.axis_2">
    <g id="ytick_1">
     <g id="line2d_19">
      <defs>
       <path id="m9c6a203e49" d="M 0 0 
L -3.5 0 
" style="stroke: #000000; stroke-width: 0.8"/>
      </defs>
      <g>
       <use xlink:href="#m9c6a203e49" x="57.3" y="236.945273" style="stroke: #000000; stroke-width: 0.8"/>
      </g>
     </g>
     <g id="text_8">
      <!-- 0 -->
      <g transform="translate(43.9375 240.744492)scale(0.1 -0.1)">
       <use xlink:href="#DejaVuSans-30"/>
      </g>
     </g>
    </g>
    <g id="ytick_2">
     <g id="line2d_20">
      <g>
       <use xlink:href="#m9c6a203e49" x="57.3" y="199.665407" style="stroke: #000000; stroke-width: 0.8"/>
      </g>
     </g>
     <g id="text_9">
      <!-- 200 -->
      <g transform="translate(31.2125 203.464626)scale(0.1 -0.1)">
       <use xlink:href="#DejaVuSans-32"/>
       <use xlink:href="#DejaVuSans-30" x="63.623047"/>
       <use xlink:href="#DejaVuSans-30" x="127.246094"/>
      </g>
     </g>
    </g>
    <g id="ytick_3">
     <g id="line2d_21">
      <g>
       <use xlink:href="#m9c6a203e49" x="57.3" y="162.385541" style="stroke: #000000; stroke-width: 0.8"/>
      </g>
     </g>
     <g id="text_10">
      <!-- 400 -->
      <g transform="translate(31.2125 166.18476)scale(0.1 -0.1)">
       <defs>
        <path id="DejaVuSans-34" d="M 2419 4116 
L 825 1625 
L 2419 1625 
L 2419 4116 
z
M 2253 4666 
L 3047 4666 
L 3047 1625 
L 3713 1625 
L 3713 1100 
L 3047 1100 
L 3047 0 
L 2419 0 
L 2419 1100 
L 313 1100 
L 313 1709 
L 2253 4666 
z
" transform="scale(0.015625)"/>
       </defs>
       <use xlink:href="#DejaVuSans-34"/>
       <use xlink:href="#DejaVuSans-30" x="63.623047"/>
       <use xlink:href="#DejaVuSans-30" x="127.246094"/>
      </g>
     </g>
    </g>
    <g id="ytick_4">
     <g id="line2d_22">
      <g>
       <use xlink:href="#m9c6a203e49" x="57.3" y="125.105675" style="stroke: #000000; stroke-width: 0.8"/>
      </g>
     </g>
     <g id="text_11">
      <!-- 600 -->
      <g transform="translate(31.2125 128.904894)scale(0.1 -0.1)">
       <defs>
        <path id="DejaVuSans-36" d="M 2113 2584 
Q 1688 2584 1439 2293 
Q 1191 2003 1191 1497 
Q 1191 994 1439 701 
Q 1688 409 2113 409 
Q 2538 409 2786 701 
Q 3034 994 3034 1497 
Q 3034 2003 2786 2293 
Q 2538 2584 2113 2584 
z
M 3366 4563 
L 3366 3988 
Q 3128 4100 2886 4159 
Q 2644 4219 2406 4219 
Q 1781 4219 1451 3797 
Q 1122 3375 1075 2522 
Q 1259 2794 1537 2939 
Q 1816 3084 2150 3084 
Q 2853 3084 3261 2657 
Q 3669 2231 3669 1497 
Q 3669 778 3244 343 
Q 2819 -91 2113 -91 
Q 1303 -91 875 529 
Q 447 1150 447 2328 
Q 447 3434 972 4092 
Q 1497 4750 2381 4750 
Q 2619 4750 2861 4703 
Q 3103 4656 3366 4563 
z
" transform="scale(0.015625)"/>
       </defs>
       <use xlink:href="#DejaVuSans-36"/>
       <use xlink:href="#DejaVuSans-30" x="63.623047"/>
       <use xlink:href="#DejaVuSans-30" x="127.246094"/>
      </g>
     </g>
    </g>
    <g id="ytick_5">
     <g id="line2d_23">
      <g>
       <use xlink:href="#m9c6a203e49" x="57.3" y="87.825809" style="stroke: #000000; stroke-width: 0.8"/>
      </g>
     </g>
     <g id="text_12">
      <!-- 800 -->
      <g transform="translate(31.2125 91.625028)scale(0.1 -0.1)">
       <defs>
        <path id="DejaVuSans-38" d="M 2034 2216 
Q 1584 2216 1326 1975 
Q 1069 1734 1069 1313 
Q 1069 891 1326 650 
Q 1584 409 2034 409 
Q 2484 409 2743 651 
Q 3003 894 3003 1313 
Q 3003 1734 2745 1975 
Q 2488 2216 2034 2216 
z
M 1403 2484 
Q 997 2584 770 2862 
Q 544 3141 544 3541 
Q 544 4100 942 4425 
Q 1341 4750 2034 4750 
Q 2731 4750 3128 4425 
Q 3525 4100 3525 3541 
Q 3525 3141 3298 2862 
Q 3072 2584 2669 2484 
Q 3125 2378 3379 2068 
Q 3634 1759 3634 1313 
Q 3634 634 3220 271 
Q 2806 -91 2034 -91 
Q 1263 -91 848 271 
Q 434 634 434 1313 
Q 434 1759 690 2068 
Q 947 2378 1403 2484 
z
M 1172 3481 
Q 1172 3119 1398 2916 
Q 1625 2713 2034 2713 
Q 2441 2713 2670 2916 
Q 2900 3119 2900 3481 
Q 2900 3844 2670 4047 
Q 2441 4250 2034 4250 
Q 1625 4250 1398 4047 
Q 1172 3844 1172 3481 
z
" transform="scale(0.015625)"/>
       </defs>
       <use xlink:href="#DejaVuSans-38"/>
       <use xlink:href="#DejaVuSans-30" x="63.623047"/>
       <use xlink:href="#DejaVuSans-30" x="127.246094"/>
      </g>
     </g>
    </g>
    <g id="ytick_6">
     <g id="line2d_24">
      <g>
       <use xlink:href="#m9c6a203e49" x="57.3" y="50.545943" style="stroke: #000000; stroke-width: 0.8"/>
      </g>
     </g>
     <g id="text_13">
      <!-- 1000 -->
      <g transform="translate(24.85 54.345162)scale(0.1 -0.1)">
       <use xlink:href="#DejaVuSans-31"/>
       <use xlink:href="#DejaVuSans-30" x="63.623047"/>
       <use xlink:href="#DejaVuSans-30" x="127.246094"/>
       <use xlink:href="#DejaVuSans-30" x="190.869141"/>
      </g>
     </g>
    </g>
    <g id="text_14">
     <!-- count -->
     <g transform="translate(18.770312 156.453863)rotate(-90)scale(0.1 -0.1)">
      <defs>
       <path id="DejaVuSans-75" d="M 544 1381 
L 544 3500 
L 1119 3500 
L 1119 1403 
Q 1119 906 1312 657 
Q 1506 409 1894 409 
Q 2359 409 2629 706 
Q 2900 1003 2900 1516 
L 2900 3500 
L 3475 3500 
L 3475 0 
L 2900 0 
L 2900 538 
Q 2691 219 2414 64 
Q 2138 -91 1772 -91 
Q 1169 -91 856 284 
Q 544 659 544 1381 
z
M 1991 3584 
L 1991 3584 
z
" transform="scale(0.015625)"/>
       <path id="DejaVuSans-6e" d="M 3513 2113 
L 3513 0 
L 2938 0 
L 2938 2094 
Q 2938 2591 2744 2837 
Q 2550 3084 2163 3084 
Q 1697 3084 1428 2787 
Q 1159 2491 1159 1978 
L 1159 0 
L 581 0 
L 581 3500 
L 1159 3500 
L 1159 2956 
Q 1366 3272 1645 3428 
Q 1925 3584 2291 3584 
Q 2894 3584 3203 3211 
Q 3513 2838 3513 2113 
z
" transform="scale(0.015625)"/>
      </defs>
      <use xlink:href="#DejaVuSans-63"/>
      <use xlink:href="#DejaVuSans-6f" x="54.980469"/>
      <use xlink:href="#DejaVuSans-75" x="116.162109"/>
      <use xlink:href="#DejaVuSans-6e" x="179.541016"/>
      <use xlink:href="#DejaVuSans-74" x="242.919922"/>
     </g>
    </g>
   </g>
   <g id="line2d_25">
    <path d="M 59.709854 236.386075 
L 62.119708 236.199676 
L 86.218248 236.199676 
L 88.628102 236.013277 
L 93.44781 236.013277 
L 95.857664 235.826877 
L 98.267518 235.454079 
L 105.49708 235.454079 
L 107.906934 235.267679 
L 124.775912 235.267679 
L 127.185766 235.08128 
L 129.59562 234.522082 
L 132.005474 234.149283 
L 136.825182 233.776485 
L 139.235036 233.217287 
L 141.644891 233.217287 
L 144.054745 233.030887 
L 146.464599 232.28529 
L 148.874453 231.912491 
L 151.284307 231.353293 
L 153.694161 230.421297 
L 158.513869 229.675699 
L 160.923723 229.4893 
L 163.333577 227.625307 
L 165.743431 226.69331 
L 168.153285 226.134112 
L 170.563139 224.642917 
L 172.972993 224.083719 
L 175.382847 223.338122 
L 177.792701 222.965324 
L 180.202555 222.033327 
L 182.612409 221.660528 
L 189.841971 218.864538 
L 192.251825 217.186944 
L 194.661679 214.950152 
L 197.071533 213.272558 
L 199.481387 212.154162 
L 201.891241 211.222166 
L 204.301095 209.91737 
L 206.710949 209.358172 
L 209.120803 208.239776 
L 211.530657 206.189384 
L 213.940511 203.766193 
L 216.350365 202.461397 
L 218.760219 200.597404 
L 221.170073 199.106209 
L 223.579927 197.987813 
L 225.989781 195.191823 
L 228.399635 193.141431 
L 230.809489 191.836635 
L 233.219343 190.159041 
L 235.629197 188.295048 
L 238.039051 186.058256 
L 242.858759 182.703068 
L 245.268613 181.584672 
L 247.678467 181.025474 
L 250.088321 180.093478 
L 252.498175 179.53428 
L 254.908029 178.788682 
L 257.317883 177.297488 
L 259.727737 176.73829 
L 262.137591 175.247095 
L 264.547445 174.128699 
L 266.957299 173.196702 
L 269.367153 171.332709 
L 274.186861 166.859125 
L 276.596715 163.317538 
L 279.006569 161.267145 
L 281.416423 159.96235 
L 283.826277 156.979961 
L 288.645985 153.997571 
L 291.055839 151.387981 
L 293.465693 149.523987 
L 295.875547 147.846393 
L 298.285401 146.355199 
L 300.695255 143.745608 
L 303.105109 142.440813 
L 305.514964 140.204021 
L 307.924818 138.526427 
L 312.744526 132.934447 
L 315.15438 131.256853 
L 317.564234 130.324856 
L 319.974088 127.901665 
L 322.383942 125.851273 
L 329.613504 114.853712 
L 332.023358 109.634531 
L 334.433212 107.397739 
L 339.25292 101.805759 
L 341.662774 98.63697 
L 344.072628 95.654581 
L 346.482482 91.740195 
L 348.892336 90.249 
L 351.30219 88.571407 
L 353.712044 84.657021 
L 356.121898 81.488232 
L 358.531752 78.505843 
L 360.941606 76.082651 
L 363.35146 73.100262 
L 365.761314 69.558675 
L 368.171168 65.45789 
L 372.990876 61.729903 
L 375.40073 60.238708 
L 377.810584 56.697121 
L 380.220438 54.833128 
L 382.630292 51.664339 
L 385.040146 49.427547 
L 387.45 47.936353 
L 387.45 47.936353 
" clip-path="url(#pcae902464d)" style="fill: none; stroke: #1f77b4; stroke-width: 1.5; stroke-linecap: square"/>
   </g>
   <g id="line2d_26">
    <path d="M 57.3 236.758874 
L 59.709854 236.386075 
L 62.119708 236.199676 
L 86.218248 236.199676 
L 88.628102 236.013277 
L 93.44781 236.013277 
L 95.857664 235.826877 
L 98.267518 235.454079 
L 105.49708 235.454079 
L 107.906934 235.267679 
L 124.775912 235.267679 
L 127.185766 235.08128 
L 132.005474 234.335683 
L 136.825182 233.962884 
L 139.235036 233.590085 
L 141.644891 233.403686 
L 144.054745 233.403686 
L 146.464599 233.217287 
L 151.284307 233.217287 
L 153.694161 233.030887 
L 156.104015 232.658089 
L 160.923723 232.658089 
L 163.333577 232.471689 
L 165.743431 232.098891 
L 168.153285 232.098891 
L 170.563139 231.912491 
L 172.972993 231.912491 
L 175.382847 231.539693 
L 177.792701 231.353293 
L 180.202555 230.980495 
L 182.612409 230.794095 
L 185.022263 230.794095 
L 187.432117 230.607696 
L 189.841971 230.607696 
L 194.661679 230.234897 
L 197.071533 230.234897 
L 199.481387 229.862099 
L 206.710949 229.862099 
L 209.120803 229.675699 
L 216.350365 229.675699 
L 218.760219 229.302901 
L 221.170073 229.116501 
L 233.219343 229.116501 
L 238.039051 228.743703 
L 245.268613 228.743703 
L 247.678467 228.557303 
L 271.777007 228.557303 
L 276.596715 228.184505 
L 279.006569 227.811706 
L 281.416423 227.811706 
L 283.826277 227.625307 
L 288.645985 227.625307 
L 291.055839 227.438907 
L 293.465693 227.066109 
L 298.285401 227.066109 
L 300.695255 226.879709 
L 303.105109 226.879709 
L 305.514964 226.134112 
L 307.924818 225.761313 
L 312.744526 225.388515 
L 315.15438 225.388515 
L 317.564234 225.015716 
L 319.974088 224.456518 
L 322.383942 224.456518 
L 324.793796 224.270119 
L 327.20365 224.270119 
L 332.023358 223.89732 
L 336.843066 223.89732 
L 339.25292 223.710921 
L 341.662774 223.338122 
L 346.482482 222.965324 
L 348.892336 222.965324 
L 353.712044 222.219726 
L 356.121898 222.033327 
L 360.941606 222.033327 
L 363.35146 221.846928 
L 370.581022 221.846928 
L 372.990876 221.660528 
L 375.40073 221.10133 
L 377.810584 220.169334 
L 380.220438 219.796535 
L 382.630292 219.237337 
L 385.040146 219.050938 
L 385.040146 219.050938 
" clip-path="url(#pcae902464d)" style="fill: none; stroke: #006400; stroke-width: 1.5; stroke-linecap: square"/>
   </g>
   <g id="patch_3">
    <path d="M 57.3 246.2 
L 57.3 38.495226 
" style="fill: none; stroke: #000000; stroke-width: 0.8; stroke-linejoin: miter; stroke-linecap: square"/>
   </g>
   <g id="patch_4">
    <path d="M 387.45 246.2 
L 387.45 38.495226 
" style="fill: none; stroke: #000000; stroke-width: 0.8; stroke-linejoin: miter; stroke-linecap: square"/>
   </g>
   <g id="patch_5">
    <path d="M 57.3 246.2 
L 387.45 246.2 
" style="fill: none; stroke: #000000; stroke-width: 0.8; stroke-linejoin: miter; stroke-linecap: square"/>
   </g>
   <g id="patch_6">
    <path d="M 57.3 38.495226 
L 387.45 38.495226 
" style="fill: none; stroke: #000000; stroke-width: 0.8; stroke-linejoin: miter; stroke-linecap: square"/>
   </g>
   <g id="legend_1">
    <g id="patch_7">
     <path d="M 64.3 75.851476 
L 151.9 75.851476 
Q 153.9 75.851476 153.9 73.851476 
L 153.9 45.495226 
Q 153.9 43.495226 151.9 43.495226 
L 64.3 43.495226 
Q 62.3 43.495226 62.3 45.495226 
L 62.3 73.851476 
Q 62.3 75.851476 64.3 75.851476 
z
" style="fill: #ffffff; opacity: 0.8; stroke: #cccccc; stroke-linejoin: miter"/>
    </g>
    <g id="line2d_27">
     <path d="M 66.3 51.593664 
L 76.3 51.593664 
L 86.3 51.593664 
" style="fill: none; stroke: #1f77b4; stroke-width: 1.5; stroke-linecap: square"/>
    </g>
    <g id="text_15">
     <!-- contributor -->
     <g transform="translate(94.3 55.093664)scale(0.1 -0.1)">
      <defs>
       <path id="DejaVuSans-72" d="M 2631 2963 
Q 2534 3019 2420 3045 
Q 2306 3072 2169 3072 
Q 1681 3072 1420 2755 
Q 1159 2438 1159 1844 
L 1159 0 
L 581 0 
L 581 3500 
L 1159 3500 
L 1159 2956 
Q 1341 3275 1631 3429 
Q 1922 3584 2338 3584 
Q 2397 3584 2469 3576 
Q 2541 3569 2628 3553 
L 2631 2963 
z
" transform="scale(0.015625)"/>
       <path id="DejaVuSans-62" d="M 3116 1747 
Q 3116 2381 2855 2742 
Q 2594 3103 2138 3103 
Q 1681 3103 1420 2742 
Q 1159 2381 1159 1747 
Q 1159 1113 1420 752 
Q 1681 391 2138 391 
Q 2594 391 2855 752 
Q 3116 1113 3116 1747 
z
M 1159 2969 
Q 1341 3281 1617 3432 
Q 1894 3584 2278 3584 
Q 2916 3584 3314 3078 
Q 3713 2572 3713 1747 
Q 3713 922 3314 415 
Q 2916 -91 2278 -91 
Q 1894 -91 1617 61 
Q 1341 213 1159 525 
L 1159 0 
L 581 0 
L 581 4863 
L 1159 4863 
L 1159 2969 
z
" transform="scale(0.015625)"/>
      </defs>
      <use xlink:href="#DejaVuSans-63"/>
      <use xlink:href="#DejaVuSans-6f" x="54.980469"/>
      <use xlink:href="#DejaVuSans-6e" x="116.162109"/>
      <use xlink:href="#DejaVuSans-74" x="179.541016"/>
      <use xlink:href="#DejaVuSans-72" x="218.75"/>
      <use xlink:href="#DejaVuSans-69" x="259.863281"/>
      <use xlink:href="#DejaVuSans-62" x="287.646484"/>
      <use xlink:href="#DejaVuSans-75" x="351.123047"/>
      <use xlink:href="#DejaVuSans-74" x="414.501953"/>
      <use xlink:href="#DejaVuSans-6f" x="453.710938"/>
      <use xlink:href="#DejaVuSans-72" x="514.892578"/>
     </g>
    </g>
    <g id="line2d_28">
     <path d="M 66.3 66.271789 
L 76.3 66.271789 
L 86.3 66.271789 
" style="fill: none; stroke: #006400; stroke-width: 1.5; stroke-linecap: square"/>
    </g>
    <g id="text_16">
     <!-- committer -->
     <g transform="translate(94.3 69.771789)scale(0.1 -0.1)">
      <use xlink:href="#DejaVuSans-63"/>
      <use xlink:href="#DejaVuSans-6f" x="54.980469"/>
      <use xlink:href="#DejaVuSans-6d" x="116.162109"/>
      <use xlink:href="#DejaVuSans-6d" x="213.574219"/>
      <use xlink:href="#DejaVuSans-69" x="310.986328"/>
      <use xlink:href="#DejaVuSans-74" x="338.769531"/>
      <use xlink:href="#DejaVuSans-74" x="377.978516"/>
      <use xlink:href="#DejaVuSans-65" x="417.1875"/>
      <use xlink:href="#DejaVuSans-72" x="478.710938"/>
     </g>
    </g>
   </g>
  </g>
  <g id="axes_2">
   <g id="matplotlib.axis_3">
    <g id="ytick_7">
     <g id="line2d_29">
      <defs>
       <path id="m10b3f2bb55" d="M 0 0 
L 3.5 0 
" style="stroke: #000000; stroke-width: 0.8"/>
      </defs>
      <g>
       <use xlink:href="#m10b3f2bb55" x="387.45" y="218.744004" style="stroke: #000000; stroke-width: 0.8"/>
      </g>
     </g>
     <g id="text_17">
      <!-- 2 -->
      <g transform="translate(394.45 222.543223)scale(0.1 -0.1)">
       <use xlink:href="#DejaVuSans-32"/>
      </g>
     </g>
    </g>
    <g id="ytick_8">
     <g id="line2d_30">
      <g>
       <use xlink:href="#m10b3f2bb55" x="387.45" y="182.714265" style="stroke: #000000; stroke-width: 0.8"/>
      </g>
     </g>
     <g id="text_18">
      <!-- 4 -->
      <g transform="translate(394.45 186.513484)scale(0.1 -0.1)">
       <use xlink:href="#DejaVuSans-34"/>
      </g>
     </g>
    </g>
    <g id="ytick_9">
     <g id="line2d_31">
      <g>
       <use xlink:href="#m10b3f2bb55" x="387.45" y="146.684526" style="stroke: #000000; stroke-width: 0.8"/>
      </g>
     </g>
     <g id="text_19">
      <!-- 6 -->
      <g transform="translate(394.45 150.483745)scale(0.1 -0.1)">
       <use xlink:href="#DejaVuSans-36"/>
      </g>
     </g>
    </g>
    <g id="ytick_10">
     <g id="line2d_32">
      <g>
       <use xlink:href="#m10b3f2bb55" x="387.45" y="110.654787" style="stroke: #000000; stroke-width: 0.8"/>
      </g>
     </g>
     <g id="text_20">
      <!-- 8 -->
      <g transform="translate(394.45 114.454006)scale(0.1 -0.1)">
       <use xlink:href="#DejaVuSans-38"/>
      </g>
     </g>
    </g>
    <g id="ytick_11">
     <g id="line2d_33">
      <g>
       <use xlink:href="#m10b3f2bb55" x="387.45" y="74.625048" style="stroke: #000000; stroke-width: 0.8"/>
      </g>
     </g>
     <g id="text_21">
      <!-- 10 -->
      <g transform="translate(394.45 78.424267)scale(0.1 -0.1)">
       <use xlink:href="#DejaVuSans-31"/>
       <use xlink:href="#DejaVuSans-30" x="63.623047"/>
      </g>
     </g>
    </g>
    <g id="ytick_12">
     <g id="line2d_34">
      <g>
       <use xlink:href="#m10b3f2bb55" x="387.45" y="38.595309" style="stroke: #000000; stroke-width: 0.8"/>
      </g>
     </g>
     <g id="text_22">
      <!-- 12 -->
      <g transform="translate(394.45 42.394528)scale(0.1 -0.1)">
       <use xlink:href="#DejaVuSans-31"/>
       <use xlink:href="#DejaVuSans-32" x="63.623047"/>
      </g>
     </g>
    </g>
    <g id="text_23">
     <!-- ratio -->
     <g transform="translate(418.773438 153.875738)rotate(-90)scale(0.1 -0.1)">
      <use xlink:href="#DejaVuSans-72"/>
      <use xlink:href="#DejaVuSans-61" x="41.113281"/>
      <use xlink:href="#DejaVuSans-74" x="102.392578"/>
      <use xlink:href="#DejaVuSans-69" x="141.601562"/>
      <use xlink:href="#DejaVuSans-6f" x="169.384766"/>
     </g>
    </g>
   </g>
   <g id="line2d_35">
    <path d="M 59.709854 236.758874 
L 127.185766 236.758874 
L 129.59562 235.257635 
L 132.005474 235.472098 
L 136.825182 235.632945 
L 139.235036 234.757222 
L 141.644891 235.810723 
L 144.054745 234.862572 
L 146.464599 232.255157 
L 148.874453 230.45367 
L 151.284307 227.751439 
L 153.694161 224.748961 
L 156.104015 225.793301 
L 158.513869 224.226791 
L 160.923723 223.443536 
L 163.333577 217.242765 
L 165.743431 216.665366 
L 168.153285 214.586727 
L 170.563139 210.737396 
L 172.972993 208.735744 
L 175.382847 209.425968 
L 177.792701 209.73657 
L 180.202555 209.73657 
L 182.612409 210.009522 
L 185.022263 207.279997 
L 187.432117 206.027626 
L 189.841971 203.37838 
L 192.251825 200.214424 
L 197.071533 191.221287 
L 199.481387 191.7217 
L 201.891241 189.351323 
L 204.301095 186.032794 
L 206.710949 184.610567 
L 209.120803 183.638105 
L 211.530657 178.556988 
L 213.940511 172.552031 
L 216.350365 169.318593 
L 218.760219 169.093266 
L 221.170073 167.701874 
L 223.579927 165.128321 
L 225.989781 158.694439 
L 228.399635 153.976259 
L 230.809489 150.973781 
L 233.219343 147.113452 
L 235.629197 145.427675 
L 238.039051 142.999667 
L 242.858759 135.629947 
L 245.268613 133.173374 
L 247.678467 134.674613 
L 250.088321 132.672961 
L 252.498175 131.47197 
L 254.908029 129.870648 
L 257.317883 126.668005 
L 259.727737 125.467013 
L 262.137591 122.26437 
L 264.547445 119.862387 
L 266.957299 117.860735 
L 269.367153 113.857431 
L 271.777007 109.053465 
L 274.186861 107.521766 
L 276.596715 103.37218 
L 279.006569 105.507682 
L 283.826277 100.206163 
L 288.645985 94.441405 
L 291.055839 92.639918 
L 293.465693 95.359143 
L 295.875547 92.300014 
L 298.285401 89.580789 
L 300.695255 87.969396 
L 303.105109 85.634135 
L 305.514964 93.571721 
L 307.924818 96.242892 
L 312.744526 92.639918 
L 315.15438 90.024856 
L 319.974088 97.479733 
L 324.793796 91.580219 
L 327.20365 86.546653 
L 329.613504 83.763025 
L 332.023358 79.000088 
L 334.433212 75.911825 
L 336.843066 72.051495 
L 339.25292 70.81909 
L 341.662774 71.6637 
L 344.072628 70.243053 
L 346.482482 67.659299 
L 348.892336 65.737713 
L 351.30219 68.542105 
L 353.712044 68.468067 
L 356.121898 66.968729 
L 358.531752 63.365755 
L 360.941606 60.438338 
L 363.35146 59.279048 
L 365.761314 55.053338 
L 368.171168 50.160411 
L 370.581022 47.936353 
L 372.990876 48.261824 
L 375.40073 53.854963 
L 377.810584 61.213979 
L 380.220438 63.463662 
L 382.630292 66.281319 
L 385.040146 65.992923 
L 385.040146 65.992923 
" clip-path="url(#pcae902464d)" style="fill: none; stroke: #ff0000; stroke-width: 1.5; stroke-linecap: square"/>
   </g>
   <g id="patch_8">
    <path d="M 57.3 246.2 
L 57.3 38.495226 
" style="fill: none; stroke: #000000; stroke-width: 0.8; stroke-linejoin: miter; stroke-linecap: square"/>
   </g>
   <g id="patch_9">
    <path d="M 387.45 246.2 
L 387.45 38.495226 
" style="fill: none; stroke: #000000; stroke-width: 0.8; stroke-linejoin: miter; stroke-linecap: square"/>
   </g>
   <g id="patch_10">
    <path d="M 57.3 246.2 
L 387.45 246.2 
" style="fill: none; stroke: #000000; stroke-width: 0.8; stroke-linejoin: miter; stroke-linecap: square"/>
   </g>
   <g id="patch_11">
    <path d="M 57.3 38.495226 
L 387.45 38.495226 
" style="fill: none; stroke: #000000; stroke-width: 0.8; stroke-linejoin: miter; stroke-linecap: square"/>
   </g>
   <g id="legend_2">
    <g id="patch_12">
     <path d="M 231.14375 61.173351 
L 380.45 61.173351 
Q 382.45 61.173351 382.45 59.173351 
L 382.45 45.495226 
Q 382.45 43.495226 380.45 43.495226 
L 231.14375 43.495226 
Q 229.14375 43.495226 229.14375 45.495226 
L 229.14375 59.173351 
Q 229.14375 61.173351 231.14375 61.173351 
z
" style="fill: #ffffff; opacity: 0.8; stroke: #cccccc; stroke-linejoin: miter"/>
    </g>
    <g id="line2d_36">
     <path d="M 233.14375 51.593664 
L 243.14375 51.593664 
L 253.14375 51.593664 
" style="fill: none; stroke: #ff0000; stroke-width: 1.5; stroke-linecap: square"/>
    </g>
    <g id="text_24">
     <!-- contributor / committer -->
     <g transform="translate(261.14375 55.093664)scale(0.1 -0.1)">
      <defs>
       <path id="DejaVuSans-2f" d="M 1625 4666 
L 2156 4666 
L 531 -594 
L 0 -594 
L 1625 4666 
z
" transform="scale(0.015625)"/>
      </defs>
      <use xlink:href="#DejaVuSans-63"/>
      <use xlink:href="#DejaVuSans-6f" x="54.980469"/>
      <use xlink:href="#DejaVuSans-6e" x="116.162109"/>
      <use xlink:href="#DejaVuSans-74" x="179.541016"/>
      <use xlink:href="#DejaVuSans-72" x="218.75"/>
      <use xlink:href="#DejaVuSans-69" x="259.863281"/>
      <use xlink:href="#DejaVuSans-62" x="287.646484"/>
      <use xlink:href="#DejaVuSans-75" x="351.123047"/>
      <use xlink:href="#DejaVuSans-74" x="414.501953"/>
      <use xlink:href="#DejaVuSans-6f" x="453.710938"/>
      <use xlink:href="#DejaVuSans-72" x="514.892578"/>
      <use xlink:href="#DejaVuSans-20" x="556.005859"/>
      <use xlink:href="#DejaVuSans-2f" x="587.792969"/>
      <use xlink:href="#DejaVuSans-20" x="621.484375"/>
      <use xlink:href="#DejaVuSans-63" x="653.271484"/>
      <use xlink:href="#DejaVuSans-6f" x="708.251953"/>
      <use xlink:href="#DejaVuSans-6d" x="769.433594"/>
      <use xlink:href="#DejaVuSans-6d" x="866.845703"/>
      <use xlink:href="#DejaVuSans-69" x="964.257812"/>
      <use xlink:href="#DejaVuSans-74" x="992.041016"/>
      <use xlink:href="#DejaVuSans-74" x="1031.25"/>
      <use xlink:href="#DejaVuSans-65" x="1070.458984"/>
      <use xlink:href="#DejaVuSans-72" x="1131.982422"/>
     </g>
    </g>
   </g>
  </g>
  <g id="text_25">
   <!-- Contributor-to-committer ratio -->
   <g transform="translate(124.737188 14.878125)scale(0.12 -0.12)">
    <defs>
     <path id="DejaVuSans-43" d="M 4122 4306 
L 4122 3641 
Q 3803 3938 3442 4084 
Q 3081 4231 2675 4231 
Q 1875 4231 1450 3742 
Q 1025 3253 1025 2328 
Q 1025 1406 1450 917 
Q 1875 428 2675 428 
Q 3081 428 3442 575 
Q 3803 722 4122 1019 
L 4122 359 
Q 3791 134 3420 21 
Q 3050 -91 2638 -91 
Q 1578 -91 968 557 
Q 359 1206 359 2328 
Q 359 3453 968 4101 
Q 1578 4750 2638 4750 
Q 3056 4750 3426 4639 
Q 3797 4528 4122 4306 
z
" transform="scale(0.015625)"/>
     <path id="DejaVuSans-2d" d="M 313 2009 
L 1997 2009 
L 1997 1497 
L 313 1497 
L 313 2009 
z
" transform="scale(0.015625)"/>
    </defs>
    <use xlink:href="#DejaVuSans-43"/>
    <use xlink:href="#DejaVuSans-6f" x="69.824219"/>
    <use xlink:href="#DejaVuSans-6e" x="131.005859"/>
    <use xlink:href="#DejaVuSans-74" x="194.384766"/>
    <use xlink:href="#DejaVuSans-72" x="233.59375"/>
    <use xlink:href="#DejaVuSans-69" x="274.707031"/>
    <use xlink:href="#DejaVuSans-62" x="302.490234"/>
    <use xlink:href="#DejaVuSans-75" x="365.966797"/>
    <use xlink:href="#DejaVuSans-74" x="429.345703"/>
    <use xlink:href="#DejaVuSans-6f" x="468.554688"/>
    <use xlink:href="#DejaVuSans-72" x="529.736328"/>
    <use xlink:href="#DejaVuSans-2d" x="564.474609"/>
    <use xlink:href="#DejaVuSans-74" x="600.558594"/>
    <use xlink:href="#DejaVuSans-6f" x="639.767578"/>
    <use xlink:href="#DejaVuSans-2d" x="702.824219"/>
    <use xlink:href="#DejaVuSans-63" x="738.908203"/>
    <use xlink:href="#DejaVuSans-6f" x="793.888672"/>
    <use xlink:href="#DejaVuSans-6d" x="855.070312"/>
    <use xlink:href="#DejaVuSans-6d" x="952.482422"/>
    <use xlink:href="#DejaVuSans-69" x="1049.894531"/>
    <use xlink:href="#DejaVuSans-74" x="1077.677734"/>
    <use xlink:href="#DejaVuSans-74" x="1116.886719"/>
    <use xlink:href="#DejaVuSans-65" x="1156.095703"/>
    <use xlink:href="#DejaVuSans-72" x="1217.619141"/>
    <use xlink:href="#DejaVuSans-20" x="1258.732422"/>
    <use xlink:href="#DejaVuSans-72" x="1290.519531"/>
    <use xlink:href="#DejaVuSans-61" x="1331.632812"/>
    <use xlink:href="#DejaVuSans-74" x="1392.912109"/>
    <use xlink:href="#DejaVuSans-69" x="1432.121094"/>
    <use xlink:href="#DejaVuSans-6f" x="1459.904297"/>
   </g>
  </g>
 </g>
 <defs>
  <clipPath id="pcae902464d">
   <rect x="57.3" y="38.495226" width="330.15" height="207.704774"/>
  </clipPath>
 </defs>
</svg>
