<?xml version="1.0" encoding="utf-8" standalone="no"?>
<!DOCTYPE svg PUBLIC "-//W3C//DTD SVG 1.1//EN"
  "http://www.w3.org/Graphics/SVG/1.1/DTD/svg11.dtd">
<svg xmlns:xlink="http://www.w3.org/1999/xlink" width="576pt" height="576pt" viewBox="0 0 576 576" xmlns="http://www.w3.org/2000/svg" version="1.1">
 <metadata>
  <rdf:RDF xmlns:dc="http://purl.org/dc/elements/1.1/" xmlns:cc="http://creativecommons.org/ns#" xmlns:rdf="http://www.w3.org/1999/02/22-rdf-syntax-ns#">
   <cc:Work>
    <dc:type rdf:resource="http://purl.org/dc/dcmitype/StillImage"/>
    <dc:date>2022-06-02T17:34:47.632166</dc:date>
    <dc:format>image/svg+xml</dc:format>
    <dc:creator>
     <cc:Agent>
      <dc:title>Matplotlib v3.5.0, https://matplotlib.org/</dc:title>
     </cc:Agent>
    </dc:creator>
   </cc:Work>
  </rdf:RDF>
 </metadata>
 <defs>
  <style type="text/css">*{stroke-linejoin: round; stroke-linecap: butt}</style>
 </defs>
 <g id="figure_1">
  <g id="patch_1">
   <path d="M 0 576 
L 576 576 
L 576 0 
L 0 0 
z
" style="fill: #ffffff"/>
  </g>
  <g id="axes_1">
   <g id="patch_2">
    <path d="M 50.925 191.6 
L 565.2 191.6 
L 565.2 50.6 
L 50.925 50.6 
z
" style="fill: #ffffff"/>
   </g>
   <g id="matplotlib.axis_1">
    <g id="xtick_1">
     <g id="line2d_1">
      <path d="M 85.909694 191.6 
L 85.909694 50.6 
" clip-path="url(#p8050b7ccd7)" style="fill: none; stroke: #b0b0b0; stroke-width: 0.8; stroke-linecap: square"/>
     </g>
     <g id="line2d_2">
      <defs>
       <path id="m8e6ccbbfb0" d="M 0 0 
L 0 3.5 
" style="stroke: #000000; stroke-width: 0.8"/>
      </defs>
      <g>
       <use xlink:href="#m8e6ccbbfb0" x="85.909694" y="191.6" style="stroke: #000000; stroke-width: 0.8"/>
      </g>
     </g>
    </g>
    <g id="xtick_2">
     <g id="line2d_3">
      <path d="M 169.872959 191.6 
L 169.872959 50.6 
" clip-path="url(#p8050b7ccd7)" style="fill: none; stroke: #b0b0b0; stroke-width: 0.8; stroke-linecap: square"/>
     </g>
     <g id="line2d_4">
      <g>
       <use xlink:href="#m8e6ccbbfb0" x="169.872959" y="191.6" style="stroke: #000000; stroke-width: 0.8"/>
      </g>
     </g>
    </g>
    <g id="xtick_3">
     <g id="line2d_5">
      <path d="M 253.836224 191.6 
L 253.836224 50.6 
" clip-path="url(#p8050b7ccd7)" style="fill: none; stroke: #b0b0b0; stroke-width: 0.8; stroke-linecap: square"/>
     </g>
     <g id="line2d_6">
      <g>
       <use xlink:href="#m8e6ccbbfb0" x="253.836224" y="191.6" style="stroke: #000000; stroke-width: 0.8"/>
      </g>
     </g>
    </g>
    <g id="xtick_4">
     <g id="line2d_7">
      <path d="M 337.79949 191.6 
L 337.79949 50.6 
" clip-path="url(#p8050b7ccd7)" style="fill: none; stroke: #b0b0b0; stroke-width: 0.8; stroke-linecap: square"/>
     </g>
     <g id="line2d_8">
      <g>
       <use xlink:href="#m8e6ccbbfb0" x="337.79949" y="191.6" style="stroke: #000000; stroke-width: 0.8"/>
      </g>
     </g>
    </g>
    <g id="xtick_5">
     <g id="line2d_9">
      <path d="M 421.762755 191.6 
L 421.762755 50.6 
" clip-path="url(#p8050b7ccd7)" style="fill: none; stroke: #b0b0b0; stroke-width: 0.8; stroke-linecap: square"/>
     </g>
     <g id="line2d_10">
      <g>
       <use xlink:href="#m8e6ccbbfb0" x="421.762755" y="191.6" style="stroke: #000000; stroke-width: 0.8"/>
      </g>
     </g>
    </g>
    <g id="xtick_6">
     <g id="line2d_11">
      <path d="M 505.72602 191.6 
L 505.72602 50.6 
" clip-path="url(#p8050b7ccd7)" style="fill: none; stroke: #b0b0b0; stroke-width: 0.8; stroke-linecap: square"/>
     </g>
     <g id="line2d_12">
      <g>
       <use xlink:href="#m8e6ccbbfb0" x="505.72602" y="191.6" style="stroke: #000000; stroke-width: 0.8"/>
      </g>
     </g>
    </g>
    <g id="xtick_7">
     <g id="line2d_13">
      <path d="M 127.891327 191.6 
L 127.891327 50.6 
" clip-path="url(#p8050b7ccd7)" style="fill: none; stroke: #b0b0b0; stroke-width: 0.8; stroke-linecap: square"/>
     </g>
     <g id="line2d_14">
      <defs>
       <path id="mfa164fce9e" d="M 0 0 
L 0 2 
" style="stroke: #000000; stroke-width: 0.6"/>
      </defs>
      <g>
       <use xlink:href="#mfa164fce9e" x="127.891327" y="191.6" style="stroke: #000000; stroke-width: 0.6"/>
      </g>
     </g>
    </g>
    <g id="xtick_8">
     <g id="line2d_15">
      <path d="M 211.854592 191.6 
L 211.854592 50.6 
" clip-path="url(#p8050b7ccd7)" style="fill: none; stroke: #b0b0b0; stroke-width: 0.8; stroke-linecap: square"/>
     </g>
     <g id="line2d_16">
      <g>
       <use xlink:href="#mfa164fce9e" x="211.854592" y="191.6" style="stroke: #000000; stroke-width: 0.6"/>
      </g>
     </g>
    </g>
    <g id="xtick_9">
     <g id="line2d_17">
      <path d="M 295.817857 191.6 
L 295.817857 50.6 
" clip-path="url(#p8050b7ccd7)" style="fill: none; stroke: #b0b0b0; stroke-width: 0.8; stroke-linecap: square"/>
     </g>
     <g id="line2d_18">
      <g>
       <use xlink:href="#mfa164fce9e" x="295.817857" y="191.6" style="stroke: #000000; stroke-width: 0.6"/>
      </g>
     </g>
    </g>
    <g id="xtick_10">
     <g id="line2d_19">
      <path d="M 379.781122 191.6 
L 379.781122 50.6 
" clip-path="url(#p8050b7ccd7)" style="fill: none; stroke: #b0b0b0; stroke-width: 0.8; stroke-linecap: square"/>
     </g>
     <g id="line2d_20">
      <g>
       <use xlink:href="#mfa164fce9e" x="379.781122" y="191.6" style="stroke: #000000; stroke-width: 0.6"/>
      </g>
     </g>
    </g>
    <g id="xtick_11">
     <g id="line2d_21">
      <path d="M 463.744388 191.6 
L 463.744388 50.6 
" clip-path="url(#p8050b7ccd7)" style="fill: none; stroke: #b0b0b0; stroke-width: 0.8; stroke-linecap: square"/>
     </g>
     <g id="line2d_22">
      <g>
       <use xlink:href="#mfa164fce9e" x="463.744388" y="191.6" style="stroke: #000000; stroke-width: 0.6"/>
      </g>
     </g>
    </g>
    <g id="xtick_12">
     <g id="line2d_23">
      <path d="M 547.707653 191.6 
L 547.707653 50.6 
" clip-path="url(#p8050b7ccd7)" style="fill: none; stroke: #b0b0b0; stroke-width: 0.8; stroke-linecap: square"/>
     </g>
     <g id="line2d_24">
      <g>
       <use xlink:href="#mfa164fce9e" x="547.707653" y="191.6" style="stroke: #000000; stroke-width: 0.6"/>
      </g>
     </g>
    </g>
   </g>
   <g id="matplotlib.axis_2">
    <g id="ytick_1">
     <g id="line2d_25">
      <path d="M 50.925 185.190909 
L 565.2 185.190909 
" clip-path="url(#p8050b7ccd7)" style="fill: none; stroke: #b0b0b0; stroke-width: 0.8; stroke-linecap: square"/>
     </g>
     <g id="line2d_26">
      <defs>
       <path id="mbca94563bd" d="M 0 0 
L -3.5 0 
" style="stroke: #000000; stroke-width: 0.8"/>
      </defs>
      <g>
       <use xlink:href="#mbca94563bd" x="50.925" y="185.190909" style="stroke: #000000; stroke-width: 0.8"/>
      </g>
     </g>
     <g id="text_1">
      <!-- 0 -->
      <g transform="translate(37.5625 188.990128)scale(0.1 -0.1)">
       <defs>
        <path id="DejaVuSans-30" d="M 2034 4250 
Q 1547 4250 1301 3770 
Q 1056 3291 1056 2328 
Q 1056 1369 1301 889 
Q 1547 409 2034 409 
Q 2525 409 2770 889 
Q 3016 1369 3016 2328 
Q 3016 3291 2770 3770 
Q 2525 4250 2034 4250 
z
M 2034 4750 
Q 2819 4750 3233 4129 
Q 3647 3509 3647 2328 
Q 3647 1150 3233 529 
Q 2819 -91 2034 -91 
Q 1250 -91 836 529 
Q 422 1150 422 2328 
Q 422 3509 836 4129 
Q 1250 4750 2034 4750 
z
" transform="scale(0.015625)"/>
       </defs>
       <use xlink:href="#DejaVuSans-30"/>
      </g>
     </g>
    </g>
    <g id="ytick_2">
     <g id="line2d_27">
      <path d="M 50.925 145.75035 
L 565.2 145.75035 
" clip-path="url(#p8050b7ccd7)" style="fill: none; stroke: #b0b0b0; stroke-width: 0.8; stroke-linecap: square"/>
     </g>
     <g id="line2d_28">
      <g>
       <use xlink:href="#mbca94563bd" x="50.925" y="145.75035" style="stroke: #000000; stroke-width: 0.8"/>
      </g>
     </g>
     <g id="text_2">
      <!-- 10 -->
      <g transform="translate(31.2 149.549568)scale(0.1 -0.1)">
       <defs>
        <path id="DejaVuSans-31" d="M 794 531 
L 1825 531 
L 1825 4091 
L 703 3866 
L 703 4441 
L 1819 4666 
L 2450 4666 
L 2450 531 
L 3481 531 
L 3481 0 
L 794 0 
L 794 531 
z
" transform="scale(0.015625)"/>
       </defs>
       <use xlink:href="#DejaVuSans-31"/>
       <use xlink:href="#DejaVuSans-30" x="63.623047"/>
      </g>
     </g>
    </g>
    <g id="ytick_3">
     <g id="line2d_29">
      <path d="M 50.925 106.30979 
L 565.2 106.30979 
" clip-path="url(#p8050b7ccd7)" style="fill: none; stroke: #b0b0b0; stroke-width: 0.8; stroke-linecap: square"/>
     </g>
     <g id="line2d_30">
      <g>
       <use xlink:href="#mbca94563bd" x="50.925" y="106.30979" style="stroke: #000000; stroke-width: 0.8"/>
      </g>
     </g>
     <g id="text_3">
      <!-- 20 -->
      <g transform="translate(31.2 110.109009)scale(0.1 -0.1)">
       <defs>
        <path id="DejaVuSans-32" d="M 1228 531 
L 3431 531 
L 3431 0 
L 469 0 
L 469 531 
Q 828 903 1448 1529 
Q 2069 2156 2228 2338 
Q 2531 2678 2651 2914 
Q 2772 3150 2772 3378 
Q 2772 3750 2511 3984 
Q 2250 4219 1831 4219 
Q 1534 4219 1204 4116 
Q 875 4013 500 3803 
L 500 4441 
Q 881 4594 1212 4672 
Q 1544 4750 1819 4750 
Q 2544 4750 2975 4387 
Q 3406 4025 3406 3419 
Q 3406 3131 3298 2873 
Q 3191 2616 2906 2266 
Q 2828 2175 2409 1742 
Q 1991 1309 1228 531 
z
" transform="scale(0.015625)"/>
       </defs>
       <use xlink:href="#DejaVuSans-32"/>
       <use xlink:href="#DejaVuSans-30" x="63.623047"/>
      </g>
     </g>
    </g>
    <g id="ytick_4">
     <g id="line2d_31">
      <path d="M 50.925 66.869231 
L 565.2 66.869231 
" clip-path="url(#p8050b7ccd7)" style="fill: none; stroke: #b0b0b0; stroke-width: 0.8; stroke-linecap: square"/>
     </g>
     <g id="line2d_32">
      <g>
       <use xlink:href="#mbca94563bd" x="50.925" y="66.869231" style="stroke: #000000; stroke-width: 0.8"/>
      </g>
     </g>
     <g id="text_4">
      <!-- 30 -->
      <g transform="translate(31.2 70.66845)scale(0.1 -0.1)">
       <defs>
        <path id="DejaVuSans-33" d="M 2597 2516 
Q 3050 2419 3304 2112 
Q 3559 1806 3559 1356 
Q 3559 666 3084 287 
Q 2609 -91 1734 -91 
Q 1441 -91 1130 -33 
Q 819 25 488 141 
L 488 750 
Q 750 597 1062 519 
Q 1375 441 1716 441 
Q 2309 441 2620 675 
Q 2931 909 2931 1356 
Q 2931 1769 2642 2001 
Q 2353 2234 1838 2234 
L 1294 2234 
L 1294 2753 
L 1863 2753 
Q 2328 2753 2575 2939 
Q 2822 3125 2822 3475 
Q 2822 3834 2567 4026 
Q 2313 4219 1838 4219 
Q 1578 4219 1281 4162 
Q 984 4106 628 3988 
L 628 4550 
Q 988 4650 1302 4700 
Q 1616 4750 1894 4750 
Q 2613 4750 3031 4423 
Q 3450 4097 3450 3541 
Q 3450 3153 3228 2886 
Q 3006 2619 2597 2516 
z
" transform="scale(0.015625)"/>
       </defs>
       <use xlink:href="#DejaVuSans-33"/>
       <use xlink:href="#DejaVuSans-30" x="63.623047"/>
      </g>
     </g>
    </g>
    <g id="text_5">
     <!-- #contributors -->
     <g transform="translate(25.120313 155.694531)rotate(-90)scale(0.1 -0.1)">
      <defs>
       <path id="DejaVuSans-23" d="M 3272 2816 
L 2363 2816 
L 2100 1772 
L 3016 1772 
L 3272 2816 
z
M 2803 4594 
L 2478 3297 
L 3391 3297 
L 3719 4594 
L 4219 4594 
L 3897 3297 
L 4872 3297 
L 4872 2816 
L 3775 2816 
L 3519 1772 
L 4513 1772 
L 4513 1294 
L 3397 1294 
L 3072 0 
L 2572 0 
L 2894 1294 
L 1978 1294 
L 1656 0 
L 1153 0 
L 1478 1294 
L 494 1294 
L 494 1772 
L 1594 1772 
L 1856 2816 
L 850 2816 
L 850 3297 
L 1978 3297 
L 2297 4594 
L 2803 4594 
z
" transform="scale(0.015625)"/>
       <path id="DejaVuSans-63" d="M 3122 3366 
L 3122 2828 
Q 2878 2963 2633 3030 
Q 2388 3097 2138 3097 
Q 1578 3097 1268 2742 
Q 959 2388 959 1747 
Q 959 1106 1268 751 
Q 1578 397 2138 397 
Q 2388 397 2633 464 
Q 2878 531 3122 666 
L 3122 134 
Q 2881 22 2623 -34 
Q 2366 -91 2075 -91 
Q 1284 -91 818 406 
Q 353 903 353 1747 
Q 353 2603 823 3093 
Q 1294 3584 2113 3584 
Q 2378 3584 2631 3529 
Q 2884 3475 3122 3366 
z
" transform="scale(0.015625)"/>
       <path id="DejaVuSans-6f" d="M 1959 3097 
Q 1497 3097 1228 2736 
Q 959 2375 959 1747 
Q 959 1119 1226 758 
Q 1494 397 1959 397 
Q 2419 397 2687 759 
Q 2956 1122 2956 1747 
Q 2956 2369 2687 2733 
Q 2419 3097 1959 3097 
z
M 1959 3584 
Q 2709 3584 3137 3096 
Q 3566 2609 3566 1747 
Q 3566 888 3137 398 
Q 2709 -91 1959 -91 
Q 1206 -91 779 398 
Q 353 888 353 1747 
Q 353 2609 779 3096 
Q 1206 3584 1959 3584 
z
" transform="scale(0.015625)"/>
       <path id="DejaVuSans-6e" d="M 3513 2113 
L 3513 0 
L 2938 0 
L 2938 2094 
Q 2938 2591 2744 2837 
Q 2550 3084 2163 3084 
Q 1697 3084 1428 2787 
Q 1159 2491 1159 1978 
L 1159 0 
L 581 0 
L 581 3500 
L 1159 3500 
L 1159 2956 
Q 1366 3272 1645 3428 
Q 1925 3584 2291 3584 
Q 2894 3584 3203 3211 
Q 3513 2838 3513 2113 
z
" transform="scale(0.015625)"/>
       <path id="DejaVuSans-74" d="M 1172 4494 
L 1172 3500 
L 2356 3500 
L 2356 3053 
L 1172 3053 
L 1172 1153 
Q 1172 725 1289 603 
Q 1406 481 1766 481 
L 2356 481 
L 2356 0 
L 1766 0 
Q 1100 0 847 248 
Q 594 497 594 1153 
L 594 3053 
L 172 3053 
L 172 3500 
L 594 3500 
L 594 4494 
L 1172 4494 
z
" transform="scale(0.015625)"/>
       <path id="DejaVuSans-72" d="M 2631 2963 
Q 2534 3019 2420 3045 
Q 2306 3072 2169 3072 
Q 1681 3072 1420 2755 
Q 1159 2438 1159 1844 
L 1159 0 
L 581 0 
L 581 3500 
L 1159 3500 
L 1159 2956 
Q 1341 3275 1631 3429 
Q 1922 3584 2338 3584 
Q 2397 3584 2469 3576 
Q 2541 3569 2628 3553 
L 2631 2963 
z
" transform="scale(0.015625)"/>
       <path id="DejaVuSans-69" d="M 603 3500 
L 1178 3500 
L 1178 0 
L 603 0 
L 603 3500 
z
M 603 4863 
L 1178 4863 
L 1178 4134 
L 603 4134 
L 603 4863 
z
" transform="scale(0.015625)"/>
       <path id="DejaVuSans-62" d="M 3116 1747 
Q 3116 2381 2855 2742 
Q 2594 3103 2138 3103 
Q 1681 3103 1420 2742 
Q 1159 2381 1159 1747 
Q 1159 1113 1420 752 
Q 1681 391 2138 391 
Q 2594 391 2855 752 
Q 3116 1113 3116 1747 
z
M 1159 2969 
Q 1341 3281 1617 3432 
Q 1894 3584 2278 3584 
Q 2916 3584 3314 3078 
Q 3713 2572 3713 1747 
Q 3713 922 3314 415 
Q 2916 -91 2278 -91 
Q 1894 -91 1617 61 
Q 1341 213 1159 525 
L 1159 0 
L 581 0 
L 581 4863 
L 1159 4863 
L 1159 2969 
z
" transform="scale(0.015625)"/>
       <path id="DejaVuSans-75" d="M 544 1381 
L 544 3500 
L 1119 3500 
L 1119 1403 
Q 1119 906 1312 657 
Q 1506 409 1894 409 
Q 2359 409 2629 706 
Q 2900 1003 2900 1516 
L 2900 3500 
L 3475 3500 
L 3475 0 
L 2900 0 
L 2900 538 
Q 2691 219 2414 64 
Q 2138 -91 1772 -91 
Q 1169 -91 856 284 
Q 544 659 544 1381 
z
M 1991 3584 
L 1991 3584 
z
" transform="scale(0.015625)"/>
       <path id="DejaVuSans-73" d="M 2834 3397 
L 2834 2853 
Q 2591 2978 2328 3040 
Q 2066 3103 1784 3103 
Q 1356 3103 1142 2972 
Q 928 2841 928 2578 
Q 928 2378 1081 2264 
Q 1234 2150 1697 2047 
L 1894 2003 
Q 2506 1872 2764 1633 
Q 3022 1394 3022 966 
Q 3022 478 2636 193 
Q 2250 -91 1575 -91 
Q 1294 -91 989 -36 
Q 684 19 347 128 
L 347 722 
Q 666 556 975 473 
Q 1284 391 1588 391 
Q 1994 391 2212 530 
Q 2431 669 2431 922 
Q 2431 1156 2273 1281 
Q 2116 1406 1581 1522 
L 1381 1569 
Q 847 1681 609 1914 
Q 372 2147 372 2553 
Q 372 3047 722 3315 
Q 1072 3584 1716 3584 
Q 2034 3584 2315 3537 
Q 2597 3491 2834 3397 
z
" transform="scale(0.015625)"/>
      </defs>
      <use xlink:href="#DejaVuSans-23"/>
      <use xlink:href="#DejaVuSans-63" x="83.789062"/>
      <use xlink:href="#DejaVuSans-6f" x="138.769531"/>
      <use xlink:href="#DejaVuSans-6e" x="199.951172"/>
      <use xlink:href="#DejaVuSans-74" x="263.330078"/>
      <use xlink:href="#DejaVuSans-72" x="302.539062"/>
      <use xlink:href="#DejaVuSans-69" x="343.652344"/>
      <use xlink:href="#DejaVuSans-62" x="371.435547"/>
      <use xlink:href="#DejaVuSans-75" x="434.912109"/>
      <use xlink:href="#DejaVuSans-74" x="498.291016"/>
      <use xlink:href="#DejaVuSans-6f" x="537.5"/>
      <use xlink:href="#DejaVuSans-72" x="598.681641"/>
      <use xlink:href="#DejaVuSans-73" x="639.794922"/>
     </g>
    </g>
   </g>
   <g id="line2d_33">
    <path d="M 99.903571 182.561538 
L 103.402041 183.218881 
L 106.90051 184.533566 
L 110.39898 185.190909 
L 124.392857 185.190909 
L 127.891327 184.533566 
L 134.888265 184.533566 
L 138.386735 183.876224 
L 141.885204 182.561538 
L 145.383673 182.561538 
L 148.882143 183.218881 
L 152.380612 183.218881 
L 155.879082 182.561538 
L 159.377551 183.218881 
L 162.87602 184.533566 
L 173.371429 184.533566 
L 176.869898 185.190909 
L 180.368367 185.190909 
L 183.866837 184.533566 
L 187.365306 182.561538 
L 190.863776 181.246853 
L 197.860714 179.932168 
L 201.359184 177.96014 
L 204.857653 178.617483 
L 208.356122 179.932168 
L 211.854592 178.617483 
L 215.353061 177.96014 
L 222.35 175.330769 
L 225.848469 173.358741 
L 229.346939 173.358741 
L 232.845408 175.330769 
L 236.343878 170.072028 
L 239.842347 168.757343 
L 243.340816 170.072028 
L 246.839286 166.127972 
L 250.337755 165.470629 
L 253.836224 163.498601 
L 257.334694 168.757343 
L 260.833163 168.757343 
L 264.331633 169.414685 
L 267.830102 171.386713 
L 271.328571 169.414685 
L 274.827041 168.757343 
L 278.32551 164.155944 
L 281.82398 160.211888 
L 285.322449 155.61049 
L 292.319388 155.61049 
L 295.817857 152.981119 
L 299.316327 157.582517 
L 302.814796 161.526573 
L 306.313265 160.211888 
L 309.811735 154.953147 
L 313.310204 153.638462 
L 316.808673 152.981119 
L 320.307143 149.694406 
L 323.805612 148.37972 
L 327.304082 145.093007 
L 330.802551 146.407692 
L 334.30102 148.37972 
L 337.79949 149.037063 
L 341.297959 147.065035 
L 344.796429 143.120979 
L 348.294898 147.722378 
L 351.793367 149.694406 
L 355.291837 147.722378 
L 358.790306 151.666434 
L 362.288776 154.953147 
L 365.787245 161.526573 
L 369.285714 165.470629 
L 372.784184 166.785315 
L 376.282653 169.414685 
L 379.781122 165.470629 
L 383.279592 164.813287 
L 386.778061 162.841259 
L 390.276531 158.23986 
L 393.775 154.295804 
L 400.771939 142.463636 
L 404.270408 139.834266 
L 407.768878 138.51958 
L 411.267347 135.232867 
L 414.765816 138.51958 
L 418.264286 140.491608 
L 421.762755 143.778322 
L 425.261224 143.778322 
L 428.759694 143.120979 
L 432.258163 146.407692 
L 435.756633 141.806294 
L 439.255102 142.463636 
L 442.753571 143.778322 
L 446.252041 145.75035 
L 449.75051 141.806294 
L 453.24898 138.51958 
L 456.747449 142.463636 
L 460.245918 144.435664 
L 463.744388 143.778322 
L 474.239796 135.89021 
L 477.738265 128.659441 
L 481.236735 113.540559 
L 484.735204 113.540559 
L 488.233673 110.911189 
L 491.732143 113.540559 
L 495.230612 114.855245 
L 498.729082 117.484615 
L 502.227551 122.086014 
L 505.72602 124.715385 
L 509.22449 128.659441 
L 512.722959 124.715385 
L 519.719898 123.400699 
L 523.218367 128.659441 
L 526.716837 124.715385 
L 530.215306 117.484615 
L 533.713776 117.484615 
L 537.212245 122.743357 
L 540.710714 126.687413 
L 544.209184 129.974126 
L 547.707653 126.03007 
L 551.206122 133.260839 
L 554.704592 136.547552 
L 558.203061 134.575524 
L 561.701531 137.204895 
L 561.701531 137.204895 
" clip-path="url(#p8050b7ccd7)" style="fill: none; stroke: #1f77b4; stroke-width: 1.5; stroke-linecap: square"/>
   </g>
   <g id="line2d_34">
    <path d="M 68.417347 184.533566 
L 71.915816 185.190909 
L 89.408163 185.190909 
L 96.405102 183.876224 
L 103.402041 181.246853 
L 110.39898 181.246853 
L 124.392857 183.876224 
L 127.891327 183.218881 
L 134.888265 180.58951 
L 138.386735 180.58951 
L 141.885204 181.246853 
L 145.383673 181.246853 
L 148.882143 179.932168 
L 155.879082 179.932168 
L 159.377551 178.617483 
L 162.87602 177.96014 
L 166.37449 177.96014 
L 169.872959 173.358741 
L 173.371429 174.673427 
L 176.869898 170.729371 
L 187.365306 166.785315 
L 190.863776 166.785315 
L 194.362245 160.869231 
L 197.860714 162.183916 
L 201.359184 156.925175 
L 204.857653 153.638462 
L 208.356122 149.037063 
L 211.854592 145.093007 
L 215.353061 143.120979 
L 218.851531 139.176923 
L 222.35 138.51958 
L 225.848469 132.603497 
L 229.346939 122.743357 
L 232.845408 112.225874 
L 236.343878 99.079021 
L 239.842347 91.190909 
L 243.340816 86.58951 
L 246.839286 83.302797 
L 250.337755 87.246853 
L 253.836224 97.106993 
L 257.334694 92.505594 
L 260.833163 93.162937 
L 264.331633 85.274825 
L 271.328571 72.127972 
L 274.827041 60.295804 
L 278.32551 66.869231 
L 281.82398 65.554545 
L 285.322449 60.295804 
L 288.820918 57.009091 
L 292.319388 64.23986 
L 295.817857 70.155944 
L 299.316327 70.155944 
L 302.814796 75.414685 
L 306.313265 87.904196 
L 309.811735 96.44965 
L 313.310204 97.106993 
L 320.307143 108.939161 
L 323.805612 110.253846 
L 327.304082 114.197902 
L 330.802551 122.743357 
L 334.30102 128.659441 
L 337.79949 135.89021 
L 341.297959 139.176923 
L 344.796429 138.51958 
L 348.294898 136.547552 
L 351.793367 132.603497 
L 355.291837 129.974126 
L 358.790306 120.771329 
L 362.288776 117.484615 
L 365.787245 122.086014 
L 369.285714 124.058042 
L 372.784184 128.002098 
L 376.282653 128.002098 
L 379.781122 129.974126 
L 383.279592 139.834266 
L 386.778061 135.89021 
L 390.276531 139.834266 
L 393.775 137.862238 
L 397.273469 134.575524 
L 400.771939 135.232867 
L 404.270408 126.687413 
L 407.768878 131.946154 
L 411.267347 129.974126 
L 414.765816 128.659441 
L 418.264286 133.260839 
L 421.762755 135.89021 
L 425.261224 137.862238 
L 428.759694 131.288811 
L 432.258163 132.603497 
L 439.255102 131.288811 
L 442.753571 132.603497 
L 446.252041 133.260839 
L 449.75051 131.946154 
L 453.24898 127.344755 
L 456.747449 131.946154 
L 460.245918 133.260839 
L 463.744388 132.603497 
L 467.242857 133.918182 
L 470.741327 141.148951 
L 474.239796 145.75035 
L 477.738265 145.093007 
L 481.236735 149.037063 
L 484.735204 143.778322 
L 488.233673 141.806294 
L 491.732143 140.491608 
L 495.230612 136.547552 
L 498.729082 134.575524 
L 502.227551 130.631469 
L 505.72602 135.232867 
L 509.22449 138.51958 
L 512.722959 135.232867 
L 516.221429 137.204895 
L 519.719898 138.51958 
L 523.218367 131.946154 
L 526.716837 130.631469 
L 530.215306 130.631469 
L 533.713776 132.603497 
L 537.212245 131.288811 
L 540.710714 131.946154 
L 544.209184 133.918182 
L 547.707653 139.176923 
L 551.206122 133.918182 
L 554.704592 132.603497 
L 558.203061 141.148951 
L 558.203061 141.148951 
" clip-path="url(#p8050b7ccd7)" style="fill: none; stroke: #ff7f0e; stroke-width: 1.5; stroke-linecap: square"/>
   </g>
   <g id="line2d_35">
    <path d="M 267.830102 154.295804 
L 271.328571 160.211888 
L 274.827041 163.498601 
L 278.32551 166.785315 
L 281.82398 171.386713 
L 285.322449 170.729371 
L 288.820918 174.673427 
L 292.319388 174.673427 
L 295.817857 172.701399 
L 299.316327 171.386713 
L 302.814796 164.813287 
L 306.313265 167.442657 
L 309.811735 167.442657 
L 313.310204 160.869231 
L 316.808673 162.183916 
L 320.307143 160.869231 
L 323.805612 165.470629 
L 327.304082 160.211888 
L 330.802551 158.23986 
L 334.30102 161.526573 
L 337.79949 158.23986 
L 341.297959 158.23986 
L 344.796429 152.323776 
L 348.294898 151.666434 
L 351.793367 147.722378 
L 355.291837 150.351748 
L 358.790306 152.981119 
L 362.288776 154.295804 
L 365.787245 154.295804 
L 369.285714 158.23986 
L 372.784184 156.925175 
L 376.282653 153.638462 
L 379.781122 148.37972 
L 383.279592 146.407692 
L 386.778061 151.666434 
L 390.276531 149.694406 
L 393.775 151.009091 
L 397.273469 149.694406 
L 400.771939 150.351748 
L 404.270408 146.407692 
L 407.768878 138.51958 
L 411.267347 124.715385 
L 414.765816 124.058042 
L 418.264286 128.659441 
L 421.762755 129.974126 
L 425.261224 133.918182 
L 428.759694 139.176923 
L 432.258163 149.694406 
L 435.756633 147.722378 
L 439.255102 137.862238 
L 442.753571 136.547552 
L 446.252041 132.603497 
L 449.75051 124.058042 
L 453.24898 126.03007 
L 456.747449 123.400699 
L 460.245918 128.002098 
L 463.744388 129.974126 
L 467.242857 132.603497 
L 470.741327 141.148951 
L 474.239796 138.51958 
L 477.738265 141.806294 
L 481.236735 131.288811 
L 484.735204 127.344755 
L 488.233673 124.715385 
L 491.732143 120.113986 
L 495.230612 124.058042 
L 498.729082 121.428671 
L 502.227551 128.002098 
L 505.72602 129.974126 
L 509.22449 135.232867 
L 512.722959 137.862238 
L 516.221429 133.918182 
L 519.719898 139.834266 
L 523.218367 140.491608 
L 526.716837 141.806294 
L 530.215306 137.204895 
L 533.713776 136.547552 
L 537.212245 137.862238 
L 540.710714 135.232867 
L 544.209184 137.862238 
L 547.707653 136.547552 
L 551.206122 139.834266 
L 554.704592 139.176923 
L 558.203061 145.093007 
" clip-path="url(#p8050b7ccd7)" style="fill: none; stroke: #2ca02c; stroke-width: 1.5; stroke-linecap: square"/>
   </g>
   <g id="line2d_36">
    <path d="M 127.891327 183.876224 
L 131.389796 184.533566 
L 138.386735 184.533566 
L 141.885204 185.190909 
L 159.377551 185.190909 
L 162.87602 184.533566 
L 166.37449 182.561538 
L 169.872959 179.932168 
L 173.371429 179.274825 
L 176.869898 179.274825 
L 180.368367 177.96014 
L 183.866837 177.96014 
L 187.365306 179.274825 
L 190.863776 181.904196 
L 194.362245 181.904196 
L 197.860714 179.932168 
L 201.359184 178.617483 
L 204.857653 178.617483 
L 208.356122 179.274825 
L 211.854592 176.645455 
L 215.353061 174.673427 
L 218.851531 174.673427 
L 222.35 175.988112 
L 225.848469 175.988112 
L 232.845408 173.358741 
L 236.343878 174.673427 
L 239.842347 173.358741 
L 243.340816 171.386713 
L 246.839286 170.729371 
L 250.337755 168.757343 
L 253.836224 170.729371 
L 257.334694 169.414685 
L 260.833163 172.044056 
L 264.331633 166.127972 
L 267.830102 166.127972 
L 271.328571 165.470629 
L 274.827041 165.470629 
L 278.32551 164.813287 
L 281.82398 164.813287 
L 285.322449 170.729371 
L 288.820918 168.757343 
L 292.319388 166.127972 
L 295.817857 160.211888 
L 299.316327 158.897203 
L 302.814796 153.638462 
L 306.313265 149.694406 
L 309.811735 143.778322 
L 313.310204 145.093007 
L 316.808673 145.75035 
L 320.307143 143.120979 
L 327.304082 145.75035 
L 330.802551 149.694406 
L 334.30102 148.37972 
L 337.79949 148.37972 
L 341.297959 147.722378 
L 344.796429 148.37972 
L 348.294898 149.694406 
L 351.793367 147.722378 
L 355.291837 149.037063 
L 358.790306 151.009091 
L 362.288776 154.295804 
L 365.787245 153.638462 
L 369.285714 153.638462 
L 372.784184 155.61049 
L 376.282653 158.897203 
L 383.279592 139.176923 
L 386.778061 135.89021 
L 390.276531 135.232867 
L 393.775 131.288811 
L 397.273469 128.002098 
L 400.771939 139.834266 
L 404.270408 145.75035 
L 407.768878 149.037063 
L 411.267347 145.093007 
L 414.765816 149.037063 
L 418.264286 149.037063 
L 421.762755 145.75035 
L 425.261224 149.694406 
L 428.759694 147.065035 
L 432.258163 150.351748 
L 435.756633 148.37972 
L 439.255102 147.065035 
L 442.753571 147.065035 
L 446.252041 148.37972 
L 449.75051 150.351748 
L 453.24898 150.351748 
L 456.747449 152.981119 
L 460.245918 153.638462 
L 463.744388 152.981119 
L 467.242857 147.065035 
L 470.741327 145.093007 
L 474.239796 144.435664 
L 477.738265 141.148951 
L 481.236735 139.176923 
L 488.233673 151.009091 
L 491.732143 152.981119 
L 495.230612 146.407692 
L 498.729082 149.037063 
L 502.227551 148.37972 
L 505.72602 145.093007 
L 509.22449 141.148951 
L 512.722959 143.778322 
L 516.221429 148.37972 
L 523.218367 151.009091 
L 526.716837 149.694406 
L 530.215306 155.61049 
L 533.713776 151.666434 
L 537.212245 155.61049 
L 540.710714 152.981119 
L 544.209184 157.582517 
L 547.707653 158.897203 
L 551.206122 150.351748 
L 554.704592 140.491608 
L 558.203061 144.435664 
L 558.203061 144.435664 
" clip-path="url(#p8050b7ccd7)" style="fill: none; stroke: #d62728; stroke-width: 1.5; stroke-linecap: square"/>
   </g>
   <g id="patch_3">
    <path d="M 50.925 191.6 
L 50.925 50.6 
" style="fill: none; stroke: #000000; stroke-width: 0.8; stroke-linejoin: miter; stroke-linecap: square"/>
   </g>
   <g id="patch_4">
    <path d="M 565.2 191.6 
L 565.2 50.6 
" style="fill: none; stroke: #000000; stroke-width: 0.8; stroke-linejoin: miter; stroke-linecap: square"/>
   </g>
   <g id="patch_5">
    <path d="M 50.925 191.6 
L 565.2 191.6 
" style="fill: none; stroke: #000000; stroke-width: 0.8; stroke-linejoin: miter; stroke-linecap: square"/>
   </g>
   <g id="patch_6">
    <path d="M 50.925 50.6 
L 565.2 50.6 
" style="fill: none; stroke: #000000; stroke-width: 0.8; stroke-linejoin: miter; stroke-linecap: square"/>
   </g>
   <g id="text_6">
    <!-- New contributors -->
    <g transform="translate(256.5825 44.6)scale(0.12 -0.12)">
     <defs>
      <path id="DejaVuSans-4e" d="M 628 4666 
L 1478 4666 
L 3547 763 
L 3547 4666 
L 4159 4666 
L 4159 0 
L 3309 0 
L 1241 3903 
L 1241 0 
L 628 0 
L 628 4666 
z
" transform="scale(0.015625)"/>
      <path id="DejaVuSans-65" d="M 3597 1894 
L 3597 1613 
L 953 1613 
Q 991 1019 1311 708 
Q 1631 397 2203 397 
Q 2534 397 2845 478 
Q 3156 559 3463 722 
L 3463 178 
Q 3153 47 2828 -22 
Q 2503 -91 2169 -91 
Q 1331 -91 842 396 
Q 353 884 353 1716 
Q 353 2575 817 3079 
Q 1281 3584 2069 3584 
Q 2775 3584 3186 3129 
Q 3597 2675 3597 1894 
z
M 3022 2063 
Q 3016 2534 2758 2815 
Q 2500 3097 2075 3097 
Q 1594 3097 1305 2825 
Q 1016 2553 972 2059 
L 3022 2063 
z
" transform="scale(0.015625)"/>
      <path id="DejaVuSans-77" d="M 269 3500 
L 844 3500 
L 1563 769 
L 2278 3500 
L 2956 3500 
L 3675 769 
L 4391 3500 
L 4966 3500 
L 4050 0 
L 3372 0 
L 2619 2869 
L 1863 0 
L 1184 0 
L 269 3500 
z
" transform="scale(0.015625)"/>
      <path id="DejaVuSans-20" transform="scale(0.015625)"/>
     </defs>
     <use xlink:href="#DejaVuSans-4e"/>
     <use xlink:href="#DejaVuSans-65" x="74.804688"/>
     <use xlink:href="#DejaVuSans-77" x="136.328125"/>
     <use xlink:href="#DejaVuSans-20" x="218.115234"/>
     <use xlink:href="#DejaVuSans-63" x="249.902344"/>
     <use xlink:href="#DejaVuSans-6f" x="304.882812"/>
     <use xlink:href="#DejaVuSans-6e" x="366.064453"/>
     <use xlink:href="#DejaVuSans-74" x="429.443359"/>
     <use xlink:href="#DejaVuSans-72" x="468.652344"/>
     <use xlink:href="#DejaVuSans-69" x="509.765625"/>
     <use xlink:href="#DejaVuSans-62" x="537.548828"/>
     <use xlink:href="#DejaVuSans-75" x="601.025391"/>
     <use xlink:href="#DejaVuSans-74" x="664.404297"/>
     <use xlink:href="#DejaVuSans-6f" x="703.613281"/>
     <use xlink:href="#DejaVuSans-72" x="764.794922"/>
     <use xlink:href="#DejaVuSans-73" x="805.908203"/>
    </g>
   </g>
   <g id="legend_1">
    <g id="patch_7">
     <path d="M 57.925 117.3125 
L 118.295312 117.3125 
Q 120.295312 117.3125 120.295312 115.3125 
L 120.295312 57.6 
Q 120.295312 55.6 118.295312 55.6 
L 57.925 55.6 
Q 55.925 55.6 55.925 57.6 
L 55.925 115.3125 
Q 55.925 117.3125 57.925 117.3125 
z
" style="fill: #ffffff; opacity: 0.8; stroke: #cccccc; stroke-linejoin: miter"/>
    </g>
    <g id="line2d_37">
     <path d="M 59.925 63.698437 
L 69.925 63.698437 
L 79.925 63.698437 
" style="fill: none; stroke: #1f77b4; stroke-width: 1.5; stroke-linecap: square"/>
    </g>
    <g id="text_7">
     <!-- flink -->
     <g transform="translate(87.925 67.198437)scale(0.1 -0.1)">
      <defs>
       <path id="DejaVuSans-66" d="M 2375 4863 
L 2375 4384 
L 1825 4384 
Q 1516 4384 1395 4259 
Q 1275 4134 1275 3809 
L 1275 3500 
L 2222 3500 
L 2222 3053 
L 1275 3053 
L 1275 0 
L 697 0 
L 697 3053 
L 147 3053 
L 147 3500 
L 697 3500 
L 697 3744 
Q 697 4328 969 4595 
Q 1241 4863 1831 4863 
L 2375 4863 
z
" transform="scale(0.015625)"/>
       <path id="DejaVuSans-6c" d="M 603 4863 
L 1178 4863 
L 1178 0 
L 603 0 
L 603 4863 
z
" transform="scale(0.015625)"/>
       <path id="DejaVuSans-6b" d="M 581 4863 
L 1159 4863 
L 1159 1991 
L 2875 3500 
L 3609 3500 
L 1753 1863 
L 3688 0 
L 2938 0 
L 1159 1709 
L 1159 0 
L 581 0 
L 581 4863 
z
" transform="scale(0.015625)"/>
      </defs>
      <use xlink:href="#DejaVuSans-66"/>
      <use xlink:href="#DejaVuSans-6c" x="35.205078"/>
      <use xlink:href="#DejaVuSans-69" x="62.988281"/>
      <use xlink:href="#DejaVuSans-6e" x="90.771484"/>
      <use xlink:href="#DejaVuSans-6b" x="154.150391"/>
     </g>
    </g>
    <g id="line2d_38">
     <path d="M 59.925 78.376562 
L 69.925 78.376562 
L 79.925 78.376562 
" style="fill: none; stroke: #ff7f0e; stroke-width: 1.5; stroke-linecap: square"/>
    </g>
    <g id="text_8">
     <!-- spark -->
     <g transform="translate(87.925 81.876562)scale(0.1 -0.1)">
      <defs>
       <path id="DejaVuSans-70" d="M 1159 525 
L 1159 -1331 
L 581 -1331 
L 581 3500 
L 1159 3500 
L 1159 2969 
Q 1341 3281 1617 3432 
Q 1894 3584 2278 3584 
Q 2916 3584 3314 3078 
Q 3713 2572 3713 1747 
Q 3713 922 3314 415 
Q 2916 -91 2278 -91 
Q 1894 -91 1617 61 
Q 1341 213 1159 525 
z
M 3116 1747 
Q 3116 2381 2855 2742 
Q 2594 3103 2138 3103 
Q 1681 3103 1420 2742 
Q 1159 2381 1159 1747 
Q 1159 1113 1420 752 
Q 1681 391 2138 391 
Q 2594 391 2855 752 
Q 3116 1113 3116 1747 
z
" transform="scale(0.015625)"/>
       <path id="DejaVuSans-61" d="M 2194 1759 
Q 1497 1759 1228 1600 
Q 959 1441 959 1056 
Q 959 750 1161 570 
Q 1363 391 1709 391 
Q 2188 391 2477 730 
Q 2766 1069 2766 1631 
L 2766 1759 
L 2194 1759 
z
M 3341 1997 
L 3341 0 
L 2766 0 
L 2766 531 
Q 2569 213 2275 61 
Q 1981 -91 1556 -91 
Q 1019 -91 701 211 
Q 384 513 384 1019 
Q 384 1609 779 1909 
Q 1175 2209 1959 2209 
L 2766 2209 
L 2766 2266 
Q 2766 2663 2505 2880 
Q 2244 3097 1772 3097 
Q 1472 3097 1187 3025 
Q 903 2953 641 2809 
L 641 3341 
Q 956 3463 1253 3523 
Q 1550 3584 1831 3584 
Q 2591 3584 2966 3190 
Q 3341 2797 3341 1997 
z
" transform="scale(0.015625)"/>
      </defs>
      <use xlink:href="#DejaVuSans-73"/>
      <use xlink:href="#DejaVuSans-70" x="52.099609"/>
      <use xlink:href="#DejaVuSans-61" x="115.576172"/>
      <use xlink:href="#DejaVuSans-72" x="176.855469"/>
      <use xlink:href="#DejaVuSans-6b" x="217.96875"/>
     </g>
    </g>
    <g id="line2d_39">
     <path d="M 59.925 93.054687 
L 69.925 93.054687 
L 79.925 93.054687 
" style="fill: none; stroke: #2ca02c; stroke-width: 1.5; stroke-linecap: square"/>
    </g>
    <g id="text_9">
     <!-- beam -->
     <g transform="translate(87.925 96.554687)scale(0.1 -0.1)">
      <defs>
       <path id="DejaVuSans-6d" d="M 3328 2828 
Q 3544 3216 3844 3400 
Q 4144 3584 4550 3584 
Q 5097 3584 5394 3201 
Q 5691 2819 5691 2113 
L 5691 0 
L 5113 0 
L 5113 2094 
Q 5113 2597 4934 2840 
Q 4756 3084 4391 3084 
Q 3944 3084 3684 2787 
Q 3425 2491 3425 1978 
L 3425 0 
L 2847 0 
L 2847 2094 
Q 2847 2600 2669 2842 
Q 2491 3084 2119 3084 
Q 1678 3084 1418 2786 
Q 1159 2488 1159 1978 
L 1159 0 
L 581 0 
L 581 3500 
L 1159 3500 
L 1159 2956 
Q 1356 3278 1631 3431 
Q 1906 3584 2284 3584 
Q 2666 3584 2933 3390 
Q 3200 3197 3328 2828 
z
" transform="scale(0.015625)"/>
      </defs>
      <use xlink:href="#DejaVuSans-62"/>
      <use xlink:href="#DejaVuSans-65" x="63.476562"/>
      <use xlink:href="#DejaVuSans-61" x="125"/>
      <use xlink:href="#DejaVuSans-6d" x="186.279297"/>
     </g>
    </g>
    <g id="line2d_40">
     <path d="M 59.925 107.732812 
L 69.925 107.732812 
L 79.925 107.732812 
" style="fill: none; stroke: #d62728; stroke-width: 1.5; stroke-linecap: square"/>
    </g>
    <g id="text_10">
     <!-- kafka -->
     <g transform="translate(87.925 111.232812)scale(0.1 -0.1)">
      <use xlink:href="#DejaVuSans-6b"/>
      <use xlink:href="#DejaVuSans-61" x="56.160156"/>
      <use xlink:href="#DejaVuSans-66" x="117.439453"/>
      <use xlink:href="#DejaVuSans-6b" x="152.644531"/>
      <use xlink:href="#DejaVuSans-61" x="208.804688"/>
     </g>
    </g>
   </g>
  </g>
  <g id="axes_2">
   <g id="patch_8">
    <path d="M 50.925 362.9 
L 565.2 362.9 
L 565.2 221.9 
L 50.925 221.9 
z
" style="fill: #ffffff"/>
   </g>
   <g id="matplotlib.axis_3">
    <g id="xtick_13">
     <g id="line2d_41">
      <path d="M 85.909694 362.9 
L 85.909694 221.9 
" clip-path="url(#pbe29d4dae3)" style="fill: none; stroke: #b0b0b0; stroke-width: 0.8; stroke-linecap: square"/>
     </g>
     <g id="line2d_42">
      <g>
       <use xlink:href="#m8e6ccbbfb0" x="85.909694" y="362.9" style="stroke: #000000; stroke-width: 0.8"/>
      </g>
     </g>
    </g>
    <g id="xtick_14">
     <g id="line2d_43">
      <path d="M 169.872959 362.9 
L 169.872959 221.9 
" clip-path="url(#pbe29d4dae3)" style="fill: none; stroke: #b0b0b0; stroke-width: 0.8; stroke-linecap: square"/>
     </g>
     <g id="line2d_44">
      <g>
       <use xlink:href="#m8e6ccbbfb0" x="169.872959" y="362.9" style="stroke: #000000; stroke-width: 0.8"/>
      </g>
     </g>
    </g>
    <g id="xtick_15">
     <g id="line2d_45">
      <path d="M 253.836224 362.9 
L 253.836224 221.9 
" clip-path="url(#pbe29d4dae3)" style="fill: none; stroke: #b0b0b0; stroke-width: 0.8; stroke-linecap: square"/>
     </g>
     <g id="line2d_46">
      <g>
       <use xlink:href="#m8e6ccbbfb0" x="253.836224" y="362.9" style="stroke: #000000; stroke-width: 0.8"/>
      </g>
     </g>
    </g>
    <g id="xtick_16">
     <g id="line2d_47">
      <path d="M 337.79949 362.9 
L 337.79949 221.9 
" clip-path="url(#pbe29d4dae3)" style="fill: none; stroke: #b0b0b0; stroke-width: 0.8; stroke-linecap: square"/>
     </g>
     <g id="line2d_48">
      <g>
       <use xlink:href="#m8e6ccbbfb0" x="337.79949" y="362.9" style="stroke: #000000; stroke-width: 0.8"/>
      </g>
     </g>
    </g>
    <g id="xtick_17">
     <g id="line2d_49">
      <path d="M 421.762755 362.9 
L 421.762755 221.9 
" clip-path="url(#pbe29d4dae3)" style="fill: none; stroke: #b0b0b0; stroke-width: 0.8; stroke-linecap: square"/>
     </g>
     <g id="line2d_50">
      <g>
       <use xlink:href="#m8e6ccbbfb0" x="421.762755" y="362.9" style="stroke: #000000; stroke-width: 0.8"/>
      </g>
     </g>
    </g>
    <g id="xtick_18">
     <g id="line2d_51">
      <path d="M 505.72602 362.9 
L 505.72602 221.9 
" clip-path="url(#pbe29d4dae3)" style="fill: none; stroke: #b0b0b0; stroke-width: 0.8; stroke-linecap: square"/>
     </g>
     <g id="line2d_52">
      <g>
       <use xlink:href="#m8e6ccbbfb0" x="505.72602" y="362.9" style="stroke: #000000; stroke-width: 0.8"/>
      </g>
     </g>
    </g>
    <g id="xtick_19">
     <g id="line2d_53">
      <path d="M 127.891327 362.9 
L 127.891327 221.9 
" clip-path="url(#pbe29d4dae3)" style="fill: none; stroke: #b0b0b0; stroke-width: 0.8; stroke-linecap: square"/>
     </g>
     <g id="line2d_54">
      <g>
       <use xlink:href="#mfa164fce9e" x="127.891327" y="362.9" style="stroke: #000000; stroke-width: 0.6"/>
      </g>
     </g>
    </g>
    <g id="xtick_20">
     <g id="line2d_55">
      <path d="M 211.854592 362.9 
L 211.854592 221.9 
" clip-path="url(#pbe29d4dae3)" style="fill: none; stroke: #b0b0b0; stroke-width: 0.8; stroke-linecap: square"/>
     </g>
     <g id="line2d_56">
      <g>
       <use xlink:href="#mfa164fce9e" x="211.854592" y="362.9" style="stroke: #000000; stroke-width: 0.6"/>
      </g>
     </g>
    </g>
    <g id="xtick_21">
     <g id="line2d_57">
      <path d="M 295.817857 362.9 
L 295.817857 221.9 
" clip-path="url(#pbe29d4dae3)" style="fill: none; stroke: #b0b0b0; stroke-width: 0.8; stroke-linecap: square"/>
     </g>
     <g id="line2d_58">
      <g>
       <use xlink:href="#mfa164fce9e" x="295.817857" y="362.9" style="stroke: #000000; stroke-width: 0.6"/>
      </g>
     </g>
    </g>
    <g id="xtick_22">
     <g id="line2d_59">
      <path d="M 379.781122 362.9 
L 379.781122 221.9 
" clip-path="url(#pbe29d4dae3)" style="fill: none; stroke: #b0b0b0; stroke-width: 0.8; stroke-linecap: square"/>
     </g>
     <g id="line2d_60">
      <g>
       <use xlink:href="#mfa164fce9e" x="379.781122" y="362.9" style="stroke: #000000; stroke-width: 0.6"/>
      </g>
     </g>
    </g>
    <g id="xtick_23">
     <g id="line2d_61">
      <path d="M 463.744388 362.9 
L 463.744388 221.9 
" clip-path="url(#pbe29d4dae3)" style="fill: none; stroke: #b0b0b0; stroke-width: 0.8; stroke-linecap: square"/>
     </g>
     <g id="line2d_62">
      <g>
       <use xlink:href="#mfa164fce9e" x="463.744388" y="362.9" style="stroke: #000000; stroke-width: 0.6"/>
      </g>
     </g>
    </g>
    <g id="xtick_24">
     <g id="line2d_63">
      <path d="M 547.707653 362.9 
L 547.707653 221.9 
" clip-path="url(#pbe29d4dae3)" style="fill: none; stroke: #b0b0b0; stroke-width: 0.8; stroke-linecap: square"/>
     </g>
     <g id="line2d_64">
      <g>
       <use xlink:href="#mfa164fce9e" x="547.707653" y="362.9" style="stroke: #000000; stroke-width: 0.6"/>
      </g>
     </g>
    </g>
   </g>
   <g id="matplotlib.axis_4">
    <g id="ytick_5">
     <g id="line2d_65">
      <path d="M 50.925 356.490909 
L 565.2 356.490909 
" clip-path="url(#pbe29d4dae3)" style="fill: none; stroke: #b0b0b0; stroke-width: 0.8; stroke-linecap: square"/>
     </g>
     <g id="line2d_66">
      <g>
       <use xlink:href="#mbca94563bd" x="50.925" y="356.490909" style="stroke: #000000; stroke-width: 0.8"/>
      </g>
     </g>
     <g id="text_11">
      <!-- 0 -->
      <g transform="translate(37.5625 360.290128)scale(0.1 -0.1)">
       <use xlink:href="#DejaVuSans-30"/>
      </g>
     </g>
    </g>
    <g id="ytick_6">
     <g id="line2d_67">
      <path d="M 50.925 332.075325 
L 565.2 332.075325 
" clip-path="url(#pbe29d4dae3)" style="fill: none; stroke: #b0b0b0; stroke-width: 0.8; stroke-linecap: square"/>
     </g>
     <g id="line2d_68">
      <g>
       <use xlink:href="#mbca94563bd" x="50.925" y="332.075325" style="stroke: #000000; stroke-width: 0.8"/>
      </g>
     </g>
     <g id="text_12">
      <!-- 2 -->
      <g transform="translate(37.5625 335.874543)scale(0.1 -0.1)">
       <use xlink:href="#DejaVuSans-32"/>
      </g>
     </g>
    </g>
    <g id="ytick_7">
     <g id="line2d_69">
      <path d="M 50.925 307.65974 
L 565.2 307.65974 
" clip-path="url(#pbe29d4dae3)" style="fill: none; stroke: #b0b0b0; stroke-width: 0.8; stroke-linecap: square"/>
     </g>
     <g id="line2d_70">
      <g>
       <use xlink:href="#mbca94563bd" x="50.925" y="307.65974" style="stroke: #000000; stroke-width: 0.8"/>
      </g>
     </g>
     <g id="text_13">
      <!-- 4 -->
      <g transform="translate(37.5625 311.458959)scale(0.1 -0.1)">
       <defs>
        <path id="DejaVuSans-34" d="M 2419 4116 
L 825 1625 
L 2419 1625 
L 2419 4116 
z
M 2253 4666 
L 3047 4666 
L 3047 1625 
L 3713 1625 
L 3713 1100 
L 3047 1100 
L 3047 0 
L 2419 0 
L 2419 1100 
L 313 1100 
L 313 1709 
L 2253 4666 
z
" transform="scale(0.015625)"/>
       </defs>
       <use xlink:href="#DejaVuSans-34"/>
      </g>
     </g>
    </g>
    <g id="ytick_8">
     <g id="line2d_71">
      <path d="M 50.925 283.244156 
L 565.2 283.244156 
" clip-path="url(#pbe29d4dae3)" style="fill: none; stroke: #b0b0b0; stroke-width: 0.8; stroke-linecap: square"/>
     </g>
     <g id="line2d_72">
      <g>
       <use xlink:href="#mbca94563bd" x="50.925" y="283.244156" style="stroke: #000000; stroke-width: 0.8"/>
      </g>
     </g>
     <g id="text_14">
      <!-- 6 -->
      <g transform="translate(37.5625 287.043375)scale(0.1 -0.1)">
       <defs>
        <path id="DejaVuSans-36" d="M 2113 2584 
Q 1688 2584 1439 2293 
Q 1191 2003 1191 1497 
Q 1191 994 1439 701 
Q 1688 409 2113 409 
Q 2538 409 2786 701 
Q 3034 994 3034 1497 
Q 3034 2003 2786 2293 
Q 2538 2584 2113 2584 
z
M 3366 4563 
L 3366 3988 
Q 3128 4100 2886 4159 
Q 2644 4219 2406 4219 
Q 1781 4219 1451 3797 
Q 1122 3375 1075 2522 
Q 1259 2794 1537 2939 
Q 1816 3084 2150 3084 
Q 2853 3084 3261 2657 
Q 3669 2231 3669 1497 
Q 3669 778 3244 343 
Q 2819 -91 2113 -91 
Q 1303 -91 875 529 
Q 447 1150 447 2328 
Q 447 3434 972 4092 
Q 1497 4750 2381 4750 
Q 2619 4750 2861 4703 
Q 3103 4656 3366 4563 
z
" transform="scale(0.015625)"/>
       </defs>
       <use xlink:href="#DejaVuSans-36"/>
      </g>
     </g>
    </g>
    <g id="ytick_9">
     <g id="line2d_73">
      <path d="M 50.925 258.828571 
L 565.2 258.828571 
" clip-path="url(#pbe29d4dae3)" style="fill: none; stroke: #b0b0b0; stroke-width: 0.8; stroke-linecap: square"/>
     </g>
     <g id="line2d_74">
      <g>
       <use xlink:href="#mbca94563bd" x="50.925" y="258.828571" style="stroke: #000000; stroke-width: 0.8"/>
      </g>
     </g>
     <g id="text_15">
      <!-- 8 -->
      <g transform="translate(37.5625 262.62779)scale(0.1 -0.1)">
       <defs>
        <path id="DejaVuSans-38" d="M 2034 2216 
Q 1584 2216 1326 1975 
Q 1069 1734 1069 1313 
Q 1069 891 1326 650 
Q 1584 409 2034 409 
Q 2484 409 2743 651 
Q 3003 894 3003 1313 
Q 3003 1734 2745 1975 
Q 2488 2216 2034 2216 
z
M 1403 2484 
Q 997 2584 770 2862 
Q 544 3141 544 3541 
Q 544 4100 942 4425 
Q 1341 4750 2034 4750 
Q 2731 4750 3128 4425 
Q 3525 4100 3525 3541 
Q 3525 3141 3298 2862 
Q 3072 2584 2669 2484 
Q 3125 2378 3379 2068 
Q 3634 1759 3634 1313 
Q 3634 634 3220 271 
Q 2806 -91 2034 -91 
Q 1263 -91 848 271 
Q 434 634 434 1313 
Q 434 1759 690 2068 
Q 947 2378 1403 2484 
z
M 1172 3481 
Q 1172 3119 1398 2916 
Q 1625 2713 2034 2713 
Q 2441 2713 2670 2916 
Q 2900 3119 2900 3481 
Q 2900 3844 2670 4047 
Q 2441 4250 2034 4250 
Q 1625 4250 1398 4047 
Q 1172 3844 1172 3481 
z
" transform="scale(0.015625)"/>
       </defs>
       <use xlink:href="#DejaVuSans-38"/>
      </g>
     </g>
    </g>
    <g id="ytick_10">
     <g id="line2d_75">
      <path d="M 50.925 234.412987 
L 565.2 234.412987 
" clip-path="url(#pbe29d4dae3)" style="fill: none; stroke: #b0b0b0; stroke-width: 0.8; stroke-linecap: square"/>
     </g>
     <g id="line2d_76">
      <g>
       <use xlink:href="#mbca94563bd" x="50.925" y="234.412987" style="stroke: #000000; stroke-width: 0.8"/>
      </g>
     </g>
     <g id="text_16">
      <!-- 10 -->
      <g transform="translate(31.2 238.212206)scale(0.1 -0.1)">
       <use xlink:href="#DejaVuSans-31"/>
       <use xlink:href="#DejaVuSans-30" x="63.623047"/>
      </g>
     </g>
    </g>
    <g id="text_17">
     <!-- #committer -->
     <g transform="translate(25.120313 322.580469)rotate(-90)scale(0.1 -0.1)">
      <use xlink:href="#DejaVuSans-23"/>
      <use xlink:href="#DejaVuSans-63" x="83.789062"/>
      <use xlink:href="#DejaVuSans-6f" x="138.769531"/>
      <use xlink:href="#DejaVuSans-6d" x="199.951172"/>
      <use xlink:href="#DejaVuSans-6d" x="297.363281"/>
      <use xlink:href="#DejaVuSans-69" x="394.775391"/>
      <use xlink:href="#DejaVuSans-74" x="422.558594"/>
      <use xlink:href="#DejaVuSans-74" x="461.767578"/>
      <use xlink:href="#DejaVuSans-65" x="500.976562"/>
      <use xlink:href="#DejaVuSans-72" x="562.5"/>
     </g>
    </g>
   </g>
   <g id="line2d_77">
    <path d="M 99.903571 348.352381 
L 103.402041 350.387013 
L 106.90051 354.456277 
L 110.39898 356.490909 
L 124.392857 356.490909 
L 127.891327 354.456277 
L 134.888265 354.456277 
L 138.386735 352.421645 
L 141.885204 348.352381 
L 145.383673 348.352381 
L 148.882143 350.387013 
L 152.380612 350.387013 
L 155.879082 348.352381 
L 159.377551 350.387013 
L 162.87602 354.456277 
L 173.371429 354.456277 
L 176.869898 356.490909 
L 180.368367 356.490909 
L 183.866837 354.456277 
L 190.863776 346.317749 
L 197.860714 342.248485 
L 201.359184 338.179221 
L 204.857653 338.179221 
L 208.356122 342.248485 
L 222.35 350.387013 
L 225.848469 348.352381 
L 229.346939 348.352381 
L 232.845408 350.387013 
L 236.343878 348.352381 
L 239.842347 342.248485 
L 243.340816 344.283117 
L 246.839286 348.352381 
L 253.836224 344.283117 
L 257.334694 344.283117 
L 260.833163 346.317749 
L 264.331633 344.283117 
L 271.328571 344.283117 
L 274.827041 346.317749 
L 278.32551 346.317749 
L 285.322449 350.387013 
L 288.820918 346.317749 
L 292.319388 348.352381 
L 295.817857 348.352381 
L 299.316327 350.387013 
L 302.814796 350.387013 
L 306.313265 348.352381 
L 309.811735 352.421645 
L 313.310204 352.421645 
L 320.307143 348.352381 
L 327.304082 352.421645 
L 334.30102 352.421645 
L 337.79949 354.456277 
L 341.297959 354.456277 
L 344.796429 352.421645 
L 351.793367 352.421645 
L 358.790306 348.352381 
L 365.787245 352.421645 
L 369.285714 352.421645 
L 372.784184 350.387013 
L 379.781122 354.456277 
L 393.775 354.456277 
L 397.273469 352.421645 
L 404.270408 352.421645 
L 407.768878 348.352381 
L 411.267347 348.352381 
L 414.765816 350.387013 
L 421.762755 350.387013 
L 425.261224 348.352381 
L 428.759694 352.421645 
L 432.258163 352.421645 
L 435.756633 350.387013 
L 439.255102 350.387013 
L 442.753571 342.248485 
L 446.252041 336.144589 
L 449.75051 334.109957 
L 453.24898 334.109957 
L 456.747449 336.144589 
L 460.245918 336.144589 
L 463.744388 338.179221 
L 467.242857 346.317749 
L 470.741327 348.352381 
L 477.738265 344.283117 
L 481.236735 344.283117 
L 484.735204 350.387013 
L 488.233673 350.387013 
L 495.230612 346.317749 
L 505.72602 346.317749 
L 509.22449 340.213853 
L 512.722959 340.213853 
L 523.218367 346.317749 
L 526.716837 344.283117 
L 530.215306 348.352381 
L 537.212245 352.421645 
L 540.710714 348.352381 
L 544.209184 340.213853 
L 547.707653 334.109957 
L 551.206122 336.144589 
L 554.704592 332.075325 
L 558.203061 330.040693 
L 558.203061 330.040693 
" clip-path="url(#pbe29d4dae3)" style="fill: none; stroke: #1f77b4; stroke-width: 1.5; stroke-linecap: square"/>
   </g>
   <g id="line2d_78">
    <path d="M 68.417347 354.456277 
L 71.915816 356.490909 
L 89.408163 356.490909 
L 96.405102 352.421645 
L 103.402041 344.283117 
L 110.39898 344.283117 
L 124.392857 352.421645 
L 127.891327 350.387013 
L 134.888265 342.248485 
L 138.386735 342.248485 
L 141.885204 344.283117 
L 145.383673 344.283117 
L 148.882143 340.213853 
L 155.879082 340.213853 
L 159.377551 336.144589 
L 162.87602 334.109957 
L 166.37449 334.109957 
L 169.872959 319.867532 
L 173.371429 323.936797 
L 176.869898 313.763636 
L 187.365306 301.555844 
L 190.863776 301.555844 
L 194.362245 283.244156 
L 197.860714 285.278788 
L 201.359184 269.001732 
L 204.857653 258.828571 
L 208.356122 244.586147 
L 211.854592 232.378355 
L 215.353061 250.690043 
L 218.851531 262.897835 
L 222.35 287.31342 
L 225.848469 301.555844 
L 229.346939 319.867532 
L 232.845408 352.421645 
L 243.340816 352.421645 
L 250.337755 356.490909 
L 257.334694 352.421645 
L 264.331633 352.421645 
L 271.328571 348.352381 
L 274.827041 348.352381 
L 278.32551 350.387013 
L 288.820918 350.387013 
L 295.817857 354.456277 
L 299.316327 350.387013 
L 306.313265 350.387013 
L 309.811735 352.421645 
L 313.310204 350.387013 
L 316.808673 350.387013 
L 320.307143 354.456277 
L 323.805612 354.456277 
L 327.304082 352.421645 
L 330.802551 352.421645 
L 334.30102 354.456277 
L 337.79949 352.421645 
L 344.796429 352.421645 
L 348.294898 354.456277 
L 358.790306 354.456277 
L 362.288776 352.421645 
L 376.282653 352.421645 
L 383.279592 356.490909 
L 386.778061 346.317749 
L 404.270408 346.317749 
L 407.768878 350.387013 
L 414.765816 346.317749 
L 418.264286 346.317749 
L 421.762755 344.283117 
L 425.261224 344.283117 
L 428.759694 350.387013 
L 435.756633 354.456277 
L 439.255102 354.456277 
L 442.753571 356.490909 
L 446.252041 354.456277 
L 449.75051 346.317749 
L 460.245918 346.317749 
L 463.744388 344.283117 
L 467.242857 346.317749 
L 470.741327 352.421645 
L 481.236735 352.421645 
L 484.735204 348.352381 
L 488.233673 348.352381 
L 491.732143 350.387013 
L 502.227551 350.387013 
L 505.72602 356.490909 
L 509.22449 356.490909 
L 512.722959 346.317749 
L 516.221429 344.283117 
L 530.215306 344.283117 
L 533.713776 354.456277 
L 537.212245 356.490909 
L 540.710714 354.456277 
L 544.209184 354.456277 
L 547.707653 352.421645 
L 547.707653 352.421645 
" clip-path="url(#pbe29d4dae3)" style="fill: none; stroke: #ff7f0e; stroke-width: 1.5; stroke-linecap: square"/>
   </g>
   <g id="line2d_79">
    <path d="M 267.830102 332.075325 
L 271.328571 338.179221 
L 274.827041 342.248485 
L 278.32551 342.248485 
L 281.82398 348.352381 
L 285.322449 342.248485 
L 288.820918 342.248485 
L 292.319388 340.213853 
L 295.817857 338.179221 
L 299.316327 334.109957 
L 302.814796 321.902165 
L 306.313265 325.971429 
L 309.811735 321.902165 
L 313.310204 315.798268 
L 316.808673 313.763636 
L 320.307143 311.729004 
L 323.805612 321.902165 
L 327.304082 319.867532 
L 330.802551 325.971429 
L 334.30102 325.971429 
L 337.79949 319.867532 
L 341.297959 321.902165 
L 344.796429 309.694372 
L 348.294898 313.763636 
L 351.793367 311.729004 
L 355.291837 319.867532 
L 358.790306 323.936797 
L 362.288776 330.040693 
L 365.787245 338.179221 
L 369.285714 336.144589 
L 372.784184 317.8329 
L 376.282653 305.625108 
L 379.781122 283.244156 
L 383.279592 264.932468 
L 386.778061 256.793939 
L 390.276531 244.586147 
L 393.775 250.690043 
L 397.273469 252.724675 
L 400.771939 260.863203 
L 404.270408 258.828571 
L 407.768878 246.620779 
L 411.267347 234.412987 
L 414.765816 228.309091 
L 418.264286 234.412987 
L 421.762755 242.551515 
L 425.261224 244.586147 
L 428.759694 262.897835 
L 432.258163 287.31342 
L 435.756633 283.244156 
L 439.255102 271.036364 
L 442.753571 264.932468 
L 446.252041 269.001732 
L 449.75051 258.828571 
L 453.24898 250.690043 
L 456.747449 254.759307 
L 460.245918 262.897835 
L 463.744388 275.105628 
L 467.242857 281.209524 
L 470.741327 293.417316 
L 474.239796 285.278788 
L 477.738265 291.382684 
L 481.236735 275.105628 
L 484.735204 260.863203 
L 488.233673 254.759307 
L 491.732143 242.551515 
L 495.230612 260.863203 
L 498.729082 258.828571 
L 502.227551 273.070996 
L 505.72602 279.174892 
L 509.22449 279.174892 
L 512.722959 285.278788 
L 516.221429 281.209524 
L 519.719898 291.382684 
L 523.218367 285.278788 
L 526.716837 289.348052 
L 530.215306 289.348052 
L 533.713776 291.382684 
L 537.212245 283.244156 
L 540.710714 277.14026 
L 544.209184 281.209524 
L 547.707653 281.209524 
L 551.206122 289.348052 
L 554.704592 283.244156 
L 558.203061 295.451948 
" clip-path="url(#pbe29d4dae3)" style="fill: none; stroke: #2ca02c; stroke-width: 1.5; stroke-linecap: square"/>
   </g>
   <g id="line2d_80">
    <path d="M 127.891327 352.421645 
L 131.389796 354.456277 
L 134.888265 354.456277 
L 138.386735 354.456277 
L 141.885204 356.490909 
L 145.383673 356.490909 
L 148.882143 356.490909 
L 152.380612 356.490909 
L 155.879082 356.490909 
L 159.377551 356.490909 
L 162.87602 354.456277 
L 166.37449 346.317749 
L 169.872959 344.283117 
L 173.371429 344.283117 
L 176.869898 344.283117 
L 180.368367 344.283117 
L 183.866837 346.317749 
L 187.365306 354.456277 
L 190.863776 356.490909 
L 194.362245 356.490909 
L 197.860714 354.456277 
L 201.359184 352.421645 
L 204.857653 352.421645 
L 208.356122 352.421645 
L 211.854592 352.421645 
L 215.353061 352.421645 
L 218.851531 354.456277 
L 222.35 356.490909 
L 225.848469 356.490909 
L 229.346939 356.490909 
L 232.845408 356.490909 
L 236.343878 356.490909 
L 239.842347 356.490909 
L 243.340816 356.490909 
L 246.839286 356.490909 
L 250.337755 356.490909 
L 253.836224 356.490909 
L 257.334694 354.456277 
L 260.833163 354.456277 
L 264.331633 354.456277 
L 267.830102 354.456277 
L 271.328571 354.456277 
L 274.827041 352.421645 
L 278.32551 354.456277 
L 281.82398 354.456277 
L 285.322449 354.456277 
L 288.820918 354.456277 
L 292.319388 352.421645 
L 295.817857 354.456277 
L 299.316327 354.456277 
L 302.814796 354.456277 
L 306.313265 352.421645 
L 309.811735 352.421645 
L 313.310204 354.456277 
L 316.808673 354.456277 
L 320.307143 354.456277 
L 323.805612 352.421645 
L 327.304082 354.456277 
L 330.802551 352.421645 
L 334.30102 352.421645 
L 337.79949 352.421645 
L 341.297959 352.421645 
L 344.796429 354.456277 
L 348.294898 352.421645 
L 351.793367 354.456277 
L 355.291837 352.421645 
L 358.790306 350.387013 
L 362.288776 350.387013 
L 365.787245 350.387013 
L 369.285714 352.421645 
L 372.784184 350.387013 
L 376.282653 352.421645 
L 379.781122 352.421645 
L 383.279592 352.421645 
L 386.778061 352.421645 
L 390.276531 350.387013 
L 393.775 352.421645 
L 397.273469 352.421645 
L 400.771939 352.421645 
L 404.270408 352.421645 
L 407.768878 352.421645 
L 411.267347 350.387013 
L 414.765816 350.387013 
L 418.264286 350.387013 
L 421.762755 350.387013 
L 425.261224 346.317749 
L 428.759694 346.317749 
L 432.258163 350.387013 
L 435.756633 350.387013 
L 439.255102 348.352381 
L 442.753571 350.387013 
L 446.252041 354.456277 
L 449.75051 354.456277 
L 453.24898 354.456277 
L 456.747449 350.387013 
L 460.245918 352.421645 
L 463.744388 352.421645 
L 467.242857 352.421645 
L 470.741327 352.421645 
L 474.239796 352.421645 
L 477.738265 356.490909 
L 481.236735 356.490909 
L 484.735204 356.490909 
L 488.233673 356.490909 
L 491.732143 356.490909 
L 495.230612 356.490909 
L 498.729082 356.490909 
L 502.227551 356.490909 
L 505.72602 356.490909 
L 509.22449 354.456277 
L 512.722959 354.456277 
L 516.221429 354.456277 
L 519.719898 354.456277 
L 523.218367 354.456277 
L 526.716837 354.456277 
L 530.215306 356.490909 
L 533.713776 356.490909 
L 537.212245 356.490909 
L 540.710714 354.456277 
" clip-path="url(#pbe29d4dae3)" style="fill: none; stroke: #d62728; stroke-width: 1.5; stroke-linecap: square"/>
   </g>
   <g id="patch_9">
    <path d="M 50.925 362.9 
L 50.925 221.9 
" style="fill: none; stroke: #000000; stroke-width: 0.8; stroke-linejoin: miter; stroke-linecap: square"/>
   </g>
   <g id="patch_10">
    <path d="M 565.2 362.9 
L 565.2 221.9 
" style="fill: none; stroke: #000000; stroke-width: 0.8; stroke-linejoin: miter; stroke-linecap: square"/>
   </g>
   <g id="patch_11">
    <path d="M 50.925 362.9 
L 565.2 362.9 
" style="fill: none; stroke: #000000; stroke-width: 0.8; stroke-linejoin: miter; stroke-linecap: square"/>
   </g>
   <g id="patch_12">
    <path d="M 50.925 221.9 
L 565.2 221.9 
" style="fill: none; stroke: #000000; stroke-width: 0.8; stroke-linejoin: miter; stroke-linecap: square"/>
   </g>
   <g id="text_18">
    <!-- New committers -->
    <g transform="translate(258.75375 215.9)scale(0.12 -0.12)">
     <use xlink:href="#DejaVuSans-4e"/>
     <use xlink:href="#DejaVuSans-65" x="74.804688"/>
     <use xlink:href="#DejaVuSans-77" x="136.328125"/>
     <use xlink:href="#DejaVuSans-20" x="218.115234"/>
     <use xlink:href="#DejaVuSans-63" x="249.902344"/>
     <use xlink:href="#DejaVuSans-6f" x="304.882812"/>
     <use xlink:href="#DejaVuSans-6d" x="366.064453"/>
     <use xlink:href="#DejaVuSans-6d" x="463.476562"/>
     <use xlink:href="#DejaVuSans-69" x="560.888672"/>
     <use xlink:href="#DejaVuSans-74" x="588.671875"/>
     <use xlink:href="#DejaVuSans-74" x="627.880859"/>
     <use xlink:href="#DejaVuSans-65" x="667.089844"/>
     <use xlink:href="#DejaVuSans-72" x="728.613281"/>
     <use xlink:href="#DejaVuSans-73" x="769.726562"/>
    </g>
   </g>
   <g id="legend_2">
    <g id="patch_13">
     <path d="M 57.925 288.6125 
L 118.295312 288.6125 
Q 120.295312 288.6125 120.295312 286.6125 
L 120.295312 228.9 
Q 120.295312 226.9 118.295312 226.9 
L 57.925 226.9 
Q 55.925 226.9 55.925 228.9 
L 55.925 286.6125 
Q 55.925 288.6125 57.925 288.6125 
z
" style="fill: #ffffff; opacity: 0.8; stroke: #cccccc; stroke-linejoin: miter"/>
    </g>
    <g id="line2d_81">
     <path d="M 59.925 234.998437 
L 69.925 234.998437 
L 79.925 234.998437 
" style="fill: none; stroke: #1f77b4; stroke-width: 1.5; stroke-linecap: square"/>
    </g>
    <g id="text_19">
     <!-- flink -->
     <g transform="translate(87.925 238.498437)scale(0.1 -0.1)">
      <use xlink:href="#DejaVuSans-66"/>
      <use xlink:href="#DejaVuSans-6c" x="35.205078"/>
      <use xlink:href="#DejaVuSans-69" x="62.988281"/>
      <use xlink:href="#DejaVuSans-6e" x="90.771484"/>
      <use xlink:href="#DejaVuSans-6b" x="154.150391"/>
     </g>
    </g>
    <g id="line2d_82">
     <path d="M 59.925 249.676562 
L 69.925 249.676562 
L 79.925 249.676562 
" style="fill: none; stroke: #ff7f0e; stroke-width: 1.5; stroke-linecap: square"/>
    </g>
    <g id="text_20">
     <!-- spark -->
     <g transform="translate(87.925 253.176562)scale(0.1 -0.1)">
      <use xlink:href="#DejaVuSans-73"/>
      <use xlink:href="#DejaVuSans-70" x="52.099609"/>
      <use xlink:href="#DejaVuSans-61" x="115.576172"/>
      <use xlink:href="#DejaVuSans-72" x="176.855469"/>
      <use xlink:href="#DejaVuSans-6b" x="217.96875"/>
     </g>
    </g>
    <g id="line2d_83">
     <path d="M 59.925 264.354687 
L 69.925 264.354687 
L 79.925 264.354687 
" style="fill: none; stroke: #2ca02c; stroke-width: 1.5; stroke-linecap: square"/>
    </g>
    <g id="text_21">
     <!-- beam -->
     <g transform="translate(87.925 267.854687)scale(0.1 -0.1)">
      <use xlink:href="#DejaVuSans-62"/>
      <use xlink:href="#DejaVuSans-65" x="63.476562"/>
      <use xlink:href="#DejaVuSans-61" x="125"/>
      <use xlink:href="#DejaVuSans-6d" x="186.279297"/>
     </g>
    </g>
    <g id="line2d_84">
     <path d="M 59.925 279.032812 
L 69.925 279.032812 
L 79.925 279.032812 
" style="fill: none; stroke: #d62728; stroke-width: 1.5; stroke-linecap: square"/>
    </g>
    <g id="text_22">
     <!-- kafka -->
     <g transform="translate(87.925 282.532812)scale(0.1 -0.1)">
      <use xlink:href="#DejaVuSans-6b"/>
      <use xlink:href="#DejaVuSans-61" x="56.160156"/>
      <use xlink:href="#DejaVuSans-66" x="117.439453"/>
      <use xlink:href="#DejaVuSans-6b" x="152.644531"/>
      <use xlink:href="#DejaVuSans-61" x="208.804688"/>
     </g>
    </g>
   </g>
  </g>
  <g id="axes_3">
   <g id="patch_14">
    <path d="M 50.925 534.2 
L 565.2 534.2 
L 565.2 393.2 
L 50.925 393.2 
z
" style="fill: #ffffff"/>
   </g>
   <g id="matplotlib.axis_5">
    <g id="xtick_25">
     <g id="line2d_85">
      <path d="M 85.909694 534.2 
L 85.909694 393.2 
" clip-path="url(#p802ec06964)" style="fill: none; stroke: #b0b0b0; stroke-width: 0.8; stroke-linecap: square"/>
     </g>
     <g id="line2d_86">
      <g>
       <use xlink:href="#m8e6ccbbfb0" x="85.909694" y="534.2" style="stroke: #000000; stroke-width: 0.8"/>
      </g>
     </g>
     <g id="text_23">
      <!-- 2011 -->
      <g transform="translate(73.184694 548.798437)scale(0.1 -0.1)">
       <use xlink:href="#DejaVuSans-32"/>
       <use xlink:href="#DejaVuSans-30" x="63.623047"/>
       <use xlink:href="#DejaVuSans-31" x="127.246094"/>
       <use xlink:href="#DejaVuSans-31" x="190.869141"/>
      </g>
     </g>
    </g>
    <g id="xtick_26">
     <g id="line2d_87">
      <path d="M 169.872959 534.2 
L 169.872959 393.2 
" clip-path="url(#p802ec06964)" style="fill: none; stroke: #b0b0b0; stroke-width: 0.8; stroke-linecap: square"/>
     </g>
     <g id="line2d_88">
      <g>
       <use xlink:href="#m8e6ccbbfb0" x="169.872959" y="534.2" style="stroke: #000000; stroke-width: 0.8"/>
      </g>
     </g>
     <g id="text_24">
      <!-- 2013 -->
      <g transform="translate(157.147959 548.798437)scale(0.1 -0.1)">
       <use xlink:href="#DejaVuSans-32"/>
       <use xlink:href="#DejaVuSans-30" x="63.623047"/>
       <use xlink:href="#DejaVuSans-31" x="127.246094"/>
       <use xlink:href="#DejaVuSans-33" x="190.869141"/>
      </g>
     </g>
    </g>
    <g id="xtick_27">
     <g id="line2d_89">
      <path d="M 253.836224 534.2 
L 253.836224 393.2 
" clip-path="url(#p802ec06964)" style="fill: none; stroke: #b0b0b0; stroke-width: 0.8; stroke-linecap: square"/>
     </g>
     <g id="line2d_90">
      <g>
       <use xlink:href="#m8e6ccbbfb0" x="253.836224" y="534.2" style="stroke: #000000; stroke-width: 0.8"/>
      </g>
     </g>
     <g id="text_25">
      <!-- 2015 -->
      <g transform="translate(241.111224 548.798437)scale(0.1 -0.1)">
       <defs>
        <path id="DejaVuSans-35" d="M 691 4666 
L 3169 4666 
L 3169 4134 
L 1269 4134 
L 1269 2991 
Q 1406 3038 1543 3061 
Q 1681 3084 1819 3084 
Q 2600 3084 3056 2656 
Q 3513 2228 3513 1497 
Q 3513 744 3044 326 
Q 2575 -91 1722 -91 
Q 1428 -91 1123 -41 
Q 819 9 494 109 
L 494 744 
Q 775 591 1075 516 
Q 1375 441 1709 441 
Q 2250 441 2565 725 
Q 2881 1009 2881 1497 
Q 2881 1984 2565 2268 
Q 2250 2553 1709 2553 
Q 1456 2553 1204 2497 
Q 953 2441 691 2322 
L 691 4666 
z
" transform="scale(0.015625)"/>
       </defs>
       <use xlink:href="#DejaVuSans-32"/>
       <use xlink:href="#DejaVuSans-30" x="63.623047"/>
       <use xlink:href="#DejaVuSans-31" x="127.246094"/>
       <use xlink:href="#DejaVuSans-35" x="190.869141"/>
      </g>
     </g>
    </g>
    <g id="xtick_28">
     <g id="line2d_91">
      <path d="M 337.79949 534.2 
L 337.79949 393.2 
" clip-path="url(#p802ec06964)" style="fill: none; stroke: #b0b0b0; stroke-width: 0.8; stroke-linecap: square"/>
     </g>
     <g id="line2d_92">
      <g>
       <use xlink:href="#m8e6ccbbfb0" x="337.79949" y="534.2" style="stroke: #000000; stroke-width: 0.8"/>
      </g>
     </g>
     <g id="text_26">
      <!-- 2017 -->
      <g transform="translate(325.07449 548.798437)scale(0.1 -0.1)">
       <defs>
        <path id="DejaVuSans-37" d="M 525 4666 
L 3525 4666 
L 3525 4397 
L 1831 0 
L 1172 0 
L 2766 4134 
L 525 4134 
L 525 4666 
z
" transform="scale(0.015625)"/>
       </defs>
       <use xlink:href="#DejaVuSans-32"/>
       <use xlink:href="#DejaVuSans-30" x="63.623047"/>
       <use xlink:href="#DejaVuSans-31" x="127.246094"/>
       <use xlink:href="#DejaVuSans-37" x="190.869141"/>
      </g>
     </g>
    </g>
    <g id="xtick_29">
     <g id="line2d_93">
      <path d="M 421.762755 534.2 
L 421.762755 393.2 
" clip-path="url(#p802ec06964)" style="fill: none; stroke: #b0b0b0; stroke-width: 0.8; stroke-linecap: square"/>
     </g>
     <g id="line2d_94">
      <g>
       <use xlink:href="#m8e6ccbbfb0" x="421.762755" y="534.2" style="stroke: #000000; stroke-width: 0.8"/>
      </g>
     </g>
     <g id="text_27">
      <!-- 2019 -->
      <g transform="translate(409.037755 548.798437)scale(0.1 -0.1)">
       <defs>
        <path id="DejaVuSans-39" d="M 703 97 
L 703 672 
Q 941 559 1184 500 
Q 1428 441 1663 441 
Q 2288 441 2617 861 
Q 2947 1281 2994 2138 
Q 2813 1869 2534 1725 
Q 2256 1581 1919 1581 
Q 1219 1581 811 2004 
Q 403 2428 403 3163 
Q 403 3881 828 4315 
Q 1253 4750 1959 4750 
Q 2769 4750 3195 4129 
Q 3622 3509 3622 2328 
Q 3622 1225 3098 567 
Q 2575 -91 1691 -91 
Q 1453 -91 1209 -44 
Q 966 3 703 97 
z
M 1959 2075 
Q 2384 2075 2632 2365 
Q 2881 2656 2881 3163 
Q 2881 3666 2632 3958 
Q 2384 4250 1959 4250 
Q 1534 4250 1286 3958 
Q 1038 3666 1038 3163 
Q 1038 2656 1286 2365 
Q 1534 2075 1959 2075 
z
" transform="scale(0.015625)"/>
       </defs>
       <use xlink:href="#DejaVuSans-32"/>
       <use xlink:href="#DejaVuSans-30" x="63.623047"/>
       <use xlink:href="#DejaVuSans-31" x="127.246094"/>
       <use xlink:href="#DejaVuSans-39" x="190.869141"/>
      </g>
     </g>
    </g>
    <g id="xtick_30">
     <g id="line2d_95">
      <path d="M 505.72602 534.2 
L 505.72602 393.2 
" clip-path="url(#p802ec06964)" style="fill: none; stroke: #b0b0b0; stroke-width: 0.8; stroke-linecap: square"/>
     </g>
     <g id="line2d_96">
      <g>
       <use xlink:href="#m8e6ccbbfb0" x="505.72602" y="534.2" style="stroke: #000000; stroke-width: 0.8"/>
      </g>
     </g>
     <g id="text_28">
      <!-- 2021 -->
      <g transform="translate(493.00102 548.798437)scale(0.1 -0.1)">
       <use xlink:href="#DejaVuSans-32"/>
       <use xlink:href="#DejaVuSans-30" x="63.623047"/>
       <use xlink:href="#DejaVuSans-32" x="127.246094"/>
       <use xlink:href="#DejaVuSans-31" x="190.869141"/>
      </g>
     </g>
    </g>
    <g id="xtick_31">
     <g id="line2d_97">
      <path d="M 127.891327 534.2 
L 127.891327 393.2 
" clip-path="url(#p802ec06964)" style="fill: none; stroke: #b0b0b0; stroke-width: 0.8; stroke-linecap: square"/>
     </g>
     <g id="line2d_98">
      <g>
       <use xlink:href="#mfa164fce9e" x="127.891327" y="534.2" style="stroke: #000000; stroke-width: 0.6"/>
      </g>
     </g>
    </g>
    <g id="xtick_32">
     <g id="line2d_99">
      <path d="M 211.854592 534.2 
L 211.854592 393.2 
" clip-path="url(#p802ec06964)" style="fill: none; stroke: #b0b0b0; stroke-width: 0.8; stroke-linecap: square"/>
     </g>
     <g id="line2d_100">
      <g>
       <use xlink:href="#mfa164fce9e" x="211.854592" y="534.2" style="stroke: #000000; stroke-width: 0.6"/>
      </g>
     </g>
    </g>
    <g id="xtick_33">
     <g id="line2d_101">
      <path d="M 295.817857 534.2 
L 295.817857 393.2 
" clip-path="url(#p802ec06964)" style="fill: none; stroke: #b0b0b0; stroke-width: 0.8; stroke-linecap: square"/>
     </g>
     <g id="line2d_102">
      <g>
       <use xlink:href="#mfa164fce9e" x="295.817857" y="534.2" style="stroke: #000000; stroke-width: 0.6"/>
      </g>
     </g>
    </g>
    <g id="xtick_34">
     <g id="line2d_103">
      <path d="M 379.781122 534.2 
L 379.781122 393.2 
" clip-path="url(#p802ec06964)" style="fill: none; stroke: #b0b0b0; stroke-width: 0.8; stroke-linecap: square"/>
     </g>
     <g id="line2d_104">
      <g>
       <use xlink:href="#mfa164fce9e" x="379.781122" y="534.2" style="stroke: #000000; stroke-width: 0.6"/>
      </g>
     </g>
    </g>
    <g id="xtick_35">
     <g id="line2d_105">
      <path d="M 463.744388 534.2 
L 463.744388 393.2 
" clip-path="url(#p802ec06964)" style="fill: none; stroke: #b0b0b0; stroke-width: 0.8; stroke-linecap: square"/>
     </g>
     <g id="line2d_106">
      <g>
       <use xlink:href="#mfa164fce9e" x="463.744388" y="534.2" style="stroke: #000000; stroke-width: 0.6"/>
      </g>
     </g>
    </g>
    <g id="xtick_36">
     <g id="line2d_107">
      <path d="M 547.707653 534.2 
L 547.707653 393.2 
" clip-path="url(#p802ec06964)" style="fill: none; stroke: #b0b0b0; stroke-width: 0.8; stroke-linecap: square"/>
     </g>
     <g id="line2d_108">
      <g>
       <use xlink:href="#mfa164fce9e" x="547.707653" y="534.2" style="stroke: #000000; stroke-width: 0.6"/>
      </g>
     </g>
    </g>
    <g id="text_29">
     <!-- committedDate -->
     <g transform="translate(269.002344 562.476562)scale(0.1 -0.1)">
      <defs>
       <path id="DejaVuSans-64" d="M 2906 2969 
L 2906 4863 
L 3481 4863 
L 3481 0 
L 2906 0 
L 2906 525 
Q 2725 213 2448 61 
Q 2172 -91 1784 -91 
Q 1150 -91 751 415 
Q 353 922 353 1747 
Q 353 2572 751 3078 
Q 1150 3584 1784 3584 
Q 2172 3584 2448 3432 
Q 2725 3281 2906 2969 
z
M 947 1747 
Q 947 1113 1208 752 
Q 1469 391 1925 391 
Q 2381 391 2643 752 
Q 2906 1113 2906 1747 
Q 2906 2381 2643 2742 
Q 2381 3103 1925 3103 
Q 1469 3103 1208 2742 
Q 947 2381 947 1747 
z
" transform="scale(0.015625)"/>
       <path id="DejaVuSans-44" d="M 1259 4147 
L 1259 519 
L 2022 519 
Q 2988 519 3436 956 
Q 3884 1394 3884 2338 
Q 3884 3275 3436 3711 
Q 2988 4147 2022 4147 
L 1259 4147 
z
M 628 4666 
L 1925 4666 
Q 3281 4666 3915 4102 
Q 4550 3538 4550 2338 
Q 4550 1131 3912 565 
Q 3275 0 1925 0 
L 628 0 
L 628 4666 
z
" transform="scale(0.015625)"/>
      </defs>
      <use xlink:href="#DejaVuSans-63"/>
      <use xlink:href="#DejaVuSans-6f" x="54.980469"/>
      <use xlink:href="#DejaVuSans-6d" x="116.162109"/>
      <use xlink:href="#DejaVuSans-6d" x="213.574219"/>
      <use xlink:href="#DejaVuSans-69" x="310.986328"/>
      <use xlink:href="#DejaVuSans-74" x="338.769531"/>
      <use xlink:href="#DejaVuSans-74" x="377.978516"/>
      <use xlink:href="#DejaVuSans-65" x="417.1875"/>
      <use xlink:href="#DejaVuSans-64" x="478.710938"/>
      <use xlink:href="#DejaVuSans-44" x="542.1875"/>
      <use xlink:href="#DejaVuSans-61" x="619.189453"/>
      <use xlink:href="#DejaVuSans-74" x="680.46875"/>
      <use xlink:href="#DejaVuSans-65" x="719.677734"/>
     </g>
    </g>
   </g>
   <g id="matplotlib.axis_6">
    <g id="ytick_11">
     <g id="line2d_109">
      <path d="M 50.925 529.267527 
L 565.2 529.267527 
" clip-path="url(#p802ec06964)" style="fill: none; stroke: #b0b0b0; stroke-width: 0.8; stroke-linecap: square"/>
     </g>
     <g id="line2d_110">
      <g>
       <use xlink:href="#mbca94563bd" x="50.925" y="529.267527" style="stroke: #000000; stroke-width: 0.8"/>
      </g>
     </g>
     <g id="text_30">
      <!-- 0 -->
      <g transform="translate(37.5625 533.066746)scale(0.1 -0.1)">
       <use xlink:href="#DejaVuSans-30"/>
      </g>
     </g>
    </g>
    <g id="ytick_12">
     <g id="line2d_111">
      <path d="M 50.925 495.191723 
L 565.2 495.191723 
" clip-path="url(#p802ec06964)" style="fill: none; stroke: #b0b0b0; stroke-width: 0.8; stroke-linecap: square"/>
     </g>
     <g id="line2d_112">
      <g>
       <use xlink:href="#mbca94563bd" x="50.925" y="495.191723" style="stroke: #000000; stroke-width: 0.8"/>
      </g>
     </g>
     <g id="text_31">
      <!-- 200 -->
      <g transform="translate(24.8375 498.990941)scale(0.1 -0.1)">
       <use xlink:href="#DejaVuSans-32"/>
       <use xlink:href="#DejaVuSans-30" x="63.623047"/>
       <use xlink:href="#DejaVuSans-30" x="127.246094"/>
      </g>
     </g>
    </g>
    <g id="ytick_13">
     <g id="line2d_113">
      <path d="M 50.925 461.115918 
L 565.2 461.115918 
" clip-path="url(#p802ec06964)" style="fill: none; stroke: #b0b0b0; stroke-width: 0.8; stroke-linecap: square"/>
     </g>
     <g id="line2d_114">
      <g>
       <use xlink:href="#mbca94563bd" x="50.925" y="461.115918" style="stroke: #000000; stroke-width: 0.8"/>
      </g>
     </g>
     <g id="text_32">
      <!-- 400 -->
      <g transform="translate(24.8375 464.915137)scale(0.1 -0.1)">
       <use xlink:href="#DejaVuSans-34"/>
       <use xlink:href="#DejaVuSans-30" x="63.623047"/>
       <use xlink:href="#DejaVuSans-30" x="127.246094"/>
      </g>
     </g>
    </g>
    <g id="ytick_14">
     <g id="line2d_115">
      <path d="M 50.925 427.040114 
L 565.2 427.040114 
" clip-path="url(#p802ec06964)" style="fill: none; stroke: #b0b0b0; stroke-width: 0.8; stroke-linecap: square"/>
     </g>
     <g id="line2d_116">
      <g>
       <use xlink:href="#mbca94563bd" x="50.925" y="427.040114" style="stroke: #000000; stroke-width: 0.8"/>
      </g>
     </g>
     <g id="text_33">
      <!-- 600 -->
      <g transform="translate(24.8375 430.839332)scale(0.1 -0.1)">
       <use xlink:href="#DejaVuSans-36"/>
       <use xlink:href="#DejaVuSans-30" x="63.623047"/>
       <use xlink:href="#DejaVuSans-30" x="127.246094"/>
      </g>
     </g>
    </g>
    <g id="text_34">
     <!-- #commits -->
     <g transform="translate(18.757812 489.392969)rotate(-90)scale(0.1 -0.1)">
      <use xlink:href="#DejaVuSans-23"/>
      <use xlink:href="#DejaVuSans-63" x="83.789062"/>
      <use xlink:href="#DejaVuSans-6f" x="138.769531"/>
      <use xlink:href="#DejaVuSans-6d" x="199.951172"/>
      <use xlink:href="#DejaVuSans-6d" x="297.363281"/>
      <use xlink:href="#DejaVuSans-69" x="394.775391"/>
      <use xlink:href="#DejaVuSans-74" x="422.558594"/>
      <use xlink:href="#DejaVuSans-73" x="461.767578"/>
     </g>
    </g>
   </g>
   <g id="line2d_117">
    <path d="M 99.903571 504.307 
L 103.402041 502.631607 
L 106.90051 502.092073 
L 110.39898 503.82426 
L 113.897449 508.055339 
L 117.395918 505.584843 
L 120.894388 501.580936 
L 124.392857 502.319245 
L 127.891327 501.46735 
L 131.389796 501.041403 
L 134.888265 501.438954 
L 138.386735 504.647758 
L 141.885204 507.146651 
L 145.383673 503.568691 
L 148.882143 503.227933 
L 155.879082 508.225718 
L 159.377551 505.329275 
L 162.87602 506.607117 
L 169.872959 517.057031 
L 173.371429 519.442337 
L 176.869898 520.549801 
L 180.368367 525.320413 
L 183.866837 526.285894 
L 187.365306 525.83155 
L 190.863776 526.143912 
L 194.362245 525.774757 
L 197.860714 524.667294 
L 201.359184 522.111608 
L 204.857653 520.890559 
L 208.356122 518.334873 
L 211.854592 517.454582 
L 215.353061 516.148343 
L 218.851531 514.614931 
L 222.35 513.876622 
L 225.848469 510.213473 
L 229.346939 509.957905 
L 232.845408 509.191199 
L 236.343878 493.573122 
L 239.842347 490.960644 
L 243.340816 491.64216 
L 246.839286 493.487932 
L 250.337755 492.834813 
L 253.836224 489.995163 
L 257.334694 498.826475 
L 260.833163 497.49184 
L 267.830102 493.601519 
L 271.328571 492.77802 
L 274.827041 494.055863 
L 278.32551 498.343735 
L 281.82398 499.649974 
L 285.322449 499.053647 
L 288.820918 499.990732 
L 292.319388 502.432831 
L 295.817857 502.432831 
L 299.316327 500.019128 
L 302.814796 501.069799 
L 306.313265 502.801986 
L 309.811735 504.335397 
L 313.310204 502.801986 
L 316.808673 501.637729 
L 320.307143 503.852656 
L 323.805612 505.102103 
L 327.304082 504.108225 
L 330.802551 502.943968 
L 334.30102 499.19563 
L 337.79949 496.526358 
L 341.297959 496.1856 
L 344.796429 493.090381 
L 348.294898 493.289157 
L 351.793367 488.63213 
L 355.291837 492.039711 
L 362.288776 493.771898 
L 365.787245 495.589274 
L 369.285714 493.175571 
L 372.784184 494.879361 
L 376.282653 496.355979 
L 379.781122 495.04974 
L 383.279592 488.120993 
L 386.778061 485.820876 
L 390.276531 488.177786 
L 393.775 488.802509 
L 397.273469 487.893821 
L 400.771939 488.490148 
L 404.270408 494.708982 
L 407.768878 495.61767 
L 411.267347 492.408865 
L 414.765816 492.69283 
L 418.264286 492.380469 
L 421.762755 491.55697 
L 425.261224 486.246824 
L 428.759694 486.36041 
L 432.258163 487.183909 
L 435.756633 483.776328 
L 439.255102 475.541342 
L 442.753571 468.697785 
L 446.252041 468.839767 
L 449.75051 466.62484 
L 453.24898 461.172711 
L 460.245918 453.704431 
L 463.744388 459.184956 
L 467.242857 458.191078 
L 470.741327 454.92548 
L 474.239796 452.029037 
L 477.738265 444.305188 
L 481.236735 444.787928 
L 484.735204 447.655975 
L 488.233673 451.489503 
L 491.732143 453.22169 
L 495.230612 455.237842 
L 498.729082 458.588629 
L 502.227551 463.756793 
L 505.72602 461.42828 
L 509.22449 459.355335 
L 512.722959 452.73895 
L 516.221429 455.181049 
L 519.719898 467.590321 
L 523.218367 469.634869 
L 526.716837 467.249563 
L 530.215306 461.683848 
L 533.713776 468.612595 
L 537.212245 474.263499 
L 540.710714 471.651021 
L 544.209184 472.872071 
L 547.707653 472.872071 
L 551.206122 474.859826 
L 554.704592 473.752362 
L 558.203061 472.133762 
L 561.701531 474.803033 
L 565.2 481.845366 
L 565.2 481.845366 
" clip-path="url(#p802ec06964)" style="fill: none; stroke: #1f77b4; stroke-width: 1.5; stroke-linecap: square"/>
   </g>
   <g id="line2d_118">
    <path d="M 68.417347 527.790909 
L 71.915816 527.251376 
L 75.414286 525.150034 
L 78.912755 523.474641 
L 82.411224 521.572075 
L 89.408163 520.521404 
L 92.906633 520.294232 
L 96.405102 522.111608 
L 99.903571 522.395573 
L 103.402041 523.275865 
L 106.90051 522.679538 
L 110.39898 522.935107 
L 113.897449 523.474641 
L 117.395918 523.758606 
L 127.891327 526.995807 
L 131.389796 526.995807 
L 138.386735 526.48467 
L 141.885204 526.48467 
L 145.383673 525.320413 
L 148.882143 522.651142 
L 152.380612 518.448459 
L 155.879082 513.251899 
L 159.377551 506.976272 
L 166.37449 502.262452 
L 169.872959 493.942277 
L 173.371429 489.654404 
L 180.368367 493.061985 
L 183.866837 491.07423 
L 187.365306 488.319769 
L 190.863776 486.615979 
L 194.362245 483.833121 
L 197.860714 479.914404 
L 201.359184 471.878193 
L 204.857653 467.249563 
L 208.356122 459.184956 
L 211.854592 452.511778 
L 215.353061 461.712245 
L 218.851531 465.517376 
L 222.35 471.452246 
L 225.848469 473.894345 
L 229.346939 481.589797 
L 232.845408 492.834813 
L 236.343878 484.486241 
L 239.842347 480.397144 
L 246.839286 476.53522 
L 250.337755 475.39936 
L 253.836224 476.364841 
L 257.334694 473.894345 
L 260.833163 473.61038 
L 264.331633 471.991779 
L 267.830102 463.955569 
L 271.328571 459.610903 
L 274.827041 449.984489 
L 278.32551 448.081923 
L 281.82398 448.649853 
L 285.322449 450.807987 
L 288.820918 453.108104 
L 292.319388 456.089737 
L 295.817857 462.933294 
L 299.316327 469.123732 
L 302.814796 463.643207 
L 306.313265 456.203323 
L 309.811735 457.679941 
L 313.310204 454.527929 
L 316.808673 456.629271 
L 320.307143 456.998425 
L 323.805612 462.47895 
L 327.304082 470.969505 
L 330.802551 475.654928 
L 334.30102 480.624316 
L 337.79949 482.754054 
L 341.297959 485.252946 
L 344.796429 485.110964 
L 348.294898 486.871547 
L 351.793367 488.291372 
L 355.291837 489.881577 
L 358.790306 490.023559 
L 362.288776 490.534696 
L 365.787245 493.516329 
L 369.285714 494.964551 
L 372.784184 497.264667 
L 376.282653 496.923909 
L 379.781122 495.418895 
L 383.279592 496.895513 
L 386.778061 498.088166 
L 390.276531 497.690615 
L 393.775 497.179478 
L 397.273469 499.479595 
L 400.771939 500.672248 
L 404.270408 497.49184 
L 407.768878 495.333705 
L 411.267347 493.459536 
L 414.765816 492.948399 
L 418.264286 492.1249 
L 421.762755 492.437262 
L 425.261224 496.043618 
L 428.759694 494.538603 
L 432.258163 496.327583 
L 435.756633 497.207874 
L 439.255102 497.435047 
L 442.753571 496.895513 
L 446.252041 493.857087 
L 449.75051 493.970673 
L 456.747449 488.688923 
L 460.245918 486.615979 
L 463.744388 484.798602 
L 467.242857 485.025774 
L 470.741327 485.110964 
L 474.239796 485.764083 
L 477.738265 487.893821 
L 488.233673 491.386591 
L 491.732143 492.806416 
L 495.230612 493.090381 
L 498.729082 491.55697 
L 502.227551 488.177786 
L 505.72602 487.354288 
L 509.22449 487.041926 
L 512.722959 485.70729 
L 516.221429 484.940585 
L 519.719898 484.912188 
L 526.716837 481.277436 
L 530.215306 481.107057 
L 533.713776 482.754054 
L 537.212245 483.918311 
L 540.710714 484.060293 
L 544.209184 487.837028 
L 547.707653 491.329798 
L 551.206122 491.045833 
L 554.704592 488.774113 
L 558.203061 493.658312 
L 558.203061 493.658312 
" clip-path="url(#p802ec06964)" style="fill: none; stroke: #ff7f0e; stroke-width: 1.5; stroke-linecap: square"/>
   </g>
   <g id="line2d_119">
    <path d="M 267.830102 511.832074 
L 271.328571 510.497438 
L 274.827041 508.53808 
L 278.32551 507.487409 
L 281.82398 508.53808 
L 285.322449 509.844319 
L 288.820918 511.888867 
L 292.319388 513.08152 
L 295.817857 514.756914 
L 299.316327 511.746884 
L 302.814796 499.366009 
L 306.313265 491.500177 
L 309.811735 487.183909 
L 313.310204 472.332537 
L 316.808673 463.529621 
L 320.307143 460.689971 
L 323.805612 465.148222 
L 327.304082 462.308571 
L 330.802551 453.392069 
L 334.30102 452.369795 
L 337.79949 452.540174 
L 341.297959 445.327462 
L 344.796429 439.846937 
L 348.294898 430.106936 
L 351.793367 420.934865 
L 355.291837 426.358597 
L 358.790306 429.482213 
L 362.288776 438.19994 
L 365.787245 442.629794 
L 369.285714 455.124256 
L 372.784184 464.949446 
L 376.282653 467.789097 
L 379.781122 461.825831 
L 383.279592 456.174926 
L 386.778061 455.465014 
L 390.276531 444.986704 
L 393.775 441.777899 
L 397.273469 427.551251 
L 400.771939 425.904253 
L 404.270408 426.472184 
L 407.768878 425.478306 
L 411.267347 399.609091 
L 414.765816 404.379704 
L 418.264286 417.697664 
L 421.762755 416.135856 
L 425.261224 414.659238 
L 428.759694 416.561804 
L 432.258163 450.552419 
L 435.756633 448.791836 
L 439.255102 447.230028 
L 442.753571 453.78962 
L 446.252041 456.487288 
L 449.75051 456.686064 
L 453.24898 457.395976 
L 456.747449 451.205538 
L 460.245918 450.240057 
L 463.744388 447.769561 
L 467.242857 446.88927 
L 470.741327 445.554634 
L 474.239796 443.226121 
L 477.738265 451.489503 
L 481.236735 452.767346 
L 484.735204 449.444955 
L 488.233673 448.252302 
L 491.732143 449.899299 
L 495.230612 452.171019 
L 498.729082 456.231719 
L 502.227551 457.93551 
L 505.72602 464.665481 
L 509.22449 466.795219 
L 512.722959 464.750671 
L 516.221429 461.882624 
L 519.719898 463.643207 
L 523.218367 465.375394 
L 526.716837 469.322508 
L 530.215306 474.859826 
L 533.713776 478.977319 
L 537.212245 485.70729 
L 540.710714 484.08869 
L 544.209184 481.220643 
L 547.707653 476.932771 
L 551.206122 473.638776 
L 554.704592 470.855919 
L 558.203061 476.620409 
" clip-path="url(#p802ec06964)" style="fill: none; stroke: #2ca02c; stroke-width: 1.5; stroke-linecap: square"/>
   </g>
   <g id="line2d_120">
    <path d="M 127.891327 525.433999 
L 131.389796 525.575982 
L 134.888265 525.519189 
L 138.386735 526.513066 
L 141.885204 526.910617 
L 145.383673 526.626652 
L 148.882143 526.711842 
L 152.380612 526.541463 
L 155.879082 526.172308 
L 159.377551 524.78088 
L 162.87602 524.099364 
L 166.37449 523.787002 
L 169.872959 522.33878 
L 173.371429 522.310384 
L 176.869898 521.969626 
L 180.368367 522.821521 
L 187.365306 523.361054 
L 190.863776 524.78088 
L 194.362245 524.979655 
L 197.860714 525.717964 
L 204.857653 525.235224 
L 211.854592 525.292017 
L 215.353061 524.638897 
L 222.35 523.900588 
L 229.346939 523.928985 
L 232.845408 523.55983 
L 236.343878 524.298139 
L 239.842347 524.383329 
L 246.839286 524.951259 
L 250.337755 524.894466 
L 260.833163 524.269743 
L 264.331633 523.758606 
L 267.830102 523.673416 
L 274.827041 522.878314 
L 281.82398 521.401696 
L 285.322449 519.41394 
L 288.820918 515.040879 
L 295.817857 512.201229 
L 299.316327 511.036972 
L 302.814796 508.793648 
L 306.313265 509.389975 
L 309.811735 511.065368 
L 313.310204 511.207351 
L 316.808673 511.917263 
L 320.307143 512.258022 
L 323.805612 513.109917 
L 327.304082 513.564261 
L 330.802551 514.984086 
L 334.30102 514.671724 
L 337.79949 512.400004 
L 341.297959 511.832074 
L 344.796429 511.803677 
L 348.294898 511.576505 
L 355.291837 504.534172 
L 358.790306 506.237963 
L 362.288776 506.067584 
L 365.787245 504.562569 
L 369.285714 503.568691 
L 372.784184 506.862686 
L 376.282653 511.207351 
L 379.781122 510.696214 
L 383.279592 510.497438 
L 386.778061 512.087642 
L 390.276531 512.911141 
L 393.775 511.803677 
L 397.273469 509.134406 
L 400.771939 510.440645 
L 404.270408 510.412249 
L 407.768878 511.207351 
L 411.267347 510.980179 
L 414.765816 512.314815 
L 418.264286 515.097672 
L 421.762755 514.018605 
L 425.261224 514.671724 
L 428.759694 513.763036 
L 432.258163 514.444552 
L 435.756633 511.94566 
L 439.255102 510.72461 
L 442.753571 511.37773 
L 446.252041 511.888867 
L 449.75051 512.541987 
L 453.24898 510.838196 
L 456.747449 512.570383 
L 460.245918 513.223503 
L 463.744388 512.400004 
L 467.242857 511.207351 
L 470.741327 509.531957 
L 474.239796 509.389975 
L 477.738265 508.083735 
L 481.236735 506.294756 
L 484.735204 506.521928 
L 488.233673 508.282511 
L 491.732143 509.759129 
L 495.230612 509.957905 
L 498.729082 511.434523 
L 502.227551 512.314815 
L 505.72602 510.753007 
L 509.22449 507.970149 
L 512.722959 506.18117 
L 516.221429 506.919479 
L 519.719898 506.237963 
L 526.716837 505.755222 
L 530.215306 508.339304 
L 533.713776 510.639421 
L 537.212245 512.712366 
L 540.710714 514.160587 
L 544.209184 516.233532 
L 547.707653 519.271958 
L 551.206122 518.760821 
L 554.704592 517.426185 
L 558.203061 518.136098 
L 558.203061 518.136098 
" clip-path="url(#p802ec06964)" style="fill: none; stroke: #d62728; stroke-width: 1.5; stroke-linecap: square"/>
   </g>
   <g id="patch_15">
    <path d="M 50.925 534.2 
L 50.925 393.2 
" style="fill: none; stroke: #000000; stroke-width: 0.8; stroke-linejoin: miter; stroke-linecap: square"/>
   </g>
   <g id="patch_16">
    <path d="M 565.2 534.2 
L 565.2 393.2 
" style="fill: none; stroke: #000000; stroke-width: 0.8; stroke-linejoin: miter; stroke-linecap: square"/>
   </g>
   <g id="patch_17">
    <path d="M 50.925 534.2 
L 565.2 534.2 
" style="fill: none; stroke: #000000; stroke-width: 0.8; stroke-linejoin: miter; stroke-linecap: square"/>
   </g>
   <g id="patch_18">
    <path d="M 50.925 393.2 
L 565.2 393.2 
" style="fill: none; stroke: #000000; stroke-width: 0.8; stroke-linejoin: miter; stroke-linecap: square"/>
   </g>
   <g id="text_35">
    <!-- New commits -->
    <g transform="translate(267.264375 387.2)scale(0.12 -0.12)">
     <use xlink:href="#DejaVuSans-4e"/>
     <use xlink:href="#DejaVuSans-65" x="74.804688"/>
     <use xlink:href="#DejaVuSans-77" x="136.328125"/>
     <use xlink:href="#DejaVuSans-20" x="218.115234"/>
     <use xlink:href="#DejaVuSans-63" x="249.902344"/>
     <use xlink:href="#DejaVuSans-6f" x="304.882812"/>
     <use xlink:href="#DejaVuSans-6d" x="366.064453"/>
     <use xlink:href="#DejaVuSans-6d" x="463.476562"/>
     <use xlink:href="#DejaVuSans-69" x="560.888672"/>
     <use xlink:href="#DejaVuSans-74" x="588.671875"/>
     <use xlink:href="#DejaVuSans-73" x="627.880859"/>
    </g>
   </g>
   <g id="legend_3">
    <g id="patch_19">
     <path d="M 57.925 459.9125 
L 118.295312 459.9125 
Q 120.295312 459.9125 120.295312 457.9125 
L 120.295312 400.2 
Q 120.295312 398.2 118.295312 398.2 
L 57.925 398.2 
Q 55.925 398.2 55.925 400.2 
L 55.925 457.9125 
Q 55.925 459.9125 57.925 459.9125 
z
" style="fill: #ffffff; opacity: 0.8; stroke: #cccccc; stroke-linejoin: miter"/>
    </g>
    <g id="line2d_121">
     <path d="M 59.925 406.298437 
L 69.925 406.298437 
L 79.925 406.298437 
" style="fill: none; stroke: #1f77b4; stroke-width: 1.5; stroke-linecap: square"/>
    </g>
    <g id="text_36">
     <!-- flink -->
     <g transform="translate(87.925 409.798437)scale(0.1 -0.1)">
      <use xlink:href="#DejaVuSans-66"/>
      <use xlink:href="#DejaVuSans-6c" x="35.205078"/>
      <use xlink:href="#DejaVuSans-69" x="62.988281"/>
      <use xlink:href="#DejaVuSans-6e" x="90.771484"/>
      <use xlink:href="#DejaVuSans-6b" x="154.150391"/>
     </g>
    </g>
    <g id="line2d_122">
     <path d="M 59.925 420.976562 
L 69.925 420.976562 
L 79.925 420.976562 
" style="fill: none; stroke: #ff7f0e; stroke-width: 1.5; stroke-linecap: square"/>
    </g>
    <g id="text_37">
     <!-- spark -->
     <g transform="translate(87.925 424.476562)scale(0.1 -0.1)">
      <use xlink:href="#DejaVuSans-73"/>
      <use xlink:href="#DejaVuSans-70" x="52.099609"/>
      <use xlink:href="#DejaVuSans-61" x="115.576172"/>
      <use xlink:href="#DejaVuSans-72" x="176.855469"/>
      <use xlink:href="#DejaVuSans-6b" x="217.96875"/>
     </g>
    </g>
    <g id="line2d_123">
     <path d="M 59.925 435.654687 
L 69.925 435.654687 
L 79.925 435.654687 
" style="fill: none; stroke: #2ca02c; stroke-width: 1.5; stroke-linecap: square"/>
    </g>
    <g id="text_38">
     <!-- beam -->
     <g transform="translate(87.925 439.154687)scale(0.1 -0.1)">
      <use xlink:href="#DejaVuSans-62"/>
      <use xlink:href="#DejaVuSans-65" x="63.476562"/>
      <use xlink:href="#DejaVuSans-61" x="125"/>
      <use xlink:href="#DejaVuSans-6d" x="186.279297"/>
     </g>
    </g>
    <g id="line2d_124">
     <path d="M 59.925 450.332812 
L 69.925 450.332812 
L 79.925 450.332812 
" style="fill: none; stroke: #d62728; stroke-width: 1.5; stroke-linecap: square"/>
    </g>
    <g id="text_39">
     <!-- kafka -->
     <g transform="translate(87.925 453.832812)scale(0.1 -0.1)">
      <use xlink:href="#DejaVuSans-6b"/>
      <use xlink:href="#DejaVuSans-61" x="56.160156"/>
      <use xlink:href="#DejaVuSans-66" x="117.439453"/>
      <use xlink:href="#DejaVuSans-6b" x="152.644531"/>
      <use xlink:href="#DejaVuSans-61" x="208.804688"/>
     </g>
    </g>
   </g>
  </g>
  <g id="text_40">
   <!-- Monthly numbers averaged over 6 months -->
   <g transform="translate(159.729375 20.638125)scale(0.12 -0.12)">
    <defs>
     <path id="DejaVuSans-4d" d="M 628 4666 
L 1569 4666 
L 2759 1491 
L 3956 4666 
L 4897 4666 
L 4897 0 
L 4281 0 
L 4281 4097 
L 3078 897 
L 2444 897 
L 1241 4097 
L 1241 0 
L 628 0 
L 628 4666 
z
" transform="scale(0.015625)"/>
     <path id="DejaVuSans-68" d="M 3513 2113 
L 3513 0 
L 2938 0 
L 2938 2094 
Q 2938 2591 2744 2837 
Q 2550 3084 2163 3084 
Q 1697 3084 1428 2787 
Q 1159 2491 1159 1978 
L 1159 0 
L 581 0 
L 581 4863 
L 1159 4863 
L 1159 2956 
Q 1366 3272 1645 3428 
Q 1925 3584 2291 3584 
Q 2894 3584 3203 3211 
Q 3513 2838 3513 2113 
z
" transform="scale(0.015625)"/>
     <path id="DejaVuSans-79" d="M 2059 -325 
Q 1816 -950 1584 -1140 
Q 1353 -1331 966 -1331 
L 506 -1331 
L 506 -850 
L 844 -850 
Q 1081 -850 1212 -737 
Q 1344 -625 1503 -206 
L 1606 56 
L 191 3500 
L 800 3500 
L 1894 763 
L 2988 3500 
L 3597 3500 
L 2059 -325 
z
" transform="scale(0.015625)"/>
     <path id="DejaVuSans-76" d="M 191 3500 
L 800 3500 
L 1894 563 
L 2988 3500 
L 3597 3500 
L 2284 0 
L 1503 0 
L 191 3500 
z
" transform="scale(0.015625)"/>
     <path id="DejaVuSans-67" d="M 2906 1791 
Q 2906 2416 2648 2759 
Q 2391 3103 1925 3103 
Q 1463 3103 1205 2759 
Q 947 2416 947 1791 
Q 947 1169 1205 825 
Q 1463 481 1925 481 
Q 2391 481 2648 825 
Q 2906 1169 2906 1791 
z
M 3481 434 
Q 3481 -459 3084 -895 
Q 2688 -1331 1869 -1331 
Q 1566 -1331 1297 -1286 
Q 1028 -1241 775 -1147 
L 775 -588 
Q 1028 -725 1275 -790 
Q 1522 -856 1778 -856 
Q 2344 -856 2625 -561 
Q 2906 -266 2906 331 
L 2906 616 
Q 2728 306 2450 153 
Q 2172 0 1784 0 
Q 1141 0 747 490 
Q 353 981 353 1791 
Q 353 2603 747 3093 
Q 1141 3584 1784 3584 
Q 2172 3584 2450 3431 
Q 2728 3278 2906 2969 
L 2906 3500 
L 3481 3500 
L 3481 434 
z
" transform="scale(0.015625)"/>
    </defs>
    <use xlink:href="#DejaVuSans-4d"/>
    <use xlink:href="#DejaVuSans-6f" x="86.279297"/>
    <use xlink:href="#DejaVuSans-6e" x="147.460938"/>
    <use xlink:href="#DejaVuSans-74" x="210.839844"/>
    <use xlink:href="#DejaVuSans-68" x="250.048828"/>
    <use xlink:href="#DejaVuSans-6c" x="313.427734"/>
    <use xlink:href="#DejaVuSans-79" x="341.210938"/>
    <use xlink:href="#DejaVuSans-20" x="400.390625"/>
    <use xlink:href="#DejaVuSans-6e" x="432.177734"/>
    <use xlink:href="#DejaVuSans-75" x="495.556641"/>
    <use xlink:href="#DejaVuSans-6d" x="558.935547"/>
    <use xlink:href="#DejaVuSans-62" x="656.347656"/>
    <use xlink:href="#DejaVuSans-65" x="719.824219"/>
    <use xlink:href="#DejaVuSans-72" x="781.347656"/>
    <use xlink:href="#DejaVuSans-73" x="822.460938"/>
    <use xlink:href="#DejaVuSans-20" x="874.560547"/>
    <use xlink:href="#DejaVuSans-61" x="906.347656"/>
    <use xlink:href="#DejaVuSans-76" x="967.626953"/>
    <use xlink:href="#DejaVuSans-65" x="1026.806641"/>
    <use xlink:href="#DejaVuSans-72" x="1088.330078"/>
    <use xlink:href="#DejaVuSans-61" x="1129.443359"/>
    <use xlink:href="#DejaVuSans-67" x="1190.722656"/>
    <use xlink:href="#DejaVuSans-65" x="1254.199219"/>
    <use xlink:href="#DejaVuSans-64" x="1315.722656"/>
    <use xlink:href="#DejaVuSans-20" x="1379.199219"/>
    <use xlink:href="#DejaVuSans-6f" x="1410.986328"/>
    <use xlink:href="#DejaVuSans-76" x="1472.167969"/>
    <use xlink:href="#DejaVuSans-65" x="1531.347656"/>
    <use xlink:href="#DejaVuSans-72" x="1592.871094"/>
    <use xlink:href="#DejaVuSans-20" x="1633.984375"/>
    <use xlink:href="#DejaVuSans-36" x="1665.771484"/>
    <use xlink:href="#DejaVuSans-20" x="1729.394531"/>
    <use xlink:href="#DejaVuSans-6d" x="1761.181641"/>
    <use xlink:href="#DejaVuSans-6f" x="1858.59375"/>
    <use xlink:href="#DejaVuSans-6e" x="1919.775391"/>
    <use xlink:href="#DejaVuSans-74" x="1983.154297"/>
    <use xlink:href="#DejaVuSans-68" x="2022.363281"/>
    <use xlink:href="#DejaVuSans-73" x="2085.742188"/>
   </g>
  </g>
 </g>
 <defs>
  <clipPath id="p8050b7ccd7">
   <rect x="50.925" y="50.6" width="514.275" height="141"/>
  </clipPath>
  <clipPath id="pbe29d4dae3">
   <rect x="50.925" y="221.9" width="514.275" height="141"/>
  </clipPath>
  <clipPath id="p802ec06964">
   <rect x="50.925" y="393.2" width="514.275" height="141"/>
  </clipPath>
 </defs>
</svg>
