<?xml version="1.0" encoding="utf-8" standalone="no"?>
<!DOCTYPE svg PUBLIC "-//W3C//DTD SVG 1.1//EN"
  "http://www.w3.org/Graphics/SVG/1.1/DTD/svg11.dtd">
<svg xmlns:xlink="http://www.w3.org/1999/xlink" width="432pt" height="288pt" viewBox="0 0 432 288" xmlns="http://www.w3.org/2000/svg" version="1.1">
 <metadata>
  <rdf:RDF xmlns:dc="http://purl.org/dc/elements/1.1/" xmlns:cc="http://creativecommons.org/ns#" xmlns:rdf="http://www.w3.org/1999/02/22-rdf-syntax-ns#">
   <cc:Work>
    <dc:type rdf:resource="http://purl.org/dc/dcmitype/StillImage"/>
    <dc:date>2022-06-03T10:21:00.776099</dc:date>
    <dc:format>image/svg+xml</dc:format>
    <dc:creator>
     <cc:Agent>
      <dc:title>Matplotlib v3.5.0, https://matplotlib.org/</dc:title>
     </cc:Agent>
    </dc:creator>
   </cc:Work>
  </rdf:RDF>
 </metadata>
 <defs>
  <style type="text/css">*{stroke-linejoin: round; stroke-linecap: butt}</style>
 </defs>
 <g id="figure_1">
  <g id="patch_1">
   <path d="M 0 288 
L 432 288 
L 432 0 
L 0 0 
z
" style="fill: #ffffff"/>
  </g>
  <g id="axes_1">
   <g id="patch_2">
    <path d="M 57.3 246.2 
L 421.2 246.2 
L 421.2 34.6 
L 57.3 34.6 
z
" style="fill: #ffffff"/>
   </g>
   <g id="matplotlib.axis_1">
    <g id="xtick_1">
     <g id="line2d_1">
      <path d="M 59.936957 246.2 
L 59.936957 34.6 
" clip-path="url(#p45989291ea)" style="fill: none; stroke: #b0b0b0; stroke-width: 0.8; stroke-linecap: square"/>
     </g>
     <g id="line2d_2">
      <defs>
       <path id="m3c29e0b461" d="M 0 0 
L 0 3.5 
" style="stroke: #000000; stroke-width: 0.8"/>
      </defs>
      <g>
       <use xlink:href="#m3c29e0b461" x="59.936957" y="246.2" style="stroke: #000000; stroke-width: 0.8"/>
      </g>
     </g>
     <g id="text_1">
      <!-- 2011 -->
      <g transform="translate(47.211957 260.798437)scale(0.1 -0.1)">
       <defs>
        <path id="DejaVuSans-32" d="M 1228 531 
L 3431 531 
L 3431 0 
L 469 0 
L 469 531 
Q 828 903 1448 1529 
Q 2069 2156 2228 2338 
Q 2531 2678 2651 2914 
Q 2772 3150 2772 3378 
Q 2772 3750 2511 3984 
Q 2250 4219 1831 4219 
Q 1534 4219 1204 4116 
Q 875 4013 500 3803 
L 500 4441 
Q 881 4594 1212 4672 
Q 1544 4750 1819 4750 
Q 2544 4750 2975 4387 
Q 3406 4025 3406 3419 
Q 3406 3131 3298 2873 
Q 3191 2616 2906 2266 
Q 2828 2175 2409 1742 
Q 1991 1309 1228 531 
z
" transform="scale(0.015625)"/>
        <path id="DejaVuSans-30" d="M 2034 4250 
Q 1547 4250 1301 3770 
Q 1056 3291 1056 2328 
Q 1056 1369 1301 889 
Q 1547 409 2034 409 
Q 2525 409 2770 889 
Q 3016 1369 3016 2328 
Q 3016 3291 2770 3770 
Q 2525 4250 2034 4250 
z
M 2034 4750 
Q 2819 4750 3233 4129 
Q 3647 3509 3647 2328 
Q 3647 1150 3233 529 
Q 2819 -91 2034 -91 
Q 1250 -91 836 529 
Q 422 1150 422 2328 
Q 422 3509 836 4129 
Q 1250 4750 2034 4750 
z
" transform="scale(0.015625)"/>
        <path id="DejaVuSans-31" d="M 794 531 
L 1825 531 
L 1825 4091 
L 703 3866 
L 703 4441 
L 1819 4666 
L 2450 4666 
L 2450 531 
L 3481 531 
L 3481 0 
L 794 0 
L 794 531 
z
" transform="scale(0.015625)"/>
       </defs>
       <use xlink:href="#DejaVuSans-32"/>
       <use xlink:href="#DejaVuSans-30" x="63.623047"/>
       <use xlink:href="#DejaVuSans-31" x="127.246094"/>
       <use xlink:href="#DejaVuSans-31" x="190.869141"/>
      </g>
     </g>
    </g>
    <g id="xtick_2">
     <g id="line2d_3">
      <path d="M 123.223913 246.2 
L 123.223913 34.6 
" clip-path="url(#p45989291ea)" style="fill: none; stroke: #b0b0b0; stroke-width: 0.8; stroke-linecap: square"/>
     </g>
     <g id="line2d_4">
      <g>
       <use xlink:href="#m3c29e0b461" x="123.223913" y="246.2" style="stroke: #000000; stroke-width: 0.8"/>
      </g>
     </g>
     <g id="text_2">
      <!-- 2013 -->
      <g transform="translate(110.498913 260.798437)scale(0.1 -0.1)">
       <defs>
        <path id="DejaVuSans-33" d="M 2597 2516 
Q 3050 2419 3304 2112 
Q 3559 1806 3559 1356 
Q 3559 666 3084 287 
Q 2609 -91 1734 -91 
Q 1441 -91 1130 -33 
Q 819 25 488 141 
L 488 750 
Q 750 597 1062 519 
Q 1375 441 1716 441 
Q 2309 441 2620 675 
Q 2931 909 2931 1356 
Q 2931 1769 2642 2001 
Q 2353 2234 1838 2234 
L 1294 2234 
L 1294 2753 
L 1863 2753 
Q 2328 2753 2575 2939 
Q 2822 3125 2822 3475 
Q 2822 3834 2567 4026 
Q 2313 4219 1838 4219 
Q 1578 4219 1281 4162 
Q 984 4106 628 3988 
L 628 4550 
Q 988 4650 1302 4700 
Q 1616 4750 1894 4750 
Q 2613 4750 3031 4423 
Q 3450 4097 3450 3541 
Q 3450 3153 3228 2886 
Q 3006 2619 2597 2516 
z
" transform="scale(0.015625)"/>
       </defs>
       <use xlink:href="#DejaVuSans-32"/>
       <use xlink:href="#DejaVuSans-30" x="63.623047"/>
       <use xlink:href="#DejaVuSans-31" x="127.246094"/>
       <use xlink:href="#DejaVuSans-33" x="190.869141"/>
      </g>
     </g>
    </g>
    <g id="xtick_3">
     <g id="line2d_5">
      <path d="M 186.51087 246.2 
L 186.51087 34.6 
" clip-path="url(#p45989291ea)" style="fill: none; stroke: #b0b0b0; stroke-width: 0.8; stroke-linecap: square"/>
     </g>
     <g id="line2d_6">
      <g>
       <use xlink:href="#m3c29e0b461" x="186.51087" y="246.2" style="stroke: #000000; stroke-width: 0.8"/>
      </g>
     </g>
     <g id="text_3">
      <!-- 2015 -->
      <g transform="translate(173.78587 260.798437)scale(0.1 -0.1)">
       <defs>
        <path id="DejaVuSans-35" d="M 691 4666 
L 3169 4666 
L 3169 4134 
L 1269 4134 
L 1269 2991 
Q 1406 3038 1543 3061 
Q 1681 3084 1819 3084 
Q 2600 3084 3056 2656 
Q 3513 2228 3513 1497 
Q 3513 744 3044 326 
Q 2575 -91 1722 -91 
Q 1428 -91 1123 -41 
Q 819 9 494 109 
L 494 744 
Q 775 591 1075 516 
Q 1375 441 1709 441 
Q 2250 441 2565 725 
Q 2881 1009 2881 1497 
Q 2881 1984 2565 2268 
Q 2250 2553 1709 2553 
Q 1456 2553 1204 2497 
Q 953 2441 691 2322 
L 691 4666 
z
" transform="scale(0.015625)"/>
       </defs>
       <use xlink:href="#DejaVuSans-32"/>
       <use xlink:href="#DejaVuSans-30" x="63.623047"/>
       <use xlink:href="#DejaVuSans-31" x="127.246094"/>
       <use xlink:href="#DejaVuSans-35" x="190.869141"/>
      </g>
     </g>
    </g>
    <g id="xtick_4">
     <g id="line2d_7">
      <path d="M 249.797826 246.2 
L 249.797826 34.6 
" clip-path="url(#p45989291ea)" style="fill: none; stroke: #b0b0b0; stroke-width: 0.8; stroke-linecap: square"/>
     </g>
     <g id="line2d_8">
      <g>
       <use xlink:href="#m3c29e0b461" x="249.797826" y="246.2" style="stroke: #000000; stroke-width: 0.8"/>
      </g>
     </g>
     <g id="text_4">
      <!-- 2017 -->
      <g transform="translate(237.072826 260.798437)scale(0.1 -0.1)">
       <defs>
        <path id="DejaVuSans-37" d="M 525 4666 
L 3525 4666 
L 3525 4397 
L 1831 0 
L 1172 0 
L 2766 4134 
L 525 4134 
L 525 4666 
z
" transform="scale(0.015625)"/>
       </defs>
       <use xlink:href="#DejaVuSans-32"/>
       <use xlink:href="#DejaVuSans-30" x="63.623047"/>
       <use xlink:href="#DejaVuSans-31" x="127.246094"/>
       <use xlink:href="#DejaVuSans-37" x="190.869141"/>
      </g>
     </g>
    </g>
    <g id="xtick_5">
     <g id="line2d_9">
      <path d="M 313.084783 246.2 
L 313.084783 34.6 
" clip-path="url(#p45989291ea)" style="fill: none; stroke: #b0b0b0; stroke-width: 0.8; stroke-linecap: square"/>
     </g>
     <g id="line2d_10">
      <g>
       <use xlink:href="#m3c29e0b461" x="313.084783" y="246.2" style="stroke: #000000; stroke-width: 0.8"/>
      </g>
     </g>
     <g id="text_5">
      <!-- 2019 -->
      <g transform="translate(300.359783 260.798437)scale(0.1 -0.1)">
       <defs>
        <path id="DejaVuSans-39" d="M 703 97 
L 703 672 
Q 941 559 1184 500 
Q 1428 441 1663 441 
Q 2288 441 2617 861 
Q 2947 1281 2994 2138 
Q 2813 1869 2534 1725 
Q 2256 1581 1919 1581 
Q 1219 1581 811 2004 
Q 403 2428 403 3163 
Q 403 3881 828 4315 
Q 1253 4750 1959 4750 
Q 2769 4750 3195 4129 
Q 3622 3509 3622 2328 
Q 3622 1225 3098 567 
Q 2575 -91 1691 -91 
Q 1453 -91 1209 -44 
Q 966 3 703 97 
z
M 1959 2075 
Q 2384 2075 2632 2365 
Q 2881 2656 2881 3163 
Q 2881 3666 2632 3958 
Q 2384 4250 1959 4250 
Q 1534 4250 1286 3958 
Q 1038 3666 1038 3163 
Q 1038 2656 1286 2365 
Q 1534 2075 1959 2075 
z
" transform="scale(0.015625)"/>
       </defs>
       <use xlink:href="#DejaVuSans-32"/>
       <use xlink:href="#DejaVuSans-30" x="63.623047"/>
       <use xlink:href="#DejaVuSans-31" x="127.246094"/>
       <use xlink:href="#DejaVuSans-39" x="190.869141"/>
      </g>
     </g>
    </g>
    <g id="xtick_6">
     <g id="line2d_11">
      <path d="M 376.371739 246.2 
L 376.371739 34.6 
" clip-path="url(#p45989291ea)" style="fill: none; stroke: #b0b0b0; stroke-width: 0.8; stroke-linecap: square"/>
     </g>
     <g id="line2d_12">
      <g>
       <use xlink:href="#m3c29e0b461" x="376.371739" y="246.2" style="stroke: #000000; stroke-width: 0.8"/>
      </g>
     </g>
     <g id="text_6">
      <!-- 2021 -->
      <g transform="translate(363.646739 260.798437)scale(0.1 -0.1)">
       <use xlink:href="#DejaVuSans-32"/>
       <use xlink:href="#DejaVuSans-30" x="63.623047"/>
       <use xlink:href="#DejaVuSans-32" x="127.246094"/>
       <use xlink:href="#DejaVuSans-31" x="190.869141"/>
      </g>
     </g>
    </g>
    <g id="xtick_7">
     <g id="line2d_13">
      <defs>
       <path id="ma9d4cf1091" d="M 0 0 
L 0 2 
" style="stroke: #000000; stroke-width: 0.6"/>
      </defs>
      <g>
       <use xlink:href="#ma9d4cf1091" x="91.580435" y="246.2" style="stroke: #000000; stroke-width: 0.6"/>
      </g>
     </g>
    </g>
    <g id="xtick_8">
     <g id="line2d_14">
      <g>
       <use xlink:href="#ma9d4cf1091" x="154.867391" y="246.2" style="stroke: #000000; stroke-width: 0.6"/>
      </g>
     </g>
    </g>
    <g id="xtick_9">
     <g id="line2d_15">
      <g>
       <use xlink:href="#ma9d4cf1091" x="218.154348" y="246.2" style="stroke: #000000; stroke-width: 0.6"/>
      </g>
     </g>
    </g>
    <g id="xtick_10">
     <g id="line2d_16">
      <g>
       <use xlink:href="#ma9d4cf1091" x="281.441304" y="246.2" style="stroke: #000000; stroke-width: 0.6"/>
      </g>
     </g>
    </g>
    <g id="xtick_11">
     <g id="line2d_17">
      <g>
       <use xlink:href="#ma9d4cf1091" x="344.728261" y="246.2" style="stroke: #000000; stroke-width: 0.6"/>
      </g>
     </g>
    </g>
    <g id="xtick_12">
     <g id="line2d_18">
      <g>
       <use xlink:href="#ma9d4cf1091" x="408.015217" y="246.2" style="stroke: #000000; stroke-width: 0.6"/>
      </g>
     </g>
    </g>
    <g id="text_7">
     <!-- month -->
     <g transform="translate(223.022656 274.476562)scale(0.1 -0.1)">
      <defs>
       <path id="DejaVuSans-6d" d="M 3328 2828 
Q 3544 3216 3844 3400 
Q 4144 3584 4550 3584 
Q 5097 3584 5394 3201 
Q 5691 2819 5691 2113 
L 5691 0 
L 5113 0 
L 5113 2094 
Q 5113 2597 4934 2840 
Q 4756 3084 4391 3084 
Q 3944 3084 3684 2787 
Q 3425 2491 3425 1978 
L 3425 0 
L 2847 0 
L 2847 2094 
Q 2847 2600 2669 2842 
Q 2491 3084 2119 3084 
Q 1678 3084 1418 2786 
Q 1159 2488 1159 1978 
L 1159 0 
L 581 0 
L 581 3500 
L 1159 3500 
L 1159 2956 
Q 1356 3278 1631 3431 
Q 1906 3584 2284 3584 
Q 2666 3584 2933 3390 
Q 3200 3197 3328 2828 
z
" transform="scale(0.015625)"/>
       <path id="DejaVuSans-6f" d="M 1959 3097 
Q 1497 3097 1228 2736 
Q 959 2375 959 1747 
Q 959 1119 1226 758 
Q 1494 397 1959 397 
Q 2419 397 2687 759 
Q 2956 1122 2956 1747 
Q 2956 2369 2687 2733 
Q 2419 3097 1959 3097 
z
M 1959 3584 
Q 2709 3584 3137 3096 
Q 3566 2609 3566 1747 
Q 3566 888 3137 398 
Q 2709 -91 1959 -91 
Q 1206 -91 779 398 
Q 353 888 353 1747 
Q 353 2609 779 3096 
Q 1206 3584 1959 3584 
z
" transform="scale(0.015625)"/>
       <path id="DejaVuSans-6e" d="M 3513 2113 
L 3513 0 
L 2938 0 
L 2938 2094 
Q 2938 2591 2744 2837 
Q 2550 3084 2163 3084 
Q 1697 3084 1428 2787 
Q 1159 2491 1159 1978 
L 1159 0 
L 581 0 
L 581 3500 
L 1159 3500 
L 1159 2956 
Q 1366 3272 1645 3428 
Q 1925 3584 2291 3584 
Q 2894 3584 3203 3211 
Q 3513 2838 3513 2113 
z
" transform="scale(0.015625)"/>
       <path id="DejaVuSans-74" d="M 1172 4494 
L 1172 3500 
L 2356 3500 
L 2356 3053 
L 1172 3053 
L 1172 1153 
Q 1172 725 1289 603 
Q 1406 481 1766 481 
L 2356 481 
L 2356 0 
L 1766 0 
Q 1100 0 847 248 
Q 594 497 594 1153 
L 594 3053 
L 172 3053 
L 172 3500 
L 594 3500 
L 594 4494 
L 1172 4494 
z
" transform="scale(0.015625)"/>
       <path id="DejaVuSans-68" d="M 3513 2113 
L 3513 0 
L 2938 0 
L 2938 2094 
Q 2938 2591 2744 2837 
Q 2550 3084 2163 3084 
Q 1697 3084 1428 2787 
Q 1159 2491 1159 1978 
L 1159 0 
L 581 0 
L 581 4863 
L 1159 4863 
L 1159 2956 
Q 1366 3272 1645 3428 
Q 1925 3584 2291 3584 
Q 2894 3584 3203 3211 
Q 3513 2838 3513 2113 
z
" transform="scale(0.015625)"/>
      </defs>
      <use xlink:href="#DejaVuSans-6d"/>
      <use xlink:href="#DejaVuSans-6f" x="97.412109"/>
      <use xlink:href="#DejaVuSans-6e" x="158.59375"/>
      <use xlink:href="#DejaVuSans-74" x="221.972656"/>
      <use xlink:href="#DejaVuSans-68" x="261.181641"/>
     </g>
    </g>
   </g>
   <g id="matplotlib.axis_2">
    <g id="ytick_1">
     <g id="line2d_19">
      <path d="M 57.3 236.581818 
L 421.2 236.581818 
" clip-path="url(#p45989291ea)" style="fill: none; stroke: #b0b0b0; stroke-width: 0.8; stroke-linecap: square"/>
     </g>
     <g id="line2d_20">
      <defs>
       <path id="mc6b6411cc1" d="M 0 0 
L -3.5 0 
" style="stroke: #000000; stroke-width: 0.8"/>
      </defs>
      <g>
       <use xlink:href="#mc6b6411cc1" x="57.3" y="236.581818" style="stroke: #000000; stroke-width: 0.8"/>
      </g>
     </g>
     <g id="text_8">
      <!-- 0 -->
      <g transform="translate(43.9375 240.381037)scale(0.1 -0.1)">
       <use xlink:href="#DejaVuSans-30"/>
      </g>
     </g>
    </g>
    <g id="ytick_2">
     <g id="line2d_21">
      <path d="M 57.3 211.018952 
L 421.2 211.018952 
" clip-path="url(#p45989291ea)" style="fill: none; stroke: #b0b0b0; stroke-width: 0.8; stroke-linecap: square"/>
     </g>
     <g id="line2d_22">
      <g>
       <use xlink:href="#mc6b6411cc1" x="57.3" y="211.018952" style="stroke: #000000; stroke-width: 0.8"/>
      </g>
     </g>
     <g id="text_9">
      <!-- 200 -->
      <g transform="translate(31.2125 214.818171)scale(0.1 -0.1)">
       <use xlink:href="#DejaVuSans-32"/>
       <use xlink:href="#DejaVuSans-30" x="63.623047"/>
       <use xlink:href="#DejaVuSans-30" x="127.246094"/>
      </g>
     </g>
    </g>
    <g id="ytick_3">
     <g id="line2d_23">
      <path d="M 57.3 185.456086 
L 421.2 185.456086 
" clip-path="url(#p45989291ea)" style="fill: none; stroke: #b0b0b0; stroke-width: 0.8; stroke-linecap: square"/>
     </g>
     <g id="line2d_24">
      <g>
       <use xlink:href="#mc6b6411cc1" x="57.3" y="185.456086" style="stroke: #000000; stroke-width: 0.8"/>
      </g>
     </g>
     <g id="text_10">
      <!-- 400 -->
      <g transform="translate(31.2125 189.255304)scale(0.1 -0.1)">
       <defs>
        <path id="DejaVuSans-34" d="M 2419 4116 
L 825 1625 
L 2419 1625 
L 2419 4116 
z
M 2253 4666 
L 3047 4666 
L 3047 1625 
L 3713 1625 
L 3713 1100 
L 3047 1100 
L 3047 0 
L 2419 0 
L 2419 1100 
L 313 1100 
L 313 1709 
L 2253 4666 
z
" transform="scale(0.015625)"/>
       </defs>
       <use xlink:href="#DejaVuSans-34"/>
       <use xlink:href="#DejaVuSans-30" x="63.623047"/>
       <use xlink:href="#DejaVuSans-30" x="127.246094"/>
      </g>
     </g>
    </g>
    <g id="ytick_4">
     <g id="line2d_25">
      <path d="M 57.3 159.893219 
L 421.2 159.893219 
" clip-path="url(#p45989291ea)" style="fill: none; stroke: #b0b0b0; stroke-width: 0.8; stroke-linecap: square"/>
     </g>
     <g id="line2d_26">
      <g>
       <use xlink:href="#mc6b6411cc1" x="57.3" y="159.893219" style="stroke: #000000; stroke-width: 0.8"/>
      </g>
     </g>
     <g id="text_11">
      <!-- 600 -->
      <g transform="translate(31.2125 163.692438)scale(0.1 -0.1)">
       <defs>
        <path id="DejaVuSans-36" d="M 2113 2584 
Q 1688 2584 1439 2293 
Q 1191 2003 1191 1497 
Q 1191 994 1439 701 
Q 1688 409 2113 409 
Q 2538 409 2786 701 
Q 3034 994 3034 1497 
Q 3034 2003 2786 2293 
Q 2538 2584 2113 2584 
z
M 3366 4563 
L 3366 3988 
Q 3128 4100 2886 4159 
Q 2644 4219 2406 4219 
Q 1781 4219 1451 3797 
Q 1122 3375 1075 2522 
Q 1259 2794 1537 2939 
Q 1816 3084 2150 3084 
Q 2853 3084 3261 2657 
Q 3669 2231 3669 1497 
Q 3669 778 3244 343 
Q 2819 -91 2113 -91 
Q 1303 -91 875 529 
Q 447 1150 447 2328 
Q 447 3434 972 4092 
Q 1497 4750 2381 4750 
Q 2619 4750 2861 4703 
Q 3103 4656 3366 4563 
z
" transform="scale(0.015625)"/>
       </defs>
       <use xlink:href="#DejaVuSans-36"/>
       <use xlink:href="#DejaVuSans-30" x="63.623047"/>
       <use xlink:href="#DejaVuSans-30" x="127.246094"/>
      </g>
     </g>
    </g>
    <g id="ytick_5">
     <g id="line2d_27">
      <path d="M 57.3 134.330353 
L 421.2 134.330353 
" clip-path="url(#p45989291ea)" style="fill: none; stroke: #b0b0b0; stroke-width: 0.8; stroke-linecap: square"/>
     </g>
     <g id="line2d_28">
      <g>
       <use xlink:href="#mc6b6411cc1" x="57.3" y="134.330353" style="stroke: #000000; stroke-width: 0.8"/>
      </g>
     </g>
     <g id="text_12">
      <!-- 800 -->
      <g transform="translate(31.2125 138.129572)scale(0.1 -0.1)">
       <defs>
        <path id="DejaVuSans-38" d="M 2034 2216 
Q 1584 2216 1326 1975 
Q 1069 1734 1069 1313 
Q 1069 891 1326 650 
Q 1584 409 2034 409 
Q 2484 409 2743 651 
Q 3003 894 3003 1313 
Q 3003 1734 2745 1975 
Q 2488 2216 2034 2216 
z
M 1403 2484 
Q 997 2584 770 2862 
Q 544 3141 544 3541 
Q 544 4100 942 4425 
Q 1341 4750 2034 4750 
Q 2731 4750 3128 4425 
Q 3525 4100 3525 3541 
Q 3525 3141 3298 2862 
Q 3072 2584 2669 2484 
Q 3125 2378 3379 2068 
Q 3634 1759 3634 1313 
Q 3634 634 3220 271 
Q 2806 -91 2034 -91 
Q 1263 -91 848 271 
Q 434 634 434 1313 
Q 434 1759 690 2068 
Q 947 2378 1403 2484 
z
M 1172 3481 
Q 1172 3119 1398 2916 
Q 1625 2713 2034 2713 
Q 2441 2713 2670 2916 
Q 2900 3119 2900 3481 
Q 2900 3844 2670 4047 
Q 2441 4250 2034 4250 
Q 1625 4250 1398 4047 
Q 1172 3844 1172 3481 
z
" transform="scale(0.015625)"/>
       </defs>
       <use xlink:href="#DejaVuSans-38"/>
       <use xlink:href="#DejaVuSans-30" x="63.623047"/>
       <use xlink:href="#DejaVuSans-30" x="127.246094"/>
      </g>
     </g>
    </g>
    <g id="ytick_6">
     <g id="line2d_29">
      <path d="M 57.3 108.767487 
L 421.2 108.767487 
" clip-path="url(#p45989291ea)" style="fill: none; stroke: #b0b0b0; stroke-width: 0.8; stroke-linecap: square"/>
     </g>
     <g id="line2d_30">
      <g>
       <use xlink:href="#mc6b6411cc1" x="57.3" y="108.767487" style="stroke: #000000; stroke-width: 0.8"/>
      </g>
     </g>
     <g id="text_13">
      <!-- 1000 -->
      <g transform="translate(24.85 112.566705)scale(0.1 -0.1)">
       <use xlink:href="#DejaVuSans-31"/>
       <use xlink:href="#DejaVuSans-30" x="63.623047"/>
       <use xlink:href="#DejaVuSans-30" x="127.246094"/>
       <use xlink:href="#DejaVuSans-30" x="190.869141"/>
      </g>
     </g>
    </g>
    <g id="ytick_7">
     <g id="line2d_31">
      <path d="M 57.3 83.20462 
L 421.2 83.20462 
" clip-path="url(#p45989291ea)" style="fill: none; stroke: #b0b0b0; stroke-width: 0.8; stroke-linecap: square"/>
     </g>
     <g id="line2d_32">
      <g>
       <use xlink:href="#mc6b6411cc1" x="57.3" y="83.20462" style="stroke: #000000; stroke-width: 0.8"/>
      </g>
     </g>
     <g id="text_14">
      <!-- 1200 -->
      <g transform="translate(24.85 87.003839)scale(0.1 -0.1)">
       <use xlink:href="#DejaVuSans-31"/>
       <use xlink:href="#DejaVuSans-32" x="63.623047"/>
       <use xlink:href="#DejaVuSans-30" x="127.246094"/>
       <use xlink:href="#DejaVuSans-30" x="190.869141"/>
      </g>
     </g>
    </g>
    <g id="ytick_8">
     <g id="line2d_33">
      <path d="M 57.3 57.641754 
L 421.2 57.641754 
" clip-path="url(#p45989291ea)" style="fill: none; stroke: #b0b0b0; stroke-width: 0.8; stroke-linecap: square"/>
     </g>
     <g id="line2d_34">
      <g>
       <use xlink:href="#mc6b6411cc1" x="57.3" y="57.641754" style="stroke: #000000; stroke-width: 0.8"/>
      </g>
     </g>
     <g id="text_15">
      <!-- 1400 -->
      <g transform="translate(24.85 61.440973)scale(0.1 -0.1)">
       <use xlink:href="#DejaVuSans-31"/>
       <use xlink:href="#DejaVuSans-34" x="63.623047"/>
       <use xlink:href="#DejaVuSans-30" x="127.246094"/>
       <use xlink:href="#DejaVuSans-30" x="190.869141"/>
      </g>
     </g>
    </g>
    <g id="text_16">
     <!-- lines of code (in 1000s) -->
     <g transform="translate(18.770312 199.052344)rotate(-90)scale(0.1 -0.1)">
      <defs>
       <path id="DejaVuSans-6c" d="M 603 4863 
L 1178 4863 
L 1178 0 
L 603 0 
L 603 4863 
z
" transform="scale(0.015625)"/>
       <path id="DejaVuSans-69" d="M 603 3500 
L 1178 3500 
L 1178 0 
L 603 0 
L 603 3500 
z
M 603 4863 
L 1178 4863 
L 1178 4134 
L 603 4134 
L 603 4863 
z
" transform="scale(0.015625)"/>
       <path id="DejaVuSans-65" d="M 3597 1894 
L 3597 1613 
L 953 1613 
Q 991 1019 1311 708 
Q 1631 397 2203 397 
Q 2534 397 2845 478 
Q 3156 559 3463 722 
L 3463 178 
Q 3153 47 2828 -22 
Q 2503 -91 2169 -91 
Q 1331 -91 842 396 
Q 353 884 353 1716 
Q 353 2575 817 3079 
Q 1281 3584 2069 3584 
Q 2775 3584 3186 3129 
Q 3597 2675 3597 1894 
z
M 3022 2063 
Q 3016 2534 2758 2815 
Q 2500 3097 2075 3097 
Q 1594 3097 1305 2825 
Q 1016 2553 972 2059 
L 3022 2063 
z
" transform="scale(0.015625)"/>
       <path id="DejaVuSans-73" d="M 2834 3397 
L 2834 2853 
Q 2591 2978 2328 3040 
Q 2066 3103 1784 3103 
Q 1356 3103 1142 2972 
Q 928 2841 928 2578 
Q 928 2378 1081 2264 
Q 1234 2150 1697 2047 
L 1894 2003 
Q 2506 1872 2764 1633 
Q 3022 1394 3022 966 
Q 3022 478 2636 193 
Q 2250 -91 1575 -91 
Q 1294 -91 989 -36 
Q 684 19 347 128 
L 347 722 
Q 666 556 975 473 
Q 1284 391 1588 391 
Q 1994 391 2212 530 
Q 2431 669 2431 922 
Q 2431 1156 2273 1281 
Q 2116 1406 1581 1522 
L 1381 1569 
Q 847 1681 609 1914 
Q 372 2147 372 2553 
Q 372 3047 722 3315 
Q 1072 3584 1716 3584 
Q 2034 3584 2315 3537 
Q 2597 3491 2834 3397 
z
" transform="scale(0.015625)"/>
       <path id="DejaVuSans-20" transform="scale(0.015625)"/>
       <path id="DejaVuSans-66" d="M 2375 4863 
L 2375 4384 
L 1825 4384 
Q 1516 4384 1395 4259 
Q 1275 4134 1275 3809 
L 1275 3500 
L 2222 3500 
L 2222 3053 
L 1275 3053 
L 1275 0 
L 697 0 
L 697 3053 
L 147 3053 
L 147 3500 
L 697 3500 
L 697 3744 
Q 697 4328 969 4595 
Q 1241 4863 1831 4863 
L 2375 4863 
z
" transform="scale(0.015625)"/>
       <path id="DejaVuSans-63" d="M 3122 3366 
L 3122 2828 
Q 2878 2963 2633 3030 
Q 2388 3097 2138 3097 
Q 1578 3097 1268 2742 
Q 959 2388 959 1747 
Q 959 1106 1268 751 
Q 1578 397 2138 397 
Q 2388 397 2633 464 
Q 2878 531 3122 666 
L 3122 134 
Q 2881 22 2623 -34 
Q 2366 -91 2075 -91 
Q 1284 -91 818 406 
Q 353 903 353 1747 
Q 353 2603 823 3093 
Q 1294 3584 2113 3584 
Q 2378 3584 2631 3529 
Q 2884 3475 3122 3366 
z
" transform="scale(0.015625)"/>
       <path id="DejaVuSans-64" d="M 2906 2969 
L 2906 4863 
L 3481 4863 
L 3481 0 
L 2906 0 
L 2906 525 
Q 2725 213 2448 61 
Q 2172 -91 1784 -91 
Q 1150 -91 751 415 
Q 353 922 353 1747 
Q 353 2572 751 3078 
Q 1150 3584 1784 3584 
Q 2172 3584 2448 3432 
Q 2725 3281 2906 2969 
z
M 947 1747 
Q 947 1113 1208 752 
Q 1469 391 1925 391 
Q 2381 391 2643 752 
Q 2906 1113 2906 1747 
Q 2906 2381 2643 2742 
Q 2381 3103 1925 3103 
Q 1469 3103 1208 2742 
Q 947 2381 947 1747 
z
" transform="scale(0.015625)"/>
       <path id="DejaVuSans-28" d="M 1984 4856 
Q 1566 4138 1362 3434 
Q 1159 2731 1159 2009 
Q 1159 1288 1364 580 
Q 1569 -128 1984 -844 
L 1484 -844 
Q 1016 -109 783 600 
Q 550 1309 550 2009 
Q 550 2706 781 3412 
Q 1013 4119 1484 4856 
L 1984 4856 
z
" transform="scale(0.015625)"/>
       <path id="DejaVuSans-29" d="M 513 4856 
L 1013 4856 
Q 1481 4119 1714 3412 
Q 1947 2706 1947 2009 
Q 1947 1309 1714 600 
Q 1481 -109 1013 -844 
L 513 -844 
Q 928 -128 1133 580 
Q 1338 1288 1338 2009 
Q 1338 2731 1133 3434 
Q 928 4138 513 4856 
z
" transform="scale(0.015625)"/>
      </defs>
      <use xlink:href="#DejaVuSans-6c"/>
      <use xlink:href="#DejaVuSans-69" x="27.783203"/>
      <use xlink:href="#DejaVuSans-6e" x="55.566406"/>
      <use xlink:href="#DejaVuSans-65" x="118.945312"/>
      <use xlink:href="#DejaVuSans-73" x="180.46875"/>
      <use xlink:href="#DejaVuSans-20" x="232.568359"/>
      <use xlink:href="#DejaVuSans-6f" x="264.355469"/>
      <use xlink:href="#DejaVuSans-66" x="325.537109"/>
      <use xlink:href="#DejaVuSans-20" x="360.742188"/>
      <use xlink:href="#DejaVuSans-63" x="392.529297"/>
      <use xlink:href="#DejaVuSans-6f" x="447.509766"/>
      <use xlink:href="#DejaVuSans-64" x="508.691406"/>
      <use xlink:href="#DejaVuSans-65" x="572.167969"/>
      <use xlink:href="#DejaVuSans-20" x="633.691406"/>
      <use xlink:href="#DejaVuSans-28" x="665.478516"/>
      <use xlink:href="#DejaVuSans-69" x="704.492188"/>
      <use xlink:href="#DejaVuSans-6e" x="732.275391"/>
      <use xlink:href="#DejaVuSans-20" x="795.654297"/>
      <use xlink:href="#DejaVuSans-31" x="827.441406"/>
      <use xlink:href="#DejaVuSans-30" x="891.064453"/>
      <use xlink:href="#DejaVuSans-30" x="954.6875"/>
      <use xlink:href="#DejaVuSans-30" x="1018.310547"/>
      <use xlink:href="#DejaVuSans-73" x="1081.933594"/>
      <use xlink:href="#DejaVuSans-29" x="1134.033203"/>
     </g>
    </g>
   </g>
   <g id="line2d_35">
    <path d="M 57.3 196.176001 
L 59.936957 229.823508 
L 62.573913 216.139705 
L 65.21087 208.775043 
L 67.847826 216.771364 
L 70.484783 234.384818 
L 75.758696 222.498852 
L 78.395652 222.085884 
L 81.032609 216.411822 
L 83.669565 224.212586 
L 86.306522 225.960831 
L 88.943478 211.517044 
L 91.580435 206.416358 
L 94.217391 228.032062 
L 96.854348 230.408897 
L 99.491304 192.098469 
L 104.765217 210.772781 
L 107.402174 190.518683 
L 110.03913 216.838594 
L 112.676087 230.501563 
L 115.313043 232.624431 
L 117.95 232.006065 
L 120.586957 236.155046 
L 123.223913 231.295162 
L 125.86087 235.334478 
L 128.497826 236.282094 
L 131.134783 207.464691 
L 133.771739 234.903616 
L 136.408696 235.82503 
L 139.045652 236.494138 
L 144.319565 235.841518 
L 146.956522 231.875822 
L 149.593478 235.634075 
L 152.230435 229.435591 
L 154.867391 234.173668 
L 157.504348 235.016476 
L 160.141304 227.642867 
L 162.778261 232.560268 
L 165.415217 230.774702 
L 168.052174 226.644893 
L 170.68913 203.610066 
L 173.326087 233.224647 
L 175.963043 225.904209 
L 178.6 229.991072 
L 181.236957 230.285556 
L 183.873913 230.302939 
L 186.51087 230.642031 
L 189.147826 231.572391 
L 191.784783 227.971861 
L 194.421739 231.656109 
L 197.058696 230.221266 
L 199.695652 232.092723 
L 202.332609 217.515882 
L 204.969565 228.62397 
L 207.606522 224.508221 
L 210.243478 230.422573 
L 212.880435 233.714048 
L 215.517391 232.856414 
L 218.154348 229.888309 
L 220.791304 224.098065 
L 223.428261 232.009133 
L 226.065217 228.411415 
L 228.702174 230.070189 
L 231.33913 233.648351 
L 233.976087 231.337085 
L 236.613043 228.585754 
L 239.25 231.360475 
L 241.886957 228.350831 
L 244.523913 229.526595 
L 247.16087 230.838609 
L 249.797826 231.405593 
L 252.434783 230.566748 
L 255.071739 225.035711 
L 257.708696 229.495153 
L 260.345652 226.12635 
L 262.982609 231.975134 
L 265.619565 230.865322 
L 268.256522 230.589755 
L 270.893478 233.521687 
L 273.530435 229.497198 
L 276.167391 230.680886 
L 278.804348 231.502093 
L 281.441304 229.010992 
L 284.078261 229.144686 
L 286.715217 232.538795 
L 289.352174 234.787305 
L 291.98913 233.055549 
L 294.626087 232.393343 
L 297.263043 228.555973 
L 299.9 231.82508 
L 302.536957 233.691169 
L 305.173913 229.96896 
L 307.81087 230.935109 
L 310.447826 234.549315 
L 313.084783 233.604256 
L 318.358696 214.795993 
L 320.995652 215.536294 
L 323.632609 216.484421 
L 326.269565 220.153331 
L 328.906522 218.609589 
L 331.543478 230.354704 
L 334.180435 231.348077 
L 336.817391 231.288771 
L 339.454348 222.623726 
L 342.091304 229.246809 
L 344.728261 229.995418 
L 347.365217 229.080267 
L 350.002174 228.327057 
L 352.63913 220.268236 
L 355.276087 220.08674 
L 357.913043 228.93392 
L 360.55 231.866747 
L 363.186957 229.269816 
L 365.823913 228.214325 
L 368.46087 221.887644 
L 371.097826 225.907149 
L 373.734783 44.218182 
L 376.371739 227.445522 
L 379.008696 206.21684 
L 381.645652 213.597606 
L 384.282609 226.663298 
L 386.919565 229.252561 
L 389.556522 231.057683 
L 392.193478 221.27324 
L 394.830435 225.613304 
L 397.467391 232.053229 
L 400.104348 231.5444 
L 402.741304 227.659611 
L 405.378261 230.049995 
L 408.015217 224.52522 
L 413.28913 230.99058 
L 415.926087 225.440882 
L 418.563043 234.389802 
L 421.2 236.578495 
L 421.2 236.578495 
" clip-path="url(#p45989291ea)" style="fill: none; stroke: #1f77b4; stroke-width: 1.5; stroke-linecap: square"/>
   </g>
   <g id="line2d_36">
    <path d="M 57.3 236.128077 
L 59.936957 232.511954 
L 62.573913 228.230046 
L 65.21087 209.503841 
L 67.847826 196.139958 
L 70.484783 235.384837 
L 73.121739 233.557987 
L 75.758696 229.836289 
L 78.395652 227.099017 
L 81.032609 224.177182 
L 83.669565 229.694032 
L 86.306522 229.595103 
L 88.943478 220.451905 
L 91.580435 221.330117 
L 94.217391 230.637301 
L 96.854348 233.875733 
L 99.491304 231.641283 
L 102.128261 230.370809 
L 104.765217 220.845829 
L 107.402174 208.39633 
L 110.03913 228.831668 
L 112.676087 233.454585 
L 115.313043 232.651144 
L 117.95 232.16366 
L 120.586957 236.301138 
L 123.223913 233.235383 
L 125.86087 236.403517 
L 128.497826 236.437005 
L 131.134783 227.143497 
L 133.771739 234.007638 
L 136.408696 236.423456 
L 139.045652 236.457966 
L 141.682609 236.28056 
L 144.319565 236.324784 
L 146.956522 235.448233 
L 149.593478 235.91386 
L 152.230435 230.391514 
L 154.867391 234.17827 
L 157.504348 234.569893 
L 160.141304 234.510715 
L 162.778261 235.322847 
L 165.415217 232.350908 
L 168.052174 232.754674 
L 170.68913 207.753935 
L 173.326087 234.46713 
L 175.963043 228.923823 
L 178.6 232.748283 
L 181.236957 233.937212 
L 183.873913 233.166491 
L 186.51087 232.999438 
L 189.147826 234.143121 
L 191.784783 233.932738 
L 194.421739 232.492143 
L 197.058696 233.315395 
L 199.695652 234.518895 
L 202.332609 234.431725 
L 204.969565 230.035807 
L 207.606522 229.791043 
L 210.243478 224.765767 
L 212.880435 232.925434 
L 215.517391 234.690677 
L 218.154348 231.285959 
L 220.791304 224.3574 
L 223.428261 234.649393 
L 226.065217 234.705376 
L 228.702174 234.954997 
L 231.33913 235.48172 
L 233.976087 234.954742 
L 236.613043 232.742659 
L 239.25 234.479528 
L 241.886957 233.281908 
L 244.523913 234.185811 
L 247.16087 233.817578 
L 249.797826 220.530894 
L 252.434783 234.939532 
L 255.071739 233.083156 
L 257.708696 233.919957 
L 260.345652 230.22919 
L 262.982609 234.305317 
L 265.619565 232.409703 
L 268.256522 231.979096 
L 270.893478 235.109397 
L 273.530435 233.673531 
L 276.167391 232.951124 
L 278.804348 235.191837 
L 281.441304 233.501109 
L 284.078261 233.413429 
L 286.715217 235.318246 
L 289.352174 235.831804 
L 291.98913 235.426504 
L 297.263043 233.760445 
L 299.9 234.590854 
L 302.536957 233.042639 
L 305.173913 231.204158 
L 307.81087 234.702564 
L 310.447826 235.573491 
L 313.084783 232.748922 
L 315.721739 232.382734 
L 318.358696 232.466197 
L 320.995652 232.090934 
L 323.632609 232.837753 
L 326.269565 227.236162 
L 328.906522 227.197307 
L 331.543478 233.795721 
L 334.180435 233.284208 
L 336.817391 231.288004 
L 339.454348 231.543505 
L 342.091304 232.307323 
L 344.728261 233.413557 
L 347.365217 232.883255 
L 350.002174 231.960563 
L 352.63913 228.805722 
L 355.276087 230.349336 
L 357.913043 233.780384 
L 360.55 234.258281 
L 363.186957 233.56016 
L 365.823913 231.191504 
L 368.46087 231.912122 
L 371.097826 232.197914 
L 373.734783 57.043967 
L 376.371739 232.290708 
L 379.008696 209.308157 
L 381.645652 228.187229 
L 384.282609 233.626879 
L 386.919565 231.393451 
L 389.556522 212.191776 
L 392.193478 223.980475 
L 394.830435 231.822396 
L 397.467391 234.342 
L 400.104348 233.965075 
L 402.741304 232.146405 
L 405.378261 234.4771 
L 408.015217 227.755088 
L 410.652174 231.447133 
L 413.28913 232.057574 
L 415.926087 227.287416 
L 418.563043 234.798553 
L 421.2 236.581818 
L 421.2 236.581818 
" clip-path="url(#p45989291ea)" style="fill: none; stroke: #ff7f0e; stroke-width: 1.5; stroke-linecap: square"/>
   </g>
   <g id="patch_3">
    <path d="M 57.3 246.2 
L 57.3 34.6 
" style="fill: none; stroke: #000000; stroke-width: 0.8; stroke-linejoin: miter; stroke-linecap: square"/>
   </g>
   <g id="patch_4">
    <path d="M 421.2 246.2 
L 421.2 34.6 
" style="fill: none; stroke: #000000; stroke-width: 0.8; stroke-linejoin: miter; stroke-linecap: square"/>
   </g>
   <g id="patch_5">
    <path d="M 57.3 246.2 
L 421.2 246.2 
" style="fill: none; stroke: #000000; stroke-width: 0.8; stroke-linejoin: miter; stroke-linecap: square"/>
   </g>
   <g id="patch_6">
    <path d="M 57.3 34.6 
L 421.2 34.6 
" style="fill: none; stroke: #000000; stroke-width: 0.8; stroke-linejoin: miter; stroke-linecap: square"/>
   </g>
   <g id="legend_1">
    <g id="patch_7">
     <path d="M 64.3 71.95625 
L 142.267187 71.95625 
Q 144.267187 71.95625 144.267187 69.95625 
L 144.267187 41.6 
Q 144.267187 39.6 142.267187 39.6 
L 64.3 39.6 
Q 62.3 39.6 62.3 41.6 
L 62.3 69.95625 
Q 62.3 71.95625 64.3 71.95625 
z
" style="fill: #ffffff; opacity: 0.8; stroke: #cccccc; stroke-linejoin: miter"/>
    </g>
    <g id="line2d_37">
     <path d="M 66.3 47.698437 
L 76.3 47.698437 
L 86.3 47.698437 
" style="fill: none; stroke: #1f77b4; stroke-width: 1.5; stroke-linecap: square"/>
    </g>
    <g id="text_17">
     <!-- additions -->
     <g transform="translate(94.3 51.198437)scale(0.1 -0.1)">
      <defs>
       <path id="DejaVuSans-61" d="M 2194 1759 
Q 1497 1759 1228 1600 
Q 959 1441 959 1056 
Q 959 750 1161 570 
Q 1363 391 1709 391 
Q 2188 391 2477 730 
Q 2766 1069 2766 1631 
L 2766 1759 
L 2194 1759 
z
M 3341 1997 
L 3341 0 
L 2766 0 
L 2766 531 
Q 2569 213 2275 61 
Q 1981 -91 1556 -91 
Q 1019 -91 701 211 
Q 384 513 384 1019 
Q 384 1609 779 1909 
Q 1175 2209 1959 2209 
L 2766 2209 
L 2766 2266 
Q 2766 2663 2505 2880 
Q 2244 3097 1772 3097 
Q 1472 3097 1187 3025 
Q 903 2953 641 2809 
L 641 3341 
Q 956 3463 1253 3523 
Q 1550 3584 1831 3584 
Q 2591 3584 2966 3190 
Q 3341 2797 3341 1997 
z
" transform="scale(0.015625)"/>
      </defs>
      <use xlink:href="#DejaVuSans-61"/>
      <use xlink:href="#DejaVuSans-64" x="61.279297"/>
      <use xlink:href="#DejaVuSans-64" x="124.755859"/>
      <use xlink:href="#DejaVuSans-69" x="188.232422"/>
      <use xlink:href="#DejaVuSans-74" x="216.015625"/>
      <use xlink:href="#DejaVuSans-69" x="255.224609"/>
      <use xlink:href="#DejaVuSans-6f" x="283.007812"/>
      <use xlink:href="#DejaVuSans-6e" x="344.189453"/>
      <use xlink:href="#DejaVuSans-73" x="407.568359"/>
     </g>
    </g>
    <g id="line2d_38">
     <path d="M 66.3 62.376562 
L 76.3 62.376562 
L 86.3 62.376562 
" style="fill: none; stroke: #ff7f0e; stroke-width: 1.5; stroke-linecap: square"/>
    </g>
    <g id="text_18">
     <!-- deletions -->
     <g transform="translate(94.3 65.876562)scale(0.1 -0.1)">
      <use xlink:href="#DejaVuSans-64"/>
      <use xlink:href="#DejaVuSans-65" x="63.476562"/>
      <use xlink:href="#DejaVuSans-6c" x="125"/>
      <use xlink:href="#DejaVuSans-65" x="152.783203"/>
      <use xlink:href="#DejaVuSans-74" x="214.306641"/>
      <use xlink:href="#DejaVuSans-69" x="253.515625"/>
      <use xlink:href="#DejaVuSans-6f" x="281.298828"/>
      <use xlink:href="#DejaVuSans-6e" x="342.480469"/>
      <use xlink:href="#DejaVuSans-73" x="405.859375"/>
     </g>
    </g>
   </g>
  </g>
  <g id="text_19">
   <!-- monthly added/deleted LOC (averaged over 6 months) -->
   <g transform="translate(51.447188 14.878125)scale(0.12 -0.12)">
    <defs>
     <path id="DejaVuSans-79" d="M 2059 -325 
Q 1816 -950 1584 -1140 
Q 1353 -1331 966 -1331 
L 506 -1331 
L 506 -850 
L 844 -850 
Q 1081 -850 1212 -737 
Q 1344 -625 1503 -206 
L 1606 56 
L 191 3500 
L 800 3500 
L 1894 763 
L 2988 3500 
L 3597 3500 
L 2059 -325 
z
" transform="scale(0.015625)"/>
     <path id="DejaVuSans-2f" d="M 1625 4666 
L 2156 4666 
L 531 -594 
L 0 -594 
L 1625 4666 
z
" transform="scale(0.015625)"/>
     <path id="DejaVuSans-4c" d="M 628 4666 
L 1259 4666 
L 1259 531 
L 3531 531 
L 3531 0 
L 628 0 
L 628 4666 
z
" transform="scale(0.015625)"/>
     <path id="DejaVuSans-4f" d="M 2522 4238 
Q 1834 4238 1429 3725 
Q 1025 3213 1025 2328 
Q 1025 1447 1429 934 
Q 1834 422 2522 422 
Q 3209 422 3611 934 
Q 4013 1447 4013 2328 
Q 4013 3213 3611 3725 
Q 3209 4238 2522 4238 
z
M 2522 4750 
Q 3503 4750 4090 4092 
Q 4678 3434 4678 2328 
Q 4678 1225 4090 567 
Q 3503 -91 2522 -91 
Q 1538 -91 948 565 
Q 359 1222 359 2328 
Q 359 3434 948 4092 
Q 1538 4750 2522 4750 
z
" transform="scale(0.015625)"/>
     <path id="DejaVuSans-43" d="M 4122 4306 
L 4122 3641 
Q 3803 3938 3442 4084 
Q 3081 4231 2675 4231 
Q 1875 4231 1450 3742 
Q 1025 3253 1025 2328 
Q 1025 1406 1450 917 
Q 1875 428 2675 428 
Q 3081 428 3442 575 
Q 3803 722 4122 1019 
L 4122 359 
Q 3791 134 3420 21 
Q 3050 -91 2638 -91 
Q 1578 -91 968 557 
Q 359 1206 359 2328 
Q 359 3453 968 4101 
Q 1578 4750 2638 4750 
Q 3056 4750 3426 4639 
Q 3797 4528 4122 4306 
z
" transform="scale(0.015625)"/>
     <path id="DejaVuSans-76" d="M 191 3500 
L 800 3500 
L 1894 563 
L 2988 3500 
L 3597 3500 
L 2284 0 
L 1503 0 
L 191 3500 
z
" transform="scale(0.015625)"/>
     <path id="DejaVuSans-72" d="M 2631 2963 
Q 2534 3019 2420 3045 
Q 2306 3072 2169 3072 
Q 1681 3072 1420 2755 
Q 1159 2438 1159 1844 
L 1159 0 
L 581 0 
L 581 3500 
L 1159 3500 
L 1159 2956 
Q 1341 3275 1631 3429 
Q 1922 3584 2338 3584 
Q 2397 3584 2469 3576 
Q 2541 3569 2628 3553 
L 2631 2963 
z
" transform="scale(0.015625)"/>
     <path id="DejaVuSans-67" d="M 2906 1791 
Q 2906 2416 2648 2759 
Q 2391 3103 1925 3103 
Q 1463 3103 1205 2759 
Q 947 2416 947 1791 
Q 947 1169 1205 825 
Q 1463 481 1925 481 
Q 2391 481 2648 825 
Q 2906 1169 2906 1791 
z
M 3481 434 
Q 3481 -459 3084 -895 
Q 2688 -1331 1869 -1331 
Q 1566 -1331 1297 -1286 
Q 1028 -1241 775 -1147 
L 775 -588 
Q 1028 -725 1275 -790 
Q 1522 -856 1778 -856 
Q 2344 -856 2625 -561 
Q 2906 -266 2906 331 
L 2906 616 
Q 2728 306 2450 153 
Q 2172 0 1784 0 
Q 1141 0 747 490 
Q 353 981 353 1791 
Q 353 2603 747 3093 
Q 1141 3584 1784 3584 
Q 2172 3584 2450 3431 
Q 2728 3278 2906 2969 
L 2906 3500 
L 3481 3500 
L 3481 434 
z
" transform="scale(0.015625)"/>
    </defs>
    <use xlink:href="#DejaVuSans-6d"/>
    <use xlink:href="#DejaVuSans-6f" x="97.412109"/>
    <use xlink:href="#DejaVuSans-6e" x="158.59375"/>
    <use xlink:href="#DejaVuSans-74" x="221.972656"/>
    <use xlink:href="#DejaVuSans-68" x="261.181641"/>
    <use xlink:href="#DejaVuSans-6c" x="324.560547"/>
    <use xlink:href="#DejaVuSans-79" x="352.34375"/>
    <use xlink:href="#DejaVuSans-20" x="411.523438"/>
    <use xlink:href="#DejaVuSans-61" x="443.310547"/>
    <use xlink:href="#DejaVuSans-64" x="504.589844"/>
    <use xlink:href="#DejaVuSans-64" x="568.066406"/>
    <use xlink:href="#DejaVuSans-65" x="631.542969"/>
    <use xlink:href="#DejaVuSans-64" x="693.066406"/>
    <use xlink:href="#DejaVuSans-2f" x="756.542969"/>
    <use xlink:href="#DejaVuSans-64" x="790.234375"/>
    <use xlink:href="#DejaVuSans-65" x="853.710938"/>
    <use xlink:href="#DejaVuSans-6c" x="915.234375"/>
    <use xlink:href="#DejaVuSans-65" x="943.017578"/>
    <use xlink:href="#DejaVuSans-74" x="1004.541016"/>
    <use xlink:href="#DejaVuSans-65" x="1043.75"/>
    <use xlink:href="#DejaVuSans-64" x="1105.273438"/>
    <use xlink:href="#DejaVuSans-20" x="1168.75"/>
    <use xlink:href="#DejaVuSans-4c" x="1200.537109"/>
    <use xlink:href="#DejaVuSans-4f" x="1252.625"/>
    <use xlink:href="#DejaVuSans-43" x="1331.335938"/>
    <use xlink:href="#DejaVuSans-20" x="1401.160156"/>
    <use xlink:href="#DejaVuSans-28" x="1432.947266"/>
    <use xlink:href="#DejaVuSans-61" x="1471.960938"/>
    <use xlink:href="#DejaVuSans-76" x="1533.240234"/>
    <use xlink:href="#DejaVuSans-65" x="1592.419922"/>
    <use xlink:href="#DejaVuSans-72" x="1653.943359"/>
    <use xlink:href="#DejaVuSans-61" x="1695.056641"/>
    <use xlink:href="#DejaVuSans-67" x="1756.335938"/>
    <use xlink:href="#DejaVuSans-65" x="1819.8125"/>
    <use xlink:href="#DejaVuSans-64" x="1881.335938"/>
    <use xlink:href="#DejaVuSans-20" x="1944.8125"/>
    <use xlink:href="#DejaVuSans-6f" x="1976.599609"/>
    <use xlink:href="#DejaVuSans-76" x="2037.78125"/>
    <use xlink:href="#DejaVuSans-65" x="2096.960938"/>
    <use xlink:href="#DejaVuSans-72" x="2158.484375"/>
    <use xlink:href="#DejaVuSans-20" x="2199.597656"/>
    <use xlink:href="#DejaVuSans-36" x="2231.384766"/>
    <use xlink:href="#DejaVuSans-20" x="2295.007812"/>
    <use xlink:href="#DejaVuSans-6d" x="2326.794922"/>
    <use xlink:href="#DejaVuSans-6f" x="2424.207031"/>
    <use xlink:href="#DejaVuSans-6e" x="2485.388672"/>
    <use xlink:href="#DejaVuSans-74" x="2548.767578"/>
    <use xlink:href="#DejaVuSans-68" x="2587.976562"/>
    <use xlink:href="#DejaVuSans-73" x="2651.355469"/>
    <use xlink:href="#DejaVuSans-29" x="2703.455078"/>
   </g>
  </g>
 </g>
 <defs>
  <clipPath id="p45989291ea">
   <rect x="57.3" y="34.6" width="363.9" height="211.6"/>
  </clipPath>
 </defs>
</svg>
