<?xml version="1.0" encoding="utf-8" standalone="no"?>
<!DOCTYPE svg PUBLIC "-//W3C//DTD SVG 1.1//EN"
  "http://www.w3.org/Graphics/SVG/1.1/DTD/svg11.dtd">
<svg xmlns:xlink="http://www.w3.org/1999/xlink" width="720pt" height="432pt" viewBox="0 0 720 432" xmlns="http://www.w3.org/2000/svg" version="1.1">
 <metadata>
  <rdf:RDF xmlns:dc="http://purl.org/dc/elements/1.1/" xmlns:cc="http://creativecommons.org/ns#" xmlns:rdf="http://www.w3.org/1999/02/22-rdf-syntax-ns#">
   <cc:Work>
    <dc:type rdf:resource="http://purl.org/dc/dcmitype/StillImage"/>
    <dc:date>2022-06-02T17:41:04.130051</dc:date>
    <dc:format>image/svg+xml</dc:format>
    <dc:creator>
     <cc:Agent>
      <dc:title>Matplotlib v3.5.0, https://matplotlib.org/</dc:title>
     </cc:Agent>
    </dc:creator>
   </cc:Work>
  </rdf:RDF>
 </metadata>
 <defs>
  <style type="text/css">*{stroke-linejoin: round; stroke-linecap: butt}</style>
 </defs>
 <g id="figure_1">
  <g id="patch_1">
   <path d="M 0 432 
L 720 432 
L 720 0 
L 0 0 
z
" style="fill: #ffffff"/>
  </g>
  <g id="axes_1">
   <g id="patch_2">
    <path d="M 50.925 378.789746 
L 709.2 378.789746 
L 709.2 34.6 
L 50.925 34.6 
z
" style="fill: #ffffff"/>
   </g>
   <g id="matplotlib.axis_1">
    <g id="xtick_1">
     <g id="line2d_1">
      <path d="M 121.892669 378.789746 
L 121.892669 34.6 
" clip-path="url(#p6bccc54f97)" style="fill: none; stroke: #b0b0b0; stroke-width: 0.8; stroke-linecap: square"/>
     </g>
     <g id="line2d_2">
      <defs>
       <path id="mc519b0abd3" d="M 0 0 
L 0 3.5 
" style="stroke: #000000; stroke-width: 0.8"/>
      </defs>
      <g>
       <use xlink:href="#mc519b0abd3" x="121.892669" y="378.789746" style="stroke: #000000; stroke-width: 0.8"/>
      </g>
     </g>
     <g id="text_1">
      <!-- 2015 -->
      <g transform="translate(98.812478 405.095186)rotate(-30)scale(0.1 -0.1)">
       <defs>
        <path id="DejaVuSans-32" d="M 1228 531 
L 3431 531 
L 3431 0 
L 469 0 
L 469 531 
Q 828 903 1448 1529 
Q 2069 2156 2228 2338 
Q 2531 2678 2651 2914 
Q 2772 3150 2772 3378 
Q 2772 3750 2511 3984 
Q 2250 4219 1831 4219 
Q 1534 4219 1204 4116 
Q 875 4013 500 3803 
L 500 4441 
Q 881 4594 1212 4672 
Q 1544 4750 1819 4750 
Q 2544 4750 2975 4387 
Q 3406 4025 3406 3419 
Q 3406 3131 3298 2873 
Q 3191 2616 2906 2266 
Q 2828 2175 2409 1742 
Q 1991 1309 1228 531 
z
" transform="scale(0.015625)"/>
        <path id="DejaVuSans-30" d="M 2034 4250 
Q 1547 4250 1301 3770 
Q 1056 3291 1056 2328 
Q 1056 1369 1301 889 
Q 1547 409 2034 409 
Q 2525 409 2770 889 
Q 3016 1369 3016 2328 
Q 3016 3291 2770 3770 
Q 2525 4250 2034 4250 
z
M 2034 4750 
Q 2819 4750 3233 4129 
Q 3647 3509 3647 2328 
Q 3647 1150 3233 529 
Q 2819 -91 2034 -91 
Q 1250 -91 836 529 
Q 422 1150 422 2328 
Q 422 3509 836 4129 
Q 1250 4750 2034 4750 
z
" transform="scale(0.015625)"/>
        <path id="DejaVuSans-31" d="M 794 531 
L 1825 531 
L 1825 4091 
L 703 3866 
L 703 4441 
L 1819 4666 
L 2450 4666 
L 2450 531 
L 3481 531 
L 3481 0 
L 794 0 
L 794 531 
z
" transform="scale(0.015625)"/>
        <path id="DejaVuSans-35" d="M 691 4666 
L 3169 4666 
L 3169 4134 
L 1269 4134 
L 1269 2991 
Q 1406 3038 1543 3061 
Q 1681 3084 1819 3084 
Q 2600 3084 3056 2656 
Q 3513 2228 3513 1497 
Q 3513 744 3044 326 
Q 2575 -91 1722 -91 
Q 1428 -91 1123 -41 
Q 819 9 494 109 
L 494 744 
Q 775 591 1075 516 
Q 1375 441 1709 441 
Q 2250 441 2565 725 
Q 2881 1009 2881 1497 
Q 2881 1984 2565 2268 
Q 2250 2553 1709 2553 
Q 1456 2553 1204 2497 
Q 953 2441 691 2322 
L 691 4666 
z
" transform="scale(0.015625)"/>
       </defs>
       <use xlink:href="#DejaVuSans-32"/>
       <use xlink:href="#DejaVuSans-30" x="63.623047"/>
       <use xlink:href="#DejaVuSans-31" x="127.246094"/>
       <use xlink:href="#DejaVuSans-35" x="190.869141"/>
      </g>
     </g>
    </g>
    <g id="xtick_2">
     <g id="line2d_3">
      <path d="M 197.095684 378.789746 
L 197.095684 34.6 
" clip-path="url(#p6bccc54f97)" style="fill: none; stroke: #b0b0b0; stroke-width: 0.8; stroke-linecap: square"/>
     </g>
     <g id="line2d_4">
      <g>
       <use xlink:href="#mc519b0abd3" x="197.095684" y="378.789746" style="stroke: #000000; stroke-width: 0.8"/>
      </g>
     </g>
     <g id="text_2">
      <!-- 2016 -->
      <g transform="translate(174.015493 405.095186)rotate(-30)scale(0.1 -0.1)">
       <defs>
        <path id="DejaVuSans-36" d="M 2113 2584 
Q 1688 2584 1439 2293 
Q 1191 2003 1191 1497 
Q 1191 994 1439 701 
Q 1688 409 2113 409 
Q 2538 409 2786 701 
Q 3034 994 3034 1497 
Q 3034 2003 2786 2293 
Q 2538 2584 2113 2584 
z
M 3366 4563 
L 3366 3988 
Q 3128 4100 2886 4159 
Q 2644 4219 2406 4219 
Q 1781 4219 1451 3797 
Q 1122 3375 1075 2522 
Q 1259 2794 1537 2939 
Q 1816 3084 2150 3084 
Q 2853 3084 3261 2657 
Q 3669 2231 3669 1497 
Q 3669 778 3244 343 
Q 2819 -91 2113 -91 
Q 1303 -91 875 529 
Q 447 1150 447 2328 
Q 447 3434 972 4092 
Q 1497 4750 2381 4750 
Q 2619 4750 2861 4703 
Q 3103 4656 3366 4563 
z
" transform="scale(0.015625)"/>
       </defs>
       <use xlink:href="#DejaVuSans-32"/>
       <use xlink:href="#DejaVuSans-30" x="63.623047"/>
       <use xlink:href="#DejaVuSans-31" x="127.246094"/>
       <use xlink:href="#DejaVuSans-36" x="190.869141"/>
      </g>
     </g>
    </g>
    <g id="xtick_3">
     <g id="line2d_5">
      <path d="M 272.504734 378.789746 
L 272.504734 34.6 
" clip-path="url(#p6bccc54f97)" style="fill: none; stroke: #b0b0b0; stroke-width: 0.8; stroke-linecap: square"/>
     </g>
     <g id="line2d_6">
      <g>
       <use xlink:href="#mc519b0abd3" x="272.504734" y="378.789746" style="stroke: #000000; stroke-width: 0.8"/>
      </g>
     </g>
     <g id="text_3">
      <!-- 2017 -->
      <g transform="translate(249.424544 405.095186)rotate(-30)scale(0.1 -0.1)">
       <defs>
        <path id="DejaVuSans-37" d="M 525 4666 
L 3525 4666 
L 3525 4397 
L 1831 0 
L 1172 0 
L 2766 4134 
L 525 4134 
L 525 4666 
z
" transform="scale(0.015625)"/>
       </defs>
       <use xlink:href="#DejaVuSans-32"/>
       <use xlink:href="#DejaVuSans-30" x="63.623047"/>
       <use xlink:href="#DejaVuSans-31" x="127.246094"/>
       <use xlink:href="#DejaVuSans-37" x="190.869141"/>
      </g>
     </g>
    </g>
    <g id="xtick_4">
     <g id="line2d_7">
      <path d="M 347.707749 378.789746 
L 347.707749 34.6 
" clip-path="url(#p6bccc54f97)" style="fill: none; stroke: #b0b0b0; stroke-width: 0.8; stroke-linecap: square"/>
     </g>
     <g id="line2d_8">
      <g>
       <use xlink:href="#mc519b0abd3" x="347.707749" y="378.789746" style="stroke: #000000; stroke-width: 0.8"/>
      </g>
     </g>
     <g id="text_4">
      <!-- 2018 -->
      <g transform="translate(324.627559 405.095186)rotate(-30)scale(0.1 -0.1)">
       <defs>
        <path id="DejaVuSans-38" d="M 2034 2216 
Q 1584 2216 1326 1975 
Q 1069 1734 1069 1313 
Q 1069 891 1326 650 
Q 1584 409 2034 409 
Q 2484 409 2743 651 
Q 3003 894 3003 1313 
Q 3003 1734 2745 1975 
Q 2488 2216 2034 2216 
z
M 1403 2484 
Q 997 2584 770 2862 
Q 544 3141 544 3541 
Q 544 4100 942 4425 
Q 1341 4750 2034 4750 
Q 2731 4750 3128 4425 
Q 3525 4100 3525 3541 
Q 3525 3141 3298 2862 
Q 3072 2584 2669 2484 
Q 3125 2378 3379 2068 
Q 3634 1759 3634 1313 
Q 3634 634 3220 271 
Q 2806 -91 2034 -91 
Q 1263 -91 848 271 
Q 434 634 434 1313 
Q 434 1759 690 2068 
Q 947 2378 1403 2484 
z
M 1172 3481 
Q 1172 3119 1398 2916 
Q 1625 2713 2034 2713 
Q 2441 2713 2670 2916 
Q 2900 3119 2900 3481 
Q 2900 3844 2670 4047 
Q 2441 4250 2034 4250 
Q 1625 4250 1398 4047 
Q 1172 3844 1172 3481 
z
" transform="scale(0.015625)"/>
       </defs>
       <use xlink:href="#DejaVuSans-32"/>
       <use xlink:href="#DejaVuSans-30" x="63.623047"/>
       <use xlink:href="#DejaVuSans-31" x="127.246094"/>
       <use xlink:href="#DejaVuSans-38" x="190.869141"/>
      </g>
     </g>
    </g>
    <g id="xtick_5">
     <g id="line2d_9">
      <path d="M 422.910764 378.789746 
L 422.910764 34.6 
" clip-path="url(#p6bccc54f97)" style="fill: none; stroke: #b0b0b0; stroke-width: 0.8; stroke-linecap: square"/>
     </g>
     <g id="line2d_10">
      <g>
       <use xlink:href="#mc519b0abd3" x="422.910764" y="378.789746" style="stroke: #000000; stroke-width: 0.8"/>
      </g>
     </g>
     <g id="text_5">
      <!-- 2019 -->
      <g transform="translate(399.830574 405.095186)rotate(-30)scale(0.1 -0.1)">
       <defs>
        <path id="DejaVuSans-39" d="M 703 97 
L 703 672 
Q 941 559 1184 500 
Q 1428 441 1663 441 
Q 2288 441 2617 861 
Q 2947 1281 2994 2138 
Q 2813 1869 2534 1725 
Q 2256 1581 1919 1581 
Q 1219 1581 811 2004 
Q 403 2428 403 3163 
Q 403 3881 828 4315 
Q 1253 4750 1959 4750 
Q 2769 4750 3195 4129 
Q 3622 3509 3622 2328 
Q 3622 1225 3098 567 
Q 2575 -91 1691 -91 
Q 1453 -91 1209 -44 
Q 966 3 703 97 
z
M 1959 2075 
Q 2384 2075 2632 2365 
Q 2881 2656 2881 3163 
Q 2881 3666 2632 3958 
Q 2384 4250 1959 4250 
Q 1534 4250 1286 3958 
Q 1038 3666 1038 3163 
Q 1038 2656 1286 2365 
Q 1534 2075 1959 2075 
z
" transform="scale(0.015625)"/>
       </defs>
       <use xlink:href="#DejaVuSans-32"/>
       <use xlink:href="#DejaVuSans-30" x="63.623047"/>
       <use xlink:href="#DejaVuSans-31" x="127.246094"/>
       <use xlink:href="#DejaVuSans-39" x="190.869141"/>
      </g>
     </g>
    </g>
    <g id="xtick_6">
     <g id="line2d_11">
      <path d="M 498.113779 378.789746 
L 498.113779 34.6 
" clip-path="url(#p6bccc54f97)" style="fill: none; stroke: #b0b0b0; stroke-width: 0.8; stroke-linecap: square"/>
     </g>
     <g id="line2d_12">
      <g>
       <use xlink:href="#mc519b0abd3" x="498.113779" y="378.789746" style="stroke: #000000; stroke-width: 0.8"/>
      </g>
     </g>
     <g id="text_6">
      <!-- 2020 -->
      <g transform="translate(475.033588 405.095186)rotate(-30)scale(0.1 -0.1)">
       <use xlink:href="#DejaVuSans-32"/>
       <use xlink:href="#DejaVuSans-30" x="63.623047"/>
       <use xlink:href="#DejaVuSans-32" x="127.246094"/>
       <use xlink:href="#DejaVuSans-30" x="190.869141"/>
      </g>
     </g>
    </g>
    <g id="xtick_7">
     <g id="line2d_13">
      <path d="M 573.522829 378.789746 
L 573.522829 34.6 
" clip-path="url(#p6bccc54f97)" style="fill: none; stroke: #b0b0b0; stroke-width: 0.8; stroke-linecap: square"/>
     </g>
     <g id="line2d_14">
      <g>
       <use xlink:href="#mc519b0abd3" x="573.522829" y="378.789746" style="stroke: #000000; stroke-width: 0.8"/>
      </g>
     </g>
     <g id="text_7">
      <!-- 2021 -->
      <g transform="translate(550.442639 405.095186)rotate(-30)scale(0.1 -0.1)">
       <use xlink:href="#DejaVuSans-32"/>
       <use xlink:href="#DejaVuSans-30" x="63.623047"/>
       <use xlink:href="#DejaVuSans-32" x="127.246094"/>
       <use xlink:href="#DejaVuSans-31" x="190.869141"/>
      </g>
     </g>
    </g>
    <g id="xtick_8">
     <g id="line2d_15">
      <path d="M 648.725844 378.789746 
L 648.725844 34.6 
" clip-path="url(#p6bccc54f97)" style="fill: none; stroke: #b0b0b0; stroke-width: 0.8; stroke-linecap: square"/>
     </g>
     <g id="line2d_16">
      <g>
       <use xlink:href="#mc519b0abd3" x="648.725844" y="378.789746" style="stroke: #000000; stroke-width: 0.8"/>
      </g>
     </g>
     <g id="text_8">
      <!-- 2022 -->
      <g transform="translate(625.645654 405.095186)rotate(-30)scale(0.1 -0.1)">
       <use xlink:href="#DejaVuSans-32"/>
       <use xlink:href="#DejaVuSans-30" x="63.623047"/>
       <use xlink:href="#DejaVuSans-32" x="127.246094"/>
       <use xlink:href="#DejaVuSans-32" x="190.869141"/>
      </g>
     </g>
    </g>
    <g id="text_9">
     <!-- created time -->
     <g transform="translate(348.133594 418.494686)scale(0.1 -0.1)">
      <defs>
       <path id="DejaVuSans-63" d="M 3122 3366 
L 3122 2828 
Q 2878 2963 2633 3030 
Q 2388 3097 2138 3097 
Q 1578 3097 1268 2742 
Q 959 2388 959 1747 
Q 959 1106 1268 751 
Q 1578 397 2138 397 
Q 2388 397 2633 464 
Q 2878 531 3122 666 
L 3122 134 
Q 2881 22 2623 -34 
Q 2366 -91 2075 -91 
Q 1284 -91 818 406 
Q 353 903 353 1747 
Q 353 2603 823 3093 
Q 1294 3584 2113 3584 
Q 2378 3584 2631 3529 
Q 2884 3475 3122 3366 
z
" transform="scale(0.015625)"/>
       <path id="DejaVuSans-72" d="M 2631 2963 
Q 2534 3019 2420 3045 
Q 2306 3072 2169 3072 
Q 1681 3072 1420 2755 
Q 1159 2438 1159 1844 
L 1159 0 
L 581 0 
L 581 3500 
L 1159 3500 
L 1159 2956 
Q 1341 3275 1631 3429 
Q 1922 3584 2338 3584 
Q 2397 3584 2469 3576 
Q 2541 3569 2628 3553 
L 2631 2963 
z
" transform="scale(0.015625)"/>
       <path id="DejaVuSans-65" d="M 3597 1894 
L 3597 1613 
L 953 1613 
Q 991 1019 1311 708 
Q 1631 397 2203 397 
Q 2534 397 2845 478 
Q 3156 559 3463 722 
L 3463 178 
Q 3153 47 2828 -22 
Q 2503 -91 2169 -91 
Q 1331 -91 842 396 
Q 353 884 353 1716 
Q 353 2575 817 3079 
Q 1281 3584 2069 3584 
Q 2775 3584 3186 3129 
Q 3597 2675 3597 1894 
z
M 3022 2063 
Q 3016 2534 2758 2815 
Q 2500 3097 2075 3097 
Q 1594 3097 1305 2825 
Q 1016 2553 972 2059 
L 3022 2063 
z
" transform="scale(0.015625)"/>
       <path id="DejaVuSans-61" d="M 2194 1759 
Q 1497 1759 1228 1600 
Q 959 1441 959 1056 
Q 959 750 1161 570 
Q 1363 391 1709 391 
Q 2188 391 2477 730 
Q 2766 1069 2766 1631 
L 2766 1759 
L 2194 1759 
z
M 3341 1997 
L 3341 0 
L 2766 0 
L 2766 531 
Q 2569 213 2275 61 
Q 1981 -91 1556 -91 
Q 1019 -91 701 211 
Q 384 513 384 1019 
Q 384 1609 779 1909 
Q 1175 2209 1959 2209 
L 2766 2209 
L 2766 2266 
Q 2766 2663 2505 2880 
Q 2244 3097 1772 3097 
Q 1472 3097 1187 3025 
Q 903 2953 641 2809 
L 641 3341 
Q 956 3463 1253 3523 
Q 1550 3584 1831 3584 
Q 2591 3584 2966 3190 
Q 3341 2797 3341 1997 
z
" transform="scale(0.015625)"/>
       <path id="DejaVuSans-74" d="M 1172 4494 
L 1172 3500 
L 2356 3500 
L 2356 3053 
L 1172 3053 
L 1172 1153 
Q 1172 725 1289 603 
Q 1406 481 1766 481 
L 2356 481 
L 2356 0 
L 1766 0 
Q 1100 0 847 248 
Q 594 497 594 1153 
L 594 3053 
L 172 3053 
L 172 3500 
L 594 3500 
L 594 4494 
L 1172 4494 
z
" transform="scale(0.015625)"/>
       <path id="DejaVuSans-64" d="M 2906 2969 
L 2906 4863 
L 3481 4863 
L 3481 0 
L 2906 0 
L 2906 525 
Q 2725 213 2448 61 
Q 2172 -91 1784 -91 
Q 1150 -91 751 415 
Q 353 922 353 1747 
Q 353 2572 751 3078 
Q 1150 3584 1784 3584 
Q 2172 3584 2448 3432 
Q 2725 3281 2906 2969 
z
M 947 1747 
Q 947 1113 1208 752 
Q 1469 391 1925 391 
Q 2381 391 2643 752 
Q 2906 1113 2906 1747 
Q 2906 2381 2643 2742 
Q 2381 3103 1925 3103 
Q 1469 3103 1208 2742 
Q 947 2381 947 1747 
z
" transform="scale(0.015625)"/>
       <path id="DejaVuSans-20" transform="scale(0.015625)"/>
       <path id="DejaVuSans-69" d="M 603 3500 
L 1178 3500 
L 1178 0 
L 603 0 
L 603 3500 
z
M 603 4863 
L 1178 4863 
L 1178 4134 
L 603 4134 
L 603 4863 
z
" transform="scale(0.015625)"/>
       <path id="DejaVuSans-6d" d="M 3328 2828 
Q 3544 3216 3844 3400 
Q 4144 3584 4550 3584 
Q 5097 3584 5394 3201 
Q 5691 2819 5691 2113 
L 5691 0 
L 5113 0 
L 5113 2094 
Q 5113 2597 4934 2840 
Q 4756 3084 4391 3084 
Q 3944 3084 3684 2787 
Q 3425 2491 3425 1978 
L 3425 0 
L 2847 0 
L 2847 2094 
Q 2847 2600 2669 2842 
Q 2491 3084 2119 3084 
Q 1678 3084 1418 2786 
Q 1159 2488 1159 1978 
L 1159 0 
L 581 0 
L 581 3500 
L 1159 3500 
L 1159 2956 
Q 1356 3278 1631 3431 
Q 1906 3584 2284 3584 
Q 2666 3584 2933 3390 
Q 3200 3197 3328 2828 
z
" transform="scale(0.015625)"/>
      </defs>
      <use xlink:href="#DejaVuSans-63"/>
      <use xlink:href="#DejaVuSans-72" x="54.980469"/>
      <use xlink:href="#DejaVuSans-65" x="93.84375"/>
      <use xlink:href="#DejaVuSans-61" x="155.367188"/>
      <use xlink:href="#DejaVuSans-74" x="216.646484"/>
      <use xlink:href="#DejaVuSans-65" x="255.855469"/>
      <use xlink:href="#DejaVuSans-64" x="317.378906"/>
      <use xlink:href="#DejaVuSans-20" x="380.855469"/>
      <use xlink:href="#DejaVuSans-74" x="412.642578"/>
      <use xlink:href="#DejaVuSans-69" x="451.851562"/>
      <use xlink:href="#DejaVuSans-6d" x="479.634766"/>
      <use xlink:href="#DejaVuSans-65" x="577.046875"/>
     </g>
    </g>
   </g>
   <g id="matplotlib.axis_2">
    <g id="ytick_1">
     <g id="line2d_17">
      <path d="M 50.925 363.580551 
L 709.2 363.580551 
" clip-path="url(#p6bccc54f97)" style="fill: none; stroke: #b0b0b0; stroke-width: 0.8; stroke-linecap: square"/>
     </g>
     <g id="line2d_18">
      <defs>
       <path id="m9406b62e3e" d="M 0 0 
L -3.5 0 
" style="stroke: #000000; stroke-width: 0.8"/>
      </defs>
      <g>
       <use xlink:href="#m9406b62e3e" x="50.925" y="363.580551" style="stroke: #000000; stroke-width: 0.8"/>
      </g>
     </g>
     <g id="text_10">
      <!-- 0 -->
      <g transform="translate(37.5625 367.37977)scale(0.1 -0.1)">
       <use xlink:href="#DejaVuSans-30"/>
      </g>
     </g>
    </g>
    <g id="ytick_2">
     <g id="line2d_19">
      <path d="M 50.925 320.001196 
L 709.2 320.001196 
" clip-path="url(#p6bccc54f97)" style="fill: none; stroke: #b0b0b0; stroke-width: 0.8; stroke-linecap: square"/>
     </g>
     <g id="line2d_20">
      <g>
       <use xlink:href="#m9406b62e3e" x="50.925" y="320.001196" style="stroke: #000000; stroke-width: 0.8"/>
      </g>
     </g>
     <g id="text_11">
      <!-- 100 -->
      <g transform="translate(24.8375 323.800415)scale(0.1 -0.1)">
       <use xlink:href="#DejaVuSans-31"/>
       <use xlink:href="#DejaVuSans-30" x="63.623047"/>
       <use xlink:href="#DejaVuSans-30" x="127.246094"/>
      </g>
     </g>
    </g>
    <g id="ytick_3">
     <g id="line2d_21">
      <path d="M 50.925 276.421841 
L 709.2 276.421841 
" clip-path="url(#p6bccc54f97)" style="fill: none; stroke: #b0b0b0; stroke-width: 0.8; stroke-linecap: square"/>
     </g>
     <g id="line2d_22">
      <g>
       <use xlink:href="#m9406b62e3e" x="50.925" y="276.421841" style="stroke: #000000; stroke-width: 0.8"/>
      </g>
     </g>
     <g id="text_12">
      <!-- 200 -->
      <g transform="translate(24.8375 280.22106)scale(0.1 -0.1)">
       <use xlink:href="#DejaVuSans-32"/>
       <use xlink:href="#DejaVuSans-30" x="63.623047"/>
       <use xlink:href="#DejaVuSans-30" x="127.246094"/>
      </g>
     </g>
    </g>
    <g id="ytick_4">
     <g id="line2d_23">
      <path d="M 50.925 232.842486 
L 709.2 232.842486 
" clip-path="url(#p6bccc54f97)" style="fill: none; stroke: #b0b0b0; stroke-width: 0.8; stroke-linecap: square"/>
     </g>
     <g id="line2d_24">
      <g>
       <use xlink:href="#m9406b62e3e" x="50.925" y="232.842486" style="stroke: #000000; stroke-width: 0.8"/>
      </g>
     </g>
     <g id="text_13">
      <!-- 300 -->
      <g transform="translate(24.8375 236.641705)scale(0.1 -0.1)">
       <defs>
        <path id="DejaVuSans-33" d="M 2597 2516 
Q 3050 2419 3304 2112 
Q 3559 1806 3559 1356 
Q 3559 666 3084 287 
Q 2609 -91 1734 -91 
Q 1441 -91 1130 -33 
Q 819 25 488 141 
L 488 750 
Q 750 597 1062 519 
Q 1375 441 1716 441 
Q 2309 441 2620 675 
Q 2931 909 2931 1356 
Q 2931 1769 2642 2001 
Q 2353 2234 1838 2234 
L 1294 2234 
L 1294 2753 
L 1863 2753 
Q 2328 2753 2575 2939 
Q 2822 3125 2822 3475 
Q 2822 3834 2567 4026 
Q 2313 4219 1838 4219 
Q 1578 4219 1281 4162 
Q 984 4106 628 3988 
L 628 4550 
Q 988 4650 1302 4700 
Q 1616 4750 1894 4750 
Q 2613 4750 3031 4423 
Q 3450 4097 3450 3541 
Q 3450 3153 3228 2886 
Q 3006 2619 2597 2516 
z
" transform="scale(0.015625)"/>
       </defs>
       <use xlink:href="#DejaVuSans-33"/>
       <use xlink:href="#DejaVuSans-30" x="63.623047"/>
       <use xlink:href="#DejaVuSans-30" x="127.246094"/>
      </g>
     </g>
    </g>
    <g id="ytick_5">
     <g id="line2d_25">
      <path d="M 50.925 189.263131 
L 709.2 189.263131 
" clip-path="url(#p6bccc54f97)" style="fill: none; stroke: #b0b0b0; stroke-width: 0.8; stroke-linecap: square"/>
     </g>
     <g id="line2d_26">
      <g>
       <use xlink:href="#m9406b62e3e" x="50.925" y="189.263131" style="stroke: #000000; stroke-width: 0.8"/>
      </g>
     </g>
     <g id="text_14">
      <!-- 400 -->
      <g transform="translate(24.8375 193.06235)scale(0.1 -0.1)">
       <defs>
        <path id="DejaVuSans-34" d="M 2419 4116 
L 825 1625 
L 2419 1625 
L 2419 4116 
z
M 2253 4666 
L 3047 4666 
L 3047 1625 
L 3713 1625 
L 3713 1100 
L 3047 1100 
L 3047 0 
L 2419 0 
L 2419 1100 
L 313 1100 
L 313 1709 
L 2253 4666 
z
" transform="scale(0.015625)"/>
       </defs>
       <use xlink:href="#DejaVuSans-34"/>
       <use xlink:href="#DejaVuSans-30" x="63.623047"/>
       <use xlink:href="#DejaVuSans-30" x="127.246094"/>
      </g>
     </g>
    </g>
    <g id="ytick_6">
     <g id="line2d_27">
      <path d="M 50.925 145.683776 
L 709.2 145.683776 
" clip-path="url(#p6bccc54f97)" style="fill: none; stroke: #b0b0b0; stroke-width: 0.8; stroke-linecap: square"/>
     </g>
     <g id="line2d_28">
      <g>
       <use xlink:href="#m9406b62e3e" x="50.925" y="145.683776" style="stroke: #000000; stroke-width: 0.8"/>
      </g>
     </g>
     <g id="text_15">
      <!-- 500 -->
      <g transform="translate(24.8375 149.482995)scale(0.1 -0.1)">
       <use xlink:href="#DejaVuSans-35"/>
       <use xlink:href="#DejaVuSans-30" x="63.623047"/>
       <use xlink:href="#DejaVuSans-30" x="127.246094"/>
      </g>
     </g>
    </g>
    <g id="ytick_7">
     <g id="line2d_29">
      <path d="M 50.925 102.104421 
L 709.2 102.104421 
" clip-path="url(#p6bccc54f97)" style="fill: none; stroke: #b0b0b0; stroke-width: 0.8; stroke-linecap: square"/>
     </g>
     <g id="line2d_30">
      <g>
       <use xlink:href="#m9406b62e3e" x="50.925" y="102.104421" style="stroke: #000000; stroke-width: 0.8"/>
      </g>
     </g>
     <g id="text_16">
      <!-- 600 -->
      <g transform="translate(24.8375 105.90364)scale(0.1 -0.1)">
       <use xlink:href="#DejaVuSans-36"/>
       <use xlink:href="#DejaVuSans-30" x="63.623047"/>
       <use xlink:href="#DejaVuSans-30" x="127.246094"/>
      </g>
     </g>
    </g>
    <g id="ytick_8">
     <g id="line2d_31">
      <path d="M 50.925 58.525066 
L 709.2 58.525066 
" clip-path="url(#p6bccc54f97)" style="fill: none; stroke: #b0b0b0; stroke-width: 0.8; stroke-linecap: square"/>
     </g>
     <g id="line2d_32">
      <g>
       <use xlink:href="#m9406b62e3e" x="50.925" y="58.525066" style="stroke: #000000; stroke-width: 0.8"/>
      </g>
     </g>
     <g id="text_17">
      <!-- 700 -->
      <g transform="translate(24.8375 62.324285)scale(0.1 -0.1)">
       <use xlink:href="#DejaVuSans-37"/>
       <use xlink:href="#DejaVuSans-30" x="63.623047"/>
       <use xlink:href="#DejaVuSans-30" x="127.246094"/>
      </g>
     </g>
    </g>
    <g id="text_18">
     <!-- count -->
     <g transform="translate(18.757812 220.801123)rotate(-90)scale(0.1 -0.1)">
      <defs>
       <path id="DejaVuSans-6f" d="M 1959 3097 
Q 1497 3097 1228 2736 
Q 959 2375 959 1747 
Q 959 1119 1226 758 
Q 1494 397 1959 397 
Q 2419 397 2687 759 
Q 2956 1122 2956 1747 
Q 2956 2369 2687 2733 
Q 2419 3097 1959 3097 
z
M 1959 3584 
Q 2709 3584 3137 3096 
Q 3566 2609 3566 1747 
Q 3566 888 3137 398 
Q 2709 -91 1959 -91 
Q 1206 -91 779 398 
Q 353 888 353 1747 
Q 353 2609 779 3096 
Q 1206 3584 1959 3584 
z
" transform="scale(0.015625)"/>
       <path id="DejaVuSans-75" d="M 544 1381 
L 544 3500 
L 1119 3500 
L 1119 1403 
Q 1119 906 1312 657 
Q 1506 409 1894 409 
Q 2359 409 2629 706 
Q 2900 1003 2900 1516 
L 2900 3500 
L 3475 3500 
L 3475 0 
L 2900 0 
L 2900 538 
Q 2691 219 2414 64 
Q 2138 -91 1772 -91 
Q 1169 -91 856 284 
Q 544 659 544 1381 
z
M 1991 3584 
L 1991 3584 
z
" transform="scale(0.015625)"/>
       <path id="DejaVuSans-6e" d="M 3513 2113 
L 3513 0 
L 2938 0 
L 2938 2094 
Q 2938 2591 2744 2837 
Q 2550 3084 2163 3084 
Q 1697 3084 1428 2787 
Q 1159 2491 1159 1978 
L 1159 0 
L 581 0 
L 581 3500 
L 1159 3500 
L 1159 2956 
Q 1366 3272 1645 3428 
Q 1925 3584 2291 3584 
Q 2894 3584 3203 3211 
Q 3513 2838 3513 2113 
z
" transform="scale(0.015625)"/>
      </defs>
      <use xlink:href="#DejaVuSans-63"/>
      <use xlink:href="#DejaVuSans-6f" x="54.980469"/>
      <use xlink:href="#DejaVuSans-75" x="116.162109"/>
      <use xlink:href="#DejaVuSans-6e" x="179.541016"/>
      <use xlink:href="#DejaVuSans-74" x="242.919922"/>
     </g>
    </g>
   </g>
   <g id="line2d_33">
    <path d="M 80.846591 363.144758 
L 85.345871 362.708964 
L 85.491901 362.27317 
L 105.579247 361.837377 
L 108.61766 361.401583 
L 110.534035 360.96579 
L 111.725069 360.529996 
L 112.10535 360.094203 
L 112.755426 359.658409 
L 113.444169 359.222616 
L 114.267139 358.786822 
L 114.365349 358.351028 
L 117.651313 357.915235 
L 117.896364 357.479441 
L 124.765226 357.043648 
L 129.043038 356.607854 
L 130.41391 356.172061 
L 130.904461 355.736267 
L 131.557093 355.300474 
L 132.140446 354.86468 
L 132.295328 354.428887 
L 134.792542 353.993093 
L 138.962248 353.557299 
L 138.984521 353.121506 
L 142.188729 352.685712 
L 142.999305 352.249919 
L 144.05704 351.814125 
L 149.243762 351.378332 
L 151.935937 350.942538 
L 153.54478 350.506745 
L 154.762355 350.070951 
L 156.170287 349.635157 
L 157.505353 349.199364 
L 159.686352 348.76357 
L 161.761713 348.327777 
L 163.090724 347.891983 
L 163.644626 347.45619 
L 164.069424 347.020396 
L 164.294414 346.584603 
L 165.232541 346.148809 
L 167.53085 345.713016 
L 167.540861 345.277222 
L 171.531418 344.841428 
L 173.232484 344.405635 
L 173.26026 343.969841 
L 175.21892 343.534048 
L 175.378247 343.098254 
L 178.43616 342.662461 
L 178.489543 342.226667 
L 184.872404 341.790874 
L 187.581584 341.35508 
L 188.12656 340.919286 
L 194.925222 340.483493 
L 206.875664 340.047699 
L 208.325824 339.611906 
L 209.395543 339.176112 
L 209.558115 338.740319 
L 211.979504 338.304525 
L 216.932174 337.868732 
L 223.777037 337.432938 
L 224.684807 336.997144 
L 226.454456 336.561351 
L 231.799383 336.125557 
L 259.5708 335.689764 
L 259.834743 335.25397 
L 265.15853 334.818177 
L 267.273851 334.382383 
L 269.100613 333.94659 
L 273.85412 333.510796 
L 275.015784 333.075003 
L 281.863389 332.639209 
L 289.672011 332.203415 
L 292.583221 331.767622 
L 301.125448 331.331828 
L 303.524168 330.896035 
L 305.176481 330.460241 
L 305.795296 330.024448 
L 308.481529 329.588654 
L 320.542036 329.152861 
L 326.047015 328.717067 
L 326.915773 328.281273 
L 328.18805 327.84548 
L 331.321311 327.409686 
L 337.113574 326.973893 
L 356.723733 326.538099 
L 360.15112 326.102306 
L 376.07584 325.666512 
L 389.99698 325.230719 
L 389.997495 324.794925 
L 397.03563 324.359132 
L 402.405385 323.923338 
L 404.23507 323.487544 
L 408.368829 323.051751 
L 409.439683 322.615957 
L 417.028441 322.180164 
L 430.485298 321.74437 
L 440.030059 321.308577 
L 450.185674 320.872783 
L 459.478058 320.43699 
L 469.814137 320.001196 
L 470.207546 319.565402 
L 470.988588 319.129609 
L 481.382114 318.693815 
L 484.294962 318.258022 
L 514.306643 317.822228 
L 521.521244 317.386435 
L 529.745913 316.950641 
L 529.797873 316.514848 
L 574.065034 316.079054 
L 576.274447 315.643261 
L 579.003027 315.207467 
L 639.552996 314.771673 
L 642.436229 314.33588 
L 659.311727 313.900086 
L 662.851613 313.464293 
L 672.349797 313.028499 
L 674.180224 312.592706 
" clip-path="url(#p6bccc54f97)" style="fill: none; stroke: #1f77b4; stroke-width: 2; stroke-linecap: square"/>
   </g>
   <g id="line2d_34">
    <path d="M 96.86557 363.144758 
L 104.708272 362.708964 
L 104.716396 362.27317 
L 106.333192 361.837377 
L 109.831527 361.401583 
L 111.769858 360.96579 
L 113.145158 360.529996 
L 113.444169 360.094203 
L 115.014338 359.222616 
L 116.492963 358.786822 
L 123.204627 358.351028 
L 124.707695 357.915235 
L 124.83466 357.043648 
L 130.117874 356.607854 
L 130.752421 355.736267 
L 135.079089 355.300474 
L 141.128866 354.86468 
L 141.150349 354.428887 
L 145.86636 353.993093 
L 145.930339 353.121506 
L 157.612355 352.685712 
L 161.855586 352.249919 
L 168.750719 351.814125 
L 169.310144 351.378332 
L 172.078696 350.506745 
L 175.21892 349.635157 
L 176.364016 349.199364 
L 182.650068 348.76357 
L 184.872404 348.327777 
L 188.150858 347.891983 
L 188.541305 347.45619 
L 188.778446 347.020396 
L 193.952805 346.148809 
L 194.256159 345.713016 
L 198.208011 344.841428 
L 199.345758 344.405635 
L 200.950508 343.969841 
L 200.977965 343.534048 
L 202.173392 343.098254 
L 202.594792 342.662461 
L 203.503631 342.226667 
L 203.608535 341.790874 
L 204.206575 341.35508 
L 205.721531 340.919286 
L 205.830658 340.483493 
L 211.020883 340.047699 
L 213.678118 339.611906 
L 214.046643 339.176112 
L 215.457877 338.740319 
L 216.945226 337.868732 
L 218.614568 337.432938 
L 218.630213 336.997144 
L 219.609777 336.561351 
L 221.135767 336.125557 
L 224.684807 335.689764 
L 226.929659 335.25397 
L 232.208891 334.818177 
L 233.479499 334.382383 
L 233.860259 333.94659 
L 237.481873 333.510796 
L 238.243923 333.075003 
L 239.695049 332.639209 
L 240.473723 332.203415 
L 248.712318 331.767622 
L 250.650584 331.331828 
L 251.806955 330.896035 
L 254.139152 330.460241 
L 255.091063 330.024448 
L 256.402726 329.152861 
L 257.7342 328.717067 
L 257.740713 328.281273 
L 264.32768 327.84548 
L 265.851154 326.973893 
L 267.320181 326.538099 
L 269.292571 326.102306 
L 273.449005 325.666512 
L 274.284412 325.230719 
L 275.691381 324.794925 
L 275.875969 324.359132 
L 277.530812 323.923338 
L 280.095312 323.487544 
L 283.348939 322.615957 
L 292.164521 321.74437 
L 294.071371 321.308577 
L 297.248765 320.872783 
L 299.310011 320.43699 
L 302.138123 320.001196 
L 302.365437 319.565402 
L 303.582757 319.129609 
L 305.16378 318.693815 
L 305.930111 318.258022 
L 306.409621 317.386435 
L 309.185923 316.514848 
L 309.224442 316.079054 
L 309.418974 315.643261 
L 309.41954 315.207467 
L 316.022312 314.771673 
L 316.082859 314.33588 
L 316.47286 313.900086 
L 322.103083 313.464293 
L 343.292639 312.592706 
L 350.493189 312.156912 
L 352.420438 311.721119 
L 352.422927 311.285325 
L 353.033432 310.849531 
L 358.116859 310.413738 
L 360.15112 309.977944 
L 360.188457 309.542151 
L 368.377888 308.670564 
L 369.693456 308.23477 
L 369.92642 307.798977 
L 373.752922 307.363183 
L 375.137972 306.92739 
L 381.051007 306.491596 
L 390.166466 306.055802 
L 394.611313 305.620009 
L 396.771418 305.184215 
L 402.256335 304.748422 
L 411.683163 304.312628 
L 411.875821 303.876835 
L 414.198508 303.441041 
L 414.688701 303.005248 
L 418.706711 302.13366 
L 420.341845 301.697867 
L 421.083602 301.262073 
L 425.050151 300.82628 
L 433.319156 300.390486 
L 433.322046 299.954693 
L 444.365021 299.083106 
L 446.346984 298.647312 
L 446.709535 298.211519 
L 448.684651 297.775725 
L 451.29182 297.339931 
L 456.83024 296.904138 
L 457.351908 296.468344 
L 462.164417 295.596757 
L 476.169186 295.160964 
L 479.979584 294.72517 
L 492.215269 294.289377 
L 492.362577 293.853583 
L 492.916467 293.417789 
L 493.484952 292.110409 
L 495.088467 291.674615 
L 495.457323 291.238822 
L 501.913737 290.803028 
L 501.933003 290.367235 
L 511.375311 289.931441 
L 512.418052 289.495648 
L 518.595817 289.059854 
L 530.214771 288.62406 
L 547.406799 288.188267 
L 549.79231 287.752473 
L 550.166971 286.880886 
L 551.527149 286.445093 
L 566.296446 286.009299 
L 590.69862 285.573506 
L 591.786464 285.137712 
L 635.435085 284.701918 
L 636.444848 284.266125 
L 649.85423 283.830331 
L 652.950729 283.394538 
L 652.950729 283.394538 
" clip-path="url(#p6bccc54f97)" style="fill: none; stroke: #ff7f0e; stroke-width: 2; stroke-linecap: square"/>
   </g>
   <g id="line2d_35">
    <path d="M 112.128026 363.144758 
L 144.851456 362.708964 
L 146.17455 362.27317 
L 150.244394 361.837377 
L 150.640483 361.401583 
L 163.588818 360.96579 
L 165.315728 360.529996 
L 165.316188 360.094203 
L 180.948488 359.658409 
L 187.153099 359.222616 
L 188.140463 358.786822 
L 188.343897 358.351028 
L 193.687487 357.479441 
L 206.855247 357.043648 
L 207.279041 356.607854 
L 228.305705 356.172061 
L 228.699016 355.736267 
L 231.617661 355.300474 
L 232.208891 354.86468 
L 232.444842 354.428887 
L 240.446289 353.993093 
L 267.718669 353.557299 
L 278.326341 353.121506 
L 280.095312 352.685712 
L 284.900142 352.249919 
L 285.179599 351.814125 
L 296.153819 350.942538 
L 297.965409 350.506745 
L 298.591898 350.070951 
L 301.850722 349.635157 
L 304.12743 349.199364 
L 315.280386 348.76357 
L 352.161925 348.327777 
L 352.540878 347.891983 
L 379.91996 347.45619 
L 391.673276 347.020396 
L 391.697103 346.584603 
L 392.043465 346.148809 
L 392.093882 345.713016 
L 392.280747 345.277222 
L 434.634574 343.534048 
L 436.853533 343.098254 
L 446.476121 342.226667 
L 448.686871 341.790874 
L 448.907971 341.35508 
L 449.332853 340.919286 
L 449.505262 340.047699 
L 449.559788 339.611906 
L 450.03217 339.176112 
L 450.167006 338.740319 
L 450.428309 338.304525 
L 450.828133 337.868732 
L 451.030038 336.997144 
L 452.413508 336.125557 
L 452.443283 335.25397 
L 453.467843 334.818177 
L 453.706961 334.382383 
L 454.714147 333.94659 
L 455.073397 333.075003 
L 455.92003 332.639209 
L 455.951412 332.203415 
L 456.097278 331.767622 
L 456.537052 330.896035 
L 456.605537 330.460241 
L 457.238911 330.024448 
L 457.834261 329.152861 
L 458.009971 328.717067 
L 458.168871 327.84548 
L 458.286619 327.409686 
L 458.82555 326.538099 
L 459.209606 325.666512 
L 459.486958 325.230719 
L 460.630558 324.794925 
L 460.714282 324.359132 
L 461.054016 323.923338 
L 461.702387 323.487544 
L 463.18276 323.051751 
L 463.617729 322.615957 
L 464.638481 322.180164 
L 465.165944 321.74437 
L 466.281334 321.308577 
L 466.671166 320.872783 
L 467.684871 320.43699 
L 470.713311 320.001196 
L 470.795089 319.565402 
L 473.243148 319.129609 
L 474.755528 318.693815 
L 474.861675 318.258022 
L 476.598841 317.822228 
L 476.95721 317.386435 
L 476.989246 316.950641 
L 477.592947 316.514848 
L 477.619266 316.079054 
L 477.977456 315.643261 
L 478.965366 315.207467 
L 480.654506 314.771673 
L 480.884524 313.464293 
L 481.538115 313.028499 
L 482.163781 311.721119 
L 482.959064 311.285325 
L 483.314927 310.849531 
L 483.801245 309.542151 
L 484.120245 308.670564 
L 484.833944 308.23477 
L 485.230219 307.363183 
L 485.231294 306.491596 
L 485.40455 305.620009 
L 485.43888 305.184215 
L 486.444911 304.748422 
L 486.653365 304.312628 
L 487.043564 303.876835 
L 488.28247 303.005248 
L 489.770825 302.569454 
L 489.774867 302.13366 
L 490.570747 301.697867 
L 492.166221 301.262073 
L 492.268969 300.390486 
L 492.622802 299.954693 
L 493.013247 299.083106 
L 493.697495 298.647312 
L 493.698373 298.211519 
L 494.921187 297.775725 
L 494.936523 297.339931 
L 495.244654 296.904138 
L 496.760654 296.468344 
L 497.586874 296.032551 
L 499.17393 295.596757 
L 499.204645 295.160964 
L 501.314884 294.72517 
L 501.49206 294.289377 
L 501.861706 293.853583 
L 501.883933 293.417789 
L 502.288569 292.110409 
L 505.19165 291.674615 
L 505.411597 291.238822 
L 505.434643 290.803028 
L 505.777969 289.495648 
L 506.382636 289.059854 
L 506.664657 287.31668 
L 507.016234 286.880886 
L 507.246431 286.009299 
L 507.833921 285.573506 
L 507.923041 284.701918 
L 508.272348 283.830331 
L 509.30156 283.394538 
L 509.498289 282.522951 
L 509.51696 282.087157 
L 509.731743 281.651364 
L 509.772311 281.21557 
L 509.953704 280.779777 
L 509.973797 280.343983 
L 510.176327 279.908189 
L 511.010822 279.472396 
L 511.831127 278.600809 
L 511.834914 277.729222 
L 512.358161 277.293428 
L 512.604825 276.857635 
L 512.610603 276.421841 
L 513.623363 275.986047 
L 513.695709 275.11446 
L 514.080426 274.678667 
L 514.105954 274.242873 
L 514.252933 273.80708 
L 514.26396 273.371286 
L 514.66387 272.499699 
L 515.659909 272.063906 
L 515.881755 270.320731 
L 516.565905 269.449144 
L 516.948838 268.577557 
L 517.351586 268.141764 
L 517.56096 267.70597 
L 518.123375 267.270176 
L 518.192934 266.834383 
L 518.381943 266.398589 
L 518.412154 265.962796 
L 518.57306 265.527002 
L 518.590475 264.655415 
L 518.832188 264.219622 
L 519.407976 263.783828 
L 519.664806 261.169067 
L 520.018541 259.861686 
L 520.032758 258.990099 
L 520.23866 258.118512 
L 520.272346 257.682718 
L 520.610261 257.246925 
L 520.690224 256.375338 
L 521.265994 255.067957 
L 521.267312 254.632164 
L 521.470658 254.19637 
L 521.501418 253.324783 
L 521.712311 252.888989 
L 522.249196 252.453196 
L 522.451505 252.017402 
L 522.729164 250.710022 
L 522.892047 250.274228 
L 522.937832 249.402641 
L 524.193238 248.966847 
L 524.307512 248.09526 
L 524.745821 245.480499 
L 525.117799 245.044705 
L 525.804692 241.122563 
L 526.004659 240.250976 
L 526.021139 239.815183 
L 527.272873 238.507802 
L 527.27406 238.072009 
L 527.443069 237.636215 
L 527.4724 237.200421 
L 528.226703 236.764628 
L 528.303351 236.328834 
L 528.624009 235.893041 
L 528.661388 235.021454 
L 528.874752 234.58566 
L 528.894519 234.149867 
L 529.922601 233.27828 
L 530.176285 231.970899 
L 530.355109 231.099312 
L 531.188804 230.663518 
L 531.191614 230.227725 
L 531.571427 229.791931 
L 532.797838 229.356138 
L 534.533543 228.920344 
L 535.017793 228.48455 
L 535.072741 228.048757 
L 536.612502 227.612963 
L 536.870655 227.17717 
L 536.929797 226.741376 
L 537.16262 226.305583 
L 537.564492 225.869789 
L 537.568448 225.433996 
L 538.480635 224.998202 
L 538.520159 224.126615 
L 538.988806 223.690821 
L 540.867861 223.255028 
L 541.691377 222.819234 
L 542.840927 222.383441 
L 542.939452 221.07606 
L 543.24971 219.768679 
L 543.300303 219.332886 
L 543.784663 218.897092 
L 543.894163 217.589712 
L 543.964122 216.718125 
L 544.10708 216.282331 
L 544.277422 214.103363 
L 544.325807 213.66757 
L 544.533791 213.231776 
L 544.585319 212.795983 
L 544.926177 211.924396 
L 544.99781 210.181221 
L 545.365713 208.873841 
L 545.370697 208.438047 
L 545.587046 208.002254 
L 545.608992 207.56646 
L 545.823624 206.694873 
L 545.99534 205.823286 
L 546.020355 205.387492 
L 546.859841 204.951699 
L 546.874268 204.515905 
L 547.217148 203.644318 
L 547.885991 202.336937 
L 548.448917 201.901144 
L 548.458689 201.46535 
L 548.653527 201.029557 
L 548.687067 200.593763 
L 549.021882 199.722176 
L 549.073522 198.850589 
L 549.655656 198.414796 
L 550.133471 197.107415 
L 550.137362 196.671621 
L 550.299616 196.235828 
L 550.311849 195.800034 
L 551.288904 195.364241 
L 551.932749 194.928447 
L 551.974125 194.05686 
L 552.562943 193.621066 
L 552.984537 192.749479 
L 553.006144 192.313686 
L 553.437565 191.442099 
L 553.836399 191.006305 
L 553.845143 190.570512 
L 554.010232 190.134718 
L 554.011701 189.698925 
L 554.226169 189.263131 
L 554.258483 188.827337 
L 554.620004 187.95575 
L 555.082249 187.519957 
L 556.332666 187.084163 
L 557.101835 186.64837 
L 557.11813 185.776783 
L 557.566026 185.340989 
L 557.733167 184.905195 
L 557.766512 184.033608 
L 558.088853 183.597815 
L 558.580768 183.162021 
L 558.93705 181.854641 
L 559.158383 180.54726 
L 559.954764 179.675673 
L 559.984844 178.804086 
L 560.417354 178.368292 
L 560.447077 177.932499 
L 560.602355 177.496705 
L 560.619391 176.625118 
L 561.409344 176.189324 
L 561.471098 175.317737 
L 561.803848 174.881944 
L 561.890638 174.010357 
L 562.505404 173.574563 
L 562.553333 173.13877 
L 563.56205 171.831389 
L 564.484977 171.395595 
L 564.524186 170.524008 
L 564.724589 170.088215 
L 565.418076 169.652421 
L 565.550272 168.780834 
L 565.934176 168.345041 
L 566.00305 167.909247 
L 566.187523 167.473453 
L 567.267141 167.03766 
L 567.632108 166.601866 
L 568.432065 166.166073 
L 568.652304 164.858692 
L 569.024425 163.987105 
L 569.059107 163.551312 
L 569.262076 163.115518 
L 570.105962 162.679724 
L 570.461647 161.808137 
L 570.71855 160.064963 
L 571.394598 159.62917 
L 571.973653 158.757582 
L 572.141537 158.321789 
L 572.184849 157.885995 
L 572.623696 157.450202 
L 572.765546 157.014408 
L 573.18592 156.578615 
L 573.772254 156.142821 
L 575.658835 155.707028 
L 576.061234 154.835441 
L 576.080564 154.399647 
L 578.364817 153.092266 
L 578.707421 152.656473 
L 579.366861 149.170124 
L 579.54684 148.734331 
L 580.368555 147.862744 
L 580.383426 147.42695 
L 583.892575 146.991157 
L 585.128465 146.11957 
L 585.132874 145.683776 
L 585.9569 145.247982 
L 585.993059 144.812189 
L 586.362373 144.376395 
L 586.84777 143.504808 
L 587.561696 143.069015 
L 587.823139 142.633221 
L 588.619629 142.197428 
L 590.232879 141.761634 
L 590.270283 140.890047 
L 590.437441 140.454253 
L 590.526683 139.146873 
L 590.863782 138.711079 
L 590.953007 137.839492 
L 591.473994 137.403698 
L 591.558201 136.532111 
L 591.870967 136.096318 
L 591.974872 134.788937 
L 592.344585 134.353144 
L 593.149743 133.91735 
L 593.382692 133.481557 
L 593.772875 133.045763 
L 594.377618 132.609969 
L 594.43443 132.174176 
L 594.814556 131.302589 
L 594.824708 130.866795 
L 595.048383 129.995208 
L 595.112567 129.123621 
L 595.348489 128.687827 
L 595.830665 128.252034 
L 595.845515 127.81624 
L 596.272869 126.944653 
L 597.241635 126.073066 
L 597.328785 125.201479 
L 598.119149 123.022511 
L 598.951345 122.586718 
L 600.173096 122.150924 
L 600.822351 121.715131 
L 601.602125 120.843544 
L 601.648702 119.971956 
L 602.41841 119.536163 
L 603.529278 119.100369 
L 603.72427 118.664576 
L 605.103033 118.228782 
L 605.122511 117.357195 
L 605.295242 116.921402 
L 606.219942 116.485608 
L 606.763065 116.049815 
L 607.552747 115.614021 
L 608.865416 115.178227 
L 609.046417 114.742434 
L 609.052992 114.30664 
L 609.247931 113.870847 
L 609.278336 113.435053 
L 609.437246 112.99926 
L 609.447559 112.563466 
L 610.302629 112.127673 
L 612.068533 111.691879 
L 612.105064 111.256085 
L 613.159661 110.820292 
L 613.357599 110.384498 
L 613.80576 109.948705 
L 614.004186 109.512911 
L 614.793813 109.077118 
L 617.462213 108.205531 
L 617.493822 107.333944 
L 618.264915 106.462356 
L 619.32736 106.026563 
L 619.612629 105.590769 
L 619.759162 104.719182 
L 620.324034 104.283389 
L 620.37565 103.847595 
L 620.779752 103.411802 
L 621.964788 102.976008 
L 622.047441 100.79704 
L 622.397788 99.48966 
L 622.630038 98.182279 
L 623.209737 97.746485 
L 623.234373 97.310692 
L 623.620335 96.439105 
L 623.646535 96.003311 
L 623.823829 95.567518 
L 623.864027 95.131724 
L 624.906949 94.695931 
L 625.24861 94.260137 
L 625.529744 92.081169 
L 625.541997 91.645376 
L 626.298121 91.209582 
L 626.298126 90.773789 
L 626.743866 90.337995 
L 626.779269 89.902202 
L 627.211186 89.030614 
L 635.671022 88.594821 
L 636.475341 88.159027 
L 640.747273 87.723234 
L 643.47203 87.28744 
L 646.319591 86.415853 
L 646.401082 85.544266 
L 646.891574 85.108472 
L 646.929716 84.672679 
L 647.813984 84.236885 
L 649.653606 83.801092 
L 649.98739 82.929505 
L 652.108804 82.493711 
L 652.306317 82.057918 
L 652.725638 81.622124 
L 654.129446 81.186331 
L 656.377159 80.750537 
L 657.818727 79.87895 
L 657.87817 79.443156 
L 658.06694 79.007363 
L 658.642595 78.571569 
L 659.705708 78.135776 
L 661.115484 77.699982 
L 661.128273 77.264189 
L 662.179217 76.828395 
L 662.405398 76.392601 
L 662.438712 75.956808 
L 662.590093 75.521014 
L 663.003574 75.085221 
L 663.796747 74.649427 
L 664.200758 74.213634 
L 664.237644 73.77784 
L 664.472589 72.906253 
L 665.062981 72.47046 
L 665.104928 72.034666 
L 665.442018 71.598872 
L 665.452751 71.163079 
L 665.700583 70.727285 
L 665.912762 68.548318 
L 667.335414 68.112524 
L 667.371377 67.240937 
L 668.353881 66.36935 
L 668.355901 65.933556 
L 668.570176 65.497763 
L 668.632504 65.061969 
L 669.401308 64.626176 
L 669.819183 64.190382 
L 669.836391 63.754589 
L 670.173782 63.318795 
L 671.619537 62.447208 
L 675.121261 62.011414 
L 675.629253 59.832447 
L 676.062877 58.960859 
L 676.615506 58.525066 
L 676.779378 58.089272 
L 676.886919 56.781892 
L 677.004407 55.910305 
L 677.034912 54.602924 
L 677.216662 54.16713 
L 677.43274 52.85975 
L 678.240435 51.988163 
L 678.504833 51.552369 
L 678.508072 51.116576 
L 679.278409 50.244988 
L 679.278409 50.244988 
" clip-path="url(#p6bccc54f97)" style="fill: none; stroke: #2ca02c; stroke-width: 2; stroke-linecap: square"/>
   </g>
   <g id="line2d_36">
    <path d="M 126.547429 363.144758 
L 134.231193 362.708964 
L 136.034971 362.27317 
L 136.468513 361.837377 
L 137.229267 361.401583 
L 138.702279 360.96579 
L 138.703583 360.529996 
L 140.262031 360.094203 
L 142.997156 359.658409 
L 150.446366 359.222616 
L 151.903329 358.351028 
L 154.917535 357.915235 
L 157.433879 357.043648 
L 158.85367 356.607854 
L 161.9826 356.172061 
L 166.419786 355.736267 
L 166.422807 355.300474 
L 166.723004 354.86468 
L 168.353016 354.428887 
L 168.750719 353.993093 
L 171.023731 353.557299 
L 171.40039 353.121506 
L 174.975116 352.685712 
L 176.177372 351.814125 
L 176.659095 350.942538 
L 177.036939 350.506745 
L 177.904426 350.070951 
L 178.061566 349.635157 
L 178.488236 349.199364 
L 179.308482 348.76357 
L 179.715782 348.327777 
L 181.607757 347.891983 
L 182.201375 347.45619 
L 182.548915 347.020396 
L 182.615126 346.584603 
L 186.480791 346.148809 
L 200.131869 345.277222 
L 201.139005 344.841428 
L 201.554486 344.405635 
L 202.597527 343.969841 
L 205.065179 343.534048 
L 205.068791 343.098254 
L 207.136347 342.662461 
L 207.355062 342.226667 
L 207.893738 341.790874 
L 208.179758 341.35508 
L 208.761933 340.919286 
L 208.798213 340.483493 
L 209.395335 340.047699 
L 209.395543 339.611906 
L 209.558115 339.176112 
L 209.574293 338.740319 
L 210.175249 338.304525 
L 211.979504 337.868732 
L 212.669518 337.432938 
L 212.726345 336.997144 
L 213.120932 336.561351 
L 214.078442 336.125557 
L 216.779429 335.689764 
L 216.945226 335.25397 
L 218.407118 334.818177 
L 222.335567 334.382383 
L 223.749348 333.94659 
L 223.777037 333.510796 
L 228.592562 333.075003 
L 228.615064 332.639209 
L 228.963407 332.203415 
L 230.018541 331.767622 
L 230.661196 331.331828 
L 231.017091 330.460241 
L 231.405082 330.024448 
L 231.642758 329.152861 
L 231.816531 328.717067 
L 233.851365 328.281273 
L 235.320745 327.84548 
L 235.337964 327.409686 
L 235.498887 326.973893 
L 238.228664 326.538099 
L 238.827665 326.102306 
L 238.828189 325.666512 
L 240.041067 325.230719 
L 240.226599 324.794925 
L 241.529333 324.359132 
L 241.693675 323.923338 
L 243.152763 323.487544 
L 243.185734 323.051751 
L 248.706693 322.180164 
L 252.458569 321.74437 
L 253.269217 321.308577 
L 253.273564 320.872783 
L 256.114734 320.43699 
L 257.526643 320.001196 
L 257.711698 319.565402 
L 258.351024 319.129609 
L 259.885401 318.693815 
L 259.968559 318.258022 
L 261.30709 317.386435 
L 261.515398 316.950641 
L 263.936467 316.079054 
L 265.586698 314.33588 
L 266.703812 313.900086 
L 267.028061 313.464293 
L 267.065386 313.028499 
L 268.678044 312.156912 
L 270.171879 311.721119 
L 273.676755 311.285325 
L 275.015784 310.849531 
L 275.089344 310.413738 
L 275.883271 309.977944 
L 275.904182 309.542151 
L 276.549548 309.106357 
L 276.588611 308.23477 
L 277.535717 307.798977 
L 279.280679 307.363183 
L 279.463033 306.92739 
L 280.03631 306.491596 
L 280.683021 305.620009 
L 281.582472 305.184215 
L 281.610664 304.748422 
L 281.772003 304.312628 
L 282.217949 303.876835 
L 282.310748 303.441041 
L 282.954121 303.005248 
L 282.989099 302.569454 
L 284.774818 302.13366 
L 285.094638 301.262073 
L 285.812766 300.82628 
L 285.993025 300.390486 
L 286.002946 299.954693 
L 286.457576 299.518899 
L 286.714048 297.775725 
L 287.446016 297.339931 
L 287.465145 296.468344 
L 287.63367 296.032551 
L 287.643361 295.596757 
L 288.048443 295.160964 
L 288.082854 294.72517 
L 289.672011 292.981996 
L 289.901438 292.546202 
L 291.355091 292.110409 
L 291.750057 291.238822 
L 291.769948 290.803028 
L 293.601684 290.367235 
L 296.348332 289.931441 
L 297.778608 289.495648 
L 297.959648 289.059854 
L 299.604387 288.62406 
L 300.411513 288.188267 
L 300.880995 287.752473 
L 301.04554 287.31668 
L 301.061362 286.445093 
L 302.046866 286.009299 
L 302.077042 285.573506 
L 302.273636 285.137712 
L 303.513387 284.701918 
L 303.93669 283.830331 
L 305.172072 283.394538 
L 305.299442 282.958744 
L 308.481529 282.522951 
L 309.890662 281.21557 
L 310.134824 280.779777 
L 310.886282 280.343983 
L 310.959935 279.908189 
L 311.936854 279.472396 
L 312.333334 278.600809 
L 312.373497 278.165015 
L 315.472681 277.729222 
L 316.661655 277.293428 
L 316.879754 276.857635 
L 318.300976 275.986047 
L 318.394951 275.550254 
L 320.542036 275.11446 
L 322.073448 274.678667 
L 322.24551 274.242873 
L 322.295886 273.80708 
L 323.675886 273.371286 
L 323.68263 272.935493 
L 324.282146 272.063906 
L 326.915773 271.628112 
L 327.647908 271.192318 
L 328.085049 270.756525 
L 328.18805 270.320731 
L 328.422649 269.884938 
L 330.396552 269.449144 
L 331.321311 269.013351 
L 332.388225 268.141764 
L 332.508949 267.70597 
L 333.200352 267.270176 
L 333.220683 266.834383 
L 333.740043 266.398589 
L 334.061383 265.962796 
L 334.182681 265.527002 
L 336.38273 265.091209 
L 337.079164 264.655415 
L 337.145717 264.219622 
L 338.579277 263.783828 
L 342.102604 262.912241 
L 350.498957 261.60486 
L 352.155761 261.169067 
L 352.935055 260.733273 
L 352.935422 260.29748 
L 354.518966 258.990099 
L 356.684198 258.554305 
L 356.826799 258.118512 
L 357.716403 257.246925 
L 357.779175 256.811131 
L 358.340262 256.375338 
L 360.15112 255.939544 
L 361.158303 255.503751 
L 368.098981 255.067957 
L 368.391349 254.632164 
L 369.845911 254.19637 
L 369.857159 253.760576 
L 370.430148 253.324783 
L 371.534251 252.888989 
L 373.752922 252.453196 
L 374.362999 252.017402 
L 378.266564 251.581609 
L 378.328084 251.145815 
L 380.057853 250.710022 
L 381.004149 250.274228 
L 384.246732 249.838434 
L 384.467861 249.402641 
L 384.815186 248.966847 
L 385.865047 248.531054 
L 385.930776 248.09526 
L 388.369659 247.659467 
L 388.635037 247.223673 
L 390.872992 246.78788 
L 391.573043 245.916293 
L 393.733883 245.044705 
L 396.04276 244.608912 
L 396.415251 244.173118 
L 398.069333 243.737325 
L 405.54399 242.865738 
L 406.905525 242.429944 
L 407.533894 241.994151 
L 407.716686 241.558357 
L 410.372581 240.68677 
L 410.677912 240.250976 
L 411.718683 239.815183 
L 414.180594 239.379389 
L 414.198508 238.943596 
L 414.978448 238.507802 
L 417.605861 238.072009 
L 418.667123 237.636215 
L 420.180844 237.200421 
L 424.57656 236.764628 
L 425.096075 236.328834 
L 425.859194 235.893041 
L 427.243586 235.457247 
L 427.441092 235.021454 
L 429.375791 234.58566 
L 429.389126 234.149867 
L 431.550693 233.714073 
L 432.96765 233.27828 
L 433.326372 232.842486 
L 433.328168 232.406692 
L 433.483455 231.970899 
L 435.925123 231.099312 
L 438.010497 230.227725 
L 439.172603 229.791931 
L 439.892673 229.356138 
L 440.095909 228.920344 
L 441.320026 228.48455 
L 441.89725 228.048757 
L 441.905172 227.17717 
L 444.365021 226.741376 
L 444.413468 226.305583 
L 445.065196 225.869789 
L 446.022635 225.433996 
L 446.063026 224.998202 
L 446.709535 224.126615 
L 447.53765 223.690821 
L 452.502094 223.255028 
L 452.588455 222.819234 
L 454.757092 221.947647 
L 454.794324 221.511854 
L 455.255195 220.640267 
L 456.36847 220.204473 
L 456.392607 219.768679 
L 456.83024 218.897092 
L 458.510358 218.461299 
L 458.934339 218.025505 
L 459.16187 217.153918 
L 459.245009 216.718125 
L 460.288913 216.282331 
L 460.517408 215.846538 
L 460.605419 214.97495 
L 460.907662 214.539157 
L 460.928196 214.103363 
L 461.100982 213.66757 
L 461.93671 213.231776 
L 462.403872 212.360189 
L 463.16923 211.924396 
L 466.494705 211.488602 
L 466.695766 211.052808 
L 466.765589 210.617015 
L 467.897534 210.181221 
L 467.960484 209.745428 
L 468.217368 209.309634 
L 472.850073 208.873841 
L 473.69945 208.438047 
L 477.986744 208.002254 
L 478.843054 207.56646 
L 480.932554 206.694873 
L 488.162218 205.823286 
L 488.356028 205.387492 
L 492.215269 204.951699 
L 492.425232 204.080112 
L 492.916467 203.644318 
L 493.297166 202.336937 
L 493.484952 201.46535 
L 493.858685 201.029557 
L 495.088467 200.593763 
L 495.752725 200.15797 
L 495.848767 199.722176 
L 499.614276 199.286383 
L 499.622382 198.850589 
L 504.046535 198.414796 
L 505.026525 197.979002 
L 507.292622 197.543208 
L 507.302118 196.671621 
L 508.476895 196.235828 
L 508.490548 195.364241 
L 510.371007 194.928447 
L 511.224843 194.05686 
L 511.641846 193.621066 
L 514.182118 192.749479 
L 514.482317 192.313686 
L 514.531434 191.877892 
L 515.667716 191.442099 
L 515.732985 191.006305 
L 517.000905 190.570512 
L 517.164267 190.134718 
L 518.354471 189.698925 
L 518.664202 188.827337 
L 519.596473 188.391544 
L 519.622547 187.95575 
L 519.812195 187.519957 
L 521.464794 187.084163 
L 521.521244 186.64837 
L 524.696301 185.776783 
L 525.092586 185.340989 
L 525.167503 184.469402 
L 525.59615 184.033608 
L 525.697573 183.162021 
L 525.800624 182.726228 
L 526.234532 182.290434 
L 526.882299 180.983054 
L 527.182544 180.111466 
L 528.8824 178.368292 
L 528.948987 177.932499 
L 530.214771 177.496705 
L 530.758822 177.060912 
L 531.881874 176.625118 
L 533.83348 176.189324 
L 534.285647 175.317737 
L 534.309839 174.881944 
L 537.507412 174.44615 
L 537.546464 174.010357 
L 539.833581 173.13877 
L 541.157377 172.702976 
L 545.23239 171.831389 
L 545.423364 171.395595 
L 546.86714 170.959802 
L 547.230741 170.524008 
L 548.918127 170.088215 
L 549.763532 169.652421 
L 549.79231 169.216628 
L 549.942683 168.780834 
L 551.527149 168.345041 
L 551.576903 167.909247 
L 553.183266 167.473453 
L 553.40433 167.03766 
L 554.108771 166.601866 
L 554.341375 165.730279 
L 554.352304 165.294486 
L 554.837894 164.858692 
L 554.842423 164.422899 
L 555.928214 163.987105 
L 556.029651 163.551312 
L 556.422874 163.115518 
L 556.423894 162.679724 
L 557.16293 162.243931 
L 557.349886 161.808137 
L 557.355097 161.372344 
L 557.537791 160.93655 
L 557.619924 160.064963 
L 557.780067 159.62917 
L 558.269008 159.193376 
L 558.549188 158.757582 
L 558.586439 158.321789 
L 558.948327 157.885995 
L 559.213853 156.578615 
L 559.855177 156.142821 
L 560.162731 155.271234 
L 560.271226 153.963853 
L 560.60053 153.52806 
L 561.280024 153.092266 
L 561.322654 151.349092 
L 561.618149 150.477505 
L 561.875908 150.041711 
L 561.923806 149.170124 
L 562.113543 147.862744 
L 562.118849 147.42695 
L 562.54932 146.991157 
L 563.290037 146.555363 
L 563.566418 146.11957 
L 564.089115 145.683776 
L 564.356083 145.247982 
L 564.53647 144.376395 
L 564.571307 143.940602 
L 564.767542 143.504808 
L 564.788012 143.069015 
L 564.996816 142.633221 
L 565.571801 142.197428 
L 565.958697 141.761634 
L 565.997923 141.32584 
L 566.403999 140.890047 
L 567.230174 140.454253 
L 567.247553 140.01846 
L 569.27228 138.711079 
L 572.055653 137.839492 
L 574.432949 137.403698 
L 575.116029 136.532111 
L 576.295301 136.096318 
L 576.438608 135.224731 
L 578.180196 134.788937 
L 578.612175 133.91735 
L 579.628331 133.481557 
L 579.743124 133.045763 
L 580.539478 132.174176 
L 580.586151 131.738382 
L 585.95018 131.302589 
L 588.859854 130.866795 
L 588.89824 130.431002 
L 589.499788 129.995208 
L 589.511354 129.559415 
L 589.670881 129.123621 
L 590.246863 128.687827 
L 593.391081 127.81624 
L 593.631917 127.380447 
L 597.278433 126.944653 
L 597.4742 126.073066 
L 598.931724 125.637273 
L 599.170351 125.201479 
L 600.143657 124.765686 
L 601.608399 124.329892 
L 601.617425 123.894098 
L 601.968181 123.458305 
L 602.019204 123.022511 
L 604.562626 122.586718 
L 608.016277 121.715131 
L 610.229894 120.843544 
L 610.259442 120.40775 
L 611.99587 119.971956 
L 612.190934 119.536163 
L 613.073818 119.100369 
L 613.162919 118.664576 
L 613.607775 118.228782 
L 613.768005 117.792989 
L 613.774957 117.357195 
L 614.661623 116.921402 
L 614.790076 116.485608 
L 615.403964 116.049815 
L 615.449485 115.614021 
L 616.483422 115.178227 
L 616.652846 114.742434 
L 617.542979 114.30664 
L 618.15299 113.435053 
L 618.459623 112.563466 
L 619.172626 112.127673 
L 619.206267 111.691879 
L 620.25139 111.256085 
L 620.458322 110.820292 
L 621.727149 110.384498 
L 622.123276 109.948705 
L 622.312507 109.077118 
L 623.163913 108.641324 
L 623.281328 107.769737 
L 623.62923 107.333944 
L 623.863073 106.026563 
L 624.690352 105.590769 
L 624.875171 104.283389 
L 628.431303 103.847595 
L 629.032582 103.411802 
L 632.591318 102.976008 
L 633.991516 102.540214 
L 634.020283 102.104421 
L 634.203511 101.668627 
L 635.435085 101.232834 
L 635.529535 100.79704 
L 636.444848 100.361247 
L 639.971682 99.925453 
L 641.418294 99.48966 
L 641.992353 99.053866 
L 643.495138 98.182279 
L 643.901622 97.746485 
L 649.85423 96.874898 
L 652.584336 96.439105 
L 652.950729 95.131724 
L 653.397407 94.695931 
L 653.584606 94.260137 
L 656.477602 93.824343 
L 657.269144 92.081169 
L 658.131586 91.645376 
L 659.539523 91.209582 
L 661.420462 90.773789 
L 661.663381 90.337995 
L 664.307005 89.902202 
L 674.545336 89.466408 
L 677.263168 89.030614 
L 677.415546 88.594821 
L 677.415546 88.594821 
" clip-path="url(#p6bccc54f97)" style="fill: none; stroke: #d62728; stroke-width: 2; stroke-linecap: square"/>
   </g>
   <g id="line2d_37">
    <path d="M 149.605264 363.144758 
L 183.856989 362.27317 
L 189.183452 361.837377 
L 208.303222 361.401583 
L 208.766936 360.96579 
L 209.999566 360.529996 
L 212.244775 360.094203 
L 225.864648 359.658409 
L 235.922118 359.222616 
L 241.909357 358.786822 
L 255.690412 358.351028 
L 255.737924 357.915235 
L 255.913951 357.479441 
L 259.232778 357.043648 
L 269.310075 356.607854 
L 281.863389 355.736267 
L 283.076357 355.300474 
L 283.166433 354.86468 
L 287.060433 354.428887 
L 287.458034 353.993093 
L 297.412764 353.557299 
L 299.600314 353.121506 
L 299.608663 352.685712 
L 300.793184 352.249919 
L 303.251416 351.814125 
L 303.514414 350.942538 
L 303.751186 350.506745 
L 304.428474 350.070951 
L 305.176481 349.199364 
L 306.430258 348.327777 
L 307.418244 347.891983 
L 308.042062 346.584603 
L 320.747781 346.148809 
L 321.884749 345.713016 
L 335.724894 345.277222 
L 340.996936 344.841428 
L 343.899681 344.405635 
L 370.073563 343.534048 
L 371.298491 343.098254 
L 375.849833 342.662461 
L 375.862989 341.790874 
L 387.542666 340.919286 
L 407.742087 340.483493 
L 411.43003 339.176112 
L 411.678279 338.740319 
L 413.559907 338.304525 
L 417.424251 337.868732 
L 417.430416 337.432938 
L 418.500501 336.997144 
L 420.159165 336.561351 
L 424.256687 336.125557 
L 425.471727 335.689764 
L 426.335646 334.818177 
L 427.331102 334.382383 
L 427.529103 333.075003 
L 428.439592 332.639209 
L 428.920454 331.767622 
L 430.440273 331.331828 
L 430.485298 330.896035 
L 431.92361 330.460241 
L 431.925449 330.024448 
L 432.211337 329.588654 
L 432.88582 329.152861 
L 432.88986 328.717067 
L 433.26691 328.281273 
L 433.295312 327.409686 
L 434.095827 326.973893 
L 434.319156 326.538099 
L 434.326964 326.102306 
L 435.135439 325.666512 
L 437.232107 325.230719 
L 437.323926 324.794925 
L 439.510988 324.359132 
L 440.030059 323.923338 
L 440.095909 323.487544 
L 440.738321 323.051751 
L 440.773457 322.615957 
L 442.413121 322.180164 
L 448.538213 321.74437 
L 448.951458 320.872783 
L 453.514075 320.43699 
L 453.680303 320.001196 
L 456.571222 319.565402 
L 457.370523 319.129609 
L 459.478058 318.693815 
L 463.156636 318.258022 
L 464.578116 317.822228 
L 466.486769 317.386435 
L 467.781066 316.950641 
L 471.597386 316.514848 
L 487.046728 316.079054 
L 487.055812 315.643261 
L 488.439909 315.207467 
L 490.778325 314.771673 
L 491.41374 314.33588 
L 495.164679 313.900086 
L 508.472069 313.028499 
L 508.865852 312.156912 
L 509.930289 311.721119 
L 515.667716 311.285325 
L 517.143406 310.849531 
L 526.598764 310.413738 
L 528.529075 309.977944 
L 539.036595 309.542151 
L 541.491326 309.106357 
L 547.244641 308.670564 
L 548.759425 308.23477 
L 582.430375 307.363183 
L 608.191357 306.92739 
L 622.148809 306.491596 
L 637.713563 305.620009 
L 638.131457 305.184215 
L 641.576304 304.748422 
L 652.108687 304.312628 
L 655.632481 303.876835 
L 655.806605 303.441041 
L 674.759933 302.569454 
L 674.759933 302.569454 
" clip-path="url(#p6bccc54f97)" style="fill: none; stroke: #9467bd; stroke-width: 2; stroke-linecap: square"/>
   </g>
   <g id="line2d_38">
    <path d="M 481.719316 363.144758 
L 485.001827 362.708964 
L 487.170615 362.27317 
L 487.384145 361.837377 
L 492.060206 361.401583 
L 493.562852 360.96579 
L 499.270244 360.529996 
L 511.575884 360.094203 
L 511.578035 359.658409 
L 511.642679 359.222616 
L 523.614595 358.786822 
L 524.599641 358.351028 
L 527.348171 357.915235 
L 547.49795 357.479441 
L 548.743805 357.043648 
L 551.25047 356.607854 
L 552.690268 356.172061 
L 554.305855 355.736267 
L 599.665804 355.300474 
L 600.177979 354.86468 
L 614.807102 354.428887 
L 620.428752 353.993093 
L 633.744078 353.557299 
L 637.684291 353.121506 
L 646.649908 352.685712 
L 648.095718 352.249919 
L 658.697572 351.814125 
" clip-path="url(#p6bccc54f97)" style="fill: none; stroke: #8c564b; stroke-width: 2; stroke-linecap: square"/>
   </g>
   <g id="line2d_39">
    <path d="M 494.748282 363.144758 
L 499.810432 362.708964 
L 505.040681 362.27317 
L 505.151597 361.837377 
L 508.08668 361.401583 
L 512.161206 360.96579 
L 512.84136 360.529996 
L 514.429242 360.094203 
L 514.665412 359.658409 
L 515.809602 359.222616 
L 518.789581 358.786822 
L 523.139568 358.351028 
L 525.037197 357.915235 
L 525.383561 357.479441 
L 525.449829 357.043648 
L 525.597125 356.607854 
L 525.800624 356.172061 
L 527.014839 355.736267 
L 527.157588 355.300474 
L 528.948987 354.86468 
L 533.83348 354.428887 
L 536.18845 353.993093 
L 538.592331 353.557299 
L 545.537035 353.121506 
L 546.84662 352.685712 
L 548.30055 352.249919 
L 549.91348 351.814125 
L 549.978813 351.378332 
L 550.755822 350.942538 
L 551.179776 350.506745 
L 552.641523 350.070951 
L 554.33636 349.635157 
L 554.891652 349.199364 
L 560.461938 348.76357 
L 561.461151 348.327777 
L 561.92548 347.891983 
L 562.101734 347.45619 
L 562.604108 347.020396 
L 563.369225 346.584603 
L 564.558802 346.148809 
L 571.760621 345.713016 
L 572.930575 345.277222 
L 574.640062 344.841428 
L 575.032911 344.405635 
L 575.466349 343.969841 
L 579.87001 343.534048 
L 583.467257 343.098254 
L 586.724745 342.662461 
L 586.772379 342.226667 
L 587.218177 341.790874 
L 587.970145 341.35508 
L 588.842134 340.919286 
L 588.916996 340.483493 
L 590.159591 340.047699 
L 591.687677 339.611906 
L 591.93413 339.176112 
L 592.709256 338.740319 
L 594.775197 338.304525 
L 597.949241 337.868732 
L 604.928909 337.432938 
L 611.083621 336.997144 
L 616.476752 336.561351 
L 616.678221 336.125557 
L 616.854682 335.689764 
L 619.763431 335.25397 
L 629.845776 334.818177 
L 640.002762 334.382383 
L 640.044806 333.94659 
L 640.598718 333.510796 
L 640.813956 333.075003 
L 641.575465 332.639209 
L 642.425112 332.203415 
L 644.286002 331.767622 
L 645.095913 331.331828 
L 647.775772 330.896035 
L 648.183698 330.460241 
L 649.683829 330.024448 
L 650.060256 329.588654 
L 650.888734 329.152861 
L 650.915061 328.717067 
L 652.780194 328.281273 
L 655.627998 327.84548 
L 656.66534 327.409686 
L 657.03144 326.973893 
L 660.086765 326.538099 
L 660.96705 326.102306 
L 661.017354 325.666512 
L 663.044576 325.230719 
L 663.677797 324.794925 
L 665.738497 324.359132 
L 665.870646 323.923338 
L 669.797065 323.487544 
L 672.125462 323.051751 
L 672.72177 322.615957 
L 673.519794 322.180164 
L 673.548853 321.74437 
L 678.696583 321.308577 
" clip-path="url(#p6bccc54f97)" style="fill: none; stroke: #e377c2; stroke-width: 2; stroke-linecap: square"/>
   </g>
   <g id="patch_3">
    <path d="M 50.925 378.789746 
L 50.925 34.6 
" style="fill: none; stroke: #000000; stroke-width: 0.8; stroke-linejoin: miter; stroke-linecap: square"/>
   </g>
   <g id="patch_4">
    <path d="M 709.2 378.789746 
L 709.2 34.6 
" style="fill: none; stroke: #000000; stroke-width: 0.8; stroke-linejoin: miter; stroke-linecap: square"/>
   </g>
   <g id="patch_5">
    <path d="M 50.925 378.789746 
L 709.2 378.789746 
" style="fill: none; stroke: #000000; stroke-width: 0.8; stroke-linejoin: miter; stroke-linecap: square"/>
   </g>
   <g id="patch_6">
    <path d="M 50.925 34.6 
L 709.2 34.6 
" style="fill: none; stroke: #000000; stroke-width: 0.8; stroke-linejoin: miter; stroke-linecap: square"/>
   </g>
   <g id="legend_1">
    <g id="patch_7">
     <path d="M 57.925 145.346875 
L 230.976562 145.346875 
Q 232.976562 145.346875 232.976562 143.346875 
L 232.976562 41.6 
Q 232.976562 39.6 230.976562 39.6 
L 57.925 39.6 
Q 55.925 39.6 55.925 41.6 
L 55.925 143.346875 
Q 55.925 145.346875 57.925 145.346875 
z
" style="fill: #ffffff; opacity: 0.8; stroke: #cccccc; stroke-linejoin: miter"/>
    </g>
    <g id="line2d_40">
     <path d="M 59.925 47.698438 
L 69.925 47.698438 
L 79.925 47.698438 
" style="fill: none; stroke: #1f77b4; stroke-width: 2; stroke-linecap: square"/>
    </g>
    <g id="text_19">
     <!-- API/Scala -->
     <g transform="translate(87.925 51.198438)scale(0.1 -0.1)">
      <defs>
       <path id="DejaVuSans-41" d="M 2188 4044 
L 1331 1722 
L 3047 1722 
L 2188 4044 
z
M 1831 4666 
L 2547 4666 
L 4325 0 
L 3669 0 
L 3244 1197 
L 1141 1197 
L 716 0 
L 50 0 
L 1831 4666 
z
" transform="scale(0.015625)"/>
       <path id="DejaVuSans-50" d="M 1259 4147 
L 1259 2394 
L 2053 2394 
Q 2494 2394 2734 2622 
Q 2975 2850 2975 3272 
Q 2975 3691 2734 3919 
Q 2494 4147 2053 4147 
L 1259 4147 
z
M 628 4666 
L 2053 4666 
Q 2838 4666 3239 4311 
Q 3641 3956 3641 3272 
Q 3641 2581 3239 2228 
Q 2838 1875 2053 1875 
L 1259 1875 
L 1259 0 
L 628 0 
L 628 4666 
z
" transform="scale(0.015625)"/>
       <path id="DejaVuSans-49" d="M 628 4666 
L 1259 4666 
L 1259 0 
L 628 0 
L 628 4666 
z
" transform="scale(0.015625)"/>
       <path id="DejaVuSans-2f" d="M 1625 4666 
L 2156 4666 
L 531 -594 
L 0 -594 
L 1625 4666 
z
" transform="scale(0.015625)"/>
       <path id="DejaVuSans-53" d="M 3425 4513 
L 3425 3897 
Q 3066 4069 2747 4153 
Q 2428 4238 2131 4238 
Q 1616 4238 1336 4038 
Q 1056 3838 1056 3469 
Q 1056 3159 1242 3001 
Q 1428 2844 1947 2747 
L 2328 2669 
Q 3034 2534 3370 2195 
Q 3706 1856 3706 1288 
Q 3706 609 3251 259 
Q 2797 -91 1919 -91 
Q 1588 -91 1214 -16 
Q 841 59 441 206 
L 441 856 
Q 825 641 1194 531 
Q 1563 422 1919 422 
Q 2459 422 2753 634 
Q 3047 847 3047 1241 
Q 3047 1584 2836 1778 
Q 2625 1972 2144 2069 
L 1759 2144 
Q 1053 2284 737 2584 
Q 422 2884 422 3419 
Q 422 4038 858 4394 
Q 1294 4750 2059 4750 
Q 2388 4750 2728 4690 
Q 3069 4631 3425 4513 
z
" transform="scale(0.015625)"/>
       <path id="DejaVuSans-6c" d="M 603 4863 
L 1178 4863 
L 1178 0 
L 603 0 
L 603 4863 
z
" transform="scale(0.015625)"/>
      </defs>
      <use xlink:href="#DejaVuSans-41"/>
      <use xlink:href="#DejaVuSans-50" x="68.408203"/>
      <use xlink:href="#DejaVuSans-49" x="128.710938"/>
      <use xlink:href="#DejaVuSans-2f" x="158.203125"/>
      <use xlink:href="#DejaVuSans-53" x="191.894531"/>
      <use xlink:href="#DejaVuSans-63" x="255.371094"/>
      <use xlink:href="#DejaVuSans-61" x="310.351562"/>
      <use xlink:href="#DejaVuSans-6c" x="371.630859"/>
      <use xlink:href="#DejaVuSans-61" x="399.414062"/>
     </g>
    </g>
    <g id="line2d_41">
     <path d="M 59.925 62.376563 
L 69.925 62.376563 
L 79.925 62.376563 
" style="fill: none; stroke: #ff7f0e; stroke-width: 2; stroke-linecap: square"/>
    </g>
    <g id="text_20">
     <!-- API/DataSet -->
     <g transform="translate(87.925 65.876563)scale(0.1 -0.1)">
      <defs>
       <path id="DejaVuSans-44" d="M 1259 4147 
L 1259 519 
L 2022 519 
Q 2988 519 3436 956 
Q 3884 1394 3884 2338 
Q 3884 3275 3436 3711 
Q 2988 4147 2022 4147 
L 1259 4147 
z
M 628 4666 
L 1925 4666 
Q 3281 4666 3915 4102 
Q 4550 3538 4550 2338 
Q 4550 1131 3912 565 
Q 3275 0 1925 0 
L 628 0 
L 628 4666 
z
" transform="scale(0.015625)"/>
      </defs>
      <use xlink:href="#DejaVuSans-41"/>
      <use xlink:href="#DejaVuSans-50" x="68.408203"/>
      <use xlink:href="#DejaVuSans-49" x="128.710938"/>
      <use xlink:href="#DejaVuSans-2f" x="158.203125"/>
      <use xlink:href="#DejaVuSans-44" x="191.894531"/>
      <use xlink:href="#DejaVuSans-61" x="268.896484"/>
      <use xlink:href="#DejaVuSans-74" x="330.175781"/>
      <use xlink:href="#DejaVuSans-61" x="369.384766"/>
      <use xlink:href="#DejaVuSans-53" x="430.664062"/>
      <use xlink:href="#DejaVuSans-65" x="494.140625"/>
      <use xlink:href="#DejaVuSans-74" x="555.664062"/>
     </g>
    </g>
    <g id="line2d_42">
     <path d="M 59.925 77.054688 
L 69.925 77.054688 
L 79.925 77.054688 
" style="fill: none; stroke: #2ca02c; stroke-width: 2; stroke-linecap: square"/>
    </g>
    <g id="text_21">
     <!-- API/Python -->
     <g transform="translate(87.925 80.554688)scale(0.1 -0.1)">
      <defs>
       <path id="DejaVuSans-79" d="M 2059 -325 
Q 1816 -950 1584 -1140 
Q 1353 -1331 966 -1331 
L 506 -1331 
L 506 -850 
L 844 -850 
Q 1081 -850 1212 -737 
Q 1344 -625 1503 -206 
L 1606 56 
L 191 3500 
L 800 3500 
L 1894 763 
L 2988 3500 
L 3597 3500 
L 2059 -325 
z
" transform="scale(0.015625)"/>
       <path id="DejaVuSans-68" d="M 3513 2113 
L 3513 0 
L 2938 0 
L 2938 2094 
Q 2938 2591 2744 2837 
Q 2550 3084 2163 3084 
Q 1697 3084 1428 2787 
Q 1159 2491 1159 1978 
L 1159 0 
L 581 0 
L 581 4863 
L 1159 4863 
L 1159 2956 
Q 1366 3272 1645 3428 
Q 1925 3584 2291 3584 
Q 2894 3584 3203 3211 
Q 3513 2838 3513 2113 
z
" transform="scale(0.015625)"/>
      </defs>
      <use xlink:href="#DejaVuSans-41"/>
      <use xlink:href="#DejaVuSans-50" x="68.408203"/>
      <use xlink:href="#DejaVuSans-49" x="128.710938"/>
      <use xlink:href="#DejaVuSans-2f" x="158.203125"/>
      <use xlink:href="#DejaVuSans-50" x="191.894531"/>
      <use xlink:href="#DejaVuSans-79" x="252.197266"/>
      <use xlink:href="#DejaVuSans-74" x="311.376953"/>
      <use xlink:href="#DejaVuSans-68" x="350.585938"/>
      <use xlink:href="#DejaVuSans-6f" x="413.964844"/>
      <use xlink:href="#DejaVuSans-6e" x="475.146484"/>
     </g>
    </g>
    <g id="line2d_43">
     <path d="M 59.925 91.732813 
L 69.925 91.732813 
L 79.925 91.732813 
" style="fill: none; stroke: #d62728; stroke-width: 2; stroke-linecap: square"/>
    </g>
    <g id="text_22">
     <!-- API/DataStream -->
     <g transform="translate(87.925 95.232813)scale(0.1 -0.1)">
      <use xlink:href="#DejaVuSans-41"/>
      <use xlink:href="#DejaVuSans-50" x="68.408203"/>
      <use xlink:href="#DejaVuSans-49" x="128.710938"/>
      <use xlink:href="#DejaVuSans-2f" x="158.203125"/>
      <use xlink:href="#DejaVuSans-44" x="191.894531"/>
      <use xlink:href="#DejaVuSans-61" x="268.896484"/>
      <use xlink:href="#DejaVuSans-74" x="330.175781"/>
      <use xlink:href="#DejaVuSans-61" x="369.384766"/>
      <use xlink:href="#DejaVuSans-53" x="430.664062"/>
      <use xlink:href="#DejaVuSans-74" x="494.140625"/>
      <use xlink:href="#DejaVuSans-72" x="533.349609"/>
      <use xlink:href="#DejaVuSans-65" x="572.212891"/>
      <use xlink:href="#DejaVuSans-61" x="633.736328"/>
      <use xlink:href="#DejaVuSans-6d" x="695.015625"/>
     </g>
    </g>
    <g id="line2d_44">
     <path d="M 59.925 106.410938 
L 69.925 106.410938 
L 79.925 106.410938 
" style="fill: none; stroke: #9467bd; stroke-width: 2; stroke-linecap: square"/>
    </g>
    <g id="text_23">
     <!-- API/TypeSerializationSystem -->
     <g transform="translate(87.925 109.910938)scale(0.1 -0.1)">
      <defs>
       <path id="DejaVuSans-54" d="M -19 4666 
L 3928 4666 
L 3928 4134 
L 2272 4134 
L 2272 0 
L 1638 0 
L 1638 4134 
L -19 4134 
L -19 4666 
z
" transform="scale(0.015625)"/>
       <path id="DejaVuSans-70" d="M 1159 525 
L 1159 -1331 
L 581 -1331 
L 581 3500 
L 1159 3500 
L 1159 2969 
Q 1341 3281 1617 3432 
Q 1894 3584 2278 3584 
Q 2916 3584 3314 3078 
Q 3713 2572 3713 1747 
Q 3713 922 3314 415 
Q 2916 -91 2278 -91 
Q 1894 -91 1617 61 
Q 1341 213 1159 525 
z
M 3116 1747 
Q 3116 2381 2855 2742 
Q 2594 3103 2138 3103 
Q 1681 3103 1420 2742 
Q 1159 2381 1159 1747 
Q 1159 1113 1420 752 
Q 1681 391 2138 391 
Q 2594 391 2855 752 
Q 3116 1113 3116 1747 
z
" transform="scale(0.015625)"/>
       <path id="DejaVuSans-7a" d="M 353 3500 
L 3084 3500 
L 3084 2975 
L 922 459 
L 3084 459 
L 3084 0 
L 275 0 
L 275 525 
L 2438 3041 
L 353 3041 
L 353 3500 
z
" transform="scale(0.015625)"/>
       <path id="DejaVuSans-73" d="M 2834 3397 
L 2834 2853 
Q 2591 2978 2328 3040 
Q 2066 3103 1784 3103 
Q 1356 3103 1142 2972 
Q 928 2841 928 2578 
Q 928 2378 1081 2264 
Q 1234 2150 1697 2047 
L 1894 2003 
Q 2506 1872 2764 1633 
Q 3022 1394 3022 966 
Q 3022 478 2636 193 
Q 2250 -91 1575 -91 
Q 1294 -91 989 -36 
Q 684 19 347 128 
L 347 722 
Q 666 556 975 473 
Q 1284 391 1588 391 
Q 1994 391 2212 530 
Q 2431 669 2431 922 
Q 2431 1156 2273 1281 
Q 2116 1406 1581 1522 
L 1381 1569 
Q 847 1681 609 1914 
Q 372 2147 372 2553 
Q 372 3047 722 3315 
Q 1072 3584 1716 3584 
Q 2034 3584 2315 3537 
Q 2597 3491 2834 3397 
z
" transform="scale(0.015625)"/>
      </defs>
      <use xlink:href="#DejaVuSans-41"/>
      <use xlink:href="#DejaVuSans-50" x="68.408203"/>
      <use xlink:href="#DejaVuSans-49" x="128.710938"/>
      <use xlink:href="#DejaVuSans-2f" x="158.203125"/>
      <use xlink:href="#DejaVuSans-54" x="191.894531"/>
      <use xlink:href="#DejaVuSans-79" x="237.353516"/>
      <use xlink:href="#DejaVuSans-70" x="296.533203"/>
      <use xlink:href="#DejaVuSans-65" x="360.009766"/>
      <use xlink:href="#DejaVuSans-53" x="421.533203"/>
      <use xlink:href="#DejaVuSans-65" x="485.009766"/>
      <use xlink:href="#DejaVuSans-72" x="546.533203"/>
      <use xlink:href="#DejaVuSans-69" x="587.646484"/>
      <use xlink:href="#DejaVuSans-61" x="615.429688"/>
      <use xlink:href="#DejaVuSans-6c" x="676.708984"/>
      <use xlink:href="#DejaVuSans-69" x="704.492188"/>
      <use xlink:href="#DejaVuSans-7a" x="732.275391"/>
      <use xlink:href="#DejaVuSans-61" x="784.765625"/>
      <use xlink:href="#DejaVuSans-74" x="846.044922"/>
      <use xlink:href="#DejaVuSans-69" x="885.253906"/>
      <use xlink:href="#DejaVuSans-6f" x="913.037109"/>
      <use xlink:href="#DejaVuSans-6e" x="974.21875"/>
      <use xlink:href="#DejaVuSans-53" x="1037.597656"/>
      <use xlink:href="#DejaVuSans-79" x="1101.074219"/>
      <use xlink:href="#DejaVuSans-73" x="1160.253906"/>
      <use xlink:href="#DejaVuSans-74" x="1212.353516"/>
      <use xlink:href="#DejaVuSans-65" x="1251.5625"/>
      <use xlink:href="#DejaVuSans-6d" x="1313.085938"/>
     </g>
    </g>
    <g id="line2d_45">
     <path d="M 59.925 121.089063 
L 69.925 121.089063 
L 79.925 121.089063 
" style="fill: none; stroke: #8c564b; stroke-width: 2; stroke-linecap: square"/>
    </g>
    <g id="text_24">
     <!-- API/StateProcessor -->
     <g transform="translate(87.925 124.589063)scale(0.1 -0.1)">
      <use xlink:href="#DejaVuSans-41"/>
      <use xlink:href="#DejaVuSans-50" x="68.408203"/>
      <use xlink:href="#DejaVuSans-49" x="128.710938"/>
      <use xlink:href="#DejaVuSans-2f" x="158.203125"/>
      <use xlink:href="#DejaVuSans-53" x="191.894531"/>
      <use xlink:href="#DejaVuSans-74" x="255.371094"/>
      <use xlink:href="#DejaVuSans-61" x="294.580078"/>
      <use xlink:href="#DejaVuSans-74" x="355.859375"/>
      <use xlink:href="#DejaVuSans-65" x="395.068359"/>
      <use xlink:href="#DejaVuSans-50" x="456.591797"/>
      <use xlink:href="#DejaVuSans-72" x="515.144531"/>
      <use xlink:href="#DejaVuSans-6f" x="554.007812"/>
      <use xlink:href="#DejaVuSans-63" x="615.189453"/>
      <use xlink:href="#DejaVuSans-65" x="670.169922"/>
      <use xlink:href="#DejaVuSans-73" x="731.693359"/>
      <use xlink:href="#DejaVuSans-73" x="783.792969"/>
      <use xlink:href="#DejaVuSans-6f" x="835.892578"/>
      <use xlink:href="#DejaVuSans-72" x="897.074219"/>
     </g>
    </g>
    <g id="line2d_46">
     <path d="M 59.925 135.767188 
L 69.925 135.767188 
L 79.925 135.767188 
" style="fill: none; stroke: #e377c2; stroke-width: 2; stroke-linecap: square"/>
    </g>
    <g id="text_25">
     <!-- API/Core -->
     <g transform="translate(87.925 139.267188)scale(0.1 -0.1)">
      <defs>
       <path id="DejaVuSans-43" d="M 4122 4306 
L 4122 3641 
Q 3803 3938 3442 4084 
Q 3081 4231 2675 4231 
Q 1875 4231 1450 3742 
Q 1025 3253 1025 2328 
Q 1025 1406 1450 917 
Q 1875 428 2675 428 
Q 3081 428 3442 575 
Q 3803 722 4122 1019 
L 4122 359 
Q 3791 134 3420 21 
Q 3050 -91 2638 -91 
Q 1578 -91 968 557 
Q 359 1206 359 2328 
Q 359 3453 968 4101 
Q 1578 4750 2638 4750 
Q 3056 4750 3426 4639 
Q 3797 4528 4122 4306 
z
" transform="scale(0.015625)"/>
      </defs>
      <use xlink:href="#DejaVuSans-41"/>
      <use xlink:href="#DejaVuSans-50" x="68.408203"/>
      <use xlink:href="#DejaVuSans-49" x="128.710938"/>
      <use xlink:href="#DejaVuSans-2f" x="158.203125"/>
      <use xlink:href="#DejaVuSans-43" x="191.894531"/>
      <use xlink:href="#DejaVuSans-6f" x="261.71875"/>
      <use xlink:href="#DejaVuSans-72" x="322.900391"/>
      <use xlink:href="#DejaVuSans-65" x="361.763672"/>
     </g>
    </g>
   </g>
  </g>
  <g id="text_26">
   <!-- Total PRs for components with prefix 'API' -->
   <g transform="translate(235.633125 17.758125)scale(0.12 -0.12)">
    <defs>
     <path id="DejaVuSans-52" d="M 2841 2188 
Q 3044 2119 3236 1894 
Q 3428 1669 3622 1275 
L 4263 0 
L 3584 0 
L 2988 1197 
Q 2756 1666 2539 1819 
Q 2322 1972 1947 1972 
L 1259 1972 
L 1259 0 
L 628 0 
L 628 4666 
L 2053 4666 
Q 2853 4666 3247 4331 
Q 3641 3997 3641 3322 
Q 3641 2881 3436 2590 
Q 3231 2300 2841 2188 
z
M 1259 4147 
L 1259 2491 
L 2053 2491 
Q 2509 2491 2742 2702 
Q 2975 2913 2975 3322 
Q 2975 3731 2742 3939 
Q 2509 4147 2053 4147 
L 1259 4147 
z
" transform="scale(0.015625)"/>
     <path id="DejaVuSans-66" d="M 2375 4863 
L 2375 4384 
L 1825 4384 
Q 1516 4384 1395 4259 
Q 1275 4134 1275 3809 
L 1275 3500 
L 2222 3500 
L 2222 3053 
L 1275 3053 
L 1275 0 
L 697 0 
L 697 3053 
L 147 3053 
L 147 3500 
L 697 3500 
L 697 3744 
Q 697 4328 969 4595 
Q 1241 4863 1831 4863 
L 2375 4863 
z
" transform="scale(0.015625)"/>
     <path id="DejaVuSans-77" d="M 269 3500 
L 844 3500 
L 1563 769 
L 2278 3500 
L 2956 3500 
L 3675 769 
L 4391 3500 
L 4966 3500 
L 4050 0 
L 3372 0 
L 2619 2869 
L 1863 0 
L 1184 0 
L 269 3500 
z
" transform="scale(0.015625)"/>
     <path id="DejaVuSans-78" d="M 3513 3500 
L 2247 1797 
L 3578 0 
L 2900 0 
L 1881 1375 
L 863 0 
L 184 0 
L 1544 1831 
L 300 3500 
L 978 3500 
L 1906 2253 
L 2834 3500 
L 3513 3500 
z
" transform="scale(0.015625)"/>
     <path id="DejaVuSans-27" d="M 1147 4666 
L 1147 2931 
L 616 2931 
L 616 4666 
L 1147 4666 
z
" transform="scale(0.015625)"/>
    </defs>
    <use xlink:href="#DejaVuSans-54"/>
    <use xlink:href="#DejaVuSans-6f" x="44.083984"/>
    <use xlink:href="#DejaVuSans-74" x="105.265625"/>
    <use xlink:href="#DejaVuSans-61" x="144.474609"/>
    <use xlink:href="#DejaVuSans-6c" x="205.753906"/>
    <use xlink:href="#DejaVuSans-20" x="233.537109"/>
    <use xlink:href="#DejaVuSans-50" x="265.324219"/>
    <use xlink:href="#DejaVuSans-52" x="325.626953"/>
    <use xlink:href="#DejaVuSans-73" x="395.109375"/>
    <use xlink:href="#DejaVuSans-20" x="447.208984"/>
    <use xlink:href="#DejaVuSans-66" x="478.996094"/>
    <use xlink:href="#DejaVuSans-6f" x="514.201172"/>
    <use xlink:href="#DejaVuSans-72" x="575.382812"/>
    <use xlink:href="#DejaVuSans-20" x="616.496094"/>
    <use xlink:href="#DejaVuSans-63" x="648.283203"/>
    <use xlink:href="#DejaVuSans-6f" x="703.263672"/>
    <use xlink:href="#DejaVuSans-6d" x="764.445312"/>
    <use xlink:href="#DejaVuSans-70" x="861.857422"/>
    <use xlink:href="#DejaVuSans-6f" x="925.333984"/>
    <use xlink:href="#DejaVuSans-6e" x="986.515625"/>
    <use xlink:href="#DejaVuSans-65" x="1049.894531"/>
    <use xlink:href="#DejaVuSans-6e" x="1111.417969"/>
    <use xlink:href="#DejaVuSans-74" x="1174.796875"/>
    <use xlink:href="#DejaVuSans-73" x="1214.005859"/>
    <use xlink:href="#DejaVuSans-20" x="1266.105469"/>
    <use xlink:href="#DejaVuSans-77" x="1297.892578"/>
    <use xlink:href="#DejaVuSans-69" x="1379.679688"/>
    <use xlink:href="#DejaVuSans-74" x="1407.462891"/>
    <use xlink:href="#DejaVuSans-68" x="1446.671875"/>
    <use xlink:href="#DejaVuSans-20" x="1510.050781"/>
    <use xlink:href="#DejaVuSans-70" x="1541.837891"/>
    <use xlink:href="#DejaVuSans-72" x="1605.314453"/>
    <use xlink:href="#DejaVuSans-65" x="1644.177734"/>
    <use xlink:href="#DejaVuSans-66" x="1705.701172"/>
    <use xlink:href="#DejaVuSans-69" x="1740.90625"/>
    <use xlink:href="#DejaVuSans-78" x="1768.689453"/>
    <use xlink:href="#DejaVuSans-20" x="1827.869141"/>
    <use xlink:href="#DejaVuSans-27" x="1859.65625"/>
    <use xlink:href="#DejaVuSans-41" x="1887.146484"/>
    <use xlink:href="#DejaVuSans-50" x="1955.554688"/>
    <use xlink:href="#DejaVuSans-49" x="2015.857422"/>
    <use xlink:href="#DejaVuSans-27" x="2045.349609"/>
   </g>
  </g>
 </g>
 <defs>
  <clipPath id="p6bccc54f97">
   <rect x="50.925" y="34.6" width="658.275" height="344.189746"/>
  </clipPath>
 </defs>
</svg>
