<?xml version="1.0" encoding="utf-8" standalone="no"?>
<!DOCTYPE svg PUBLIC "-//W3C//DTD SVG 1.1//EN"
  "http://www.w3.org/Graphics/SVG/1.1/DTD/svg11.dtd">
<svg xmlns:xlink="http://www.w3.org/1999/xlink" width="720pt" height="432pt" viewBox="0 0 720 432" xmlns="http://www.w3.org/2000/svg" version="1.1">
 <metadata>
  <rdf:RDF xmlns:dc="http://purl.org/dc/elements/1.1/" xmlns:cc="http://creativecommons.org/ns#" xmlns:rdf="http://www.w3.org/1999/02/22-rdf-syntax-ns#">
   <cc:Work>
    <dc:type rdf:resource="http://purl.org/dc/dcmitype/StillImage"/>
    <dc:date>2022-06-02T17:41:03.834299</dc:date>
    <dc:format>image/svg+xml</dc:format>
    <dc:creator>
     <cc:Agent>
      <dc:title>Matplotlib v3.5.0, https://matplotlib.org/</dc:title>
     </cc:Agent>
    </dc:creator>
   </cc:Work>
  </rdf:RDF>
 </metadata>
 <defs>
  <style type="text/css">*{stroke-linejoin: round; stroke-linecap: butt}</style>
 </defs>
 <g id="figure_1">
  <g id="patch_1">
   <path d="M 0 432 
L 720 432 
L 720 0 
L 0 0 
z
" style="fill: #ffffff"/>
  </g>
  <g id="axes_1">
   <g id="patch_2">
    <path d="M 50.925 378.789746 
L 709.2 378.789746 
L 709.2 34.6 
L 50.925 34.6 
z
" style="fill: #ffffff"/>
   </g>
   <g id="matplotlib.axis_1">
    <g id="xtick_1">
     <g id="line2d_1">
      <path d="M 70.463222 378.789746 
L 70.463222 34.6 
" clip-path="url(#p0b3ec40b42)" style="fill: none; stroke: #b0b0b0; stroke-width: 0.8; stroke-linecap: square"/>
     </g>
     <g id="line2d_2">
      <defs>
       <path id="mc388734f3f" d="M 0 0 
L 0 3.5 
" style="stroke: #000000; stroke-width: 0.8"/>
      </defs>
      <g>
       <use xlink:href="#mc388734f3f" x="70.463222" y="378.789746" style="stroke: #000000; stroke-width: 0.8"/>
      </g>
     </g>
     <g id="text_1">
      <!-- 2015 -->
      <g transform="translate(47.383032 405.095186)rotate(-30)scale(0.1 -0.1)">
       <defs>
        <path id="DejaVuSans-32" d="M 1228 531 
L 3431 531 
L 3431 0 
L 469 0 
L 469 531 
Q 828 903 1448 1529 
Q 2069 2156 2228 2338 
Q 2531 2678 2651 2914 
Q 2772 3150 2772 3378 
Q 2772 3750 2511 3984 
Q 2250 4219 1831 4219 
Q 1534 4219 1204 4116 
Q 875 4013 500 3803 
L 500 4441 
Q 881 4594 1212 4672 
Q 1544 4750 1819 4750 
Q 2544 4750 2975 4387 
Q 3406 4025 3406 3419 
Q 3406 3131 3298 2873 
Q 3191 2616 2906 2266 
Q 2828 2175 2409 1742 
Q 1991 1309 1228 531 
z
" transform="scale(0.015625)"/>
        <path id="DejaVuSans-30" d="M 2034 4250 
Q 1547 4250 1301 3770 
Q 1056 3291 1056 2328 
Q 1056 1369 1301 889 
Q 1547 409 2034 409 
Q 2525 409 2770 889 
Q 3016 1369 3016 2328 
Q 3016 3291 2770 3770 
Q 2525 4250 2034 4250 
z
M 2034 4750 
Q 2819 4750 3233 4129 
Q 3647 3509 3647 2328 
Q 3647 1150 3233 529 
Q 2819 -91 2034 -91 
Q 1250 -91 836 529 
Q 422 1150 422 2328 
Q 422 3509 836 4129 
Q 1250 4750 2034 4750 
z
" transform="scale(0.015625)"/>
        <path id="DejaVuSans-31" d="M 794 531 
L 1825 531 
L 1825 4091 
L 703 3866 
L 703 4441 
L 1819 4666 
L 2450 4666 
L 2450 531 
L 3481 531 
L 3481 0 
L 794 0 
L 794 531 
z
" transform="scale(0.015625)"/>
        <path id="DejaVuSans-35" d="M 691 4666 
L 3169 4666 
L 3169 4134 
L 1269 4134 
L 1269 2991 
Q 1406 3038 1543 3061 
Q 1681 3084 1819 3084 
Q 2600 3084 3056 2656 
Q 3513 2228 3513 1497 
Q 3513 744 3044 326 
Q 2575 -91 1722 -91 
Q 1428 -91 1123 -41 
Q 819 9 494 109 
L 494 744 
Q 775 591 1075 516 
Q 1375 441 1709 441 
Q 2250 441 2565 725 
Q 2881 1009 2881 1497 
Q 2881 1984 2565 2268 
Q 2250 2553 1709 2553 
Q 1456 2553 1204 2497 
Q 953 2441 691 2322 
L 691 4666 
z
" transform="scale(0.015625)"/>
       </defs>
       <use xlink:href="#DejaVuSans-32"/>
       <use xlink:href="#DejaVuSans-30" x="63.623047"/>
       <use xlink:href="#DejaVuSans-31" x="127.246094"/>
       <use xlink:href="#DejaVuSans-35" x="190.869141"/>
      </g>
     </g>
    </g>
    <g id="xtick_2">
     <g id="line2d_3">
      <path d="M 153.221746 378.789746 
L 153.221746 34.6 
" clip-path="url(#p0b3ec40b42)" style="fill: none; stroke: #b0b0b0; stroke-width: 0.8; stroke-linecap: square"/>
     </g>
     <g id="line2d_4">
      <g>
       <use xlink:href="#mc388734f3f" x="153.221746" y="378.789746" style="stroke: #000000; stroke-width: 0.8"/>
      </g>
     </g>
     <g id="text_2">
      <!-- 2016 -->
      <g transform="translate(130.141556 405.095186)rotate(-30)scale(0.1 -0.1)">
       <defs>
        <path id="DejaVuSans-36" d="M 2113 2584 
Q 1688 2584 1439 2293 
Q 1191 2003 1191 1497 
Q 1191 994 1439 701 
Q 1688 409 2113 409 
Q 2538 409 2786 701 
Q 3034 994 3034 1497 
Q 3034 2003 2786 2293 
Q 2538 2584 2113 2584 
z
M 3366 4563 
L 3366 3988 
Q 3128 4100 2886 4159 
Q 2644 4219 2406 4219 
Q 1781 4219 1451 3797 
Q 1122 3375 1075 2522 
Q 1259 2794 1537 2939 
Q 1816 3084 2150 3084 
Q 2853 3084 3261 2657 
Q 3669 2231 3669 1497 
Q 3669 778 3244 343 
Q 2819 -91 2113 -91 
Q 1303 -91 875 529 
Q 447 1150 447 2328 
Q 447 3434 972 4092 
Q 1497 4750 2381 4750 
Q 2619 4750 2861 4703 
Q 3103 4656 3366 4563 
z
" transform="scale(0.015625)"/>
       </defs>
       <use xlink:href="#DejaVuSans-32"/>
       <use xlink:href="#DejaVuSans-30" x="63.623047"/>
       <use xlink:href="#DejaVuSans-31" x="127.246094"/>
       <use xlink:href="#DejaVuSans-36" x="190.869141"/>
      </g>
     </g>
    </g>
    <g id="xtick_3">
     <g id="line2d_5">
      <path d="M 236.207006 378.789746 
L 236.207006 34.6 
" clip-path="url(#p0b3ec40b42)" style="fill: none; stroke: #b0b0b0; stroke-width: 0.8; stroke-linecap: square"/>
     </g>
     <g id="line2d_6">
      <g>
       <use xlink:href="#mc388734f3f" x="236.207006" y="378.789746" style="stroke: #000000; stroke-width: 0.8"/>
      </g>
     </g>
     <g id="text_3">
      <!-- 2017 -->
      <g transform="translate(213.126816 405.095186)rotate(-30)scale(0.1 -0.1)">
       <defs>
        <path id="DejaVuSans-37" d="M 525 4666 
L 3525 4666 
L 3525 4397 
L 1831 0 
L 1172 0 
L 2766 4134 
L 525 4134 
L 525 4666 
z
" transform="scale(0.015625)"/>
       </defs>
       <use xlink:href="#DejaVuSans-32"/>
       <use xlink:href="#DejaVuSans-30" x="63.623047"/>
       <use xlink:href="#DejaVuSans-31" x="127.246094"/>
       <use xlink:href="#DejaVuSans-37" x="190.869141"/>
      </g>
     </g>
    </g>
    <g id="xtick_4">
     <g id="line2d_7">
      <path d="M 318.96553 378.789746 
L 318.96553 34.6 
" clip-path="url(#p0b3ec40b42)" style="fill: none; stroke: #b0b0b0; stroke-width: 0.8; stroke-linecap: square"/>
     </g>
     <g id="line2d_8">
      <g>
       <use xlink:href="#mc388734f3f" x="318.96553" y="378.789746" style="stroke: #000000; stroke-width: 0.8"/>
      </g>
     </g>
     <g id="text_4">
      <!-- 2018 -->
      <g transform="translate(295.88534 405.095186)rotate(-30)scale(0.1 -0.1)">
       <defs>
        <path id="DejaVuSans-38" d="M 2034 2216 
Q 1584 2216 1326 1975 
Q 1069 1734 1069 1313 
Q 1069 891 1326 650 
Q 1584 409 2034 409 
Q 2484 409 2743 651 
Q 3003 894 3003 1313 
Q 3003 1734 2745 1975 
Q 2488 2216 2034 2216 
z
M 1403 2484 
Q 997 2584 770 2862 
Q 544 3141 544 3541 
Q 544 4100 942 4425 
Q 1341 4750 2034 4750 
Q 2731 4750 3128 4425 
Q 3525 4100 3525 3541 
Q 3525 3141 3298 2862 
Q 3072 2584 2669 2484 
Q 3125 2378 3379 2068 
Q 3634 1759 3634 1313 
Q 3634 634 3220 271 
Q 2806 -91 2034 -91 
Q 1263 -91 848 271 
Q 434 634 434 1313 
Q 434 1759 690 2068 
Q 947 2378 1403 2484 
z
M 1172 3481 
Q 1172 3119 1398 2916 
Q 1625 2713 2034 2713 
Q 2441 2713 2670 2916 
Q 2900 3119 2900 3481 
Q 2900 3844 2670 4047 
Q 2441 4250 2034 4250 
Q 1625 4250 1398 4047 
Q 1172 3844 1172 3481 
z
" transform="scale(0.015625)"/>
       </defs>
       <use xlink:href="#DejaVuSans-32"/>
       <use xlink:href="#DejaVuSans-30" x="63.623047"/>
       <use xlink:href="#DejaVuSans-31" x="127.246094"/>
       <use xlink:href="#DejaVuSans-38" x="190.869141"/>
      </g>
     </g>
    </g>
    <g id="xtick_5">
     <g id="line2d_9">
      <path d="M 401.724054 378.789746 
L 401.724054 34.6 
" clip-path="url(#p0b3ec40b42)" style="fill: none; stroke: #b0b0b0; stroke-width: 0.8; stroke-linecap: square"/>
     </g>
     <g id="line2d_10">
      <g>
       <use xlink:href="#mc388734f3f" x="401.724054" y="378.789746" style="stroke: #000000; stroke-width: 0.8"/>
      </g>
     </g>
     <g id="text_5">
      <!-- 2019 -->
      <g transform="translate(378.643864 405.095186)rotate(-30)scale(0.1 -0.1)">
       <defs>
        <path id="DejaVuSans-39" d="M 703 97 
L 703 672 
Q 941 559 1184 500 
Q 1428 441 1663 441 
Q 2288 441 2617 861 
Q 2947 1281 2994 2138 
Q 2813 1869 2534 1725 
Q 2256 1581 1919 1581 
Q 1219 1581 811 2004 
Q 403 2428 403 3163 
Q 403 3881 828 4315 
Q 1253 4750 1959 4750 
Q 2769 4750 3195 4129 
Q 3622 3509 3622 2328 
Q 3622 1225 3098 567 
Q 2575 -91 1691 -91 
Q 1453 -91 1209 -44 
Q 966 3 703 97 
z
M 1959 2075 
Q 2384 2075 2632 2365 
Q 2881 2656 2881 3163 
Q 2881 3666 2632 3958 
Q 2384 4250 1959 4250 
Q 1534 4250 1286 3958 
Q 1038 3666 1038 3163 
Q 1038 2656 1286 2365 
Q 1534 2075 1959 2075 
z
" transform="scale(0.015625)"/>
       </defs>
       <use xlink:href="#DejaVuSans-32"/>
       <use xlink:href="#DejaVuSans-30" x="63.623047"/>
       <use xlink:href="#DejaVuSans-31" x="127.246094"/>
       <use xlink:href="#DejaVuSans-39" x="190.869141"/>
      </g>
     </g>
    </g>
    <g id="xtick_6">
     <g id="line2d_11">
      <path d="M 484.482578 378.789746 
L 484.482578 34.6 
" clip-path="url(#p0b3ec40b42)" style="fill: none; stroke: #b0b0b0; stroke-width: 0.8; stroke-linecap: square"/>
     </g>
     <g id="line2d_12">
      <g>
       <use xlink:href="#mc388734f3f" x="484.482578" y="378.789746" style="stroke: #000000; stroke-width: 0.8"/>
      </g>
     </g>
     <g id="text_6">
      <!-- 2020 -->
      <g transform="translate(461.402388 405.095186)rotate(-30)scale(0.1 -0.1)">
       <use xlink:href="#DejaVuSans-32"/>
       <use xlink:href="#DejaVuSans-30" x="63.623047"/>
       <use xlink:href="#DejaVuSans-32" x="127.246094"/>
       <use xlink:href="#DejaVuSans-30" x="190.869141"/>
      </g>
     </g>
    </g>
    <g id="xtick_7">
     <g id="line2d_13">
      <path d="M 567.467838 378.789746 
L 567.467838 34.6 
" clip-path="url(#p0b3ec40b42)" style="fill: none; stroke: #b0b0b0; stroke-width: 0.8; stroke-linecap: square"/>
     </g>
     <g id="line2d_14">
      <g>
       <use xlink:href="#mc388734f3f" x="567.467838" y="378.789746" style="stroke: #000000; stroke-width: 0.8"/>
      </g>
     </g>
     <g id="text_7">
      <!-- 2021 -->
      <g transform="translate(544.387648 405.095186)rotate(-30)scale(0.1 -0.1)">
       <use xlink:href="#DejaVuSans-32"/>
       <use xlink:href="#DejaVuSans-30" x="63.623047"/>
       <use xlink:href="#DejaVuSans-32" x="127.246094"/>
       <use xlink:href="#DejaVuSans-31" x="190.869141"/>
      </g>
     </g>
    </g>
    <g id="xtick_8">
     <g id="line2d_15">
      <path d="M 650.226362 378.789746 
L 650.226362 34.6 
" clip-path="url(#p0b3ec40b42)" style="fill: none; stroke: #b0b0b0; stroke-width: 0.8; stroke-linecap: square"/>
     </g>
     <g id="line2d_16">
      <g>
       <use xlink:href="#mc388734f3f" x="650.226362" y="378.789746" style="stroke: #000000; stroke-width: 0.8"/>
      </g>
     </g>
     <g id="text_8">
      <!-- 2022 -->
      <g transform="translate(627.146172 405.095186)rotate(-30)scale(0.1 -0.1)">
       <use xlink:href="#DejaVuSans-32"/>
       <use xlink:href="#DejaVuSans-30" x="63.623047"/>
       <use xlink:href="#DejaVuSans-32" x="127.246094"/>
       <use xlink:href="#DejaVuSans-32" x="190.869141"/>
      </g>
     </g>
    </g>
    <g id="text_9">
     <!-- created time -->
     <g transform="translate(348.133594 418.494686)scale(0.1 -0.1)">
      <defs>
       <path id="DejaVuSans-63" d="M 3122 3366 
L 3122 2828 
Q 2878 2963 2633 3030 
Q 2388 3097 2138 3097 
Q 1578 3097 1268 2742 
Q 959 2388 959 1747 
Q 959 1106 1268 751 
Q 1578 397 2138 397 
Q 2388 397 2633 464 
Q 2878 531 3122 666 
L 3122 134 
Q 2881 22 2623 -34 
Q 2366 -91 2075 -91 
Q 1284 -91 818 406 
Q 353 903 353 1747 
Q 353 2603 823 3093 
Q 1294 3584 2113 3584 
Q 2378 3584 2631 3529 
Q 2884 3475 3122 3366 
z
" transform="scale(0.015625)"/>
       <path id="DejaVuSans-72" d="M 2631 2963 
Q 2534 3019 2420 3045 
Q 2306 3072 2169 3072 
Q 1681 3072 1420 2755 
Q 1159 2438 1159 1844 
L 1159 0 
L 581 0 
L 581 3500 
L 1159 3500 
L 1159 2956 
Q 1341 3275 1631 3429 
Q 1922 3584 2338 3584 
Q 2397 3584 2469 3576 
Q 2541 3569 2628 3553 
L 2631 2963 
z
" transform="scale(0.015625)"/>
       <path id="DejaVuSans-65" d="M 3597 1894 
L 3597 1613 
L 953 1613 
Q 991 1019 1311 708 
Q 1631 397 2203 397 
Q 2534 397 2845 478 
Q 3156 559 3463 722 
L 3463 178 
Q 3153 47 2828 -22 
Q 2503 -91 2169 -91 
Q 1331 -91 842 396 
Q 353 884 353 1716 
Q 353 2575 817 3079 
Q 1281 3584 2069 3584 
Q 2775 3584 3186 3129 
Q 3597 2675 3597 1894 
z
M 3022 2063 
Q 3016 2534 2758 2815 
Q 2500 3097 2075 3097 
Q 1594 3097 1305 2825 
Q 1016 2553 972 2059 
L 3022 2063 
z
" transform="scale(0.015625)"/>
       <path id="DejaVuSans-61" d="M 2194 1759 
Q 1497 1759 1228 1600 
Q 959 1441 959 1056 
Q 959 750 1161 570 
Q 1363 391 1709 391 
Q 2188 391 2477 730 
Q 2766 1069 2766 1631 
L 2766 1759 
L 2194 1759 
z
M 3341 1997 
L 3341 0 
L 2766 0 
L 2766 531 
Q 2569 213 2275 61 
Q 1981 -91 1556 -91 
Q 1019 -91 701 211 
Q 384 513 384 1019 
Q 384 1609 779 1909 
Q 1175 2209 1959 2209 
L 2766 2209 
L 2766 2266 
Q 2766 2663 2505 2880 
Q 2244 3097 1772 3097 
Q 1472 3097 1187 3025 
Q 903 2953 641 2809 
L 641 3341 
Q 956 3463 1253 3523 
Q 1550 3584 1831 3584 
Q 2591 3584 2966 3190 
Q 3341 2797 3341 1997 
z
" transform="scale(0.015625)"/>
       <path id="DejaVuSans-74" d="M 1172 4494 
L 1172 3500 
L 2356 3500 
L 2356 3053 
L 1172 3053 
L 1172 1153 
Q 1172 725 1289 603 
Q 1406 481 1766 481 
L 2356 481 
L 2356 0 
L 1766 0 
Q 1100 0 847 248 
Q 594 497 594 1153 
L 594 3053 
L 172 3053 
L 172 3500 
L 594 3500 
L 594 4494 
L 1172 4494 
z
" transform="scale(0.015625)"/>
       <path id="DejaVuSans-64" d="M 2906 2969 
L 2906 4863 
L 3481 4863 
L 3481 0 
L 2906 0 
L 2906 525 
Q 2725 213 2448 61 
Q 2172 -91 1784 -91 
Q 1150 -91 751 415 
Q 353 922 353 1747 
Q 353 2572 751 3078 
Q 1150 3584 1784 3584 
Q 2172 3584 2448 3432 
Q 2725 3281 2906 2969 
z
M 947 1747 
Q 947 1113 1208 752 
Q 1469 391 1925 391 
Q 2381 391 2643 752 
Q 2906 1113 2906 1747 
Q 2906 2381 2643 2742 
Q 2381 3103 1925 3103 
Q 1469 3103 1208 2742 
Q 947 2381 947 1747 
z
" transform="scale(0.015625)"/>
       <path id="DejaVuSans-20" transform="scale(0.015625)"/>
       <path id="DejaVuSans-69" d="M 603 3500 
L 1178 3500 
L 1178 0 
L 603 0 
L 603 3500 
z
M 603 4863 
L 1178 4863 
L 1178 4134 
L 603 4134 
L 603 4863 
z
" transform="scale(0.015625)"/>
       <path id="DejaVuSans-6d" d="M 3328 2828 
Q 3544 3216 3844 3400 
Q 4144 3584 4550 3584 
Q 5097 3584 5394 3201 
Q 5691 2819 5691 2113 
L 5691 0 
L 5113 0 
L 5113 2094 
Q 5113 2597 4934 2840 
Q 4756 3084 4391 3084 
Q 3944 3084 3684 2787 
Q 3425 2491 3425 1978 
L 3425 0 
L 2847 0 
L 2847 2094 
Q 2847 2600 2669 2842 
Q 2491 3084 2119 3084 
Q 1678 3084 1418 2786 
Q 1159 2488 1159 1978 
L 1159 0 
L 581 0 
L 581 3500 
L 1159 3500 
L 1159 2956 
Q 1356 3278 1631 3431 
Q 1906 3584 2284 3584 
Q 2666 3584 2933 3390 
Q 3200 3197 3328 2828 
z
" transform="scale(0.015625)"/>
      </defs>
      <use xlink:href="#DejaVuSans-63"/>
      <use xlink:href="#DejaVuSans-72" x="54.980469"/>
      <use xlink:href="#DejaVuSans-65" x="93.84375"/>
      <use xlink:href="#DejaVuSans-61" x="155.367188"/>
      <use xlink:href="#DejaVuSans-74" x="216.646484"/>
      <use xlink:href="#DejaVuSans-65" x="255.855469"/>
      <use xlink:href="#DejaVuSans-64" x="317.378906"/>
      <use xlink:href="#DejaVuSans-20" x="380.855469"/>
      <use xlink:href="#DejaVuSans-74" x="412.642578"/>
      <use xlink:href="#DejaVuSans-69" x="451.851562"/>
      <use xlink:href="#DejaVuSans-6d" x="479.634766"/>
      <use xlink:href="#DejaVuSans-65" x="577.046875"/>
     </g>
    </g>
   </g>
   <g id="matplotlib.axis_2">
    <g id="ytick_1">
     <g id="line2d_17">
      <path d="M 50.925 364.892801 
L 709.2 364.892801 
" clip-path="url(#p0b3ec40b42)" style="fill: none; stroke: #b0b0b0; stroke-width: 0.8; stroke-linecap: square"/>
     </g>
     <g id="line2d_18">
      <defs>
       <path id="m8278109f77" d="M 0 0 
L -3.5 0 
" style="stroke: #000000; stroke-width: 0.8"/>
      </defs>
      <g>
       <use xlink:href="#m8278109f77" x="50.925" y="364.892801" style="stroke: #000000; stroke-width: 0.8"/>
      </g>
     </g>
     <g id="text_10">
      <!-- 0 -->
      <g transform="translate(37.5625 368.69202)scale(0.1 -0.1)">
       <use xlink:href="#DejaVuSans-30"/>
      </g>
     </g>
    </g>
    <g id="ytick_2">
     <g id="line2d_19">
      <path d="M 50.925 321.191716 
L 709.2 321.191716 
" clip-path="url(#p0b3ec40b42)" style="fill: none; stroke: #b0b0b0; stroke-width: 0.8; stroke-linecap: square"/>
     </g>
     <g id="line2d_20">
      <g>
       <use xlink:href="#m8278109f77" x="50.925" y="321.191716" style="stroke: #000000; stroke-width: 0.8"/>
      </g>
     </g>
     <g id="text_11">
      <!-- 25 -->
      <g transform="translate(31.2 324.990935)scale(0.1 -0.1)">
       <use xlink:href="#DejaVuSans-32"/>
       <use xlink:href="#DejaVuSans-35" x="63.623047"/>
      </g>
     </g>
    </g>
    <g id="ytick_3">
     <g id="line2d_21">
      <path d="M 50.925 277.490631 
L 709.2 277.490631 
" clip-path="url(#p0b3ec40b42)" style="fill: none; stroke: #b0b0b0; stroke-width: 0.8; stroke-linecap: square"/>
     </g>
     <g id="line2d_22">
      <g>
       <use xlink:href="#m8278109f77" x="50.925" y="277.490631" style="stroke: #000000; stroke-width: 0.8"/>
      </g>
     </g>
     <g id="text_12">
      <!-- 50 -->
      <g transform="translate(31.2 281.28985)scale(0.1 -0.1)">
       <use xlink:href="#DejaVuSans-35"/>
       <use xlink:href="#DejaVuSans-30" x="63.623047"/>
      </g>
     </g>
    </g>
    <g id="ytick_4">
     <g id="line2d_23">
      <path d="M 50.925 233.789546 
L 709.2 233.789546 
" clip-path="url(#p0b3ec40b42)" style="fill: none; stroke: #b0b0b0; stroke-width: 0.8; stroke-linecap: square"/>
     </g>
     <g id="line2d_24">
      <g>
       <use xlink:href="#m8278109f77" x="50.925" y="233.789546" style="stroke: #000000; stroke-width: 0.8"/>
      </g>
     </g>
     <g id="text_13">
      <!-- 75 -->
      <g transform="translate(31.2 237.588764)scale(0.1 -0.1)">
       <use xlink:href="#DejaVuSans-37"/>
       <use xlink:href="#DejaVuSans-35" x="63.623047"/>
      </g>
     </g>
    </g>
    <g id="ytick_5">
     <g id="line2d_25">
      <path d="M 50.925 190.088461 
L 709.2 190.088461 
" clip-path="url(#p0b3ec40b42)" style="fill: none; stroke: #b0b0b0; stroke-width: 0.8; stroke-linecap: square"/>
     </g>
     <g id="line2d_26">
      <g>
       <use xlink:href="#m8278109f77" x="50.925" y="190.088461" style="stroke: #000000; stroke-width: 0.8"/>
      </g>
     </g>
     <g id="text_14">
      <!-- 100 -->
      <g transform="translate(24.8375 193.887679)scale(0.1 -0.1)">
       <use xlink:href="#DejaVuSans-31"/>
       <use xlink:href="#DejaVuSans-30" x="63.623047"/>
       <use xlink:href="#DejaVuSans-30" x="127.246094"/>
      </g>
     </g>
    </g>
    <g id="ytick_6">
     <g id="line2d_27">
      <path d="M 50.925 146.387376 
L 709.2 146.387376 
" clip-path="url(#p0b3ec40b42)" style="fill: none; stroke: #b0b0b0; stroke-width: 0.8; stroke-linecap: square"/>
     </g>
     <g id="line2d_28">
      <g>
       <use xlink:href="#m8278109f77" x="50.925" y="146.387376" style="stroke: #000000; stroke-width: 0.8"/>
      </g>
     </g>
     <g id="text_15">
      <!-- 125 -->
      <g transform="translate(24.8375 150.186594)scale(0.1 -0.1)">
       <use xlink:href="#DejaVuSans-31"/>
       <use xlink:href="#DejaVuSans-32" x="63.623047"/>
       <use xlink:href="#DejaVuSans-35" x="127.246094"/>
      </g>
     </g>
    </g>
    <g id="ytick_7">
     <g id="line2d_29">
      <path d="M 50.925 102.686291 
L 709.2 102.686291 
" clip-path="url(#p0b3ec40b42)" style="fill: none; stroke: #b0b0b0; stroke-width: 0.8; stroke-linecap: square"/>
     </g>
     <g id="line2d_30">
      <g>
       <use xlink:href="#m8278109f77" x="50.925" y="102.686291" style="stroke: #000000; stroke-width: 0.8"/>
      </g>
     </g>
     <g id="text_16">
      <!-- 150 -->
      <g transform="translate(24.8375 106.485509)scale(0.1 -0.1)">
       <use xlink:href="#DejaVuSans-31"/>
       <use xlink:href="#DejaVuSans-35" x="63.623047"/>
       <use xlink:href="#DejaVuSans-30" x="127.246094"/>
      </g>
     </g>
    </g>
    <g id="ytick_8">
     <g id="line2d_31">
      <path d="M 50.925 58.985205 
L 709.2 58.985205 
" clip-path="url(#p0b3ec40b42)" style="fill: none; stroke: #b0b0b0; stroke-width: 0.8; stroke-linecap: square"/>
     </g>
     <g id="line2d_32">
      <g>
       <use xlink:href="#m8278109f77" x="50.925" y="58.985205" style="stroke: #000000; stroke-width: 0.8"/>
      </g>
     </g>
     <g id="text_17">
      <!-- 175 -->
      <g transform="translate(24.8375 62.784424)scale(0.1 -0.1)">
       <use xlink:href="#DejaVuSans-31"/>
       <use xlink:href="#DejaVuSans-37" x="63.623047"/>
       <use xlink:href="#DejaVuSans-35" x="127.246094"/>
      </g>
     </g>
    </g>
    <g id="text_18">
     <!-- count -->
     <g transform="translate(18.757812 220.801123)rotate(-90)scale(0.1 -0.1)">
      <defs>
       <path id="DejaVuSans-6f" d="M 1959 3097 
Q 1497 3097 1228 2736 
Q 959 2375 959 1747 
Q 959 1119 1226 758 
Q 1494 397 1959 397 
Q 2419 397 2687 759 
Q 2956 1122 2956 1747 
Q 2956 2369 2687 2733 
Q 2419 3097 1959 3097 
z
M 1959 3584 
Q 2709 3584 3137 3096 
Q 3566 2609 3566 1747 
Q 3566 888 3137 398 
Q 2709 -91 1959 -91 
Q 1206 -91 779 398 
Q 353 888 353 1747 
Q 353 2609 779 3096 
Q 1206 3584 1959 3584 
z
" transform="scale(0.015625)"/>
       <path id="DejaVuSans-75" d="M 544 1381 
L 544 3500 
L 1119 3500 
L 1119 1403 
Q 1119 906 1312 657 
Q 1506 409 1894 409 
Q 2359 409 2629 706 
Q 2900 1003 2900 1516 
L 2900 3500 
L 3475 3500 
L 3475 0 
L 2900 0 
L 2900 538 
Q 2691 219 2414 64 
Q 2138 -91 1772 -91 
Q 1169 -91 856 284 
Q 544 659 544 1381 
z
M 1991 3584 
L 1991 3584 
z
" transform="scale(0.015625)"/>
       <path id="DejaVuSans-6e" d="M 3513 2113 
L 3513 0 
L 2938 0 
L 2938 2094 
Q 2938 2591 2744 2837 
Q 2550 3084 2163 3084 
Q 1697 3084 1428 2787 
Q 1159 2491 1159 1978 
L 1159 0 
L 581 0 
L 581 3500 
L 1159 3500 
L 1159 2956 
Q 1366 3272 1645 3428 
Q 1925 3584 2291 3584 
Q 2894 3584 3203 3211 
Q 3513 2838 3513 2113 
z
" transform="scale(0.015625)"/>
      </defs>
      <use xlink:href="#DejaVuSans-63"/>
      <use xlink:href="#DejaVuSans-6f" x="54.980469"/>
      <use xlink:href="#DejaVuSans-75" x="116.162109"/>
      <use xlink:href="#DejaVuSans-6e" x="179.541016"/>
      <use xlink:href="#DejaVuSans-74" x="242.919922"/>
     </g>
    </g>
   </g>
   <g id="line2d_33">
    <path d="M 80.846591 363.144758 
L 80.862617 361.396714 
L 81.24584 357.900627 
L 81.706008 356.152584 
L 81.981503 354.40454 
L 82.63395 352.656497 
L 83.157395 350.908454 
L 83.491392 349.16041 
L 84.502937 347.412367 
L 85.356742 345.664323 
L 85.760903 343.91628 
L 86.084413 340.420193 
L 88.297831 338.67215 
L 89.58786 336.924106 
L 90.539171 335.176063 
L 90.561349 333.42802 
L 91.186216 331.679976 
L 93.759891 328.183889 
L 93.972283 324.687803 
L 95.831153 322.939759 
L 96.947139 321.191716 
L 98.549229 319.443672 
L 98.740474 317.695629 
L 99.458084 315.947586 
L 100.913176 314.199542 
L 100.964084 312.451499 
L 103.071624 310.703455 
L 105.288653 307.207369 
L 105.496612 305.459325 
L 105.93914 303.711282 
L 106.848907 296.719108 
L 108.441846 294.971065 
L 108.457389 293.223021 
L 110.016598 291.474978 
L 110.121818 289.726935 
L 111.514497 287.978891 
L 114.857458 284.482804 
L 115.801237 282.734761 
L 118.528474 280.986718 
L 119.988239 279.238674 
L 120.686588 277.490631 
L 122.062792 275.742587 
L 123.657251 273.994544 
L 124.088421 272.246501 
L 127.263639 270.498457 
L 128.244449 268.750414 
L 129.827996 267.00237 
L 130.057177 265.254327 
L 132.285931 261.75824 
L 132.681724 258.262153 
L 133.452185 256.51411 
L 134.042424 254.766067 
L 134.515016 253.018023 
L 135.679123 251.26998 
L 136.156199 247.773893 
L 136.740789 246.02585 
L 137.30984 242.529763 
L 140.231508 240.781719 
L 142.751783 239.033676 
L 143.183783 237.285633 
L 149.763109 235.537589 
L 150.247113 232.041502 
L 156.732762 230.293459 
L 157.492778 228.545416 
L 160.63061 226.797372 
L 164.284535 225.049329 
L 166.703518 223.301285 
L 169.735405 221.553242 
L 170.462389 219.805199 
L 177.218837 218.057155 
L 177.377828 216.309112 
L 177.479208 212.813025 
L 179.628743 209.316938 
L 179.631961 204.072808 
L 180.144428 202.324764 
L 180.17604 200.576721 
L 180.351941 198.828678 
L 180.981405 197.080634 
L 181.93822 195.332591 
L 181.948257 193.584547 
L 182.964705 191.836504 
L 184.434734 190.088461 
L 184.693956 188.340417 
L 185.804186 186.592374 
L 186.211093 184.84433 
L 186.281334 183.096287 
L 187.498316 181.348244 
L 188.270378 179.6002 
L 189.200655 177.852157 
L 193.104996 176.104113 
L 193.962388 174.35607 
L 194.172242 172.608027 
L 194.173512 170.859983 
L 194.385452 169.11194 
L 197.59029 165.615853 
L 197.615459 163.86781 
L 200.121726 162.119766 
L 206.187666 160.371723 
L 208.912964 158.623679 
L 209.128158 156.875636 
L 209.868177 155.127593 
L 209.868424 153.379549 
L 213.214016 151.631506 
L 213.22044 149.883462 
L 213.504873 148.135419 
L 216.155308 144.639332 
L 216.199075 142.891289 
L 219.599707 141.143245 
L 219.858114 139.395202 
L 221.64608 137.647159 
L 222.283635 135.899115 
L 222.320587 132.403028 
L 226.4086 130.654985 
L 227.033107 128.906942 
L 228.632402 127.158898 
L 231.386078 125.410855 
L 231.392337 123.662811 
L 231.60945 120.166725 
L 231.617509 118.418681 
L 233.118604 116.670638 
L 233.576759 114.922594 
L 234.933746 113.174551 
L 238.683897 111.426508 
L 240.22419 109.678464 
L 240.270634 104.434334 
L 240.705933 102.686291 
L 243.21411 100.938247 
L 243.21606 99.190204 
L 244.871424 97.44216 
L 245.668925 95.694117 
L 248.361039 93.946074 
L 248.428794 92.19803 
L 249.5584 90.449987 
L 249.564698 86.9539 
L 251.974476 85.205857 
L 255.640624 83.457813 
L 255.872162 81.70977 
L 262.389314 79.961726 
L 262.629016 78.213683 
L 269.193038 76.465639 
L 271.006777 74.717596 
L 273.518255 72.969553 
L 275.443705 71.221509 
L 275.811091 69.473466 
L 276.501789 67.725422 
L 276.602212 65.977379 
L 278.73886 64.229336 
L 279.718988 62.481292 
L 280.377177 60.733249 
L 280.427907 58.985205 
L 283.102141 57.237162 
L 313.052256 55.489119 
L 356.285132 53.741075 
L 555.865009 51.993032 
L 586.369249 50.244988 
L 586.369249 50.244988 
" clip-path="url(#p0b3ec40b42)" style="fill: none; stroke: #1f77b4; stroke-width: 2; stroke-linecap: square"/>
   </g>
   <g id="line2d_34">
    <path d="M 86.218602 363.144758 
L 89.66948 361.396714 
L 90.558061 357.900627 
L 95.493328 356.152584 
L 96.875171 354.40454 
L 97.078396 352.656497 
L 99.129291 350.908454 
L 99.187658 349.16041 
L 100.224414 345.664323 
L 101.657573 343.91628 
L 101.68265 342.168237 
L 102.202838 336.924106 
L 102.559579 331.679976 
L 102.562678 329.931933 
L 103.32778 328.183889 
L 103.477457 326.435846 
L 103.545874 322.939759 
L 103.661457 321.191716 
L 103.894787 319.443672 
L 103.953405 317.695629 
L 104.989876 315.947586 
L 105.068654 312.451499 
L 105.296043 310.703455 
L 105.694549 308.955412 
L 105.819183 307.207369 
L 107.97144 303.711282 
L 108.261184 301.963238 
L 110.028581 300.215195 
L 110.48348 298.467152 
L 111.399644 296.719108 
L 112.766537 294.971065 
L 113.638913 291.474978 
L 113.684486 289.726935 
L 115.034655 287.978891 
L 115.307486 286.230848 
L 122.513941 284.482804 
L 125.303212 282.734761 
L 130.206075 280.986718 
L 131.782148 279.238674 
L 132.995541 277.490631 
L 134.823878 275.742587 
L 138.795534 273.994544 
L 139.412785 272.246501 
L 142.030178 270.498457 
L 143.596914 268.750414 
L 144.637654 267.00237 
L 156.256457 265.254327 
L 160.172208 263.506284 
L 161.075256 261.75824 
L 174.625957 260.010197 
L 176.522134 256.51411 
L 177.244544 254.766067 
L 178.594984 253.018023 
L 183.186001 251.26998 
L 184.408137 249.521936 
L 187.233786 247.773893 
L 187.582154 242.529763 
L 192.80237 240.781719 
L 208.451724 239.033676 
L 213.639143 237.285633 
L 220.468595 235.537589 
L 222.368228 233.789546 
L 222.726536 232.041502 
L 225.918951 230.293459 
L 227.011754 228.545416 
L 232.460879 226.797372 
L 237.502145 225.049329 
L 237.758269 223.301285 
L 241.329663 221.553242 
L 246.391005 218.057155 
L 249.500695 216.309112 
L 255.602425 214.561068 
L 255.631848 212.813025 
L 255.819215 211.064981 
L 256.537521 209.316938 
L 261.511724 207.568895 
L 271.006777 205.820851 
L 271.633522 204.072808 
L 365.674566 202.324764 
L 395.250745 200.576721 
L 396.969714 198.828678 
L 403.883381 197.080634 
L 405.67828 195.332591 
L 431.052031 193.584547 
L 434.202015 191.836504 
L 435.832407 190.088461 
L 436.992687 188.340417 
L 436.994201 186.592374 
L 437.128794 184.84433 
L 439.892579 183.096287 
L 444.669627 181.348244 
L 445.121681 179.6002 
L 445.325043 177.852157 
L 447.087154 176.104113 
L 449.690849 174.35607 
L 450.748127 172.608027 
L 451.04904 170.859983 
L 451.696252 169.11194 
L 451.75281 151.631506 
L 454.900421 148.135419 
L 454.900623 146.387376 
L 456.460827 144.639332 
L 456.513585 134.151072 
L 456.51458 130.654985 
L 461.248451 128.906942 
L 461.250138 121.914768 
L 462.346297 120.166725 
L 462.346641 118.418681 
L 466.683273 116.670638 
L 492.039668 114.922594 
L 501.629997 113.174551 
L 501.629997 113.174551 
" clip-path="url(#p0b3ec40b42)" style="fill: none; stroke: #ff7f0e; stroke-width: 2; stroke-linecap: square"/>
   </g>
   <g id="line2d_35">
    <path d="M 173.525838 363.144758 
L 173.529157 361.396714 
L 173.718975 359.648671 
L 177.862336 357.900627 
L 181.227198 356.152584 
L 186.648976 354.40454 
L 192.817538 352.656497 
L 193.775531 350.908454 
L 195.549732 349.16041 
L 202.825404 347.412367 
L 203.984137 345.664323 
L 204.453159 343.91628 
L 206.134538 342.168237 
L 210.536911 340.420193 
L 210.609453 338.67215 
L 215.030983 336.924106 
L 224.09867 335.176063 
L 230.178217 331.679976 
L 238.819481 329.931933 
L 246.298988 328.183889 
L 247.865382 326.435846 
L 248.11581 322.939759 
L 248.575228 321.191716 
L 250.817135 317.695629 
L 252.842401 315.947586 
L 255.603394 312.451499 
L 255.621173 310.703455 
L 256.084299 308.955412 
L 257.364227 307.207369 
L 257.637367 305.459325 
L 258.097292 303.711282 
L 258.261772 301.963238 
L 258.795375 300.215195 
L 261.97338 298.467152 
L 262.861959 296.719108 
L 264.225133 294.971065 
L 265.826205 293.223021 
L 266.71482 291.474978 
L 267.608935 287.978891 
L 267.627079 286.230848 
L 268.290562 284.482804 
L 268.321145 282.734761 
L 268.74492 280.986718 
L 268.754276 279.238674 
L 270.556845 277.490631 
L 271.006777 275.742587 
L 271.660998 273.994544 
L 271.905246 272.246501 
L 273.43342 270.498457 
L 273.880486 268.750414 
L 274.667757 267.00237 
L 275.061448 263.506284 
L 275.525201 260.010197 
L 276.459077 258.262153 
L 277.522197 256.51411 
L 279.590137 254.766067 
L 280.055514 253.018023 
L 280.062083 251.26998 
L 280.276883 249.521936 
L 283.225014 247.773893 
L 283.489673 246.02585 
L 284.164369 244.277806 
L 286.194052 242.529763 
L 286.434497 240.781719 
L 286.448259 239.033676 
L 286.575713 237.285633 
L 289.810213 233.789546 
L 291.27791 230.293459 
L 300.921608 228.545416 
L 300.932777 226.797372 
L 309.52191 225.049329 
L 311.151699 223.301285 
L 313.779146 221.553242 
L 313.787417 219.805199 
L 347.616982 216.309112 
L 351.249548 214.561068 
L 352.65596 212.813025 
L 352.899315 211.064981 
L 354.263854 209.316938 
L 354.736698 207.568895 
L 354.770952 204.072808 
L 356.215707 202.324764 
L 356.450368 198.828678 
L 360.146929 195.332591 
L 361.052045 193.584547 
L 379.585223 191.836504 
L 379.600556 190.088461 
L 380.944941 188.340417 
L 383.024884 186.592374 
L 385.730379 184.84433 
L 389.415947 183.096287 
L 391.210021 181.348244 
L 392.698491 179.6002 
L 393.709404 177.852157 
L 394.14322 176.104113 
L 394.155378 174.35607 
L 397.117302 172.608027 
L 397.766543 170.859983 
L 398.648007 169.11194 
L 401.326325 167.363896 
L 405.74751 163.86781 
L 411.642405 162.119766 
L 420.828958 160.371723 
L 431.573935 158.623679 
L 433.791851 156.875636 
L 438.577667 155.127593 
L 442.873843 153.379549 
L 457.103303 151.631506 
L 475.033605 149.883462 
L 483.692158 148.135419 
L 488.194525 146.387376 
L 491.093994 144.639332 
L 492.231501 142.891289 
L 494.097675 141.143245 
L 496.824599 139.395202 
L 497.503523 137.647159 
L 515.218755 135.899115 
L 550.554125 134.151072 
L 551.621003 132.403028 
L 553.927435 130.654985 
L 561.175332 128.906942 
L 579.338191 127.158898 
L 593.218926 125.410855 
L 610.20939 123.662811 
L 636.449133 121.914768 
L 637.39213 120.166725 
L 654.584878 118.418681 
L 669.850215 116.670638 
L 670.471079 114.922594 
L 679.278409 113.174551 
L 679.278409 113.174551 
" clip-path="url(#p0b3ec40b42)" style="fill: none; stroke: #2ca02c; stroke-width: 2; stroke-linecap: square"/>
   </g>
   <g id="patch_3">
    <path d="M 50.925 378.789746 
L 50.925 34.6 
" style="fill: none; stroke: #000000; stroke-width: 0.8; stroke-linejoin: miter; stroke-linecap: square"/>
   </g>
   <g id="patch_4">
    <path d="M 709.2 378.789746 
L 709.2 34.6 
" style="fill: none; stroke: #000000; stroke-width: 0.8; stroke-linejoin: miter; stroke-linecap: square"/>
   </g>
   <g id="patch_5">
    <path d="M 50.925 378.789746 
L 709.2 378.789746 
" style="fill: none; stroke: #000000; stroke-width: 0.8; stroke-linejoin: miter; stroke-linecap: square"/>
   </g>
   <g id="patch_6">
    <path d="M 50.925 34.6 
L 709.2 34.6 
" style="fill: none; stroke: #000000; stroke-width: 0.8; stroke-linejoin: miter; stroke-linecap: square"/>
   </g>
   <g id="legend_1">
    <g id="patch_7">
     <path d="M 57.925 86.634375 
L 245.507812 86.634375 
Q 247.507812 86.634375 247.507812 84.634375 
L 247.507812 41.6 
Q 247.507812 39.6 245.507812 39.6 
L 57.925 39.6 
Q 55.925 39.6 55.925 41.6 
L 55.925 84.634375 
Q 55.925 86.634375 57.925 86.634375 
z
" style="fill: #ffffff; opacity: 0.8; stroke: #cccccc; stroke-linejoin: miter"/>
    </g>
    <g id="line2d_36">
     <path d="M 59.925 47.698438 
L 69.925 47.698438 
L 79.925 47.698438 
" style="fill: none; stroke: #1f77b4; stroke-width: 2; stroke-linecap: square"/>
    </g>
    <g id="text_19">
     <!-- Library/GraphProcessing(Gelly) -->
     <g transform="translate(87.925 51.198438)scale(0.1 -0.1)">
      <defs>
       <path id="DejaVuSans-4c" d="M 628 4666 
L 1259 4666 
L 1259 531 
L 3531 531 
L 3531 0 
L 628 0 
L 628 4666 
z
" transform="scale(0.015625)"/>
       <path id="DejaVuSans-62" d="M 3116 1747 
Q 3116 2381 2855 2742 
Q 2594 3103 2138 3103 
Q 1681 3103 1420 2742 
Q 1159 2381 1159 1747 
Q 1159 1113 1420 752 
Q 1681 391 2138 391 
Q 2594 391 2855 752 
Q 3116 1113 3116 1747 
z
M 1159 2969 
Q 1341 3281 1617 3432 
Q 1894 3584 2278 3584 
Q 2916 3584 3314 3078 
Q 3713 2572 3713 1747 
Q 3713 922 3314 415 
Q 2916 -91 2278 -91 
Q 1894 -91 1617 61 
Q 1341 213 1159 525 
L 1159 0 
L 581 0 
L 581 4863 
L 1159 4863 
L 1159 2969 
z
" transform="scale(0.015625)"/>
       <path id="DejaVuSans-79" d="M 2059 -325 
Q 1816 -950 1584 -1140 
Q 1353 -1331 966 -1331 
L 506 -1331 
L 506 -850 
L 844 -850 
Q 1081 -850 1212 -737 
Q 1344 -625 1503 -206 
L 1606 56 
L 191 3500 
L 800 3500 
L 1894 763 
L 2988 3500 
L 3597 3500 
L 2059 -325 
z
" transform="scale(0.015625)"/>
       <path id="DejaVuSans-2f" d="M 1625 4666 
L 2156 4666 
L 531 -594 
L 0 -594 
L 1625 4666 
z
" transform="scale(0.015625)"/>
       <path id="DejaVuSans-47" d="M 3809 666 
L 3809 1919 
L 2778 1919 
L 2778 2438 
L 4434 2438 
L 4434 434 
Q 4069 175 3628 42 
Q 3188 -91 2688 -91 
Q 1594 -91 976 548 
Q 359 1188 359 2328 
Q 359 3472 976 4111 
Q 1594 4750 2688 4750 
Q 3144 4750 3555 4637 
Q 3966 4525 4313 4306 
L 4313 3634 
Q 3963 3931 3569 4081 
Q 3175 4231 2741 4231 
Q 1884 4231 1454 3753 
Q 1025 3275 1025 2328 
Q 1025 1384 1454 906 
Q 1884 428 2741 428 
Q 3075 428 3337 486 
Q 3600 544 3809 666 
z
" transform="scale(0.015625)"/>
       <path id="DejaVuSans-70" d="M 1159 525 
L 1159 -1331 
L 581 -1331 
L 581 3500 
L 1159 3500 
L 1159 2969 
Q 1341 3281 1617 3432 
Q 1894 3584 2278 3584 
Q 2916 3584 3314 3078 
Q 3713 2572 3713 1747 
Q 3713 922 3314 415 
Q 2916 -91 2278 -91 
Q 1894 -91 1617 61 
Q 1341 213 1159 525 
z
M 3116 1747 
Q 3116 2381 2855 2742 
Q 2594 3103 2138 3103 
Q 1681 3103 1420 2742 
Q 1159 2381 1159 1747 
Q 1159 1113 1420 752 
Q 1681 391 2138 391 
Q 2594 391 2855 752 
Q 3116 1113 3116 1747 
z
" transform="scale(0.015625)"/>
       <path id="DejaVuSans-68" d="M 3513 2113 
L 3513 0 
L 2938 0 
L 2938 2094 
Q 2938 2591 2744 2837 
Q 2550 3084 2163 3084 
Q 1697 3084 1428 2787 
Q 1159 2491 1159 1978 
L 1159 0 
L 581 0 
L 581 4863 
L 1159 4863 
L 1159 2956 
Q 1366 3272 1645 3428 
Q 1925 3584 2291 3584 
Q 2894 3584 3203 3211 
Q 3513 2838 3513 2113 
z
" transform="scale(0.015625)"/>
       <path id="DejaVuSans-50" d="M 1259 4147 
L 1259 2394 
L 2053 2394 
Q 2494 2394 2734 2622 
Q 2975 2850 2975 3272 
Q 2975 3691 2734 3919 
Q 2494 4147 2053 4147 
L 1259 4147 
z
M 628 4666 
L 2053 4666 
Q 2838 4666 3239 4311 
Q 3641 3956 3641 3272 
Q 3641 2581 3239 2228 
Q 2838 1875 2053 1875 
L 1259 1875 
L 1259 0 
L 628 0 
L 628 4666 
z
" transform="scale(0.015625)"/>
       <path id="DejaVuSans-73" d="M 2834 3397 
L 2834 2853 
Q 2591 2978 2328 3040 
Q 2066 3103 1784 3103 
Q 1356 3103 1142 2972 
Q 928 2841 928 2578 
Q 928 2378 1081 2264 
Q 1234 2150 1697 2047 
L 1894 2003 
Q 2506 1872 2764 1633 
Q 3022 1394 3022 966 
Q 3022 478 2636 193 
Q 2250 -91 1575 -91 
Q 1294 -91 989 -36 
Q 684 19 347 128 
L 347 722 
Q 666 556 975 473 
Q 1284 391 1588 391 
Q 1994 391 2212 530 
Q 2431 669 2431 922 
Q 2431 1156 2273 1281 
Q 2116 1406 1581 1522 
L 1381 1569 
Q 847 1681 609 1914 
Q 372 2147 372 2553 
Q 372 3047 722 3315 
Q 1072 3584 1716 3584 
Q 2034 3584 2315 3537 
Q 2597 3491 2834 3397 
z
" transform="scale(0.015625)"/>
       <path id="DejaVuSans-67" d="M 2906 1791 
Q 2906 2416 2648 2759 
Q 2391 3103 1925 3103 
Q 1463 3103 1205 2759 
Q 947 2416 947 1791 
Q 947 1169 1205 825 
Q 1463 481 1925 481 
Q 2391 481 2648 825 
Q 2906 1169 2906 1791 
z
M 3481 434 
Q 3481 -459 3084 -895 
Q 2688 -1331 1869 -1331 
Q 1566 -1331 1297 -1286 
Q 1028 -1241 775 -1147 
L 775 -588 
Q 1028 -725 1275 -790 
Q 1522 -856 1778 -856 
Q 2344 -856 2625 -561 
Q 2906 -266 2906 331 
L 2906 616 
Q 2728 306 2450 153 
Q 2172 0 1784 0 
Q 1141 0 747 490 
Q 353 981 353 1791 
Q 353 2603 747 3093 
Q 1141 3584 1784 3584 
Q 2172 3584 2450 3431 
Q 2728 3278 2906 2969 
L 2906 3500 
L 3481 3500 
L 3481 434 
z
" transform="scale(0.015625)"/>
       <path id="DejaVuSans-28" d="M 1984 4856 
Q 1566 4138 1362 3434 
Q 1159 2731 1159 2009 
Q 1159 1288 1364 580 
Q 1569 -128 1984 -844 
L 1484 -844 
Q 1016 -109 783 600 
Q 550 1309 550 2009 
Q 550 2706 781 3412 
Q 1013 4119 1484 4856 
L 1984 4856 
z
" transform="scale(0.015625)"/>
       <path id="DejaVuSans-6c" d="M 603 4863 
L 1178 4863 
L 1178 0 
L 603 0 
L 603 4863 
z
" transform="scale(0.015625)"/>
       <path id="DejaVuSans-29" d="M 513 4856 
L 1013 4856 
Q 1481 4119 1714 3412 
Q 1947 2706 1947 2009 
Q 1947 1309 1714 600 
Q 1481 -109 1013 -844 
L 513 -844 
Q 928 -128 1133 580 
Q 1338 1288 1338 2009 
Q 1338 2731 1133 3434 
Q 928 4138 513 4856 
z
" transform="scale(0.015625)"/>
      </defs>
      <use xlink:href="#DejaVuSans-4c"/>
      <use xlink:href="#DejaVuSans-69" x="55.712891"/>
      <use xlink:href="#DejaVuSans-62" x="83.496094"/>
      <use xlink:href="#DejaVuSans-72" x="146.972656"/>
      <use xlink:href="#DejaVuSans-61" x="188.085938"/>
      <use xlink:href="#DejaVuSans-72" x="249.365234"/>
      <use xlink:href="#DejaVuSans-79" x="290.478516"/>
      <use xlink:href="#DejaVuSans-2f" x="349.658203"/>
      <use xlink:href="#DejaVuSans-47" x="383.349609"/>
      <use xlink:href="#DejaVuSans-72" x="460.839844"/>
      <use xlink:href="#DejaVuSans-61" x="501.953125"/>
      <use xlink:href="#DejaVuSans-70" x="563.232422"/>
      <use xlink:href="#DejaVuSans-68" x="626.708984"/>
      <use xlink:href="#DejaVuSans-50" x="690.087891"/>
      <use xlink:href="#DejaVuSans-72" x="748.640625"/>
      <use xlink:href="#DejaVuSans-6f" x="787.503906"/>
      <use xlink:href="#DejaVuSans-63" x="848.685547"/>
      <use xlink:href="#DejaVuSans-65" x="903.666016"/>
      <use xlink:href="#DejaVuSans-73" x="965.189453"/>
      <use xlink:href="#DejaVuSans-73" x="1017.289062"/>
      <use xlink:href="#DejaVuSans-69" x="1069.388672"/>
      <use xlink:href="#DejaVuSans-6e" x="1097.171875"/>
      <use xlink:href="#DejaVuSans-67" x="1160.550781"/>
      <use xlink:href="#DejaVuSans-28" x="1224.027344"/>
      <use xlink:href="#DejaVuSans-47" x="1263.041016"/>
      <use xlink:href="#DejaVuSans-65" x="1340.53125"/>
      <use xlink:href="#DejaVuSans-6c" x="1402.054688"/>
      <use xlink:href="#DejaVuSans-6c" x="1429.837891"/>
      <use xlink:href="#DejaVuSans-79" x="1457.621094"/>
      <use xlink:href="#DejaVuSans-29" x="1516.800781"/>
     </g>
    </g>
    <g id="line2d_37">
     <path d="M 59.925 62.376563 
L 69.925 62.376563 
L 79.925 62.376563 
" style="fill: none; stroke: #ff7f0e; stroke-width: 2; stroke-linecap: square"/>
    </g>
    <g id="text_20">
     <!-- Library/MachineLearning -->
     <g transform="translate(87.925 65.876563)scale(0.1 -0.1)">
      <defs>
       <path id="DejaVuSans-4d" d="M 628 4666 
L 1569 4666 
L 2759 1491 
L 3956 4666 
L 4897 4666 
L 4897 0 
L 4281 0 
L 4281 4097 
L 3078 897 
L 2444 897 
L 1241 4097 
L 1241 0 
L 628 0 
L 628 4666 
z
" transform="scale(0.015625)"/>
      </defs>
      <use xlink:href="#DejaVuSans-4c"/>
      <use xlink:href="#DejaVuSans-69" x="55.712891"/>
      <use xlink:href="#DejaVuSans-62" x="83.496094"/>
      <use xlink:href="#DejaVuSans-72" x="146.972656"/>
      <use xlink:href="#DejaVuSans-61" x="188.085938"/>
      <use xlink:href="#DejaVuSans-72" x="249.365234"/>
      <use xlink:href="#DejaVuSans-79" x="290.478516"/>
      <use xlink:href="#DejaVuSans-2f" x="349.658203"/>
      <use xlink:href="#DejaVuSans-4d" x="383.349609"/>
      <use xlink:href="#DejaVuSans-61" x="469.628906"/>
      <use xlink:href="#DejaVuSans-63" x="530.908203"/>
      <use xlink:href="#DejaVuSans-68" x="585.888672"/>
      <use xlink:href="#DejaVuSans-69" x="649.267578"/>
      <use xlink:href="#DejaVuSans-6e" x="677.050781"/>
      <use xlink:href="#DejaVuSans-65" x="740.429688"/>
      <use xlink:href="#DejaVuSans-4c" x="801.953125"/>
      <use xlink:href="#DejaVuSans-65" x="855.916016"/>
      <use xlink:href="#DejaVuSans-61" x="917.439453"/>
      <use xlink:href="#DejaVuSans-72" x="978.71875"/>
      <use xlink:href="#DejaVuSans-6e" x="1018.082031"/>
      <use xlink:href="#DejaVuSans-69" x="1081.460938"/>
      <use xlink:href="#DejaVuSans-6e" x="1109.244141"/>
      <use xlink:href="#DejaVuSans-67" x="1172.623047"/>
     </g>
    </g>
    <g id="line2d_38">
     <path d="M 59.925 77.054688 
L 69.925 77.054688 
L 79.925 77.054688 
" style="fill: none; stroke: #2ca02c; stroke-width: 2; stroke-linecap: square"/>
    </g>
    <g id="text_21">
     <!-- Library/CEP -->
     <g transform="translate(87.925 80.554688)scale(0.1 -0.1)">
      <defs>
       <path id="DejaVuSans-43" d="M 4122 4306 
L 4122 3641 
Q 3803 3938 3442 4084 
Q 3081 4231 2675 4231 
Q 1875 4231 1450 3742 
Q 1025 3253 1025 2328 
Q 1025 1406 1450 917 
Q 1875 428 2675 428 
Q 3081 428 3442 575 
Q 3803 722 4122 1019 
L 4122 359 
Q 3791 134 3420 21 
Q 3050 -91 2638 -91 
Q 1578 -91 968 557 
Q 359 1206 359 2328 
Q 359 3453 968 4101 
Q 1578 4750 2638 4750 
Q 3056 4750 3426 4639 
Q 3797 4528 4122 4306 
z
" transform="scale(0.015625)"/>
       <path id="DejaVuSans-45" d="M 628 4666 
L 3578 4666 
L 3578 4134 
L 1259 4134 
L 1259 2753 
L 3481 2753 
L 3481 2222 
L 1259 2222 
L 1259 531 
L 3634 531 
L 3634 0 
L 628 0 
L 628 4666 
z
" transform="scale(0.015625)"/>
      </defs>
      <use xlink:href="#DejaVuSans-4c"/>
      <use xlink:href="#DejaVuSans-69" x="55.712891"/>
      <use xlink:href="#DejaVuSans-62" x="83.496094"/>
      <use xlink:href="#DejaVuSans-72" x="146.972656"/>
      <use xlink:href="#DejaVuSans-61" x="188.085938"/>
      <use xlink:href="#DejaVuSans-72" x="249.365234"/>
      <use xlink:href="#DejaVuSans-79" x="290.478516"/>
      <use xlink:href="#DejaVuSans-2f" x="349.658203"/>
      <use xlink:href="#DejaVuSans-43" x="383.349609"/>
      <use xlink:href="#DejaVuSans-45" x="453.173828"/>
      <use xlink:href="#DejaVuSans-50" x="516.357422"/>
     </g>
    </g>
   </g>
  </g>
  <g id="text_22">
   <!-- Total PRs for components with prefix 'Library' -->
   <g transform="translate(224.145 17.758125)scale(0.12 -0.12)">
    <defs>
     <path id="DejaVuSans-54" d="M -19 4666 
L 3928 4666 
L 3928 4134 
L 2272 4134 
L 2272 0 
L 1638 0 
L 1638 4134 
L -19 4134 
L -19 4666 
z
" transform="scale(0.015625)"/>
     <path id="DejaVuSans-52" d="M 2841 2188 
Q 3044 2119 3236 1894 
Q 3428 1669 3622 1275 
L 4263 0 
L 3584 0 
L 2988 1197 
Q 2756 1666 2539 1819 
Q 2322 1972 1947 1972 
L 1259 1972 
L 1259 0 
L 628 0 
L 628 4666 
L 2053 4666 
Q 2853 4666 3247 4331 
Q 3641 3997 3641 3322 
Q 3641 2881 3436 2590 
Q 3231 2300 2841 2188 
z
M 1259 4147 
L 1259 2491 
L 2053 2491 
Q 2509 2491 2742 2702 
Q 2975 2913 2975 3322 
Q 2975 3731 2742 3939 
Q 2509 4147 2053 4147 
L 1259 4147 
z
" transform="scale(0.015625)"/>
     <path id="DejaVuSans-66" d="M 2375 4863 
L 2375 4384 
L 1825 4384 
Q 1516 4384 1395 4259 
Q 1275 4134 1275 3809 
L 1275 3500 
L 2222 3500 
L 2222 3053 
L 1275 3053 
L 1275 0 
L 697 0 
L 697 3053 
L 147 3053 
L 147 3500 
L 697 3500 
L 697 3744 
Q 697 4328 969 4595 
Q 1241 4863 1831 4863 
L 2375 4863 
z
" transform="scale(0.015625)"/>
     <path id="DejaVuSans-77" d="M 269 3500 
L 844 3500 
L 1563 769 
L 2278 3500 
L 2956 3500 
L 3675 769 
L 4391 3500 
L 4966 3500 
L 4050 0 
L 3372 0 
L 2619 2869 
L 1863 0 
L 1184 0 
L 269 3500 
z
" transform="scale(0.015625)"/>
     <path id="DejaVuSans-78" d="M 3513 3500 
L 2247 1797 
L 3578 0 
L 2900 0 
L 1881 1375 
L 863 0 
L 184 0 
L 1544 1831 
L 300 3500 
L 978 3500 
L 1906 2253 
L 2834 3500 
L 3513 3500 
z
" transform="scale(0.015625)"/>
     <path id="DejaVuSans-27" d="M 1147 4666 
L 1147 2931 
L 616 2931 
L 616 4666 
L 1147 4666 
z
" transform="scale(0.015625)"/>
    </defs>
    <use xlink:href="#DejaVuSans-54"/>
    <use xlink:href="#DejaVuSans-6f" x="44.083984"/>
    <use xlink:href="#DejaVuSans-74" x="105.265625"/>
    <use xlink:href="#DejaVuSans-61" x="144.474609"/>
    <use xlink:href="#DejaVuSans-6c" x="205.753906"/>
    <use xlink:href="#DejaVuSans-20" x="233.537109"/>
    <use xlink:href="#DejaVuSans-50" x="265.324219"/>
    <use xlink:href="#DejaVuSans-52" x="325.626953"/>
    <use xlink:href="#DejaVuSans-73" x="395.109375"/>
    <use xlink:href="#DejaVuSans-20" x="447.208984"/>
    <use xlink:href="#DejaVuSans-66" x="478.996094"/>
    <use xlink:href="#DejaVuSans-6f" x="514.201172"/>
    <use xlink:href="#DejaVuSans-72" x="575.382812"/>
    <use xlink:href="#DejaVuSans-20" x="616.496094"/>
    <use xlink:href="#DejaVuSans-63" x="648.283203"/>
    <use xlink:href="#DejaVuSans-6f" x="703.263672"/>
    <use xlink:href="#DejaVuSans-6d" x="764.445312"/>
    <use xlink:href="#DejaVuSans-70" x="861.857422"/>
    <use xlink:href="#DejaVuSans-6f" x="925.333984"/>
    <use xlink:href="#DejaVuSans-6e" x="986.515625"/>
    <use xlink:href="#DejaVuSans-65" x="1049.894531"/>
    <use xlink:href="#DejaVuSans-6e" x="1111.417969"/>
    <use xlink:href="#DejaVuSans-74" x="1174.796875"/>
    <use xlink:href="#DejaVuSans-73" x="1214.005859"/>
    <use xlink:href="#DejaVuSans-20" x="1266.105469"/>
    <use xlink:href="#DejaVuSans-77" x="1297.892578"/>
    <use xlink:href="#DejaVuSans-69" x="1379.679688"/>
    <use xlink:href="#DejaVuSans-74" x="1407.462891"/>
    <use xlink:href="#DejaVuSans-68" x="1446.671875"/>
    <use xlink:href="#DejaVuSans-20" x="1510.050781"/>
    <use xlink:href="#DejaVuSans-70" x="1541.837891"/>
    <use xlink:href="#DejaVuSans-72" x="1605.314453"/>
    <use xlink:href="#DejaVuSans-65" x="1644.177734"/>
    <use xlink:href="#DejaVuSans-66" x="1705.701172"/>
    <use xlink:href="#DejaVuSans-69" x="1740.90625"/>
    <use xlink:href="#DejaVuSans-78" x="1768.689453"/>
    <use xlink:href="#DejaVuSans-20" x="1827.869141"/>
    <use xlink:href="#DejaVuSans-27" x="1859.65625"/>
    <use xlink:href="#DejaVuSans-4c" x="1887.146484"/>
    <use xlink:href="#DejaVuSans-69" x="1942.859375"/>
    <use xlink:href="#DejaVuSans-62" x="1970.642578"/>
    <use xlink:href="#DejaVuSans-72" x="2034.119141"/>
    <use xlink:href="#DejaVuSans-61" x="2075.232422"/>
    <use xlink:href="#DejaVuSans-72" x="2136.511719"/>
    <use xlink:href="#DejaVuSans-79" x="2177.625"/>
    <use xlink:href="#DejaVuSans-27" x="2236.804688"/>
   </g>
  </g>
 </g>
 <defs>
  <clipPath id="p0b3ec40b42">
   <rect x="50.925" y="34.6" width="658.275" height="344.189746"/>
  </clipPath>
 </defs>
</svg>
