<?xml version="1.0" encoding="utf-8" standalone="no"?>
<!DOCTYPE svg PUBLIC "-//W3C//DTD SVG 1.1//EN"
  "http://www.w3.org/Graphics/SVG/1.1/DTD/svg11.dtd">
<svg xmlns:xlink="http://www.w3.org/1999/xlink" width="432pt" height="288pt" viewBox="0 0 432 288" xmlns="http://www.w3.org/2000/svg" version="1.1">
 <metadata>
  <rdf:RDF xmlns:dc="http://purl.org/dc/elements/1.1/" xmlns:cc="http://creativecommons.org/ns#" xmlns:rdf="http://www.w3.org/1999/02/22-rdf-syntax-ns#">
   <cc:Work>
    <dc:type rdf:resource="http://purl.org/dc/dcmitype/StillImage"/>
    <dc:date>2022-06-02T17:46:51.630632</dc:date>
    <dc:format>image/svg+xml</dc:format>
    <dc:creator>
     <cc:Agent>
      <dc:title>Matplotlib v3.5.0, https://matplotlib.org/</dc:title>
     </cc:Agent>
    </dc:creator>
   </cc:Work>
  </rdf:RDF>
 </metadata>
 <defs>
  <style type="text/css">*{stroke-linejoin: round; stroke-linecap: butt}</style>
 </defs>
 <g id="figure_1">
  <g id="patch_1">
   <path d="M 0 288 
L 432 288 
L 432 0 
L 0 0 
z
" style="fill: #ffffff"/>
  </g>
  <g id="axes_1">
   <g id="patch_2">
    <path d="M 50.925 234.789746 
L 421.2 234.789746 
L 421.2 34.6 
L 50.925 34.6 
z
" style="fill: #ffffff"/>
   </g>
   <g id="matplotlib.axis_1">
    <g id="xtick_1">
     <g id="line2d_1">
      <path d="M 116.104227 234.789746 
L 116.104227 34.6 
" clip-path="url(#p511ba794fe)" style="fill: none; stroke: #b0b0b0; stroke-width: 0.8; stroke-linecap: square"/>
     </g>
     <g id="line2d_2">
      <defs>
       <path id="mf681ff8faf" d="M 0 0 
L 0 3.5 
" style="stroke: #000000; stroke-width: 0.8"/>
      </defs>
      <g>
       <use xlink:href="#mf681ff8faf" x="116.104227" y="234.789746" style="stroke: #000000; stroke-width: 0.8"/>
      </g>
     </g>
     <g id="text_1">
      <!-- 2018 -->
      <g transform="translate(93.024037 261.095186)rotate(-30)scale(0.1 -0.1)">
       <defs>
        <path id="DejaVuSans-32" d="M 1228 531 
L 3431 531 
L 3431 0 
L 469 0 
L 469 531 
Q 828 903 1448 1529 
Q 2069 2156 2228 2338 
Q 2531 2678 2651 2914 
Q 2772 3150 2772 3378 
Q 2772 3750 2511 3984 
Q 2250 4219 1831 4219 
Q 1534 4219 1204 4116 
Q 875 4013 500 3803 
L 500 4441 
Q 881 4594 1212 4672 
Q 1544 4750 1819 4750 
Q 2544 4750 2975 4387 
Q 3406 4025 3406 3419 
Q 3406 3131 3298 2873 
Q 3191 2616 2906 2266 
Q 2828 2175 2409 1742 
Q 1991 1309 1228 531 
z
" transform="scale(0.015625)"/>
        <path id="DejaVuSans-30" d="M 2034 4250 
Q 1547 4250 1301 3770 
Q 1056 3291 1056 2328 
Q 1056 1369 1301 889 
Q 1547 409 2034 409 
Q 2525 409 2770 889 
Q 3016 1369 3016 2328 
Q 3016 3291 2770 3770 
Q 2525 4250 2034 4250 
z
M 2034 4750 
Q 2819 4750 3233 4129 
Q 3647 3509 3647 2328 
Q 3647 1150 3233 529 
Q 2819 -91 2034 -91 
Q 1250 -91 836 529 
Q 422 1150 422 2328 
Q 422 3509 836 4129 
Q 1250 4750 2034 4750 
z
" transform="scale(0.015625)"/>
        <path id="DejaVuSans-31" d="M 794 531 
L 1825 531 
L 1825 4091 
L 703 3866 
L 703 4441 
L 1819 4666 
L 2450 4666 
L 2450 531 
L 3481 531 
L 3481 0 
L 794 0 
L 794 531 
z
" transform="scale(0.015625)"/>
        <path id="DejaVuSans-38" d="M 2034 2216 
Q 1584 2216 1326 1975 
Q 1069 1734 1069 1313 
Q 1069 891 1326 650 
Q 1584 409 2034 409 
Q 2484 409 2743 651 
Q 3003 894 3003 1313 
Q 3003 1734 2745 1975 
Q 2488 2216 2034 2216 
z
M 1403 2484 
Q 997 2584 770 2862 
Q 544 3141 544 3541 
Q 544 4100 942 4425 
Q 1341 4750 2034 4750 
Q 2731 4750 3128 4425 
Q 3525 4100 3525 3541 
Q 3525 3141 3298 2862 
Q 3072 2584 2669 2484 
Q 3125 2378 3379 2068 
Q 3634 1759 3634 1313 
Q 3634 634 3220 271 
Q 2806 -91 2034 -91 
Q 1263 -91 848 271 
Q 434 634 434 1313 
Q 434 1759 690 2068 
Q 947 2378 1403 2484 
z
M 1172 3481 
Q 1172 3119 1398 2916 
Q 1625 2713 2034 2713 
Q 2441 2713 2670 2916 
Q 2900 3119 2900 3481 
Q 2900 3844 2670 4047 
Q 2441 4250 2034 4250 
Q 1625 4250 1398 4047 
Q 1172 3844 1172 3481 
z
" transform="scale(0.015625)"/>
       </defs>
       <use xlink:href="#DejaVuSans-32"/>
       <use xlink:href="#DejaVuSans-30" x="63.623047"/>
       <use xlink:href="#DejaVuSans-31" x="127.246094"/>
       <use xlink:href="#DejaVuSans-38" x="190.869141"/>
      </g>
     </g>
    </g>
    <g id="xtick_2">
     <g id="line2d_3">
      <path d="M 181.315604 234.789746 
L 181.315604 34.6 
" clip-path="url(#p511ba794fe)" style="fill: none; stroke: #b0b0b0; stroke-width: 0.8; stroke-linecap: square"/>
     </g>
     <g id="line2d_4">
      <g>
       <use xlink:href="#mf681ff8faf" x="181.315604" y="234.789746" style="stroke: #000000; stroke-width: 0.8"/>
      </g>
     </g>
     <g id="text_2">
      <!-- 2019 -->
      <g transform="translate(158.235414 261.095186)rotate(-30)scale(0.1 -0.1)">
       <defs>
        <path id="DejaVuSans-39" d="M 703 97 
L 703 672 
Q 941 559 1184 500 
Q 1428 441 1663 441 
Q 2288 441 2617 861 
Q 2947 1281 2994 2138 
Q 2813 1869 2534 1725 
Q 2256 1581 1919 1581 
Q 1219 1581 811 2004 
Q 403 2428 403 3163 
Q 403 3881 828 4315 
Q 1253 4750 1959 4750 
Q 2769 4750 3195 4129 
Q 3622 3509 3622 2328 
Q 3622 1225 3098 567 
Q 2575 -91 1691 -91 
Q 1453 -91 1209 -44 
Q 966 3 703 97 
z
M 1959 2075 
Q 2384 2075 2632 2365 
Q 2881 2656 2881 3163 
Q 2881 3666 2632 3958 
Q 2384 4250 1959 4250 
Q 1534 4250 1286 3958 
Q 1038 3666 1038 3163 
Q 1038 2656 1286 2365 
Q 1534 2075 1959 2075 
z
" transform="scale(0.015625)"/>
       </defs>
       <use xlink:href="#DejaVuSans-32"/>
       <use xlink:href="#DejaVuSans-30" x="63.623047"/>
       <use xlink:href="#DejaVuSans-31" x="127.246094"/>
       <use xlink:href="#DejaVuSans-39" x="190.869141"/>
      </g>
     </g>
    </g>
    <g id="xtick_3">
     <g id="line2d_5">
      <path d="M 246.526981 234.789746 
L 246.526981 34.6 
" clip-path="url(#p511ba794fe)" style="fill: none; stroke: #b0b0b0; stroke-width: 0.8; stroke-linecap: square"/>
     </g>
     <g id="line2d_6">
      <g>
       <use xlink:href="#mf681ff8faf" x="246.526981" y="234.789746" style="stroke: #000000; stroke-width: 0.8"/>
      </g>
     </g>
     <g id="text_3">
      <!-- 2020 -->
      <g transform="translate(223.446791 261.095186)rotate(-30)scale(0.1 -0.1)">
       <use xlink:href="#DejaVuSans-32"/>
       <use xlink:href="#DejaVuSans-30" x="63.623047"/>
       <use xlink:href="#DejaVuSans-32" x="127.246094"/>
       <use xlink:href="#DejaVuSans-30" x="190.869141"/>
      </g>
     </g>
    </g>
    <g id="xtick_4">
     <g id="line2d_7">
      <path d="M 311.91702 234.789746 
L 311.91702 34.6 
" clip-path="url(#p511ba794fe)" style="fill: none; stroke: #b0b0b0; stroke-width: 0.8; stroke-linecap: square"/>
     </g>
     <g id="line2d_8">
      <g>
       <use xlink:href="#mf681ff8faf" x="311.91702" y="234.789746" style="stroke: #000000; stroke-width: 0.8"/>
      </g>
     </g>
     <g id="text_4">
      <!-- 2021 -->
      <g transform="translate(288.836829 261.095186)rotate(-30)scale(0.1 -0.1)">
       <use xlink:href="#DejaVuSans-32"/>
       <use xlink:href="#DejaVuSans-30" x="63.623047"/>
       <use xlink:href="#DejaVuSans-32" x="127.246094"/>
       <use xlink:href="#DejaVuSans-31" x="190.869141"/>
      </g>
     </g>
    </g>
    <g id="xtick_5">
     <g id="line2d_9">
      <path d="M 377.128397 234.789746 
L 377.128397 34.6 
" clip-path="url(#p511ba794fe)" style="fill: none; stroke: #b0b0b0; stroke-width: 0.8; stroke-linecap: square"/>
     </g>
     <g id="line2d_10">
      <g>
       <use xlink:href="#mf681ff8faf" x="377.128397" y="234.789746" style="stroke: #000000; stroke-width: 0.8"/>
      </g>
     </g>
     <g id="text_5">
      <!-- 2022 -->
      <g transform="translate(354.048206 261.095186)rotate(-30)scale(0.1 -0.1)">
       <use xlink:href="#DejaVuSans-32"/>
       <use xlink:href="#DejaVuSans-30" x="63.623047"/>
       <use xlink:href="#DejaVuSans-32" x="127.246094"/>
       <use xlink:href="#DejaVuSans-32" x="190.869141"/>
      </g>
     </g>
    </g>
    <g id="text_6">
     <!-- date -->
     <g transform="translate(224.7875 274.494686)scale(0.1 -0.1)">
      <defs>
       <path id="DejaVuSans-64" d="M 2906 2969 
L 2906 4863 
L 3481 4863 
L 3481 0 
L 2906 0 
L 2906 525 
Q 2725 213 2448 61 
Q 2172 -91 1784 -91 
Q 1150 -91 751 415 
Q 353 922 353 1747 
Q 353 2572 751 3078 
Q 1150 3584 1784 3584 
Q 2172 3584 2448 3432 
Q 2725 3281 2906 2969 
z
M 947 1747 
Q 947 1113 1208 752 
Q 1469 391 1925 391 
Q 2381 391 2643 752 
Q 2906 1113 2906 1747 
Q 2906 2381 2643 2742 
Q 2381 3103 1925 3103 
Q 1469 3103 1208 2742 
Q 947 2381 947 1747 
z
" transform="scale(0.015625)"/>
       <path id="DejaVuSans-61" d="M 2194 1759 
Q 1497 1759 1228 1600 
Q 959 1441 959 1056 
Q 959 750 1161 570 
Q 1363 391 1709 391 
Q 2188 391 2477 730 
Q 2766 1069 2766 1631 
L 2766 1759 
L 2194 1759 
z
M 3341 1997 
L 3341 0 
L 2766 0 
L 2766 531 
Q 2569 213 2275 61 
Q 1981 -91 1556 -91 
Q 1019 -91 701 211 
Q 384 513 384 1019 
Q 384 1609 779 1909 
Q 1175 2209 1959 2209 
L 2766 2209 
L 2766 2266 
Q 2766 2663 2505 2880 
Q 2244 3097 1772 3097 
Q 1472 3097 1187 3025 
Q 903 2953 641 2809 
L 641 3341 
Q 956 3463 1253 3523 
Q 1550 3584 1831 3584 
Q 2591 3584 2966 3190 
Q 3341 2797 3341 1997 
z
" transform="scale(0.015625)"/>
       <path id="DejaVuSans-74" d="M 1172 4494 
L 1172 3500 
L 2356 3500 
L 2356 3053 
L 1172 3053 
L 1172 1153 
Q 1172 725 1289 603 
Q 1406 481 1766 481 
L 2356 481 
L 2356 0 
L 1766 0 
Q 1100 0 847 248 
Q 594 497 594 1153 
L 594 3053 
L 172 3053 
L 172 3500 
L 594 3500 
L 594 4494 
L 1172 4494 
z
" transform="scale(0.015625)"/>
       <path id="DejaVuSans-65" d="M 3597 1894 
L 3597 1613 
L 953 1613 
Q 991 1019 1311 708 
Q 1631 397 2203 397 
Q 2534 397 2845 478 
Q 3156 559 3463 722 
L 3463 178 
Q 3153 47 2828 -22 
Q 2503 -91 2169 -91 
Q 1331 -91 842 396 
Q 353 884 353 1716 
Q 353 2575 817 3079 
Q 1281 3584 2069 3584 
Q 2775 3584 3186 3129 
Q 3597 2675 3597 1894 
z
M 3022 2063 
Q 3016 2534 2758 2815 
Q 2500 3097 2075 3097 
Q 1594 3097 1305 2825 
Q 1016 2553 972 2059 
L 3022 2063 
z
" transform="scale(0.015625)"/>
      </defs>
      <use xlink:href="#DejaVuSans-64"/>
      <use xlink:href="#DejaVuSans-61" x="63.476562"/>
      <use xlink:href="#DejaVuSans-74" x="124.755859"/>
      <use xlink:href="#DejaVuSans-65" x="163.964844"/>
     </g>
    </g>
   </g>
   <g id="matplotlib.axis_2">
    <g id="ytick_1">
     <g id="line2d_11">
      <path d="M 50.925 225.908165 
L 421.2 225.908165 
" clip-path="url(#p511ba794fe)" style="fill: none; stroke: #b0b0b0; stroke-width: 0.8; stroke-linecap: square"/>
     </g>
     <g id="line2d_12">
      <defs>
       <path id="m9c01ac9225" d="M 0 0 
L -3.5 0 
" style="stroke: #000000; stroke-width: 0.8"/>
      </defs>
      <g>
       <use xlink:href="#m9c01ac9225" x="50.925" y="225.908165" style="stroke: #000000; stroke-width: 0.8"/>
      </g>
     </g>
     <g id="text_7">
      <!-- 0 -->
      <g transform="translate(37.5625 229.707384)scale(0.1 -0.1)">
       <use xlink:href="#DejaVuSans-30"/>
      </g>
     </g>
    </g>
    <g id="ytick_2">
     <g id="line2d_13">
      <path d="M 50.925 182.317583 
L 421.2 182.317583 
" clip-path="url(#p511ba794fe)" style="fill: none; stroke: #b0b0b0; stroke-width: 0.8; stroke-linecap: square"/>
     </g>
     <g id="line2d_14">
      <g>
       <use xlink:href="#m9c01ac9225" x="50.925" y="182.317583" style="stroke: #000000; stroke-width: 0.8"/>
      </g>
     </g>
     <g id="text_8">
      <!-- 200 -->
      <g transform="translate(24.8375 186.116802)scale(0.1 -0.1)">
       <use xlink:href="#DejaVuSans-32"/>
       <use xlink:href="#DejaVuSans-30" x="63.623047"/>
       <use xlink:href="#DejaVuSans-30" x="127.246094"/>
      </g>
     </g>
    </g>
    <g id="ytick_3">
     <g id="line2d_15">
      <path d="M 50.925 138.727002 
L 421.2 138.727002 
" clip-path="url(#p511ba794fe)" style="fill: none; stroke: #b0b0b0; stroke-width: 0.8; stroke-linecap: square"/>
     </g>
     <g id="line2d_16">
      <g>
       <use xlink:href="#m9c01ac9225" x="50.925" y="138.727002" style="stroke: #000000; stroke-width: 0.8"/>
      </g>
     </g>
     <g id="text_9">
      <!-- 400 -->
      <g transform="translate(24.8375 142.526221)scale(0.1 -0.1)">
       <defs>
        <path id="DejaVuSans-34" d="M 2419 4116 
L 825 1625 
L 2419 1625 
L 2419 4116 
z
M 2253 4666 
L 3047 4666 
L 3047 1625 
L 3713 1625 
L 3713 1100 
L 3047 1100 
L 3047 0 
L 2419 0 
L 2419 1100 
L 313 1100 
L 313 1709 
L 2253 4666 
z
" transform="scale(0.015625)"/>
       </defs>
       <use xlink:href="#DejaVuSans-34"/>
       <use xlink:href="#DejaVuSans-30" x="63.623047"/>
       <use xlink:href="#DejaVuSans-30" x="127.246094"/>
      </g>
     </g>
    </g>
    <g id="ytick_4">
     <g id="line2d_17">
      <path d="M 50.925 95.13642 
L 421.2 95.13642 
" clip-path="url(#p511ba794fe)" style="fill: none; stroke: #b0b0b0; stroke-width: 0.8; stroke-linecap: square"/>
     </g>
     <g id="line2d_18">
      <g>
       <use xlink:href="#m9c01ac9225" x="50.925" y="95.13642" style="stroke: #000000; stroke-width: 0.8"/>
      </g>
     </g>
     <g id="text_10">
      <!-- 600 -->
      <g transform="translate(24.8375 98.935639)scale(0.1 -0.1)">
       <defs>
        <path id="DejaVuSans-36" d="M 2113 2584 
Q 1688 2584 1439 2293 
Q 1191 2003 1191 1497 
Q 1191 994 1439 701 
Q 1688 409 2113 409 
Q 2538 409 2786 701 
Q 3034 994 3034 1497 
Q 3034 2003 2786 2293 
Q 2538 2584 2113 2584 
z
M 3366 4563 
L 3366 3988 
Q 3128 4100 2886 4159 
Q 2644 4219 2406 4219 
Q 1781 4219 1451 3797 
Q 1122 3375 1075 2522 
Q 1259 2794 1537 2939 
Q 1816 3084 2150 3084 
Q 2853 3084 3261 2657 
Q 3669 2231 3669 1497 
Q 3669 778 3244 343 
Q 2819 -91 2113 -91 
Q 1303 -91 875 529 
Q 447 1150 447 2328 
Q 447 3434 972 4092 
Q 1497 4750 2381 4750 
Q 2619 4750 2861 4703 
Q 3103 4656 3366 4563 
z
" transform="scale(0.015625)"/>
       </defs>
       <use xlink:href="#DejaVuSans-36"/>
       <use xlink:href="#DejaVuSans-30" x="63.623047"/>
       <use xlink:href="#DejaVuSans-30" x="127.246094"/>
      </g>
     </g>
    </g>
    <g id="ytick_5">
     <g id="line2d_19">
      <path d="M 50.925 51.545839 
L 421.2 51.545839 
" clip-path="url(#p511ba794fe)" style="fill: none; stroke: #b0b0b0; stroke-width: 0.8; stroke-linecap: square"/>
     </g>
     <g id="line2d_20">
      <g>
       <use xlink:href="#m9c01ac9225" x="50.925" y="51.545839" style="stroke: #000000; stroke-width: 0.8"/>
      </g>
     </g>
     <g id="text_11">
      <!-- 800 -->
      <g transform="translate(24.8375 55.345057)scale(0.1 -0.1)">
       <use xlink:href="#DejaVuSans-38"/>
       <use xlink:href="#DejaVuSans-30" x="63.623047"/>
       <use xlink:href="#DejaVuSans-30" x="127.246094"/>
      </g>
     </g>
    </g>
    <g id="text_12">
     <!-- count -->
     <g transform="translate(18.757812 148.801123)rotate(-90)scale(0.1 -0.1)">
      <defs>
       <path id="DejaVuSans-63" d="M 3122 3366 
L 3122 2828 
Q 2878 2963 2633 3030 
Q 2388 3097 2138 3097 
Q 1578 3097 1268 2742 
Q 959 2388 959 1747 
Q 959 1106 1268 751 
Q 1578 397 2138 397 
Q 2388 397 2633 464 
Q 2878 531 3122 666 
L 3122 134 
Q 2881 22 2623 -34 
Q 2366 -91 2075 -91 
Q 1284 -91 818 406 
Q 353 903 353 1747 
Q 353 2603 823 3093 
Q 1294 3584 2113 3584 
Q 2378 3584 2631 3529 
Q 2884 3475 3122 3366 
z
" transform="scale(0.015625)"/>
       <path id="DejaVuSans-6f" d="M 1959 3097 
Q 1497 3097 1228 2736 
Q 959 2375 959 1747 
Q 959 1119 1226 758 
Q 1494 397 1959 397 
Q 2419 397 2687 759 
Q 2956 1122 2956 1747 
Q 2956 2369 2687 2733 
Q 2419 3097 1959 3097 
z
M 1959 3584 
Q 2709 3584 3137 3096 
Q 3566 2609 3566 1747 
Q 3566 888 3137 398 
Q 2709 -91 1959 -91 
Q 1206 -91 779 398 
Q 353 888 353 1747 
Q 353 2609 779 3096 
Q 1206 3584 1959 3584 
z
" transform="scale(0.015625)"/>
       <path id="DejaVuSans-75" d="M 544 1381 
L 544 3500 
L 1119 3500 
L 1119 1403 
Q 1119 906 1312 657 
Q 1506 409 1894 409 
Q 2359 409 2629 706 
Q 2900 1003 2900 1516 
L 2900 3500 
L 3475 3500 
L 3475 0 
L 2900 0 
L 2900 538 
Q 2691 219 2414 64 
Q 2138 -91 1772 -91 
Q 1169 -91 856 284 
Q 544 659 544 1381 
z
M 1991 3584 
L 1991 3584 
z
" transform="scale(0.015625)"/>
       <path id="DejaVuSans-6e" d="M 3513 2113 
L 3513 0 
L 2938 0 
L 2938 2094 
Q 2938 2591 2744 2837 
Q 2550 3084 2163 3084 
Q 1697 3084 1428 2787 
Q 1159 2491 1159 1978 
L 1159 0 
L 581 0 
L 581 3500 
L 1159 3500 
L 1159 2956 
Q 1366 3272 1645 3428 
Q 1925 3584 2291 3584 
Q 2894 3584 3203 3211 
Q 3513 2838 3513 2113 
z
" transform="scale(0.015625)"/>
      </defs>
      <use xlink:href="#DejaVuSans-63"/>
      <use xlink:href="#DejaVuSans-6f" x="54.980469"/>
      <use xlink:href="#DejaVuSans-75" x="116.162109"/>
      <use xlink:href="#DejaVuSans-6e" x="179.541016"/>
      <use xlink:href="#DejaVuSans-74" x="242.919922"/>
     </g>
    </g>
   </g>
   <g id="line2d_21">
    <path d="M 67.755682 225.690212 
L 70.634153 225.472259 
L 91.128739 225.036353 
L 95.656387 224.8184 
L 97.624916 224.600448 
L 127.467793 224.164542 
L 131.189898 223.946589 
L 150.961697 223.510683 
L 151.52441 223.074777 
L 151.581791 222.856824 
L 151.767936 222.638871 
L 153.33366 221.985013 
L 154.340387 221.76706 
L 159.175457 221.331154 
L 167.436857 220.895248 
L 167.981739 220.677295 
L 169.059068 220.459342 
L 170.875816 220.241389 
L 176.699629 220.023436 
L 178.985877 219.805484 
L 179.262881 219.587531 
L 180.625694 219.369578 
L 181.002205 219.151625 
L 182.489368 218.933672 
L 182.882338 218.715719 
L 184.104582 218.497766 
L 184.12624 218.279813 
L 186.526834 217.843907 
L 189.955043 217.625954 
L 191.826609 217.190049 
L 192.500209 216.972096 
L 194.172934 216.754143 
L 194.608096 216.53619 
L 196.721281 216.318237 
L 196.774553 216.100284 
L 199.233181 215.882331 
L 199.25272 215.664378 
L 199.919401 215.228472 
L 200.635122 214.356661 
L 203.057385 213.920755 
L 203.737658 213.702802 
L 204.032487 213.484849 
L 204.210335 212.83099 
L 204.619058 212.613038 
L 204.756528 212.177132 
L 204.953295 211.959179 
L 204.973761 211.523273 
L 205.925891 211.30532 
L 206.350627 211.087367 
L 206.380324 210.869414 
L 207.66446 209.997603 
L 207.954332 209.77965 
L 208.961824 209.561697 
L 209.264759 209.125791 
L 210.12535 208.907838 
L 210.326737 208.689885 
L 210.348976 208.253979 
L 210.513328 208.036027 
L 211.367819 207.600121 
L 211.551898 207.382168 
L 211.88949 207.164215 
L 213.907494 206.946262 
L 214.035237 206.728309 
L 214.782719 206.292403 
L 214.929474 206.07445 
L 215.459765 205.856497 
L 215.474798 205.638545 
L 215.642852 205.420592 
L 216.212558 205.202639 
L 216.214322 204.984686 
L 217.972467 204.54878 
L 218.193384 204.112874 
L 220.417004 203.894921 
L 220.691057 203.459015 
L 222.837913 203.02311 
L 223.167369 202.805157 
L 227.493648 202.587204 
L 228.016011 202.369251 
L 233.754025 201.715392 
L 235.015732 201.497439 
L 237.858959 201.279486 
L 238.912416 201.061533 
L 239.668122 200.625628 
L 240.655017 200.407675 
L 240.716864 200.189722 
L 241.229365 199.971769 
L 241.375545 199.753816 
L 241.964302 199.535863 
L 243.969705 199.31791 
L 244.143592 199.099957 
L 244.479622 198.882004 
L 244.588942 198.664051 
L 246.730746 198.446099 
L 247.344681 198.228146 
L 247.50797 198.010193 
L 248.035929 197.574287 
L 248.231619 197.356334 
L 252.400937 197.138381 
L 252.632913 196.920428 
L 254.103405 196.702475 
L 254.459717 196.484522 
L 254.495555 196.266569 
L 258.053582 195.830664 
L 258.864634 195.612711 
L 258.897412 195.394758 
L 259.143331 195.176805 
L 261.800265 194.740899 
L 261.919703 194.304993 
L 263.625596 194.08704 
L 264.078451 193.869087 
L 264.171357 193.651135 
L 265.145783 193.433182 
L 265.360952 192.997276 
L 265.534942 192.56137 
L 266.566088 192.125464 
L 266.591651 191.907511 
L 266.75276 191.689558 
L 268.296158 191.253653 
L 269.468152 191.0357 
L 269.479909 190.817747 
L 270.03634 190.599794 
L 271.877228 190.381841 
L 271.905998 190.163888 
L 272.46984 189.945935 
L 272.862766 189.510029 
L 273.532562 189.292076 
L 273.78829 189.074124 
L 274.243731 188.856171 
L 274.317816 188.638218 
L 275.338656 188.420265 
L 275.385191 188.202312 
L 275.619636 187.984359 
L 277.751837 187.766406 
L 278.447743 187.548453 
L 278.747134 186.894594 
L 281.988521 186.676642 
L 282.012702 186.458689 
L 282.526937 186.240736 
L 282.704333 186.022783 
L 283.162464 185.80483 
L 283.243544 185.368924 
L 285.586028 185.150971 
L 285.606634 184.933018 
L 287.154587 184.497112 
L 287.537578 184.061207 
L 287.691522 183.843254 
L 288.021123 183.625301 
L 288.068585 183.407348 
L 289.095041 182.971442 
L 290.741744 182.753489 
L 291.273737 182.535536 
L 291.293086 182.317583 
L 291.44446 182.09963 
L 292.843734 181.663725 
L 293.052174 181.227819 
L 293.074923 181.009866 
L 294.970482 180.138054 
L 295.027132 179.920101 
L 296.659652 179.702148 
L 298.744412 178.176478 
L 298.893156 177.958525 
L 300.505299 177.740572 
L 300.561543 177.522619 
L 303.227763 176.868761 
L 303.846357 176.650808 
L 303.968188 176.432855 
L 305.202415 176.214902 
L 305.359546 175.996949 
L 306.264246 175.34309 
L 306.958703 174.689232 
L 307.526346 174.471279 
L 308.194855 173.599467 
L 308.623092 173.381514 
L 308.758399 172.945608 
L 309.083114 172.509703 
L 309.139862 172.29175 
L 310.388942 172.073797 
L 311.761009 171.201985 
L 311.804918 170.984032 
L 312.333642 170.766079 
L 312.369332 170.548126 
L 313.259552 170.112221 
L 313.315629 169.676315 
L 313.83047 169.458362 
L 314.676462 169.240409 
L 315.207553 168.804503 
L 316.226518 168.368597 
L 317.211331 167.932691 
L 317.503951 167.496786 
L 318.717892 166.842927 
L 318.751435 166.624974 
L 320.026187 166.189068 
L 321.120976 165.971115 
L 321.300047 165.753162 
L 321.31119 165.535209 
L 322.48459 165.099304 
L 322.716872 164.881351 
L 323.543071 164.663398 
L 324.271368 163.35568 
L 324.322235 163.137727 
L 325.121134 162.919775 
L 325.216334 162.483869 
L 326.353341 162.265916 
L 326.794672 160.958198 
L 326.851442 160.740245 
L 328.803137 160.522293 
L 328.936258 160.30434 
L 330.045613 160.086387 
L 330.189288 159.868434 
L 330.567678 159.650481 
L 330.591034 159.432528 
L 331.170261 158.996622 
L 331.65166 158.124811 
L 332.931313 157.688905 
L 333.093072 157.470952 
L 334.328968 157.252999 
L 334.634493 156.817093 
L 334.671233 156.59914 
L 335.281599 156.163234 
L 335.685899 155.291423 
L 337.967265 154.419611 
L 338.260588 154.201658 
L 339.363276 153.765752 
L 339.851108 153.5478 
L 340.702241 152.240082 
L 340.729917 152.022129 
L 341.502844 151.804176 
L 341.620703 151.586223 
L 341.951242 151.36827 
L 342.181728 150.714412 
L 342.488657 150.496459 
L 342.579272 150.278506 
L 342.889541 150.060553 
L 342.896841 149.8426 
L 343.060924 149.624647 
L 343.101532 149.188741 
L 343.608123 148.534883 
L 343.933539 147.881024 
L 345.40757 147.663071 
L 345.574701 147.445118 
L 345.596154 147.227165 
L 345.751993 147.009212 
L 346.24577 146.791259 
L 346.468512 146.137401 
L 346.754436 145.919448 
L 346.931255 145.265589 
L 347.37255 145.047636 
L 347.908038 144.393777 
L 347.911491 144.175824 
L 348.175298 143.739919 
L 348.235865 143.521966 
L 348.790583 143.304013 
L 348.809789 142.868107 
L 349.27337 142.432201 
L 350.015325 142.214248 
L 350.09082 141.778342 
L 350.93259 141.124484 
L 351.924946 140.906531 
L 352.177944 140.252672 
L 352.718767 139.816766 
L 353.623688 138.944955 
L 353.955372 138.727002 
L 354.415952 137.85519 
L 355.204708 137.637237 
L 355.3588 137.419284 
L 355.88188 137.201331 
L 355.913315 136.765426 
L 356.800408 136.111567 
L 356.839116 135.893614 
L 357.473432 135.675661 
L 357.565933 135.239755 
L 357.56994 135.021802 
L 358.436869 134.149991 
L 358.850067 133.932038 
L 359.101388 133.496132 
L 360.014242 133.278179 
L 360.229241 132.842273 
L 360.250761 132.62432 
L 360.421 132.406367 
L 361.989483 132.188415 
L 362.190241 131.752509 
L 362.592202 131.534556 
L 362.682145 131.316603 
L 363.065839 131.09865 
L 363.247379 130.662744 
L 363.81632 130.444791 
L 364.282452 129.790933 
L 364.503771 128.919121 
L 365.088949 128.701168 
L 365.17014 128.265262 
L 365.585908 127.829356 
L 365.714743 127.393451 
L 365.740767 127.175498 
L 366.27233 126.303686 
L 366.476001 125.86778 
L 366.844974 124.995969 
L 367.161031 124.778016 
L 367.284262 124.34211 
L 367.73522 123.688251 
L 368.239525 123.034392 
L 368.257658 122.816439 
L 368.797521 122.380534 
L 368.890127 122.162581 
L 369.346317 121.726675 
L 369.60074 120.418958 
L 369.612277 120.201005 
L 370.065779 119.765099 
L 370.139671 119.329193 
L 370.570912 118.893287 
L 370.756075 118.021476 
L 370.91874 117.803523 
L 370.92876 117.367617 
L 371.31246 117.149664 
L 371.480505 116.713758 
L 371.484761 116.277852 
L 371.664793 116.059899 
L 371.748307 115.188088 
L 371.909683 114.534229 
L 371.909927 114.316276 
L 372.576702 113.88037 
L 372.9356 113.662417 
L 374.080534 113.444464 
L 374.173444 112.790606 
L 374.584911 112.3547 
L 375.604017 111.918794 
L 376.336226 111.700841 
L 376.437637 111.264935 
L 376.649144 110.82903 
L 376.810965 110.393124 
L 377.340778 110.175171 
L 377.514584 109.957218 
L 377.530103 109.739265 
L 378.279223 108.431548 
L 378.285516 108.213595 
L 378.759634 107.559736 
L 378.851794 107.341783 
L 379.337238 107.12383 
L 379.819028 106.469971 
L 380.14112 106.034066 
L 380.363928 105.59816 
L 380.548485 105.380207 
L 380.579823 104.944301 
L 381.179285 104.290442 
L 381.3236 103.636584 
L 381.468859 102.328866 
L 381.477528 101.89296 
L 381.668598 101.675007 
L 381.691958 101.457055 
L 381.863771 101.239102 
L 381.888713 101.021149 
L 382.667211 100.36729 
L 382.925646 100.149337 
L 382.943808 99.713431 
L 383.332919 99.495478 
L 383.333376 99.277525 
L 383.854674 99.059573 
L 384.171416 98.623667 
L 384.462172 98.405714 
L 384.572035 97.533902 
L 385.024412 97.315949 
L 385.263483 96.226185 
L 385.625142 95.354373 
L 385.630237 95.13642 
L 386.331458 94.918467 
L 386.618968 94.700514 
L 386.633323 94.482561 
L 386.953617 94.264609 
L 387.040776 93.828703 
L 387.557041 93.392797 
L 387.577351 93.174844 
L 388.475366 92.085079 
L 388.804436 91.867127 
L 388.831124 90.995315 
L 389.575951 89.687597 
L 389.671386 89.251692 
L 390.078422 89.033739 
L 390.101128 88.815786 
L 390.409191 88.37988 
L 390.425554 87.726021 
L 390.781518 87.072163 
L 390.800809 86.636257 
L 391.264133 86.418304 
L 391.486304 85.764445 
L 391.804993 85.546492 
L 391.903445 84.674681 
L 392.048878 84.238775 
L 392.419594 84.020822 
L 392.591438 83.366963 
L 392.915356 83.14901 
L 393.011416 82.713104 
L 393.105513 81.841293 
L 393.304187 78.789952 
L 393.447513 78.354046 
L 394.002316 77.91814 
L 394.00233 77.700188 
L 394.147542 77.264282 
L 394.564065 75.956564 
L 394.714205 75.738611 
L 395.035169 75.520658 
L 395.104956 74.430894 
L 395.406189 73.777035 
L 395.581568 73.123176 
L 395.827933 72.033412 
L 396.291093 71.1616 
L 396.297711 70.943647 
L 396.623203 70.725694 
L 396.832073 70.071836 
L 396.850072 69.853883 
L 397.371599 68.982071 
L 397.574318 68.11026 
L 397.739658 67.674354 
L 397.889887 67.020495 
L 398.08542 66.802542 
L 398.088536 66.584589 
L 398.692783 66.366636 
L 398.831928 65.276872 
L 399.138642 65.058919 
L 399.215365 64.40506 
L 399.532016 62.87939 
L 400.020588 62.661437 
L 400.138182 61.571672 
L 400.470275 61.353719 
L 400.476787 61.135767 
L 400.763821 60.481908 
L 400.833371 59.610096 
L 401.056458 59.17419 
L 401.260572 58.738285 
L 401.488473 57.430567 
L 402.038522 56.558755 
L 402.161933 55.904897 
L 402.224437 55.468991 
L 402.61463 55.033085 
L 402.727663 53.943321 
L 402.787855 53.507415 
L 402.888028 52.853556 
L 403.117157 51.763792 
L 403.242472 50.674027 
L 403.461826 49.148357 
L 403.613355 48.930404 
L 403.621681 48.712451 
L 403.810743 48.276545 
L 403.948197 47.622686 
L 404.013081 46.750875 
L 404.201525 44.571346 
L 404.347858 44.13544 
L 404.369318 43.699534 
L 404.369318 43.699534 
" clip-path="url(#p511ba794fe)" style="fill: none; stroke: #1f77b4; stroke-width: 1.5; stroke-linecap: square"/>
   </g>
   <g id="line2d_22">
    <path d="M 67.755682 225.690212 
L 404.369318 43.699534 
" clip-path="url(#p511ba794fe)" style="fill: none; stroke-dasharray: 5.55,2.4; stroke-dashoffset: 0; stroke: #ff7f0e; stroke-opacity: 0.8; stroke-width: 1.5"/>
   </g>
   <g id="patch_3">
    <path d="M 50.925 234.789746 
L 50.925 34.6 
" style="fill: none; stroke: #000000; stroke-width: 0.8; stroke-linejoin: miter; stroke-linecap: square"/>
   </g>
   <g id="patch_4">
    <path d="M 421.2 234.789746 
L 421.2 34.6 
" style="fill: none; stroke: #000000; stroke-width: 0.8; stroke-linejoin: miter; stroke-linecap: square"/>
   </g>
   <g id="patch_5">
    <path d="M 50.925 234.789746 
L 421.2 234.789746 
" style="fill: none; stroke: #000000; stroke-width: 0.8; stroke-linejoin: miter; stroke-linecap: square"/>
   </g>
   <g id="patch_6">
    <path d="M 50.925 34.6 
L 421.2 34.6 
" style="fill: none; stroke: #000000; stroke-width: 0.8; stroke-linejoin: miter; stroke-linecap: square"/>
   </g>
  </g>
  <g id="text_13">
   <!-- total number of open PRs -->
   <g transform="translate(139.565625 14.878125)scale(0.12 -0.12)">
    <defs>
     <path id="DejaVuSans-6c" d="M 603 4863 
L 1178 4863 
L 1178 0 
L 603 0 
L 603 4863 
z
" transform="scale(0.015625)"/>
     <path id="DejaVuSans-20" transform="scale(0.015625)"/>
     <path id="DejaVuSans-6d" d="M 3328 2828 
Q 3544 3216 3844 3400 
Q 4144 3584 4550 3584 
Q 5097 3584 5394 3201 
Q 5691 2819 5691 2113 
L 5691 0 
L 5113 0 
L 5113 2094 
Q 5113 2597 4934 2840 
Q 4756 3084 4391 3084 
Q 3944 3084 3684 2787 
Q 3425 2491 3425 1978 
L 3425 0 
L 2847 0 
L 2847 2094 
Q 2847 2600 2669 2842 
Q 2491 3084 2119 3084 
Q 1678 3084 1418 2786 
Q 1159 2488 1159 1978 
L 1159 0 
L 581 0 
L 581 3500 
L 1159 3500 
L 1159 2956 
Q 1356 3278 1631 3431 
Q 1906 3584 2284 3584 
Q 2666 3584 2933 3390 
Q 3200 3197 3328 2828 
z
" transform="scale(0.015625)"/>
     <path id="DejaVuSans-62" d="M 3116 1747 
Q 3116 2381 2855 2742 
Q 2594 3103 2138 3103 
Q 1681 3103 1420 2742 
Q 1159 2381 1159 1747 
Q 1159 1113 1420 752 
Q 1681 391 2138 391 
Q 2594 391 2855 752 
Q 3116 1113 3116 1747 
z
M 1159 2969 
Q 1341 3281 1617 3432 
Q 1894 3584 2278 3584 
Q 2916 3584 3314 3078 
Q 3713 2572 3713 1747 
Q 3713 922 3314 415 
Q 2916 -91 2278 -91 
Q 1894 -91 1617 61 
Q 1341 213 1159 525 
L 1159 0 
L 581 0 
L 581 4863 
L 1159 4863 
L 1159 2969 
z
" transform="scale(0.015625)"/>
     <path id="DejaVuSans-72" d="M 2631 2963 
Q 2534 3019 2420 3045 
Q 2306 3072 2169 3072 
Q 1681 3072 1420 2755 
Q 1159 2438 1159 1844 
L 1159 0 
L 581 0 
L 581 3500 
L 1159 3500 
L 1159 2956 
Q 1341 3275 1631 3429 
Q 1922 3584 2338 3584 
Q 2397 3584 2469 3576 
Q 2541 3569 2628 3553 
L 2631 2963 
z
" transform="scale(0.015625)"/>
     <path id="DejaVuSans-66" d="M 2375 4863 
L 2375 4384 
L 1825 4384 
Q 1516 4384 1395 4259 
Q 1275 4134 1275 3809 
L 1275 3500 
L 2222 3500 
L 2222 3053 
L 1275 3053 
L 1275 0 
L 697 0 
L 697 3053 
L 147 3053 
L 147 3500 
L 697 3500 
L 697 3744 
Q 697 4328 969 4595 
Q 1241 4863 1831 4863 
L 2375 4863 
z
" transform="scale(0.015625)"/>
     <path id="DejaVuSans-70" d="M 1159 525 
L 1159 -1331 
L 581 -1331 
L 581 3500 
L 1159 3500 
L 1159 2969 
Q 1341 3281 1617 3432 
Q 1894 3584 2278 3584 
Q 2916 3584 3314 3078 
Q 3713 2572 3713 1747 
Q 3713 922 3314 415 
Q 2916 -91 2278 -91 
Q 1894 -91 1617 61 
Q 1341 213 1159 525 
z
M 3116 1747 
Q 3116 2381 2855 2742 
Q 2594 3103 2138 3103 
Q 1681 3103 1420 2742 
Q 1159 2381 1159 1747 
Q 1159 1113 1420 752 
Q 1681 391 2138 391 
Q 2594 391 2855 752 
Q 3116 1113 3116 1747 
z
" transform="scale(0.015625)"/>
     <path id="DejaVuSans-50" d="M 1259 4147 
L 1259 2394 
L 2053 2394 
Q 2494 2394 2734 2622 
Q 2975 2850 2975 3272 
Q 2975 3691 2734 3919 
Q 2494 4147 2053 4147 
L 1259 4147 
z
M 628 4666 
L 2053 4666 
Q 2838 4666 3239 4311 
Q 3641 3956 3641 3272 
Q 3641 2581 3239 2228 
Q 2838 1875 2053 1875 
L 1259 1875 
L 1259 0 
L 628 0 
L 628 4666 
z
" transform="scale(0.015625)"/>
     <path id="DejaVuSans-52" d="M 2841 2188 
Q 3044 2119 3236 1894 
Q 3428 1669 3622 1275 
L 4263 0 
L 3584 0 
L 2988 1197 
Q 2756 1666 2539 1819 
Q 2322 1972 1947 1972 
L 1259 1972 
L 1259 0 
L 628 0 
L 628 4666 
L 2053 4666 
Q 2853 4666 3247 4331 
Q 3641 3997 3641 3322 
Q 3641 2881 3436 2590 
Q 3231 2300 2841 2188 
z
M 1259 4147 
L 1259 2491 
L 2053 2491 
Q 2509 2491 2742 2702 
Q 2975 2913 2975 3322 
Q 2975 3731 2742 3939 
Q 2509 4147 2053 4147 
L 1259 4147 
z
" transform="scale(0.015625)"/>
     <path id="DejaVuSans-73" d="M 2834 3397 
L 2834 2853 
Q 2591 2978 2328 3040 
Q 2066 3103 1784 3103 
Q 1356 3103 1142 2972 
Q 928 2841 928 2578 
Q 928 2378 1081 2264 
Q 1234 2150 1697 2047 
L 1894 2003 
Q 2506 1872 2764 1633 
Q 3022 1394 3022 966 
Q 3022 478 2636 193 
Q 2250 -91 1575 -91 
Q 1294 -91 989 -36 
Q 684 19 347 128 
L 347 722 
Q 666 556 975 473 
Q 1284 391 1588 391 
Q 1994 391 2212 530 
Q 2431 669 2431 922 
Q 2431 1156 2273 1281 
Q 2116 1406 1581 1522 
L 1381 1569 
Q 847 1681 609 1914 
Q 372 2147 372 2553 
Q 372 3047 722 3315 
Q 1072 3584 1716 3584 
Q 2034 3584 2315 3537 
Q 2597 3491 2834 3397 
z
" transform="scale(0.015625)"/>
    </defs>
    <use xlink:href="#DejaVuSans-74"/>
    <use xlink:href="#DejaVuSans-6f" x="39.208984"/>
    <use xlink:href="#DejaVuSans-74" x="100.390625"/>
    <use xlink:href="#DejaVuSans-61" x="139.599609"/>
    <use xlink:href="#DejaVuSans-6c" x="200.878906"/>
    <use xlink:href="#DejaVuSans-20" x="228.662109"/>
    <use xlink:href="#DejaVuSans-6e" x="260.449219"/>
    <use xlink:href="#DejaVuSans-75" x="323.828125"/>
    <use xlink:href="#DejaVuSans-6d" x="387.207031"/>
    <use xlink:href="#DejaVuSans-62" x="484.619141"/>
    <use xlink:href="#DejaVuSans-65" x="548.095703"/>
    <use xlink:href="#DejaVuSans-72" x="609.619141"/>
    <use xlink:href="#DejaVuSans-20" x="650.732422"/>
    <use xlink:href="#DejaVuSans-6f" x="682.519531"/>
    <use xlink:href="#DejaVuSans-66" x="743.701172"/>
    <use xlink:href="#DejaVuSans-20" x="778.90625"/>
    <use xlink:href="#DejaVuSans-6f" x="810.693359"/>
    <use xlink:href="#DejaVuSans-70" x="871.875"/>
    <use xlink:href="#DejaVuSans-65" x="935.351562"/>
    <use xlink:href="#DejaVuSans-6e" x="996.875"/>
    <use xlink:href="#DejaVuSans-20" x="1060.253906"/>
    <use xlink:href="#DejaVuSans-50" x="1092.041016"/>
    <use xlink:href="#DejaVuSans-52" x="1152.34375"/>
    <use xlink:href="#DejaVuSans-73" x="1221.826172"/>
   </g>
  </g>
 </g>
 <defs>
  <clipPath id="p511ba794fe">
   <rect x="50.925" y="34.6" width="370.275" height="200.189746"/>
  </clipPath>
 </defs>
</svg>
