<?xml version="1.0" encoding="utf-8" standalone="no"?>
<!DOCTYPE svg PUBLIC "-//W3C//DTD SVG 1.1//EN"
  "http://www.w3.org/Graphics/SVG/1.1/DTD/svg11.dtd">
<svg xmlns:xlink="http://www.w3.org/1999/xlink" width="432pt" height="288pt" viewBox="0 0 432 288" xmlns="http://www.w3.org/2000/svg" version="1.1">
 <metadata>
  <rdf:RDF xmlns:dc="http://purl.org/dc/elements/1.1/" xmlns:cc="http://creativecommons.org/ns#" xmlns:rdf="http://www.w3.org/1999/02/22-rdf-syntax-ns#">
   <cc:Work>
    <dc:type rdf:resource="http://purl.org/dc/dcmitype/StillImage"/>
    <dc:date>2022-06-02T17:46:51.752750</dc:date>
    <dc:format>image/svg+xml</dc:format>
    <dc:creator>
     <cc:Agent>
      <dc:title>Matplotlib v3.5.0, https://matplotlib.org/</dc:title>
     </cc:Agent>
    </dc:creator>
   </cc:Work>
  </rdf:RDF>
 </metadata>
 <defs>
  <style type="text/css">*{stroke-linejoin: round; stroke-linecap: butt}</style>
 </defs>
 <g id="figure_1">
  <g id="patch_1">
   <path d="M 0 288 
L 432 288 
L 432 0 
L 0 0 
z
" style="fill: #ffffff"/>
  </g>
  <g id="axes_1">
   <g id="patch_2">
    <path d="M 63.675 234.789746 
L 421.2 234.789746 
L 421.2 34.6 
L 63.675 34.6 
z
" style="fill: #ffffff"/>
   </g>
   <g id="matplotlib.axis_1">
    <g id="xtick_1">
     <g id="line2d_1">
      <path d="M 102.732454 234.789746 
L 102.732454 34.6 
" clip-path="url(#pb59a3a3560)" style="fill: none; stroke: #b0b0b0; stroke-width: 0.8; stroke-linecap: square"/>
     </g>
     <g id="line2d_2">
      <defs>
       <path id="m5213b01000" d="M 0 0 
L 0 3.5 
" style="stroke: #000000; stroke-width: 0.8"/>
      </defs>
      <g>
       <use xlink:href="#m5213b01000" x="102.732454" y="234.789746" style="stroke: #000000; stroke-width: 0.8"/>
      </g>
     </g>
     <g id="text_1">
      <!-- 2015 -->
      <g transform="translate(79.652264 261.095186)rotate(-30)scale(0.1 -0.1)">
       <defs>
        <path id="DejaVuSans-32" d="M 1228 531 
L 3431 531 
L 3431 0 
L 469 0 
L 469 531 
Q 828 903 1448 1529 
Q 2069 2156 2228 2338 
Q 2531 2678 2651 2914 
Q 2772 3150 2772 3378 
Q 2772 3750 2511 3984 
Q 2250 4219 1831 4219 
Q 1534 4219 1204 4116 
Q 875 4013 500 3803 
L 500 4441 
Q 881 4594 1212 4672 
Q 1544 4750 1819 4750 
Q 2544 4750 2975 4387 
Q 3406 4025 3406 3419 
Q 3406 3131 3298 2873 
Q 3191 2616 2906 2266 
Q 2828 2175 2409 1742 
Q 1991 1309 1228 531 
z
" transform="scale(0.015625)"/>
        <path id="DejaVuSans-30" d="M 2034 4250 
Q 1547 4250 1301 3770 
Q 1056 3291 1056 2328 
Q 1056 1369 1301 889 
Q 1547 409 2034 409 
Q 2525 409 2770 889 
Q 3016 1369 3016 2328 
Q 3016 3291 2770 3770 
Q 2525 4250 2034 4250 
z
M 2034 4750 
Q 2819 4750 3233 4129 
Q 3647 3509 3647 2328 
Q 3647 1150 3233 529 
Q 2819 -91 2034 -91 
Q 1250 -91 836 529 
Q 422 1150 422 2328 
Q 422 3509 836 4129 
Q 1250 4750 2034 4750 
z
" transform="scale(0.015625)"/>
        <path id="DejaVuSans-31" d="M 794 531 
L 1825 531 
L 1825 4091 
L 703 3866 
L 703 4441 
L 1819 4666 
L 2450 4666 
L 2450 531 
L 3481 531 
L 3481 0 
L 794 0 
L 794 531 
z
" transform="scale(0.015625)"/>
        <path id="DejaVuSans-35" d="M 691 4666 
L 3169 4666 
L 3169 4134 
L 1269 4134 
L 1269 2991 
Q 1406 3038 1543 3061 
Q 1681 3084 1819 3084 
Q 2600 3084 3056 2656 
Q 3513 2228 3513 1497 
Q 3513 744 3044 326 
Q 2575 -91 1722 -91 
Q 1428 -91 1123 -41 
Q 819 9 494 109 
L 494 744 
Q 775 591 1075 516 
Q 1375 441 1709 441 
Q 2250 441 2565 725 
Q 2881 1009 2881 1497 
Q 2881 1984 2565 2268 
Q 2250 2553 1709 2553 
Q 1456 2553 1204 2497 
Q 953 2441 691 2322 
L 691 4666 
z
" transform="scale(0.015625)"/>
       </defs>
       <use xlink:href="#DejaVuSans-32"/>
       <use xlink:href="#DejaVuSans-30" x="63.623047"/>
       <use xlink:href="#DejaVuSans-31" x="127.246094"/>
       <use xlink:href="#DejaVuSans-35" x="190.869141"/>
      </g>
     </g>
    </g>
    <g id="xtick_2">
     <g id="line2d_3">
      <path d="M 143.47839 234.789746 
L 143.47839 34.6 
" clip-path="url(#pb59a3a3560)" style="fill: none; stroke: #b0b0b0; stroke-width: 0.8; stroke-linecap: square"/>
     </g>
     <g id="line2d_4">
      <g>
       <use xlink:href="#m5213b01000" x="143.47839" y="234.789746" style="stroke: #000000; stroke-width: 0.8"/>
      </g>
     </g>
     <g id="text_2">
      <!-- 2016 -->
      <g transform="translate(120.3982 261.095186)rotate(-30)scale(0.1 -0.1)">
       <defs>
        <path id="DejaVuSans-36" d="M 2113 2584 
Q 1688 2584 1439 2293 
Q 1191 2003 1191 1497 
Q 1191 994 1439 701 
Q 1688 409 2113 409 
Q 2538 409 2786 701 
Q 3034 994 3034 1497 
Q 3034 2003 2786 2293 
Q 2538 2584 2113 2584 
z
M 3366 4563 
L 3366 3988 
Q 3128 4100 2886 4159 
Q 2644 4219 2406 4219 
Q 1781 4219 1451 3797 
Q 1122 3375 1075 2522 
Q 1259 2794 1537 2939 
Q 1816 3084 2150 3084 
Q 2853 3084 3261 2657 
Q 3669 2231 3669 1497 
Q 3669 778 3244 343 
Q 2819 -91 2113 -91 
Q 1303 -91 875 529 
Q 447 1150 447 2328 
Q 447 3434 972 4092 
Q 1497 4750 2381 4750 
Q 2619 4750 2861 4703 
Q 3103 4656 3366 4563 
z
" transform="scale(0.015625)"/>
       </defs>
       <use xlink:href="#DejaVuSans-32"/>
       <use xlink:href="#DejaVuSans-30" x="63.623047"/>
       <use xlink:href="#DejaVuSans-31" x="127.246094"/>
       <use xlink:href="#DejaVuSans-36" x="190.869141"/>
      </g>
     </g>
    </g>
    <g id="xtick_3">
     <g id="line2d_5">
      <path d="M 184.335958 234.789746 
L 184.335958 34.6 
" clip-path="url(#pb59a3a3560)" style="fill: none; stroke: #b0b0b0; stroke-width: 0.8; stroke-linecap: square"/>
     </g>
     <g id="line2d_6">
      <g>
       <use xlink:href="#m5213b01000" x="184.335958" y="234.789746" style="stroke: #000000; stroke-width: 0.8"/>
      </g>
     </g>
     <g id="text_3">
      <!-- 2017 -->
      <g transform="translate(161.255768 261.095186)rotate(-30)scale(0.1 -0.1)">
       <defs>
        <path id="DejaVuSans-37" d="M 525 4666 
L 3525 4666 
L 3525 4397 
L 1831 0 
L 1172 0 
L 2766 4134 
L 525 4134 
L 525 4666 
z
" transform="scale(0.015625)"/>
       </defs>
       <use xlink:href="#DejaVuSans-32"/>
       <use xlink:href="#DejaVuSans-30" x="63.623047"/>
       <use xlink:href="#DejaVuSans-31" x="127.246094"/>
       <use xlink:href="#DejaVuSans-37" x="190.869141"/>
      </g>
     </g>
    </g>
    <g id="xtick_4">
     <g id="line2d_7">
      <path d="M 225.081894 234.789746 
L 225.081894 34.6 
" clip-path="url(#pb59a3a3560)" style="fill: none; stroke: #b0b0b0; stroke-width: 0.8; stroke-linecap: square"/>
     </g>
     <g id="line2d_8">
      <g>
       <use xlink:href="#m5213b01000" x="225.081894" y="234.789746" style="stroke: #000000; stroke-width: 0.8"/>
      </g>
     </g>
     <g id="text_4">
      <!-- 2018 -->
      <g transform="translate(202.001704 261.095186)rotate(-30)scale(0.1 -0.1)">
       <defs>
        <path id="DejaVuSans-38" d="M 2034 2216 
Q 1584 2216 1326 1975 
Q 1069 1734 1069 1313 
Q 1069 891 1326 650 
Q 1584 409 2034 409 
Q 2484 409 2743 651 
Q 3003 894 3003 1313 
Q 3003 1734 2745 1975 
Q 2488 2216 2034 2216 
z
M 1403 2484 
Q 997 2584 770 2862 
Q 544 3141 544 3541 
Q 544 4100 942 4425 
Q 1341 4750 2034 4750 
Q 2731 4750 3128 4425 
Q 3525 4100 3525 3541 
Q 3525 3141 3298 2862 
Q 3072 2584 2669 2484 
Q 3125 2378 3379 2068 
Q 3634 1759 3634 1313 
Q 3634 634 3220 271 
Q 2806 -91 2034 -91 
Q 1263 -91 848 271 
Q 434 634 434 1313 
Q 434 1759 690 2068 
Q 947 2378 1403 2484 
z
M 1172 3481 
Q 1172 3119 1398 2916 
Q 1625 2713 2034 2713 
Q 2441 2713 2670 2916 
Q 2900 3119 2900 3481 
Q 2900 3844 2670 4047 
Q 2441 4250 2034 4250 
Q 1625 4250 1398 4047 
Q 1172 3844 1172 3481 
z
" transform="scale(0.015625)"/>
       </defs>
       <use xlink:href="#DejaVuSans-32"/>
       <use xlink:href="#DejaVuSans-30" x="63.623047"/>
       <use xlink:href="#DejaVuSans-31" x="127.246094"/>
       <use xlink:href="#DejaVuSans-38" x="190.869141"/>
      </g>
     </g>
    </g>
    <g id="xtick_5">
     <g id="line2d_9">
      <path d="M 265.82783 234.789746 
L 265.82783 34.6 
" clip-path="url(#pb59a3a3560)" style="fill: none; stroke: #b0b0b0; stroke-width: 0.8; stroke-linecap: square"/>
     </g>
     <g id="line2d_10">
      <g>
       <use xlink:href="#m5213b01000" x="265.82783" y="234.789746" style="stroke: #000000; stroke-width: 0.8"/>
      </g>
     </g>
     <g id="text_5">
      <!-- 2019 -->
      <g transform="translate(242.74764 261.095186)rotate(-30)scale(0.1 -0.1)">
       <defs>
        <path id="DejaVuSans-39" d="M 703 97 
L 703 672 
Q 941 559 1184 500 
Q 1428 441 1663 441 
Q 2288 441 2617 861 
Q 2947 1281 2994 2138 
Q 2813 1869 2534 1725 
Q 2256 1581 1919 1581 
Q 1219 1581 811 2004 
Q 403 2428 403 3163 
Q 403 3881 828 4315 
Q 1253 4750 1959 4750 
Q 2769 4750 3195 4129 
Q 3622 3509 3622 2328 
Q 3622 1225 3098 567 
Q 2575 -91 1691 -91 
Q 1453 -91 1209 -44 
Q 966 3 703 97 
z
M 1959 2075 
Q 2384 2075 2632 2365 
Q 2881 2656 2881 3163 
Q 2881 3666 2632 3958 
Q 2384 4250 1959 4250 
Q 1534 4250 1286 3958 
Q 1038 3666 1038 3163 
Q 1038 2656 1286 2365 
Q 1534 2075 1959 2075 
z
" transform="scale(0.015625)"/>
       </defs>
       <use xlink:href="#DejaVuSans-32"/>
       <use xlink:href="#DejaVuSans-30" x="63.623047"/>
       <use xlink:href="#DejaVuSans-31" x="127.246094"/>
       <use xlink:href="#DejaVuSans-39" x="190.869141"/>
      </g>
     </g>
    </g>
    <g id="xtick_6">
     <g id="line2d_11">
      <path d="M 306.573766 234.789746 
L 306.573766 34.6 
" clip-path="url(#pb59a3a3560)" style="fill: none; stroke: #b0b0b0; stroke-width: 0.8; stroke-linecap: square"/>
     </g>
     <g id="line2d_12">
      <g>
       <use xlink:href="#m5213b01000" x="306.573766" y="234.789746" style="stroke: #000000; stroke-width: 0.8"/>
      </g>
     </g>
     <g id="text_6">
      <!-- 2020 -->
      <g transform="translate(283.493576 261.095186)rotate(-30)scale(0.1 -0.1)">
       <use xlink:href="#DejaVuSans-32"/>
       <use xlink:href="#DejaVuSans-30" x="63.623047"/>
       <use xlink:href="#DejaVuSans-32" x="127.246094"/>
       <use xlink:href="#DejaVuSans-30" x="190.869141"/>
      </g>
     </g>
    </g>
    <g id="xtick_7">
     <g id="line2d_13">
      <path d="M 347.431334 234.789746 
L 347.431334 34.6 
" clip-path="url(#pb59a3a3560)" style="fill: none; stroke: #b0b0b0; stroke-width: 0.8; stroke-linecap: square"/>
     </g>
     <g id="line2d_14">
      <g>
       <use xlink:href="#m5213b01000" x="347.431334" y="234.789746" style="stroke: #000000; stroke-width: 0.8"/>
      </g>
     </g>
     <g id="text_7">
      <!-- 2021 -->
      <g transform="translate(324.351144 261.095186)rotate(-30)scale(0.1 -0.1)">
       <use xlink:href="#DejaVuSans-32"/>
       <use xlink:href="#DejaVuSans-30" x="63.623047"/>
       <use xlink:href="#DejaVuSans-32" x="127.246094"/>
       <use xlink:href="#DejaVuSans-31" x="190.869141"/>
      </g>
     </g>
    </g>
    <g id="xtick_8">
     <g id="line2d_15">
      <path d="M 388.17727 234.789746 
L 388.17727 34.6 
" clip-path="url(#pb59a3a3560)" style="fill: none; stroke: #b0b0b0; stroke-width: 0.8; stroke-linecap: square"/>
     </g>
     <g id="line2d_16">
      <g>
       <use xlink:href="#m5213b01000" x="388.17727" y="234.789746" style="stroke: #000000; stroke-width: 0.8"/>
      </g>
     </g>
     <g id="text_8">
      <!-- 2022 -->
      <g transform="translate(365.09708 261.095186)rotate(-30)scale(0.1 -0.1)">
       <use xlink:href="#DejaVuSans-32"/>
       <use xlink:href="#DejaVuSans-30" x="63.623047"/>
       <use xlink:href="#DejaVuSans-32" x="127.246094"/>
       <use xlink:href="#DejaVuSans-32" x="190.869141"/>
      </g>
     </g>
    </g>
    <g id="text_9">
     <!-- date -->
     <g transform="translate(231.1625 274.494686)scale(0.1 -0.1)">
      <defs>
       <path id="DejaVuSans-64" d="M 2906 2969 
L 2906 4863 
L 3481 4863 
L 3481 0 
L 2906 0 
L 2906 525 
Q 2725 213 2448 61 
Q 2172 -91 1784 -91 
Q 1150 -91 751 415 
Q 353 922 353 1747 
Q 353 2572 751 3078 
Q 1150 3584 1784 3584 
Q 2172 3584 2448 3432 
Q 2725 3281 2906 2969 
z
M 947 1747 
Q 947 1113 1208 752 
Q 1469 391 1925 391 
Q 2381 391 2643 752 
Q 2906 1113 2906 1747 
Q 2906 2381 2643 2742 
Q 2381 3103 1925 3103 
Q 1469 3103 1208 2742 
Q 947 2381 947 1747 
z
" transform="scale(0.015625)"/>
       <path id="DejaVuSans-61" d="M 2194 1759 
Q 1497 1759 1228 1600 
Q 959 1441 959 1056 
Q 959 750 1161 570 
Q 1363 391 1709 391 
Q 2188 391 2477 730 
Q 2766 1069 2766 1631 
L 2766 1759 
L 2194 1759 
z
M 3341 1997 
L 3341 0 
L 2766 0 
L 2766 531 
Q 2569 213 2275 61 
Q 1981 -91 1556 -91 
Q 1019 -91 701 211 
Q 384 513 384 1019 
Q 384 1609 779 1909 
Q 1175 2209 1959 2209 
L 2766 2209 
L 2766 2266 
Q 2766 2663 2505 2880 
Q 2244 3097 1772 3097 
Q 1472 3097 1187 3025 
Q 903 2953 641 2809 
L 641 3341 
Q 956 3463 1253 3523 
Q 1550 3584 1831 3584 
Q 2591 3584 2966 3190 
Q 3341 2797 3341 1997 
z
" transform="scale(0.015625)"/>
       <path id="DejaVuSans-74" d="M 1172 4494 
L 1172 3500 
L 2356 3500 
L 2356 3053 
L 1172 3053 
L 1172 1153 
Q 1172 725 1289 603 
Q 1406 481 1766 481 
L 2356 481 
L 2356 0 
L 1766 0 
Q 1100 0 847 248 
Q 594 497 594 1153 
L 594 3053 
L 172 3053 
L 172 3500 
L 594 3500 
L 594 4494 
L 1172 4494 
z
" transform="scale(0.015625)"/>
       <path id="DejaVuSans-65" d="M 3597 1894 
L 3597 1613 
L 953 1613 
Q 991 1019 1311 708 
Q 1631 397 2203 397 
Q 2534 397 2845 478 
Q 3156 559 3463 722 
L 3463 178 
Q 3153 47 2828 -22 
Q 2503 -91 2169 -91 
Q 1331 -91 842 396 
Q 353 884 353 1716 
Q 353 2575 817 3079 
Q 1281 3584 2069 3584 
Q 2775 3584 3186 3129 
Q 3597 2675 3597 1894 
z
M 3022 2063 
Q 3016 2534 2758 2815 
Q 2500 3097 2075 3097 
Q 1594 3097 1305 2825 
Q 1016 2553 972 2059 
L 3022 2063 
z
" transform="scale(0.015625)"/>
      </defs>
      <use xlink:href="#DejaVuSans-64"/>
      <use xlink:href="#DejaVuSans-61" x="63.476562"/>
      <use xlink:href="#DejaVuSans-74" x="124.755859"/>
      <use xlink:href="#DejaVuSans-65" x="163.964844"/>
     </g>
    </g>
   </g>
   <g id="matplotlib.axis_2">
    <g id="ytick_1">
     <g id="line2d_17">
      <path d="M 63.675 225.70076 
L 421.2 225.70076 
" clip-path="url(#pb59a3a3560)" style="fill: none; stroke: #b0b0b0; stroke-width: 0.8; stroke-linecap: square"/>
     </g>
     <g id="line2d_18">
      <defs>
       <path id="m159b5f839d" d="M 0 0 
L -3.5 0 
" style="stroke: #000000; stroke-width: 0.8"/>
      </defs>
      <g>
       <use xlink:href="#m159b5f839d" x="63.675" y="225.70076" style="stroke: #000000; stroke-width: 0.8"/>
      </g>
     </g>
     <g id="text_10">
      <!-- 0 -->
      <g transform="translate(50.3125 229.499979)scale(0.1 -0.1)">
       <use xlink:href="#DejaVuSans-30"/>
      </g>
     </g>
    </g>
    <g id="ytick_2">
     <g id="line2d_19">
      <path d="M 63.675 199.331414 
L 421.2 199.331414 
" clip-path="url(#pb59a3a3560)" style="fill: none; stroke: #b0b0b0; stroke-width: 0.8; stroke-linecap: square"/>
     </g>
     <g id="line2d_20">
      <g>
       <use xlink:href="#m159b5f839d" x="63.675" y="199.331414" style="stroke: #000000; stroke-width: 0.8"/>
      </g>
     </g>
     <g id="text_11">
      <!-- 2500 -->
      <g transform="translate(31.225 203.130633)scale(0.1 -0.1)">
       <use xlink:href="#DejaVuSans-32"/>
       <use xlink:href="#DejaVuSans-35" x="63.623047"/>
       <use xlink:href="#DejaVuSans-30" x="127.246094"/>
       <use xlink:href="#DejaVuSans-30" x="190.869141"/>
      </g>
     </g>
    </g>
    <g id="ytick_3">
     <g id="line2d_21">
      <path d="M 63.675 172.962068 
L 421.2 172.962068 
" clip-path="url(#pb59a3a3560)" style="fill: none; stroke: #b0b0b0; stroke-width: 0.8; stroke-linecap: square"/>
     </g>
     <g id="line2d_22">
      <g>
       <use xlink:href="#m159b5f839d" x="63.675" y="172.962068" style="stroke: #000000; stroke-width: 0.8"/>
      </g>
     </g>
     <g id="text_12">
      <!-- 5000 -->
      <g transform="translate(31.225 176.761287)scale(0.1 -0.1)">
       <use xlink:href="#DejaVuSans-35"/>
       <use xlink:href="#DejaVuSans-30" x="63.623047"/>
       <use xlink:href="#DejaVuSans-30" x="127.246094"/>
       <use xlink:href="#DejaVuSans-30" x="190.869141"/>
      </g>
     </g>
    </g>
    <g id="ytick_4">
     <g id="line2d_23">
      <path d="M 63.675 146.592722 
L 421.2 146.592722 
" clip-path="url(#pb59a3a3560)" style="fill: none; stroke: #b0b0b0; stroke-width: 0.8; stroke-linecap: square"/>
     </g>
     <g id="line2d_24">
      <g>
       <use xlink:href="#m159b5f839d" x="63.675" y="146.592722" style="stroke: #000000; stroke-width: 0.8"/>
      </g>
     </g>
     <g id="text_13">
      <!-- 7500 -->
      <g transform="translate(31.225 150.391941)scale(0.1 -0.1)">
       <use xlink:href="#DejaVuSans-37"/>
       <use xlink:href="#DejaVuSans-35" x="63.623047"/>
       <use xlink:href="#DejaVuSans-30" x="127.246094"/>
       <use xlink:href="#DejaVuSans-30" x="190.869141"/>
      </g>
     </g>
    </g>
    <g id="ytick_5">
     <g id="line2d_25">
      <path d="M 63.675 120.223376 
L 421.2 120.223376 
" clip-path="url(#pb59a3a3560)" style="fill: none; stroke: #b0b0b0; stroke-width: 0.8; stroke-linecap: square"/>
     </g>
     <g id="line2d_26">
      <g>
       <use xlink:href="#m159b5f839d" x="63.675" y="120.223376" style="stroke: #000000; stroke-width: 0.8"/>
      </g>
     </g>
     <g id="text_14">
      <!-- 10000 -->
      <g transform="translate(24.8625 124.022595)scale(0.1 -0.1)">
       <use xlink:href="#DejaVuSans-31"/>
       <use xlink:href="#DejaVuSans-30" x="63.623047"/>
       <use xlink:href="#DejaVuSans-30" x="127.246094"/>
       <use xlink:href="#DejaVuSans-30" x="190.869141"/>
       <use xlink:href="#DejaVuSans-30" x="254.492188"/>
      </g>
     </g>
    </g>
    <g id="ytick_6">
     <g id="line2d_27">
      <path d="M 63.675 93.85403 
L 421.2 93.85403 
" clip-path="url(#pb59a3a3560)" style="fill: none; stroke: #b0b0b0; stroke-width: 0.8; stroke-linecap: square"/>
     </g>
     <g id="line2d_28">
      <g>
       <use xlink:href="#m159b5f839d" x="63.675" y="93.85403" style="stroke: #000000; stroke-width: 0.8"/>
      </g>
     </g>
     <g id="text_15">
      <!-- 12500 -->
      <g transform="translate(24.8625 97.653249)scale(0.1 -0.1)">
       <use xlink:href="#DejaVuSans-31"/>
       <use xlink:href="#DejaVuSans-32" x="63.623047"/>
       <use xlink:href="#DejaVuSans-35" x="127.246094"/>
       <use xlink:href="#DejaVuSans-30" x="190.869141"/>
       <use xlink:href="#DejaVuSans-30" x="254.492188"/>
      </g>
     </g>
    </g>
    <g id="ytick_7">
     <g id="line2d_29">
      <path d="M 63.675 67.484684 
L 421.2 67.484684 
" clip-path="url(#pb59a3a3560)" style="fill: none; stroke: #b0b0b0; stroke-width: 0.8; stroke-linecap: square"/>
     </g>
     <g id="line2d_30">
      <g>
       <use xlink:href="#m159b5f839d" x="63.675" y="67.484684" style="stroke: #000000; stroke-width: 0.8"/>
      </g>
     </g>
     <g id="text_16">
      <!-- 15000 -->
      <g transform="translate(24.8625 71.283903)scale(0.1 -0.1)">
       <use xlink:href="#DejaVuSans-31"/>
       <use xlink:href="#DejaVuSans-35" x="63.623047"/>
       <use xlink:href="#DejaVuSans-30" x="127.246094"/>
       <use xlink:href="#DejaVuSans-30" x="190.869141"/>
       <use xlink:href="#DejaVuSans-30" x="254.492188"/>
      </g>
     </g>
    </g>
    <g id="ytick_8">
     <g id="line2d_31">
      <path d="M 63.675 41.115338 
L 421.2 41.115338 
" clip-path="url(#pb59a3a3560)" style="fill: none; stroke: #b0b0b0; stroke-width: 0.8; stroke-linecap: square"/>
     </g>
     <g id="line2d_32">
      <g>
       <use xlink:href="#m159b5f839d" x="63.675" y="41.115338" style="stroke: #000000; stroke-width: 0.8"/>
      </g>
     </g>
     <g id="text_17">
      <!-- 17500 -->
      <g transform="translate(24.8625 44.914557)scale(0.1 -0.1)">
       <use xlink:href="#DejaVuSans-31"/>
       <use xlink:href="#DejaVuSans-37" x="63.623047"/>
       <use xlink:href="#DejaVuSans-35" x="127.246094"/>
       <use xlink:href="#DejaVuSans-30" x="190.869141"/>
       <use xlink:href="#DejaVuSans-30" x="254.492188"/>
      </g>
     </g>
    </g>
    <g id="text_18">
     <!-- count -->
     <g transform="translate(18.782813 148.801123)rotate(-90)scale(0.1 -0.1)">
      <defs>
       <path id="DejaVuSans-63" d="M 3122 3366 
L 3122 2828 
Q 2878 2963 2633 3030 
Q 2388 3097 2138 3097 
Q 1578 3097 1268 2742 
Q 959 2388 959 1747 
Q 959 1106 1268 751 
Q 1578 397 2138 397 
Q 2388 397 2633 464 
Q 2878 531 3122 666 
L 3122 134 
Q 2881 22 2623 -34 
Q 2366 -91 2075 -91 
Q 1284 -91 818 406 
Q 353 903 353 1747 
Q 353 2603 823 3093 
Q 1294 3584 2113 3584 
Q 2378 3584 2631 3529 
Q 2884 3475 3122 3366 
z
" transform="scale(0.015625)"/>
       <path id="DejaVuSans-6f" d="M 1959 3097 
Q 1497 3097 1228 2736 
Q 959 2375 959 1747 
Q 959 1119 1226 758 
Q 1494 397 1959 397 
Q 2419 397 2687 759 
Q 2956 1122 2956 1747 
Q 2956 2369 2687 2733 
Q 2419 3097 1959 3097 
z
M 1959 3584 
Q 2709 3584 3137 3096 
Q 3566 2609 3566 1747 
Q 3566 888 3137 398 
Q 2709 -91 1959 -91 
Q 1206 -91 779 398 
Q 353 888 353 1747 
Q 353 2609 779 3096 
Q 1206 3584 1959 3584 
z
" transform="scale(0.015625)"/>
       <path id="DejaVuSans-75" d="M 544 1381 
L 544 3500 
L 1119 3500 
L 1119 1403 
Q 1119 906 1312 657 
Q 1506 409 1894 409 
Q 2359 409 2629 706 
Q 2900 1003 2900 1516 
L 2900 3500 
L 3475 3500 
L 3475 0 
L 2900 0 
L 2900 538 
Q 2691 219 2414 64 
Q 2138 -91 1772 -91 
Q 1169 -91 856 284 
Q 544 659 544 1381 
z
M 1991 3584 
L 1991 3584 
z
" transform="scale(0.015625)"/>
       <path id="DejaVuSans-6e" d="M 3513 2113 
L 3513 0 
L 2938 0 
L 2938 2094 
Q 2938 2591 2744 2837 
Q 2550 3084 2163 3084 
Q 1697 3084 1428 2787 
Q 1159 2491 1159 1978 
L 1159 0 
L 581 0 
L 581 3500 
L 1159 3500 
L 1159 2956 
Q 1366 3272 1645 3428 
Q 1925 3584 2291 3584 
Q 2894 3584 3203 3211 
Q 3513 2838 3513 2113 
z
" transform="scale(0.015625)"/>
      </defs>
      <use xlink:href="#DejaVuSans-63"/>
      <use xlink:href="#DejaVuSans-6f" x="54.980469"/>
      <use xlink:href="#DejaVuSans-75" x="116.162109"/>
      <use xlink:href="#DejaVuSans-6e" x="179.541016"/>
      <use xlink:href="#DejaVuSans-74" x="242.919922"/>
     </g>
    </g>
   </g>
   <g id="line2d_33">
    <path d="M 79.926136 225.690212 
L 80.160924 225.553091 
L 81.591239 225.236659 
L 81.622137 225.194468 
L 82.912597 225.057348 
L 83.02197 225.004609 
L 96.421517 223.802167 
L 99.580102 223.084921 
L 101.921733 222.779036 
L 103.701635 222.652463 
L 103.830248 222.610272 
L 104.326462 222.473152 
L 105.609668 222.15672 
L 105.702133 222.135624 
L 106.604539 221.96686 
L 106.721184 221.924669 
L 106.835869 221.861383 
L 107.485831 221.713715 
L 107.532779 221.671524 
L 107.947585 221.513308 
L 108.179753 221.439473 
L 108.833683 221.239066 
L 108.982396 221.196876 
L 109.926049 221.028112 
L 111.179388 220.690584 
L 111.565806 220.52182 
L 111.87904 220.331961 
L 111.993034 220.258127 
L 112.416069 220.142102 
L 112.827534 220.015529 
L 112.960926 219.920599 
L 113.728792 219.741288 
L 113.733575 219.709644 
L 114.405223 219.540881 
L 115.28121 219.361569 
L 115.763165 219.203353 
L 115.888682 219.161162 
L 117.088425 218.886921 
L 117.399959 218.823634 
L 118.073019 218.665418 
L 118.203205 218.538845 
L 118.436654 218.412273 
L 118.551507 218.317343 
L 119.093838 218.138031 
L 119.531101 217.95872 
L 119.806111 217.832147 
L 119.963133 217.695026 
L 120.905671 217.135996 
L 121.364036 216.988328 
L 122.43632 216.714087 
L 122.457034 216.703539 
L 123.209545 216.566418 
L 123.45509 216.545323 
L 124.429609 216.313273 
L 124.811406 216.1867 
L 125.561808 216.049579 
L 127.349385 215.332333 
L 127.985889 215.163569 
L 128.231839 215.026449 
L 129.012072 214.857685 
L 129.485571 214.604539 
L 130.512191 214.340846 
L 131.625285 213.908388 
L 131.742094 213.866197 
L 132.167975 213.686886 
L 132.40559 213.518122 
L 132.708434 213.412645 
L 133.137363 213.286072 
L 134.841327 212.64266 
L 136.769351 212.051986 
L 137.101939 211.872675 
L 137.174644 211.851579 
L 138.392686 211.598434 
L 138.629752 211.419122 
L 138.758742 211.313645 
L 139.401318 211.123785 
L 139.946815 210.933926 
L 140.884761 210.733519 
L 140.984572 210.659685 
L 141.786466 210.512017 
L 141.9399 210.44873 
L 143.042854 210.3538 
L 144.217051 210.195584 
L 145.58828 209.900248 
L 146.402817 209.615459 
L 147.22429 209.351765 
L 147.599515 209.183001 
L 147.914604 209.056429 
L 148.014985 208.972047 
L 148.67417 208.792735 
L 148.790985 208.613424 
L 149.191292 208.391921 
L 149.479015 208.21261 
L 149.598308 208.107132 
L 149.798402 207.980559 
L 149.822668 207.917273 
L 150.168024 207.780152 
L 150.25315 207.716866 
L 151.246045 207.484816 
L 151.266922 207.474268 
L 151.903937 207.347695 
L 152.162116 207.147288 
L 152.679003 207.020715 
L 152.705211 206.989072 
L 154.145397 206.80976 
L 154.233121 206.757022 
L 155.131483 206.48278 
L 155.30595 206.324564 
L 155.826412 206.134705 
L 155.994403 206.039775 
L 156.711865 205.828821 
L 156.835868 205.765534 
L 158.402088 205.354172 
L 158.660302 205.333077 
L 158.973647 205.195956 
L 159.073306 205.111574 
L 159.720606 204.911167 
L 159.84951 204.847881 
L 160.624703 204.563092 
L 161.290983 204.383781 
L 161.405966 204.320494 
L 162.064605 204.141183 
L 162.196428 204.004062 
L 162.610947 203.835298 
L 162.722747 203.761464 
L 163.640256 203.318459 
L 163.745229 203.276268 
L 163.999677 203.234077 
L 164.414885 203.075861 
L 166.855216 202.031635 
L 167.331152 201.873419 
L 167.428083 201.810132 
L 168.308352 201.599178 
L 168.553617 201.462057 
L 169.1785 201.314389 
L 172.570799 200.238519 
L 172.905809 200.111946 
L 173.020495 200.059208 
L 174.809502 199.384153 
L 174.901013 199.352509 
L 175.492302 199.173198 
L 176.159399 198.898957 
L 176.513999 198.709097 
L 177.022275 198.529786 
L 177.328191 198.318831 
L 177.711453 198.171163 
L 177.824346 198.065685 
L 178.374452 197.875826 
L 178.53514 197.801992 
L 179.074428 197.601585 
L 179.168366 197.517203 
L 179.806335 197.316796 
L 179.952315 197.169127 
L 180.061258 197.06365 
L 180.355693 196.926529 
L 180.362606 196.915982 
L 180.705681 196.789409 
L 182.183794 195.977233 
L 182.36601 195.840112 
L 182.671322 195.639705 
L 183.24367 195.492037 
L 183.380426 195.470942 
L 183.618446 195.428751 
L 184.863294 195.175605 
L 184.988757 195.070128 
L 185.582344 194.880268 
L 185.696477 194.743148 
L 186.305495 194.268499 
L 186.417997 194.110283 
L 186.550993 193.973163 
L 187.024777 193.84659 
L 187.239812 193.698922 
L 187.898773 193.456324 
L 188.00725 193.403585 
L 188.42613 193.213726 
L 188.50636 193.118796 
L 189.236442 192.928937 
L 189.436853 192.686339 
L 189.52486 192.580861 
L 189.64898 192.454288 
L 189.740215 192.380454 
L 189.998448 192.253881 
L 190.112601 192.095665 
L 190.549382 191.715947 
L 190.888332 191.589374 
L 191.112457 191.357324 
L 191.276194 191.209655 
L 191.773394 190.977605 
L 191.880921 190.924866 
L 192.869099 190.323645 
L 193.124288 190.186525 
L 193.305881 190.038856 
L 193.447863 189.933379 
L 193.998093 189.638042 
L 194.12249 189.511469 
L 194.235239 189.395444 
L 194.897511 189.195037 
L 195.021637 189.036821 
L 195.134797 188.941892 
L 196.338947 188.625459 
L 196.468633 188.541077 
L 197.049529 188.309027 
L 197.429828 188.013691 
L 197.4868 187.960952 
L 198.069951 187.792188 
L 198.262257 187.64452 
L 198.59047 187.496851 
L 198.751721 187.359731 
L 199.021207 187.117133 
L 199.808297 186.442078 
L 199.84302 186.399887 
L 200.235982 186.283861 
L 200.465123 186.072907 
L 200.917571 185.8725 
L 201.056636 185.767022 
L 201.245041 185.619354 
L 201.352645 185.513877 
L 202.043207 185.081419 
L 202.494826 184.89156 
L 202.717232 184.743892 
L 203.358616 184.532937 
L 203.495731 184.385269 
L 204.031379 184.163766 
L 204.303003 183.889525 
L 204.473 183.720761 
L 204.509561 183.625831 
L 204.976292 183.457068 
L 205.169317 183.309399 
L 205.295272 183.151183 
L 205.807718 182.950776 
L 205.974712 182.739821 
L 206.036635 182.592153 
L 206.118144 182.549962 
L 206.641726 182.317912 
L 206.858299 182.201887 
L 207.284965 182.075314 
L 207.630715 181.843264 
L 207.965027 181.727238 
L 208.072489 181.452997 
L 208.283887 181.315877 
L 208.486844 181.199852 
L 208.758563 181.073279 
L 208.84776 181.031088 
L 209.051835 180.893967 
L 209.164826 180.704108 
L 209.961645 180.356032 
L 209.968331 180.334937 
L 210.632647 180.187269 
L 210.742058 180.0396 
L 211.011149 179.90248 
L 211.287768 179.744264 
L 211.556724 179.607143 
L 211.973498 179.48057 
L 212.084828 179.438379 
L 213.748944 178.984826 
L 213.871064 178.889897 
L 216.104302 177.750741 
L 216.313359 177.655811 
L 216.55047 177.529239 
L 216.670865 177.444857 
L 216.878185 177.307736 
L 217.014054 177.138972 
L 217.23262 177.086234 
L 217.45024 176.949113 
L 217.688122 176.801445 
L 218.24565 176.601038 
L 218.897284 176.326796 
L 219.26098 175.968173 
L 219.792761 175.725575 
L 219.899216 175.641193 
L 220.464289 175.47243 
L 220.568716 175.430239 
L 220.777663 175.250927 
L 220.91952 175.166545 
L 221.235667 175.018877 
L 221.343806 174.881756 
L 221.901013 174.691897 
L 222.325636 174.544229 
L 222.450089 174.449299 
L 222.905505 174.280535 
L 223.03531 174.206701 
L 223.703162 174.027389 
L 223.976703 173.816435 
L 225.257956 173.531646 
L 225.377658 173.478907 
L 225.908859 173.310143 
L 225.946488 173.194118 
L 226.22519 173.056997 
L 226.603784 172.898781 
L 227.060164 172.730018 
L 227.178736 172.645636 
L 227.497105 172.48742 
L 227.700544 172.350299 
L 227.811041 172.244822 
L 228.047111 172.097153 
L 228.385984 171.97058 
L 228.496723 171.896746 
L 228.772297 171.780721 
L 229.837918 171.190048 
L 229.952403 171.031832 
L 230.962104 170.166917 
L 231.070407 170.050892 
L 231.49065 169.882128 
L 231.868912 169.491862 
L 231.924267 169.460219 
L 232.19367 169.333646 
L 232.312048 169.280907 
L 232.603334 169.091048 
L 232.70831 168.975023 
L 233.065276 168.84845 
L 233.203991 168.732425 
L 233.805215 168.510922 
L 235.941491 167.477244 
L 236.609708 167.319028 
L 238.858198 166.19042 
L 239.318464 166.063847 
L 239.447232 165.937274 
L 239.555473 165.852892 
L 239.943933 165.684128 
L 240.090753 165.53646 
L 240.315428 165.378244 
L 240.761747 165.177837 
L 241.007057 165.051264 
L 241.1123 164.966882 
L 241.646033 164.766475 
L 242.111393 164.576616 
L 242.453276 164.450043 
L 242.647649 164.32347 
L 243.435131 164.038681 
L 243.567661 163.933204 
L 244.209855 163.753892 
L 244.341544 163.627319 
L 244.988378 163.458556 
L 245.127352 163.374174 
L 245.601875 163.184314 
L 246.937404 162.256113 
L 247.128288 162.118993 
L 247.3519 161.918586 
L 247.790006 161.76037 
L 248.014385 161.507224 
L 248.390884 161.211887 
L 248.789642 160.990385 
L 248.975777 160.853264 
L 249.488252 160.484093 
L 249.600695 160.441902 
L 250.119141 160.262591 
L 250.287667 160.188757 
L 250.495555 160.051636 
L 250.572072 160.019993 
L 250.988509 159.882872 
L 252.592955 159.250008 
L 252.932907 159.10234 
L 252.957162 159.060149 
L 253.576836 158.91248 
L 254.473028 158.522214 
L 254.637002 158.469475 
L 254.847539 158.321807 
L 254.956582 158.205782 
L 255.366427 158.02647 
L 256.040007 157.857706 
L 256.090098 157.804968 
L 256.621344 157.667847 
L 256.861658 157.520179 
L 257.844609 157.045531 
L 258.033893 156.918958 
L 259.523698 155.92747 
L 259.730108 155.779802 
L 259.840426 155.632134 
L 260.170524 155.389536 
L 260.651274 155.13639 
L 260.761419 155.052008 
L 260.771537 155.030913 
L 261.191176 154.90434 
L 263.631754 153.628063 
L 263.884143 153.36437 
L 264.329795 153.195606 
L 264.439172 153.090129 
L 265.071007 152.910817 
L 265.393478 152.720958 
L 265.999352 152.47836 
L 266.205997 152.351787 
L 266.337951 152.288501 
L 266.691443 152.15138 
L 266.880529 151.993164 
L 267.017717 151.813852 
L 267.343762 151.68728 
L 267.808768 151.096606 
L 268.241549 150.959486 
L 268.520935 150.759079 
L 268.935078 150.621958 
L 269.185402 150.442646 
L 269.470153 150.073476 
L 270.003336 149.925807 
L 270.122348 149.830878 
L 270.334053 149.788687 
L 270.585844 149.651566 
L 270.68957 149.58828 
L 271.372684 148.944868 
L 271.485085 148.670626 
L 271.650906 148.522958 
L 271.897598 148.333099 
L 272.043403 148.206526 
L 272.217962 148.058858 
L 272.360554 147.879546 
L 272.638681 147.72133 
L 272.891164 147.584209 
L 273.026009 147.447089 
L 273.382683 147.1623 
L 273.697068 147.004084 
L 274.12095 146.687652 
L 274.576291 146.497792 
L 274.69587 146.350124 
L 274.936799 146.244647 
L 275.329596 146.096978 
L 275.457337 145.991501 
L 276.11657 145.653973 
L 276.22683 145.580139 
L 276.566848 145.495757 
L 276.897203 145.358636 
L 277.051357 145.168777 
L 277.507802 144.926179 
L 278.276565 144.346054 
L 278.509315 144.198385 
L 278.654401 143.997978 
L 278.900664 143.776476 
L 279.056672 143.597164 
L 279.323871 143.417853 
L 280.161181 142.922109 
L 280.323071 142.584581 
L 280.674178 142.458008 
L 280.978335 142.099385 
L 281.071616 142.015003 
L 281.516384 141.804049 
L 281.741097 141.582546 
L 281.84769 141.455973 
L 282.029019 141.371591 
L 282.318965 141.234471 
L 282.508867 141.09735 
L 282.620985 140.981325 
L 282.982392 140.844204 
L 284.42725 139.32533 
L 284.534893 139.198757 
L 284.926033 138.724109 
L 285.162098 138.481511 
L 285.299036 138.323295 
L 285.458832 138.049054 
L 285.695334 137.627144 
L 286.203581 137.373999 
L 286.341814 137.099757 
L 286.517716 136.89935 
L 286.585013 136.814968 
L 286.900204 136.635657 
L 286.974726 136.509084 
L 287.101886 136.150461 
L 287.32444 135.834029 
L 287.673399 135.707456 
L 287.856472 135.559788 
L 288.10073 135.148426 
L 289.326548 134.262416 
L 289.485055 133.945984 
L 289.588924 133.787767 
L 290.008819 133.418597 
L 290.197517 133.281476 
L 290.404901 133.081069 
L 290.928113 132.806828 
L 291.073462 132.638064 
L 292.501985 131.67822 
L 292.772212 131.498908 
L 292.945505 131.277406 
L 293.216621 131.150833 
L 293.368259 130.960974 
L 294.364381 130.391396 
L 294.696558 130.243727 
L 296.666174 128.809235 
L 297.350138 128.440064 
L 297.430166 128.408421 
L 297.884762 128.208014 
L 297.975004 128.113084 
L 298.136198 127.965416 
L 298.26433 127.849391 
L 298.362752 127.796652 
L 298.585277 127.659531 
L 298.819056 127.427481 
L 299.490633 126.889547 
L 299.621298 126.68914 
L 300.255554 126.330516 
L 300.607833 125.866416 
L 300.654519 125.80313 
L 301.012531 125.655461 
L 301.228441 125.370672 
L 301.40394 124.948763 
L 301.820347 124.748356 
L 303.581118 123.071265 
L 303.876526 122.501687 
L 304.068541 122.332924 
L 304.401773 121.83718 
L 304.564915 121.626225 
L 304.84398 121.468009 
L 305.049526 121.225411 
L 305.271432 121.035552 
L 305.395652 120.95117 
L 306.288282 120.413235 
L 306.4983 120.276115 
L 306.601883 120.244471 
L 306.814033 120.086255 
L 306.87286 120.001873 
L 307.19821 119.875301 
L 307.309383 119.759275 
L 307.498281 119.622155 
L 307.646538 119.400652 
L 308.061021 119.221341 
L 308.268664 119.042029 
L 308.643962 118.672858 
L 308.737351 118.630667 
L 309.214219 118.335331 
L 309.303869 118.250949 
L 309.984852 117.902873 
L 310.073236 117.839587 
L 310.631527 117.523155 
L 310.751623 117.449321 
L 311.018866 117.40713 
L 311.207125 117.227818 
L 311.335941 117.111793 
L 311.552123 116.900838 
L 311.879624 116.774265 
L 314.008049 114.401024 
L 314.31727 114.263904 
L 314.45516 114.063497 
L 315.438179 113.314607 
L 315.567537 113.20913 
L 316.099822 112.797768 
L 316.212079 112.55517 
L 316.776453 112.080522 
L 316.931544 111.837924 
L 317.337958 111.66916 
L 317.481048 111.489849 
L 317.666286 111.289441 
L 317.807411 111.120678 
L 318.002959 111.078487 
L 318.205202 110.941366 
L 318.607219 110.234668 
L 318.895441 110.086999 
L 319.580163 109.169346 
L 319.780693 109.032225 
L 319.921572 108.852914 
L 320.248166 108.578673 
L 320.562679 108.441552 
L 320.720398 108.251693 
L 320.810039 108.114572 
L 321.12971 107.79814 
L 321.22984 107.650472 
L 321.38478 107.323492 
L 321.464059 107.196919 
L 321.595506 106.785557 
L 322.154231 105.836261 
L 322.356856 105.583115 
L 322.915797 105.055728 
L 323.104591 104.802582 
L 324.2788 103.484115 
L 324.387575 103.357542 
L 324.519973 103.051658 
L 324.589453 102.925085 
L 324.707377 102.682487 
L 325.007455 102.334412 
L 325.191934 102.144552 
L 325.298857 101.901954 
L 325.485529 101.754286 
L 326.08335 101.300733 
L 326.709868 101.047588 
L 328.733406 99.845145 
L 328.737825 99.834598 
L 329.178078 99.697477 
L 329.28997 99.570904 
L 329.5454 99.328306 
L 329.960892 99.201733 
L 330.068445 99.054065 
L 330.323716 98.84311 
L 330.729301 98.684894 
L 331.056391 98.463392 
L 331.587903 98.104769 
L 331.701961 98.020387 
L 331.959576 97.81998 
L 332.307267 97.471904 
L 332.434785 97.387522 
L 332.623176 97.271497 
L 333.40264 96.701919 
L 333.50142 96.680824 
L 333.852449 96.480417 
L 334.0712 96.311653 
L 334.305242 96.153437 
L 334.988354 95.794814 
L 335.411565 95.62605 
L 335.540756 95.541668 
L 335.770092 95.362357 
L 335.770469 95.351809 
L 336.1166 95.214688 
L 336.221234 95.077568 
L 336.417643 94.908804 
L 336.595949 94.792779 
L 336.862914 94.666206 
L 337.228808 94.360321 
L 337.768503 94.18101 
L 338.35537 93.790744 
L 338.506445 93.653623 
L 338.668163 93.326643 
L 338.786097 93.136784 
L 339.166623 92.883638 
L 339.320936 92.693779 
L 339.47074 92.398442 
L 339.567486 92.261321 
L 339.703045 91.98708 
L 339.983644 91.860507 
L 340.589849 91.132713 
L 340.782566 90.995593 
L 341.04455 90.531492 
L 341.11419 90.404919 
L 341.464759 89.972462 
L 341.613645 89.782603 
L 341.788389 89.487266 
L 342.022061 89.19193 
L 342.195447 89.128643 
L 342.422777 88.980975 
L 342.573052 88.738377 
L 342.715253 88.506327 
L 343.237892 87.97894 
L 343.381912 87.725794 
L 343.483187 87.588673 
L 344.030302 87.303884 
L 344.137645 87.198407 
L 345.092835 86.597186 
L 345.24337 86.523352 
L 345.663562 86.312397 
L 345.810362 86.164729 
L 346.249769 85.87994 
L 346.497668 85.500221 
L 347.044508 85.289266 
L 347.370009 85.004477 
L 347.725108 84.951739 
L 347.927105 84.814618 
L 348.048062 84.730236 
L 348.173347 84.603663 
L 348.609806 84.4349 
L 348.7509 84.287231 
L 348.922195 84.129015 
L 349.039301 83.896965 
L 349.282467 83.812583 
L 349.473054 83.68601 
L 349.582071 83.569985 
L 349.837967 83.380126 
L 350.240411 83.22191 
L 350.621365 82.70507 
L 350.695219 82.641784 
L 351.080261 82.494116 
L 351.242842 82.314804 
L 351.756492 81.91399 
L 352.062201 81.734679 
L 352.199598 81.660844 
L 352.351383 81.58701 
L 352.762306 81.44989 
L 352.981113 81.291674 
L 353.049793 81.26003 
L 353.387214 81.091266 
L 353.510825 81.02798 
L 353.760846 80.711548 
L 354.16827 80.56388 
L 354.524552 80.152518 
L 354.929707 79.973206 
L 355.411133 79.466915 
L 355.528448 79.25596 
L 355.650499 79.097744 
L 356.323642 78.211734 
L 356.414137 78.085161 
L 356.535938 77.863659 
L 356.942026 77.410106 
L 357.173054 77.283533 
L 357.607562 76.650669 
L 357.780226 76.555739 
L 358.196202 76.355332 
L 358.327391 76.17602 
L 358.45328 75.933422 
L 358.75193 75.775206 
L 358.872459 75.553704 
L 359.677577 74.783719 
L 359.77527 74.646598 
L 359.894984 74.488382 
L 360.174384 74.330166 
L 360.287801 74.193046 
L 360.425573 73.992639 
L 360.859428 73.634015 
L 361.331364 73.507443 
L 361.448264 73.444156 
L 361.868943 73.275392 
L 362.007459 73.127724 
L 362.225138 72.990603 
L 362.670285 72.811292 
L 362.796322 72.716362 
L 363.005944 72.547598 
L 363.127464 72.421026 
L 363.67248 72.273357 
L 364.100744 72.115141 
L 364.292357 71.988568 
L 364.533295 71.767066 
L 364.718645 71.598302 
L 365.016004 71.471729 
L 365.147039 71.313513 
L 365.3465 71.165845 
L 365.476744 71.039272 
L 365.886129 70.923247 
L 366.024803 70.828317 
L 366.218155 70.691196 
L 366.265212 70.585719 
L 366.586181 70.459146 
L 367.055925 69.879021 
L 367.467648 69.699709 
L 367.703185 69.530945 
L 367.807373 69.383277 
L 367.938104 69.330538 
L 368.625287 68.718769 
L 368.89826 68.592197 
L 369.027548 68.465624 
L 370.019393 67.790568 
L 370.162375 67.653448 
L 370.585964 67.484684 
L 370.728296 67.326468 
L 370.895908 67.189347 
L 371.037862 67.073322 
L 371.36207 66.841272 
L 371.497583 66.66196 
L 371.778652 66.356076 
L 372.16252 66.134573 
L 372.273397 65.955262 
L 372.406139 65.786498 
L 372.495581 65.659925 
L 372.749454 65.512257 
L 372.84226 65.375136 
L 373.021017 65.164182 
L 373.469614 64.742272 
L 373.624425 64.594604 
L 373.722577 64.404744 
L 374.033846 63.993383 
L 374.125182 63.856262 
L 374.389263 63.708594 
L 374.522933 63.4449 
L 374.648351 63.30778 
L 374.85256 63.033538 
L 375.243454 62.854227 
L 375.397237 62.664368 
L 376.520359 61.841644 
L 377.083821 61.704523 
L 377.20336 61.609594 
L 377.614801 61.483021 
L 377.96823 61.250971 
L 378.508372 61.124398 
L 378.643341 61.040016 
L 379.184901 60.871252 
L 379.8214 60.417699 
L 381.621655 59.384021 
L 381.887651 58.941016 
L 382.211049 58.824991 
L 382.322827 58.708966 
L 382.49711 58.529654 
L 383.157106 58.160483 
L 383.423015 58.044458 
L 383.875756 57.717478 
L 384.007382 57.601453 
L 384.117355 57.464333 
L 384.550126 57.24283 
L 384.67211 57.116257 
L 384.897942 56.958041 
L 385.774846 56.335724 
L 385.799217 56.314629 
L 386.232446 56.166961 
L 386.438073 55.987649 
L 389.470386 54.35275 
L 389.704538 54.089056 
L 390.125347 53.973031 
L 390.253995 53.888649 
L 390.371244 53.667147 
L 390.491638 53.508931 
L 390.791964 53.382358 
L 390.923183 53.034282 
L 391.074391 52.876066 
L 391.152747 52.728398 
L 391.258652 52.591277 
L 391.816805 52.317036 
L 391.937695 52.179916 
L 392.355977 52.011152 
L 392.534053 51.726363 
L 393.840093 50.091463 
L 394.044982 49.891056 
L 394.163265 49.669554 
L 394.838282 49.342574 
L 394.932169 49.258192 
L 395.722991 48.783544 
L 395.963992 48.435468 
L 396.289584 48.308896 
L 396.401696 48.171775 
L 396.583672 48.024107 
L 396.833121 47.802604 
L 397.058756 47.676031 
L 397.164451 47.602197 
L 397.354619 47.486172 
L 397.972123 47.095906 
L 398.260168 46.916594 
L 398.433512 46.74783 
L 398.838194 46.494685 
L 398.94958 46.399755 
L 399.247762 46.252087 
L 399.505059 46.125514 
L 399.690108 45.914559 
L 399.905163 45.714152 
L 400.256564 45.577031 
L 401.150017 45.07074 
L 403.160598 44.32185 
L 403.426424 44.18473 
L 403.731026 43.963227 
L 404.948864 43.699534 
L 404.948864 43.699534 
" clip-path="url(#pb59a3a3560)" style="fill: none; stroke: #1f77b4; stroke-width: 1.5; stroke-linecap: square"/>
   </g>
   <g id="line2d_34">
    <path d="M 79.926136 225.690212 
L 404.948864 43.699534 
" clip-path="url(#pb59a3a3560)" style="fill: none; stroke-dasharray: 5.55,2.4; stroke-dashoffset: 0; stroke: #ff7f0e; stroke-opacity: 0.8; stroke-width: 1.5"/>
   </g>
   <g id="patch_3">
    <path d="M 63.675 234.789746 
L 63.675 34.6 
" style="fill: none; stroke: #000000; stroke-width: 0.8; stroke-linejoin: miter; stroke-linecap: square"/>
   </g>
   <g id="patch_4">
    <path d="M 421.2 234.789746 
L 421.2 34.6 
" style="fill: none; stroke: #000000; stroke-width: 0.8; stroke-linejoin: miter; stroke-linecap: square"/>
   </g>
   <g id="patch_5">
    <path d="M 63.675 234.789746 
L 421.2 234.789746 
" style="fill: none; stroke: #000000; stroke-width: 0.8; stroke-linejoin: miter; stroke-linecap: square"/>
   </g>
   <g id="patch_6">
    <path d="M 63.675 34.6 
L 421.2 34.6 
" style="fill: none; stroke: #000000; stroke-width: 0.8; stroke-linejoin: miter; stroke-linecap: square"/>
   </g>
  </g>
  <g id="text_19">
   <!-- total number of closed or merged PRs -->
   <g transform="translate(102.117188 14.878125)scale(0.12 -0.12)">
    <defs>
     <path id="DejaVuSans-6c" d="M 603 4863 
L 1178 4863 
L 1178 0 
L 603 0 
L 603 4863 
z
" transform="scale(0.015625)"/>
     <path id="DejaVuSans-20" transform="scale(0.015625)"/>
     <path id="DejaVuSans-6d" d="M 3328 2828 
Q 3544 3216 3844 3400 
Q 4144 3584 4550 3584 
Q 5097 3584 5394 3201 
Q 5691 2819 5691 2113 
L 5691 0 
L 5113 0 
L 5113 2094 
Q 5113 2597 4934 2840 
Q 4756 3084 4391 3084 
Q 3944 3084 3684 2787 
Q 3425 2491 3425 1978 
L 3425 0 
L 2847 0 
L 2847 2094 
Q 2847 2600 2669 2842 
Q 2491 3084 2119 3084 
Q 1678 3084 1418 2786 
Q 1159 2488 1159 1978 
L 1159 0 
L 581 0 
L 581 3500 
L 1159 3500 
L 1159 2956 
Q 1356 3278 1631 3431 
Q 1906 3584 2284 3584 
Q 2666 3584 2933 3390 
Q 3200 3197 3328 2828 
z
" transform="scale(0.015625)"/>
     <path id="DejaVuSans-62" d="M 3116 1747 
Q 3116 2381 2855 2742 
Q 2594 3103 2138 3103 
Q 1681 3103 1420 2742 
Q 1159 2381 1159 1747 
Q 1159 1113 1420 752 
Q 1681 391 2138 391 
Q 2594 391 2855 752 
Q 3116 1113 3116 1747 
z
M 1159 2969 
Q 1341 3281 1617 3432 
Q 1894 3584 2278 3584 
Q 2916 3584 3314 3078 
Q 3713 2572 3713 1747 
Q 3713 922 3314 415 
Q 2916 -91 2278 -91 
Q 1894 -91 1617 61 
Q 1341 213 1159 525 
L 1159 0 
L 581 0 
L 581 4863 
L 1159 4863 
L 1159 2969 
z
" transform="scale(0.015625)"/>
     <path id="DejaVuSans-72" d="M 2631 2963 
Q 2534 3019 2420 3045 
Q 2306 3072 2169 3072 
Q 1681 3072 1420 2755 
Q 1159 2438 1159 1844 
L 1159 0 
L 581 0 
L 581 3500 
L 1159 3500 
L 1159 2956 
Q 1341 3275 1631 3429 
Q 1922 3584 2338 3584 
Q 2397 3584 2469 3576 
Q 2541 3569 2628 3553 
L 2631 2963 
z
" transform="scale(0.015625)"/>
     <path id="DejaVuSans-66" d="M 2375 4863 
L 2375 4384 
L 1825 4384 
Q 1516 4384 1395 4259 
Q 1275 4134 1275 3809 
L 1275 3500 
L 2222 3500 
L 2222 3053 
L 1275 3053 
L 1275 0 
L 697 0 
L 697 3053 
L 147 3053 
L 147 3500 
L 697 3500 
L 697 3744 
Q 697 4328 969 4595 
Q 1241 4863 1831 4863 
L 2375 4863 
z
" transform="scale(0.015625)"/>
     <path id="DejaVuSans-73" d="M 2834 3397 
L 2834 2853 
Q 2591 2978 2328 3040 
Q 2066 3103 1784 3103 
Q 1356 3103 1142 2972 
Q 928 2841 928 2578 
Q 928 2378 1081 2264 
Q 1234 2150 1697 2047 
L 1894 2003 
Q 2506 1872 2764 1633 
Q 3022 1394 3022 966 
Q 3022 478 2636 193 
Q 2250 -91 1575 -91 
Q 1294 -91 989 -36 
Q 684 19 347 128 
L 347 722 
Q 666 556 975 473 
Q 1284 391 1588 391 
Q 1994 391 2212 530 
Q 2431 669 2431 922 
Q 2431 1156 2273 1281 
Q 2116 1406 1581 1522 
L 1381 1569 
Q 847 1681 609 1914 
Q 372 2147 372 2553 
Q 372 3047 722 3315 
Q 1072 3584 1716 3584 
Q 2034 3584 2315 3537 
Q 2597 3491 2834 3397 
z
" transform="scale(0.015625)"/>
     <path id="DejaVuSans-67" d="M 2906 1791 
Q 2906 2416 2648 2759 
Q 2391 3103 1925 3103 
Q 1463 3103 1205 2759 
Q 947 2416 947 1791 
Q 947 1169 1205 825 
Q 1463 481 1925 481 
Q 2391 481 2648 825 
Q 2906 1169 2906 1791 
z
M 3481 434 
Q 3481 -459 3084 -895 
Q 2688 -1331 1869 -1331 
Q 1566 -1331 1297 -1286 
Q 1028 -1241 775 -1147 
L 775 -588 
Q 1028 -725 1275 -790 
Q 1522 -856 1778 -856 
Q 2344 -856 2625 -561 
Q 2906 -266 2906 331 
L 2906 616 
Q 2728 306 2450 153 
Q 2172 0 1784 0 
Q 1141 0 747 490 
Q 353 981 353 1791 
Q 353 2603 747 3093 
Q 1141 3584 1784 3584 
Q 2172 3584 2450 3431 
Q 2728 3278 2906 2969 
L 2906 3500 
L 3481 3500 
L 3481 434 
z
" transform="scale(0.015625)"/>
     <path id="DejaVuSans-50" d="M 1259 4147 
L 1259 2394 
L 2053 2394 
Q 2494 2394 2734 2622 
Q 2975 2850 2975 3272 
Q 2975 3691 2734 3919 
Q 2494 4147 2053 4147 
L 1259 4147 
z
M 628 4666 
L 2053 4666 
Q 2838 4666 3239 4311 
Q 3641 3956 3641 3272 
Q 3641 2581 3239 2228 
Q 2838 1875 2053 1875 
L 1259 1875 
L 1259 0 
L 628 0 
L 628 4666 
z
" transform="scale(0.015625)"/>
     <path id="DejaVuSans-52" d="M 2841 2188 
Q 3044 2119 3236 1894 
Q 3428 1669 3622 1275 
L 4263 0 
L 3584 0 
L 2988 1197 
Q 2756 1666 2539 1819 
Q 2322 1972 1947 1972 
L 1259 1972 
L 1259 0 
L 628 0 
L 628 4666 
L 2053 4666 
Q 2853 4666 3247 4331 
Q 3641 3997 3641 3322 
Q 3641 2881 3436 2590 
Q 3231 2300 2841 2188 
z
M 1259 4147 
L 1259 2491 
L 2053 2491 
Q 2509 2491 2742 2702 
Q 2975 2913 2975 3322 
Q 2975 3731 2742 3939 
Q 2509 4147 2053 4147 
L 1259 4147 
z
" transform="scale(0.015625)"/>
    </defs>
    <use xlink:href="#DejaVuSans-74"/>
    <use xlink:href="#DejaVuSans-6f" x="39.208984"/>
    <use xlink:href="#DejaVuSans-74" x="100.390625"/>
    <use xlink:href="#DejaVuSans-61" x="139.599609"/>
    <use xlink:href="#DejaVuSans-6c" x="200.878906"/>
    <use xlink:href="#DejaVuSans-20" x="228.662109"/>
    <use xlink:href="#DejaVuSans-6e" x="260.449219"/>
    <use xlink:href="#DejaVuSans-75" x="323.828125"/>
    <use xlink:href="#DejaVuSans-6d" x="387.207031"/>
    <use xlink:href="#DejaVuSans-62" x="484.619141"/>
    <use xlink:href="#DejaVuSans-65" x="548.095703"/>
    <use xlink:href="#DejaVuSans-72" x="609.619141"/>
    <use xlink:href="#DejaVuSans-20" x="650.732422"/>
    <use xlink:href="#DejaVuSans-6f" x="682.519531"/>
    <use xlink:href="#DejaVuSans-66" x="743.701172"/>
    <use xlink:href="#DejaVuSans-20" x="778.90625"/>
    <use xlink:href="#DejaVuSans-63" x="810.693359"/>
    <use xlink:href="#DejaVuSans-6c" x="865.673828"/>
    <use xlink:href="#DejaVuSans-6f" x="893.457031"/>
    <use xlink:href="#DejaVuSans-73" x="954.638672"/>
    <use xlink:href="#DejaVuSans-65" x="1006.738281"/>
    <use xlink:href="#DejaVuSans-64" x="1068.261719"/>
    <use xlink:href="#DejaVuSans-20" x="1131.738281"/>
    <use xlink:href="#DejaVuSans-6f" x="1163.525391"/>
    <use xlink:href="#DejaVuSans-72" x="1224.707031"/>
    <use xlink:href="#DejaVuSans-20" x="1265.820312"/>
    <use xlink:href="#DejaVuSans-6d" x="1297.607422"/>
    <use xlink:href="#DejaVuSans-65" x="1395.019531"/>
    <use xlink:href="#DejaVuSans-72" x="1456.542969"/>
    <use xlink:href="#DejaVuSans-67" x="1495.90625"/>
    <use xlink:href="#DejaVuSans-65" x="1559.382812"/>
    <use xlink:href="#DejaVuSans-64" x="1620.90625"/>
    <use xlink:href="#DejaVuSans-20" x="1684.382812"/>
    <use xlink:href="#DejaVuSans-50" x="1716.169922"/>
    <use xlink:href="#DejaVuSans-52" x="1776.472656"/>
    <use xlink:href="#DejaVuSans-73" x="1845.955078"/>
   </g>
  </g>
 </g>
 <defs>
  <clipPath id="pb59a3a3560">
   <rect x="63.675" y="34.6" width="357.525" height="200.189746"/>
  </clipPath>
 </defs>
</svg>
