<?xml version="1.0" encoding="utf-8" standalone="no"?>
<!DOCTYPE svg PUBLIC "-//W3C//DTD SVG 1.1//EN"
  "http://www.w3.org/Graphics/SVG/1.1/DTD/svg11.dtd">
<svg xmlns:xlink="http://www.w3.org/1999/xlink" width="720pt" height="432pt" viewBox="0 0 720 432" xmlns="http://www.w3.org/2000/svg" version="1.1">
 <metadata>
  <rdf:RDF xmlns:dc="http://purl.org/dc/elements/1.1/" xmlns:cc="http://creativecommons.org/ns#" xmlns:rdf="http://www.w3.org/1999/02/22-rdf-syntax-ns#">
   <cc:Work>
    <dc:type rdf:resource="http://purl.org/dc/dcmitype/StillImage"/>
    <dc:date>2022-06-02T17:41:03.973599</dc:date>
    <dc:format>image/svg+xml</dc:format>
    <dc:creator>
     <cc:Agent>
      <dc:title>Matplotlib v3.5.0, https://matplotlib.org/</dc:title>
     </cc:Agent>
    </dc:creator>
   </cc:Work>
  </rdf:RDF>
 </metadata>
 <defs>
  <style type="text/css">*{stroke-linejoin: round; stroke-linecap: butt}</style>
 </defs>
 <g id="figure_1">
  <g id="patch_1">
   <path d="M 0 432 
L 720 432 
L 720 0 
L 0 0 
z
" style="fill: #ffffff"/>
  </g>
  <g id="axes_1">
   <g id="patch_2">
    <path d="M 50.925 378.789746 
L 709.2 378.789746 
L 709.2 34.6 
L 50.925 34.6 
z
" style="fill: #ffffff"/>
   </g>
   <g id="matplotlib.axis_1">
    <g id="xtick_1">
     <g id="line2d_1">
      <path d="M 122.820257 378.789746 
L 122.820257 34.6 
" clip-path="url(#p20bdee2ffc)" style="fill: none; stroke: #b0b0b0; stroke-width: 0.8; stroke-linecap: square"/>
     </g>
     <g id="line2d_2">
      <defs>
       <path id="me78d4a6fb4" d="M 0 0 
L 0 3.5 
" style="stroke: #000000; stroke-width: 0.8"/>
      </defs>
      <g>
       <use xlink:href="#me78d4a6fb4" x="122.820257" y="378.789746" style="stroke: #000000; stroke-width: 0.8"/>
      </g>
     </g>
     <g id="text_1">
      <!-- 2015 -->
      <g transform="translate(99.740067 405.095186)rotate(-30)scale(0.1 -0.1)">
       <defs>
        <path id="DejaVuSans-32" d="M 1228 531 
L 3431 531 
L 3431 0 
L 469 0 
L 469 531 
Q 828 903 1448 1529 
Q 2069 2156 2228 2338 
Q 2531 2678 2651 2914 
Q 2772 3150 2772 3378 
Q 2772 3750 2511 3984 
Q 2250 4219 1831 4219 
Q 1534 4219 1204 4116 
Q 875 4013 500 3803 
L 500 4441 
Q 881 4594 1212 4672 
Q 1544 4750 1819 4750 
Q 2544 4750 2975 4387 
Q 3406 4025 3406 3419 
Q 3406 3131 3298 2873 
Q 3191 2616 2906 2266 
Q 2828 2175 2409 1742 
Q 1991 1309 1228 531 
z
" transform="scale(0.015625)"/>
        <path id="DejaVuSans-30" d="M 2034 4250 
Q 1547 4250 1301 3770 
Q 1056 3291 1056 2328 
Q 1056 1369 1301 889 
Q 1547 409 2034 409 
Q 2525 409 2770 889 
Q 3016 1369 3016 2328 
Q 3016 3291 2770 3770 
Q 2525 4250 2034 4250 
z
M 2034 4750 
Q 2819 4750 3233 4129 
Q 3647 3509 3647 2328 
Q 3647 1150 3233 529 
Q 2819 -91 2034 -91 
Q 1250 -91 836 529 
Q 422 1150 422 2328 
Q 422 3509 836 4129 
Q 1250 4750 2034 4750 
z
" transform="scale(0.015625)"/>
        <path id="DejaVuSans-31" d="M 794 531 
L 1825 531 
L 1825 4091 
L 703 3866 
L 703 4441 
L 1819 4666 
L 2450 4666 
L 2450 531 
L 3481 531 
L 3481 0 
L 794 0 
L 794 531 
z
" transform="scale(0.015625)"/>
        <path id="DejaVuSans-35" d="M 691 4666 
L 3169 4666 
L 3169 4134 
L 1269 4134 
L 1269 2991 
Q 1406 3038 1543 3061 
Q 1681 3084 1819 3084 
Q 2600 3084 3056 2656 
Q 3513 2228 3513 1497 
Q 3513 744 3044 326 
Q 2575 -91 1722 -91 
Q 1428 -91 1123 -41 
Q 819 9 494 109 
L 494 744 
Q 775 591 1075 516 
Q 1375 441 1709 441 
Q 2250 441 2565 725 
Q 2881 1009 2881 1497 
Q 2881 1984 2565 2268 
Q 2250 2553 1709 2553 
Q 1456 2553 1204 2497 
Q 953 2441 691 2322 
L 691 4666 
z
" transform="scale(0.015625)"/>
       </defs>
       <use xlink:href="#DejaVuSans-32"/>
       <use xlink:href="#DejaVuSans-30" x="63.623047"/>
       <use xlink:href="#DejaVuSans-31" x="127.246094"/>
       <use xlink:href="#DejaVuSans-35" x="190.869141"/>
      </g>
     </g>
    </g>
    <g id="xtick_2">
     <g id="line2d_3">
      <path d="M 197.810719 378.789746 
L 197.810719 34.6 
" clip-path="url(#p20bdee2ffc)" style="fill: none; stroke: #b0b0b0; stroke-width: 0.8; stroke-linecap: square"/>
     </g>
     <g id="line2d_4">
      <g>
       <use xlink:href="#me78d4a6fb4" x="197.810719" y="378.789746" style="stroke: #000000; stroke-width: 0.8"/>
      </g>
     </g>
     <g id="text_2">
      <!-- 2016 -->
      <g transform="translate(174.730529 405.095186)rotate(-30)scale(0.1 -0.1)">
       <defs>
        <path id="DejaVuSans-36" d="M 2113 2584 
Q 1688 2584 1439 2293 
Q 1191 2003 1191 1497 
Q 1191 994 1439 701 
Q 1688 409 2113 409 
Q 2538 409 2786 701 
Q 3034 994 3034 1497 
Q 3034 2003 2786 2293 
Q 2538 2584 2113 2584 
z
M 3366 4563 
L 3366 3988 
Q 3128 4100 2886 4159 
Q 2644 4219 2406 4219 
Q 1781 4219 1451 3797 
Q 1122 3375 1075 2522 
Q 1259 2794 1537 2939 
Q 1816 3084 2150 3084 
Q 2853 3084 3261 2657 
Q 3669 2231 3669 1497 
Q 3669 778 3244 343 
Q 2819 -91 2113 -91 
Q 1303 -91 875 529 
Q 447 1150 447 2328 
Q 447 3434 972 4092 
Q 1497 4750 2381 4750 
Q 2619 4750 2861 4703 
Q 3103 4656 3366 4563 
z
" transform="scale(0.015625)"/>
       </defs>
       <use xlink:href="#DejaVuSans-32"/>
       <use xlink:href="#DejaVuSans-30" x="63.623047"/>
       <use xlink:href="#DejaVuSans-31" x="127.246094"/>
       <use xlink:href="#DejaVuSans-36" x="190.869141"/>
      </g>
     </g>
    </g>
    <g id="xtick_3">
     <g id="line2d_5">
      <path d="M 273.006634 378.789746 
L 273.006634 34.6 
" clip-path="url(#p20bdee2ffc)" style="fill: none; stroke: #b0b0b0; stroke-width: 0.8; stroke-linecap: square"/>
     </g>
     <g id="line2d_6">
      <g>
       <use xlink:href="#me78d4a6fb4" x="273.006634" y="378.789746" style="stroke: #000000; stroke-width: 0.8"/>
      </g>
     </g>
     <g id="text_3">
      <!-- 2017 -->
      <g transform="translate(249.926444 405.095186)rotate(-30)scale(0.1 -0.1)">
       <defs>
        <path id="DejaVuSans-37" d="M 525 4666 
L 3525 4666 
L 3525 4397 
L 1831 0 
L 1172 0 
L 2766 4134 
L 525 4134 
L 525 4666 
z
" transform="scale(0.015625)"/>
       </defs>
       <use xlink:href="#DejaVuSans-32"/>
       <use xlink:href="#DejaVuSans-30" x="63.623047"/>
       <use xlink:href="#DejaVuSans-31" x="127.246094"/>
       <use xlink:href="#DejaVuSans-37" x="190.869141"/>
      </g>
     </g>
    </g>
    <g id="xtick_4">
     <g id="line2d_7">
      <path d="M 347.997096 378.789746 
L 347.997096 34.6 
" clip-path="url(#p20bdee2ffc)" style="fill: none; stroke: #b0b0b0; stroke-width: 0.8; stroke-linecap: square"/>
     </g>
     <g id="line2d_8">
      <g>
       <use xlink:href="#me78d4a6fb4" x="347.997096" y="378.789746" style="stroke: #000000; stroke-width: 0.8"/>
      </g>
     </g>
     <g id="text_4">
      <!-- 2018 -->
      <g transform="translate(324.916906 405.095186)rotate(-30)scale(0.1 -0.1)">
       <defs>
        <path id="DejaVuSans-38" d="M 2034 2216 
Q 1584 2216 1326 1975 
Q 1069 1734 1069 1313 
Q 1069 891 1326 650 
Q 1584 409 2034 409 
Q 2484 409 2743 651 
Q 3003 894 3003 1313 
Q 3003 1734 2745 1975 
Q 2488 2216 2034 2216 
z
M 1403 2484 
Q 997 2584 770 2862 
Q 544 3141 544 3541 
Q 544 4100 942 4425 
Q 1341 4750 2034 4750 
Q 2731 4750 3128 4425 
Q 3525 4100 3525 3541 
Q 3525 3141 3298 2862 
Q 3072 2584 2669 2484 
Q 3125 2378 3379 2068 
Q 3634 1759 3634 1313 
Q 3634 634 3220 271 
Q 2806 -91 2034 -91 
Q 1263 -91 848 271 
Q 434 634 434 1313 
Q 434 1759 690 2068 
Q 947 2378 1403 2484 
z
M 1172 3481 
Q 1172 3119 1398 2916 
Q 1625 2713 2034 2713 
Q 2441 2713 2670 2916 
Q 2900 3119 2900 3481 
Q 2900 3844 2670 4047 
Q 2441 4250 2034 4250 
Q 1625 4250 1398 4047 
Q 1172 3844 1172 3481 
z
" transform="scale(0.015625)"/>
       </defs>
       <use xlink:href="#DejaVuSans-32"/>
       <use xlink:href="#DejaVuSans-30" x="63.623047"/>
       <use xlink:href="#DejaVuSans-31" x="127.246094"/>
       <use xlink:href="#DejaVuSans-38" x="190.869141"/>
      </g>
     </g>
    </g>
    <g id="xtick_5">
     <g id="line2d_9">
      <path d="M 422.987558 378.789746 
L 422.987558 34.6 
" clip-path="url(#p20bdee2ffc)" style="fill: none; stroke: #b0b0b0; stroke-width: 0.8; stroke-linecap: square"/>
     </g>
     <g id="line2d_10">
      <g>
       <use xlink:href="#me78d4a6fb4" x="422.987558" y="378.789746" style="stroke: #000000; stroke-width: 0.8"/>
      </g>
     </g>
     <g id="text_5">
      <!-- 2019 -->
      <g transform="translate(399.907368 405.095186)rotate(-30)scale(0.1 -0.1)">
       <defs>
        <path id="DejaVuSans-39" d="M 703 97 
L 703 672 
Q 941 559 1184 500 
Q 1428 441 1663 441 
Q 2288 441 2617 861 
Q 2947 1281 2994 2138 
Q 2813 1869 2534 1725 
Q 2256 1581 1919 1581 
Q 1219 1581 811 2004 
Q 403 2428 403 3163 
Q 403 3881 828 4315 
Q 1253 4750 1959 4750 
Q 2769 4750 3195 4129 
Q 3622 3509 3622 2328 
Q 3622 1225 3098 567 
Q 2575 -91 1691 -91 
Q 1453 -91 1209 -44 
Q 966 3 703 97 
z
M 1959 2075 
Q 2384 2075 2632 2365 
Q 2881 2656 2881 3163 
Q 2881 3666 2632 3958 
Q 2384 4250 1959 4250 
Q 1534 4250 1286 3958 
Q 1038 3666 1038 3163 
Q 1038 2656 1286 2365 
Q 1534 2075 1959 2075 
z
" transform="scale(0.015625)"/>
       </defs>
       <use xlink:href="#DejaVuSans-32"/>
       <use xlink:href="#DejaVuSans-30" x="63.623047"/>
       <use xlink:href="#DejaVuSans-31" x="127.246094"/>
       <use xlink:href="#DejaVuSans-39" x="190.869141"/>
      </g>
     </g>
    </g>
    <g id="xtick_6">
     <g id="line2d_11">
      <path d="M 497.97802 378.789746 
L 497.97802 34.6 
" clip-path="url(#p20bdee2ffc)" style="fill: none; stroke: #b0b0b0; stroke-width: 0.8; stroke-linecap: square"/>
     </g>
     <g id="line2d_12">
      <g>
       <use xlink:href="#me78d4a6fb4" x="497.97802" y="378.789746" style="stroke: #000000; stroke-width: 0.8"/>
      </g>
     </g>
     <g id="text_6">
      <!-- 2020 -->
      <g transform="translate(474.897829 405.095186)rotate(-30)scale(0.1 -0.1)">
       <use xlink:href="#DejaVuSans-32"/>
       <use xlink:href="#DejaVuSans-30" x="63.623047"/>
       <use xlink:href="#DejaVuSans-32" x="127.246094"/>
       <use xlink:href="#DejaVuSans-30" x="190.869141"/>
      </g>
     </g>
    </g>
    <g id="xtick_7">
     <g id="line2d_13">
      <path d="M 573.173935 378.789746 
L 573.173935 34.6 
" clip-path="url(#p20bdee2ffc)" style="fill: none; stroke: #b0b0b0; stroke-width: 0.8; stroke-linecap: square"/>
     </g>
     <g id="line2d_14">
      <g>
       <use xlink:href="#me78d4a6fb4" x="573.173935" y="378.789746" style="stroke: #000000; stroke-width: 0.8"/>
      </g>
     </g>
     <g id="text_7">
      <!-- 2021 -->
      <g transform="translate(550.093744 405.095186)rotate(-30)scale(0.1 -0.1)">
       <use xlink:href="#DejaVuSans-32"/>
       <use xlink:href="#DejaVuSans-30" x="63.623047"/>
       <use xlink:href="#DejaVuSans-32" x="127.246094"/>
       <use xlink:href="#DejaVuSans-31" x="190.869141"/>
      </g>
     </g>
    </g>
    <g id="xtick_8">
     <g id="line2d_15">
      <path d="M 648.164397 378.789746 
L 648.164397 34.6 
" clip-path="url(#p20bdee2ffc)" style="fill: none; stroke: #b0b0b0; stroke-width: 0.8; stroke-linecap: square"/>
     </g>
     <g id="line2d_16">
      <g>
       <use xlink:href="#me78d4a6fb4" x="648.164397" y="378.789746" style="stroke: #000000; stroke-width: 0.8"/>
      </g>
     </g>
     <g id="text_8">
      <!-- 2022 -->
      <g transform="translate(625.084206 405.095186)rotate(-30)scale(0.1 -0.1)">
       <use xlink:href="#DejaVuSans-32"/>
       <use xlink:href="#DejaVuSans-30" x="63.623047"/>
       <use xlink:href="#DejaVuSans-32" x="127.246094"/>
       <use xlink:href="#DejaVuSans-32" x="190.869141"/>
      </g>
     </g>
    </g>
    <g id="text_9">
     <!-- created time -->
     <g transform="translate(348.133594 418.494686)scale(0.1 -0.1)">
      <defs>
       <path id="DejaVuSans-63" d="M 3122 3366 
L 3122 2828 
Q 2878 2963 2633 3030 
Q 2388 3097 2138 3097 
Q 1578 3097 1268 2742 
Q 959 2388 959 1747 
Q 959 1106 1268 751 
Q 1578 397 2138 397 
Q 2388 397 2633 464 
Q 2878 531 3122 666 
L 3122 134 
Q 2881 22 2623 -34 
Q 2366 -91 2075 -91 
Q 1284 -91 818 406 
Q 353 903 353 1747 
Q 353 2603 823 3093 
Q 1294 3584 2113 3584 
Q 2378 3584 2631 3529 
Q 2884 3475 3122 3366 
z
" transform="scale(0.015625)"/>
       <path id="DejaVuSans-72" d="M 2631 2963 
Q 2534 3019 2420 3045 
Q 2306 3072 2169 3072 
Q 1681 3072 1420 2755 
Q 1159 2438 1159 1844 
L 1159 0 
L 581 0 
L 581 3500 
L 1159 3500 
L 1159 2956 
Q 1341 3275 1631 3429 
Q 1922 3584 2338 3584 
Q 2397 3584 2469 3576 
Q 2541 3569 2628 3553 
L 2631 2963 
z
" transform="scale(0.015625)"/>
       <path id="DejaVuSans-65" d="M 3597 1894 
L 3597 1613 
L 953 1613 
Q 991 1019 1311 708 
Q 1631 397 2203 397 
Q 2534 397 2845 478 
Q 3156 559 3463 722 
L 3463 178 
Q 3153 47 2828 -22 
Q 2503 -91 2169 -91 
Q 1331 -91 842 396 
Q 353 884 353 1716 
Q 353 2575 817 3079 
Q 1281 3584 2069 3584 
Q 2775 3584 3186 3129 
Q 3597 2675 3597 1894 
z
M 3022 2063 
Q 3016 2534 2758 2815 
Q 2500 3097 2075 3097 
Q 1594 3097 1305 2825 
Q 1016 2553 972 2059 
L 3022 2063 
z
" transform="scale(0.015625)"/>
       <path id="DejaVuSans-61" d="M 2194 1759 
Q 1497 1759 1228 1600 
Q 959 1441 959 1056 
Q 959 750 1161 570 
Q 1363 391 1709 391 
Q 2188 391 2477 730 
Q 2766 1069 2766 1631 
L 2766 1759 
L 2194 1759 
z
M 3341 1997 
L 3341 0 
L 2766 0 
L 2766 531 
Q 2569 213 2275 61 
Q 1981 -91 1556 -91 
Q 1019 -91 701 211 
Q 384 513 384 1019 
Q 384 1609 779 1909 
Q 1175 2209 1959 2209 
L 2766 2209 
L 2766 2266 
Q 2766 2663 2505 2880 
Q 2244 3097 1772 3097 
Q 1472 3097 1187 3025 
Q 903 2953 641 2809 
L 641 3341 
Q 956 3463 1253 3523 
Q 1550 3584 1831 3584 
Q 2591 3584 2966 3190 
Q 3341 2797 3341 1997 
z
" transform="scale(0.015625)"/>
       <path id="DejaVuSans-74" d="M 1172 4494 
L 1172 3500 
L 2356 3500 
L 2356 3053 
L 1172 3053 
L 1172 1153 
Q 1172 725 1289 603 
Q 1406 481 1766 481 
L 2356 481 
L 2356 0 
L 1766 0 
Q 1100 0 847 248 
Q 594 497 594 1153 
L 594 3053 
L 172 3053 
L 172 3500 
L 594 3500 
L 594 4494 
L 1172 4494 
z
" transform="scale(0.015625)"/>
       <path id="DejaVuSans-64" d="M 2906 2969 
L 2906 4863 
L 3481 4863 
L 3481 0 
L 2906 0 
L 2906 525 
Q 2725 213 2448 61 
Q 2172 -91 1784 -91 
Q 1150 -91 751 415 
Q 353 922 353 1747 
Q 353 2572 751 3078 
Q 1150 3584 1784 3584 
Q 2172 3584 2448 3432 
Q 2725 3281 2906 2969 
z
M 947 1747 
Q 947 1113 1208 752 
Q 1469 391 1925 391 
Q 2381 391 2643 752 
Q 2906 1113 2906 1747 
Q 2906 2381 2643 2742 
Q 2381 3103 1925 3103 
Q 1469 3103 1208 2742 
Q 947 2381 947 1747 
z
" transform="scale(0.015625)"/>
       <path id="DejaVuSans-20" transform="scale(0.015625)"/>
       <path id="DejaVuSans-69" d="M 603 3500 
L 1178 3500 
L 1178 0 
L 603 0 
L 603 3500 
z
M 603 4863 
L 1178 4863 
L 1178 4134 
L 603 4134 
L 603 4863 
z
" transform="scale(0.015625)"/>
       <path id="DejaVuSans-6d" d="M 3328 2828 
Q 3544 3216 3844 3400 
Q 4144 3584 4550 3584 
Q 5097 3584 5394 3201 
Q 5691 2819 5691 2113 
L 5691 0 
L 5113 0 
L 5113 2094 
Q 5113 2597 4934 2840 
Q 4756 3084 4391 3084 
Q 3944 3084 3684 2787 
Q 3425 2491 3425 1978 
L 3425 0 
L 2847 0 
L 2847 2094 
Q 2847 2600 2669 2842 
Q 2491 3084 2119 3084 
Q 1678 3084 1418 2786 
Q 1159 2488 1159 1978 
L 1159 0 
L 581 0 
L 581 3500 
L 1159 3500 
L 1159 2956 
Q 1356 3278 1631 3431 
Q 1906 3584 2284 3584 
Q 2666 3584 2933 3390 
Q 3200 3197 3328 2828 
z
" transform="scale(0.015625)"/>
      </defs>
      <use xlink:href="#DejaVuSans-63"/>
      <use xlink:href="#DejaVuSans-72" x="54.980469"/>
      <use xlink:href="#DejaVuSans-65" x="93.84375"/>
      <use xlink:href="#DejaVuSans-61" x="155.367188"/>
      <use xlink:href="#DejaVuSans-74" x="216.646484"/>
      <use xlink:href="#DejaVuSans-65" x="255.855469"/>
      <use xlink:href="#DejaVuSans-64" x="317.378906"/>
      <use xlink:href="#DejaVuSans-20" x="380.855469"/>
      <use xlink:href="#DejaVuSans-74" x="412.642578"/>
      <use xlink:href="#DejaVuSans-69" x="451.851562"/>
      <use xlink:href="#DejaVuSans-6d" x="479.634766"/>
      <use xlink:href="#DejaVuSans-65" x="577.046875"/>
     </g>
    </g>
   </g>
   <g id="matplotlib.axis_2">
    <g id="ytick_1">
     <g id="line2d_17">
      <path d="M 50.925 363.979157 
L 709.2 363.979157 
" clip-path="url(#p20bdee2ffc)" style="fill: none; stroke: #b0b0b0; stroke-width: 0.8; stroke-linecap: square"/>
     </g>
     <g id="line2d_18">
      <defs>
       <path id="m08bf81edf0" d="M 0 0 
L -3.5 0 
" style="stroke: #000000; stroke-width: 0.8"/>
      </defs>
      <g>
       <use xlink:href="#m08bf81edf0" x="50.925" y="363.979157" style="stroke: #000000; stroke-width: 0.8"/>
      </g>
     </g>
     <g id="text_10">
      <!-- 0 -->
      <g transform="translate(37.5625 367.778376)scale(0.1 -0.1)">
       <use xlink:href="#DejaVuSans-30"/>
      </g>
     </g>
    </g>
    <g id="ytick_2">
     <g id="line2d_19">
      <path d="M 50.925 322.259188 
L 709.2 322.259188 
" clip-path="url(#p20bdee2ffc)" style="fill: none; stroke: #b0b0b0; stroke-width: 0.8; stroke-linecap: square"/>
     </g>
     <g id="line2d_20">
      <g>
       <use xlink:href="#m08bf81edf0" x="50.925" y="322.259188" style="stroke: #000000; stroke-width: 0.8"/>
      </g>
     </g>
     <g id="text_11">
      <!-- 50 -->
      <g transform="translate(31.2 326.058406)scale(0.1 -0.1)">
       <use xlink:href="#DejaVuSans-35"/>
       <use xlink:href="#DejaVuSans-30" x="63.623047"/>
      </g>
     </g>
    </g>
    <g id="ytick_3">
     <g id="line2d_21">
      <path d="M 50.925 280.539218 
L 709.2 280.539218 
" clip-path="url(#p20bdee2ffc)" style="fill: none; stroke: #b0b0b0; stroke-width: 0.8; stroke-linecap: square"/>
     </g>
     <g id="line2d_22">
      <g>
       <use xlink:href="#m08bf81edf0" x="50.925" y="280.539218" style="stroke: #000000; stroke-width: 0.8"/>
      </g>
     </g>
     <g id="text_12">
      <!-- 100 -->
      <g transform="translate(24.8375 284.338437)scale(0.1 -0.1)">
       <use xlink:href="#DejaVuSans-31"/>
       <use xlink:href="#DejaVuSans-30" x="63.623047"/>
       <use xlink:href="#DejaVuSans-30" x="127.246094"/>
      </g>
     </g>
    </g>
    <g id="ytick_4">
     <g id="line2d_23">
      <path d="M 50.925 238.819249 
L 709.2 238.819249 
" clip-path="url(#p20bdee2ffc)" style="fill: none; stroke: #b0b0b0; stroke-width: 0.8; stroke-linecap: square"/>
     </g>
     <g id="line2d_24">
      <g>
       <use xlink:href="#m08bf81edf0" x="50.925" y="238.819249" style="stroke: #000000; stroke-width: 0.8"/>
      </g>
     </g>
     <g id="text_13">
      <!-- 150 -->
      <g transform="translate(24.8375 242.618468)scale(0.1 -0.1)">
       <use xlink:href="#DejaVuSans-31"/>
       <use xlink:href="#DejaVuSans-35" x="63.623047"/>
       <use xlink:href="#DejaVuSans-30" x="127.246094"/>
      </g>
     </g>
    </g>
    <g id="ytick_5">
     <g id="line2d_25">
      <path d="M 50.925 197.09928 
L 709.2 197.09928 
" clip-path="url(#p20bdee2ffc)" style="fill: none; stroke: #b0b0b0; stroke-width: 0.8; stroke-linecap: square"/>
     </g>
     <g id="line2d_26">
      <g>
       <use xlink:href="#m08bf81edf0" x="50.925" y="197.09928" style="stroke: #000000; stroke-width: 0.8"/>
      </g>
     </g>
     <g id="text_14">
      <!-- 200 -->
      <g transform="translate(24.8375 200.898499)scale(0.1 -0.1)">
       <use xlink:href="#DejaVuSans-32"/>
       <use xlink:href="#DejaVuSans-30" x="63.623047"/>
       <use xlink:href="#DejaVuSans-30" x="127.246094"/>
      </g>
     </g>
    </g>
    <g id="ytick_6">
     <g id="line2d_27">
      <path d="M 50.925 155.379311 
L 709.2 155.379311 
" clip-path="url(#p20bdee2ffc)" style="fill: none; stroke: #b0b0b0; stroke-width: 0.8; stroke-linecap: square"/>
     </g>
     <g id="line2d_28">
      <g>
       <use xlink:href="#m08bf81edf0" x="50.925" y="155.379311" style="stroke: #000000; stroke-width: 0.8"/>
      </g>
     </g>
     <g id="text_15">
      <!-- 250 -->
      <g transform="translate(24.8375 159.17853)scale(0.1 -0.1)">
       <use xlink:href="#DejaVuSans-32"/>
       <use xlink:href="#DejaVuSans-35" x="63.623047"/>
       <use xlink:href="#DejaVuSans-30" x="127.246094"/>
      </g>
     </g>
    </g>
    <g id="ytick_7">
     <g id="line2d_29">
      <path d="M 50.925 113.659342 
L 709.2 113.659342 
" clip-path="url(#p20bdee2ffc)" style="fill: none; stroke: #b0b0b0; stroke-width: 0.8; stroke-linecap: square"/>
     </g>
     <g id="line2d_30">
      <g>
       <use xlink:href="#m08bf81edf0" x="50.925" y="113.659342" style="stroke: #000000; stroke-width: 0.8"/>
      </g>
     </g>
     <g id="text_16">
      <!-- 300 -->
      <g transform="translate(24.8375 117.45856)scale(0.1 -0.1)">
       <defs>
        <path id="DejaVuSans-33" d="M 2597 2516 
Q 3050 2419 3304 2112 
Q 3559 1806 3559 1356 
Q 3559 666 3084 287 
Q 2609 -91 1734 -91 
Q 1441 -91 1130 -33 
Q 819 25 488 141 
L 488 750 
Q 750 597 1062 519 
Q 1375 441 1716 441 
Q 2309 441 2620 675 
Q 2931 909 2931 1356 
Q 2931 1769 2642 2001 
Q 2353 2234 1838 2234 
L 1294 2234 
L 1294 2753 
L 1863 2753 
Q 2328 2753 2575 2939 
Q 2822 3125 2822 3475 
Q 2822 3834 2567 4026 
Q 2313 4219 1838 4219 
Q 1578 4219 1281 4162 
Q 984 4106 628 3988 
L 628 4550 
Q 988 4650 1302 4700 
Q 1616 4750 1894 4750 
Q 2613 4750 3031 4423 
Q 3450 4097 3450 3541 
Q 3450 3153 3228 2886 
Q 3006 2619 2597 2516 
z
" transform="scale(0.015625)"/>
       </defs>
       <use xlink:href="#DejaVuSans-33"/>
       <use xlink:href="#DejaVuSans-30" x="63.623047"/>
       <use xlink:href="#DejaVuSans-30" x="127.246094"/>
      </g>
     </g>
    </g>
    <g id="ytick_8">
     <g id="line2d_31">
      <path d="M 50.925 71.939372 
L 709.2 71.939372 
" clip-path="url(#p20bdee2ffc)" style="fill: none; stroke: #b0b0b0; stroke-width: 0.8; stroke-linecap: square"/>
     </g>
     <g id="line2d_32">
      <g>
       <use xlink:href="#m08bf81edf0" x="50.925" y="71.939372" style="stroke: #000000; stroke-width: 0.8"/>
      </g>
     </g>
     <g id="text_17">
      <!-- 350 -->
      <g transform="translate(24.8375 75.738591)scale(0.1 -0.1)">
       <use xlink:href="#DejaVuSans-33"/>
       <use xlink:href="#DejaVuSans-35" x="63.623047"/>
       <use xlink:href="#DejaVuSans-30" x="127.246094"/>
      </g>
     </g>
    </g>
    <g id="text_18">
     <!-- count -->
     <g transform="translate(18.757812 220.801123)rotate(-90)scale(0.1 -0.1)">
      <defs>
       <path id="DejaVuSans-6f" d="M 1959 3097 
Q 1497 3097 1228 2736 
Q 959 2375 959 1747 
Q 959 1119 1226 758 
Q 1494 397 1959 397 
Q 2419 397 2687 759 
Q 2956 1122 2956 1747 
Q 2956 2369 2687 2733 
Q 2419 3097 1959 3097 
z
M 1959 3584 
Q 2709 3584 3137 3096 
Q 3566 2609 3566 1747 
Q 3566 888 3137 398 
Q 2709 -91 1959 -91 
Q 1206 -91 779 398 
Q 353 888 353 1747 
Q 353 2609 779 3096 
Q 1206 3584 1959 3584 
z
" transform="scale(0.015625)"/>
       <path id="DejaVuSans-75" d="M 544 1381 
L 544 3500 
L 1119 3500 
L 1119 1403 
Q 1119 906 1312 657 
Q 1506 409 1894 409 
Q 2359 409 2629 706 
Q 2900 1003 2900 1516 
L 2900 3500 
L 3475 3500 
L 3475 0 
L 2900 0 
L 2900 538 
Q 2691 219 2414 64 
Q 2138 -91 1772 -91 
Q 1169 -91 856 284 
Q 544 659 544 1381 
z
M 1991 3584 
L 1991 3584 
z
" transform="scale(0.015625)"/>
       <path id="DejaVuSans-6e" d="M 3513 2113 
L 3513 0 
L 2938 0 
L 2938 2094 
Q 2938 2591 2744 2837 
Q 2550 3084 2163 3084 
Q 1697 3084 1428 2787 
Q 1159 2491 1159 1978 
L 1159 0 
L 581 0 
L 581 3500 
L 1159 3500 
L 1159 2956 
Q 1366 3272 1645 3428 
Q 1925 3584 2291 3584 
Q 2894 3584 3203 3211 
Q 3513 2838 3513 2113 
z
" transform="scale(0.015625)"/>
      </defs>
      <use xlink:href="#DejaVuSans-63"/>
      <use xlink:href="#DejaVuSans-6f" x="54.980469"/>
      <use xlink:href="#DejaVuSans-75" x="116.162109"/>
      <use xlink:href="#DejaVuSans-6e" x="179.541016"/>
      <use xlink:href="#DejaVuSans-74" x="242.919922"/>
     </g>
    </g>
   </g>
   <g id="line2d_33">
    <path d="M 80.846591 363.144758 
L 113.660283 362.310358 
L 115.342921 361.475959 
L 124.603977 360.641559 
L 129.749815 359.80716 
L 130.951817 358.972761 
L 136.756092 358.138361 
L 140.634446 357.303962 
L 146.960666 356.469562 
L 151.087795 355.635163 
L 154.635217 354.800764 
L 159.942179 353.966364 
L 171.651487 353.131965 
L 174.314785 352.297566 
L 174.905071 351.463166 
L 175.711125 350.628767 
L 178.833291 349.794367 
L 180.233505 348.125569 
L 180.428814 347.291169 
L 187.213551 346.45677 
L 188.168272 345.62237 
L 193.197186 343.953572 
L 193.625806 343.119172 
L 203.563557 342.284773 
L 204.952443 341.450374 
L 208.85451 340.615974 
L 217.876382 339.781575 
L 224.668141 338.947175 
L 226.455318 338.112776 
L 232.433943 337.278377 
L 233.282601 336.443977 
L 233.479268 335.609578 
L 234.466071 334.775178 
L 234.950734 333.940779 
L 235.348068 332.27198 
L 236.114706 331.437581 
L 236.343087 330.603182 
L 238.159682 329.768782 
L 238.198685 328.934383 
L 241.66863 328.099983 
L 241.689218 327.265584 
L 246.620557 326.431185 
L 246.796652 325.596785 
L 247.447302 324.762386 
L 256.27872 323.093587 
L 259.174865 322.259188 
L 260.814627 321.424788 
L 263.096745 320.590389 
L 264.684262 319.75599 
L 267.18262 318.92159 
L 269.183999 318.087191 
L 273.514682 317.252791 
L 276.838503 316.418392 
L 276.971065 315.583993 
L 277.955244 314.749593 
L 280.406088 313.915194 
L 280.930736 313.080794 
L 282.098117 312.246395 
L 282.721868 310.577596 
L 283.772845 308.908798 
L 283.969611 307.239999 
L 284.282447 305.5712 
L 284.371774 303.902401 
L 287.862569 303.068002 
L 289.269753 302.233602 
L 289.995438 301.399203 
L 290.145265 300.564804 
L 290.965199 298.896005 
L 291.086324 298.061606 
L 293.618073 297.227206 
L 294.636455 296.392807 
L 295.007465 295.558407 
L 296.682059 293.889609 
L 297.94895 293.055209 
L 299.850982 292.22081 
L 300.623898 291.38641 
L 301.088089 290.552011 
L 302.506616 289.717612 
L 302.559482 287.214414 
L 302.782844 286.380014 
L 303.869539 284.711215 
L 304.135599 283.876816 
L 306.680274 283.042417 
L 311.172275 282.208017 
L 311.526666 281.373618 
L 311.546645 279.704819 
L 314.438222 278.87042 
L 318.331796 278.03602 
L 326.782566 277.201621 
L 327.905766 276.367222 
L 335.250938 274.698423 
L 336.578495 273.864023 
L 336.629946 273.029624 
L 338.256105 272.195225 
L 340.30948 271.360825 
L 341.562897 269.692026 
L 342.801441 268.857627 
L 345.188956 268.023228 
L 348.927303 267.188828 
L 354.078272 265.52003 
L 355.469878 264.68563 
L 355.952486 263.851231 
L 358.133701 263.016831 
L 358.359227 262.182432 
L 359.655968 261.348033 
L 360.020293 259.679234 
L 360.064853 258.010435 
L 360.405865 257.176036 
L 360.488197 256.341636 
L 360.823532 255.507237 
L 361.860311 254.672838 
L 361.879049 253.838438 
L 363.431513 253.004039 
L 364.411837 252.169639 
L 364.733459 251.33524 
L 370.435602 250.500841 
L 371.068182 249.666441 
L 372.121313 248.832042 
L 372.589428 247.997642 
L 375.416223 247.163243 
L 382.96459 246.328844 
L 383.200966 245.494444 
L 385.466598 244.660045 
L 386.912694 243.825646 
L 387.134636 242.991246 
L 387.164505 241.322447 
L 390.895899 239.653649 
L 394.312214 238.819249 
L 399.173953 237.98485 
L 399.294812 237.150451 
L 401.752502 236.316051 
L 403.568193 235.481652 
L 406.167435 234.647252 
L 406.532252 233.812853 
L 407.851572 232.978454 
L 407.910547 232.144054 
L 410.171748 231.309655 
L 410.582546 230.475255 
L 410.585934 229.640856 
L 410.752451 228.806457 
L 411.518749 227.972057 
L 411.968098 227.137658 
L 412.575623 226.303259 
L 413.441103 225.468859 
L 413.623371 224.63446 
L 416.07647 223.80006 
L 416.26314 222.965661 
L 419.010169 222.131262 
L 419.974202 221.296862 
L 421.59467 220.462463 
L 424.326583 219.628063 
L 424.37018 218.793664 
L 424.535137 217.959265 
L 426.438867 217.124865 
L 427.24412 216.290466 
L 432.065163 215.456067 
L 435.676764 214.621667 
L 435.861969 213.787268 
L 437.756075 212.952868 
L 438.944991 212.118469 
L 441.50863 211.28407 
L 441.652276 210.44967 
L 443.184577 209.615271 
L 443.197461 208.780871 
L 443.457533 207.946472 
L 445.136676 207.112073 
L 446.287848 206.277673 
L 446.46585 204.608875 
L 447.150723 203.774475 
L 447.157783 202.940076 
L 447.957727 202.105676 
L 449.163086 201.271277 
L 449.529808 200.436878 
L 449.561166 198.768079 
L 450.411802 197.933679 
L 450.784855 197.09928 
L 452.443631 196.264881 
L 457.367995 195.430481 
L 457.368749 194.596082 
L 458.001783 193.761683 
L 460.534528 192.927283 
L 461.281985 191.258484 
L 461.330916 190.424085 
L 461.750129 189.589686 
L 463.913086 187.920887 
L 464.010719 187.086487 
L 465.568985 186.252088 
L 466.057123 185.417689 
L 467.641315 183.74889 
L 470.546696 182.914491 
L 472.38854 182.080091 
L 473.786253 180.411292 
L 475.507376 179.576893 
L 476.655266 178.742494 
L 476.710258 177.908094 
L 480.788998 177.073695 
L 481.149771 175.404896 
L 483.737615 173.736097 
L 484.659572 172.901698 
L 485.980295 172.067299 
L 486.341132 171.232899 
L 486.391962 170.3985 
L 486.780229 169.5641 
L 487.359911 168.729701 
L 488.168563 167.895302 
L 488.225457 167.060902 
L 492.234926 164.557704 
L 492.280407 163.723305 
L 492.505454 162.888905 
L 492.557036 162.054506 
L 492.768689 161.220107 
L 492.801003 159.551308 
L 493.772661 158.716908 
L 493.97991 157.04811 
L 495.125307 156.21371 
L 497.817669 155.379311 
L 499.262811 153.710512 
L 499.446813 152.876113 
L 500.735448 152.041713 
L 500.951224 151.207314 
L 501.406676 150.372915 
L 503.875517 149.538515 
L 504.194994 148.704116 
L 507.947618 147.869716 
L 508.134055 147.035317 
L 508.908074 145.366518 
L 509.925913 144.532119 
L 511.216295 143.697719 
L 511.240379 142.86332 
L 511.40608 142.028921 
L 512.037778 141.194521 
L 512.471722 140.360122 
L 514.527453 139.525723 
L 518.268216 138.691323 
L 519.61077 137.856924 
L 520.645784 137.022524 
L 522.046455 136.188125 
L 522.353337 135.353726 
L 523.5279 134.519326 
L 523.72942 133.684927 
L 524.380971 132.850527 
L 525.56097 132.016128 
L 525.818552 131.181729 
L 525.830996 130.347329 
L 527.841442 129.51293 
L 528.081504 128.678531 
L 529.538173 127.844131 
L 529.677429 127.009732 
L 529.717319 125.340933 
L 531.006943 124.506534 
L 531.486664 123.672134 
L 531.595759 122.003335 
L 536.4633 121.168936 
L 538.555281 120.334537 
L 543.663619 118.665738 
L 547.12735 117.831339 
L 548.538643 116.996939 
L 549.571909 116.16254 
L 551.496667 115.32814 
L 552.311394 114.493741 
L 556.027745 113.659342 
L 556.624824 112.824942 
L 556.628964 111.990543 
L 557.795071 111.156143 
L 558.113931 110.321744 
L 558.494328 107.818546 
L 558.84182 106.984147 
L 560.719766 106.149747 
L 561.21283 104.480948 
L 563.206372 103.646549 
L 563.818328 102.81215 
L 564.232556 101.97775 
L 565.452409 101.143351 
L 565.896564 100.308952 
L 565.899213 99.474552 
L 566.734495 98.640153 
L 571.426102 97.805753 
L 571.428878 96.971354 
L 573.101068 96.136955 
L 574.493076 95.302555 
L 575.493053 94.468156 
L 576.345991 92.799357 
L 579.976508 91.964958 
L 580.838231 91.130558 
L 584.561216 90.296159 
L 584.752768 89.46176 
L 587.19664 88.62736 
L 591.150294 87.792961 
L 597.107378 86.958561 
L 599.190493 86.124162 
L 602.827067 85.289763 
L 602.888848 84.455363 
L 604.301613 83.620964 
L 605.466134 82.786564 
L 606.092179 81.952165 
L 607.774814 81.117766 
L 609.18288 80.283366 
L 611.476754 79.448967 
L 611.701585 78.614568 
L 617.815312 76.945769 
L 618.894268 76.111369 
L 619.272949 75.27697 
L 619.472379 74.442571 
L 619.842861 73.608171 
L 619.926314 72.773772 
L 620.936358 71.939372 
L 621.183382 71.104973 
L 621.820965 70.270574 
L 621.941876 69.436174 
L 628.508259 68.601775 
L 632.214045 67.767376 
L 635.039154 66.932976 
L 639.414475 66.098577 
L 642.92158 65.264177 
L 643.044041 64.429778 
L 644.312056 63.595379 
L 647.428236 62.760979 
L 653.58197 61.92658 
L 656.306612 61.09218 
L 657.03389 60.257781 
L 661.234959 59.423382 
L 662.23598 58.588982 
L 662.478584 57.754583 
L 663.231682 56.920184 
L 664.833324 56.085784 
L 664.844027 55.251385 
L 673.108891 54.416985 
L 673.170284 53.582586 
L 674.516198 52.748187 
L 679.080703 51.913787 
L 679.114543 51.079388 
L 679.278409 50.244988 
L 679.278409 50.244988 
" clip-path="url(#p20bdee2ffc)" style="fill: none; stroke: #1f77b4; stroke-width: 2; stroke-linecap: square"/>
   </g>
   <g id="line2d_34">
    <path d="M 127.471468 363.144758 
L 154.825778 362.310358 
L 160.546999 361.475959 
L 161.982299 360.641559 
L 171.85208 359.80716 
L 172.262149 358.972761 
L 175.489141 358.138361 
L 175.558279 357.303962 
L 177.770134 356.469562 
L 198.955712 355.635163 
L 201.692365 354.800764 
L 209.311261 353.966364 
L 210.257647 353.131965 
L 216.040136 352.297566 
L 233.282601 351.463166 
L 238.044664 350.628767 
L 238.082583 349.794367 
L 259.62818 348.959968 
L 279.524836 348.125569 
L 282.828889 347.291169 
L 282.831852 346.45677 
L 286.649488 345.62237 
L 287.048655 344.787971 
L 289.946703 343.953572 
L 292.881251 343.119172 
L 293.436325 342.284773 
L 293.779663 341.450374 
L 301.487517 340.615974 
L 304.866078 339.781575 
L 309.49118 338.947175 
L 310.927077 338.112776 
L 311.132019 337.278377 
L 316.46233 336.443977 
L 316.896438 335.609578 
L 318.494729 334.775178 
L 320.181484 333.940779 
L 335.148623 333.10638 
L 336.802285 332.27198 
L 353.219239 331.437581 
L 358.22057 330.603182 
L 365.423238 329.768782 
L 368.414502 328.934383 
L 387.133728 328.099983 
L 387.432396 327.265584 
L 389.765887 326.431185 
L 394.315368 325.596785 
L 394.549934 324.762386 
L 394.554331 323.927986 
L 395.771109 323.093587 
L 400.503136 322.259188 
L 402.776171 321.424788 
L 403.187624 320.590389 
L 407.576747 319.75599 
L 438.01477 318.92159 
L 445.230362 318.087191 
L 446.469388 317.252791 
L 488.397522 316.418392 
L 499.669878 315.583993 
L 512.229477 314.749593 
L 515.510158 313.915194 
L 515.510795 313.080794 
L 515.706006 312.246395 
L 516.339202 311.411996 
L 519.783425 310.577596 
L 520.071012 309.743197 
L 520.667678 308.908798 
L 525.577763 308.074398 
L 529.300118 307.239999 
L 530.961993 306.405599 
L 532.230377 305.5712 
L 539.325507 304.736801 
L 552.612794 303.902401 
L 575.729784 303.068002 
L 577.497643 302.233602 
L 584.561216 301.399203 
L 585.567764 300.564804 
L 598.720978 299.730404 
L 605.908731 298.896005 
L 609.18288 298.061606 
L 616.386387 297.227206 
L 627.48741 296.392807 
L 631.551788 295.558407 
L 663.455593 294.724008 
" clip-path="url(#p20bdee2ffc)" style="fill: none; stroke: #ff7f0e; stroke-width: 2; stroke-linecap: square"/>
   </g>
   <g id="line2d_35">
    <path d="M 165.753046 363.144758 
L 241.616273 362.310358 
L 259.562489 361.475959 
L 263.928869 360.641559 
L 266.506524 359.80716 
L 266.649992 358.972761 
L 268.234355 358.138361 
L 269.433366 357.303962 
L 270.347633 356.469562 
L 276.631311 355.635163 
L 276.631449 354.800764 
L 276.631653 353.966364 
L 276.635675 353.131965 
L 276.641976 352.297566 
L 279.263641 351.463166 
L 279.279759 350.628767 
L 280.073265 349.794367 
L 286.420146 348.959968 
L 289.358143 348.125569 
L 292.677995 347.291169 
L 295.482088 346.45677 
L 301.364338 345.62237 
L 302.298956 344.787971 
L 302.669188 343.953572 
L 311.580999 343.119172 
L 311.746551 342.284773 
L 318.331796 341.450374 
L 319.836665 340.615974 
L 320.796665 339.781575 
L 322.609831 338.947175 
L 322.667327 338.112776 
L 329.743741 337.278377 
L 329.748651 336.443977 
L 336.595045 335.609578 
L 349.554311 334.775178 
L 351.564736 333.940779 
L 352.708607 333.10638 
L 357.886955 332.27198 
L 384.192918 331.437581 
L 385.112688 330.603182 
L 386.934129 329.768782 
L 390.219009 328.934383 
L 390.895899 328.099983 
L 391.212611 327.265584 
L 391.519559 326.431185 
L 393.085033 325.596785 
L 394.521696 324.762386 
L 410.752451 323.927986 
L 416.506733 323.093587 
L 417.260328 322.259188 
L 421.59467 321.424788 
L 426.52486 320.590389 
L 426.52515 319.75599 
L 428.774089 318.92159 
L 441.339416 318.087191 
L 445.246195 317.252791 
L 455.15463 316.418392 
L 457.367995 315.583993 
L 460.534528 314.749593 
L 466.057123 313.915194 
L 470.547293 313.080794 
L 484.317521 312.246395 
L 493.771677 311.411996 
L 493.900185 310.577596 
L 494.195814 309.743197 
L 496.406725 308.908798 
L 496.622862 308.074398 
L 496.813924 307.239999 
L 498.271242 306.405599 
L 501.39964 305.5712 
L 501.406396 304.736801 
L 518.268216 303.902401 
L 520.680702 303.068002 
L 522.135975 302.233602 
L 525.378026 301.399203 
L 531.177714 300.564804 
L 542.19038 299.730404 
L 548.585405 298.896005 
L 556.036883 298.061606 
L 559.292105 297.227206 
L 569.603479 296.392807 
L 584.629008 295.558407 
L 586.2234 294.724008 
L 595.463447 293.889609 
L 604.301613 293.055209 
L 608.788015 292.22081 
" clip-path="url(#p20bdee2ffc)" style="fill: none; stroke: #2ca02c; stroke-width: 2; stroke-linecap: square"/>
   </g>
   <g id="line2d_36">
    <path d="M 387.438505 363.144758 
L 394.554982 362.310358 
L 410.752451 361.475959 
L 414.339245 360.641559 
L 430.884903 359.80716 
L 434.684914 358.972761 
L 436.557184 358.138361 
L 454.923317 357.303962 
L 455.308487 356.469562 
L 458.826559 355.635163 
L 469.987863 354.800764 
L 483.291396 353.966364 
L 483.436883 353.131965 
L 483.902398 352.297566 
L 488.397522 351.463166 
L 489.205517 350.628767 
L 489.20659 349.794367 
L 493.351399 348.959968 
L 493.747253 348.125569 
L 493.770583 346.45677 
L 494.386831 345.62237 
L 494.794418 344.787971 
L 495.132617 343.119172 
L 495.581002 342.284773 
L 499.112279 341.450374 
L 499.28699 340.615974 
L 501.756965 339.781575 
L 501.959969 338.947175 
L 503.794819 338.112776 
L 504.271271 333.10638 
L 504.878369 332.27198 
L 505.018834 331.437581 
L 507.738015 329.768782 
L 509.079676 328.099983 
L 509.607755 327.265584 
L 509.758104 325.596785 
L 509.810535 324.762386 
L 511.252361 323.927986 
L 511.972249 323.093587 
L 512.204342 322.259188 
L 513.204793 321.424788 
L 513.662043 319.75599 
L 514.909392 318.087191 
L 514.911413 317.252791 
L 515.146472 316.418392 
L 516.804307 313.915194 
L 516.977629 313.080794 
L 517.648522 311.411996 
L 518.231211 310.577596 
L 518.268216 309.743197 
L 518.753443 308.908798 
L 518.990002 308.074398 
L 519.012768 307.239999 
L 519.2146 305.5712 
L 522.6485 304.736801 
L 523.885526 303.902401 
L 524.116659 302.233602 
L 524.951648 301.399203 
L 525.32023 300.564804 
L 526.403839 299.730404 
L 526.603579 298.061606 
L 527.025854 297.227206 
L 529.639727 296.392807 
L 530.103999 295.558407 
L 531.165078 294.724008 
L 531.486664 293.889609 
L 532.54862 293.055209 
L 538.150295 292.22081 
L 538.510027 291.38641 
L 542.451515 290.552011 
L 544.015046 289.717612 
L 545.29098 288.883212 
L 545.315587 288.048813 
L 547.104201 287.214414 
L 547.179351 286.380014 
L 548.742237 285.545615 
L 552.338107 284.711215 
L 552.454736 283.876816 
L 555.628576 283.042417 
L 558.817011 281.373618 
L 558.870498 280.539218 
L 559.290201 279.704819 
L 560.083714 278.87042 
L 560.894442 277.201621 
L 561.21283 276.367222 
L 562.56462 275.532822 
L 564.426263 274.698423 
L 566.002993 273.864023 
L 566.071475 272.195225 
L 566.821404 271.360825 
L 566.941292 269.692026 
L 566.944921 268.857627 
L 570.361952 268.023228 
L 570.929747 267.188828 
L 571.04058 266.354429 
L 571.596997 265.52003 
L 572.560131 264.68563 
L 572.626915 263.851231 
L 572.969421 263.016831 
L 574.020721 262.182432 
L 574.317385 261.348033 
L 574.742728 260.513633 
L 574.907733 259.679234 
L 575.727513 258.844834 
L 576.158087 258.010435 
L 576.936054 257.176036 
L 577.386042 256.341636 
L 579.889567 254.672838 
L 579.976508 253.838438 
L 580.838231 253.004039 
L 584.561216 252.169639 
L 585.396866 251.33524 
L 585.567764 250.500841 
L 588.246868 249.666441 
L 588.61106 248.832042 
L 589.098191 247.997642 
L 591.810565 246.328844 
L 592.967759 245.494444 
L 593.171225 244.660045 
L 598.971258 243.825646 
L 602.015072 242.991246 
L 604.301613 242.156847 
L 605.908731 241.322447 
L 607.977133 240.488048 
L 608.147866 239.653649 
L 609.18288 238.819249 
L 609.61743 237.98485 
L 613.313409 237.150451 
L 614.993846 236.316051 
L 615.754763 235.481652 
L 615.800389 234.647252 
L 616.837324 233.812853 
L 617.033589 232.978454 
L 617.625435 231.309655 
L 622.953037 230.475255 
L 623.210883 228.806457 
L 624.643508 227.972057 
L 624.806784 227.137658 
L 626.678355 225.468859 
L 628.508259 224.63446 
L 631.772594 223.80006 
L 632.676388 222.965661 
L 634.242751 222.131262 
L 634.770205 221.296862 
L 636.378881 220.462463 
L 639.008862 219.628063 
L 642.92158 218.793664 
L 643.044041 217.959265 
L 644.775958 217.124865 
L 645.23949 216.290466 
L 652.606088 215.456067 
L 652.97175 214.621667 
L 655.787297 212.952868 
L 658.586485 212.118469 
L 659.072349 211.28407 
L 663.864937 210.44967 
L 663.873236 209.615271 
L 666.554293 208.780871 
L 670.652121 207.946472 
L 673.471835 207.112073 
L 678.229817 205.443274 
L 678.229817 205.443274 
" clip-path="url(#p20bdee2ffc)" style="fill: none; stroke: #d62728; stroke-width: 2; stroke-linecap: square"/>
   </g>
   <g id="patch_3">
    <path d="M 50.925 378.789746 
L 50.925 34.6 
" style="fill: none; stroke: #000000; stroke-width: 0.8; stroke-linejoin: miter; stroke-linecap: square"/>
   </g>
   <g id="patch_4">
    <path d="M 709.2 378.789746 
L 709.2 34.6 
" style="fill: none; stroke: #000000; stroke-width: 0.8; stroke-linejoin: miter; stroke-linecap: square"/>
   </g>
   <g id="patch_5">
    <path d="M 50.925 378.789746 
L 709.2 378.789746 
" style="fill: none; stroke: #000000; stroke-width: 0.8; stroke-linejoin: miter; stroke-linecap: square"/>
   </g>
   <g id="patch_6">
    <path d="M 50.925 34.6 
L 709.2 34.6 
" style="fill: none; stroke: #000000; stroke-width: 0.8; stroke-linejoin: miter; stroke-linecap: square"/>
   </g>
   <g id="legend_1">
    <g id="patch_7">
     <path d="M 57.925 101.3125 
L 211.06875 101.3125 
Q 213.06875 101.3125 213.06875 99.3125 
L 213.06875 41.6 
Q 213.06875 39.6 211.06875 39.6 
L 57.925 39.6 
Q 55.925 39.6 55.925 41.6 
L 55.925 99.3125 
Q 55.925 101.3125 57.925 101.3125 
z
" style="fill: #ffffff; opacity: 0.8; stroke: #cccccc; stroke-linejoin: miter"/>
    </g>
    <g id="line2d_37">
     <path d="M 59.925 47.698438 
L 69.925 47.698438 
L 79.925 47.698438 
" style="fill: none; stroke: #1f77b4; stroke-width: 2; stroke-linecap: square"/>
    </g>
    <g id="text_19">
     <!-- Deployment/YARN -->
     <g transform="translate(87.925 51.198438)scale(0.1 -0.1)">
      <defs>
       <path id="DejaVuSans-44" d="M 1259 4147 
L 1259 519 
L 2022 519 
Q 2988 519 3436 956 
Q 3884 1394 3884 2338 
Q 3884 3275 3436 3711 
Q 2988 4147 2022 4147 
L 1259 4147 
z
M 628 4666 
L 1925 4666 
Q 3281 4666 3915 4102 
Q 4550 3538 4550 2338 
Q 4550 1131 3912 565 
Q 3275 0 1925 0 
L 628 0 
L 628 4666 
z
" transform="scale(0.015625)"/>
       <path id="DejaVuSans-70" d="M 1159 525 
L 1159 -1331 
L 581 -1331 
L 581 3500 
L 1159 3500 
L 1159 2969 
Q 1341 3281 1617 3432 
Q 1894 3584 2278 3584 
Q 2916 3584 3314 3078 
Q 3713 2572 3713 1747 
Q 3713 922 3314 415 
Q 2916 -91 2278 -91 
Q 1894 -91 1617 61 
Q 1341 213 1159 525 
z
M 3116 1747 
Q 3116 2381 2855 2742 
Q 2594 3103 2138 3103 
Q 1681 3103 1420 2742 
Q 1159 2381 1159 1747 
Q 1159 1113 1420 752 
Q 1681 391 2138 391 
Q 2594 391 2855 752 
Q 3116 1113 3116 1747 
z
" transform="scale(0.015625)"/>
       <path id="DejaVuSans-6c" d="M 603 4863 
L 1178 4863 
L 1178 0 
L 603 0 
L 603 4863 
z
" transform="scale(0.015625)"/>
       <path id="DejaVuSans-79" d="M 2059 -325 
Q 1816 -950 1584 -1140 
Q 1353 -1331 966 -1331 
L 506 -1331 
L 506 -850 
L 844 -850 
Q 1081 -850 1212 -737 
Q 1344 -625 1503 -206 
L 1606 56 
L 191 3500 
L 800 3500 
L 1894 763 
L 2988 3500 
L 3597 3500 
L 2059 -325 
z
" transform="scale(0.015625)"/>
       <path id="DejaVuSans-2f" d="M 1625 4666 
L 2156 4666 
L 531 -594 
L 0 -594 
L 1625 4666 
z
" transform="scale(0.015625)"/>
       <path id="DejaVuSans-59" d="M -13 4666 
L 666 4666 
L 1959 2747 
L 3244 4666 
L 3922 4666 
L 2272 2222 
L 2272 0 
L 1638 0 
L 1638 2222 
L -13 4666 
z
" transform="scale(0.015625)"/>
       <path id="DejaVuSans-41" d="M 2188 4044 
L 1331 1722 
L 3047 1722 
L 2188 4044 
z
M 1831 4666 
L 2547 4666 
L 4325 0 
L 3669 0 
L 3244 1197 
L 1141 1197 
L 716 0 
L 50 0 
L 1831 4666 
z
" transform="scale(0.015625)"/>
       <path id="DejaVuSans-52" d="M 2841 2188 
Q 3044 2119 3236 1894 
Q 3428 1669 3622 1275 
L 4263 0 
L 3584 0 
L 2988 1197 
Q 2756 1666 2539 1819 
Q 2322 1972 1947 1972 
L 1259 1972 
L 1259 0 
L 628 0 
L 628 4666 
L 2053 4666 
Q 2853 4666 3247 4331 
Q 3641 3997 3641 3322 
Q 3641 2881 3436 2590 
Q 3231 2300 2841 2188 
z
M 1259 4147 
L 1259 2491 
L 2053 2491 
Q 2509 2491 2742 2702 
Q 2975 2913 2975 3322 
Q 2975 3731 2742 3939 
Q 2509 4147 2053 4147 
L 1259 4147 
z
" transform="scale(0.015625)"/>
       <path id="DejaVuSans-4e" d="M 628 4666 
L 1478 4666 
L 3547 763 
L 3547 4666 
L 4159 4666 
L 4159 0 
L 3309 0 
L 1241 3903 
L 1241 0 
L 628 0 
L 628 4666 
z
" transform="scale(0.015625)"/>
      </defs>
      <use xlink:href="#DejaVuSans-44"/>
      <use xlink:href="#DejaVuSans-65" x="77.001953"/>
      <use xlink:href="#DejaVuSans-70" x="138.525391"/>
      <use xlink:href="#DejaVuSans-6c" x="202.001953"/>
      <use xlink:href="#DejaVuSans-6f" x="229.785156"/>
      <use xlink:href="#DejaVuSans-79" x="290.966797"/>
      <use xlink:href="#DejaVuSans-6d" x="350.146484"/>
      <use xlink:href="#DejaVuSans-65" x="447.558594"/>
      <use xlink:href="#DejaVuSans-6e" x="509.082031"/>
      <use xlink:href="#DejaVuSans-74" x="572.460938"/>
      <use xlink:href="#DejaVuSans-2f" x="611.669922"/>
      <use xlink:href="#DejaVuSans-59" x="645.361328"/>
      <use xlink:href="#DejaVuSans-41" x="698.695312"/>
      <use xlink:href="#DejaVuSans-52" x="767.103516"/>
      <use xlink:href="#DejaVuSans-4e" x="836.585938"/>
     </g>
    </g>
    <g id="line2d_38">
     <path d="M 59.925 62.376563 
L 69.925 62.376563 
L 79.925 62.376563 
" style="fill: none; stroke: #ff7f0e; stroke-width: 2; stroke-linecap: square"/>
    </g>
    <g id="text_20">
     <!-- Deployment/Scripts -->
     <g transform="translate(87.925 65.876563)scale(0.1 -0.1)">
      <defs>
       <path id="DejaVuSans-53" d="M 3425 4513 
L 3425 3897 
Q 3066 4069 2747 4153 
Q 2428 4238 2131 4238 
Q 1616 4238 1336 4038 
Q 1056 3838 1056 3469 
Q 1056 3159 1242 3001 
Q 1428 2844 1947 2747 
L 2328 2669 
Q 3034 2534 3370 2195 
Q 3706 1856 3706 1288 
Q 3706 609 3251 259 
Q 2797 -91 1919 -91 
Q 1588 -91 1214 -16 
Q 841 59 441 206 
L 441 856 
Q 825 641 1194 531 
Q 1563 422 1919 422 
Q 2459 422 2753 634 
Q 3047 847 3047 1241 
Q 3047 1584 2836 1778 
Q 2625 1972 2144 2069 
L 1759 2144 
Q 1053 2284 737 2584 
Q 422 2884 422 3419 
Q 422 4038 858 4394 
Q 1294 4750 2059 4750 
Q 2388 4750 2728 4690 
Q 3069 4631 3425 4513 
z
" transform="scale(0.015625)"/>
       <path id="DejaVuSans-73" d="M 2834 3397 
L 2834 2853 
Q 2591 2978 2328 3040 
Q 2066 3103 1784 3103 
Q 1356 3103 1142 2972 
Q 928 2841 928 2578 
Q 928 2378 1081 2264 
Q 1234 2150 1697 2047 
L 1894 2003 
Q 2506 1872 2764 1633 
Q 3022 1394 3022 966 
Q 3022 478 2636 193 
Q 2250 -91 1575 -91 
Q 1294 -91 989 -36 
Q 684 19 347 128 
L 347 722 
Q 666 556 975 473 
Q 1284 391 1588 391 
Q 1994 391 2212 530 
Q 2431 669 2431 922 
Q 2431 1156 2273 1281 
Q 2116 1406 1581 1522 
L 1381 1569 
Q 847 1681 609 1914 
Q 372 2147 372 2553 
Q 372 3047 722 3315 
Q 1072 3584 1716 3584 
Q 2034 3584 2315 3537 
Q 2597 3491 2834 3397 
z
" transform="scale(0.015625)"/>
      </defs>
      <use xlink:href="#DejaVuSans-44"/>
      <use xlink:href="#DejaVuSans-65" x="77.001953"/>
      <use xlink:href="#DejaVuSans-70" x="138.525391"/>
      <use xlink:href="#DejaVuSans-6c" x="202.001953"/>
      <use xlink:href="#DejaVuSans-6f" x="229.785156"/>
      <use xlink:href="#DejaVuSans-79" x="290.966797"/>
      <use xlink:href="#DejaVuSans-6d" x="350.146484"/>
      <use xlink:href="#DejaVuSans-65" x="447.558594"/>
      <use xlink:href="#DejaVuSans-6e" x="509.082031"/>
      <use xlink:href="#DejaVuSans-74" x="572.460938"/>
      <use xlink:href="#DejaVuSans-2f" x="611.669922"/>
      <use xlink:href="#DejaVuSans-53" x="645.361328"/>
      <use xlink:href="#DejaVuSans-63" x="708.837891"/>
      <use xlink:href="#DejaVuSans-72" x="763.818359"/>
      <use xlink:href="#DejaVuSans-69" x="804.931641"/>
      <use xlink:href="#DejaVuSans-70" x="832.714844"/>
      <use xlink:href="#DejaVuSans-74" x="896.191406"/>
      <use xlink:href="#DejaVuSans-73" x="935.400391"/>
     </g>
    </g>
    <g id="line2d_39">
     <path d="M 59.925 77.054688 
L 69.925 77.054688 
L 79.925 77.054688 
" style="fill: none; stroke: #2ca02c; stroke-width: 2; stroke-linecap: square"/>
    </g>
    <g id="text_21">
     <!-- Deployment/Mesos -->
     <g transform="translate(87.925 80.554688)scale(0.1 -0.1)">
      <defs>
       <path id="DejaVuSans-4d" d="M 628 4666 
L 1569 4666 
L 2759 1491 
L 3956 4666 
L 4897 4666 
L 4897 0 
L 4281 0 
L 4281 4097 
L 3078 897 
L 2444 897 
L 1241 4097 
L 1241 0 
L 628 0 
L 628 4666 
z
" transform="scale(0.015625)"/>
      </defs>
      <use xlink:href="#DejaVuSans-44"/>
      <use xlink:href="#DejaVuSans-65" x="77.001953"/>
      <use xlink:href="#DejaVuSans-70" x="138.525391"/>
      <use xlink:href="#DejaVuSans-6c" x="202.001953"/>
      <use xlink:href="#DejaVuSans-6f" x="229.785156"/>
      <use xlink:href="#DejaVuSans-79" x="290.966797"/>
      <use xlink:href="#DejaVuSans-6d" x="350.146484"/>
      <use xlink:href="#DejaVuSans-65" x="447.558594"/>
      <use xlink:href="#DejaVuSans-6e" x="509.082031"/>
      <use xlink:href="#DejaVuSans-74" x="572.460938"/>
      <use xlink:href="#DejaVuSans-2f" x="611.669922"/>
      <use xlink:href="#DejaVuSans-4d" x="645.361328"/>
      <use xlink:href="#DejaVuSans-65" x="731.640625"/>
      <use xlink:href="#DejaVuSans-73" x="793.164062"/>
      <use xlink:href="#DejaVuSans-6f" x="845.263672"/>
      <use xlink:href="#DejaVuSans-73" x="906.445312"/>
     </g>
    </g>
    <g id="line2d_40">
     <path d="M 59.925 91.732813 
L 69.925 91.732813 
L 79.925 91.732813 
" style="fill: none; stroke: #d62728; stroke-width: 2; stroke-linecap: square"/>
    </g>
    <g id="text_22">
     <!-- Deployment/Kubernetes -->
     <g transform="translate(87.925 95.232813)scale(0.1 -0.1)">
      <defs>
       <path id="DejaVuSans-4b" d="M 628 4666 
L 1259 4666 
L 1259 2694 
L 3353 4666 
L 4166 4666 
L 1850 2491 
L 4331 0 
L 3500 0 
L 1259 2247 
L 1259 0 
L 628 0 
L 628 4666 
z
" transform="scale(0.015625)"/>
       <path id="DejaVuSans-62" d="M 3116 1747 
Q 3116 2381 2855 2742 
Q 2594 3103 2138 3103 
Q 1681 3103 1420 2742 
Q 1159 2381 1159 1747 
Q 1159 1113 1420 752 
Q 1681 391 2138 391 
Q 2594 391 2855 752 
Q 3116 1113 3116 1747 
z
M 1159 2969 
Q 1341 3281 1617 3432 
Q 1894 3584 2278 3584 
Q 2916 3584 3314 3078 
Q 3713 2572 3713 1747 
Q 3713 922 3314 415 
Q 2916 -91 2278 -91 
Q 1894 -91 1617 61 
Q 1341 213 1159 525 
L 1159 0 
L 581 0 
L 581 4863 
L 1159 4863 
L 1159 2969 
z
" transform="scale(0.015625)"/>
      </defs>
      <use xlink:href="#DejaVuSans-44"/>
      <use xlink:href="#DejaVuSans-65" x="77.001953"/>
      <use xlink:href="#DejaVuSans-70" x="138.525391"/>
      <use xlink:href="#DejaVuSans-6c" x="202.001953"/>
      <use xlink:href="#DejaVuSans-6f" x="229.785156"/>
      <use xlink:href="#DejaVuSans-79" x="290.966797"/>
      <use xlink:href="#DejaVuSans-6d" x="350.146484"/>
      <use xlink:href="#DejaVuSans-65" x="447.558594"/>
      <use xlink:href="#DejaVuSans-6e" x="509.082031"/>
      <use xlink:href="#DejaVuSans-74" x="572.460938"/>
      <use xlink:href="#DejaVuSans-2f" x="611.669922"/>
      <use xlink:href="#DejaVuSans-4b" x="645.361328"/>
      <use xlink:href="#DejaVuSans-75" x="705.9375"/>
      <use xlink:href="#DejaVuSans-62" x="769.316406"/>
      <use xlink:href="#DejaVuSans-65" x="832.792969"/>
      <use xlink:href="#DejaVuSans-72" x="894.316406"/>
      <use xlink:href="#DejaVuSans-6e" x="933.679688"/>
      <use xlink:href="#DejaVuSans-65" x="997.058594"/>
      <use xlink:href="#DejaVuSans-74" x="1058.582031"/>
      <use xlink:href="#DejaVuSans-65" x="1097.791016"/>
      <use xlink:href="#DejaVuSans-73" x="1159.314453"/>
     </g>
    </g>
   </g>
  </g>
  <g id="text_23">
   <!-- Total PRs for components with prefix 'Deployment' -->
   <g transform="translate(208.424063 17.758125)scale(0.12 -0.12)">
    <defs>
     <path id="DejaVuSans-54" d="M -19 4666 
L 3928 4666 
L 3928 4134 
L 2272 4134 
L 2272 0 
L 1638 0 
L 1638 4134 
L -19 4134 
L -19 4666 
z
" transform="scale(0.015625)"/>
     <path id="DejaVuSans-50" d="M 1259 4147 
L 1259 2394 
L 2053 2394 
Q 2494 2394 2734 2622 
Q 2975 2850 2975 3272 
Q 2975 3691 2734 3919 
Q 2494 4147 2053 4147 
L 1259 4147 
z
M 628 4666 
L 2053 4666 
Q 2838 4666 3239 4311 
Q 3641 3956 3641 3272 
Q 3641 2581 3239 2228 
Q 2838 1875 2053 1875 
L 1259 1875 
L 1259 0 
L 628 0 
L 628 4666 
z
" transform="scale(0.015625)"/>
     <path id="DejaVuSans-66" d="M 2375 4863 
L 2375 4384 
L 1825 4384 
Q 1516 4384 1395 4259 
Q 1275 4134 1275 3809 
L 1275 3500 
L 2222 3500 
L 2222 3053 
L 1275 3053 
L 1275 0 
L 697 0 
L 697 3053 
L 147 3053 
L 147 3500 
L 697 3500 
L 697 3744 
Q 697 4328 969 4595 
Q 1241 4863 1831 4863 
L 2375 4863 
z
" transform="scale(0.015625)"/>
     <path id="DejaVuSans-77" d="M 269 3500 
L 844 3500 
L 1563 769 
L 2278 3500 
L 2956 3500 
L 3675 769 
L 4391 3500 
L 4966 3500 
L 4050 0 
L 3372 0 
L 2619 2869 
L 1863 0 
L 1184 0 
L 269 3500 
z
" transform="scale(0.015625)"/>
     <path id="DejaVuSans-68" d="M 3513 2113 
L 3513 0 
L 2938 0 
L 2938 2094 
Q 2938 2591 2744 2837 
Q 2550 3084 2163 3084 
Q 1697 3084 1428 2787 
Q 1159 2491 1159 1978 
L 1159 0 
L 581 0 
L 581 4863 
L 1159 4863 
L 1159 2956 
Q 1366 3272 1645 3428 
Q 1925 3584 2291 3584 
Q 2894 3584 3203 3211 
Q 3513 2838 3513 2113 
z
" transform="scale(0.015625)"/>
     <path id="DejaVuSans-78" d="M 3513 3500 
L 2247 1797 
L 3578 0 
L 2900 0 
L 1881 1375 
L 863 0 
L 184 0 
L 1544 1831 
L 300 3500 
L 978 3500 
L 1906 2253 
L 2834 3500 
L 3513 3500 
z
" transform="scale(0.015625)"/>
     <path id="DejaVuSans-27" d="M 1147 4666 
L 1147 2931 
L 616 2931 
L 616 4666 
L 1147 4666 
z
" transform="scale(0.015625)"/>
    </defs>
    <use xlink:href="#DejaVuSans-54"/>
    <use xlink:href="#DejaVuSans-6f" x="44.083984"/>
    <use xlink:href="#DejaVuSans-74" x="105.265625"/>
    <use xlink:href="#DejaVuSans-61" x="144.474609"/>
    <use xlink:href="#DejaVuSans-6c" x="205.753906"/>
    <use xlink:href="#DejaVuSans-20" x="233.537109"/>
    <use xlink:href="#DejaVuSans-50" x="265.324219"/>
    <use xlink:href="#DejaVuSans-52" x="325.626953"/>
    <use xlink:href="#DejaVuSans-73" x="395.109375"/>
    <use xlink:href="#DejaVuSans-20" x="447.208984"/>
    <use xlink:href="#DejaVuSans-66" x="478.996094"/>
    <use xlink:href="#DejaVuSans-6f" x="514.201172"/>
    <use xlink:href="#DejaVuSans-72" x="575.382812"/>
    <use xlink:href="#DejaVuSans-20" x="616.496094"/>
    <use xlink:href="#DejaVuSans-63" x="648.283203"/>
    <use xlink:href="#DejaVuSans-6f" x="703.263672"/>
    <use xlink:href="#DejaVuSans-6d" x="764.445312"/>
    <use xlink:href="#DejaVuSans-70" x="861.857422"/>
    <use xlink:href="#DejaVuSans-6f" x="925.333984"/>
    <use xlink:href="#DejaVuSans-6e" x="986.515625"/>
    <use xlink:href="#DejaVuSans-65" x="1049.894531"/>
    <use xlink:href="#DejaVuSans-6e" x="1111.417969"/>
    <use xlink:href="#DejaVuSans-74" x="1174.796875"/>
    <use xlink:href="#DejaVuSans-73" x="1214.005859"/>
    <use xlink:href="#DejaVuSans-20" x="1266.105469"/>
    <use xlink:href="#DejaVuSans-77" x="1297.892578"/>
    <use xlink:href="#DejaVuSans-69" x="1379.679688"/>
    <use xlink:href="#DejaVuSans-74" x="1407.462891"/>
    <use xlink:href="#DejaVuSans-68" x="1446.671875"/>
    <use xlink:href="#DejaVuSans-20" x="1510.050781"/>
    <use xlink:href="#DejaVuSans-70" x="1541.837891"/>
    <use xlink:href="#DejaVuSans-72" x="1605.314453"/>
    <use xlink:href="#DejaVuSans-65" x="1644.177734"/>
    <use xlink:href="#DejaVuSans-66" x="1705.701172"/>
    <use xlink:href="#DejaVuSans-69" x="1740.90625"/>
    <use xlink:href="#DejaVuSans-78" x="1768.689453"/>
    <use xlink:href="#DejaVuSans-20" x="1827.869141"/>
    <use xlink:href="#DejaVuSans-27" x="1859.65625"/>
    <use xlink:href="#DejaVuSans-44" x="1887.146484"/>
    <use xlink:href="#DejaVuSans-65" x="1964.148438"/>
    <use xlink:href="#DejaVuSans-70" x="2025.671875"/>
    <use xlink:href="#DejaVuSans-6c" x="2089.148438"/>
    <use xlink:href="#DejaVuSans-6f" x="2116.931641"/>
    <use xlink:href="#DejaVuSans-79" x="2178.113281"/>
    <use xlink:href="#DejaVuSans-6d" x="2237.292969"/>
    <use xlink:href="#DejaVuSans-65" x="2334.705078"/>
    <use xlink:href="#DejaVuSans-6e" x="2396.228516"/>
    <use xlink:href="#DejaVuSans-74" x="2459.607422"/>
    <use xlink:href="#DejaVuSans-27" x="2498.816406"/>
   </g>
  </g>
 </g>
 <defs>
  <clipPath id="p20bdee2ffc">
   <rect x="50.925" y="34.6" width="658.275" height="344.189746"/>
  </clipPath>
 </defs>
</svg>
