<?xml version="1.0" encoding="utf-8" standalone="no"?>
<!DOCTYPE svg PUBLIC "-//W3C//DTD SVG 1.1//EN"
  "http://www.w3.org/Graphics/SVG/1.1/DTD/svg11.dtd">
<svg xmlns:xlink="http://www.w3.org/1999/xlink" width="720pt" height="432pt" viewBox="0 0 720 432" xmlns="http://www.w3.org/2000/svg" version="1.1">
 <metadata>
  <rdf:RDF xmlns:dc="http://purl.org/dc/elements/1.1/" xmlns:cc="http://creativecommons.org/ns#" xmlns:rdf="http://www.w3.org/1999/02/22-rdf-syntax-ns#">
   <cc:Work>
    <dc:type rdf:resource="http://purl.org/dc/dcmitype/StillImage"/>
    <dc:date>2022-06-02T17:41:04.299082</dc:date>
    <dc:format>image/svg+xml</dc:format>
    <dc:creator>
     <cc:Agent>
      <dc:title>Matplotlib v3.5.0, https://matplotlib.org/</dc:title>
     </cc:Agent>
    </dc:creator>
   </cc:Work>
  </rdf:RDF>
 </metadata>
 <defs>
  <style type="text/css">*{stroke-linejoin: round; stroke-linecap: butt}</style>
 </defs>
 <g id="figure_1">
  <g id="patch_1">
   <path d="M 0 432 
L 720 432 
L 720 0 
L 0 0 
z
" style="fill: #ffffff"/>
  </g>
  <g id="axes_1">
   <g id="patch_2">
    <path d="M 57.3 378.789746 
L 709.2 378.789746 
L 709.2 34.6 
L 57.3 34.6 
z
" style="fill: #ffffff"/>
   </g>
   <g id="matplotlib.axis_1">
    <g id="xtick_1">
     <g id="line2d_1">
      <path d="M 64.569201 378.789746 
L 64.569201 34.6 
" clip-path="url(#p38c86fa252)" style="fill: none; stroke: #b0b0b0; stroke-width: 0.8; stroke-linecap: square"/>
     </g>
     <g id="line2d_2">
      <defs>
       <path id="m8c47203fa3" d="M 0 0 
L 0 3.5 
" style="stroke: #000000; stroke-width: 0.8"/>
      </defs>
      <g>
       <use xlink:href="#m8c47203fa3" x="64.569201" y="378.789746" style="stroke: #000000; stroke-width: 0.8"/>
      </g>
     </g>
     <g id="text_1">
      <!-- 2015 -->
      <g transform="translate(41.489011 405.095186)rotate(-30)scale(0.1 -0.1)">
       <defs>
        <path id="DejaVuSans-32" d="M 1228 531 
L 3431 531 
L 3431 0 
L 469 0 
L 469 531 
Q 828 903 1448 1529 
Q 2069 2156 2228 2338 
Q 2531 2678 2651 2914 
Q 2772 3150 2772 3378 
Q 2772 3750 2511 3984 
Q 2250 4219 1831 4219 
Q 1534 4219 1204 4116 
Q 875 4013 500 3803 
L 500 4441 
Q 881 4594 1212 4672 
Q 1544 4750 1819 4750 
Q 2544 4750 2975 4387 
Q 3406 4025 3406 3419 
Q 3406 3131 3298 2873 
Q 3191 2616 2906 2266 
Q 2828 2175 2409 1742 
Q 1991 1309 1228 531 
z
" transform="scale(0.015625)"/>
        <path id="DejaVuSans-30" d="M 2034 4250 
Q 1547 4250 1301 3770 
Q 1056 3291 1056 2328 
Q 1056 1369 1301 889 
Q 1547 409 2034 409 
Q 2525 409 2770 889 
Q 3016 1369 3016 2328 
Q 3016 3291 2770 3770 
Q 2525 4250 2034 4250 
z
M 2034 4750 
Q 2819 4750 3233 4129 
Q 3647 3509 3647 2328 
Q 3647 1150 3233 529 
Q 2819 -91 2034 -91 
Q 1250 -91 836 529 
Q 422 1150 422 2328 
Q 422 3509 836 4129 
Q 1250 4750 2034 4750 
z
" transform="scale(0.015625)"/>
        <path id="DejaVuSans-31" d="M 794 531 
L 1825 531 
L 1825 4091 
L 703 3866 
L 703 4441 
L 1819 4666 
L 2450 4666 
L 2450 531 
L 3481 531 
L 3481 0 
L 794 0 
L 794 531 
z
" transform="scale(0.015625)"/>
        <path id="DejaVuSans-35" d="M 691 4666 
L 3169 4666 
L 3169 4134 
L 1269 4134 
L 1269 2991 
Q 1406 3038 1543 3061 
Q 1681 3084 1819 3084 
Q 2600 3084 3056 2656 
Q 3513 2228 3513 1497 
Q 3513 744 3044 326 
Q 2575 -91 1722 -91 
Q 1428 -91 1123 -41 
Q 819 9 494 109 
L 494 744 
Q 775 591 1075 516 
Q 1375 441 1709 441 
Q 2250 441 2565 725 
Q 2881 1009 2881 1497 
Q 2881 1984 2565 2268 
Q 2250 2553 1709 2553 
Q 1456 2553 1204 2497 
Q 953 2441 691 2322 
L 691 4666 
z
" transform="scale(0.015625)"/>
       </defs>
       <use xlink:href="#DejaVuSans-32"/>
       <use xlink:href="#DejaVuSans-30" x="63.623047"/>
       <use xlink:href="#DejaVuSans-31" x="127.246094"/>
       <use xlink:href="#DejaVuSans-35" x="190.869141"/>
      </g>
     </g>
    </g>
    <g id="xtick_2">
     <g id="line2d_3">
      <path d="M 147.418861 378.789746 
L 147.418861 34.6 
" clip-path="url(#p38c86fa252)" style="fill: none; stroke: #b0b0b0; stroke-width: 0.8; stroke-linecap: square"/>
     </g>
     <g id="line2d_4">
      <g>
       <use xlink:href="#m8c47203fa3" x="147.418861" y="378.789746" style="stroke: #000000; stroke-width: 0.8"/>
      </g>
     </g>
     <g id="text_2">
      <!-- 2016 -->
      <g transform="translate(124.33867 405.095186)rotate(-30)scale(0.1 -0.1)">
       <defs>
        <path id="DejaVuSans-36" d="M 2113 2584 
Q 1688 2584 1439 2293 
Q 1191 2003 1191 1497 
Q 1191 994 1439 701 
Q 1688 409 2113 409 
Q 2538 409 2786 701 
Q 3034 994 3034 1497 
Q 3034 2003 2786 2293 
Q 2538 2584 2113 2584 
z
M 3366 4563 
L 3366 3988 
Q 3128 4100 2886 4159 
Q 2644 4219 2406 4219 
Q 1781 4219 1451 3797 
Q 1122 3375 1075 2522 
Q 1259 2794 1537 2939 
Q 1816 3084 2150 3084 
Q 2853 3084 3261 2657 
Q 3669 2231 3669 1497 
Q 3669 778 3244 343 
Q 2819 -91 2113 -91 
Q 1303 -91 875 529 
Q 447 1150 447 2328 
Q 447 3434 972 4092 
Q 1497 4750 2381 4750 
Q 2619 4750 2861 4703 
Q 3103 4656 3366 4563 
z
" transform="scale(0.015625)"/>
       </defs>
       <use xlink:href="#DejaVuSans-32"/>
       <use xlink:href="#DejaVuSans-30" x="63.623047"/>
       <use xlink:href="#DejaVuSans-31" x="127.246094"/>
       <use xlink:href="#DejaVuSans-36" x="190.869141"/>
      </g>
     </g>
    </g>
    <g id="xtick_3">
     <g id="line2d_5">
      <path d="M 230.495506 378.789746 
L 230.495506 34.6 
" clip-path="url(#p38c86fa252)" style="fill: none; stroke: #b0b0b0; stroke-width: 0.8; stroke-linecap: square"/>
     </g>
     <g id="line2d_6">
      <g>
       <use xlink:href="#m8c47203fa3" x="230.495506" y="378.789746" style="stroke: #000000; stroke-width: 0.8"/>
      </g>
     </g>
     <g id="text_3">
      <!-- 2017 -->
      <g transform="translate(207.415315 405.095186)rotate(-30)scale(0.1 -0.1)">
       <defs>
        <path id="DejaVuSans-37" d="M 525 4666 
L 3525 4666 
L 3525 4397 
L 1831 0 
L 1172 0 
L 2766 4134 
L 525 4134 
L 525 4666 
z
" transform="scale(0.015625)"/>
       </defs>
       <use xlink:href="#DejaVuSans-32"/>
       <use xlink:href="#DejaVuSans-30" x="63.623047"/>
       <use xlink:href="#DejaVuSans-31" x="127.246094"/>
       <use xlink:href="#DejaVuSans-37" x="190.869141"/>
      </g>
     </g>
    </g>
    <g id="xtick_4">
     <g id="line2d_7">
      <path d="M 313.345165 378.789746 
L 313.345165 34.6 
" clip-path="url(#p38c86fa252)" style="fill: none; stroke: #b0b0b0; stroke-width: 0.8; stroke-linecap: square"/>
     </g>
     <g id="line2d_8">
      <g>
       <use xlink:href="#m8c47203fa3" x="313.345165" y="378.789746" style="stroke: #000000; stroke-width: 0.8"/>
      </g>
     </g>
     <g id="text_4">
      <!-- 2018 -->
      <g transform="translate(290.264975 405.095186)rotate(-30)scale(0.1 -0.1)">
       <defs>
        <path id="DejaVuSans-38" d="M 2034 2216 
Q 1584 2216 1326 1975 
Q 1069 1734 1069 1313 
Q 1069 891 1326 650 
Q 1584 409 2034 409 
Q 2484 409 2743 651 
Q 3003 894 3003 1313 
Q 3003 1734 2745 1975 
Q 2488 2216 2034 2216 
z
M 1403 2484 
Q 997 2584 770 2862 
Q 544 3141 544 3541 
Q 544 4100 942 4425 
Q 1341 4750 2034 4750 
Q 2731 4750 3128 4425 
Q 3525 4100 3525 3541 
Q 3525 3141 3298 2862 
Q 3072 2584 2669 2484 
Q 3125 2378 3379 2068 
Q 3634 1759 3634 1313 
Q 3634 634 3220 271 
Q 2806 -91 2034 -91 
Q 1263 -91 848 271 
Q 434 634 434 1313 
Q 434 1759 690 2068 
Q 947 2378 1403 2484 
z
M 1172 3481 
Q 1172 3119 1398 2916 
Q 1625 2713 2034 2713 
Q 2441 2713 2670 2916 
Q 2900 3119 2900 3481 
Q 2900 3844 2670 4047 
Q 2441 4250 2034 4250 
Q 1625 4250 1398 4047 
Q 1172 3844 1172 3481 
z
" transform="scale(0.015625)"/>
       </defs>
       <use xlink:href="#DejaVuSans-32"/>
       <use xlink:href="#DejaVuSans-30" x="63.623047"/>
       <use xlink:href="#DejaVuSans-31" x="127.246094"/>
       <use xlink:href="#DejaVuSans-38" x="190.869141"/>
      </g>
     </g>
    </g>
    <g id="xtick_5">
     <g id="line2d_9">
      <path d="M 396.194824 378.789746 
L 396.194824 34.6 
" clip-path="url(#p38c86fa252)" style="fill: none; stroke: #b0b0b0; stroke-width: 0.8; stroke-linecap: square"/>
     </g>
     <g id="line2d_10">
      <g>
       <use xlink:href="#m8c47203fa3" x="396.194824" y="378.789746" style="stroke: #000000; stroke-width: 0.8"/>
      </g>
     </g>
     <g id="text_5">
      <!-- 2019 -->
      <g transform="translate(373.114634 405.095186)rotate(-30)scale(0.1 -0.1)">
       <defs>
        <path id="DejaVuSans-39" d="M 703 97 
L 703 672 
Q 941 559 1184 500 
Q 1428 441 1663 441 
Q 2288 441 2617 861 
Q 2947 1281 2994 2138 
Q 2813 1869 2534 1725 
Q 2256 1581 1919 1581 
Q 1219 1581 811 2004 
Q 403 2428 403 3163 
Q 403 3881 828 4315 
Q 1253 4750 1959 4750 
Q 2769 4750 3195 4129 
Q 3622 3509 3622 2328 
Q 3622 1225 3098 567 
Q 2575 -91 1691 -91 
Q 1453 -91 1209 -44 
Q 966 3 703 97 
z
M 1959 2075 
Q 2384 2075 2632 2365 
Q 2881 2656 2881 3163 
Q 2881 3666 2632 3958 
Q 2384 4250 1959 4250 
Q 1534 4250 1286 3958 
Q 1038 3666 1038 3163 
Q 1038 2656 1286 2365 
Q 1534 2075 1959 2075 
z
" transform="scale(0.015625)"/>
       </defs>
       <use xlink:href="#DejaVuSans-32"/>
       <use xlink:href="#DejaVuSans-30" x="63.623047"/>
       <use xlink:href="#DejaVuSans-31" x="127.246094"/>
       <use xlink:href="#DejaVuSans-39" x="190.869141"/>
      </g>
     </g>
    </g>
    <g id="xtick_6">
     <g id="line2d_11">
      <path d="M 479.044484 378.789746 
L 479.044484 34.6 
" clip-path="url(#p38c86fa252)" style="fill: none; stroke: #b0b0b0; stroke-width: 0.8; stroke-linecap: square"/>
     </g>
     <g id="line2d_12">
      <g>
       <use xlink:href="#m8c47203fa3" x="479.044484" y="378.789746" style="stroke: #000000; stroke-width: 0.8"/>
      </g>
     </g>
     <g id="text_6">
      <!-- 2020 -->
      <g transform="translate(455.964294 405.095186)rotate(-30)scale(0.1 -0.1)">
       <use xlink:href="#DejaVuSans-32"/>
       <use xlink:href="#DejaVuSans-30" x="63.623047"/>
       <use xlink:href="#DejaVuSans-32" x="127.246094"/>
       <use xlink:href="#DejaVuSans-30" x="190.869141"/>
      </g>
     </g>
    </g>
    <g id="xtick_7">
     <g id="line2d_13">
      <path d="M 562.121129 378.789746 
L 562.121129 34.6 
" clip-path="url(#p38c86fa252)" style="fill: none; stroke: #b0b0b0; stroke-width: 0.8; stroke-linecap: square"/>
     </g>
     <g id="line2d_14">
      <g>
       <use xlink:href="#m8c47203fa3" x="562.121129" y="378.789746" style="stroke: #000000; stroke-width: 0.8"/>
      </g>
     </g>
     <g id="text_7">
      <!-- 2021 -->
      <g transform="translate(539.040939 405.095186)rotate(-30)scale(0.1 -0.1)">
       <use xlink:href="#DejaVuSans-32"/>
       <use xlink:href="#DejaVuSans-30" x="63.623047"/>
       <use xlink:href="#DejaVuSans-32" x="127.246094"/>
       <use xlink:href="#DejaVuSans-31" x="190.869141"/>
      </g>
     </g>
    </g>
    <g id="xtick_8">
     <g id="line2d_15">
      <path d="M 644.970788 378.789746 
L 644.970788 34.6 
" clip-path="url(#p38c86fa252)" style="fill: none; stroke: #b0b0b0; stroke-width: 0.8; stroke-linecap: square"/>
     </g>
     <g id="line2d_16">
      <g>
       <use xlink:href="#m8c47203fa3" x="644.970788" y="378.789746" style="stroke: #000000; stroke-width: 0.8"/>
      </g>
     </g>
     <g id="text_8">
      <!-- 2022 -->
      <g transform="translate(621.890598 405.095186)rotate(-30)scale(0.1 -0.1)">
       <use xlink:href="#DejaVuSans-32"/>
       <use xlink:href="#DejaVuSans-30" x="63.623047"/>
       <use xlink:href="#DejaVuSans-32" x="127.246094"/>
       <use xlink:href="#DejaVuSans-32" x="190.869141"/>
      </g>
     </g>
    </g>
    <g id="text_9">
     <!-- created time -->
     <g transform="translate(351.321094 418.494686)scale(0.1 -0.1)">
      <defs>
       <path id="DejaVuSans-63" d="M 3122 3366 
L 3122 2828 
Q 2878 2963 2633 3030 
Q 2388 3097 2138 3097 
Q 1578 3097 1268 2742 
Q 959 2388 959 1747 
Q 959 1106 1268 751 
Q 1578 397 2138 397 
Q 2388 397 2633 464 
Q 2878 531 3122 666 
L 3122 134 
Q 2881 22 2623 -34 
Q 2366 -91 2075 -91 
Q 1284 -91 818 406 
Q 353 903 353 1747 
Q 353 2603 823 3093 
Q 1294 3584 2113 3584 
Q 2378 3584 2631 3529 
Q 2884 3475 3122 3366 
z
" transform="scale(0.015625)"/>
       <path id="DejaVuSans-72" d="M 2631 2963 
Q 2534 3019 2420 3045 
Q 2306 3072 2169 3072 
Q 1681 3072 1420 2755 
Q 1159 2438 1159 1844 
L 1159 0 
L 581 0 
L 581 3500 
L 1159 3500 
L 1159 2956 
Q 1341 3275 1631 3429 
Q 1922 3584 2338 3584 
Q 2397 3584 2469 3576 
Q 2541 3569 2628 3553 
L 2631 2963 
z
" transform="scale(0.015625)"/>
       <path id="DejaVuSans-65" d="M 3597 1894 
L 3597 1613 
L 953 1613 
Q 991 1019 1311 708 
Q 1631 397 2203 397 
Q 2534 397 2845 478 
Q 3156 559 3463 722 
L 3463 178 
Q 3153 47 2828 -22 
Q 2503 -91 2169 -91 
Q 1331 -91 842 396 
Q 353 884 353 1716 
Q 353 2575 817 3079 
Q 1281 3584 2069 3584 
Q 2775 3584 3186 3129 
Q 3597 2675 3597 1894 
z
M 3022 2063 
Q 3016 2534 2758 2815 
Q 2500 3097 2075 3097 
Q 1594 3097 1305 2825 
Q 1016 2553 972 2059 
L 3022 2063 
z
" transform="scale(0.015625)"/>
       <path id="DejaVuSans-61" d="M 2194 1759 
Q 1497 1759 1228 1600 
Q 959 1441 959 1056 
Q 959 750 1161 570 
Q 1363 391 1709 391 
Q 2188 391 2477 730 
Q 2766 1069 2766 1631 
L 2766 1759 
L 2194 1759 
z
M 3341 1997 
L 3341 0 
L 2766 0 
L 2766 531 
Q 2569 213 2275 61 
Q 1981 -91 1556 -91 
Q 1019 -91 701 211 
Q 384 513 384 1019 
Q 384 1609 779 1909 
Q 1175 2209 1959 2209 
L 2766 2209 
L 2766 2266 
Q 2766 2663 2505 2880 
Q 2244 3097 1772 3097 
Q 1472 3097 1187 3025 
Q 903 2953 641 2809 
L 641 3341 
Q 956 3463 1253 3523 
Q 1550 3584 1831 3584 
Q 2591 3584 2966 3190 
Q 3341 2797 3341 1997 
z
" transform="scale(0.015625)"/>
       <path id="DejaVuSans-74" d="M 1172 4494 
L 1172 3500 
L 2356 3500 
L 2356 3053 
L 1172 3053 
L 1172 1153 
Q 1172 725 1289 603 
Q 1406 481 1766 481 
L 2356 481 
L 2356 0 
L 1766 0 
Q 1100 0 847 248 
Q 594 497 594 1153 
L 594 3053 
L 172 3053 
L 172 3500 
L 594 3500 
L 594 4494 
L 1172 4494 
z
" transform="scale(0.015625)"/>
       <path id="DejaVuSans-64" d="M 2906 2969 
L 2906 4863 
L 3481 4863 
L 3481 0 
L 2906 0 
L 2906 525 
Q 2725 213 2448 61 
Q 2172 -91 1784 -91 
Q 1150 -91 751 415 
Q 353 922 353 1747 
Q 353 2572 751 3078 
Q 1150 3584 1784 3584 
Q 2172 3584 2448 3432 
Q 2725 3281 2906 2969 
z
M 947 1747 
Q 947 1113 1208 752 
Q 1469 391 1925 391 
Q 2381 391 2643 752 
Q 2906 1113 2906 1747 
Q 2906 2381 2643 2742 
Q 2381 3103 1925 3103 
Q 1469 3103 1208 2742 
Q 947 2381 947 1747 
z
" transform="scale(0.015625)"/>
       <path id="DejaVuSans-20" transform="scale(0.015625)"/>
       <path id="DejaVuSans-69" d="M 603 3500 
L 1178 3500 
L 1178 0 
L 603 0 
L 603 3500 
z
M 603 4863 
L 1178 4863 
L 1178 4134 
L 603 4134 
L 603 4863 
z
" transform="scale(0.015625)"/>
       <path id="DejaVuSans-6d" d="M 3328 2828 
Q 3544 3216 3844 3400 
Q 4144 3584 4550 3584 
Q 5097 3584 5394 3201 
Q 5691 2819 5691 2113 
L 5691 0 
L 5113 0 
L 5113 2094 
Q 5113 2597 4934 2840 
Q 4756 3084 4391 3084 
Q 3944 3084 3684 2787 
Q 3425 2491 3425 1978 
L 3425 0 
L 2847 0 
L 2847 2094 
Q 2847 2600 2669 2842 
Q 2491 3084 2119 3084 
Q 1678 3084 1418 2786 
Q 1159 2488 1159 1978 
L 1159 0 
L 581 0 
L 581 3500 
L 1159 3500 
L 1159 2956 
Q 1356 3278 1631 3431 
Q 1906 3584 2284 3584 
Q 2666 3584 2933 3390 
Q 3200 3197 3328 2828 
z
" transform="scale(0.015625)"/>
      </defs>
      <use xlink:href="#DejaVuSans-63"/>
      <use xlink:href="#DejaVuSans-72" x="54.980469"/>
      <use xlink:href="#DejaVuSans-65" x="93.84375"/>
      <use xlink:href="#DejaVuSans-61" x="155.367188"/>
      <use xlink:href="#DejaVuSans-74" x="216.646484"/>
      <use xlink:href="#DejaVuSans-65" x="255.855469"/>
      <use xlink:href="#DejaVuSans-64" x="317.378906"/>
      <use xlink:href="#DejaVuSans-20" x="380.855469"/>
      <use xlink:href="#DejaVuSans-74" x="412.642578"/>
      <use xlink:href="#DejaVuSans-69" x="451.851562"/>
      <use xlink:href="#DejaVuSans-6d" x="479.634766"/>
      <use xlink:href="#DejaVuSans-65" x="577.046875"/>
     </g>
    </g>
   </g>
   <g id="matplotlib.axis_2">
    <g id="ytick_1">
     <g id="line2d_17">
      <path d="M 57.3 363.342295 
L 709.2 363.342295 
" clip-path="url(#p38c86fa252)" style="fill: none; stroke: #b0b0b0; stroke-width: 0.8; stroke-linecap: square"/>
     </g>
     <g id="line2d_18">
      <defs>
       <path id="ma5b729fe96" d="M 0 0 
L -3.5 0 
" style="stroke: #000000; stroke-width: 0.8"/>
      </defs>
      <g>
       <use xlink:href="#ma5b729fe96" x="57.3" y="363.342295" style="stroke: #000000; stroke-width: 0.8"/>
      </g>
     </g>
     <g id="text_10">
      <!-- 0 -->
      <g transform="translate(43.9375 367.141514)scale(0.1 -0.1)">
       <use xlink:href="#DejaVuSans-30"/>
      </g>
     </g>
    </g>
    <g id="ytick_2">
     <g id="line2d_19">
      <path d="M 57.3 323.834749 
L 709.2 323.834749 
" clip-path="url(#p38c86fa252)" style="fill: none; stroke: #b0b0b0; stroke-width: 0.8; stroke-linecap: square"/>
     </g>
     <g id="line2d_20">
      <g>
       <use xlink:href="#ma5b729fe96" x="57.3" y="323.834749" style="stroke: #000000; stroke-width: 0.8"/>
      </g>
     </g>
     <g id="text_11">
      <!-- 200 -->
      <g transform="translate(31.2125 327.633967)scale(0.1 -0.1)">
       <use xlink:href="#DejaVuSans-32"/>
       <use xlink:href="#DejaVuSans-30" x="63.623047"/>
       <use xlink:href="#DejaVuSans-30" x="127.246094"/>
      </g>
     </g>
    </g>
    <g id="ytick_3">
     <g id="line2d_21">
      <path d="M 57.3 284.327202 
L 709.2 284.327202 
" clip-path="url(#p38c86fa252)" style="fill: none; stroke: #b0b0b0; stroke-width: 0.8; stroke-linecap: square"/>
     </g>
     <g id="line2d_22">
      <g>
       <use xlink:href="#ma5b729fe96" x="57.3" y="284.327202" style="stroke: #000000; stroke-width: 0.8"/>
      </g>
     </g>
     <g id="text_12">
      <!-- 400 -->
      <g transform="translate(31.2125 288.126421)scale(0.1 -0.1)">
       <defs>
        <path id="DejaVuSans-34" d="M 2419 4116 
L 825 1625 
L 2419 1625 
L 2419 4116 
z
M 2253 4666 
L 3047 4666 
L 3047 1625 
L 3713 1625 
L 3713 1100 
L 3047 1100 
L 3047 0 
L 2419 0 
L 2419 1100 
L 313 1100 
L 313 1709 
L 2253 4666 
z
" transform="scale(0.015625)"/>
       </defs>
       <use xlink:href="#DejaVuSans-34"/>
       <use xlink:href="#DejaVuSans-30" x="63.623047"/>
       <use xlink:href="#DejaVuSans-30" x="127.246094"/>
      </g>
     </g>
    </g>
    <g id="ytick_4">
     <g id="line2d_23">
      <path d="M 57.3 244.819655 
L 709.2 244.819655 
" clip-path="url(#p38c86fa252)" style="fill: none; stroke: #b0b0b0; stroke-width: 0.8; stroke-linecap: square"/>
     </g>
     <g id="line2d_24">
      <g>
       <use xlink:href="#ma5b729fe96" x="57.3" y="244.819655" style="stroke: #000000; stroke-width: 0.8"/>
      </g>
     </g>
     <g id="text_13">
      <!-- 600 -->
      <g transform="translate(31.2125 248.618874)scale(0.1 -0.1)">
       <use xlink:href="#DejaVuSans-36"/>
       <use xlink:href="#DejaVuSans-30" x="63.623047"/>
       <use xlink:href="#DejaVuSans-30" x="127.246094"/>
      </g>
     </g>
    </g>
    <g id="ytick_5">
     <g id="line2d_25">
      <path d="M 57.3 205.312109 
L 709.2 205.312109 
" clip-path="url(#p38c86fa252)" style="fill: none; stroke: #b0b0b0; stroke-width: 0.8; stroke-linecap: square"/>
     </g>
     <g id="line2d_26">
      <g>
       <use xlink:href="#ma5b729fe96" x="57.3" y="205.312109" style="stroke: #000000; stroke-width: 0.8"/>
      </g>
     </g>
     <g id="text_14">
      <!-- 800 -->
      <g transform="translate(31.2125 209.111328)scale(0.1 -0.1)">
       <use xlink:href="#DejaVuSans-38"/>
       <use xlink:href="#DejaVuSans-30" x="63.623047"/>
       <use xlink:href="#DejaVuSans-30" x="127.246094"/>
      </g>
     </g>
    </g>
    <g id="ytick_6">
     <g id="line2d_27">
      <path d="M 57.3 165.804562 
L 709.2 165.804562 
" clip-path="url(#p38c86fa252)" style="fill: none; stroke: #b0b0b0; stroke-width: 0.8; stroke-linecap: square"/>
     </g>
     <g id="line2d_28">
      <g>
       <use xlink:href="#ma5b729fe96" x="57.3" y="165.804562" style="stroke: #000000; stroke-width: 0.8"/>
      </g>
     </g>
     <g id="text_15">
      <!-- 1000 -->
      <g transform="translate(24.85 169.603781)scale(0.1 -0.1)">
       <use xlink:href="#DejaVuSans-31"/>
       <use xlink:href="#DejaVuSans-30" x="63.623047"/>
       <use xlink:href="#DejaVuSans-30" x="127.246094"/>
       <use xlink:href="#DejaVuSans-30" x="190.869141"/>
      </g>
     </g>
    </g>
    <g id="ytick_7">
     <g id="line2d_29">
      <path d="M 57.3 126.297016 
L 709.2 126.297016 
" clip-path="url(#p38c86fa252)" style="fill: none; stroke: #b0b0b0; stroke-width: 0.8; stroke-linecap: square"/>
     </g>
     <g id="line2d_30">
      <g>
       <use xlink:href="#ma5b729fe96" x="57.3" y="126.297016" style="stroke: #000000; stroke-width: 0.8"/>
      </g>
     </g>
     <g id="text_16">
      <!-- 1200 -->
      <g transform="translate(24.85 130.096234)scale(0.1 -0.1)">
       <use xlink:href="#DejaVuSans-31"/>
       <use xlink:href="#DejaVuSans-32" x="63.623047"/>
       <use xlink:href="#DejaVuSans-30" x="127.246094"/>
       <use xlink:href="#DejaVuSans-30" x="190.869141"/>
      </g>
     </g>
    </g>
    <g id="ytick_8">
     <g id="line2d_31">
      <path d="M 57.3 86.789469 
L 709.2 86.789469 
" clip-path="url(#p38c86fa252)" style="fill: none; stroke: #b0b0b0; stroke-width: 0.8; stroke-linecap: square"/>
     </g>
     <g id="line2d_32">
      <g>
       <use xlink:href="#ma5b729fe96" x="57.3" y="86.789469" style="stroke: #000000; stroke-width: 0.8"/>
      </g>
     </g>
     <g id="text_17">
      <!-- 1400 -->
      <g transform="translate(24.85 90.588688)scale(0.1 -0.1)">
       <use xlink:href="#DejaVuSans-31"/>
       <use xlink:href="#DejaVuSans-34" x="63.623047"/>
       <use xlink:href="#DejaVuSans-30" x="127.246094"/>
       <use xlink:href="#DejaVuSans-30" x="190.869141"/>
      </g>
     </g>
    </g>
    <g id="ytick_9">
     <g id="line2d_33">
      <path d="M 57.3 47.281922 
L 709.2 47.281922 
" clip-path="url(#p38c86fa252)" style="fill: none; stroke: #b0b0b0; stroke-width: 0.8; stroke-linecap: square"/>
     </g>
     <g id="line2d_34">
      <g>
       <use xlink:href="#ma5b729fe96" x="57.3" y="47.281922" style="stroke: #000000; stroke-width: 0.8"/>
      </g>
     </g>
     <g id="text_18">
      <!-- 1600 -->
      <g transform="translate(24.85 51.081141)scale(0.1 -0.1)">
       <use xlink:href="#DejaVuSans-31"/>
       <use xlink:href="#DejaVuSans-36" x="63.623047"/>
       <use xlink:href="#DejaVuSans-30" x="127.246094"/>
       <use xlink:href="#DejaVuSans-30" x="190.869141"/>
      </g>
     </g>
    </g>
    <g id="text_19">
     <!-- count -->
     <g transform="translate(18.770312 220.801123)rotate(-90)scale(0.1 -0.1)">
      <defs>
       <path id="DejaVuSans-6f" d="M 1959 3097 
Q 1497 3097 1228 2736 
Q 959 2375 959 1747 
Q 959 1119 1226 758 
Q 1494 397 1959 397 
Q 2419 397 2687 759 
Q 2956 1122 2956 1747 
Q 2956 2369 2687 2733 
Q 2419 3097 1959 3097 
z
M 1959 3584 
Q 2709 3584 3137 3096 
Q 3566 2609 3566 1747 
Q 3566 888 3137 398 
Q 2709 -91 1959 -91 
Q 1206 -91 779 398 
Q 353 888 353 1747 
Q 353 2609 779 3096 
Q 1206 3584 1959 3584 
z
" transform="scale(0.015625)"/>
       <path id="DejaVuSans-75" d="M 544 1381 
L 544 3500 
L 1119 3500 
L 1119 1403 
Q 1119 906 1312 657 
Q 1506 409 1894 409 
Q 2359 409 2629 706 
Q 2900 1003 2900 1516 
L 2900 3500 
L 3475 3500 
L 3475 0 
L 2900 0 
L 2900 538 
Q 2691 219 2414 64 
Q 2138 -91 1772 -91 
Q 1169 -91 856 284 
Q 544 659 544 1381 
z
M 1991 3584 
L 1991 3584 
z
" transform="scale(0.015625)"/>
       <path id="DejaVuSans-6e" d="M 3513 2113 
L 3513 0 
L 2938 0 
L 2938 2094 
Q 2938 2591 2744 2837 
Q 2550 3084 2163 3084 
Q 1697 3084 1428 2787 
Q 1159 2491 1159 1978 
L 1159 0 
L 581 0 
L 581 3500 
L 1159 3500 
L 1159 2956 
Q 1366 3272 1645 3428 
Q 1925 3584 2291 3584 
Q 2894 3584 3203 3211 
Q 3513 2838 3513 2113 
z
" transform="scale(0.015625)"/>
      </defs>
      <use xlink:href="#DejaVuSans-63"/>
      <use xlink:href="#DejaVuSans-6f" x="54.980469"/>
      <use xlink:href="#DejaVuSans-75" x="116.162109"/>
      <use xlink:href="#DejaVuSans-6e" x="179.541016"/>
      <use xlink:href="#DejaVuSans-74" x="242.919922"/>
     </g>
    </g>
   </g>
   <g id="line2d_35">
    <path d="M 86.931818 363.144758 
L 99.670531 362.749682 
L 99.849482 362.552144 
L 101.521227 362.354607 
L 128.021051 361.761993 
L 133.876551 361.564456 
L 134.164266 361.366918 
L 139.541066 360.971842 
L 140.603643 360.774305 
L 140.666338 360.576767 
L 145.91058 360.181692 
L 165.075682 359.984154 
L 165.648268 359.786616 
L 165.734736 359.589078 
L 165.950658 359.391541 
L 169.580504 359.194003 
L 170.470946 358.996465 
L 170.696681 358.403852 
L 170.899425 358.206314 
L 170.934605 358.008776 
L 171.338952 357.613701 
L 171.451995 357.218626 
L 172.272019 357.021088 
L 172.526382 356.82355 
L 172.543319 356.626012 
L 173.013242 356.230937 
L 173.731265 356.033399 
L 173.875797 355.835861 
L 175.433863 355.04571 
L 175.455668 354.848173 
L 176.803822 354.650635 
L 177.214321 354.453097 
L 179.281816 354.058022 
L 180.468159 353.070333 
L 181.567979 352.675258 
L 183.14083 352.280182 
L 183.30262 352.082644 
L 183.871418 351.885107 
L 184.799962 351.687569 
L 185.188469 351.490031 
L 185.254264 351.292494 
L 185.631414 351.094956 
L 185.68031 350.897418 
L 187.009496 350.69988 
L 187.405749 350.304805 
L 188.009383 350.107267 
L 188.093173 349.909729 
L 188.403588 349.712192 
L 189.548049 349.514654 
L 190.470093 349.119578 
L 191.469026 348.922041 
L 191.659783 348.526965 
L 193.200168 348.13189 
L 193.876405 347.539277 
L 194.261608 347.341739 
L 194.333681 347.144201 
L 194.755477 346.749126 
L 194.763085 346.551588 
L 194.951504 346.35405 
L 195.883513 346.156512 
L 197.929129 345.958975 
L 199.001919 345.563899 
L 199.536722 345.366362 
L 199.675493 345.168824 
L 199.952867 344.971286 
L 201.881241 344.773748 
L 202.884617 344.378673 
L 203.327848 343.983597 
L 206.103626 343.78606 
L 206.123519 343.588522 
L 206.293488 343.390984 
L 206.327073 342.995909 
L 207.007501 342.798371 
L 207.705607 342.205758 
L 208.602809 342.00822 
L 209.047866 341.415607 
L 209.084564 341.218069 
L 209.292689 340.822994 
L 210.61262 340.625456 
L 213.290561 340.427918 
L 213.5044 340.23038 
L 214.20863 340.032843 
L 214.247218 339.835305 
L 214.924914 339.637767 
L 214.949761 339.44023 
L 215.861793 339.242692 
L 217.481954 339.045154 
L 217.779888 338.847616 
L 219.922669 338.452541 
L 219.926394 338.255003 
L 220.189064 338.057465 
L 221.303954 337.859928 
L 223.113978 336.674701 
L 223.617886 336.477164 
L 223.848539 335.88455 
L 224.383875 335.687013 
L 224.607224 335.094399 
L 224.947534 334.896862 
L 224.948456 334.699324 
L 225.160375 334.304248 
L 225.188821 334.106711 
L 225.383624 333.711635 
L 225.390597 333.514098 
L 225.524326 333.31656 
L 226.47968 332.921484 
L 226.489963 332.723947 
L 226.714418 332.526409 
L 226.742008 332.328871 
L 227.646842 332.131333 
L 227.904933 331.933796 
L 229.410458 331.53872 
L 231.263428 331.341182 
L 231.753651 330.748569 
L 232.934805 330.551032 
L 233.09891 330.155956 
L 233.129576 329.958418 
L 233.772975 329.365805 
L 233.999432 329.168267 
L 234.006171 328.97073 
L 234.441841 328.575654 
L 234.5234 328.180579 
L 234.83091 327.983041 
L 234.872361 327.785503 
L 235.779173 327.587966 
L 235.783303 327.390428 
L 237.682241 326.995352 
L 237.741425 326.797815 
L 238.789512 326.205201 
L 238.824135 325.810126 
L 238.95379 325.612588 
L 240.973121 325.415051 
L 241.242719 325.217513 
L 241.249652 325.019975 
L 241.484106 324.822437 
L 241.901578 324.6249 
L 242.383418 323.834749 
L 242.791235 323.439673 
L 242.842065 323.044598 
L 243.638975 322.451985 
L 243.645774 322.254447 
L 244.274319 321.859371 
L 244.409619 321.464296 
L 244.556151 321.06922 
L 244.556485 320.871683 
L 245.453718 320.674145 
L 245.620707 320.279069 
L 245.892816 320.081532 
L 246.688019 319.883994 
L 247.18362 319.488919 
L 247.220896 319.093843 
L 247.846138 318.303692 
L 248.249949 318.106154 
L 248.560246 317.316003 
L 248.6363 316.920928 
L 248.741173 316.525853 
L 249.262443 316.328315 
L 249.411597 315.933239 
L 249.927967 315.735702 
L 250.432608 314.945551 
L 250.560242 314.352937 
L 250.986344 313.957862 
L 251.515504 313.760324 
L 251.612637 313.365249 
L 251.900105 313.167711 
L 252.094154 312.37756 
L 252.363465 311.784947 
L 252.415822 310.994796 
L 253.486945 310.797258 
L 253.755781 310.007107 
L 254.901461 309.80957 
L 254.914247 309.612032 
L 255.12144 309.414494 
L 255.121768 309.216956 
L 255.268339 309.019419 
L 256.245225 308.821881 
L 256.532078 307.636655 
L 256.875154 307.439117 
L 257.040291 306.846504 
L 257.202904 306.648966 
L 258.053363 306.451428 
L 258.102987 306.056353 
L 258.421153 305.661277 
L 258.435111 305.463739 
L 258.704984 305.266202 
L 259.405402 305.068664 
L 259.478345 304.673589 
L 259.498086 304.278513 
L 259.639056 303.883438 
L 259.643269 303.6859 
L 259.855666 303.290824 
L 259.897375 303.093287 
L 260.217385 302.895749 
L 260.247941 302.698211 
L 260.609854 302.105598 
L 260.612497 301.90806 
L 260.979257 301.710523 
L 261.140251 301.117909 
L 261.226059 300.722834 
L 261.277561 300.130221 
L 261.502663 299.735145 
L 261.918157 299.142532 
L 263.4361 298.747457 
L 263.479359 298.549919 
L 264.211284 297.759768 
L 264.230449 297.56223 
L 265.125465 296.772079 
L 265.180856 296.377004 
L 265.96586 295.389315 
L 266.245593 295.191777 
L 266.973552 294.99424 
L 267.167375 294.796702 
L 267.1681 294.599164 
L 268.211962 293.2164 
L 268.859214 293.018862 
L 269.212936 292.228711 
L 269.845072 291.636098 
L 270.515855 291.43856 
L 270.572289 291.043485 
L 270.814533 290.845947 
L 270.81664 290.64841 
L 271.034554 290.450872 
L 271.044403 290.253334 
L 272.463976 290.055796 
L 273.02014 289.265645 
L 273.92641 289.068108 
L 274.349733 288.673032 
L 274.459253 288.475494 
L 275.243475 288.080419 
L 275.344139 287.882881 
L 275.75963 287.685344 
L 276.040414 287.290268 
L 278.485874 286.895193 
L 279.212852 286.697655 
L 279.387836 286.500117 
L 280.096333 286.302579 
L 280.150854 286.105042 
L 280.537598 285.907504 
L 280.581188 285.709966 
L 280.827924 285.512428 
L 280.829558 285.314891 
L 281.565863 284.919815 
L 281.650536 284.52474 
L 281.903296 284.327202 
L 281.94624 284.129664 
L 282.597562 283.734589 
L 283.470128 283.537051 
L 284.126749 283.141976 
L 285.284834 282.7469 
L 285.347403 282.351825 
L 285.731801 282.154287 
L 285.844122 281.956749 
L 287.021858 281.561674 
L 287.329778 281.364136 
L 288.666005 281.166598 
L 288.874986 280.376447 
L 289.7635 280.17891 
L 289.764577 279.981372 
L 291.437341 279.586296 
L 291.661376 279.388759 
L 291.70144 279.191221 
L 292.031665 278.993683 
L 294.18336 278.796146 
L 294.722119 278.598608 
L 295.045891 278.203532 
L 295.071729 278.005995 
L 295.363339 277.610919 
L 295.947217 277.413381 
L 295.995373 277.018306 
L 296.208997 276.62323 
L 296.895273 276.228155 
L 299.44487 275.635542 
L 300.02616 275.042929 
L 300.032644 274.845391 
L 300.828333 274.647853 
L 301.509365 274.05524 
L 302.478755 273.857702 
L 302.772402 273.067551 
L 302.782974 272.870014 
L 303.15875 272.474938 
L 303.182176 272.2774 
L 304.019897 272.079863 
L 304.239232 271.882325 
L 304.425331 271.487249 
L 305.188033 270.499561 
L 306.447574 270.104485 
L 307.779389 269.906948 
L 308.148064 269.70941 
L 310.938429 268.919259 
L 310.944595 268.524183 
L 311.405911 267.93157 
L 312.519519 267.734032 
L 312.58846 267.536495 
L 314.167067 267.338957 
L 314.172645 267.141419 
L 314.345931 266.943882 
L 315.471448 266.548806 
L 317.608723 266.351268 
L 317.86958 266.153731 
L 317.944553 265.956193 
L 318.617489 265.758655 
L 319.092881 265.36358 
L 320.737918 265.166042 
L 321.128312 264.968504 
L 323.194678 264.573429 
L 323.214644 264.375891 
L 323.873322 264.178353 
L 323.906734 263.980816 
L 326.840746 263.58574 
L 326.890617 263.190665 
L 327.067794 262.795589 
L 327.079945 262.598051 
L 327.257921 262.400514 
L 327.775245 262.202976 
L 327.785191 262.005438 
L 328.44218 261.8079 
L 328.673285 261.610363 
L 329.564039 261.412825 
L 330.122392 261.01775 
L 331.925386 260.820212 
L 331.959636 260.622674 
L 333.269941 260.425136 
L 333.296076 259.832523 
L 338.854698 259.634985 
L 338.878915 259.437448 
L 340.054975 259.23991 
L 342.902136 259.042372 
L 343.628224 258.647297 
L 344.143993 258.449759 
L 344.319864 258.054684 
L 347.22378 256.869457 
L 347.229367 256.671919 
L 348.637996 256.474382 
L 348.6668 256.276844 
L 350.486613 256.079306 
L 350.539768 255.881768 
L 351.657516 255.684231 
L 352.452992 255.289155 
L 353.650718 255.091618 
L 354.730945 254.103929 
L 355.035699 253.906391 
L 355.463422 252.721165 
L 356.125103 252.523627 
L 356.629115 252.128552 
L 357.735506 251.733476 
L 357.948376 251.535938 
L 357.986083 251.338401 
L 358.34575 250.943325 
L 358.428245 250.745787 
L 359.052576 250.54825 
L 359.116336 250.350712 
L 359.491049 249.955637 
L 359.5555 249.560561 
L 359.743129 249.363023 
L 359.756695 249.165486 
L 360.017098 248.967948 
L 360.020455 248.77041 
L 360.248675 248.375335 
L 360.644363 247.782721 
L 360.865477 247.387646 
L 360.914163 247.190108 
L 361.154218 246.992571 
L 361.155161 246.795033 
L 361.695991 246.399957 
L 361.757138 246.20242 
L 361.972905 246.004882 
L 362.074778 245.609806 
L 362.757804 245.214731 
L 362.971181 244.819655 
L 363.032394 244.622118 
L 365.49064 244.029505 
L 365.849505 243.634429 
L 366.125148 243.041816 
L 366.501226 242.844278 
L 366.513364 242.64674 
L 367.685257 241.856589 
L 368.197947 241.659052 
L 368.347385 241.461514 
L 369.017577 241.263976 
L 369.046676 241.066439 
L 369.982171 240.671363 
L 372.49173 240.276288 
L 372.968878 240.07875 
L 373.106842 239.881212 
L 374.296813 239.288599 
L 374.666807 238.893523 
L 374.754664 238.695986 
L 375.611776 238.498448 
L 375.6894 238.30091 
L 376.103157 237.905835 
L 376.330568 237.708297 
L 377.475063 237.313222 
L 377.712832 237.115684 
L 379.003032 236.918146 
L 379.078008 236.720608 
L 380.158332 236.325533 
L 380.872598 234.547693 
L 382.024254 233.95508 
L 382.164026 233.560005 
L 382.459118 233.362467 
L 382.480981 232.967391 
L 382.931623 232.177241 
L 384.065341 231.979703 
L 384.09533 231.782165 
L 384.275258 231.584627 
L 384.300221 231.38709 
L 385.196545 230.992014 
L 386.756959 230.794476 
L 387.484631 230.004325 
L 388.171349 229.806788 
L 388.334024 229.411712 
L 388.383609 229.214175 
L 388.605642 229.016637 
L 388.617814 228.819099 
L 389.229602 228.028948 
L 389.885348 227.633873 
L 390.115702 227.436335 
L 390.136695 227.238797 
L 390.412753 227.041259 
L 391.336127 226.843722 
L 391.487059 226.448646 
L 391.729492 225.856033 
L 393.11539 225.26342 
L 393.15569 225.065882 
L 393.5568 224.868344 
L 394.415062 224.670807 
L 394.626321 224.473269 
L 395.204007 224.275731 
L 395.318309 223.880656 
L 396.007588 223.48558 
L 396.800121 222.695429 
L 396.806025 222.497892 
L 397.830837 222.300354 
L 398.095527 221.905278 
L 398.335302 221.707741 
L 399.473428 221.510203 
L 402.458672 221.312665 
L 403.13935 221.115127 
L 403.271348 220.720052 
L 403.420494 220.324977 
L 404.031326 220.127439 
L 404.069286 219.929901 
L 404.72913 219.732363 
L 409.009696 219.337288 
L 409.032058 219.13975 
L 409.498618 218.744675 
L 410.293409 218.547137 
L 410.361712 218.349599 
L 410.920485 218.152061 
L 412.218195 217.954524 
L 413.00911 217.361911 
L 413.535986 217.164373 
L 413.705979 216.769297 
L 413.999586 216.57176 
L 415.326838 216.374222 
L 415.535291 216.176684 
L 415.580949 215.979146 
L 415.837518 215.781609 
L 416.501892 215.584071 
L 418.98301 215.386533 
L 419.416431 215.188995 
L 420.298322 214.991458 
L 420.623502 214.596382 
L 420.765019 214.201307 
L 421.011277 214.003769 
L 421.051858 213.806231 
L 422.089822 213.608694 
L 422.331147 213.411156 
L 423.093337 213.01608 
L 423.144506 212.621005 
L 423.636638 212.423467 
L 423.817291 212.028392 
L 424.163583 211.435779 
L 424.903479 210.843165 
L 424.977783 210.250552 
L 425.559577 209.460401 
L 426.38225 209.262864 
L 426.727041 209.065326 
L 426.816157 208.67025 
L 427.173267 208.275175 
L 427.284756 207.880099 
L 428.068446 207.485024 
L 428.404172 205.904722 
L 428.533832 205.707184 
L 429.400333 205.509647 
L 429.471507 204.917033 
L 430.30256 204.521958 
L 430.339719 204.126882 
L 431.094458 203.534269 
L 431.484579 202.941656 
L 431.529897 202.546581 
L 432.571497 201.361354 
L 433.089021 200.176128 
L 433.285379 199.97859 
L 433.298281 199.781052 
L 433.494715 199.583515 
L 433.527292 199.385977 
L 434.158548 199.188439 
L 434.198543 198.990901 
L 434.416872 198.595826 
L 434.673045 197.805675 
L 435.018975 197.608137 
L 435.203479 196.817986 
L 435.709895 196.620449 
L 436.157406 194.842609 
L 436.479336 194.645071 
L 436.591883 193.85492 
L 436.816247 193.657383 
L 437.366413 193.459845 
L 437.491857 192.669694 
L 437.603345 192.472156 
L 437.952747 192.274618 
L 438.06866 191.484468 
L 438.900527 191.28693 
L 439.351224 190.101703 
L 439.398536 189.904166 
L 439.640084 189.50909 
L 439.65111 189.311552 
L 439.836229 189.114015 
L 440.564532 188.916477 
L 440.807183 188.718939 
L 440.859571 188.521402 
L 441.163379 188.323864 
L 441.252526 187.928788 
L 441.331924 187.533713 
L 442.310328 187.336175 
L 442.884078 186.743562 
L 443.324398 186.348486 
L 444.4352 185.755873 
L 444.621044 185.558336 
L 444.629598 185.360798 
L 445.266741 185.16326 
L 445.29192 184.965722 
L 445.511234 184.768185 
L 445.512763 184.570647 
L 445.775659 184.373109 
L 445.811924 184.175571 
L 446.958726 183.978034 
L 447.075623 183.780496 
L 447.712514 183.38542 
L 453.001504 183.187883 
L 455.073177 182.59527 
L 457.316738 182.397732 
L 459.359751 182.002656 
L 461.193882 181.607581 
L 461.560421 181.410043 
L 461.70354 180.81743 
L 461.717763 180.422354 
L 462.18591 180.027279 
L 462.793304 179.829741 
L 462.876358 179.632204 
L 463.370343 179.237128 
L 463.702884 179.03959 
L 463.816758 178.842053 
L 464.81412 178.644515 
L 464.963896 178.249439 
L 465.042981 177.854364 
L 466.786418 176.866675 
L 466.816388 176.669138 
L 467.584542 176.4716 
L 467.736696 176.274062 
L 468.283163 176.076524 
L 468.305719 175.681449 
L 468.436793 175.286373 
L 468.45811 175.088836 
L 469.204043 174.298685 
L 469.231841 173.903609 
L 470.119811 173.508534 
L 470.220449 173.310996 
L 470.726398 173.113458 
L 470.75284 172.718383 
L 471.141234 172.323307 
L 471.268801 171.928232 
L 471.662854 171.730694 
L 471.713595 171.335619 
L 472.343482 171.138081 
L 474.204302 168.372553 
L 475.764742 167.582402 
L 475.891158 167.384864 
L 476.678837 166.989789 
L 477.71984 166.397175 
L 478.901142 166.199638 
L 478.91201 166.0021 
L 481.899114 165.607025 
L 481.969829 165.409487 
L 482.740612 165.211949 
L 482.742675 165.014411 
L 483.704228 164.816874 
L 483.964886 164.619336 
L 484.413379 164.421798 
L 486.160039 164.026723 
L 487.10248 163.829185 
L 487.356722 163.631647 
L 488.199768 163.434109 
L 488.888603 162.841496 
L 489.980169 162.643959 
L 490.473507 162.248883 
L 490.492914 161.853808 
L 490.710129 161.65627 
L 490.742107 161.458732 
L 491.101676 161.063657 
L 492.33644 160.866119 
L 492.671185 160.668581 
L 492.672115 160.471043 
L 492.945425 160.273506 
L 493.233933 158.693204 
L 493.664472 158.298128 
L 494.827596 158.100591 
L 494.852423 157.705515 
L 495.066378 157.507977 
L 495.069906 157.31044 
L 495.409041 157.112902 
L 496.84361 156.717827 
L 497.94885 156.322751 
L 497.96228 156.125213 
L 498.443641 155.927676 
L 498.590202 155.335062 
L 499.303464 155.137525 
L 499.394694 154.939987 
L 500.052744 154.544911 
L 500.935972 154.347374 
L 501.091381 154.149836 
L 501.589401 153.952298 
L 501.640323 153.754761 
L 501.851987 153.557223 
L 501.859595 153.359685 
L 502.473816 153.162147 
L 502.479854 152.96461 
L 502.714253 152.767072 
L 502.715099 152.569534 
L 503.193691 152.174459 
L 503.455016 151.384308 
L 504.128072 151.18677 
L 504.282782 150.791695 
L 504.738747 150.396619 
L 504.742446 150.199081 
L 504.939981 150.001544 
L 505.064912 149.211393 
L 505.276707 149.013855 
L 506.305739 148.421242 
L 506.369936 148.026166 
L 507.262892 147.828629 
L 507.483877 147.433553 
L 508.164198 147.236015 
L 508.368514 146.248327 
L 508.844497 146.050789 
L 508.868969 145.458176 
L 509.301106 145.260638 
L 509.395155 144.272949 
L 509.588539 143.877874 
L 509.721246 143.680336 
L 510.197593 143.285261 
L 510.225593 143.087723 
L 510.490617 142.890185 
L 510.538368 142.692647 
L 511.111632 142.297572 
L 511.376587 142.100034 
L 511.990887 141.902497 
L 512.091489 140.914808 
L 512.774113 139.927119 
L 512.822954 139.532044 
L 512.981069 139.334506 
L 512.98217 139.136968 
L 513.153481 138.939431 
L 514.037334 138.741893 
L 514.117062 138.544355 
L 514.548156 138.14928 
L 515.247733 137.951742 
L 515.448681 137.556666 
L 515.667133 137.161591 
L 515.6762 136.964053 
L 515.884214 136.766516 
L 515.932919 136.173902 
L 516.105735 135.976365 
L 516.789847 135.778827 
L 517.035842 135.186214 
L 517.118647 134.988676 
L 517.699911 134.791138 
L 517.765416 134.5936 
L 518.01107 134.396063 
L 518.567063 134.198525 
L 518.87682 133.80345 
L 520.213645 133.605912 
L 520.233638 133.408374 
L 522.049473 132.618223 
L 522.073856 132.223148 
L 522.515784 131.432997 
L 523.163094 131.235459 
L 523.21183 131.037921 
L 523.623275 130.840384 
L 523.657039 130.642846 
L 525.20648 129.852695 
L 525.249794 129.457619 
L 525.508591 129.062544 
L 525.648495 128.667468 
L 526.602119 128.469931 
L 526.800527 128.272393 
L 527.97304 127.67978 
L 530.26147 127.482242 
L 530.463981 127.284704 
L 531.612635 126.889629 
L 532.011357 126.692091 
L 533.097082 126.494553 
L 533.326616 126.297016 
L 533.331789 126.099478 
L 533.603457 125.90194 
L 534.499768 125.704402 
L 534.550635 125.506865 
L 536.111104 125.309327 
L 536.357827 125.111789 
L 536.817514 124.914252 
L 538.200583 124.716714 
L 538.41082 124.321638 
L 538.826571 124.124101 
L 538.890012 123.729025 
L 539.985069 123.531487 
L 540.353975 123.33395 
L 540.460611 123.136412 
L 541.053477 122.938874 
L 543.981112 122.741336 
L 544.022138 122.543799 
L 544.534639 122.148723 
L 544.542567 121.951186 
L 545.581916 121.753648 
L 545.876711 121.55611 
L 546.992381 121.358572 
L 547.713955 120.568421 
L 548.775944 120.370884 
L 548.887291 120.173346 
L 549.538736 119.975808 
L 550.201342 119.185657 
L 551.966271 118.593044 
L 552.199559 117.407818 
L 552.631966 117.012742 
L 552.704283 116.815204 
L 553.346649 116.617667 
L 553.815482 115.234903 
L 554.034946 114.839827 
L 556.026981 114.642289 
L 556.549266 114.444752 
L 556.745219 114.247214 
L 556.754257 114.049676 
L 558.146707 113.852138 
L 558.412256 113.457063 
L 559.025337 113.259525 
L 559.264074 113.061988 
L 559.978098 112.86445 
L 561.811727 112.666912 
L 561.996434 112.469374 
L 564.092457 112.271837 
L 564.705026 112.074299 
L 564.75052 111.679223 
L 566.953345 110.889072 
L 567.461341 110.691535 
L 567.91617 110.296459 
L 571.108507 109.308771 
L 572.125178 109.111233 
L 572.484624 108.913695 
L 574.061085 108.716157 
L 574.496421 108.321082 
L 574.50023 108.123544 
L 574.679672 107.926006 
L 576.04221 107.728469 
L 576.511037 107.333393 
L 576.543934 107.135856 
L 577.132515 106.938318 
L 577.429343 106.148167 
L 577.638277 105.950629 
L 577.643176 105.753091 
L 577.840893 105.555554 
L 578.829869 105.358016 
L 578.994706 105.160478 
L 579.064612 104.370327 
L 579.489203 103.975252 
L 579.490104 103.777714 
L 579.677186 103.580176 
L 579.690353 103.382639 
L 580.375487 102.592488 
L 580.413441 101.999874 
L 581.046901 101.209724 
L 581.083946 101.012186 
L 581.295912 100.814648 
L 581.304148 100.61711 
L 582.171148 100.222035 
L 582.462002 100.024497 
L 583.733693 99.629422 
L 583.942099 99.234346 
L 584.199996 98.839271 
L 584.490595 98.444195 
L 585.321519 98.246658 
L 585.348208 98.04912 
L 586.028641 97.456507 
L 586.660527 97.258969 
L 586.788913 96.863893 
L 586.984328 96.666356 
L 587.17084 96.27128 
L 587.225193 96.073743 
L 588.032281 95.678667 
L 588.320702 95.086054 
L 588.81934 94.888516 
L 588.974995 94.690978 
L 589.022893 94.295903 
L 589.340565 94.098365 
L 590.384383 93.900827 
L 590.558313 93.70329 
L 590.975356 93.505752 
L 593.081368 93.110677 
L 593.741633 92.518063 
L 595.130531 92.320526 
L 595.588453 92.122988 
L 595.59252 91.92545 
L 596.318526 91.727912 
L 596.691828 90.937761 
L 596.965745 90.740224 
L 597.821603 90.542686 
L 597.876447 90.345148 
L 598.332357 90.147611 
L 598.454325 89.950073 
L 598.801105 89.554997 
L 600.996201 89.35746 
L 601.281732 88.962384 
L 601.895872 88.764846 
L 601.954103 87.974695 
L 602.274967 87.777158 
L 602.897792 87.57962 
L 603.093525 87.382082 
L 603.101874 87.184545 
L 603.516813 86.789469 
L 604.210119 86.591931 
L 604.434456 85.999318 
L 604.626406 85.80178 
L 605.806791 85.406705 
L 608.340683 85.209167 
L 608.753702 84.814092 
L 608.970536 84.616554 
L 609.449956 84.419016 
L 609.87337 84.023941 
L 610.564541 83.826403 
L 610.601688 83.628865 
L 611.237578 83.036252 
L 611.289286 82.641177 
L 612.407748 82.443639 
L 612.807156 81.851026 
L 613.081314 81.060875 
L 613.799642 80.863337 
L 613.946399 80.665799 
L 613.98841 80.270724 
L 614.348316 79.875648 
L 615.371387 79.678111 
L 615.604291 79.283035 
L 617.322349 78.88796 
L 617.621103 78.690422 
L 618.466561 78.492884 
L 619.207092 77.702733 
L 622.619111 76.912582 
L 623.227621 76.517507 
L 623.275114 76.319969 
L 623.730559 75.924894 
L 623.750888 75.727356 
L 624.176475 75.332281 
L 625.801065 74.739667 
L 625.832567 74.54213 
L 626.652969 74.344592 
L 626.709119 74.147054 
L 626.939084 73.949516 
L 628.990359 73.751979 
L 629.009587 73.554441 
L 629.674927 73.356903 
L 629.77808 72.961828 
L 630.113429 72.76429 
L 631.913752 72.369215 
L 632.143086 71.776601 
L 632.807499 71.579064 
L 632.846685 71.381526 
L 633.700705 71.183988 
L 633.814623 70.98645 
L 634.344726 70.591375 
L 636.492057 69.998762 
L 636.948805 69.603686 
L 639.154406 69.208611 
L 639.890026 68.615998 
L 640.733686 68.41846 
L 640.762908 68.220922 
L 641.026318 68.023384 
L 641.198662 67.628309 
L 645.549564 66.245545 
L 646.202008 65.652932 
L 647.02085 65.455394 
L 647.042487 65.257856 
L 647.791184 65.060318 
L 648.015251 64.467705 
L 648.887371 64.270167 
L 648.937513 64.07263 
L 649.309406 63.875092 
L 649.31146 63.677554 
L 650.288562 63.282479 
L 650.357458 63.084941 
L 651.924201 62.887403 
L 652.007734 62.689866 
L 652.395506 62.492328 
L 653.511814 62.29479 
L 653.512103 62.097252 
L 653.717572 61.702177 
L 653.896234 61.307102 
L 654.120897 61.109564 
L 654.195547 60.516951 
L 654.373373 60.319413 
L 654.952254 60.121875 
L 655.110645 59.7268 
L 655.592148 59.529262 
L 655.71972 59.134186 
L 656.640059 58.936649 
L 656.923467 58.739111 
L 657.028356 58.344036 
L 657.081719 58.146498 
L 657.616406 57.94896 
L 659.188314 57.751422 
L 660.25907 57.356347 
L 660.536756 57.158809 
L 662.027995 56.961271 
L 662.148649 56.763734 
L 663.032137 56.566196 
L 663.408823 56.17112 
L 663.738658 55.973583 
L 663.742171 55.776045 
L 665.499715 55.578507 
L 665.521783 55.38097 
L 667.13421 55.183432 
L 667.735779 54.985894 
L 667.782492 54.788356 
L 668.480774 53.998205 
L 669.994809 53.60313 
L 670.026755 53.208054 
L 670.236062 53.010517 
L 670.68765 52.812979 
L 672.36788 52.615441 
L 673.03181 52.417904 
L 675.630201 52.220366 
L 675.902578 51.82529 
L 676.046328 51.627753 
L 676.138598 51.232677 
L 676.626822 50.837602 
L 678.886677 50.640064 
L 679.568182 50.244988 
L 679.568182 50.244988 
" clip-path="url(#p38c86fa252)" style="fill: none; stroke: #1f77b4; stroke-width: 2; stroke-linecap: square"/>
   </g>
   <g id="line2d_36">
    <path d="M 122.806259 363.144758 
L 244.191939 362.94722 
L 244.607249 362.749682 
L 256.245225 362.552144 
L 306.429875 362.157069 
L 323.912986 361.959531 
L 411.080698 361.564456 
L 415.641302 361.366918 
L 425.391054 361.16938 
L 428.549477 360.971842 
L 434.52965 360.774305 
L 448.941109 360.576767 
L 476.016439 360.379229 
L 491.885057 359.984154 
L 492.11582 359.786616 
L 502.916023 358.996465 
L 502.918923 358.798927 
L 505.107425 358.60139 
L 505.756264 358.206314 
L 509.541329 357.811239 
L 509.5758 357.416163 
L 509.820358 357.218626 
L 509.859363 356.82355 
L 510.439471 356.626012 
L 511.072035 356.033399 
L 511.111632 355.835861 
L 514.126707 355.638324 
L 515.226753 355.440786 
L 515.915977 354.453097 
L 515.945892 354.25556 
L 516.16612 354.058022 
L 516.846139 353.662946 
L 518.123798 353.465409 
L 518.180426 353.070333 
L 518.41048 352.872795 
L 518.426432 352.675258 
L 518.713776 352.47772 
L 518.714995 352.280182 
L 519.306965 352.082644 
L 519.478192 351.490031 
L 520.372816 351.292494 
L 520.380931 351.094956 
L 523.170035 350.897418 
L 523.193466 350.69988 
L 524.963437 350.304805 
L 525.161017 349.909729 
L 525.649372 349.712192 
L 525.674001 349.514654 
L 526.646739 349.317116 
L 526.804475 349.119578 
L 529.908006 348.922041 
L 530.660988 348.724503 
L 534.75081 348.329428 
L 535.678713 348.13189 
L 538.897849 347.934352 
L 539.478211 347.736814 
L 544.080411 347.144201 
L 544.080844 346.946663 
L 545.910811 346.749126 
L 545.934668 346.551588 
L 546.34754 346.35405 
L 546.37564 346.156512 
L 547.657569 345.761437 
L 547.956821 345.366362 
L 548.561446 345.168824 
L 548.582707 344.971286 
L 549.401258 344.378673 
L 549.490389 344.181135 
L 549.947047 343.983597 
L 551.777639 343.390984 
L 552.673493 342.600833 
L 553.557911 342.403296 
L 553.594505 342.00822 
L 553.813798 341.810682 
L 554.939401 341.613145 
L 559.537867 339.637767 
L 559.548825 339.44023 
L 559.992926 338.650079 
L 560.012979 338.452541 
L 561.747635 337.859928 
L 561.978706 337.464852 
L 562.045827 337.069777 
L 563.871478 336.872239 
L 565.166526 336.279626 
L 565.207478 335.88455 
L 565.680638 335.687013 
L 566.246885 334.896862 
L 566.278881 334.699324 
L 566.481137 334.501786 
L 566.491257 334.304248 
L 567.927254 334.106711 
L 568.338114 333.711635 
L 568.619034 333.514098 
L 572.423653 333.31656 
L 573.123125 333.119022 
L 573.322087 332.921484 
L 577.023183 331.933796 
L 577.058327 331.736258 
L 577.586942 331.53872 
L 579.011993 331.341182 
L 579.73527 330.551032 
L 579.735367 330.353494 
L 579.911115 330.155956 
L 582.23638 329.563343 
L 584.4312 329.365805 
L 584.438769 329.168267 
L 587.189713 328.97073 
L 589.028043 328.575654 
L 590.59503 328.378117 
L 591.697835 327.785503 
L 591.967981 326.797815 
L 596.477823 326.205201 
L 596.870676 325.810126 
L 596.921404 325.612588 
L 598.727298 325.217513 
L 601.506587 325.019975 
L 601.709513 324.822437 
L 602.646056 324.6249 
L 602.650953 324.427362 
L 604.436127 324.229824 
L 604.819596 324.032286 
L 607.58443 323.834749 
L 608.049955 323.637211 
L 608.992604 323.439673 
L 612.855004 323.242135 
L 613.055926 323.044598 
L 613.968478 322.84706 
L 614.022418 322.649522 
L 615.315822 322.451985 
L 615.561266 322.056909 
L 617.200439 321.859371 
L 622.602667 321.464296 
L 628.273287 321.266758 
L 631.963434 320.871683 
L 638.28179 320.476607 
L 639.1785 320.279069 
L 639.323466 320.081532 
L 639.844573 319.883994 
L 647.746029 319.291381 
L 647.957566 319.093843 
L 664.397927 318.698768 
L 678.135203 318.50123 
L 678.135203 318.50123 
" clip-path="url(#p38c86fa252)" style="fill: none; stroke: #ff7f0e; stroke-width: 2; stroke-linecap: square"/>
   </g>
   <g id="line2d_37">
    <path d="M 180.046468 363.144758 
L 228.587673 362.94722 
L 369.728909 362.749682 
L 373.842829 362.552144 
L 378.640943 362.354607 
L 380.671114 362.157069 
L 420.582083 361.959531 
L 424.636207 361.761993 
L 428.533832 361.564456 
L 429.400837 361.366918 
L 431.480732 361.16938 
L 432.811996 360.971842 
L 433.272254 360.774305 
L 433.298281 360.576767 
L 433.527292 360.379229 
L 435.812948 360.181692 
L 439.193301 359.984154 
L 439.378581 359.786616 
L 439.635363 359.589078 
L 441.00048 359.391541 
L 441.220614 359.194003 
L 441.261309 358.996465 
L 442.587665 358.798927 
L 442.611753 358.60139 
L 442.614772 358.403852 
L 442.813329 358.206314 
L 442.87027 358.008776 
L 443.753009 357.811239 
L 444.208057 357.613701 
L 444.403661 357.416163 
L 446.220495 357.218626 
L 455.493612 357.021088 
L 461.711498 356.82355 
L 463.083125 356.626012 
L 463.842748 356.428475 
L 471.189017 356.230937 
L 472.996102 356.033399 
L 474.431952 355.835861 
L 474.93592 355.638324 
L 475.76134 355.440786 
L 477.799469 355.243248 
L 482.126275 355.04571 
L 485.799839 354.848173 
L 492.333553 354.650635 
L 502.715099 354.453097 
L 505.276707 354.25556 
L 510.260463 354.058022 
L 516.819644 353.860484 
L 517.486074 353.662946 
L 517.740064 353.465409 
L 538.149819 353.267871 
L 539.987428 353.070333 
L 541.073585 352.872795 
L 541.07436 352.675258 
L 559.882696 352.47772 
L 591.697835 352.280182 
L 591.759102 352.082644 
L 591.967981 351.885107 
L 593.363116 351.687569 
L 593.987255 351.490031 
L 595.178634 351.292494 
L 595.571027 351.094956 
L 596.297491 350.897418 
L 596.311118 350.69988 
L 596.472968 350.502343 
L 596.476825 350.304805 
L 596.495775 350.107267 
L 596.518717 349.909729 
L 596.691912 349.712192 
L 597.124162 349.514654 
L 597.192817 349.317116 
L 597.874719 349.119578 
" clip-path="url(#p38c86fa252)" style="fill: none; stroke: #2ca02c; stroke-width: 2; stroke-linecap: square"/>
   </g>
   <g id="line2d_38">
    <path d="M 322.3359 363.144758 
L 327.785191 362.94722 
L 330.06015 361.959531 
L 337.726938 361.761993 
L 339.356819 361.564456 
L 354.361085 360.774305 
L 355.096657 360.576767 
L 355.116665 360.379229 
L 358.286642 359.984154 
L 362.730104 359.391541 
L 362.757804 359.194003 
L 363.367176 358.996465 
L 363.436569 358.798927 
L 366.513364 358.60139 
L 367.473008 358.403852 
L 367.509654 358.206314 
L 368.197947 357.811239 
L 370.386157 357.613701 
L 379.003032 357.218626 
L 382.052215 356.626012 
L 390.208493 356.428475 
L 390.408576 356.230937 
L 391.092582 356.033399 
L 396.155654 355.638324 
L 396.436698 355.440786 
L 404.279402 355.243248 
L 412.143121 354.848173 
L 428.898262 354.650635 
L 430.649123 354.453097 
L 431.095312 354.25556 
L 433.052848 354.058022 
L 433.078922 353.860484 
L 433.269766 353.662946 
L 433.286212 353.465409 
L 433.515843 353.267871 
L 434.818016 353.070333 
L 435.203479 352.872795 
L 435.274478 352.675258 
L 435.882412 352.47772 
L 439.176721 352.280182 
L 439.347354 351.885107 
L 439.434113 351.490031 
L 441.186038 351.094956 
L 441.261309 350.69988 
L 442.87027 350.502343 
L 443.079664 350.304805 
L 444.574662 349.909729 
L 447.292775 349.514654 
L 447.568026 349.317116 
L 450.520126 349.119578 
L 466.30032 348.526965 
L 466.323415 348.329428 
L 467.008742 348.13189 
L 468.168643 347.934352 
L 468.305719 347.736814 
L 470.767505 347.341739 
L 471.2055 347.144201 
L 472.585266 346.946663 
L 472.78527 346.749126 
L 473.185096 346.551588 
L 473.293749 346.156512 
L 473.296466 345.958975 
L 473.972711 345.761437 
L 474.172256 345.563899 
L 474.200585 345.168824 
L 474.305531 344.971286 
L 475.936573 344.773748 
L 479.591534 344.576211 
L 480.488828 344.378673 
L 482.588947 344.181135 
L 482.735991 343.983597 
L 483.498919 343.588522 
L 483.61159 343.390984 
L 491.559194 342.798371 
L 495.219225 342.205758 
L 495.24201 342.00822 
L 495.447424 341.810682 
L 496.305161 341.613145 
L 496.633359 341.415607 
L 498.619382 341.020531 
L 501.824273 340.822994 
L 503.155805 340.625456 
L 503.409734 340.427918 
L 503.423585 340.23038 
L 505.042516 339.835305 
L 505.686899 339.637767 
L 508.893273 339.44023 
L 509.803011 339.242692 
L 509.970972 339.045154 
L 510.45128 338.847616 
L 512.319914 338.650079 
L 512.759606 338.057465 
L 513.834032 337.859928 
L 513.918466 337.267314 
L 514.264916 336.872239 
L 516.526134 336.477164 
L 516.834813 336.279626 
L 522.524348 336.082088 
L 526.749258 335.489475 
L 526.80292 335.291937 
L 527.286407 335.094399 
L 529.284721 334.896862 
L 535.463639 334.699324 
L 535.853418 334.501786 
L 551.871449 334.304248 
L 562.935208 333.909173 
L 571.896582 333.119022 
L 573.078682 332.723947 
L 573.131947 332.526409 
L 576.320427 332.131333 
L 576.460822 331.933796 
L 577.132515 331.736258 
L 577.208368 331.341182 
L 578.27088 331.143645 
L 578.746974 330.748569 
L 578.755234 330.551032 
L 578.994706 330.353494 
L 580.36425 329.760881 
L 580.587413 329.168267 
L 581.253902 328.773192 
L 581.256812 328.575654 
L 582.25337 328.180579 
L 582.465927 327.983041 
L 584.167582 327.785503 
L 584.402969 327.587966 
L 585.08626 327.390428 
L 585.335655 326.600277 
L 585.533629 326.402739 
L 586.673193 326.007664 
L 586.72769 325.810126 
L 593.019675 325.612588 
L 593.037587 325.415051 
L 593.950465 324.6249 
L 595.346201 324.427362 
L 595.390519 324.229824 
L 596.231857 324.032286 
L 596.264016 323.834749 
L 596.691912 323.439673 
L 596.694954 323.242135 
L 596.894037 323.044598 
L 601.343885 322.84706 
L 602.861432 322.649522 
L 606.75849 322.451985 
L 607.783505 322.056909 
L 608.032971 321.859371 
L 611.481498 321.661834 
L 612.596969 321.464296 
L 613.017724 321.266758 
L 614.21957 321.06922 
L 622.619111 320.871683 
L 625.832567 320.476607 
L 631.563855 320.081532 
L 634.627338 319.883994 
L 635.155153 319.686456 
L 636.73768 319.291381 
L 636.87489 319.093843 
L 637.812397 318.896305 
L 638.1355 318.698768 
L 647.332826 318.50123 
L 648.015251 318.303692 
L 654.375525 318.106154 
L 656.628702 317.908617 
L 656.885918 317.711079 
L 658.220158 317.513541 
L 661.139382 317.316003 
L 676.563447 317.118466 
L 677.324516 316.920928 
L 677.324516 316.920928 
" clip-path="url(#p38c86fa252)" style="fill: none; stroke: #d62728; stroke-width: 2; stroke-linecap: square"/>
   </g>
   <g id="line2d_39">
    <path d="M 393.097 363.144758 
L 415.55118 362.749682 
L 415.754545 362.552144 
L 416.484293 362.354607 
L 417.150022 361.761993 
L 420.523744 361.366918 
L 420.533241 361.16938 
L 422.393628 360.774305 
L 422.771551 360.576767 
L 425.536269 360.379229 
L 427.815678 359.786616 
L 428.00727 359.589078 
L 429.860777 359.391541 
L 430.28753 359.194003 
L 434.60939 358.403852 
L 434.670536 358.206314 
L 435.070624 357.811239 
L 437.602123 357.416163 
L 437.796296 357.218626 
L 438.240717 357.021088 
L 439.143837 356.82355 
L 439.146916 356.626012 
L 439.57425 356.428475 
L 443.29489 355.638324 
L 443.710305 355.440786 
L 447.178536 355.243248 
L 447.642057 355.04571 
L 447.808515 354.848173 
L 467.766416 354.453097 
L 468.170151 354.25556 
L 474.786055 353.860484 
L 475.945212 353.465409 
L 479.555955 353.267871 
L 480.717145 353.070333 
L 481.165124 352.675258 
L 481.194148 352.47772 
L 483.87876 352.082644 
L 491.189575 351.885107 
L 492.943873 351.292494 
L 493.030742 351.094956 
L 497.571797 350.897418 
L 499.539245 350.69988 
L 499.543133 350.502343 
L 504.740904 349.712192 
L 509.364811 349.514654 
L 517.057737 348.526965 
L 517.481464 348.329428 
L 522.310785 347.539277 
L 522.503854 347.341739 
L 523.623275 347.144201 
L 524.097612 346.946663 
L 526.350862 346.551588 
L 527.266624 346.35405 
L 529.519622 346.156512 
L 534.315899 345.958975 
L 534.787448 345.563899 
L 535.904342 345.168824 
L 536.33516 344.971286 
L 539.114617 344.773748 
L 539.543698 344.576211 
L 541.085494 344.378673 
L 541.104283 344.181135 
L 541.640305 343.983597 
L 544.022138 343.78606 
L 544.530083 343.390984 
L 545.402937 343.193446 
L 545.841323 342.798371 
L 546.29934 342.403296 
L 546.330456 342.00822 
L 547.663464 341.810682 
L 547.694238 341.613145 
L 548.978881 341.415607 
L 549.022675 341.020531 
L 552.458606 340.822994 
L 552.660182 340.625456 
L 553.527305 340.23038 
L 553.786397 340.032843 
L 555.870498 339.637767 
L 562.667861 339.44023 
L 563.18249 339.242692 
L 563.275554 339.045154 
L 563.539861 338.847616 
L 564.75052 338.650079 
L 564.971169 338.452541 
L 568.297461 337.66239 
L 568.31578 337.464852 
L 569.68731 337.267314 
L 569.915538 337.069777 
L 569.962619 336.872239 
L 579.175493 336.674701 
L 579.402786 336.477164 
L 579.404788 336.279626 
L 579.733649 336.082088 
L 580.788553 335.88455 
L 580.859785 335.687013 
L 582.26587 335.489475 
L 582.83177 335.291937 
L 584.005702 335.094399 
L 584.029189 334.896862 
L 584.444609 334.699324 
L 584.446461 334.501786 
L 584.653672 334.304248 
L 585.138131 334.106711 
L 585.141018 333.711635 
L 585.585465 333.514098 
L 588.060849 333.31656 
L 588.265855 332.921484 
L 588.82301 332.723947 
L 588.974278 332.526409 
L 590.611541 332.328871 
L 591.004523 332.131333 
L 591.983802 331.933796 
L 592.199714 331.736258 
L 593.260038 331.53872 
L 597.828205 331.341182 
L 597.842205 331.143645 
L 598.066763 330.946107 
L 598.074983 330.748569 
L 598.50682 330.551032 
L 598.519257 330.353494 
L 600.988837 329.958418 
L 601.247409 329.760881 
L 601.871805 329.563343 
L 601.872207 329.365805 
L 603.49965 329.168267 
L 603.516813 328.773192 
L 604.184993 328.575654 
L 605.049934 327.785503 
L 606.214726 327.390428 
L 606.983875 326.995352 
L 608.946545 326.797815 
L 609.610897 326.600277 
L 610.971005 326.402739 
L 610.986263 326.205201 
L 611.404838 325.810126 
L 611.473756 325.612588 
L 612.11841 325.415051 
L 617.1895 325.217513 
L 618.010824 324.822437 
L 620.117096 324.6249 
L 626.652969 324.427362 
L 627.362406 324.229824 
L 627.38863 324.032286 
L 628.034249 323.834749 
L 628.240164 323.439673 
L 628.650291 323.044598 
L 628.922728 322.84706 
L 629.875988 322.649522 
L 629.882361 322.254447 
L 630.558654 321.859371 
L 630.814207 321.661834 
L 631.290806 321.464296 
L 631.651907 321.06922 
L 631.882912 320.871683 
L 631.893045 320.476607 
L 633.677667 320.279069 
L 633.713431 320.081532 
L 634.684489 319.686456 
L 638.550809 319.488919 
L 641.706098 319.093843 
L 646.228673 318.896305 
L 647.388222 318.50123 
L 649.081462 318.303692 
L 649.31146 317.908617 
L 650.442389 317.711079 
L 653.896234 317.316003 
L 653.972941 316.920928 
L 657.046594 316.72339 
L 658.944969 316.328315 
L 661.25903 315.735702 
L 663.029721 315.538164 
L 663.434406 315.340626 
L 664.857213 315.143088 
L 665.289307 314.945551 
L 665.436186 314.748013 
L 669.356499 314.550475 
L 670.919897 314.352937 
L 677.622949 313.957862 
L 679.113397 313.760324 
L 679.113397 313.760324 
" clip-path="url(#p38c86fa252)" style="fill: none; stroke: #9467bd; stroke-width: 2; stroke-linecap: square"/>
   </g>
   <g id="line2d_40">
    <path d="M 399.274885 363.144758 
L 408.757834 362.552144 
L 408.969188 362.354607 
L 409.015962 361.959531 
L 409.929228 361.366918 
L 410.589257 361.16938 
L 411.046141 360.576767 
L 411.07851 360.379229 
L 412.118928 360.181692 
L 414.465145 358.206314 
L 415.342283 358.008776 
L 415.519455 357.811239 
L 416.644367 357.613701 
L 416.94538 357.021088 
L 417.185656 356.82355 
L 417.195634 356.626012 
L 418.272457 356.428475 
L 418.52011 356.230937 
L 419.204996 355.835861 
L 419.212909 355.638324 
L 419.453012 355.440786 
L 419.884933 355.243248 
L 420.104207 354.848173 
L 420.547065 354.650635 
L 420.740195 354.25556 
L 421.980383 353.860484 
L 422.642366 353.465409 
L 422.885622 353.070333 
L 423.268215 352.872795 
L 423.366794 352.675258 
L 424.852021 352.47772 
L 425.285025 352.280182 
L 425.31339 351.885107 
L 425.572789 351.687569 
L 425.591489 351.490031 
L 426.411358 351.292494 
L 426.729963 350.897418 
L 426.874726 350.69988 
L 427.859625 350.502343 
L 428.718799 349.514654 
L 429.860777 349.317116 
L 430.26515 349.119578 
L 430.564508 348.329428 
L 432.768123 347.736814 
L 433.054364 347.144201 
L 433.725657 346.35405 
L 433.734122 345.958975 
L 435.812948 344.971286 
L 435.982076 344.773748 
L 436.047972 344.181135 
L 436.239457 343.983597 
L 436.273142 343.78606 
L 436.440623 343.588522 
L 437.567747 343.390984 
L 437.818944 342.995909 
L 437.881118 342.403296 
L 438.003173 342.205758 
L 439.12152 341.415607 
L 439.19451 341.020531 
L 439.21063 340.822994 
L 439.635765 340.23038 
L 439.838389 338.650079 
L 440.529959 338.452541 
L 440.75463 337.66239 
L 441.160492 337.267314 
L 441.261309 336.872239 
L 441.26211 336.674701 
L 441.447376 336.279626 
L 441.448254 336.082088 
L 442.1228 335.489475 
L 442.139603 335.094399 
L 442.541096 334.699324 
L 442.87027 333.909173 
L 443.753009 333.711635 
L 443.954973 333.514098 
L 443.973532 333.31656 
L 444.146351 332.921484 
L 444.58759 331.143645 
L 444.619668 330.748569 
L 444.81776 330.551032 
L 444.863451 330.155956 
L 445.343472 329.958418 
L 445.362593 329.365805 
L 445.940552 328.97073 
L 446.046867 328.378117 
L 446.952113 328.180579 
L 447.075623 327.983041 
L 447.771139 327.390428 
L 448.545587 327.19289 
L 448.556513 326.995352 
L 449.19656 326.797815 
L 449.383037 326.600277 
L 449.386458 326.402739 
L 449.557038 326.205201 
L 450.371343 326.007664 
L 452.117015 325.810126 
L 452.161117 325.612588 
L 455.302166 325.217513 
L 455.493612 325.019975 
L 456.001423 324.822437 
L 457.761986 324.6249 
L 457.787851 324.427362 
L 458.146172 324.229824 
L 460.060069 324.032286 
L 460.280205 323.439673 
L 461.648126 323.242135 
L 461.938662 323.044598 
L 463.00239 322.84706 
L 463.083125 322.649522 
L 463.702884 322.451985 
L 463.853031 322.056909 
L 463.969745 321.859371 
L 464.377746 321.661834 
L 464.397615 321.266758 
L 464.609021 321.06922 
L 464.649227 320.871683 
L 466.449447 320.279069 
L 467.774999 319.291381 
L 467.950753 318.698768 
L 468.031947 318.50123 
L 468.351545 318.303692 
L 468.506688 317.908617 
L 469.204043 317.711079 
L 469.616216 317.316003 
L 469.648228 317.118466 
L 470.79365 316.525853 
L 470.80284 316.328315 
L 471.189017 316.130777 
L 472.311861 315.933239 
L 472.75923 315.340626 
L 472.779701 314.945551 
L 473.179087 314.550475 
L 473.215287 314.352937 
L 474.200585 313.562787 
L 475.498705 313.365249 
L 475.541435 312.970173 
L 477.142441 312.575098 
L 477.750946 312.180022 
L 477.799469 311.982485 
L 478.002605 311.784947 
L 478.049027 311.389871 
L 478.272623 311.192334 
L 478.853201 310.797258 
L 479.195145 310.599721 
L 479.299052 310.402183 
L 479.594889 310.204645 
L 479.652639 310.007107 
L 480.333438 309.612032 
L 480.476691 309.414494 
L 480.967452 309.216956 
L 480.982558 309.019419 
L 483.170613 308.426805 
L 483.184027 308.229268 
L 483.689779 308.03173 
L 483.704228 307.636655 
L 483.964886 307.439117 
L 484.413379 307.241579 
L 487.299529 306.648966 
L 487.356722 306.451428 
L 488.463357 306.25389 
L 488.465601 306.056353 
L 489.805821 305.858815 
L 489.833009 305.661277 
L 490.473738 305.463739 
L 490.529555 305.068664 
L 490.722374 304.871126 
L 490.742107 304.673589 
L 491.57163 304.278513 
L 491.657302 303.6859 
L 492.002453 303.290824 
L 492.361881 302.303136 
L 494.730736 301.512985 
L 495.196369 301.117909 
L 496.192214 300.920372 
L 496.331093 300.722834 
L 498.236517 300.130221 
L 498.260033 299.932683 
L 499.376651 299.34007 
L 499.541898 299.142532 
L 499.543336 298.944994 
L 499.800068 298.747457 
L 499.819133 298.549919 
L 500.914868 298.352381 
L 501.146359 298.154843 
L 501.189657 297.957306 
L 501.68406 297.56223 
L 502.715099 297.364692 
L 503.48383 296.772079 
L 503.501931 296.574541 
L 504.098433 296.377004 
L 504.137128 296.179466 
L 504.501124 295.981928 
L 504.612807 295.586853 
L 504.86035 294.99424 
L 504.939981 294.599164 
L 505.276707 294.204089 
L 505.756264 294.006551 
L 508.157047 293.611475 
L 508.19075 293.413938 
L 508.355391 293.2164 
L 508.791174 293.018862 
L 508.903616 292.821325 
L 509.328031 292.623787 
L 509.539133 292.031174 
L 509.790606 291.833636 
L 510.260463 291.636098 
L 510.398049 291.043485 
L 510.490617 290.64841 
L 510.861204 290.450872 
L 511.866581 290.253334 
L 512.210701 290.055796 
L 512.302924 289.660721 
L 512.746633 289.463183 
L 512.762845 289.265645 
L 512.957278 289.068108 
L 513.643349 288.673032 
L 513.834082 288.475494 
L 513.854193 288.277957 
L 519.763087 287.685344 
L 519.764127 287.487806 
L 520.671635 287.290268 
L 520.690927 287.09273 
L 520.952687 286.895193 
L 522.026817 286.500117 
L 522.049473 286.302579 
L 522.310785 285.907504 
L 522.32235 285.709966 
L 522.543994 285.314891 
L 523.439785 285.117353 
L 523.623275 284.919815 
L 525.190546 284.722278 
L 525.223845 284.52474 
L 525.41709 284.129664 
L 525.448997 283.932127 
L 525.693558 283.734589 
L 526.37624 283.537051 
L 526.80292 283.141976 
L 531.065776 282.351825 
L 534.055328 282.154287 
L 534.462242 281.759212 
L 534.55095 281.561674 
L 535.218395 281.364136 
L 538.890012 280.969061 
L 539.224287 280.771523 
L 539.27905 280.376447 
L 539.908987 280.17891 
L 539.987428 279.981372 
L 543.301147 279.783834 
L 543.898791 279.586296 
L 544.103587 279.191221 
L 544.290146 278.796146 
L 544.950913 278.598608 
L 545.572219 278.005995 
L 545.700521 277.413381 
L 546.312378 276.62323 
L 546.782971 276.425693 
L 547.209409 275.83308 
L 547.620941 275.635542 
L 547.697078 275.042929 
L 548.437576 274.252778 
L 548.790415 274.05524 
L 548.808424 273.857702 
L 549.235958 273.462627 
L 550.222603 273.265089 
L 550.600804 272.870014 
L 550.689313 272.474938 
L 551.143446 271.882325 
L 553.359023 271.092174 
L 553.392701 270.894636 
L 554.218738 269.906948 
L 555.11082 269.70941 
L 555.173656 269.511872 
L 555.591994 269.314334 
L 555.614906 269.116797 
L 556.077656 268.721721 
L 556.792148 268.524183 
L 556.79808 268.326646 
L 557.323501 268.129108 
L 557.435392 267.93157 
L 558.146707 267.734032 
L 558.15916 267.536495 
L 558.571403 266.943882 
L 558.596343 266.548806 
L 558.976094 266.351268 
L 559.065451 265.758655 
L 559.066021 265.561117 
L 559.707794 265.36358 
L 559.8893 265.166042 
L 559.966478 264.178353 
L 560.154219 263.980816 
L 560.193069 263.58574 
L 561.286845 262.993127 
L 561.309181 262.795589 
L 561.534374 262.598051 
L 563.146286 262.202976 
L 564.228181 261.412825 
L 564.469689 261.215287 
L 564.536618 260.820212 
L 564.88078 260.622674 
L 564.915022 260.227599 
L 565.139905 260.030061 
L 565.172834 259.437448 
L 565.363623 259.23991 
L 565.390645 258.844834 
L 566.059462 258.647297 
L 566.272604 258.054684 
L 566.454763 257.857146 
L 566.466666 257.659608 
L 567.014592 257.264533 
L 567.191898 257.066995 
L 568.31578 256.671919 
L 568.335962 256.474382 
L 568.548296 256.276844 
L 569.068602 256.079306 
L 569.287165 255.684231 
L 569.962619 255.289155 
L 570.141691 254.89408 
L 570.188743 254.696542 
L 570.804107 254.499004 
L 571.528769 253.906391 
L 573.658913 253.708853 
L 573.956091 253.511316 
L 574.496421 253.313778 
L 574.497306 253.11624 
L 575.858987 252.326089 
L 576.235665 252.128552 
L 576.280269 251.733476 
L 576.960991 251.535938 
L 577.367744 251.140863 
L 577.429343 250.54825 
L 577.621487 250.350712 
L 577.649242 249.758099 
L 577.860131 249.560561 
L 577.908374 249.165486 
L 578.041528 248.967948 
L 578.542503 248.77041 
L 578.559372 248.375335 
L 578.813118 247.980259 
L 579.031365 246.795033 
L 579.417093 246.597495 
L 579.486224 246.20242 
L 579.637277 245.017193 
L 579.700975 244.42458 
L 580.120874 244.227042 
L 580.186201 243.831967 
L 580.377717 243.634429 
L 580.40377 243.436891 
L 580.646968 243.041816 
L 581.043354 242.449203 
L 581.109842 242.054127 
L 581.295912 241.659052 
L 581.955102 241.461514 
L 582.121663 241.263976 
L 582.196235 240.671363 
L 582.812689 240.473825 
L 582.826372 240.276288 
L 583.163771 240.07875 
L 583.782705 239.881212 
L 583.829581 239.683674 
L 584.163029 239.486137 
L 584.44333 238.695986 
L 584.449002 238.498448 
L 585.091883 238.30091 
L 585.13956 238.103373 
L 585.992218 237.905835 
L 586.054151 237.510759 
L 586.674078 237.313222 
L 586.737787 237.115684 
L 587.183293 236.523071 
L 588.031869 236.325533 
L 588.262482 236.127995 
L 588.294081 235.930457 
L 588.97804 235.73292 
L 592.156337 235.535382 
L 592.343886 235.140307 
L 593.073447 234.547693 
L 593.106841 234.350156 
L 593.738814 234.152618 
L 594.901573 233.95508 
L 595.130531 233.757542 
L 596.015427 233.560005 
L 596.208854 233.362467 
L 597.181607 233.164929 
L 597.181846 232.967391 
L 597.858436 232.769854 
L 597.872312 232.572316 
L 600.326907 232.374778 
L 600.512633 232.177241 
L 601.008178 231.979703 
L 601.042651 231.782165 
L 604.407744 231.584627 
L 604.62985 230.992014 
L 604.878799 230.794476 
L 606.236232 230.596939 
L 608.085718 229.214175 
L 608.337525 229.016637 
L 608.340683 228.819099 
L 609.011115 228.621561 
L 609.409387 228.226486 
L 610.542817 228.028948 
L 610.545922 227.83141 
L 610.786742 227.633873 
L 612.178236 227.238797 
L 612.42431 227.041259 
L 615.53174 226.646184 
L 615.546551 226.448646 
L 615.787899 226.251109 
L 615.813338 226.053571 
L 616.212635 225.856033 
L 616.905931 225.658495 
L 616.976115 225.460958 
L 617.171223 225.26342 
L 617.298918 224.868344 
L 617.60394 224.670807 
L 620.089204 224.078193 
L 620.250201 223.880656 
L 620.950048 223.683118 
L 621.02798 223.48558 
L 625.520228 222.892967 
L 625.791707 222.695429 
L 625.807932 222.497892 
L 626.018401 222.300354 
L 626.451036 222.102816 
L 626.453322 221.905278 
L 626.652969 221.707741 
L 627.102424 221.510203 
L 627.156735 221.312665 
L 627.383928 221.115127 
L 628.296301 220.91759 
L 628.714164 220.522514 
L 628.745209 220.324977 
L 630.241744 219.929901 
L 631.246347 219.337288 
L 631.269394 219.13975 
L 631.620326 218.942212 
L 631.938639 217.954524 
L 632.173485 217.756986 
L 632.839532 217.559448 
L 633.035362 217.361911 
L 633.094091 216.769297 
L 633.69674 216.176684 
L 634.460378 215.979146 
L 634.763172 215.584071 
L 635.726704 215.386533 
L 636.006385 215.188995 
L 636.013835 214.79392 
L 636.59088 214.596382 
L 636.697447 214.398845 
L 636.948805 214.201307 
L 637.565719 214.003769 
L 637.795263 213.608694 
L 637.812915 213.411156 
L 638.08684 213.213618 
L 639.132136 213.01608 
L 639.222922 212.621005 
L 639.385017 212.423467 
L 639.392715 212.22593 
L 639.890026 212.028392 
L 640.840871 211.830854 
L 641.016333 211.633316 
L 641.414393 211.435779 
L 641.706098 210.843165 
L 642.374648 210.645628 
L 642.409645 210.44809 
L 642.794721 210.250552 
L 642.854914 210.053014 
L 644.152787 209.855477 
L 644.175916 209.657939 
L 644.360978 209.460401 
L 645.795281 208.867788 
L 646.025658 208.67025 
L 646.027781 208.472713 
L 647.600112 208.077637 
L 648.076219 207.682562 
L 649.309406 207.287486 
L 649.431847 207.089948 
L 650.288562 206.892411 
L 650.328983 206.694873 
L 650.950027 206.10226 
L 650.973781 205.904722 
L 651.936948 205.707184 
L 652.141944 205.509647 
L 652.600413 205.312109 
L 652.616948 205.114571 
L 653.896284 204.917033 
L 653.946864 204.719496 
L 654.175289 204.521958 
L 654.187371 204.32442 
L 654.352422 203.929345 
L 655.088774 203.731807 
L 655.344148 203.336732 
L 656.625678 203.139194 
L 656.866873 202.941656 
L 656.943652 202.546581 
L 657.349969 202.349043 
L 657.616406 201.953967 
L 658.903134 201.558892 
L 658.917121 201.361354 
L 659.816645 201.163816 
L 659.878113 200.571203 
L 660.03421 200.373666 
L 660.03999 200.176128 
L 660.503429 199.781052 
L 661.467131 199.583515 
L 662.30796 199.188439 
L 662.976429 198.990901 
L 663.029721 198.595826 
L 663.265026 198.398288 
L 663.716835 198.20075 
L 665.289307 198.003213 
L 665.303192 197.805675 
L 665.636598 197.608137 
L 665.703876 197.4106 
L 667.122432 197.015524 
L 668.384881 196.620449 
L 668.438913 196.225373 
L 669.068874 196.027835 
L 669.324992 195.830298 
L 670.919897 195.63276 
L 670.965754 195.237684 
L 671.173089 194.842609 
L 674.827771 194.447534 
L 676.854771 194.052458 
L 677.350503 193.85492 
L 679.04477 193.459845 
L 679.09994 193.262307 
L 679.49959 192.867232 
L 679.49959 192.867232 
" clip-path="url(#p38c86fa252)" style="fill: none; stroke: #8c564b; stroke-width: 2; stroke-linecap: square"/>
   </g>
   <g id="patch_3">
    <path d="M 57.3 378.789746 
L 57.3 34.6 
" style="fill: none; stroke: #000000; stroke-width: 0.8; stroke-linejoin: miter; stroke-linecap: square"/>
   </g>
   <g id="patch_4">
    <path d="M 709.2 378.789746 
L 709.2 34.6 
" style="fill: none; stroke: #000000; stroke-width: 0.8; stroke-linejoin: miter; stroke-linecap: square"/>
   </g>
   <g id="patch_5">
    <path d="M 57.3 378.789746 
L 709.2 378.789746 
" style="fill: none; stroke: #000000; stroke-width: 0.8; stroke-linejoin: miter; stroke-linecap: square"/>
   </g>
   <g id="patch_6">
    <path d="M 57.3 34.6 
L 709.2 34.6 
" style="fill: none; stroke: #000000; stroke-width: 0.8; stroke-linejoin: miter; stroke-linecap: square"/>
   </g>
   <g id="legend_1">
    <g id="patch_7">
     <path d="M 64.3 130.66875 
L 218.645312 130.66875 
Q 220.645312 130.66875 220.645312 128.66875 
L 220.645312 41.6 
Q 220.645312 39.6 218.645312 39.6 
L 64.3 39.6 
Q 62.3 39.6 62.3 41.6 
L 62.3 128.66875 
Q 62.3 130.66875 64.3 130.66875 
z
" style="fill: #ffffff; opacity: 0.8; stroke: #cccccc; stroke-linejoin: miter"/>
    </g>
    <g id="line2d_41">
     <path d="M 66.3 47.698438 
L 76.3 47.698438 
L 86.3 47.698438 
" style="fill: none; stroke: #1f77b4; stroke-width: 2; stroke-linecap: square"/>
    </g>
    <g id="text_20">
     <!-- TableSQL/API -->
     <g transform="translate(94.3 51.198438)scale(0.1 -0.1)">
      <defs>
       <path id="DejaVuSans-54" d="M -19 4666 
L 3928 4666 
L 3928 4134 
L 2272 4134 
L 2272 0 
L 1638 0 
L 1638 4134 
L -19 4134 
L -19 4666 
z
" transform="scale(0.015625)"/>
       <path id="DejaVuSans-62" d="M 3116 1747 
Q 3116 2381 2855 2742 
Q 2594 3103 2138 3103 
Q 1681 3103 1420 2742 
Q 1159 2381 1159 1747 
Q 1159 1113 1420 752 
Q 1681 391 2138 391 
Q 2594 391 2855 752 
Q 3116 1113 3116 1747 
z
M 1159 2969 
Q 1341 3281 1617 3432 
Q 1894 3584 2278 3584 
Q 2916 3584 3314 3078 
Q 3713 2572 3713 1747 
Q 3713 922 3314 415 
Q 2916 -91 2278 -91 
Q 1894 -91 1617 61 
Q 1341 213 1159 525 
L 1159 0 
L 581 0 
L 581 4863 
L 1159 4863 
L 1159 2969 
z
" transform="scale(0.015625)"/>
       <path id="DejaVuSans-6c" d="M 603 4863 
L 1178 4863 
L 1178 0 
L 603 0 
L 603 4863 
z
" transform="scale(0.015625)"/>
       <path id="DejaVuSans-53" d="M 3425 4513 
L 3425 3897 
Q 3066 4069 2747 4153 
Q 2428 4238 2131 4238 
Q 1616 4238 1336 4038 
Q 1056 3838 1056 3469 
Q 1056 3159 1242 3001 
Q 1428 2844 1947 2747 
L 2328 2669 
Q 3034 2534 3370 2195 
Q 3706 1856 3706 1288 
Q 3706 609 3251 259 
Q 2797 -91 1919 -91 
Q 1588 -91 1214 -16 
Q 841 59 441 206 
L 441 856 
Q 825 641 1194 531 
Q 1563 422 1919 422 
Q 2459 422 2753 634 
Q 3047 847 3047 1241 
Q 3047 1584 2836 1778 
Q 2625 1972 2144 2069 
L 1759 2144 
Q 1053 2284 737 2584 
Q 422 2884 422 3419 
Q 422 4038 858 4394 
Q 1294 4750 2059 4750 
Q 2388 4750 2728 4690 
Q 3069 4631 3425 4513 
z
" transform="scale(0.015625)"/>
       <path id="DejaVuSans-51" d="M 2522 4238 
Q 1834 4238 1429 3725 
Q 1025 3213 1025 2328 
Q 1025 1447 1429 934 
Q 1834 422 2522 422 
Q 3209 422 3611 934 
Q 4013 1447 4013 2328 
Q 4013 3213 3611 3725 
Q 3209 4238 2522 4238 
z
M 3406 84 
L 4238 -825 
L 3475 -825 
L 2784 -78 
Q 2681 -84 2626 -87 
Q 2572 -91 2522 -91 
Q 1538 -91 948 567 
Q 359 1225 359 2328 
Q 359 3434 948 4092 
Q 1538 4750 2522 4750 
Q 3503 4750 4090 4092 
Q 4678 3434 4678 2328 
Q 4678 1516 4351 937 
Q 4025 359 3406 84 
z
" transform="scale(0.015625)"/>
       <path id="DejaVuSans-4c" d="M 628 4666 
L 1259 4666 
L 1259 531 
L 3531 531 
L 3531 0 
L 628 0 
L 628 4666 
z
" transform="scale(0.015625)"/>
       <path id="DejaVuSans-2f" d="M 1625 4666 
L 2156 4666 
L 531 -594 
L 0 -594 
L 1625 4666 
z
" transform="scale(0.015625)"/>
       <path id="DejaVuSans-41" d="M 2188 4044 
L 1331 1722 
L 3047 1722 
L 2188 4044 
z
M 1831 4666 
L 2547 4666 
L 4325 0 
L 3669 0 
L 3244 1197 
L 1141 1197 
L 716 0 
L 50 0 
L 1831 4666 
z
" transform="scale(0.015625)"/>
       <path id="DejaVuSans-50" d="M 1259 4147 
L 1259 2394 
L 2053 2394 
Q 2494 2394 2734 2622 
Q 2975 2850 2975 3272 
Q 2975 3691 2734 3919 
Q 2494 4147 2053 4147 
L 1259 4147 
z
M 628 4666 
L 2053 4666 
Q 2838 4666 3239 4311 
Q 3641 3956 3641 3272 
Q 3641 2581 3239 2228 
Q 2838 1875 2053 1875 
L 1259 1875 
L 1259 0 
L 628 0 
L 628 4666 
z
" transform="scale(0.015625)"/>
       <path id="DejaVuSans-49" d="M 628 4666 
L 1259 4666 
L 1259 0 
L 628 0 
L 628 4666 
z
" transform="scale(0.015625)"/>
      </defs>
      <use xlink:href="#DejaVuSans-54"/>
      <use xlink:href="#DejaVuSans-61" x="44.583984"/>
      <use xlink:href="#DejaVuSans-62" x="105.863281"/>
      <use xlink:href="#DejaVuSans-6c" x="169.339844"/>
      <use xlink:href="#DejaVuSans-65" x="197.123047"/>
      <use xlink:href="#DejaVuSans-53" x="258.646484"/>
      <use xlink:href="#DejaVuSans-51" x="322.123047"/>
      <use xlink:href="#DejaVuSans-4c" x="400.833984"/>
      <use xlink:href="#DejaVuSans-2f" x="456.546875"/>
      <use xlink:href="#DejaVuSans-41" x="490.238281"/>
      <use xlink:href="#DejaVuSans-50" x="558.646484"/>
      <use xlink:href="#DejaVuSans-49" x="618.949219"/>
     </g>
    </g>
    <g id="line2d_42">
     <path d="M 66.3 62.376563 
L 76.3 62.376563 
L 86.3 62.376563 
" style="fill: none; stroke: #ff7f0e; stroke-width: 2; stroke-linecap: square"/>
    </g>
    <g id="text_21">
     <!-- TableSQL/Ecosystem -->
     <g transform="translate(94.3 65.876563)scale(0.1 -0.1)">
      <defs>
       <path id="DejaVuSans-45" d="M 628 4666 
L 3578 4666 
L 3578 4134 
L 1259 4134 
L 1259 2753 
L 3481 2753 
L 3481 2222 
L 1259 2222 
L 1259 531 
L 3634 531 
L 3634 0 
L 628 0 
L 628 4666 
z
" transform="scale(0.015625)"/>
       <path id="DejaVuSans-73" d="M 2834 3397 
L 2834 2853 
Q 2591 2978 2328 3040 
Q 2066 3103 1784 3103 
Q 1356 3103 1142 2972 
Q 928 2841 928 2578 
Q 928 2378 1081 2264 
Q 1234 2150 1697 2047 
L 1894 2003 
Q 2506 1872 2764 1633 
Q 3022 1394 3022 966 
Q 3022 478 2636 193 
Q 2250 -91 1575 -91 
Q 1294 -91 989 -36 
Q 684 19 347 128 
L 347 722 
Q 666 556 975 473 
Q 1284 391 1588 391 
Q 1994 391 2212 530 
Q 2431 669 2431 922 
Q 2431 1156 2273 1281 
Q 2116 1406 1581 1522 
L 1381 1569 
Q 847 1681 609 1914 
Q 372 2147 372 2553 
Q 372 3047 722 3315 
Q 1072 3584 1716 3584 
Q 2034 3584 2315 3537 
Q 2597 3491 2834 3397 
z
" transform="scale(0.015625)"/>
       <path id="DejaVuSans-79" d="M 2059 -325 
Q 1816 -950 1584 -1140 
Q 1353 -1331 966 -1331 
L 506 -1331 
L 506 -850 
L 844 -850 
Q 1081 -850 1212 -737 
Q 1344 -625 1503 -206 
L 1606 56 
L 191 3500 
L 800 3500 
L 1894 763 
L 2988 3500 
L 3597 3500 
L 2059 -325 
z
" transform="scale(0.015625)"/>
      </defs>
      <use xlink:href="#DejaVuSans-54"/>
      <use xlink:href="#DejaVuSans-61" x="44.583984"/>
      <use xlink:href="#DejaVuSans-62" x="105.863281"/>
      <use xlink:href="#DejaVuSans-6c" x="169.339844"/>
      <use xlink:href="#DejaVuSans-65" x="197.123047"/>
      <use xlink:href="#DejaVuSans-53" x="258.646484"/>
      <use xlink:href="#DejaVuSans-51" x="322.123047"/>
      <use xlink:href="#DejaVuSans-4c" x="400.833984"/>
      <use xlink:href="#DejaVuSans-2f" x="456.546875"/>
      <use xlink:href="#DejaVuSans-45" x="490.238281"/>
      <use xlink:href="#DejaVuSans-63" x="553.421875"/>
      <use xlink:href="#DejaVuSans-6f" x="608.402344"/>
      <use xlink:href="#DejaVuSans-73" x="669.583984"/>
      <use xlink:href="#DejaVuSans-79" x="721.683594"/>
      <use xlink:href="#DejaVuSans-73" x="780.863281"/>
      <use xlink:href="#DejaVuSans-74" x="832.962891"/>
      <use xlink:href="#DejaVuSans-65" x="872.171875"/>
      <use xlink:href="#DejaVuSans-6d" x="933.695312"/>
     </g>
    </g>
    <g id="line2d_43">
     <path d="M 66.3 77.054688 
L 76.3 77.054688 
L 86.3 77.054688 
" style="fill: none; stroke: #2ca02c; stroke-width: 2; stroke-linecap: square"/>
    </g>
    <g id="text_22">
     <!-- TableSQL/LegacyPlanner -->
     <g transform="translate(94.3 80.554688)scale(0.1 -0.1)">
      <defs>
       <path id="DejaVuSans-67" d="M 2906 1791 
Q 2906 2416 2648 2759 
Q 2391 3103 1925 3103 
Q 1463 3103 1205 2759 
Q 947 2416 947 1791 
Q 947 1169 1205 825 
Q 1463 481 1925 481 
Q 2391 481 2648 825 
Q 2906 1169 2906 1791 
z
M 3481 434 
Q 3481 -459 3084 -895 
Q 2688 -1331 1869 -1331 
Q 1566 -1331 1297 -1286 
Q 1028 -1241 775 -1147 
L 775 -588 
Q 1028 -725 1275 -790 
Q 1522 -856 1778 -856 
Q 2344 -856 2625 -561 
Q 2906 -266 2906 331 
L 2906 616 
Q 2728 306 2450 153 
Q 2172 0 1784 0 
Q 1141 0 747 490 
Q 353 981 353 1791 
Q 353 2603 747 3093 
Q 1141 3584 1784 3584 
Q 2172 3584 2450 3431 
Q 2728 3278 2906 2969 
L 2906 3500 
L 3481 3500 
L 3481 434 
z
" transform="scale(0.015625)"/>
      </defs>
      <use xlink:href="#DejaVuSans-54"/>
      <use xlink:href="#DejaVuSans-61" x="44.583984"/>
      <use xlink:href="#DejaVuSans-62" x="105.863281"/>
      <use xlink:href="#DejaVuSans-6c" x="169.339844"/>
      <use xlink:href="#DejaVuSans-65" x="197.123047"/>
      <use xlink:href="#DejaVuSans-53" x="258.646484"/>
      <use xlink:href="#DejaVuSans-51" x="322.123047"/>
      <use xlink:href="#DejaVuSans-4c" x="400.833984"/>
      <use xlink:href="#DejaVuSans-2f" x="456.546875"/>
      <use xlink:href="#DejaVuSans-4c" x="490.238281"/>
      <use xlink:href="#DejaVuSans-65" x="544.201172"/>
      <use xlink:href="#DejaVuSans-67" x="605.724609"/>
      <use xlink:href="#DejaVuSans-61" x="669.201172"/>
      <use xlink:href="#DejaVuSans-63" x="730.480469"/>
      <use xlink:href="#DejaVuSans-79" x="785.460938"/>
      <use xlink:href="#DejaVuSans-50" x="844.640625"/>
      <use xlink:href="#DejaVuSans-6c" x="904.943359"/>
      <use xlink:href="#DejaVuSans-61" x="932.726562"/>
      <use xlink:href="#DejaVuSans-6e" x="994.005859"/>
      <use xlink:href="#DejaVuSans-6e" x="1057.384766"/>
      <use xlink:href="#DejaVuSans-65" x="1120.763672"/>
      <use xlink:href="#DejaVuSans-72" x="1182.287109"/>
     </g>
    </g>
    <g id="line2d_44">
     <path d="M 66.3 91.732813 
L 76.3 91.732813 
L 86.3 91.732813 
" style="fill: none; stroke: #d62728; stroke-width: 2; stroke-linecap: square"/>
    </g>
    <g id="text_23">
     <!-- TableSQL/Client -->
     <g transform="translate(94.3 95.232813)scale(0.1 -0.1)">
      <defs>
       <path id="DejaVuSans-43" d="M 4122 4306 
L 4122 3641 
Q 3803 3938 3442 4084 
Q 3081 4231 2675 4231 
Q 1875 4231 1450 3742 
Q 1025 3253 1025 2328 
Q 1025 1406 1450 917 
Q 1875 428 2675 428 
Q 3081 428 3442 575 
Q 3803 722 4122 1019 
L 4122 359 
Q 3791 134 3420 21 
Q 3050 -91 2638 -91 
Q 1578 -91 968 557 
Q 359 1206 359 2328 
Q 359 3453 968 4101 
Q 1578 4750 2638 4750 
Q 3056 4750 3426 4639 
Q 3797 4528 4122 4306 
z
" transform="scale(0.015625)"/>
      </defs>
      <use xlink:href="#DejaVuSans-54"/>
      <use xlink:href="#DejaVuSans-61" x="44.583984"/>
      <use xlink:href="#DejaVuSans-62" x="105.863281"/>
      <use xlink:href="#DejaVuSans-6c" x="169.339844"/>
      <use xlink:href="#DejaVuSans-65" x="197.123047"/>
      <use xlink:href="#DejaVuSans-53" x="258.646484"/>
      <use xlink:href="#DejaVuSans-51" x="322.123047"/>
      <use xlink:href="#DejaVuSans-4c" x="400.833984"/>
      <use xlink:href="#DejaVuSans-2f" x="456.546875"/>
      <use xlink:href="#DejaVuSans-43" x="490.238281"/>
      <use xlink:href="#DejaVuSans-6c" x="560.0625"/>
      <use xlink:href="#DejaVuSans-69" x="587.845703"/>
      <use xlink:href="#DejaVuSans-65" x="615.628906"/>
      <use xlink:href="#DejaVuSans-6e" x="677.152344"/>
      <use xlink:href="#DejaVuSans-74" x="740.53125"/>
     </g>
    </g>
    <g id="line2d_45">
     <path d="M 66.3 106.410938 
L 76.3 106.410938 
L 86.3 106.410938 
" style="fill: none; stroke: #9467bd; stroke-width: 2; stroke-linecap: square"/>
    </g>
    <g id="text_24">
     <!-- TableSQL/Runtime -->
     <g transform="translate(94.3 109.910938)scale(0.1 -0.1)">
      <defs>
       <path id="DejaVuSans-52" d="M 2841 2188 
Q 3044 2119 3236 1894 
Q 3428 1669 3622 1275 
L 4263 0 
L 3584 0 
L 2988 1197 
Q 2756 1666 2539 1819 
Q 2322 1972 1947 1972 
L 1259 1972 
L 1259 0 
L 628 0 
L 628 4666 
L 2053 4666 
Q 2853 4666 3247 4331 
Q 3641 3997 3641 3322 
Q 3641 2881 3436 2590 
Q 3231 2300 2841 2188 
z
M 1259 4147 
L 1259 2491 
L 2053 2491 
Q 2509 2491 2742 2702 
Q 2975 2913 2975 3322 
Q 2975 3731 2742 3939 
Q 2509 4147 2053 4147 
L 1259 4147 
z
" transform="scale(0.015625)"/>
      </defs>
      <use xlink:href="#DejaVuSans-54"/>
      <use xlink:href="#DejaVuSans-61" x="44.583984"/>
      <use xlink:href="#DejaVuSans-62" x="105.863281"/>
      <use xlink:href="#DejaVuSans-6c" x="169.339844"/>
      <use xlink:href="#DejaVuSans-65" x="197.123047"/>
      <use xlink:href="#DejaVuSans-53" x="258.646484"/>
      <use xlink:href="#DejaVuSans-51" x="322.123047"/>
      <use xlink:href="#DejaVuSans-4c" x="400.833984"/>
      <use xlink:href="#DejaVuSans-2f" x="456.546875"/>
      <use xlink:href="#DejaVuSans-52" x="490.238281"/>
      <use xlink:href="#DejaVuSans-75" x="555.220703"/>
      <use xlink:href="#DejaVuSans-6e" x="618.599609"/>
      <use xlink:href="#DejaVuSans-74" x="681.978516"/>
      <use xlink:href="#DejaVuSans-69" x="721.1875"/>
      <use xlink:href="#DejaVuSans-6d" x="748.970703"/>
      <use xlink:href="#DejaVuSans-65" x="846.382812"/>
     </g>
    </g>
    <g id="line2d_46">
     <path d="M 66.3 121.089063 
L 76.3 121.089063 
L 86.3 121.089063 
" style="fill: none; stroke: #8c564b; stroke-width: 2; stroke-linecap: square"/>
    </g>
    <g id="text_25">
     <!-- TableSQL/Planner -->
     <g transform="translate(94.3 124.589063)scale(0.1 -0.1)">
      <use xlink:href="#DejaVuSans-54"/>
      <use xlink:href="#DejaVuSans-61" x="44.583984"/>
      <use xlink:href="#DejaVuSans-62" x="105.863281"/>
      <use xlink:href="#DejaVuSans-6c" x="169.339844"/>
      <use xlink:href="#DejaVuSans-65" x="197.123047"/>
      <use xlink:href="#DejaVuSans-53" x="258.646484"/>
      <use xlink:href="#DejaVuSans-51" x="322.123047"/>
      <use xlink:href="#DejaVuSans-4c" x="400.833984"/>
      <use xlink:href="#DejaVuSans-2f" x="456.546875"/>
      <use xlink:href="#DejaVuSans-50" x="490.238281"/>
      <use xlink:href="#DejaVuSans-6c" x="550.541016"/>
      <use xlink:href="#DejaVuSans-61" x="578.324219"/>
      <use xlink:href="#DejaVuSans-6e" x="639.603516"/>
      <use xlink:href="#DejaVuSans-6e" x="702.982422"/>
      <use xlink:href="#DejaVuSans-65" x="766.361328"/>
      <use xlink:href="#DejaVuSans-72" x="827.884766"/>
     </g>
    </g>
   </g>
  </g>
  <g id="text_26">
   <!-- Total PRs for components with prefix 'TableSQL' -->
   <g transform="translate(217.730625 17.758125)scale(0.12 -0.12)">
    <defs>
     <path id="DejaVuSans-66" d="M 2375 4863 
L 2375 4384 
L 1825 4384 
Q 1516 4384 1395 4259 
Q 1275 4134 1275 3809 
L 1275 3500 
L 2222 3500 
L 2222 3053 
L 1275 3053 
L 1275 0 
L 697 0 
L 697 3053 
L 147 3053 
L 147 3500 
L 697 3500 
L 697 3744 
Q 697 4328 969 4595 
Q 1241 4863 1831 4863 
L 2375 4863 
z
" transform="scale(0.015625)"/>
     <path id="DejaVuSans-70" d="M 1159 525 
L 1159 -1331 
L 581 -1331 
L 581 3500 
L 1159 3500 
L 1159 2969 
Q 1341 3281 1617 3432 
Q 1894 3584 2278 3584 
Q 2916 3584 3314 3078 
Q 3713 2572 3713 1747 
Q 3713 922 3314 415 
Q 2916 -91 2278 -91 
Q 1894 -91 1617 61 
Q 1341 213 1159 525 
z
M 3116 1747 
Q 3116 2381 2855 2742 
Q 2594 3103 2138 3103 
Q 1681 3103 1420 2742 
Q 1159 2381 1159 1747 
Q 1159 1113 1420 752 
Q 1681 391 2138 391 
Q 2594 391 2855 752 
Q 3116 1113 3116 1747 
z
" transform="scale(0.015625)"/>
     <path id="DejaVuSans-77" d="M 269 3500 
L 844 3500 
L 1563 769 
L 2278 3500 
L 2956 3500 
L 3675 769 
L 4391 3500 
L 4966 3500 
L 4050 0 
L 3372 0 
L 2619 2869 
L 1863 0 
L 1184 0 
L 269 3500 
z
" transform="scale(0.015625)"/>
     <path id="DejaVuSans-68" d="M 3513 2113 
L 3513 0 
L 2938 0 
L 2938 2094 
Q 2938 2591 2744 2837 
Q 2550 3084 2163 3084 
Q 1697 3084 1428 2787 
Q 1159 2491 1159 1978 
L 1159 0 
L 581 0 
L 581 4863 
L 1159 4863 
L 1159 2956 
Q 1366 3272 1645 3428 
Q 1925 3584 2291 3584 
Q 2894 3584 3203 3211 
Q 3513 2838 3513 2113 
z
" transform="scale(0.015625)"/>
     <path id="DejaVuSans-78" d="M 3513 3500 
L 2247 1797 
L 3578 0 
L 2900 0 
L 1881 1375 
L 863 0 
L 184 0 
L 1544 1831 
L 300 3500 
L 978 3500 
L 1906 2253 
L 2834 3500 
L 3513 3500 
z
" transform="scale(0.015625)"/>
     <path id="DejaVuSans-27" d="M 1147 4666 
L 1147 2931 
L 616 2931 
L 616 4666 
L 1147 4666 
z
" transform="scale(0.015625)"/>
    </defs>
    <use xlink:href="#DejaVuSans-54"/>
    <use xlink:href="#DejaVuSans-6f" x="44.083984"/>
    <use xlink:href="#DejaVuSans-74" x="105.265625"/>
    <use xlink:href="#DejaVuSans-61" x="144.474609"/>
    <use xlink:href="#DejaVuSans-6c" x="205.753906"/>
    <use xlink:href="#DejaVuSans-20" x="233.537109"/>
    <use xlink:href="#DejaVuSans-50" x="265.324219"/>
    <use xlink:href="#DejaVuSans-52" x="325.626953"/>
    <use xlink:href="#DejaVuSans-73" x="395.109375"/>
    <use xlink:href="#DejaVuSans-20" x="447.208984"/>
    <use xlink:href="#DejaVuSans-66" x="478.996094"/>
    <use xlink:href="#DejaVuSans-6f" x="514.201172"/>
    <use xlink:href="#DejaVuSans-72" x="575.382812"/>
    <use xlink:href="#DejaVuSans-20" x="616.496094"/>
    <use xlink:href="#DejaVuSans-63" x="648.283203"/>
    <use xlink:href="#DejaVuSans-6f" x="703.263672"/>
    <use xlink:href="#DejaVuSans-6d" x="764.445312"/>
    <use xlink:href="#DejaVuSans-70" x="861.857422"/>
    <use xlink:href="#DejaVuSans-6f" x="925.333984"/>
    <use xlink:href="#DejaVuSans-6e" x="986.515625"/>
    <use xlink:href="#DejaVuSans-65" x="1049.894531"/>
    <use xlink:href="#DejaVuSans-6e" x="1111.417969"/>
    <use xlink:href="#DejaVuSans-74" x="1174.796875"/>
    <use xlink:href="#DejaVuSans-73" x="1214.005859"/>
    <use xlink:href="#DejaVuSans-20" x="1266.105469"/>
    <use xlink:href="#DejaVuSans-77" x="1297.892578"/>
    <use xlink:href="#DejaVuSans-69" x="1379.679688"/>
    <use xlink:href="#DejaVuSans-74" x="1407.462891"/>
    <use xlink:href="#DejaVuSans-68" x="1446.671875"/>
    <use xlink:href="#DejaVuSans-20" x="1510.050781"/>
    <use xlink:href="#DejaVuSans-70" x="1541.837891"/>
    <use xlink:href="#DejaVuSans-72" x="1605.314453"/>
    <use xlink:href="#DejaVuSans-65" x="1644.177734"/>
    <use xlink:href="#DejaVuSans-66" x="1705.701172"/>
    <use xlink:href="#DejaVuSans-69" x="1740.90625"/>
    <use xlink:href="#DejaVuSans-78" x="1768.689453"/>
    <use xlink:href="#DejaVuSans-20" x="1827.869141"/>
    <use xlink:href="#DejaVuSans-27" x="1859.65625"/>
    <use xlink:href="#DejaVuSans-54" x="1887.146484"/>
    <use xlink:href="#DejaVuSans-61" x="1931.730469"/>
    <use xlink:href="#DejaVuSans-62" x="1993.009766"/>
    <use xlink:href="#DejaVuSans-6c" x="2056.486328"/>
    <use xlink:href="#DejaVuSans-65" x="2084.269531"/>
    <use xlink:href="#DejaVuSans-53" x="2145.792969"/>
    <use xlink:href="#DejaVuSans-51" x="2209.269531"/>
    <use xlink:href="#DejaVuSans-4c" x="2287.980469"/>
    <use xlink:href="#DejaVuSans-27" x="2343.693359"/>
   </g>
  </g>
 </g>
 <defs>
  <clipPath id="p38c86fa252">
   <rect x="57.3" y="34.6" width="651.9" height="344.189746"/>
  </clipPath>
 </defs>
</svg>
